  0
SECTION
  2
HEADER
  9
$ACADVER
  1
AC1015
  9
$ACADMAINTVER
 70
     6
  9
$DWGCODEPAGE
  3
ANSI_1252
  9
$INSBASE
 10
0.0
 20
0.0
 30
0.0
  9
$EXTMIN
 10
-1.84
 20
-2.33425
 30
0.0
  9
$EXTMAX
 10
1.84
 20
2.33425
 30
0.0
  9
$LIMMIN
 10
0.0
 20
0.0
  9
$LIMMAX
 10
12.0
 20
9.0
  9
$ORTHOMODE
 70
     0
  9
$REGENMODE
 70
     1
  9
$FILLMODE
 70
     1
  9
$QTEXTMODE
 70
     0
  9
$MIRRTEXT
 70
     1
  9
$LTSCALE
 40
1.0
  9
$ATTMODE
 70
     1
  9
$TEXTSIZE
 40
0.125
  9
$TRACEWID
 40
0.05
  9
$TEXTSTYLE
  7
Standard
  9
$CLAYER
  8
0
  9
$CELTYPE
  6
ByLayer
  9
$CECOLOR
 62
   256
  9
$CELTSCALE
 40
1.0
  9
$DISPSILH
 70
     0
  9
$DIMSCALE
 40
1.0
  9
$DIMASZ
 40
0.13
  9
$DIMEXO
 40
0.05
  9
$DIMDLI
 40
0.38
  9
$DIMRND
 40
0.0
  9
$DIMDLE
 40
0.0
  9
$DIMEXE
 40
0.125
  9
$DIMTP
 40
0.0
  9
$DIMTM
 40
0.0
  9
$DIMTXT
 40
0.125
  9
$DIMCEN
 40
0.09
  9
$DIMTSZ
 40
0.0
  9
$DIMTOL
 70
     0
  9
$DIMLIM
 70
     0
  9
$DIMTIH
 70
     1
  9
$DIMTOH
 70
     1
  9
$DIMSE1
 70
     0
  9
$DIMSE2
 70
     0
  9
$DIMTAD
 70
     0
  9
$DIMZIN
 70
     1
  9
$DIMBLK
  1

  9
$DIMASO
 70
     1
  9
$DIMSHO
 70
     1
  9
$DIMPOST
  1

  9
$DIMAPOST
  1

  9
$DIMALT
 70
     0
  9
$DIMALTD
 70
     2
  9
$DIMALTF
 40
25.4
  9
$DIMLFAC
 40
1.0
  9
$DIMTOFL
 70
     0
  9
$DIMTVP
 40
0.0
  9
$DIMTIX
 70
     0
  9
$DIMSOXD
 70
     0
  9
$DIMSAH
 70
     0
  9
$DIMBLK1
  1

  9
$DIMBLK2
  1

  9
$DIMSTYLE
  2
Standard
  9
$DIMCLRD
 70
     0
  9
$DIMCLRE
 70
     0
  9
$DIMCLRT
 70
     0
  9
$DIMTFAC
 40
1.0
  9
$DIMGAP
 40
0.06
  9
$DIMJUST
 70
     0
  9
$DIMSD1
 70
     0
  9
$DIMSD2
 70
     0
  9
$DIMTOLJ
 70
     1
  9
$DIMTZIN
 70
     1
  9
$DIMALTZ
 70
     0
  9
$DIMALTTZ
 70
     0
  9
$DIMUPT
 70
     0
  9
$DIMDEC
 70
     2
  9
$DIMTDEC
 70
     2
  9
$DIMALTU
 70
     2
  9
$DIMALTTD
 70
     2
  9
$DIMTXSTY
  7
Standard
  9
$DIMAUNIT
 70
     0
  9
$DIMADEC
 70
     2
  9
$DIMALTRND
 40
0.0
  9
$DIMAZIN
 70
     0
  9
$DIMDSEP
 70
    46
  9
$DIMATFIT
 70
     3
  9
$DIMFRAC
 70
     0
  9
$DIMLDRBLK
  1

  9
$DIMLUNIT
 70
     2
  9
$DIMLWD
 70
    -2
  9
$DIMLWE
 70
    -2
  9
$DIMTMOVE
 70
     0
  9
$LUNITS
 70
     2
  9
$LUPREC
 70
     2
  9
$SKETCHINC
 40
0.1
  9
$FILLETRAD
 40
0.5
  9
$AUNITS
 70
     0
  9
$AUPREC
 70
     2
  9
$MENU
  1
.
  9
$ELEVATION
 40
0.0
  9
$PELEVATION
 40
0.0
  9
$THICKNESS
 40
0.0
  9
$LIMCHECK
 70
     0
  9
$CHAMFERA
 40
0.0
  9
$CHAMFERB
 40
0.0
  9
$CHAMFERC
 40
0.0
  9
$CHAMFERD
 40
0.0
  9
$SKPOLY
 70
     0
  9
$TDCREATE
 40
2458403.700100046
  9
$TDUCREATE
 40
2458403.866766713
  9
$TDUPDATE
 40
2458403.700186713
  9
$TDUUPDATE
 40
2458403.86685338
  9
$TDINDWG
 40
0.0000000116
  9
$TDUSRTIMER
 40
0.0000000116
  9
$USRTIMER
 70
     1
  9
$ANGBASE
 50
0.0
  9
$ANGDIR
 70
     0
  9
$PDMODE
 70
     0
  9
$PDSIZE
 40
-1.0
  9
$PLINEWID
 40
0.0
  9
$SPLFRAME
 70
     0
  9
$SPLINETYPE
 70
     6
  9
$SPLINESEGS
 70
     8
  9
$HANDSEED
  5
10C
  9
$SURFTAB1
 70
     6
  9
$SURFTAB2
 70
     6
  9
$SURFTYPE
 70
     6
  9
$SURFU
 70
     6
  9
$SURFV
 70
     6
  9
$UCSBASE
  2

  9
$UCSNAME
  2

  9
$UCSORG
 10
0.0
 20
0.0
 30
0.0
  9
$UCSXDIR
 10
1.0
 20
0.0
 30
0.0
  9
$UCSYDIR
 10
0.0
 20
1.0
 30
0.0
  9
$UCSORTHOREF
  2

  9
$UCSORTHOVIEW
 70
     0
  9
$UCSORGTOP
 10
0.0
 20
0.0
 30
0.0
  9
$UCSORGBOTTOM
 10
0.0
 20
0.0
 30
0.0
  9
$UCSORGLEFT
 10
0.0
 20
0.0
 30
0.0
  9
$UCSORGRIGHT
 10
0.0
 20
0.0
 30
0.0
  9
$UCSORGFRONT
 10
0.0
 20
0.0
 30
0.0
  9
$UCSORGBACK
 10
0.0
 20
0.0
 30
0.0
  9
$PUCSBASE
  2

  9
$PUCSNAME
  2

  9
$PUCSORG
 10
0.0
 20
0.0
 30
0.0
  9
$PUCSXDIR
 10
1.0
 20
0.0
 30
0.0
  9
$PUCSYDIR
 10
0.0
 20
1.0
 30
0.0
  9
$PUCSORTHOREF
  2

  9
$PUCSORTHOVIEW
 70
     0
  9
$PUCSORGTOP
 10
0.0
 20
0.0
 30
0.0
  9
$PUCSORGBOTTOM
 10
0.0
 20
0.0
 30
0.0
  9
$PUCSORGLEFT
 10
0.0
 20
0.0
 30
0.0
  9
$PUCSORGRIGHT
 10
0.0
 20
0.0
 30
0.0
  9
$PUCSORGFRONT
 10
0.0
 20
0.0
 30
0.0
  9
$PUCSORGBACK
 10
0.0
 20
0.0
 30
0.0
  9
$USERI1
 70
     0
  9
$USERI2
 70
     0
  9
$USERI3
 70
     0
  9
$USERI4
 70
     0
  9
$USERI5
 70
     0
  9
$USERR1
 40
0.0
  9
$USERR2
 40
0.0
  9
$USERR3
 40
0.0
  9
$USERR4
 40
0.0
  9
$USERR5
 40
0.0
  9
$WORLDVIEW
 70
     1
  9
$SHADEDGE
 70
     3
  9
$SHADEDIF
 70
    70
  9
$TILEMODE
 70
     1
  9
$MAXACTVP
 70
    64
  9
$PINSBASE
 10
0.0
 20
0.0
 30
0.0
  9
$PLIMCHECK
 70
     0
  9
$PEXTMIN
 10
1.0000000000E+20
 20
1.0000000000E+20
 30
1.0000000000E+20
  9
$PEXTMAX
 10
-1.0000000000E+20
 20
-1.0000000000E+20
 30
-1.0000000000E+20
  9
$PLIMMIN
 10
0.0
 20
0.0
  9
$PLIMMAX
 10
12.0
 20
9.0
  9
$UNITMODE
 70
     0
  9
$VISRETAIN
 70
     1
  9
$PLINEGEN
 70
     0
  9
$PSLTSCALE
 70
     1
  9
$TREEDEPTH
 70
  3020
  9
$CMLSTYLE
  2
Standard
  9
$CMLJUST
 70
     0
  9
$CMLSCALE
 40
1.0
  9
$PROXYGRAPHICS
 70
     1
  9
$MEASUREMENT
 70
     0
  9
$CELWEIGHT
370
    -1
  9
$ENDCAPS
280
     0
  9
$JOINSTYLE
280
     0
  9
$LWDISPLAY
290
     1
  9
$INSUNITS
 70
     1
  9
$HYPERLINKBASE
  1

  9
$STYLESHEET
  1

  9
$XEDIT
290
     1
  9
$CEPSNTYPE
380
     0
  9
$PSTYLEMODE
290
     1
  9
$FINGERPRINTGUID
  2
{FBAB8573-A25D-434D-BD1A-0247BE5E01B3}
  9
$VERSIONGUID
  2
{FAEB1C32-E019-11D5-929B-00C0DF256EC4}
  9
$EXTNAMES
290
     1
  9
$PSVPSCALE
 40
0.0
  9
$OLESTARTUP
290
     0
  0
ENDSEC
  0
SECTION
  2
CLASSES
  0
CLASS
  1
ACDBDICTIONARYWDFLT
  2
AcDbDictionaryWithDefault
  3
ObjectDBX Classes
 90
        0
280
     0
281
     0
  0
CLASS
  1
VISUALSTYLE
  2
AcDbVisualStyle
  3
ObjectDBX Classes
 90
     4095
280
     0
281
     0
  0
CLASS
  1
MATERIAL
  2
AcDbMaterial
  3
ObjectDBX Classes
 90
     1153
280
     0
281
     0
  0
CLASS
  1
SCALE
  2
AcDbScale
  3
ObjectDBX Classes
 90
     1153
280
     0
281
     0
  0
CLASS
  1
TABLESTYLE
  2
AcDbTableStyle
  3
ObjectDBX Classes
 90
     4095
280
     0
281
     0
  0
CLASS
  1
MLEADERSTYLE
  2
AcDbMLeaderStyle
  3
ACDB_MLEADERSTYLE_CLASS
 90
     4095
280
     0
281
     0
  0
CLASS
  1
SUN
  2
AcDbSun
  3
SCENEOE
 90
     1153
280
     0
281
     0
  0
CLASS
  1
ACDBPLACEHOLDER
  2
AcDbPlaceHolder
  3
ObjectDBX Classes
 90
        0
280
     0
281
     0
  0
CLASS
  1
LAYOUT
  2
AcDbLayout
  3
ObjectDBX Classes
 90
        0
280
     0
281
     0
  0
ENDSEC
  0
SECTION
  2
TABLES
  0
TABLE
  2
VPORT
  5
8
330
0
100
AcDbSymbolTable
 70
     1
  0
VPORT
  5
29
330
8
100
AcDbSymbolTableRecord
100
AcDbViewportTableRecord
  2
*Active
 70
     0
 10
0.0
 20
0.0
 11
1.0
 21
1.0
 12
0.0
 22
0.0
 13
0.0
 23
0.0
 14
0.5
 24
0.5
 15
0.5
 25
0.5
 16
0.0
 26
0.0
 36
1.0
 17
0.0
 27
0.0
 37
0.0
 40
4.76187
 41
0.7882617543
 42
50.0
 43
0.0
 44
0.0
 50
0.0
 51
0.0
 71
     0
 72
   100
 73
     1
 74
     3
 75
     0
 76
     0
 77
     0
 78
     0
281
     0
 65
     1
110
0.0
120
0.0
130
0.0
111
1.0
121
0.0
131
0.0
112
0.0
122
1.0
132
0.0
 79
     0
146
0.0
  0
ENDTAB
  0
TABLE
  2
LTYPE
  5
5
330
0
100
AcDbSymbolTable
 70
     6
  0
LTYPE
  5
14
330
5
100
AcDbSymbolTableRecord
100
AcDbLinetypeTableRecord
  2
ByBlock
 70
     0
  3

 72
    65
 73
     0
 40
0.0
  0
LTYPE
  5
15
330
5
100
AcDbSymbolTableRecord
100
AcDbLinetypeTableRecord
  2
ByLayer
 70
     0
  3

 72
    65
 73
     0
 40
0.0
  0
LTYPE
  5
16
330
5
100
AcDbSymbolTableRecord
100
AcDbLinetypeTableRecord
  2
Continuous
 70
     0
  3
Solid line
 72
    65
 73
     0
 40
0.0
  0
LTYPE
  5
6E
330
5
100
AcDbSymbolTableRecord
100
AcDbLinetypeTableRecord
  2
HIDDEN
 70
     0
  3
Hidden __ __ __ __ __ __ __ __ __ __ __ __ __ __
 72
    65
 73
     2
 40
0.075
 49
0.05
 74
     0
 49
-0.025
 74
     0
  0
LTYPE
  5
6F
330
5
100
AcDbSymbolTableRecord
100
AcDbLinetypeTableRecord
  2
PHANTOM
 70
     0
  3
Phantom ______  __  __  ______  __  __  ______
 72
    65
 73
     6
 40
0.5
 49
0.25
 74
     0
 49
-0.05
 74
     0
 49
0.05
 74
     0
 49
-0.05
 74
     0
 49
0.05
 74
     0
 49
-0.05
 74
     0
  0
LTYPE
  5
70
330
5
100
AcDbSymbolTableRecord
100
AcDbLinetypeTableRecord
  2
CENTER
 70
     0
  3
Center ____ _ ____ _ ____ _ ____ _ ____ _ ____
 72
    65
 73
     4
 40
0.4
 49
0.25
 74
     0
 49
-0.05
 74
     0
 49
0.05
 74
     0
 49
-0.05
 74
     0
  0
LTYPE
  5
71
330
5
100
AcDbSymbolTableRecord
100
AcDbLinetypeTableRecord
  2
CENTERX2
 70
     0
  3
Center (2x) ________  __  ________  __  _____
 72
    65
 73
     4
 40
0.8
 49
0.5
 74
     0
 49
-0.1
 74
     0
 49
0.1
 74
     0
 49
-0.1
 74
     0
  0
LTYPE
  5
72
330
5
100
AcDbSymbolTableRecord
100
AcDbLinetypeTableRecord
  2
DOT2
 70
     0
  3
Dot (.5x) ........................................
 72
    65
 73
     2
 40
0.025
 49
0.0
 74
     0
 49
-0.025
 74
     0
  0
ENDTAB
  0
TABLE
  2
LAYER
  5
2
330
0
100
AcDbSymbolTable
 70
     1
  0
LAYER
  5
10
330
2
100
AcDbSymbolTableRecord
100
AcDbLayerTableRecord
  2
0
 70
     0
 62
     7
  6
Continuous
370
    -3
390
F
  0
ENDTAB
  0
TABLE
  2
STYLE
  5
3
330
0
100
AcDbSymbolTable
 70
     2
  0
STYLE
  5
11
330
3
100
AcDbSymbolTableRecord
100
AcDbTextStyleTableRecord
  2
Standard
 70
     0
 40
0.0
 41
1.0
 50
0.0
 71
     0
 42
0.125
  3
txt
  4

  0
STYLE
  5
109
330
3
100
AcDbSymbolTableRecord
100
AcDbTextStyleTableRecord
  2
SLDTEXTSTYLE0
 70
     0
 40
0.0
 41
0.7
 50
0.0
 71
     0
 42
0.125
  3
TXT
  4

  0
ENDTAB
  0
TABLE
  2
VIEW
  5
6
330
0
100
AcDbSymbolTable
 70
     0
  0
ENDTAB
  0
TABLE
  2
UCS
  5
7
330
0
100
AcDbSymbolTable
 70
     0
  0
ENDTAB
  0
TABLE
  2
APPID
  5
9
330
0
100
AcDbSymbolTable
 70
     1
  0
APPID
  5
12
330
9
100
AcDbSymbolTableRecord
100
AcDbRegAppTableRecord
  2
ACAD
 70
     0
  0
ENDTAB
  0
TABLE
  2
DIMSTYLE
  5
A
330
0
100
AcDbSymbolTable
 70
     1
100
AcDbDimStyleTable
  0
DIMSTYLE
105
27
330
A
100
AcDbSymbolTableRecord
100
AcDbDimStyleTableRecord
  2
Standard
 70
     0
178
     0
340
11
  0
ENDTAB
  0
TABLE
  2
BLOCK_RECORD
  5
1
330
0
100
AcDbSymbolTable
 70
     1
  0
BLOCK_RECORD
  5
1F
330
1
100
AcDbSymbolTableRecord
100
AcDbBlockTableRecord
  2
*Model_Space
340
22
  0
BLOCK_RECORD
  5
1B
330
1
100
AcDbSymbolTableRecord
100
AcDbBlockTableRecord
  2
*Paper_Space
340
1E
  0
BLOCK_RECORD
  5
23
330
1
100
AcDbSymbolTableRecord
100
AcDbBlockTableRecord
  2
*Paper_Space0
340
26
  0
ENDTAB
  0
ENDSEC
  0
SECTION
  2
BLOCKS
  0
BLOCK
  5
20
330
1F
100
AcDbEntity
  8
0
100
AcDbBlockBegin
  2
*Model_Space
 70
     0
 10
0.0
 20
0.0
 30
0.0
  3
*Model_Space
  1

  0
ENDBLK
  5
21
330
1F
100
AcDbEntity
  8
0
100
AcDbBlockEnd
  0
BLOCK
  5
1C
330
1B
100
AcDbEntity
 67
     1
  8
0
100
AcDbBlockBegin
  2
*Paper_Space
 70
     0
 10
0.0
 20
0.0
 30
0.0
  3
*Paper_Space
  1

  0
ENDBLK
  5
1D
330
1B
100
AcDbEntity
 67
     1
  8
0
100
AcDbBlockEnd
  0
BLOCK
  5
24
330
23
100
AcDbEntity
  8
0
100
AcDbBlockBegin
  2
*Paper_Space0
 70
     0
 10
0.0
 20
0.0
 30
0.0
  3
*Paper_Space0
  1

  0
ENDBLK
  5
25
330
23
100
AcDbEntity
  8
0
100
AcDbBlockEnd
  0
ENDSEC
  0
SECTION
  2
ENTITIES
  0
SPLINE
  5
73
330
1F
100
AcDbEntity
  8
0
  6
Continuous
 62
     7
370
    25
100
AcDbSpline
210
0.0
220
0.0
230
1.0
 70
     8
 71
     3
 72
    15
 73
    11
 74
     0
 42
0.000000001
 43
0.00000001
 40
0.0
 40
0.0
 40
0.0
 40
0.0
 40
0.1099838451118735
 40
0.222580497363887
 40
0.3384998709624458
 40
0.4587085654776328
 40
0.585535346457997
 40
0.7175177429458919
 40
0.8546668197510224
 40
1.0
 40
1.0
 40
1.0
 40
1.0
 10
0.3117053631688487
 20
0.1420371603016462
 30
0.0
 10
0.3105129858856794
 20
0.1409589948998994
 30
0.0
 10
0.3080999048694335
 20
0.1387770508960574
 30
0.0
 10
0.3048755819059127
 20
0.135017821856698
 30
0.0
 10
0.3017884052854702
 20
0.1309641388451246
 30
0.0
 10
0.2989788586602811
 20
0.1264609156595429
 30
0.0
 10
0.2964018881988706
 20
0.1215594314447862
 30
0.0
 10
0.2939904612573742
 20
0.116301028928014
 30
0.0
 10
0.2918200032515441
 20
0.1106458053378992
 30
0.0
 10
0.2905988525348673
 20
0.1067049168215934
 30
0.0
 10
0.289970587527823
 20
0.1046773846606205
 30
0.0
  0
SPLINE
  5
75
330
1F
100
AcDbEntity
  8
0
  6
Continuous
 62
     7
370
    25
100
AcDbSpline
210
0.0
220
0.0
230
1.0
 70
     8
 71
     3
 72
    15
 73
    11
 74
     0
 42
0.000000001
 43
0.00000001
 40
0.0
 40
0.0
 40
0.0
 40
0.0
 40
0.1310919762569276
 40
0.2591412763281424
 40
0.3841617634834019
 40
0.5059919524977747
 40
0.6290980893898568
 40
0.7506691234237082
 40
0.8740389376151275
 40
1.0
 40
1.0
 40
1.0
 40
1.0
 10
0.3587806836816691
 20
0.1591645641478001
 30
0.0
 10
0.3565414380733429
 20
0.1591208733231509
 30
0.0
 10
0.3521149202839056
 20
0.1590345057483635
 30
0.0
 10
0.3455934154129636
 20
0.158215210796028
 30
0.0
 10
0.3393305797759515
 20
0.1568609361623221
 30
0.0
 10
0.3332802020894277
 20
0.1550062964050266
 30
0.0
 10
0.3275215686342737
 20
0.1525342533691152
 30
0.0
 10
0.3219362280472233
 20
0.1496354514684373
 30
0.0
 10
0.3166661997440225
 20
0.1460967669111181
 30
0.0
 10
0.3133703929242341
 20
0.1433997058516764
 30
0.0
 10
0.3117053631688486
 20
0.1420371603016462
 30
0.0
  0
SPLINE
  5
76
330
1F
100
AcDbEntity
  8
0
  6
Continuous
 62
     7
370
    25
100
AcDbSpline
210
0.0
220
0.0
230
1.0
 70
     8
 71
     3
 72
    19
 73
    15
 74
     0
 42
0.000000001
 43
0.00000001
 40
0.0
 40
0.0
 40
0.0
 40
0.0
 40
0.0962401251801508
 40
0.1852312611287013
 40
0.2675005230774392
 40
0.3444003817777772
 40
0.4195948685557305
 40
0.4968906265927779
 40
0.5766379188385165
 40
0.6602678524196378
 40
0.7453866150876284
 40
0.830040327386453
 40
0.9144742116388013
 40
1.0
 40
1.0
 40
1.0
 40
1.0
 10
0.428642462527823
 20
0.1046773846606205
 30
0.0
 10
0.427821275059713
 20
0.1076533042123716
 30
0.0
 10
0.4262407535250996
 20
0.1133809913964495
 30
0.0
 10
0.4229381560646406
 20
0.1213124835710192
 30
0.0
 10
0.4192187603006288
 20
0.1283616193574205
 30
0.0
 10
0.4148172080595708
 20
0.1344744502899979
 30
0.0
 10
0.4098301562290965
 20
0.1399032726458646
 30
0.0
 10
0.404069786039959
 20
0.1446474573007052
 30
0.0
 10
0.3976100793618791
 20
0.1488915609483798
 30
0.0
 10
0.390484426456321
 20
0.1524738823388691
 30
0.0
 10
0.382938584665184
 20
0.1555231579618955
 30
0.0
 10
0.3750381423815045
 20
0.157567809086869
 30
0.0
 10
0.3669768718193041
 20
0.158968490679701
 30
0.0
 10
0.3615244227944682
 20
0.1590989269961911
 30
0.0
 10
0.3587806836816691
 20
0.1591645641478001
 30
0.0
  0
SPLINE
  5
77
330
1F
100
AcDbEntity
  8
0
  6
Continuous
 62
     7
370
    25
100
AcDbSpline
210
0.0
220
0.0
230
1.0
 70
     8
 71
     3
 72
    19
 73
    15
 74
     0
 42
0.000000001
 43
0.00000001
 40
0.0
 40
0.0
 40
0.0
 40
0.0
 40
0.0848023883688285
 40
0.1686635395998416
 40
0.2525519243727823
 40
0.3382396894642454
 40
0.4231026613931547
 40
0.5055560510576219
 40
0.5861756559890521
 40
0.6671357203303607
 40
0.7484991803055342
 40
0.8304523987582794
 40
0.9134557062010132
 40
1.0
 40
1.0
 40
1.0
 40
1.0
 10
0.5855935843226948
 20
0.0149337949170308
 30
0.0
 10
0.5888397630914213
 20
0.015052363768874
 30
0.0
 10
0.5952960907000964
 20
0.0152881854553008
 30
0.0
 10
0.6048274269772398
 20
0.0170939901191029
 30
0.0
 10
0.6140770671770875
 20
0.0200774757155359
 30
0.0
 10
0.6229190120612558
 20
0.0242131276251062
 30
0.0
 10
0.6311558785718159
 20
0.029338653046326
 30
0.0
 10
0.638548584115848
 20
0.035339159548532
 30
0.0
 10
0.6447997247139525
 20
0.0423179584143893
 30
0.0
 10
0.6500991968266834
 20
0.0499877050604612
 30
0.0
 10
0.6542545837337275
 20
0.0583957048076662
 30
0.0
 10
0.6572814451049462
 20
0.0673481470038027
 30
0.0
 10
0.659071009803254
 20
0.0768453432998769
 30
0.0
 10
0.65929656192058
 20
0.0833356237969211
 30
0.0
 10
0.6594116932970538
 20
0.0866485385067744
 30
0.0
  0
SPLINE
  5
78
330
1F
100
AcDbEntity
  8
0
  6
Continuous
 62
     7
370
    25
100
AcDbSpline
210
0.0
220
0.0
230
1.0
 70
     8
 71
     3
 72
    23
 73
    19
 74
     0
 42
0.000000001
 43
0.00000001
 40
0.0
 40
0.0
 40
0.0
 40
0.0
 40
0.06563379967569
 40
0.1291880880571291
 40
0.1912186831121887
 40
0.2519128178811576
 40
0.312507474386551
 40
0.3734944337751985
 40
0.4351515996540508
 40
0.4987414744066496
 40
0.5620952169966303
 40
0.6241865668116557
 40
0.6854757184651946
 40
0.7460968148060527
 40
0.8076116364477857
 40
0.8699665806571912
 40
0.9339510189149067
 40
1.0
 40
1.0
 40
1.0
 40
1.0
 10
0.6594116932970538
 20
0.0866485385067744
 30
0.0
 10
0.6593431464133689
 20
0.0891726692573284
 30
0.0
 10
0.6592082244541149
 20
0.094140957354034
 30
0.0
 10
0.6581774694876396
 20
0.1014357800377504
 30
0.0
 10
0.6565378318867887
 20
0.1084167604677733
 30
0.0
 10
0.6542273911713258
 20
0.1150912382576732
 30
0.0
 10
0.6511922994273578
 20
0.1214223107861906
 30
0.0
 10
0.6475317447211862
 20
0.1274554365154989
 30
0.0
 10
0.6431813554545015
 20
0.1331592373290474
 30
0.0
 10
0.638211162875932
 20
0.1384551709703669
 30
0.0
 10
0.6327707912655416
 20
0.1432856325603114
 30
0.0
 10
0.6270140383632502
 20
0.1475973640397228
 30
0.0
 10
0.620872699294862
 20
0.151139419235427
 30
0.0
 10
0.6144500538007375
 20
0.1540709386281157
 30
0.0
 10
0.6077349584820189
 20
0.156403735049373
 30
0.0
 10
0.6006727713521228
 20
0.1579599988899492
 30
0.0
 10
0.5933385580001902
 20
0.1590285932496207
 30
0.0
 10
0.5883352683290249
 20
0.159118763304571
 30
0.0
 10
0.5857939048355154
 20
0.1591645641478001
 30
0.0
  0
SPLINE
  5
79
330
1F
100
AcDbEntity
  8
0
  6
Continuous
 62
     7
370
    25
100
AcDbSpline
210
0.0
220
0.0
230
1.0
 70
     8
 71
     3
 72
    19
 73
    15
 74
     0
 42
0.000000001
 43
0.00000001
 40
0.0
 40
0.0
 40
0.0
 40
0.0
 40
0.0815893489321834
 40
0.1628588951679348
 40
0.2454836892755789
 40
0.3308071391580104
 40
0.4164933737762851
 40
0.4998932031606325
 40
0.5830481559950205
 40
0.667157852062157
 40
0.7513119292929151
 40
0.8337847893576151
 40
0.9162564885439788
 40
1.0
 40
1.0
 40
1.0
 40
1.0
 10
0.5119757958611564
 20
0.0872995801734411
 30
0.0
 10
0.5121090025261399
 20
0.0841860010888696
 30
0.0
 10
0.512374893730962
 20
0.0779710470983337
 30
0.0
 10
0.5142856576165322
 20
0.0687581487577364
 30
0.0
 10
0.5174913628617857
 20
0.0597828600390705
 30
0.0
 10
0.5218657959137888
 20
0.0511213605019498
 30
0.0
 10
0.5273434119658391
 20
0.0430796390474006
 30
0.0
 10
0.5336926014338557
 20
0.0358124874358601
 30
0.0
 10
0.5409747643847745
 20
0.0295632311306595
 30
0.0
 10
0.5490410148900664
 20
0.0243319758731244
 30
0.0
 10
0.5576558699186625
 20
0.0201060815234507
 30
0.0
 10
0.5667154364524383
 20
0.017165678701524
 30
0.0
 10
0.5760494106064733
 20
0.0152672658000829
 30
0.0
 10
0.5823960058816114
 20
0.015045517454579
 30
0.0
 10
0.5855935843226949
 20
0.0149337949170308
 30
0.0
  0
SPLINE
  5
7A
330
1F
100
AcDbEntity
  8
0
  6
Continuous
 62
     7
370
    25
100
AcDbSpline
210
0.0
220
0.0
230
1.0
 70
     8
 71
     3
 72
    19
 73
    15
 74
     0
 42
0.000000001
 43
0.00000001
 40
0.0
 40
0.0
 40
0.0
 40
0.0
 40
0.0859205174117674
 40
0.1695934351247446
 40
0.2524755148685393
 40
0.3362444769570507
 40
0.4195045210415733
 40
0.5020359066440891
 40
0.5847746476768713
 40
0.6698464747058012
 40
0.7541848663887866
 40
0.8366582383293274
 40
0.9180097257088057
 40
1.0
 40
1.0
 40
1.0
 40
1.0
 10
0.5857939048355154
 20
0.1591645641478001
 30
0.0
 10
0.5825143092732257
 20
0.1590478757384749
 30
0.0
 10
0.5760409092753759
 20
0.1588175513785568
 30
0.0
 10
0.5665377662709167
 20
0.1570194445796592
 30
0.0
 10
0.5574439509789139
 20
0.1540276878393911
 30
0.0
 10
0.5488049456740165
 20
0.1499361234702223
 30
0.0
 10
0.5407572159152592
 20
0.1447912137118614
 30
0.0
 10
0.5335648108560216
 20
0.1385682577624447
 30
0.0
 10
0.5271689036163122
 20
0.131437042465684
 30
0.0
 10
0.5217897418854001
 20
0.1234297488663855
 30
0.0
 10
0.5174047063911372
 20
0.1148455995043408
 30
0.0
 10
0.5143213469670844
 20
0.1058724253542639
 30
0.0
 10
0.5122878292950019
 20
0.0966720698145007
 30
0.0
 10
0.5120800778263254
 20
0.0904318779732331
 30
0.0
 10
0.5119757958611564
 20
0.0872995801734411
 30
0.0
  0
SPLINE
  5
94
330
1F
100
AcDbEntity
  8
0
  6
Continuous
 62
     7
370
    25
100
AcDbSpline
210
0.0
220
0.0
230
1.0
 70
     8
 71
     3
 72
    15
 73
    11
 74
     0
 42
0.000000001
 43
0.00000001
 40
0.0
 40
0.0
 40
0.0
 40
0.0
 40
0.11852184001326
 40
0.236254763161746
 40
0.3561744339909309
 40
0.4772496548985581
 40
0.6015398708217023
 40
0.7296183821680425
 40
0.8621582661414388
 40
1.0
 40
1.0
 40
1.0
 40
1.0
 10
0.4311965490662846
 20
0.1456429295324154
 30
0.0
 10
0.4327770446600337
 20
0.1434855308619661
 30
0.0
 10
0.4359275155954969
 20
0.1391850938127654
 30
0.0
 10
0.4398737370265782
 20
0.1321728683055739
 30
0.0
 10
0.4432992652396976
 20
0.1248363972805629
 30
0.0
 10
0.4460373338836099
 20
0.1170570903457773
 30
0.0
 10
0.4482544411119348
 20
0.1089271203334251
 30
0.0
 10
0.4498584995933763
 20
0.1003883671395456
 30
0.0
 10
0.4507991866349362
 20
0.0914433734709131
 30
0.0
 10
0.4509840935883959
 20
0.0853486195082914
 30
0.0
 10
0.4510783599637204
 20
0.0822414872247231
 30
0.0
  0
SPLINE
  5
95
330
1F
100
AcDbEntity
  8
0
  6
Continuous
 62
     7
370
    25
100
AcDbSpline
210
0.0
220
0.0
230
1.0
 70
     8
 71
     3
 72
    15
 73
    11
 74
     0
 42
0.000000001
 43
0.00000001
 40
0.0
 40
0.0
 40
0.0
 40
0.0
 40
0.1320402344259811
 40
0.2590328407793689
 40
0.3818798239250161
 40
0.5022584437149856
 40
0.6227521895274787
 40
0.7447426318590012
 40
0.8701089273418183
 40
1.0
 40
1.0
 40
1.0
 40
1.0
 10
0.3576288407329512
 20
0.1816004615836975
 30
0.0
 10
0.361375098254643
 20
0.1815037438056617
 30
0.0
 10
0.3687244015359765
 20
0.1813140055724071
 30
0.0
 10
0.3794409816100326
 20
0.1795549817574742
 30
0.0
 10
0.3895810327915042
 20
0.1767655135743744
 30
0.0
 10
0.3991404973849907
 20
0.1728259571100502
 30
0.0
 10
0.4081203445816217
 20
0.1677431319821666
 30
0.0
 10
0.4164622052655282
 20
0.1614472861620987
 30
0.0
 10
0.4243087418761536
 20
0.1541317085031654
 30
0.0
 10
0.4288736403655966
 20
0.1485057649726447
 30
0.0
 10
0.4311965490662846
 20
0.1456429295324154
 30
0.0
  0
SPLINE
  5
96
330
1F
100
AcDbEntity
  8
0
  6
Continuous
 62
     7
370
    25
100
AcDbSpline
210
0.0
220
0.0
230
1.0
 70
     8
 71
     3
 72
    15
 73
    11
 74
     0
 42
0.000000001
 43
0.00000001
 40
0.0
 40
0.0
 40
0.0
 40
0.0
 40
0.1288352544875544
 40
0.2535893349864763
 40
0.3746432573141694
 40
0.495340042237792
 40
0.6163247746357913
 40
0.7397593354405139
 40
0.8668423203805461
 40
1.0
 40
1.0
 40
1.0
 40
1.0
 10
0.2862145779124384
 20
0.1475459744042103
 30
0.0
 10
0.2884794123964264
 20
0.150250893696214
 30
0.0
 10
0.29293733715416
 20
0.1555750472998191
 30
0.0
 10
0.3004770768222925
 20
0.1625706419985068
 30
0.0
 10
0.3086413765610344
 20
0.1684309116540111
 30
0.0
 10
0.3173279212824743
 20
0.1732885642353124
 30
0.0
 10
0.3266376694296595
 20
0.1769795390205112
 30
0.0
 10
0.336445475932344
 20
0.1797300806085305
 30
0.0
 10
0.3468630178056739
 20
0.1812713671109075
 30
0.0
 10
0.3539848192941165
 20
0.1814890695124783
 30
0.0
 10
0.3576288407329512
 20
0.1816004615836975
 30
0.0
  0
SPLINE
  5
97
330
1F
100
AcDbEntity
  8
0
  6
Continuous
 62
     7
370
    25
100
AcDbSpline
210
0.0
220
0.0
230
1.0
 70
     8
 71
     3
 72
    15
 73
    11
 74
     0
 42
0.000000001
 43
0.00000001
 40
0.0
 40
0.0
 40
0.0
 40
0.0
 40
0.1280448079611201
 40
0.2537679000244899
 40
0.3774284265813018
 40
0.5005508414825329
 40
0.6232958832424764
 40
0.7465783319335085
 40
0.8723475406047169
 40
1.0
 40
1.0
 40
1.0
 40
1.0
 10
0.2651809240662845
 20
0.0865483782503641
 30
0.0
 10
0.26525657701847
 20
0.0893551518516196
 30
0.0
 10
0.2654065111791161
 20
0.0949178064721103
 30
0.0
 10
0.2663515674215221
 20
0.1031510596528448
 30
0.0
 10
0.2680264454978093
 20
0.1111530919763132
 30
0.0
 10
0.2703247543513185
 20
0.1189305525455183
 30
0.0
 10
0.2732927005072644
 20
0.1264704192586673
 30
0.0
 10
0.2769235733084228
 20
0.1337772809460357
 30
0.0
 10
0.2812230288647645
 20
0.1408433623646402
 30
0.0
 10
0.2845425055616549
 20
0.1453007290580554
 30
0.0
 10
0.2862145779124384
 20
0.1475459744042103
 30
0.0
  0
SPLINE
  5
98
330
1F
100
AcDbEntity
  8
0
  6
Continuous
 62
     7
370
    25
100
AcDbSpline
210
0.0
220
0.0
230
1.0
 70
     8
 71
     3
 72
    23
 73
    19
 74
     0
 42
0.000000001
 43
0.00000001
 40
0.0
 40
0.0
 40
0.0
 40
0.0
 40
0.0715786576891417
 40
0.139629224692848
 40
0.2047966973966656
 40
0.2681349633966821
 40
0.3298137469867303
 40
0.3913013977745602
 40
0.453433515097054
 40
0.516551690319767
 40
0.579631270704923
 40
0.641118921492753
 40
0.7012940466987742
 40
0.7608103356761335
 40
0.819931721778144
 40
0.8789195754993824
 40
0.9389828222504466
 40
0.9999999999999999
 40
0.9999999999999999
 40
0.9999999999999999
 40
0.9999999999999999
 10
0.3570779593226949
 20
-0.0075021025188666
 30
0.0
 10
0.3535678180701633
 20
-0.0074201614238972
 30
0.0
 10
0.346720549380355
 20
-0.0072603180860861
 30
0.0
 10
0.3367534245865794
 20
-0.0058822849121956
 30
0.0
 10
0.3273691804153279
 20
-0.0036342592912186
 30
0.0
 10
0.3185683444614989
 20
-0.0004938634704134
 30
0.0
 10
0.3103724692773884
 20
0.0036080882503211
 30
0.0
 10
0.3027652653622508
 20
0.0086051940934442
 30
0.0
 10
0.2957067278001815
 20
0.0144717837140549
 30
0.0
 10
0.2894192842869562
 20
0.0212586725345522
 30
0.0
 10
0.2837590069504965
 20
0.0285216694842238
 30
0.0
 10
0.2787643055236617
 20
0.0360899469475081
 30
0.0
 10
0.274588774734416
 20
0.0439444629813595
 30
0.0
 10
0.2711921597204352
 20
0.0520352146987556
 30
0.0
 10
0.2684489550797352
 20
0.0603112070946937
 30
0.0
 10
0.2665370476676546
 20
0.068847740492495
 30
0.0
 10
0.2654349228117936
 20
0.0776217107953645
 30
0.0
 10
0.2652660338448395
 20
0.0835572347752042
 30
0.0
 10
0.2651809240662845
 20
0.0865483782503641
 30
0.0
  0
SPLINE
  5
99
330
1F
100
AcDbEntity
  8
0
  6
Continuous
 62
     7
370
    25
100
AcDbSpline
210
0.0
220
0.0
230
1.0
 70
     8
 71
     3
 72
    19
 73
    15
 74
     0
 42
0.000000001
 43
0.00000001
 40
0.0
 40
0.0
 40
0.0
 40
0.0
 40
0.0933698567361952
 40
0.1816607660710048
 40
0.2658742270426188
 40
0.346354784034308
 40
0.4245998617178942
 40
0.5019031838373772
 40
0.5799920909873473
 40
0.6584434305294308
 40
0.7386722364878345
 40
0.8218941484362442
 40
0.9088007920466157
 40
1.0
 40
1.0
 40
1.0
 40
1.0
 10
0.4414629753483359
 20
0.0429285865836975
 30
0.0
 10
0.4398746471169092
 20
0.0401112057783174
 30
0.0
 10
0.436784389368004
 20
0.0346296984341951
 30
0.0
 10
0.4314700502329487
 20
0.0270988512576188
 30
0.0
 10
0.4258991879059353
 20
0.020324014411993
 30
0.0
 10
0.4198203330485372
 20
0.0144861819631435
 30
0.0
 10
0.4134153559803931
 20
0.0093967973221294
 30
0.0
 10
0.406648737781416
 20
0.0049440955564902
 30
0.0
 10
0.39948525080032
 20
0.0011499155317891
 30
0.0
 10
0.3919245561733014
 20
-0.0020466936019803
 30
0.0
 10
0.3839031596631948
 20
-0.004504514609689
 30
0.0
 10
0.3754016227767627
 20
-0.0062405303897612
 30
0.0
 10
0.3664036588211352
 20
-0.0073136210076493
 30
0.0
 10
0.3602360745448669
 20
-0.0074382739202963
 30
0.0
 10
0.3570779593226948
 20
-0.0075021025188666
 30
0.0
  0
CIRCLE
  5
9F
330
1F
100
AcDbEntity
  8
0
  6
Continuous
 62
     7
370
    25
100
AcDbCircle
 10
-1.65
 20
-2.155
 30
0.0
 40
0.0719999999999996
  0
CIRCLE
  5
A0
330
1F
100
AcDbEntity
  8
0
  6
Continuous
 62
     7
370
    25
100
AcDbCircle
 10
1.65
 20
-2.155
 30
0.0
 40
0.0720000000000001
  0
CIRCLE
  5
A1
330
1F
100
AcDbEntity
  8
0
  6
Continuous
 62
     7
370
    25
100
AcDbCircle
 10
1.65
 20
2.155
 30
0.0
 40
0.0719999999999996
  0
CIRCLE
  5
A2
330
1F
100
AcDbEntity
  8
0
  6
Continuous
 62
     7
370
    25
100
AcDbCircle
 10
-1.65
 20
2.155
 30
0.0
 40
0.0720000000000005
  0
SPLINE
  5
A4
330
1F
100
AcDbEntity
  8
0
  6
Continuous
 62
     7
370
    25
100
AcDbSpline
210
0.0
220
0.0
230
1.0
 70
     8
 71
     3
 72
    15
 73
    11
 74
     0
 42
0.000000001
 43
0.00000001
 40
0.0
 40
0.0
 40
0.0
 40
0.0
 40
0.1288840014739245
 40
0.2529849718578362
 40
0.3742104371825951
 40
0.4941015128996882
 40
0.6147527632399877
 40
0.7385110703733273
 40
0.8662425140769302
 40
1.0
 40
1.0
 40
1.0
 40
1.0
 10
0.5854934240662847
 20
0.1816004615836975
 30
0.0
 10
0.589223196046808
 20
0.1814885261526022
 30
0.0
 10
0.5965443239504891
 20
0.1812688093408824
 30
0.0
 10
0.6072513612026054
 20
0.1794326402691528
 30
0.0
 10
0.6173790476695608
 20
0.1763495775684223
 30
0.0
 10
0.626985689631655
 20
0.1721287717607694
 30
0.0
 10
0.636014015361406
 20
0.1666430038117355
 30
0.0
 10
0.6445302039748934
 20
0.1600179003942697
 30
0.0
 10
0.6523861556114833
 20
0.1520659613881892
 30
0.0
 10
0.6570341429357871
 20
0.1460937061410993
 30
0.0
 10
0.6594116932970538
 20
0.1430387628657488
 30
0.0
  0
SPLINE
  5
A5
330
1F
100
AcDbEntity
  8
0
  6
Continuous
 62
     7
370
    25
100
AcDbSpline
210
0.0
220
0.0
230
1.0
 70
     8
 71
     3
 72
    23
 73
    19
 74
     0
 42
0.000000001
 43
0.00000001
 40
0.0
 40
0.0
 40
0.0
 40
0.0
 40
0.063774532305632
 40
0.1260788099895057
 40
0.1869040927472072
 40
0.2475739349176194
 40
0.3080033561644466
 40
0.3691318984609773
 40
0.432033227744204
 40
0.4967907944370908
 40
0.5616108232295645
 40
0.6249138657484615
 40
0.6867263492419239
 40
0.7480788332577711
 40
0.809582291139895
 40
0.8716307425688264
 40
0.9348858208285532
 40
1.0
 40
1.0
 40
1.0
 40
1.0
 10
0.4895398984252589
 20
0.0875499808144667
 30
0.0
 10
0.489629396381322
 20
0.0907259596408544
 30
0.0
 10
0.4898063290124052
 20
0.0970046984493783
 30
0.0
 10
0.4911244161438529
 20
0.1062388911626539
 30
0.0
 10
0.4933409167623654
 20
0.1151330526435997
 30
0.0
 10
0.4964514773099293
 20
0.123658548588154
 30
0.0
 10
0.5004401883787232
 20
0.1318256950273388
 30
0.0
 10
0.5052921945944988
 20
0.1396402682426917
 30
0.0
 10
0.5110078463587011
 20
0.1471237966328371
 30
0.0
 10
0.5175973040027284
 20
0.154100312834178
 30
0.0
 10
0.5247355018714887
 20
0.1605446424248483
 30
0.0
 10
0.532371839794015
 20
0.1661452885278814
 30
0.0
 10
0.5403163598883601
 20
0.1709822063004545
 30
0.0
 10
0.5486922892113877
 20
0.1748145974651937
 30
0.0
 10
0.5573756538409584
 20
0.1779152477897979
 30
0.0
 10
0.5664437571086182
 20
0.1800604597969776
 30
0.0
 10
0.575858869871159
 20
0.1813245541712638
 30
0.0
 10
0.5822510478757745
 20
0.1815076087534842
 30
0.0
 10
0.5854934240662847
 20
0.1816004615836975
 30
0.0
  0
SPLINE
  5
A6
330
1F
100
AcDbEntity
  8
0
  6
Continuous
 62
     7
370
    25
100
AcDbSpline
210
0.0
220
0.0
230
1.0
 70
     8
 71
     3
 72
    23
 73
    19
 74
     0
 42
0.000000001
 43
0.00000001
 40
0.0
 40
0.0
 40
0.0
 40
0.0
 40
0.0646199913407679
 40
0.1274334841444693
 40
0.1890041265579392
 40
0.2499300706860468
 40
0.3106684537406715
 40
0.3723289611368239
 40
0.4349391099970087
 40
0.499575544194034
 40
0.5641912077719239
 40
0.6267352169294788
 40
0.6881093335614014
 40
0.7492936065367515
 40
0.8103305278109454
 40
0.8719011702244159
 40
0.9350459146845315
 40
1.0
 40
1.0
 40
1.0
 40
1.0
 10
0.5847923022714128
 20
-0.0075021025188666
 30
0.0
 10
0.5815660198548029
 20
-0.0074145044996415
 30
0.0
 10
0.5752036480770891
 20
-0.0072417573270963
 30
0.0
 10
0.5658444282814525
 20
-0.0059015927829336
 30
0.0
 10
0.5568378390348336
 20
-0.0037494055227852
 30
0.0
 10
0.5481753695589918
 20
-0.000756484844802
 30
0.0
 10
0.5399130734565556
 20
0.00321357384364
 30
0.0
 10
0.5319802094085337
 20
0.0079665201323126
 30
0.0
 10
0.5244178742643111
 20
0.0136265794237874
 30
0.0
 10
0.517341335766893
 20
0.0200971528775653
 30
0.0
 10
0.5108247643114715
 20
0.0271253662478232
 30
0.0
 10
0.5051061019813151
 20
0.0346214767389037
 30
0.0
 10
0.5003380248488339
 20
0.0425530698740945
 30
0.0
 10
0.4963508762268852
 20
0.0508197237232881
 30
0.0
 10
0.4932797087668332
 20
0.0594850751185763
 30
0.0
 10
0.4911387348912671
 20
0.0685191585428462
 30
0.0
 10
0.4898001315555058
 20
0.077911292367121
 30
0.0
 10
0.4896274557922947
 20
0.0843069725882359
 30
0.0
 10
0.4895398984252589
 20
0.0875499808144667
 30
0.0
  0
SPLINE
  5
A7
330
1F
100
AcDbEntity
  8
0
  6
Continuous
 62
     7
370
    25
100
AcDbSpline
210
0.0
220
0.0
230
1.0
 70
     8
 71
     3
 72
    15
 73
    11
 74
     0
 42
0.000000001
 43
0.00000001
 40
0.0
 40
0.0
 40
0.0
 40
0.0
 40
0.1342983790141681
 40
0.2620849753823024
 40
0.3862699121345016
 40
0.5071645966228003
 40
0.6273002357255075
 40
0.7481449416029948
 40
0.8723701771613532
 40
1.0
 40
1.0
 40
1.0
 40
1.0
 10
0.6594116932970538
 20
0.0273035865836975
 30
0.0
 10
0.6568817796808997
 20
0.0244436155867093
 30
0.0
 10
0.6519446214465535
 20
0.0188623462233565
 30
0.0
 10
0.6436988273057337
 20
0.0115707624740173
 30
0.0
 10
0.6349582431698422
 20
0.0055437395068705
 30
0.0
 10
0.6257652916605062
 20
0.0006758883854138
 30
0.0
 10
0.6161282742787478
 20
-0.0029806870672545
 30
0.0
 10
0.6060685537590156
 20
-0.005579698433383
 30
0.0
 10
0.5955820265543342
 20
-0.0072506866599723
 30
0.0
 10
0.5884211440693339
 20
-0.007417545364903
 30
0.0
 10
0.5847923022714128
 20
-0.0075021025188666
 30
0.0
  0
SPLINE
  5
AE
330
1F
100
AcDbEntity
  8
0
  6
Continuous
 62
     7
370
    25
100
AcDbSpline
210
0.0
220
0.0
230
1.0
 70
     8
 71
     3
 72
    23
 73
    19
 74
     0
 42
0.000000001
 43
0.00000001
 40
0.0
 40
0.0
 40
0.0
 40
0.0
 40
0.0686770684130355
 40
0.1368709585090967
 40
0.2061143571452995
 40
0.2775381819697281
 40
0.3497719775548989
 40
0.4212508361555699
 40
0.4929107569233711
 40
0.5670265889927396
 40
0.606614153241335
 40
0.6497039535189881
 40
0.6973031504846855
 40
0.7490856597091364
 40
0.8048806474593091
 40
0.8654850057023366
 40
0.9302371271531363
 40
1.0
 40
1.0
 40
1.0
 40
1.0
 10
0.029403680476541
 20
0.1591645641478001
 30
0.0
 10
0.0266882368013311
 20
0.1590552455751563
 30
0.0
 10
0.0212764539866049
 20
0.1588373775419634
 30
0.0
 10
0.0133263132969552
 20
0.1568763579813427
 30
0.0
 10
0.0056487644671194
 20
0.1538046383557306
 30
0.0
 10
-0.0016337140181208
 20
0.149543222706724
 30
0.0
 10
-0.0083247246114231
 20
0.1442647170926649
 30
0.0
 10
-0.0141824579895918
 20
0.1380565102518171
 30
0.0
 10
-0.0191069240984595
 20
0.1309958650009495
 30
0.0
 10
-0.0223734823057496
 20
0.1244126852498414
 30
0.0
 10
-0.0244805161715774
 20
0.1185860227571863
 30
0.0
 10
-0.0258801829342448
 20
0.1136323836376143
 30
0.0
 10
-0.0270830133494005
 20
0.1081323659031752
 30
0.0
 10
-0.0279768720425548
 20
0.102069000825722
 30
0.0
 10
-0.0288397588716739
 20
0.0954817798160431
 30
0.0
 10
-0.0292562095200576
 20
0.0883378876939272
 30
0.0
 10
-0.0296613211025091
 20
0.0806434528580703
 30
0.0
 10
-0.0296807792953436
 20
0.0753311281979411
 30
0.0
 10
-0.0296908708055104
 20
0.0725760224811334
 30
0.0
  0
SPLINE
  5
AF
330
1F
100
AcDbEntity
  8
0
  6
Continuous
 62
     7
370
    25
100
AcDbSpline
210
0.0
220
0.0
230
1.0
 70
     8
 71
     3
 72
    23
 73
    19
 74
     0
 42
0.000000001
 43
0.00000001
 40
0.0
 40
0.0
 40
0.0
 40
0.0
 40
0.0825297038220663
 40
0.15877885491757
 40
0.2277380621151793
 40
0.2899456527966759
 40
0.3454988386981377
 40
0.3938963373401233
 40
0.436373785190088
 40
0.4721222744615226
 40
0.5363836155048269
 40
0.599077901725496
 40
0.6619482340244583
 40
0.7263105423531548
 40
0.791771103050211
 40
0.8586473037978593
 40
0.9273053338076851
 40
1.0
 40
1.0
 40
1.0
 40
1.0
 10
0.0728732317585922
 20
0.0886016635067744
 30
0.0
 10
0.0728675581174319
 20
0.0912226148471513
 30
0.0
 10
0.0728566426021093
 20
0.096265061788642
 30
0.0
 10
0.0726654770795156
 20
0.1034960385965528
 30
0.0
 10
0.0723021469583647
 20
0.1100732586031963
 30
0.0
 10
0.0718821077893526
 20
0.1159890774484404
 30
0.0
 10
0.0712778093237712
 20
0.1212327437884873
 30
0.0
 10
0.0705913977445
 20
0.1258323693600924
 30
0.0
 10
0.0697807827068775
 20
0.1297764230088959
 30
0.0
 10
0.068438648091089
 20
0.1341023790705449
 30
0.0
 10
0.0663876146418425
 20
0.138868159283692
 30
0.0
 10
0.0630884530712816
 20
0.1439496607967232
 30
0.0
 10
0.0589736259012069
 20
0.1483973820483403
 30
0.0
 10
0.0541471347680264
 20
0.1521944355080184
 30
0.0
 10
0.0487181574687244
 20
0.1553331127436236
 30
0.0
 10
0.0427193431252327
 20
0.1575945235855153
 30
0.0
 10
0.036204706494055
 20
0.1589105442728276
 30
0.0
 10
0.0317134417862708
 20
0.1590782940353784
 30
0.0
 10
0.029403680476541
 20
0.1591645641478001
 30
0.0
  0
SPLINE
  5
B2
330
1F
100
AcDbEntity
  8
0
  6
Continuous
 62
     7
370
    25
100
AcDbSpline
210
0.0
220
0.0
230
1.0
 70
     8
 71
     3
 72
    23
 73
    19
 74
     0
 42
0.000000001
 43
0.00000001
 40
0.0
 40
0.0
 40
0.0
 40
0.0
 40
0.0681582441559977
 40
0.1347066022023564
 40
0.2018649976035979
 40
0.2707882662774626
 40
0.3400242943604914
 40
0.4080827390537212
 40
0.476813195258144
 40
0.5473460643070949
 40
0.5856397954238954
 40
0.6288649531777641
 40
0.6771532033637911
 40
0.7308028113651058
 40
0.7898066155325019
 40
0.8543250087420141
 40
0.9243651340575435
 40
1.0
 40
1.0
 40
1.0
 40
1.0
 10
0.1545539208611562
 20
0.1591645641478001
 30
0.0
 10
0.1517203526916331
 20
0.1590634100487608
 30
0.0
 10
0.1461201447497796
 20
0.1588634910932602
 30
0.0
 10
0.1379454671634878
 20
0.1568225001673184
 30
0.0
 10
0.1300903945487044
 20
0.1537453394059208
 30
0.0
 10
0.1227893136254941
 20
0.1492858781828154
 30
0.0
 10
0.1160730428671544
 20
0.1439424236219558
 30
0.0
 10
0.110294501596754
 20
0.1375888810677184
 30
0.0
 10
0.105520774049485
 20
0.1304010291437773
 30
0.0
 10
0.1022883471965707
 20
0.1237476932640889
 30
0.0
 10
0.1002462542505096
 20
0.1177713044154332
 30
0.0
 10
0.0988979031258763
 20
0.1125500635584334
 30
0.0
 10
0.0978490894494579
 20
0.1066156658560653
 30
0.0
 10
0.0968654802200841
 20
0.1000079879371941
 30
0.0
 10
0.0962234996510358
 20
0.0926815464834799
 30
0.0
 10
0.0956400444850102
 20
0.0846702321263497
 30
0.0
 10
0.0953671257125851
 20
0.075949949309494
 30
0.0
 10
0.0953289500869106
 20
0.0699051858370804
 30
0.0
 10
0.0953091291944897
 20
0.0667667276093385
 30
0.0
  0
SPLINE
  5
B3
330
1F
100
AcDbEntity
  8
0
  6
Continuous
 62
     7
370
    25
100
AcDbSpline
210
0.0
220
0.0
230
1.0
 70
     8
 71
     3
 72
    23
 73
    19
 74
     0
 42
0.000000001
 43
0.00000001
 40
0.0
 40
0.0
 40
0.0
 40
0.0
 40
0.0783429851937012
 40
0.1505633028794204
 40
0.2161510566599769
 40
0.2756797924514261
 40
0.3287070503654622
 40
0.3759044348322079
 40
0.417301897740033
 40
0.4526927480535831
 40
0.5172652917530126
 40
0.5812165680623063
 40
0.6453218939728019
 40
0.7120244933797631
 40
0.7801300447160442
 40
0.8502182262116641
 40
0.9226485217347374
 40
1.0
 40
1.0
 40
1.0
 40
1.0
 10
0.1978732317585922
 20
0.0947615192760052
 30
0.0
 10
0.1978676686888758
 20
0.097098703128679
 30
0.0
 10
0.1978569773149312
 20
0.1015904150467911
 30
0.0
 10
0.1976645750603465
 20
0.1080370187044817
 30
0.0
 10
0.1973020526277973
 20
0.113913329936124
 30
0.0
 10
0.1968781498587214
 20
0.1192113362320874
 30
0.0
 10
0.1962893063315384
 20
0.1239433925532761
 30
0.0
 10
0.1955288826362042
 20
0.1280999938795704
 30
0.0
 10
0.194723334072009
 20
0.1317138375481891
 30
0.0
 10
0.1933850489928072
 20
0.1357199838051994
 30
0.0
 10
0.1912459138773896
 20
0.1401392845540063
 30
0.0
 10
0.1879875224464575
 20
0.1449052542536621
 30
0.0
 10
0.1838825148561181
 20
0.1490538828381779
 30
0.0
 10
0.1791425036730376
 20
0.1526551911823322
 30
0.0
 10
0.1737461861949188
 20
0.1555833084036071
 30
0.0
 10
0.1677987059688621
 20
0.1576744519537909
 30
0.0
 10
0.1613369879978307
 20
0.1589689432689594
 30
0.0
 10
0.1568639316827795
 20
0.1590979443815568
 30
0.0
 10
0.1545539208611562
 20
0.1591645641478001
 30
0.0
  0
SPLINE
  5
B7
330
1F
100
AcDbEntity
  8
0
  6
Continuous
 62
     7
370
    25
100
AcDbSpline
210
0.0
220
0.0
230
1.0
 70
     8
 71
     3
 72
    19
 73
    15
 74
     0
 42
0.000000001
 43
0.00000001
 40
0.0
 40
0.0
 40
0.0
 40
0.0
 40
0.0717660641583406
 40
0.141225535766369
 40
0.209115852497462
 40
0.2748396534685267
 40
0.3394829303752207
 40
0.4024762667353994
 40
0.464941889171328
 40
0.5268326406463831
 40
0.6474148160608231
 40
0.7655615117859496
 40
0.8816150870393311
 40
1.0
 40
1.0
 40
1.0
 40
1.0
 10
0.0914529593226948
 20
0.1374798686349795
 30
0.0
 10
0.0924323344195321
 20
0.1392458985832041
 30
0.0
 10
0.0943596070711564
 20
0.1427211975081556
 30
0.0
 10
0.0975957240049199
 20
0.1476396448113615
 30
0.0
 10
0.1009862808962278
 20
0.1522401299431735
 30
0.0
 10
0.1045601732576985
 20
0.1565263031124656
 30
0.0
 10
0.1083047866034553
 20
0.1604769981420389
 30
0.0
 10
0.1122377437677537
 20
0.1641052768316342
 30
0.0
 10
0.1163366567265771
 20
0.1674267206662501
 30
0.0
 10
0.1220361024346276
 20
0.1713069463458006
 30
0.0
 10
0.1294512886765423
 20
0.1754284593002624
 30
0.0
 10
0.1388004397263887
 20
0.1790019195865978
 30
0.0
 10
0.1485254519827555
 20
0.1812102144693851
 30
0.0
 10
0.1551267161475735
 20
0.1814695196719445
 30
0.0
 10
0.1584601708611563
 20
0.1816004615836975
 30
0.0
  0
SPLINE
  5
B8
330
1F
100
AcDbEntity
  8
0
  6
Continuous
 62
     7
370
    25
100
AcDbSpline
210
0.0
220
0.0
230
1.0
 70
     8
 71
     3
 72
    19
 73
    15
 74
     0
 42
0.000000001
 43
0.00000001
 40
0.0
 40
0.0
 40
0.0
 40
0.0
 40
0.0841520188443174
 40
0.1665323202984592
 40
0.2488363311465315
 40
0.3312461454872608
 40
0.4129571090216168
 40
0.4904942776695667
 40
0.5661557919819235
 40
0.6399873346864664
 40
0.7167654882718498
 40
0.8021439047100981
 40
0.8958332007101921
 40
1.0
 40
1.0
 40
1.0
 40
1.0
 10
0.0333099304765409
 20
0.1816004615836975
 30
0.0
 10
0.0355165730885076
 20
0.1815257979565214
 30
0.0
 10
0.0398834001627351
 20
0.1813780426531275
 30
0.0
 10
0.0463536923127455
 20
0.1804166115690703
 30
0.0
 10
0.0526293074436756
 20
0.1787547420676753
 30
0.0
 10
0.0586731666814866
 20
0.17643993321286
 30
0.0
 10
0.0643675009156917
 20
0.1736365984332846
 30
0.0
 10
0.0695881578978575
 20
0.1703473335820866
 30
0.0
 10
0.0742756013394831
 20
0.1666546853388355
 30
0.0
 10
0.0784274621472074
 20
0.1623919044113288
 30
0.0
 10
0.0821609639612031
 20
0.1574392902312899
 30
0.0
 10
0.0855951672919162
 20
0.1516632724524586
 30
0.0
 10
0.088768396747445
 20
0.1449341538056262
 30
0.0
 10
0.0905270616640219
 20
0.1400508294500538
 30
0.0
 10
0.0914529593226948
 20
0.1374798686349795
 30
0.0
  0
SPLINE
  5
B9
330
1F
100
AcDbEntity
  8
0
  6
Continuous
 62
     7
370
    25
100
AcDbSpline
210
0.0
220
0.0
230
1.0
 70
     8
 71
     3
 72
    11
 73
     7
 74
     0
 42
0.000000001
 43
0.00000001
 40
0.0
 40
0.0
 40
0.0
 40
0.0
 40
0.253734075690663
 40
0.5030351201318575
 40
0.750013597330881
 40
1.0
 40
1.0
 40
1.0
 40
1.0
 10
-0.0043503259337155
 20
0.1723356378657488
 30
0.0
 10
-0.0013599929204837
 20
0.1737645925261272
 30
0.0
 10
0.0045684284886266
 20
0.1765975363366497
 30
0.0
 10
0.0139555159830407
 20
0.1794713619768933
 30
0.0
 10
0.0235608495213586
 20
0.1812374406418006
 30
0.0
 10
0.0300471505144562
 20
0.1814789673156241
 30
0.0
 10
0.0333099304765409
 20
0.1816004615836975
 30
0.0
  0
SPLINE
  5
BA
330
1F
100
AcDbEntity
  8
0
  6
Continuous
 62
     7
370
    25
100
AcDbSpline
210
0.0
220
0.0
230
1.0
 70
     8
 71
     3
 72
    11
 73
     7
 74
     0
 42
0.000000001
 43
0.00000001
 40
0.0
 40
0.0
 40
0.0
 40
0.0
 40
0.2835948081386947
 40
0.5433948405759667
 40
0.7806456291745606
 40
0.9999999999999999
 40
0.9999999999999999
 40
0.9999999999999999
 40
0.9999999999999999
 10
-0.0296908708055104
 20
0.146644532096518
 30
0.0
 10
-0.0276705886687816
 20
0.1494222179343643
 30
0.0
 10
-0.0237995344107314
 20
0.1547445302959095
 30
0.0
 10
-0.0174519878041367
 20
0.1617581220270491
 30
0.0
 10
-0.0111108369127665
 20
0.1677101330737747
 30
0.0
 10
-0.0065441667864673
 20
0.1708346239026509
 30
0.0
 10
-0.0043503259337155
 20
0.1723356378657488
 30
0.0
  0
SPLINE
  5
CB
330
1F
100
AcDbEntity
  8
0
  6
Continuous
 62
     7
370
    25
100
AcDbSpline
210
0.0
220
0.0
230
1.0
 70
     8
 71
     3
 72
    23
 73
    19
 74
     0
 42
0.000000001
 43
0.00000001
 40
0.0
 40
0.0
 40
0.0
 40
0.0
 40
0.0756043304957456
 40
0.147965015482737
 40
0.2187969985237009
 40
0.2894704453213774
 40
0.3597242180874999
 40
0.4297077387530452
 40
0.5004965198485853
 40
0.5744290198679485
 40
0.6139472962286694
 40
0.6571552698261107
 40
0.7039727697209368
 40
0.7549389848168004
 40
0.8097066112894875
 40
0.8688329536985493
 40
0.9323854739325977
 40
0.9999999999999999
 40
0.9999999999999999
 40
0.9999999999999999
 40
0.9999999999999999
 10
0.1584601708611563
 20
0.1816004615836975
 30
0.0
 10
0.1615231324910534
 20
0.1814849458081472
 30
0.0
 10
0.1675176457949736
 20
0.1812588702195435
 30
0.0
 10
0.1762445933458896
 20
0.1794836221241566
 30
0.0
 10
0.1843832937262014
 20
0.1764352187586056
 30
0.0
 10
0.1919173705925921
 20
0.172275673289294
 30
0.0
 10
0.1987145001218158
 20
0.1670485887675592
 30
0.0
 10
0.2046228079206663
 20
0.160829386080566
 30
0.0
 10
0.2096064053018099
 20
0.153662055865469
 30
0.0
 10
0.2128620224230174
 20
0.146919770958757
 30
0.0
 10
0.2150702555822974
 20
0.1409672471838643
 30
0.0
 10
0.2164317723198624
 20
0.1358953692332871
 30
0.0
 10
0.2176346076831884
 20
0.1303131154532801
 30
0.0
 10
0.2186332680591181
 20
0.1242138110601946
 30
0.0
 10
0.2193631646373817
 20
0.1175759104671393
 30
0.0
 10
0.2199039300293704
 20
0.1104102764755003
 30
0.0
 10
0.2202699352835372
 20
0.102711339931081
 30
0.0
 10
0.2202957975879318
 20
0.0973995184862672
 30
0.0
 10
0.2203091291944897
 20
0.0946613590195949
 30
0.0
  0
SPLINE
  5
CC
330
1F
100
AcDbEntity
  8
0
  6
Continuous
 62
     7
370
    25
100
AcDbSpline
210
0.0
220
0.0
230
1.0
 70
     8
 71
     3
 72
    23
 73
    19
 74
     0
 42
0.000000001
 43
0.00000001
 40
0.0
 40
0.0
 40
0.0
 40
0.0
 40
0.0683846151037681
 40
0.134475587543451
 40
0.1983910577839565
 40
0.2607534774484866
 40
0.3218292228076491
 40
0.3830372384795247
 40
0.4446531231064266
 40
0.5073980112040047
 40
0.5698252379730248
 40
0.630777640631313
 40
0.6909286865237168
 40
0.7509451326917367
 40
0.8110494767293284
 40
0.8723308525469938
 40
0.9350040935894056
 40
1.0
 40
1.0
 40
1.0
 40
1.0
 10
0.2876168215021819
 20
0.0822414872247231
 30
0.0
 10
0.2877267933899785
 20
0.0798343112070721
 30
0.0
 10
0.2879430486719929
 20
0.0751006966535218
 30
0.0
 10
0.2889512731838811
 20
0.068174212147631
 30
0.0
 10
0.290540471310612
 20
0.0615761162788005
 30
0.0
 10
0.2927739757847905
 20
0.0553558989949814
 30
0.0
 10
0.2954787504458543
 20
0.049432318458175
 30
0.0
 10
0.2987920159305638
 20
0.0438493158175587
 30
0.0
 10
0.3027448412128854
 20
0.0386323208139947
 30
0.0
 10
0.3071538197403401
 20
0.0337346681287709
 30
0.0
 10
0.3120614694071694
 20
0.0293731851882208
 30
0.0
 10
0.3172245227801118
 20
0.0254694868857727
 30
0.0
 10
0.3227169202793394
 20
0.0221976585479611
 30
0.0
 10
0.3284953548146221
 20
0.0195419521370005
 30
0.0
 10
0.3345504823249202
 20
0.0174629295613503
 30
0.0
 10
0.3408842105474733
 20
0.01604379951257
 30
0.0
 10
0.3474840760013837
 20
0.0150932918786512
 30
0.0
 10
0.3519830570037248
 20
0.0149876015071849
 30
0.0
 10
0.3542734721432075
 20
0.0149337949170308
 30
0.0
  0
SPLINE
  5
CD
330
1F
100
AcDbEntity
  8
0
  6
Continuous
 62
     7
370
    25
100
AcDbSpline
210
0.0
220
0.0
230
1.0
 70
     8
 71
     3
 72
    19
 73
    15
 74
     0
 42
0.000000001
 43
0.00000001
 40
0.0
 40
0.0
 40
0.0
 40
0.0
 40
0.0825922633314376
 40
0.1638788940984978
 40
0.2456587396295029
 40
0.3277256953541218
 40
0.4086099609103198
 40
0.4857490859539305
 40
0.5591690561972782
 40
0.6302684758575452
 40
0.7053060284320705
 40
0.7920649660966081
 40
0.8897964374100891
 40
1.0
 40
1.0
 40
1.0
 40
1.0
 10
0.3542734721432075
 20
0.0149337949170308
 30
0.0
 10
0.3565128398292088
 20
0.014977227535595
 30
0.0
 10
0.3609561748954622
 20
0.0150634061824924
 30
0.0
 10
0.3675733789913972
 20
0.015901399818993
 30
0.0
 10
0.3740833452342202
 20
0.0172564195062131
 30
0.0
 10
0.3804591297533074
 20
0.0191057045121892
 30
0.0
 10
0.3865713330330718
 20
0.0213611939483842
 30
0.0
 10
0.3922317294660168
 20
0.0240828266376041
 30
0.0
 10
0.3974374591535971
 20
0.0270935228335277
 30
0.0
 10
0.4023029567669041
 20
0.0305370710512723
 30
0.0
 10
0.4070223134349065
 20
0.0347519415514869
 30
0.0
 10
0.411703919607388
 20
0.0400116359078139
 30
0.0
 10
0.4167236805619075
 20
0.0462321736066427
 30
0.0
 10
0.4198657943293191
 20
0.0509140068907797
 30
0.0
 10
0.4215310843226949
 20
0.0533953333785693
 30
0.0
  0
LINE
  5
CE
330
1F
100
AcDbEntity
  8
0
  6
Continuous
 62
     7
370
    25
100
AcDbLine
 10
0.2899705875
 20
0.1046773847
 30
0.0
 11
0.4286424625
 21
0.1046773847
 31
0.0
  0
LINE
  5
CF
330
1F
100
AcDbEntity
  8
0
  6
Continuous
 62
     7
370
    25
100
AcDbLine
 10
-0.5393062554
 20
-0.0042969743
 30
0.0
 11
-0.6803318964
 21
-0.0042969743
 31
0.0
  0
LINE
  5
D0
330
1F
100
AcDbEntity
  8
0
  6
Continuous
 62
     7
370
    25
100
AcDbLine
 10
-0.5393062554
 20
0.0213440513
 30
0.0
 11
-0.5393062554
 21
-0.0042969743
 31
0.0
  0
LINE
  5
D1
330
1F
100
AcDbEntity
  8
0
  6
Continuous
 62
     7
370
    25
100
AcDbLine
 10
-0.657895999
 20
0.0213440513
 30
0.0
 11
-0.5393062554
 21
0.0213440513
 31
0.0
  0
LINE
  5
D2
330
1F
100
AcDbEntity
  8
0
  6
Continuous
 62
     7
370
    25
100
AcDbLine
 10
-0.657895999
 20
0.1174978975
 30
0.0
 11
-0.657895999
 21
0.0213440513
 31
0.0
  0
LINE
  5
D3
330
1F
100
AcDbEntity
  8
0
  6
Continuous
 62
     7
370
    25
100
AcDbLine
 10
-0.5393062554
 20
0.1174978975
 30
0.0
 11
-0.657895999
 21
0.1174978975
 31
0.0
  0
LINE
  5
D4
330
1F
100
AcDbEntity
  8
0
  6
Continuous
 62
     7
370
    25
100
AcDbLine
 10
-0.5393062554
 20
0.1431389231
 30
0.0
 11
-0.5393062554
 21
0.1174978975
 31
0.0
  0
LINE
  5
D5
330
1F
100
AcDbEntity
  8
0
  6
Continuous
 62
     7
370
    25
100
AcDbLine
 10
-0.657895999
 20
0.1431389231
 30
0.0
 11
-0.5393062554
 21
0.1431389231
 31
0.0
  0
LINE
  5
D6
330
1F
100
AcDbEntity
  8
0
  6
Continuous
 62
     7
370
    25
100
AcDbLine
 10
-0.657895999
 20
0.220062
 30
0.0
 11
-0.657895999
 21
0.1431389231
 31
0.0
  0
LINE
  5
D7
330
1F
100
AcDbEntity
  8
0
  6
Continuous
 62
     7
370
    25
100
AcDbLine
 10
-0.5393062554
 20
0.220062
 30
0.0
 11
-0.657895999
 21
0.220062
 31
0.0
  0
LINE
  5
D8
330
1F
100
AcDbEntity
  8
0
  6
Continuous
 62
     7
370
    25
100
AcDbLine
 10
-0.5393062554
 20
0.2457030257
 30
0.0
 11
-0.5393062554
 21
0.220062
 31
0.0
  0
LINE
  5
D9
330
1F
100
AcDbEntity
  8
0
  6
Continuous
 62
     7
370
    25
100
AcDbLine
 10
-0.6803318964
 20
0.2457030257
 30
0.0
 11
-0.5393062554
 21
0.2457030257
 31
0.0
  0
LINE
  5
DA
330
1F
100
AcDbEntity
  8
0
  6
Continuous
 62
     7
370
    25
100
AcDbLine
 10
-0.6803318964
 20
-0.0042969743
 30
0.0
 11
-0.6803318964
 21
0.2457030257
 31
0.0
  0
LINE
  5
DB
330
1F
100
AcDbEntity
  8
0
  6
Continuous
 62
     7
370
    25
100
AcDbLine
 10
-0.2780883067
 20
-0.0042969743
 30
0.0
 11
-0.1964576977
 21
0.1232070321
 31
0.0
  0
LINE
  5
DC
330
1F
100
AcDbEntity
  8
0
  6
Continuous
 62
     7
370
    25
100
AcDbLine
 10
-0.2521968804
 20
-0.0042969743
 30
0.0
 11
-0.2780883067
 21
-0.0042969743
 31
0.0
  0
LINE
  5
DD
330
1F
100
AcDbEntity
  8
0
  6
Continuous
 62
     7
370
    25
100
AcDbLine
 10
-0.1835370247
 20
0.1029746603
 30
0.0
 11
-0.2521968804
 21
-0.0042969743
 31
0.0
  0
LINE
  5
DE
330
1F
100
AcDbEntity
  8
0
  6
Continuous
 62
     7
370
    25
100
AcDbLine
 10
-0.1148771689
 20
-0.0042969743
 30
0.0
 11
-0.1835370247
 21
0.1029746603
 31
0.0
  0
LINE
  5
DF
330
1F
100
AcDbEntity
  8
0
  6
Continuous
 62
     7
370
    25
100
AcDbLine
 10
-0.0889857426
 20
-0.0042969743
 30
0.0
 11
-0.1148771689
 21
-0.0042969743
 31
0.0
  0
LINE
  5
E0
330
1F
100
AcDbEntity
  8
0
  6
Continuous
 62
     7
370
    25
100
AcDbLine
 10
-0.1705662714
 20
0.1232070321
 30
0.0
 11
-0.0889857426
 21
-0.0042969743
 31
0.0
  0
LINE
  5
E1
330
1F
100
AcDbEntity
  8
0
  6
Continuous
 62
     7
370
    25
100
AcDbLine
 10
-0.0921908708
 20
0.2457030257
 30
0.0
 11
-0.1705662714
 21
0.1232070321
 31
0.0
  0
LINE
  5
E2
330
1F
100
AcDbEntity
  8
0
  6
Continuous
 62
     7
370
    25
100
AcDbLine
 10
-0.1180822971
 20
0.2457030257
 30
0.0
 11
-0.0921908708
 21
0.2457030257
 31
0.0
  0
LINE
  5
E3
330
1F
100
AcDbEntity
  8
0
  6
Continuous
 62
     7
370
    25
100
AcDbLine
 10
-0.1835370247
 20
0.1434394039
 30
0.0
 11
-0.1180822971
 21
0.2457030257
 31
0.0
  0
LINE
  5
E4
330
1F
100
AcDbEntity
  8
0
  6
Continuous
 62
     7
370
    25
100
AcDbLine
 10
-0.2489917522
 20
0.2457030257
 30
0.0
 11
-0.1835370247
 21
0.1434394039
 31
0.0
  0
LINE
  5
E5
330
1F
100
AcDbEntity
  8
0
  6
Continuous
 62
     7
370
    25
100
AcDbLine
 10
-0.2748831785
 20
0.2457030257
 30
0.0
 11
-0.2489917522
 21
0.2457030257
 31
0.0
  0
LINE
  5
E6
330
1F
100
AcDbEntity
  8
0
  6
Continuous
 62
     7
370
    25
100
AcDbLine
 10
-0.1964576977
 20
0.1232070321
 30
0.0
 11
-0.2748831785
 21
0.2457030257
 31
0.0
  0
LINE
  5
E7
330
1F
100
AcDbEntity
  8
0
  6
Continuous
 62
     7
370
    25
100
AcDbLine
 10
0.45107836
 20
0.0822414872
 30
0.0
 11
0.2876168215
 21
0.0822414872
 31
0.0
  0
LINE
  5
E8
330
1F
100
AcDbEntity
  8
0
  6
Continuous
 62
     7
370
    25
100
AcDbLine
 10
0.4215310843
 20
0.0533953334
 30
0.0
 11
0.4414629753
 21
0.0429285866
 31
0.0
  0
LINE
  5
E9
330
1F
100
AcDbEntity
  8
0
  6
Continuous
 62
     7
370
    25
100
AcDbLine
 10
-1.84
 20
-2.33425
 30
0.0
 11
1.84
 21
-2.33425
 31
0.0
  0
LINE
  5
EA
330
1F
100
AcDbEntity
  8
0
  6
Continuous
 62
     7
370
    25
100
AcDbLine
 10
-1.84
 20
2.33425
 30
0.0
 11
-1.84
 21
-2.33425
 31
0.0
  0
LINE
  5
EB
330
1F
100
AcDbEntity
  8
0
  6
Continuous
 62
     7
370
    25
100
AcDbLine
 10
1.84
 20
2.33425
 30
0.0
 11
-1.84
 21
2.33425
 31
0.0
  0
LINE
  5
EC
330
1F
100
AcDbEntity
  8
0
  6
Continuous
 62
     7
370
    25
100
AcDbLine
 10
1.84
 20
-2.33425
 30
0.0
 11
1.84
 21
2.33425
 31
0.0
  0
LINE
  5
ED
330
1F
100
AcDbEntity
  8
0
  6
Continuous
 62
     7
370
    25
100
AcDbLine
 10
0.6594116933
 20
0.1430387629
 30
0.0
 11
0.6594116933
 21
0.2521132821
 31
0.0
  0
LINE
  5
EE
330
1F
100
AcDbEntity
  8
0
  6
Continuous
 62
     7
370
    25
100
AcDbLine
 10
0.6594116933
 20
-0.0042969743
 30
0.0
 11
0.6594116933
 21
0.0273035866
 31
0.0
  0
LINE
  5
EF
330
1F
100
AcDbEntity
  8
0
  6
Continuous
 62
     7
370
    25
100
AcDbLine
 10
0.6818475907
 20
-0.0042969743
 30
0.0
 11
0.6594116933
 21
-0.0042969743
 31
0.0
  0
LINE
  5
F0
330
1F
100
AcDbEntity
  8
0
  6
Continuous
 62
     7
370
    25
100
AcDbLine
 10
0.6818475907
 20
0.2521132821
 30
0.0
 11
0.6818475907
 21
-0.0042969743
 31
0.0
  0
LINE
  5
F1
330
1F
100
AcDbEntity
  8
0
  6
Continuous
 62
     7
370
    25
100
AcDbLine
 10
0.6594116933
 20
0.2521132821
 30
0.0
 11
0.6818475907
 21
0.2521132821
 31
0.0
  0
LINE
  5
F2
330
1F
100
AcDbEntity
  8
0
  6
Continuous
 62
     7
370
    25
100
AcDbLine
 10
-0.0296908708
 20
-0.0042969743
 30
0.0
 11
-0.0521267682
 21
-0.0042969743
 31
0.0
  0
LINE
  5
F3
330
1F
100
AcDbEntity
  8
0
  6
Continuous
 62
     7
370
    25
100
AcDbLine
 10
-0.0296908708
 20
0.0725760225
 30
0.0
 11
-0.0296908708
 21
-0.0042969743
 31
0.0
  0
LINE
  5
F4
330
1F
100
AcDbEntity
  8
0
  6
Continuous
 62
     7
370
    25
100
AcDbLine
 10
0.0728732318
 20
-0.0042969743
 30
0.0
 11
0.0728732318
 21
0.0886016635
 31
0.0
  0
LINE
  5
F5
330
1F
100
AcDbEntity
  8
0
  6
Continuous
 62
     7
370
    25
100
AcDbLine
 10
0.0953091292
 20
-0.0042969743
 30
0.0
 11
0.0728732318
 21
-0.0042969743
 31
0.0
  0
LINE
  5
F6
330
1F
100
AcDbEntity
  8
0
  6
Continuous
 62
     7
370
    25
100
AcDbLine
 10
0.1978732318
 20
-0.0042969743
 30
0.0
 11
0.1978732318
 21
0.0947615193
 31
0.0
  0
LINE
  5
F7
330
1F
100
AcDbEntity
  8
0
  6
Continuous
 62
     7
370
    25
100
AcDbLine
 10
0.2203091292
 20
-0.0042969743
 30
0.0
 11
0.1978732318
 21
-0.0042969743
 31
0.0
  0
LINE
  5
F8
330
1F
100
AcDbEntity
  8
0
  6
Continuous
 62
     7
370
    25
100
AcDbLine
 10
0.2203091292
 20
0.094661359
 30
0.0
 11
0.2203091292
 21
-0.0042969743
 31
0.0
  0
LINE
  5
F9
330
1F
100
AcDbEntity
  8
0
  6
Continuous
 62
     7
370
    25
100
AcDbLine
 10
-0.0296908708
 20
0.1783953334
 30
0.0
 11
-0.0296908708
 21
0.1466445321
 31
0.0
  0
LINE
  5
FA
330
1F
100
AcDbEntity
  8
0
  6
Continuous
 62
     7
370
    25
100
AcDbLine
 10
-0.0521267682
 20
0.1783953334
 30
0.0
 11
-0.0296908708
 21
0.1783953334
 31
0.0
  0
LINE
  5
FB
330
1F
100
AcDbEntity
  8
0
  6
Continuous
 62
     7
370
    25
100
AcDbLine
 10
-0.0521267682
 20
-0.0042969743
 30
0.0
 11
-0.0521267682
 21
0.1783953334
 31
0.0
  0
LINE
  5
FC
330
1F
100
AcDbEntity
  8
0
  6
Continuous
 62
     7
370
    25
100
AcDbLine
 10
-0.4719985631
 20
-0.0042969743
 30
0.0
 11
-0.4944344605
 21
-0.0042969743
 31
0.0
  0
LINE
  5
FD
330
1F
100
AcDbEntity
  8
0
  6
Continuous
 62
     7
370
    25
100
AcDbLine
 10
-0.4719985631
 20
0.1174978975
 30
0.0
 11
-0.4719985631
 21
-0.0042969743
 31
0.0
  0
LINE
  5
FE
330
1F
100
AcDbEntity
  8
0
  6
Continuous
 62
     7
370
    25
100
AcDbLine
 10
-0.3437934349
 20
0.1174978975
 30
0.0
 11
-0.4719985631
 21
0.1174978975
 31
0.0
  0
LINE
  5
FF
330
1F
100
AcDbEntity
  8
0
  6
Continuous
 62
     7
370
    25
100
AcDbLine
 10
-0.3437934349
 20
-0.0042969743
 30
0.0
 11
-0.3437934349
 21
0.1174978975
 31
0.0
  0
LINE
  5
100
330
1F
100
AcDbEntity
  8
0
  6
Continuous
 62
     7
370
    25
100
AcDbLine
 10
-0.3213575375
 20
-0.0042969743
 30
0.0
 11
-0.3437934349
 21
-0.0042969743
 31
0.0
  0
LINE
  5
101
330
1F
100
AcDbEntity
  8
0
  6
Continuous
 62
     7
370
    25
100
AcDbLine
 10
-0.3213575375
 20
0.2457030257
 30
0.0
 11
-0.3213575375
 21
-0.0042969743
 31
0.0
  0
LINE
  5
102
330
1F
100
AcDbEntity
  8
0
  6
Continuous
 62
     7
370
    25
100
AcDbLine
 10
-0.3437934349
 20
0.2457030257
 30
0.0
 11
-0.3213575375
 21
0.2457030257
 31
0.0
  0
LINE
  5
103
330
1F
100
AcDbEntity
  8
0
  6
Continuous
 62
     7
370
    25
100
AcDbLine
 10
-0.3437934349
 20
0.1431389231
 30
0.0
 11
-0.3437934349
 21
0.2457030257
 31
0.0
  0
LINE
  5
104
330
1F
100
AcDbEntity
  8
0
  6
Continuous
 62
     7
370
    25
100
AcDbLine
 10
-0.4719985631
 20
0.1431389231
 30
0.0
 11
-0.3437934349
 21
0.1431389231
 31
0.0
  0
LINE
  5
105
330
1F
100
AcDbEntity
  8
0
  6
Continuous
 62
     7
370
    25
100
AcDbLine
 10
-0.4719985631
 20
0.2457030257
 30
0.0
 11
-0.4719985631
 21
0.1431389231
 31
0.0
  0
LINE
  5
106
330
1F
100
AcDbEntity
  8
0
  6
Continuous
 62
     7
370
    25
100
AcDbLine
 10
-0.4944344605
 20
0.2457030257
 30
0.0
 11
-0.4719985631
 21
0.2457030257
 31
0.0
  0
LINE
  5
107
330
1F
100
AcDbEntity
  8
0
  6
Continuous
 62
     7
370
    25
100
AcDbLine
 10
-0.4944344605
 20
-0.0042969743
 30
0.0
 11
-0.4944344605
 21
0.2457030257
 31
0.0
  0
LINE
  5
108
330
1F
100
AcDbEntity
  8
0
  6
Continuous
 62
     7
370
    25
100
AcDbLine
 10
0.0953091292
 20
0.0667667276
 30
0.0
 11
0.0953091292
 21
-0.0042969743
 31
0.0
  0
MTEXT
  5
10A
330
1F
100
AcDbEntity
  8
0
  6
Continuous
 62
     7
100
AcDbMText
 10
-1.84
 20
-2.3743904091
 30
0.0
 40
0.1903
 41
0.0
 71
     1
 72
     1
  1
SOLIDWORKS Educational Product.
  7
SLDTEXTSTYLE0
 73
     1
 44
1.0
  0
MTEXT
  5
10B
330
1F
100
AcDbEntity
  8
0
  6
Continuous
 62
     7
100
AcDbMText
 10
-1.84
 20
-2.6598404091
 30
0.0
 40
0.1903
 41
0.0
 71
     1
 72
     1
  1
For Instructional Use Only.
  7
SLDTEXTSTYLE0
 73
     1
 44
1.0
  0
ENDSEC
  0
SECTION
  2
OBJECTS
  0
DICTIONARY
  5
C
330
0
100
AcDbDictionary
281
     1
  3
ACAD_GROUP
350
D
  3
ACAD_LAYOUT
350
1A
  3
ACAD_MLINESTYLE
350
17
  3
ACAD_PLOTSETTINGS
350
19
  3
ACAD_PLOTSTYLENAME
350
E
  3
ACAD_SCALELIST
350
47
  0
DICTIONARY
  5
D
102
{ACAD_REACTORS
330
C
102
}
330
C
100
AcDbDictionary
281
     1
  0
DICTIONARY
  5
1A
102
{ACAD_REACTORS
330
C
102
}
330
C
100
AcDbDictionary
281
     1
  3
Layout1
350
1E
  3
Layout2
350
26
  3
Model
350
22
  0
DICTIONARY
  5
17
102
{ACAD_REACTORS
330
C
102
}
330
C
100
AcDbDictionary
281
     1
  3
Standard
350
18
  0
DICTIONARY
  5
19
102
{ACAD_REACTORS
330
C
102
}
330
C
100
AcDbDictionary
281
     1
  0
ACDBDICTIONARYWDFLT
  5
E
102
{ACAD_REACTORS
330
C
102
}
330
C
100
AcDbDictionary
281
     1
  3
Normal
350
F
100
AcDbDictionaryWithDefault
340
F
  0
DICTIONARY
  5
47
102
{ACAD_REACTORS
330
C
102
}
330
C
100
AcDbDictionary
281
     1
  3
A0
350
48
  3
A1
350
49
  3
A2
350
4A
  3
A3
350
4B
  3
A4
350
4C
  3
A5
350
4D
  3
A6
350
4E
  3
A7
350
4F
  3
A8
350
50
  3
A9
350
51
  3
B0
350
52
  3
B1
350
53
  3
B2
350
54
  3
B3
350
55
  3
B4
350
56
  3
B5
350
57
  3
B6
350
58
  3
B7
350
59
  3
B8
350
5A
  3
B9
350
5B
  3
C0
350
5C
  3
C1
350
5D
  3
C2
350
5E
  3
C3
350
5F
  3
C4
350
60
  3
C5
350
61
  3
C6
350
62
  3
C7
350
63
  3
C8
350
64
  3
C9
350
65
  3
D0
350
66
  3
D1
350
67
  3
D2
350
68
  0
LAYOUT
  5
1E
102
{ACAD_REACTORS
330
1A
102
}
330
1A
100
AcDbPlotSettings
  1

  2
none_device
  4

  6

 40
0.0
 41
0.0
 42
0.0
 43
0.0
 44
0.0
 45
0.0
 46
0.0
 47
0.0
 48
0.0
 49
0.0
140
0.0
141
0.0
142
1.0
143
1.0
 70
   688
 72
     0
 73
     0
 74
     5
  7

 75
    16
147
1.0
148
0.0
149
0.0
100
AcDbLayout
  1
Layout1
 70
     1
 71
     1
 10
0.0
 20
0.0
 11
12.0
 21
9.0
 12
0.0
 22
0.0
 32
0.0
 14
1.0000000000E+20
 24
1.0000000000E+20
 34
1.0000000000E+20
 15
-1.0000000000E+20
 25
-1.0000000000E+20
 35
-1.0000000000E+20
146
0.0
 13
0.0
 23
0.0
 33
0.0
 16
1.0
 26
0.0
 36
0.0
 17
0.0
 27
1.0
 37
0.0
 76
     0
330
1B
  0
LAYOUT
  5
26
102
{ACAD_REACTORS
330
1A
102
}
330
1A
100
AcDbPlotSettings
  1

  2
none_device
  4

  6

 40
0.0
 41
0.0
 42
0.0
 43
0.0
 44
0.0
 45
0.0
 46
0.0
 47
0.0
 48
0.0
 49
0.0
140
0.0
141
0.0
142
1.0
143
1.0
 70
   688
 72
     0
 73
     0
 74
     5
  7

 75
    16
147
1.0
148
0.0
149
0.0
100
AcDbLayout
  1
Layout2
 70
     1
 71
     2
 10
0.0
 20
0.0
 11
0.0
 21
0.0
 12
0.0
 22
0.0
 32
0.0
 14
0.0
 24
0.0
 34
0.0
 15
0.0
 25
0.0
 35
0.0
146
0.0
 13
0.0
 23
0.0
 33
0.0
 16
1.0
 26
0.0
 36
0.0
 17
0.0
 27
1.0
 37
0.0
 76
     0
330
23
  0
LAYOUT
  5
22
102
{ACAD_REACTORS
330
1A
102
}
330
1A
100
AcDbPlotSettings
  1

  2
none_device
  4
ANSI_A_(11.00_x_8.50_Inches)
  6

 40
6.35
 41
19.05
 42
6.35000508
 43
19.05000254
 44
279.4
 45
215.9
 46
133.34999746
 47
88.89999873
 48
0.0
 49
0.0
140
0.0
141
0.0
142
1.8025061583
143
1.0
 70
  1696
 72
     0
 73
     0
 74
     0
  7

 75
     0
147
0.5913241897
148
-39.4088153714
149
0.0
100
AcDbLayout
  1
Model
 70
     1
 71
     0
 10
0.0
 20
0.0
 11
12.0
 21
9.0
 12
0.0
 22
0.0
 32
0.0
 14
-1.84
 24
-2.33425
 34
0.0
 15
1.84
 25
2.33425
 35
0.0
146
0.0
 13
0.0
 23
0.0
 33
0.0
 16
1.0
 26
0.0
 36
0.0
 17
0.0
 27
1.0
 37
0.0
 76
     0
330
1F
331
29
  0
MLINESTYLE
  5
18
102
{ACAD_REACTORS
330
17
102
}
330
17
100
AcDbMlineStyle
  2
Standard
 70
     0
  3

 62
   256
 51
90.0
 52
90.0
 71
     2
 49
0.5
 62
   256
  6
BYLAYER
 49
-0.5
 62
   256
  6
BYLAYER
  0
ACDBPLACEHOLDER
  5
F
102
{ACAD_REACTORS
330
E
102
}
330
E
  0
SCALE
  5
48
102
{ACAD_REACTORS
330
47
102
}
330
47
100
AcDbScale
 70
     0
300
1:1
140
1.0
141
1.0
290
     1
  0
SCALE
  5
49
102
{ACAD_REACTORS
330
47
102
}
330
47
100
AcDbScale
 70
     0
300
1:2
140
1.0
141
2.0
290
     0
  0
SCALE
  5
4A
102
{ACAD_REACTORS
330
47
102
}
330
47
100
AcDbScale
 70
     0
300
1:4
140
1.0
141
4.0
290
     0
  0
SCALE
  5
4B
102
{ACAD_REACTORS
330
47
102
}
330
47
100
AcDbScale
 70
     0
300
1:5
140
1.0
141
5.0
290
     0
  0
SCALE
  5
4C
102
{ACAD_REACTORS
330
47
102
}
330
47
100
AcDbScale
 70
     0
300
1:8
140
1.0
141
8.0
290
     0
  0
SCALE
  5
4D
102
{ACAD_REACTORS
330
47
102
}
330
47
100
AcDbScale
 70
     0
300
1:10
140
1.0
141
10.0
290
     0
  0
SCALE
  5
4E
102
{ACAD_REACTORS
330
47
102
}
330
47
100
AcDbScale
 70
     0
300
1:16
140
1.0
141
16.0
290
     0
  0
SCALE
  5
4F
102
{ACAD_REACTORS
330
47
102
}
330
47
100
AcDbScale
 70
     0
300
1:20
140
1.0
141
20.0
290
     0
  0
SCALE
  5
50
102
{ACAD_REACTORS
330
47
102
}
330
47
100
AcDbScale
 70
     0
300
1:30
140
1.0
141
30.0
290
     0
  0
SCALE
  5
51
102
{ACAD_REACTORS
330
47
102
}
330
47
100
AcDbScale
 70
     0
300
1:40
140
1.0
141
40.0
290
     0
  0
SCALE
  5
52
102
{ACAD_REACTORS
330
47
102
}
330
47
100
AcDbScale
 70
     0
300
1:50
140
1.0
141
50.0
290
     0
  0
SCALE
  5
53
102
{ACAD_REACTORS
330
47
102
}
330
47
100
AcDbScale
 70
     0
300
1:100
140
1.0
141
100.0
290
     0
  0
SCALE
  5
54
102
{ACAD_REACTORS
330
47
102
}
330
47
100
AcDbScale
 70
     0
300
2:1
140
2.0
141
1.0
290
     0
  0
SCALE
  5
55
102
{ACAD_REACTORS
330
47
102
}
330
47
100
AcDbScale
 70
     0
300
4:1
140
4.0
141
1.0
290
     0
  0
SCALE
  5
56
102
{ACAD_REACTORS
330
47
102
}
330
47
100
AcDbScale
 70
     0
300
8:1
140
8.0
141
1.0
290
     0
  0
SCALE
  5
57
102
{ACAD_REACTORS
330
47
102
}
330
47
100
AcDbScale
 70
     0
300
10:1
140
10.0
141
1.0
290
     0
  0
SCALE
  5
58
102
{ACAD_REACTORS
330
47
102
}
330
47
100
AcDbScale
 70
     0
300
100:1
140
100.0
141
1.0
290
     0
  0
SCALE
  5
59
102
{ACAD_REACTORS
330
47
102
}
330
47
100
AcDbScale
 70
     0
300
1/128" = 1'-0"
140
0.0078125
141
12.0
290
     0
  0
SCALE
  5
5A
102
{ACAD_REACTORS
330
47
102
}
330
47
100
AcDbScale
 70
     0
300
1/64" = 1'-0"
140
0.015625
141
12.0
290
     0
  0
SCALE
  5
5B
102
{ACAD_REACTORS
330
47
102
}
330
47
100
AcDbScale
 70
     0
300
1/32" = 1'-0"
140
0.03125
141
12.0
290
     0
  0
SCALE
  5
5C
102
{ACAD_REACTORS
330
47
102
}
330
47
100
AcDbScale
 70
     0
300
1/16" = 1'-0"
140
0.0625
141
12.0
290
     0
  0
SCALE
  5
5D
102
{ACAD_REACTORS
330
47
102
}
330
47
100
AcDbScale
 70
     0
300
3/32" = 1'-0"
140
0.09375
141
12.0
290
     0
  0
SCALE
  5
5E
102
{ACAD_REACTORS
330
47
102
}
330
47
100
AcDbScale
 70
     0
300
1/8" = 1'-0"
140
0.125
141
12.0
290
     0
  0
SCALE
  5
5F
102
{ACAD_REACTORS
330
47
102
}
330
47
100
AcDbScale
 70
     0
300
3/16" = 1'-0"
140
0.1875
141
12.0
290
     0
  0
SCALE
  5
60
102
{ACAD_REACTORS
330
47
102
}
330
47
100
AcDbScale
 70
     0
300
1/4" = 1'-0"
140
0.25
141
12.0
290
     0
  0
SCALE
  5
61
102
{ACAD_REACTORS
330
47
102
}
330
47
100
AcDbScale
 70
     0
300
3/8" = 1'-0"
140
0.375
141
12.0
290
     0
  0
SCALE
  5
62
102
{ACAD_REACTORS
330
47
102
}
330
47
100
AcDbScale
 70
     0
300
1/2" = 1'-0"
140
0.5
141
12.0
290
     0
  0
SCALE
  5
63
102
{ACAD_REACTORS
330
47
102
}
330
47
100
AcDbScale
 70
     0
300
3/4" = 1'-0"
140
0.75
141
12.0
290
     0
  0
SCALE
  5
64
102
{ACAD_REACTORS
330
47
102
}
330
47
100
AcDbScale
 70
     0
300
1" = 1'-0"
140
1.0
141
12.0
290
     0
  0
SCALE
  5
65
102
{ACAD_REACTORS
330
47
102
}
330
47
100
AcDbScale
 70
     0
300
1-1/2" = 1'-0"
140
1.5
141
12.0
290
     0
  0
SCALE
  5
66
102
{ACAD_REACTORS
330
47
102
}
330
47
100
AcDbScale
 70
     0
300
3" = 1'-0"
140
3.0
141
12.0
290
     0
  0
SCALE
  5
67
102
{ACAD_REACTORS
330
47
102
}
330
47
100
AcDbScale
 70
     0
300
6" = 1'-0"
140
6.0
141
12.0
290
     0
  0
SCALE
  5
68
102
{ACAD_REACTORS
330
47
102
}
330
47
100
AcDbScale
 70
     0
300
1'-0" = 1'-0"
140
12.0
141
12.0
290
     0
  0
ENDSEC
  0
EOF
