  0
SECTION
  2
HEADER
  9
$ACADVER
  1
AC1015
  9
$ACADMAINTVER
 70
     6
  9
$DWGCODEPAGE
  3
ANSI_1252
  9
$INSBASE
 10
0.0
 20
0.0
 30
0.0
  9
$EXTMIN
 10
-1.19
 20
-2.195
 30
0.0
  9
$EXTMAX
 10
1.19
 20
2.195
 30
0.0
  9
$LIMMIN
 10
0.0
 20
0.0
  9
$LIMMAX
 10
12.0
 20
9.0
  9
$ORTHOMODE
 70
     0
  9
$REGENMODE
 70
     1
  9
$FILLMODE
 70
     1
  9
$QTEXTMODE
 70
     0
  9
$MIRRTEXT
 70
     1
  9
$LTSCALE
 40
1.0
  9
$ATTMODE
 70
     1
  9
$TEXTSIZE
 40
0.125
  9
$TRACEWID
 40
0.05
  9
$TEXTSTYLE
  7
Standard
  9
$CLAYER
  8
0
  9
$CELTYPE
  6
ByLayer
  9
$CECOLOR
 62
   256
  9
$CELTSCALE
 40
1.0
  9
$DISPSILH
 70
     0
  9
$DIMSCALE
 40
1.0
  9
$DIMASZ
 40
0.13
  9
$DIMEXO
 40
0.05
  9
$DIMDLI
 40
0.38
  9
$DIMRND
 40
0.0
  9
$DIMDLE
 40
0.0
  9
$DIMEXE
 40
0.125
  9
$DIMTP
 40
0.0
  9
$DIMTM
 40
0.0
  9
$DIMTXT
 40
0.125
  9
$DIMCEN
 40
0.09
  9
$DIMTSZ
 40
0.0
  9
$DIMTOL
 70
     0
  9
$DIMLIM
 70
     0
  9
$DIMTIH
 70
     1
  9
$DIMTOH
 70
     1
  9
$DIMSE1
 70
     0
  9
$DIMSE2
 70
     0
  9
$DIMTAD
 70
     0
  9
$DIMZIN
 70
     1
  9
$DIMBLK
  1

  9
$DIMASO
 70
     1
  9
$DIMSHO
 70
     1
  9
$DIMPOST
  1

  9
$DIMAPOST
  1

  9
$DIMALT
 70
     0
  9
$DIMALTD
 70
     2
  9
$DIMALTF
 40
25.4
  9
$DIMLFAC
 40
1.0
  9
$DIMTOFL
 70
     0
  9
$DIMTVP
 40
0.0
  9
$DIMTIX
 70
     0
  9
$DIMSOXD
 70
     0
  9
$DIMSAH
 70
     0
  9
$DIMBLK1
  1

  9
$DIMBLK2
  1

  9
$DIMSTYLE
  2
Standard
  9
$DIMCLRD
 70
     0
  9
$DIMCLRE
 70
     0
  9
$DIMCLRT
 70
     0
  9
$DIMTFAC
 40
1.0
  9
$DIMGAP
 40
0.06
  9
$DIMJUST
 70
     0
  9
$DIMSD1
 70
     0
  9
$DIMSD2
 70
     0
  9
$DIMTOLJ
 70
     1
  9
$DIMTZIN
 70
     1
  9
$DIMALTZ
 70
     0
  9
$DIMALTTZ
 70
     0
  9
$DIMUPT
 70
     0
  9
$DIMDEC
 70
     2
  9
$DIMTDEC
 70
     2
  9
$DIMALTU
 70
     2
  9
$DIMALTTD
 70
     2
  9
$DIMTXSTY
  7
Standard
  9
$DIMAUNIT
 70
     0
  9
$DIMADEC
 70
     2
  9
$DIMALTRND
 40
0.0
  9
$DIMAZIN
 70
     0
  9
$DIMDSEP
 70
    46
  9
$DIMATFIT
 70
     3
  9
$DIMFRAC
 70
     0
  9
$DIMLDRBLK
  1

  9
$DIMLUNIT
 70
     2
  9
$DIMLWD
 70
    -2
  9
$DIMLWE
 70
    -2
  9
$DIMTMOVE
 70
     0
  9
$LUNITS
 70
     2
  9
$LUPREC
 70
     2
  9
$SKETCHINC
 40
0.1
  9
$FILLETRAD
 40
0.5
  9
$AUNITS
 70
     0
  9
$AUPREC
 70
     2
  9
$MENU
  1
.
  9
$ELEVATION
 40
0.0
  9
$PELEVATION
 40
0.0
  9
$THICKNESS
 40
0.0
  9
$LIMCHECK
 70
     0
  9
$CHAMFERA
 40
0.0
  9
$CHAMFERB
 40
0.0
  9
$CHAMFERC
 40
0.0
  9
$CHAMFERD
 40
0.0
  9
$SKPOLY
 70
     0
  9
$TDCREATE
 40
2458403.488106412
  9
$TDUCREATE
 40
2458403.654773079
  9
$TDUPDATE
 40
2458403.488144398
  9
$TDUUPDATE
 40
2458403.654811065
  9
$TDINDWG
 40
0.0000000116
  9
$TDUSRTIMER
 40
0.0000000116
  9
$USRTIMER
 70
     1
  9
$ANGBASE
 50
0.0
  9
$ANGDIR
 70
     0
  9
$PDMODE
 70
     0
  9
$PDSIZE
 40
-1.0
  9
$PLINEWID
 40
0.0
  9
$SPLFRAME
 70
     0
  9
$SPLINETYPE
 70
     6
  9
$SPLINESEGS
 70
     8
  9
$HANDSEED
  5
11F
  9
$SURFTAB1
 70
     6
  9
$SURFTAB2
 70
     6
  9
$SURFTYPE
 70
     6
  9
$SURFU
 70
     6
  9
$SURFV
 70
     6
  9
$UCSBASE
  2

  9
$UCSNAME
  2

  9
$UCSORG
 10
0.0
 20
0.0
 30
0.0
  9
$UCSXDIR
 10
1.0
 20
0.0
 30
0.0
  9
$UCSYDIR
 10
0.0
 20
1.0
 30
0.0
  9
$UCSORTHOREF
  2

  9
$UCSORTHOVIEW
 70
     0
  9
$UCSORGTOP
 10
0.0
 20
0.0
 30
0.0
  9
$UCSORGBOTTOM
 10
0.0
 20
0.0
 30
0.0
  9
$UCSORGLEFT
 10
0.0
 20
0.0
 30
0.0
  9
$UCSORGRIGHT
 10
0.0
 20
0.0
 30
0.0
  9
$UCSORGFRONT
 10
0.0
 20
0.0
 30
0.0
  9
$UCSORGBACK
 10
0.0
 20
0.0
 30
0.0
  9
$PUCSBASE
  2

  9
$PUCSNAME
  2

  9
$PUCSORG
 10
0.0
 20
0.0
 30
0.0
  9
$PUCSXDIR
 10
1.0
 20
0.0
 30
0.0
  9
$PUCSYDIR
 10
0.0
 20
1.0
 30
0.0
  9
$PUCSORTHOREF
  2

  9
$PUCSORTHOVIEW
 70
     0
  9
$PUCSORGTOP
 10
0.0
 20
0.0
 30
0.0
  9
$PUCSORGBOTTOM
 10
0.0
 20
0.0
 30
0.0
  9
$PUCSORGLEFT
 10
0.0
 20
0.0
 30
0.0
  9
$PUCSORGRIGHT
 10
0.0
 20
0.0
 30
0.0
  9
$PUCSORGFRONT
 10
0.0
 20
0.0
 30
0.0
  9
$PUCSORGBACK
 10
0.0
 20
0.0
 30
0.0
  9
$USERI1
 70
     0
  9
$USERI2
 70
     0
  9
$USERI3
 70
     0
  9
$USERI4
 70
     0
  9
$USERI5
 70
     0
  9
$USERR1
 40
0.0
  9
$USERR2
 40
0.0
  9
$USERR3
 40
0.0
  9
$USERR4
 40
0.0
  9
$USERR5
 40
0.0
  9
$WORLDVIEW
 70
     1
  9
$SHADEDGE
 70
     3
  9
$SHADEDIF
 70
    70
  9
$TILEMODE
 70
     1
  9
$MAXACTVP
 70
    64
  9
$PINSBASE
 10
0.0
 20
0.0
 30
0.0
  9
$PLIMCHECK
 70
     0
  9
$PEXTMIN
 10
1.0000000000E+20
 20
1.0000000000E+20
 30
1.0000000000E+20
  9
$PEXTMAX
 10
-1.0000000000E+20
 20
-1.0000000000E+20
 30
-1.0000000000E+20
  9
$PLIMMIN
 10
0.0
 20
0.0
  9
$PLIMMAX
 10
12.0
 20
9.0
  9
$UNITMODE
 70
     0
  9
$VISRETAIN
 70
     1
  9
$PLINEGEN
 70
     0
  9
$PSLTSCALE
 70
     1
  9
$TREEDEPTH
 70
  3020
  9
$CMLSTYLE
  2
Standard
  9
$CMLJUST
 70
     0
  9
$CMLSCALE
 40
1.0
  9
$PROXYGRAPHICS
 70
     1
  9
$MEASUREMENT
 70
     0
  9
$CELWEIGHT
370
    -1
  9
$ENDCAPS
280
     0
  9
$JOINSTYLE
280
     0
  9
$LWDISPLAY
290
     1
  9
$INSUNITS
 70
     1
  9
$HYPERLINKBASE
  1

  9
$STYLESHEET
  1

  9
$XEDIT
290
     1
  9
$CEPSNTYPE
380
     0
  9
$PSTYLEMODE
290
     1
  9
$FINGERPRINTGUID
  2
{6F91C600-CD3B-4017-9790-5FC9E538E8B6}
  9
$VERSIONGUID
  2
{FAEB1C32-E019-11D5-929B-00C0DF256EC4}
  9
$EXTNAMES
290
     1
  9
$PSVPSCALE
 40
0.0
  9
$OLESTARTUP
290
     0
  0
ENDSEC
  0
SECTION
  2
CLASSES
  0
CLASS
  1
ACDBDICTIONARYWDFLT
  2
AcDbDictionaryWithDefault
  3
ObjectDBX Classes
 90
        0
280
     0
281
     0
  0
CLASS
  1
VISUALSTYLE
  2
AcDbVisualStyle
  3
ObjectDBX Classes
 90
     4095
280
     0
281
     0
  0
CLASS
  1
MATERIAL
  2
AcDbMaterial
  3
ObjectDBX Classes
 90
     1153
280
     0
281
     0
  0
CLASS
  1
SCALE
  2
AcDbScale
  3
ObjectDBX Classes
 90
     1153
280
     0
281
     0
  0
CLASS
  1
TABLESTYLE
  2
AcDbTableStyle
  3
ObjectDBX Classes
 90
     4095
280
     0
281
     0
  0
CLASS
  1
MLEADERSTYLE
  2
AcDbMLeaderStyle
  3
ACDB_MLEADERSTYLE_CLASS
 90
     4095
280
     0
281
     0
  0
CLASS
  1
SUN
  2
AcDbSun
  3
SCENEOE
 90
     1153
280
     0
281
     0
  0
CLASS
  1
ACDBPLACEHOLDER
  2
AcDbPlaceHolder
  3
ObjectDBX Classes
 90
        0
280
     0
281
     0
  0
CLASS
  1
LAYOUT
  2
AcDbLayout
  3
ObjectDBX Classes
 90
        0
280
     0
281
     0
  0
ENDSEC
  0
SECTION
  2
TABLES
  0
TABLE
  2
VPORT
  5
8
330
0
100
AcDbSymbolTable
 70
     1
  0
VPORT
  5
29
330
8
100
AcDbSymbolTableRecord
100
AcDbViewportTableRecord
  2
*Active
 70
     0
 10
0.0
 20
0.0
 11
1.0
 21
1.0
 12
0.0
 22
0.0
 13
0.0
 23
0.0
 14
0.5
 24
0.5
 15
0.5
 25
0.5
 16
0.0
 26
0.0
 36
1.0
 17
0.0
 27
0.0
 37
0.0
 40
4.4778
 41
0.5421412301
 42
50.0
 43
0.0
 44
0.0
 50
0.0
 51
0.0
 71
     0
 72
   100
 73
     1
 74
     3
 75
     0
 76
     0
 77
     0
 78
     0
281
     0
 65
     1
110
0.0
120
0.0
130
0.0
111
1.0
121
0.0
131
0.0
112
0.0
122
1.0
132
0.0
 79
     0
146
0.0
  0
ENDTAB
  0
TABLE
  2
LTYPE
  5
5
330
0
100
AcDbSymbolTable
 70
     6
  0
LTYPE
  5
14
330
5
100
AcDbSymbolTableRecord
100
AcDbLinetypeTableRecord
  2
ByBlock
 70
     0
  3

 72
    65
 73
     0
 40
0.0
  0
LTYPE
  5
15
330
5
100
AcDbSymbolTableRecord
100
AcDbLinetypeTableRecord
  2
ByLayer
 70
     0
  3

 72
    65
 73
     0
 40
0.0
  0
LTYPE
  5
16
330
5
100
AcDbSymbolTableRecord
100
AcDbLinetypeTableRecord
  2
Continuous
 70
     0
  3
Solid line
 72
    65
 73
     0
 40
0.0
  0
LTYPE
  5
6E
330
5
100
AcDbSymbolTableRecord
100
AcDbLinetypeTableRecord
  2
HIDDEN
 70
     0
  3
Hidden __ __ __ __ __ __ __ __ __ __ __ __ __ __
 72
    65
 73
     2
 40
0.075
 49
0.05
 74
     0
 49
-0.025
 74
     0
  0
LTYPE
  5
6F
330
5
100
AcDbSymbolTableRecord
100
AcDbLinetypeTableRecord
  2
PHANTOM
 70
     0
  3
Phantom ______  __  __  ______  __  __  ______
 72
    65
 73
     6
 40
0.5
 49
0.25
 74
     0
 49
-0.05
 74
     0
 49
0.05
 74
     0
 49
-0.05
 74
     0
 49
0.05
 74
     0
 49
-0.05
 74
     0
  0
LTYPE
  5
70
330
5
100
AcDbSymbolTableRecord
100
AcDbLinetypeTableRecord
  2
CENTER
 70
     0
  3
Center ____ _ ____ _ ____ _ ____ _ ____ _ ____
 72
    65
 73
     4
 40
0.4
 49
0.25
 74
     0
 49
-0.05
 74
     0
 49
0.05
 74
     0
 49
-0.05
 74
     0
  0
LTYPE
  5
71
330
5
100
AcDbSymbolTableRecord
100
AcDbLinetypeTableRecord
  2
CENTERX2
 70
     0
  3
Center (2x) ________  __  ________  __  _____
 72
    65
 73
     4
 40
0.8
 49
0.5
 74
     0
 49
-0.1
 74
     0
 49
0.1
 74
     0
 49
-0.1
 74
     0
  0
LTYPE
  5
72
330
5
100
AcDbSymbolTableRecord
100
AcDbLinetypeTableRecord
  2
DOT2
 70
     0
  3
Dot (.5x) ........................................
 72
    65
 73
     2
 40
0.025
 49
0.0
 74
     0
 49
-0.025
 74
     0
  0
ENDTAB
  0
TABLE
  2
LAYER
  5
2
330
0
100
AcDbSymbolTable
 70
     1
  0
LAYER
  5
10
330
2
100
AcDbSymbolTableRecord
100
AcDbLayerTableRecord
  2
0
 70
     0
 62
     7
  6
Continuous
370
    -3
390
F
  0
ENDTAB
  0
TABLE
  2
STYLE
  5
3
330
0
100
AcDbSymbolTable
 70
     2
  0
STYLE
  5
11
330
3
100
AcDbSymbolTableRecord
100
AcDbTextStyleTableRecord
  2
Standard
 70
     0
 40
0.0
 41
1.0
 50
0.0
 71
     0
 42
0.125
  3
txt
  4

  0
STYLE
  5
11C
330
3
100
AcDbSymbolTableRecord
100
AcDbTextStyleTableRecord
  2
SLDTEXTSTYLE0
 70
     0
 40
0.0
 41
0.7
 50
0.0
 71
     0
 42
0.125
  3
TXT
  4

  0
ENDTAB
  0
TABLE
  2
VIEW
  5
6
330
0
100
AcDbSymbolTable
 70
     0
  0
ENDTAB
  0
TABLE
  2
UCS
  5
7
330
0
100
AcDbSymbolTable
 70
     0
  0
ENDTAB
  0
TABLE
  2
APPID
  5
9
330
0
100
AcDbSymbolTable
 70
     1
  0
APPID
  5
12
330
9
100
AcDbSymbolTableRecord
100
AcDbRegAppTableRecord
  2
ACAD
 70
     0
  0
ENDTAB
  0
TABLE
  2
DIMSTYLE
  5
A
330
0
100
AcDbSymbolTable
 70
     1
100
AcDbDimStyleTable
  0
DIMSTYLE
105
27
330
A
100
AcDbSymbolTableRecord
100
AcDbDimStyleTableRecord
  2
Standard
 70
     0
178
     0
340
11
  0
ENDTAB
  0
TABLE
  2
BLOCK_RECORD
  5
1
330
0
100
AcDbSymbolTable
 70
     1
  0
BLOCK_RECORD
  5
1F
330
1
100
AcDbSymbolTableRecord
100
AcDbBlockTableRecord
  2
*Model_Space
340
22
  0
BLOCK_RECORD
  5
1B
330
1
100
AcDbSymbolTableRecord
100
AcDbBlockTableRecord
  2
*Paper_Space
340
1E
  0
BLOCK_RECORD
  5
23
330
1
100
AcDbSymbolTableRecord
100
AcDbBlockTableRecord
  2
*Paper_Space0
340
26
  0
ENDTAB
  0
ENDSEC
  0
SECTION
  2
BLOCKS
  0
BLOCK
  5
20
330
1F
100
AcDbEntity
  8
0
100
AcDbBlockBegin
  2
*Model_Space
 70
     0
 10
0.0
 20
0.0
 30
0.0
  3
*Model_Space
  1

  0
ENDBLK
  5
21
330
1F
100
AcDbEntity
  8
0
100
AcDbBlockEnd
  0
BLOCK
  5
1C
330
1B
100
AcDbEntity
 67
     1
  8
0
100
AcDbBlockBegin
  2
*Paper_Space
 70
     0
 10
0.0
 20
0.0
 30
0.0
  3
*Paper_Space
  1

  0
ENDBLK
  5
1D
330
1B
100
AcDbEntity
 67
     1
  8
0
100
AcDbBlockEnd
  0
BLOCK
  5
24
330
23
100
AcDbEntity
  8
0
100
AcDbBlockBegin
  2
*Paper_Space0
 70
     0
 10
0.0
 20
0.0
 30
0.0
  3
*Paper_Space0
  1

  0
ENDBLK
  5
25
330
23
100
AcDbEntity
  8
0
100
AcDbBlockEnd
  0
ENDSEC
  0
SECTION
  2
ENTITIES
  0
SPLINE
  5
73
330
1F
100
AcDbEntity
  8
0
  6
Continuous
 62
     7
370
    25
100
AcDbSpline
210
0.0
220
0.0
230
1.0
 70
     8
 71
     3
 72
    19
 73
    15
 74
     0
 42
0.000000001
 43
0.00000001
 40
0.0
 40
0.0
 40
0.0
 40
0.0
 40
0.0848023883688274
 40
0.1686635395998405
 40
0.2525519243727824
 40
0.3382396894642435
 40
0.4231026613931548
 40
0.505556051057622
 40
0.5861756559890523
 40
0.667135720330361
 40
0.7484991803055335
 40
0.8304523987582787
 40
0.9134557062010131
 40
1.0
 40
1.0
 40
1.0
 40
1.0
 10
0.4958499945791044
 20
0.0149337949170305
 30
0.0
 10
0.4990961733478307
 20
0.0150523637688737
 30
0.0
 10
0.5055525009565057
 20
0.0152881854553006
 30
0.0
 10
0.5150838372336495
 20
0.0170939901191027
 30
0.0
 10
0.5243334774334972
 20
0.0200774757155355
 30
0.0
 10
0.5331754223176655
 20
0.024213127625106
 30
0.0
 10
0.5414122888282253
 20
0.0293386530463256
 30
0.0
 10
0.5488049943722573
 20
0.0353391595485317
 30
0.0
 10
0.5550561349703622
 20
0.0423179584143891
 30
0.0
 10
0.5603556070830928
 20
0.0499877050604609
 30
0.0
 10
0.5645109939901369
 20
0.058395704807666
 30
0.0
 10
0.5675378553613558
 20
0.0673481470038025
 30
0.0
 10
0.5693274200596636
 20
0.0768453432998766
 30
0.0
 10
0.5695529721769894
 20
0.0833356237969208
 30
0.0
 10
0.5696681035534634
 20
0.0866485385067741
 30
0.0
  0
SPLINE
  5
74
330
1F
100
AcDbEntity
  8
0
  6
Continuous
 62
     7
370
    25
100
AcDbSpline
210
0.0
220
0.0
230
1.0
 70
     8
 71
     3
 72
    23
 73
    19
 74
     0
 42
0.000000001
 43
0.00000001
 40
0.0
 40
0.0
 40
0.0
 40
0.0
 40
0.06563379967569
 40
0.1291880880571289
 40
0.1912186831121886
 40
0.2519128178811574
 40
0.3125074743865507
 40
0.3734944337751982
 40
0.4351515996540504
 40
0.4987414744066492
 40
0.5620952169966316
 40
0.6241865668116551
 40
0.685475718465196
 40
0.7460968148060518
 40
0.8076116364477847
 40
0.869966580657189
 40
0.9339510189149068
 40
1.0
 40
1.0
 40
1.0
 40
1.0
 10
0.5696681035534634
 20
0.0866485385067741
 30
0.0
 10
0.5695995566697785
 20
0.0891726692573282
 30
0.0
 10
0.5694646347105244
 20
0.0941409573540337
 30
0.0
 10
0.5684338797440494
 20
0.1014357800377501
 30
0.0
 10
0.5667942421431983
 20
0.1084167604677731
 30
0.0
 10
0.5644838014277356
 20
0.115091238257673
 30
0.0
 10
0.5614487096837671
 20
0.1214223107861903
 30
0.0
 10
0.557788154977596
 20
0.1274554365154987
 30
0.0
 10
0.553437765710911
 20
0.1331592373290471
 30
0.0
 10
0.5484675731323416
 20
0.1384551709703667
 30
0.0
 10
0.5430272015219509
 20
0.143285632560311
 30
0.0
 10
0.53727044861966
 20
0.1475973640397228
 30
0.0
 10
0.5311291095512715
 20
0.1511394192354265
 30
0.0
 10
0.5247064640571469
 20
0.1540709386281156
 30
0.0
 10
0.5179913687384285
 20
0.1564037350493727
 30
0.0
 10
0.5109291816085323
 20
0.157959998889949
 30
0.0
 10
0.5035949682565997
 20
0.1590285932496204
 30
0.0
 10
0.4985916785854345
 20
0.1591187633045707
 30
0.0
 10
0.4960503150919249
 20
0.1591645641477998
 30
0.0
  0
SPLINE
  5
75
330
1F
100
AcDbEntity
  8
0
  6
Continuous
 62
     7
370
    25
100
AcDbSpline
210
0.0
220
0.0
230
1.0
 70
     8
 71
     3
 72
    19
 73
    15
 74
     0
 42
0.000000001
 43
0.00000001
 40
0.0
 40
0.0
 40
0.0
 40
0.0
 40
0.0859205174117675
 40
0.1695934351247436
 40
0.2524755148685384
 40
0.336244476957051
 40
0.4195045210415717
 40
0.5020359066440893
 40
0.5847746476768715
 40
0.6698464747058008
 40
0.7541848663887862
 40
0.8366582383293272
 40
0.9180097257088055
 40
1.0
 40
1.0
 40
1.0
 40
1.0
 10
0.4960503150919249
 20
0.1591645641477998
 30
0.0
 10
0.492770719529635
 20
0.1590478757384746
 30
0.0
 10
0.4862973195317852
 20
0.1588175513785565
 30
0.0
 10
0.4767941765273263
 20
0.157019444579659
 30
0.0
 10
0.4677003612353235
 20
0.1540276878393908
 30
0.0
 10
0.4590613559304258
 20
0.1499361234702221
 30
0.0
 10
0.4510136261716688
 20
0.144791213711861
 30
0.0
 10
0.4438212211124311
 20
0.1385682577624446
 30
0.0
 10
0.4374253138727215
 20
0.1314370424656837
 30
0.0
 10
0.4320461521418097
 20
0.1234297488663852
 30
0.0
 10
0.4276611166475466
 20
0.1148455995043404
 30
0.0
 10
0.4245777572234941
 20
0.1058724253542637
 30
0.0
 10
0.4225442395514115
 20
0.0966720698145004
 30
0.0
 10
0.4223364880827351
 20
0.0904318779732328
 30
0.0
 10
0.422232206117566
 20
0.0872995801734408
 30
0.0
  0
SPLINE
  5
76
330
1F
100
AcDbEntity
  8
0
  6
Continuous
 62
     7
370
    25
100
AcDbSpline
210
0.0
220
0.0
230
1.0
 70
     8
 71
     3
 72
    19
 73
    15
 74
     0
 42
0.000000001
 43
0.00000001
 40
0.0
 40
0.0
 40
0.0
 40
0.0
 40
0.0815893489321834
 40
0.1628588951679347
 40
0.2454836892755789
 40
0.3308071391580109
 40
0.4164933737762841
 40
0.4998932031606316
 40
0.5830481559950205
 40
0.6671578520621569
 40
0.751311929292914
 40
0.8337847893576151
 40
0.91625648854398
 40
0.9999999999999999
 40
0.9999999999999999
 40
0.9999999999999999
 40
0.9999999999999999
 10
0.422232206117566
 20
0.0872995801734408
 30
0.0
 10
0.4223654127825495
 20
0.0841860010888693
 30
0.0
 10
0.4226313039873718
 20
0.0779710470983335
 30
0.0
 10
0.4245420678729418
 20
0.0687581487577361
 30
0.0
 10
0.4277477731181952
 20
0.0597828600390702
 30
0.0
 10
0.4321222061701987
 20
0.0511213605019497
 30
0.0
 10
0.4375998222222486
 20
0.0430796390474002
 30
0.0
 10
0.4439490116902652
 20
0.0358124874358598
 30
0.0
 10
0.4512311746411844
 20
0.0295632311306593
 30
0.0
 10
0.4592974251464759
 20
0.0243319758731241
 30
0.0
 10
0.4679122801750722
 20
0.0201060815234503
 30
0.0
 10
0.4769718467088477
 20
0.0171656787015238
 30
0.0
 10
0.486305820862883
 20
0.0152672658000827
 30
0.0
 10
0.4926524161380211
 20
0.0150455174545787
 30
0.0
 10
0.4958499945791044
 20
0.0149337949170305
 30
0.0
  0
SPLINE
  5
91
330
1F
100
AcDbEntity
  8
0
  6
Continuous
 62
     7
370
    25
100
AcDbSpline
210
0.0
220
0.0
230
1.0
 70
     8
 71
     3
 72
    23
 73
    19
 74
     0
 42
0.000000001
 43
0.00000001
 40
0.0
 40
0.0
 40
0.0
 40
0.0
 40
0.0686770684130356
 40
0.1368709585090956
 40
0.2061143571452994
 40
0.2775381819697281
 40
0.3497719775548988
 40
0.4212508361555699
 40
0.4929107569233712
 40
0.5670265889927396
 40
0.606614153241335
 40
0.6497039535189882
 40
0.6973031504846856
 40
0.7490856597091365
 40
0.8048806474593092
 40
0.8654850057023366
 40
0.9302371271531363
 40
1.0
 40
1.0
 40
1.0
 40
1.0
 10
0.1640190650919249
 20
0.1591645641477998
 30
0.0
 10
0.161303621416715
 20
0.159055245575156
 30
0.0
 10
0.1558918386019889
 20
0.1588373775419633
 30
0.0
 10
0.1479416979123392
 20
0.1568763579813423
 30
0.0
 10
0.1402641490825033
 20
0.1538046383557304
 30
0.0
 10
0.132981670597263
 20
0.1495432227067237
 30
0.0
 10
0.1262906600039608
 20
0.1442647170926646
 30
0.0
 10
0.1204329266257921
 20
0.1380565102518169
 30
0.0
 10
0.1155084605169244
 20
0.1309958650009493
 30
0.0
 10
0.1122419023096344
 20
0.1244126852498411
 30
0.0
 10
0.1101348684438065
 20
0.118586022757186
 30
0.0
 10
0.1087352016811391
 20
0.1136323836376141
 30
0.0
 10
0.1075323712659834
 20
0.1081323659031749
 30
0.0
 10
0.1066385125728291
 20
0.1020690008257217
 30
0.0
 10
0.10577562574371
 20
0.0954817798160428
 30
0.0
 10
0.1053591750953265
 20
0.0883378876939269
 30
0.0
 10
0.1049540635128747
 20
0.08064345285807
 30
0.0
 10
0.1049346053200403
 20
0.0753311281979408
 30
0.0
 10
0.1049245138098735
 20
0.0725760224811331
 30
0.0
  0
SPLINE
  5
92
330
1F
100
AcDbEntity
  8
0
  6
Continuous
 62
     7
370
    25
100
AcDbSpline
210
0.0
220
0.0
230
1.0
 70
     8
 71
     3
 72
    23
 73
    19
 74
     0
 42
0.000000001
 43
0.00000001
 40
0.0
 40
0.0
 40
0.0
 40
0.0
 40
0.0825297038220663
 40
0.15877885491757
 40
0.2277380621151793
 40
0.2899456527966759
 40
0.3454988386981375
 40
0.3938963373401234
 40
0.4363737851900881
 40
0.4721222744615227
 40
0.5363836155048269
 40
0.599077901725496
 40
0.6619482340244583
 40
0.7263105423531548
 40
0.791771103050211
 40
0.8586473037978578
 40
0.9273053338076837
 40
1.0
 40
1.0
 40
1.0
 40
1.0
 10
0.2074886163739762
 20
0.0886016635067741
 30
0.0
 10
0.2074829427328159
 20
0.091222614847151
 30
0.0
 10
0.2074720272174932
 20
0.0962650617886417
 30
0.0
 10
0.2072808616948995
 20
0.1034960385965526
 30
0.0
 10
0.2069175315737486
 20
0.1100732586031961
 30
0.0
 10
0.2064974924047364
 20
0.1159890774484401
 30
0.0
 10
0.2058931939391553
 20
0.1212327437884871
 30
0.0
 10
0.2052067823598839
 20
0.1258323693600921
 30
0.0
 10
0.2043961673222614
 20
0.1297764230088956
 30
0.0
 10
0.2030540327064729
 20
0.1341023790705446
 30
0.0
 10
0.2010029992572264
 20
0.1388681592836917
 30
0.0
 10
0.1977038376866656
 20
0.1439496607967229
 30
0.0
 10
0.1935890105165908
 20
0.14839738204834
 30
0.0
 10
0.1887625193834103
 20
0.1521944355080182
 30
0.0
 10
0.1833335420841083
 20
0.1553331127436232
 30
0.0
 10
0.1773347277406167
 20
0.1575945235855152
 30
0.0
 10
0.1708200911094389
 20
0.1589105442728273
 30
0.0
 10
0.1663288264016547
 20
0.1590782940353781
 30
0.0
 10
0.1640190650919249
 20
0.1591645641477998
 30
0.0
  0
SPLINE
  5
96
330
1F
100
AcDbEntity
  8
0
  6
Continuous
 62
     7
370
    25
100
AcDbSpline
210
0.0
220
0.0
230
1.0
 70
     8
 71
     3
 72
    23
 73
    19
 74
     0
 42
0.000000001
 43
0.00000001
 40
0.0
 40
0.0
 40
0.0
 40
0.0
 40
0.0681582441559976
 40
0.1347066022023564
 40
0.2018649976035978
 40
0.2707882662774624
 40
0.3400242943604921
 40
0.4080827390537212
 40
0.476813195258144
 40
0.5473460643070949
 40
0.5856397954238957
 40
0.6288649531777643
 40
0.6771532033637913
 40
0.730802811365106
 40
0.789806615532502
 40
0.8543250087420142
 40
0.9243651340575436
 40
1.0
 40
1.0
 40
1.0
 40
1.0
 10
0.2891693054765403
 20
0.1591645641477998
 30
0.0
 10
0.2863357373070172
 20
0.1590634100487605
 30
0.0
 10
0.2807355293651638
 20
0.15886349109326
 30
0.0
 10
0.2725608517788717
 20
0.1568225001673181
 30
0.0
 10
0.2647057791640885
 20
0.1537453394059206
 30
0.0
 10
0.2574046982408781
 20
0.149285878182815
 30
0.0
 10
0.2506884274825383
 20
0.1439424236219556
 30
0.0
 10
0.244909886212138
 20
0.137588881067718
 30
0.0
 10
0.240136158664869
 20
0.130401029143777
 30
0.0
 10
0.2369037318119548
 20
0.1237476932640886
 30
0.0
 10
0.2348616388658935
 20
0.117771304415433
 30
0.0
 10
0.2335132877412602
 20
0.1125500635584331
 30
0.0
 10
0.2324644740648418
 20
0.106615665856065
 30
0.0
 10
0.2314808648354681
 20
0.1000079879371938
 30
0.0
 10
0.2308388842664196
 20
0.0926815464834796
 30
0.0
 10
0.2302554291003941
 20
0.0846702321263495
 30
0.0
 10
0.2299825103279689
 20
0.0759499493094938
 30
0.0
 10
0.2299443347022946
 20
0.0699051858370802
 30
0.0
 10
0.2299245138098736
 20
0.0667667276093382
 30
0.0
  0
SPLINE
  5
97
330
1F
100
AcDbEntity
  8
0
  6
Continuous
 62
     7
370
    25
100
AcDbSpline
210
0.0
220
0.0
230
1.0
 70
     8
 71
     3
 72
    23
 73
    19
 74
     0
 42
0.000000001
 43
0.00000001
 40
0.0
 40
0.0
 40
0.0
 40
0.0
 40
0.0783429851937013
 40
0.1505633028794205
 40
0.2161510566599772
 40
0.2756797924514265
 40
0.3287070503654625
 40
0.3759044348322083
 40
0.4173018977400331
 40
0.4526927480535837
 40
0.5172652917530133
 40
0.5812165680623069
 40
0.6453218939728016
 40
0.7120244933797629
 40
0.780130044716044
 40
0.8502182262116654
 40
0.9226485217347373
 40
1.0
 40
1.0
 40
1.0
 40
1.0
 10
0.3324886163739762
 20
0.0947615192760049
 30
0.0
 10
0.3324830533042598
 20
0.0970987031286787
 30
0.0
 10
0.3324723619303149
 20
0.1015904150467908
 30
0.0
 10
0.3322799596757307
 20
0.1080370187044815
 30
0.0
 10
0.3319174372431811
 20
0.1139133299361238
 30
0.0
 10
0.3314935344741053
 20
0.1192113362320871
 30
0.0
 10
0.3309046909469223
 20
0.1239433925532759
 30
0.0
 10
0.3301442672515881
 20
0.1280999938795701
 30
0.0
 10
0.3293387186873931
 20
0.1317138375481889
 30
0.0
 10
0.3280004336081909
 20
0.1357199838051991
 30
0.0
 10
0.3258612984927736
 20
0.1401392845540061
 30
0.0
 10
0.3226029070618414
 20
0.1449052542536618
 30
0.0
 10
0.3184978994715023
 20
0.1490538828381777
 30
0.0
 10
0.3137578882884216
 20
0.152655191182332
 30
0.0
 10
0.3083615708103029
 20
0.1555833084036069
 30
0.0
 10
0.3024140905842461
 20
0.1576744519537905
 30
0.0
 10
0.2959523726132147
 20
0.1589689432689591
 30
0.0
 10
0.2914793162981635
 20
0.1590979443815566
 30
0.0
 10
0.2891693054765403
 20
0.1591645641477998
 30
0.0
  0
SPLINE
  5
9B
330
1F
100
AcDbEntity
  8
0
  6
Continuous
 62
     7
370
    25
100
AcDbSpline
210
0.0
220
0.0
230
1.0
 70
     8
 71
     3
 72
    23
 73
    19
 74
     0
 42
0.000000001
 43
0.00000001
 40
0.0
 40
0.0
 40
0.0
 40
0.0
 40
0.0756043304957467
 40
0.1479650154827369
 40
0.2187969985237008
 40
0.2894704453213773
 40
0.3597242180875006
 40
0.4297077387530459
 40
0.500496519848586
 40
0.5744290198679491
 40
0.6139472962286701
 40
0.6571552698261109
 40
0.703972769720937
 40
0.7549389848168007
 40
0.8097066112894877
 40
0.8688329536985495
 40
0.9323854739325977
 40
1.0
 40
1.0
 40
1.0
 40
1.0
 10
0.2930755554765402
 20
0.1816004615836972
 30
0.0
 10
0.2961385171064372
 20
0.1814849458081469
 30
0.0
 10
0.3021330304103575
 20
0.1812588702195432
 30
0.0
 10
0.3108599779612736
 20
0.1794836221241564
 30
0.0
 10
0.3189986783415852
 20
0.1764352187586053
 30
0.0
 10
0.326532755207976
 20
0.1722756732892937
 30
0.0
 10
0.3333298847371999
 20
0.1670485887675591
 30
0.0
 10
0.3392381925360504
 20
0.1608293860805657
 30
0.0
 10
0.3442217899171939
 20
0.1536620558654688
 30
0.0
 10
0.3474774070384015
 20
0.1469197709587568
 30
0.0
 10
0.3496856401976814
 20
0.140967247183864
 30
0.0
 10
0.3510471569352462
 20
0.1358953692332867
 30
0.0
 10
0.3522499922985723
 20
0.1303131154532798
 30
0.0
 10
0.353248652674502
 20
0.1242138110601942
 30
0.0
 10
0.3539785492527657
 20
0.117575910467139
 30
0.0
 10
0.3545193146447544
 20
0.1104102764755001
 30
0.0
 10
0.3548853198989211
 20
0.1027113399310807
 30
0.0
 10
0.3549111822033157
 20
0.0973995184862669
 30
0.0
 10
0.3549245138098736
 20
0.0946613590195946
 30
0.0
  0
SPLINE
  5
9C
330
1F
100
AcDbEntity
  8
0
  6
Continuous
 62
     7
370
    25
100
AcDbSpline
210
0.0
220
0.0
230
1.0
 70
     8
 71
     3
 72
    19
 73
    15
 74
     0
 42
0.000000001
 43
0.00000001
 40
0.0
 40
0.0
 40
0.0
 40
0.0
 40
0.0717660641583407
 40
0.1412255357663699
 40
0.209115852497463
 40
0.2748396534685276
 40
0.3394829303752205
 40
0.4024762667354005
 40
0.4649418891713279
 40
0.5268326406463844
 40
0.6474148160608229
 40
0.7655615117859494
 40
0.881615087039331
 40
1.0
 40
1.0
 40
1.0
 40
1.0
 10
0.2260683439380787
 20
0.1374798686349793
 30
0.0
 10
0.227047719034916
 20
0.1392458985832039
 30
0.0
 10
0.2289749916865402
 20
0.1427211975081553
 30
0.0
 10
0.2322111086203039
 20
0.1476396448113611
 30
0.0
 10
0.2356016655116117
 20
0.1522401299431732
 30
0.0
 10
0.2391755578730827
 20
0.1565263031124653
 30
0.0
 10
0.2429201712188392
 20
0.1604769981420388
 30
0.0
 10
0.2468531283831377
 20
0.1641052768316338
 30
0.0
 10
0.250952041341961
 20
0.1674267206662499
 30
0.0
 10
0.2566514870500117
 20
0.1713069463458002
 30
0.0
 10
0.2640666732919264
 20
0.1754284593002622
 30
0.0
 10
0.2734158243417725
 20
0.1790019195865974
 30
0.0
 10
0.2831408365981395
 20
0.1812102144693849
 30
0.0
 10
0.2897421007629574
 20
0.1814695196719442
 30
0.0
 10
0.2930755554765402
 20
0.1816004615836972
 30
0.0
  0
SPLINE
  5
9D
330
1F
100
AcDbEntity
  8
0
  6
Continuous
 62
     7
370
    25
100
AcDbSpline
210
0.0
220
0.0
230
1.0
 70
     8
 71
     3
 72
    19
 73
    15
 74
     0
 42
0.000000001
 43
0.00000001
 40
0.0
 40
0.0
 40
0.0
 40
0.0
 40
0.0841520188443158
 40
0.1665323202984577
 40
0.2488363311465301
 40
0.3312461454872596
 40
0.4129571090216171
 40
0.4904942776695657
 40
0.5661557919819238
 40
0.6399873346864657
 40
0.7167654882718493
 40
0.8021439047100984
 40
0.8958332007101926
 40
1.0
 40
1.0
 40
1.0
 40
1.0
 10
0.1679253150919249
 20
0.1816004615836972
 30
0.0
 10
0.1701319577038916
 20
0.1815257979565211
 30
0.0
 10
0.1744987847781191
 20
0.1813780426531273
 30
0.0
 10
0.1809690769281293
 20
0.18041661156907
 30
0.0
 10
0.1872446920590595
 20
0.1787547420676751
 30
0.0
 10
0.1932885512968706
 20
0.1764399332128598
 30
0.0
 10
0.1989828855310756
 20
0.1736365984332843
 30
0.0
 10
0.2042035425132414
 20
0.1703473335820863
 30
0.0
 10
0.2088909859548671
 20
0.1666546853388354
 30
0.0
 10
0.2130428467625912
 20
0.1623919044113285
 30
0.0
 10
0.216776348576587
 20
0.1574392902312896
 30
0.0
 10
0.2202105519073003
 20
0.1516632724524583
 30
0.0
 10
0.2233837813628291
 20
0.1449341538056259
 30
0.0
 10
0.2251424462794059
 20
0.1400508294500535
 30
0.0
 10
0.2260683439380787
 20
0.1374798686349793
 30
0.0
  0
SPLINE
  5
9E
330
1F
100
AcDbEntity
  8
0
  6
Continuous
 62
     7
370
    25
100
AcDbSpline
210
0.0
220
0.0
230
1.0
 70
     8
 71
     3
 72
    11
 73
     7
 74
     0
 42
0.000000001
 43
0.00000001
 40
0.0
 40
0.0
 40
0.0
 40
0.0
 40
0.2537340756906621
 40
0.5030351201318557
 40
0.7500135973308784
 40
1.0
 40
1.0
 40
1.0
 40
1.0
 10
0.1302650586816684
 20
0.1723356378657485
 30
0.0
 10
0.1332553916949002
 20
0.173764592526127
 30
0.0
 10
0.1391838131040105
 20
0.1765975363366494
 30
0.0
 10
0.1485709005984246
 20
0.179471361976893
 30
0.0
 10
0.1581762341367426
 20
0.1812374406418003
 30
0.0
 10
0.1646625351298402
 20
0.1814789673156238
 30
0.0
 10
0.167925315091925
 20
0.1816004615836972
 30
0.0
  0
SPLINE
  5
9F
330
1F
100
AcDbEntity
  8
0
  6
Continuous
 62
     7
370
    25
100
AcDbSpline
210
0.0
220
0.0
230
1.0
 70
     8
 71
     3
 72
    11
 73
     7
 74
     0
 42
0.000000001
 43
0.00000001
 40
0.0
 40
0.0
 40
0.0
 40
0.0
 40
0.2835948081386947
 40
0.5433948405759667
 40
0.7806456291745606
 40
0.9999999999999999
 40
0.9999999999999999
 40
0.9999999999999999
 40
0.9999999999999999
 10
0.1049245138098735
 20
0.1466445320965177
 30
0.0
 10
0.1069447959466023
 20
0.149422217934364
 30
0.0
 10
0.1108158502046526
 20
0.1547445302959092
 30
0.0
 10
0.1171633968112472
 20
0.1617581220270489
 30
0.0
 10
0.1235045477026174
 20
0.1677101330737744
 30
0.0
 10
0.1280712178289166
 20
0.1708346239026507
 30
0.0
 10
0.1302650586816684
 20
0.1723356378657485
 30
0.0
  0
CIRCLE
  5
AB
330
1F
100
AcDbEntity
  8
0
  6
Continuous
 62
     7
370
    25
100
AcDbCircle
 10
-1.0
 20
-1.99
 30
0.0
 40
0.071999999999999
  0
CIRCLE
  5
AC
330
1F
100
AcDbEntity
  8
0
  6
Continuous
 62
     7
370
    25
100
AcDbCircle
 10
1.0
 20
-1.99
 30
0.0
 40
0.071999999999999
  0
CIRCLE
  5
AD
330
1F
100
AcDbEntity
  8
0
  6
Continuous
 62
     7
370
    25
100
AcDbCircle
 10
1.0
 20
1.99
 30
0.0
 40
0.0719999999999998
  0
CIRCLE
  5
AE
330
1F
100
AcDbEntity
  8
0
  6
Continuous
 62
     7
370
    25
100
AcDbCircle
 10
-1.0
 20
1.99
 30
0.0
 40
0.0720000000000001
  0
SPLINE
  5
B4
330
1F
100
AcDbEntity
  8
0
  6
Continuous
 62
     7
370
    25
100
AcDbSpline
210
0.0
220
0.0
230
1.0
 70
     8
 71
     3
 72
    15
 73
    11
 74
     0
 42
0.000000001
 43
0.00000001
 40
0.0
 40
0.0
 40
0.0
 40
0.0
 40
0.1298621417207367
 40
0.2546535308972874
 40
0.3760145541937113
 40
0.4952552518176062
 40
0.6147977192994585
 40
0.7381055541683316
 40
0.8651963000723569
 40
1.0
 40
1.0
 40
1.0
 40
1.0
 10
0.4957498343226941
 20
0.1816004615836972
 30
0.0
 10
0.4994783956843329
 20
0.1814977650449929
 30
0.0
 10
0.5067899285400775
 20
0.181296381979494
 30
0.0
 10
0.5174847863448506
 20
0.1796204728852812
 30
0.0
 10
0.5276022490522473
 20
0.1767891538027921
 30
0.0
 10
0.5372204170543958
 20
0.1729379039439701
 30
0.0
 10
0.5463047517754551
 20
0.1678201375809764
 30
0.0
 10
0.554769250655165
 20
0.1613644260792877
 30
0.0
 10
0.5627024994628659
 20
0.1536114841528503
 30
0.0
 10
0.5673010917242393
 20
0.1476564524050482
 30
0.0
 10
0.5696681035534634
 20
0.1445912468401075
 30
0.0
  0
SPLINE
  5
B5
330
1F
100
AcDbEntity
  8
0
  6
Continuous
 62
     7
370
    25
100
AcDbSpline
210
0.0
220
0.0
230
1.0
 70
     8
 71
     3
 72
    23
 73
    19
 74
     0
 42
0.000000001
 43
0.00000001
 40
0.0
 40
0.0
 40
0.0
 40
0.0
 40
0.063774532305632
 40
0.1260788099895058
 40
0.1869040927472073
 40
0.2475739349176197
 40
0.3080033561644468
 40
0.3691318984609776
 40
0.4320332277442043
 40
0.4967907944370912
 40
0.5616108232295657
 40
0.6249138657484621
 40
0.6867263492419244
 40
0.748078833257771
 40
0.8095822911398958
 40
0.8716307425688273
 40
0.9348858208285541
 40
1.0
 40
1.0
 40
1.0
 40
1.0
 10
0.3997963086816684
 20
0.0875499808144664
 30
0.0
 10
0.3998858066377315
 20
0.0907259596408541
 30
0.0
 10
0.4000627392688147
 20
0.097004698449378
 30
0.0
 10
0.4013808264002625
 20
0.1062388911626536
 30
0.0
 10
0.4035973270187751
 20
0.1151330526435995
 30
0.0
 10
0.4067078875663387
 20
0.1236585485881537
 30
0.0
 10
0.4106965986351329
 20
0.1318256950273386
 30
0.0
 10
0.4155486048509082
 20
0.1396402682426913
 30
0.0
 10
0.4212642566151107
 20
0.1471237966328368
 30
0.0
 10
0.4278537142591383
 20
0.1541003128341778
 30
0.0
 10
0.4349919121278983
 20
0.1605446424248479
 30
0.0
 10
0.4426282500504246
 20
0.1661452885278811
 30
0.0
 10
0.4505727701447696
 20
0.170982206300454
 30
0.0
 10
0.4589486994677972
 20
0.1748145974651935
 30
0.0
 10
0.4676320640973679
 20
0.1779152477897975
 30
0.0
 10
0.4767001673650275
 20
0.1800604597969773
 30
0.0
 10
0.4861152801275684
 20
0.1813245541712635
 30
0.0
 10
0.492507458132184
 20
0.181507608753484
 30
0.0
 10
0.4957498343226941
 20
0.1816004615836972
 30
0.0
  0
SPLINE
  5
B6
330
1F
100
AcDbEntity
  8
0
  6
Continuous
 62
     7
370
    25
100
AcDbSpline
210
0.0
220
0.0
230
1.0
 70
     8
 71
     3
 72
    23
 73
    19
 74
     0
 42
0.000000001
 43
0.00000001
 40
0.0
 40
0.0
 40
0.0
 40
0.0
 40
0.0646199913407679
 40
0.1274334841444693
 40
0.18900412655794
 40
0.2499300706860468
 40
0.3106684537406723
 40
0.3723289611368246
 40
0.4349391099970087
 40
0.499575544194034
 40
0.5641912077719238
 40
0.6267352169294786
 40
0.6881093335614017
 40
0.7492936065367514
 40
0.8103305278109454
 40
0.8719011702244159
 40
0.9350459146845314
 40
1.0
 40
1.0
 40
1.0
 40
1.0
 10
0.4950487125278223
 20
-0.0075021025188669
 30
0.0
 10
0.4918224301112126
 20
-0.0074145044996418
 30
0.0
 10
0.4854600583334988
 20
-0.0072417573270966
 30
0.0
 10
0.4761008385378619
 20
-0.0059015927829339
 30
0.0
 10
0.4670942492912434
 20
-0.0037494055227855
 30
0.0
 10
0.4584317798154014
 20
-0.0007564848448022
 30
0.0
 10
0.4501694837129651
 20
0.0032135738436397
 30
0.0
 10
0.4422366196649432
 20
0.0079665201323123
 30
0.0
 10
0.4346742845207205
 20
0.0136265794237871
 30
0.0
 10
0.4275977460233027
 20
0.020097152877565
 30
0.0
 10
0.4210811745678811
 20
0.0271253662478229
 30
0.0
 10
0.4153625122377249
 20
0.0346214767389035
 30
0.0
 10
0.4105944351052431
 20
0.0425530698740942
 30
0.0
 10
0.4066072864832951
 20
0.0508197237232879
 30
0.0
 10
0.4035361190232427
 20
0.059485075118576
 30
0.0
 10
0.4013951451476768
 20
0.0685191585428459
 30
0.0
 10
0.4000565418119154
 20
0.0779112923671208
 30
0.0
 10
0.3998838660487044
 20
0.0843069725882357
 30
0.0
 10
0.3997963086816684
 20
0.0875499808144664
 30
0.0
  0
SPLINE
  5
B7
330
1F
100
AcDbEntity
  8
0
  6
Continuous
 62
     7
370
    25
100
AcDbSpline
210
0.0
220
0.0
230
1.0
 70
     8
 71
     3
 72
    15
 73
    11
 74
     0
 42
0.000000001
 43
0.00000001
 40
0.0
 40
0.0
 40
0.0
 40
0.0
 40
0.1342983790141681
 40
0.2620849753823024
 40
0.3862699121345016
 40
0.5071645966228003
 40
0.6273002357255075
 40
0.7481449416029948
 40
0.8723701771613517
 40
1.0
 40
1.0
 40
1.0
 40
1.0
 10
0.5696681035534634
 20
0.0273035865836972
 30
0.0
 10
0.5671381899373092
 20
0.0244436155867091
 30
0.0
 10
0.5622010317029631
 20
0.0188623462233562
 30
0.0
 10
0.5539552375621433
 20
0.011570762474017
 30
0.0
 10
0.5452146534262516
 20
0.0055437395068702
 30
0.0
 10
0.5360217019169159
 20
0.0006758883854136
 30
0.0
 10
0.5263846845351575
 20
-0.0029806870672548
 30
0.0
 10
0.5163249640154253
 20
-0.0055796984333833
 30
0.0
 10
0.505838436810744
 20
-0.0072506866599726
 30
0.0
 10
0.4986775543257436
 20
-0.0074175453649033
 30
0.0
 10
0.4950487125278223
 20
-0.0075021025188669
 30
0.0
  0
SPLINE
  5
BC
330
1F
100
AcDbEntity
  8
0
  6
Continuous
 62
     7
370
    25
100
AcDbSpline
210
0.0
220
0.0
230
1.0
 70
     8
 71
     3
 72
    11
 73
     7
 74
     0
 42
0.000000001
 43
0.00000001
 40
0.0
 40
0.0
 40
0.0
 40
0.0
 40
0.2462523706929829
 40
0.4925907964763741
 40
0.7405699911180899
 40
1.0
 40
1.0
 40
1.0
 40
1.0
 10
-0.0501736432414085
 20
0.1055287468401074
 30
0.0
 10
-0.0514686860740021
 20
0.1076105764855137
 30
0.0
 10
-0.0540592243034744
 20
0.1117749632902901
 30
0.0
 10
-0.0565745951019102
 20
0.1187257116282965
 30
0.0
 10
-0.0583035971645628
 20
0.1260432157232476
 30
0.0
 10
-0.0584580536052284
 20
0.1310922767479674
 30
0.0
 10
-0.0585370246516648
 20
0.1336737788913895
 30
0.0
  0
SPLINE
  5
BD
330
1F
100
AcDbEntity
  8
0
  6
Continuous
 62
     7
370
    25
100
AcDbSpline
210
0.0
220
0.0
230
1.0
 70
     8
 71
     3
 72
    15
 73
    11
 74
     0
 42
0.000000001
 43
0.00000001
 40
0.0
 40
0.0
 40
0.0
 40
0.0
 40
0.1577616635135497
 40
0.3059502132085398
 40
0.4437754990007255
 40
0.5728243624015389
 40
0.692154156443243
 40
0.8022957069908481
 40
0.9055643918329939
 40
1.0
 40
1.0
 40
1.0
 40
1.0
 10
-0.0186732426003828
 20
0.0805888429939536
 30
0.0
 10
-0.0205337168889123
 20
0.0816273523985449
 30
0.0
 10
-0.0241417702814002
 20
0.0836413535612957
 30
0.0
 10
-0.0292522910625322
 20
0.0867782164368908
 30
0.0
 10
-0.0338628163638718
 20
0.0899687360569037
 30
0.0
 10
-0.0380842859754959
 20
0.0930339388604589
 30
0.0
 10
-0.0418100720953137
 20
0.0961354348567113
 30
0.0
 10
-0.0450254969742399
 20
0.0992766671043861
 30
0.0
 10
-0.0478571552479215
 20
0.1023309518243366
 30
0.0
 10
-0.0494248275144373
 20
0.1044950444396756
 30
0.0
 10
-0.0501736432414085
 20
0.1055287468401074
 30
0.0
  0
SPLINE
  5
BE
330
1F
100
AcDbEntity
  8
0
  6
Continuous
 62
     7
370
    25
100
AcDbSpline
210
0.0
220
0.0
230
1.0
 70
     8
 71
     3
 72
    15
 73
    11
 74
     0
 42
0.000000001
 43
0.00000001
 40
0.0
 40
0.0
 40
0.0
 40
0.0
 40
0.0768750740350484
 40
0.1674616757257257
 40
0.2722700232466393
 40
0.3895508405125225
 40
0.5208013683480553
 40
0.6662632933752256
 40
0.8255449152058609
 40
1.0
 40
1.0
 40
1.0
 40
1.0
 10
0.009021068297053
 20
0.0617587147888254
 30
0.0
 10
0.0084480401236682
 20
0.0624040977996656
 30
0.0
 10
0.007199777805126
 20
0.0638099750861179
 30
0.0
 10
0.0049101177147287
 20
0.0658403378619482
 30
0.0
 10
0.0021685561289617
 20
0.0680287735157554
 30
0.0
 10
-0.0010557412233418
 20
0.0703381727256651
 30
0.0
 10
-0.0047692742188827
 20
0.0727380731036758
 30
0.0
 10
-0.0089870938895842
 20
0.0752158839786421
 30
0.0
 10
-0.0136514190716135
 20
0.0778892929635309
 30
0.0
 10
-0.0169493213086072
 20
0.079662125488052
 30
0.0
 10
-0.0186732426003828
 20
0.0805888429939536
 30
0.0
  0
SPLINE
  5
BF
330
1F
100
AcDbEntity
  8
0
  6
Continuous
 62
     7
370
    25
100
AcDbSpline
210
0.0
220
0.0
230
1.0
 70
     8
 71
     3
 72
    11
 73
     7
 74
     0
 42
0.000000001
 43
0.00000001
 40
0.0
 40
0.0
 40
0.0
 40
0.0
 40
0.2534754346498644
 40
0.500453315102902
 40
0.7455781350009817
 40
1.0
 40
1.0
 40
1.0
 40
1.0
 10
0.0151809240662838
 20
0.0443308301734408
 30
0.0
 10
0.0151033316135119
 20
0.0459243743635896
 30
0.0
 10
0.0149501357021595
 20
0.0490706140527514
 30
0.0
 10
0.0137470448446942
 20
0.0536242098416176
 30
0.0
 10
0.011846126826137
 20
0.0579434441760732
 30
0.0
 10
0.0099743662294402
 20
0.0604712761219127
 30
0.0
 10
0.009021068297053
 20
0.0617587147888254
 30
0.0
  0
SPLINE
  5
C0
330
1F
100
AcDbEntity
  8
0
  6
Continuous
 62
     7
370
    25
100
AcDbSpline
210
0.0
220
0.0
230
1.0
 70
     8
 71
     3
 72
    15
 73
    11
 74
     0
 42
0.000000001
 43
0.00000001
 40
0.0
 40
0.0
 40
0.0
 40
0.0
 40
0.1340420464623703
 40
0.2618956736507317
 40
0.3878360446911193
 40
0.5176862058208255
 40
0.6445086536782126
 40
0.7647182630567264
 40
0.8802907821585003
 40
1.0
 40
1.0
 40
1.0
 40
1.0
 10
-0.0170706784978187
 20
0.0149337949170305
 30
0.0
 10
-0.0149051123579585
 20
0.0150317109784734
 30
0.0
 10
-0.0106739593876618
 20
0.0152230225374178
 30
0.0
 10
-0.0046136909152338
 20
0.0169599576824051
 30
0.0
 10
0.0009819252597995
 20
0.0196835256699089
 30
0.0
 10
0.0058407356540043
 20
0.023546718395632
 30
0.0
 10
0.0099766043016875
 20
0.0280435450098942
 30
0.0
 10
0.0129714739022388
 20
0.0331088392456336
 30
0.0
 10
0.0148483435780166
 20
0.0385939432948638
 30
0.0
 10
0.0150687720534418
 20
0.0423962506247985
 30
0.0
 10
0.0151809240662838
 20
0.0443308301734408
 30
0.0
  0
SPLINE
  5
C1
330
1F
100
AcDbEntity
  8
0
  6
Continuous
 62
     7
370
    25
100
AcDbSpline
210
0.0
220
0.0
230
1.0
 70
     8
 71
     3
 72
    15
 73
    11
 74
     0
 42
0.000000001
 43
0.00000001
 40
0.0
 40
0.0
 40
0.0
 40
0.0
 40
0.1474758177483599
 40
0.2859041715443777
 40
0.4171716482444364
 40
0.5405007435864952
 40
0.6592377183802385
 40
0.7750060983159546
 40
0.8872285734286347
 40
1.0
 40
1.0
 40
1.0
 40
1.0
 10
-0.0532786111901265
 20
0.0341645641477998
 30
0.0
 10
-0.0518662959775232
 20
0.0326392238243852
 30
0.0
 10
-0.0491283093910862
 20
0.0296821209708638
 30
0.0
 10
-0.0447496510484222
 20
0.0257446680657603
 30
0.0
 10
-0.0402939795410628
 20
0.0224445772706165
 30
0.0
 10
-0.0358057876428976
 20
0.0196843333569031
 30
0.0
 10
-0.0312186380483596
 20
0.0175575188456498
 30
0.0
 10
-0.0265582370316694
 20
0.0160633335663914
 30
0.0
 10
-0.0218340638844245
 20
0.0151030341217223
 30
0.0
 10
-0.018661054183006
 20
0.0149902996703262
 30
0.0
 10
-0.0170706784978187
 20
0.0149337949170305
 30
0.0
  0
SPLINE
  5
C3
330
1F
100
AcDbEntity
  8
0
  6
Continuous
 62
     7
370
    25
100
AcDbSpline
210
0.0
220
0.0
230
1.0
 70
     8
 71
     3
 72
    15
 73
    11
 74
     0
 42
0.000000001
 43
0.00000001
 40
0.0
 40
0.0
 40
0.0
 40
0.0
 40
0.1267425189618449
 40
0.2517239612496056
 40
0.3772186880262424
 40
0.5046935492516286
 40
0.6314582385934865
 40
0.7554010672029512
 40
0.8777005336014754
 40
1.0
 40
1.0
 40
1.0
 40
1.0
 10
-0.0159188355491008
 20
-0.0075021025188669
 30
0.0
 10
-0.0184450623660987
 20
-0.007431195352756
 30
0.0
 10
-0.023462414290287
 20
-0.007290366269662
 30
0.0
 10
-0.0308831085151967
 20
-0.0059685047579663
 30
0.0
 10
-0.0381345912769582
 20
-0.0039116909031399
 30
0.0
 10
-0.0451619870131277
 20
-0.0010748384632744
 30
0.0
 10
-0.0518081380052024
 20
0.0025073553122454
 30
0.0
 10
-0.0578889183338381
 20
0.0067975262826921
 30
0.0
 10
-0.0634254513667479
 20
0.0116539546686835
 30
0.0
 10
-0.0665767566336156
 20
0.0153763054325388
 30
0.0
 10
-0.0681524092670495
 20
0.0172374808144664
 30
0.0
  0
SPLINE
  5
C4
330
1F
100
AcDbEntity
  8
0
  6
Continuous
 62
     7
370
    25
100
AcDbSpline
210
0.0
220
0.0
230
1.0
 70
     8
 71
     3
 72
    23
 73
    19
 74
     0
 42
0.000000001
 43
0.00000001
 40
0.0
 40
0.0
 40
0.0
 40
0.0
 40
0.0645481255642505
 40
0.1271991327555118
 40
0.1885973380874246
 40
0.248639515094013
 40
0.3095246994640574
 40
0.3700369910533488
 40
0.4318892436070739
 40
0.495704285725294
 40
0.5595193278435135
 40
0.6213715803972378
 40
0.6823971072916396
 40
0.7435684819321653
 40
0.8054984835712147
 40
0.8686397008205233
 40
0.9330662250811649
 40
1.0
 40
1.0
 40
1.0
 40
1.0
 10
0.0376168215021813
 20
0.0452823526093382
 30
0.0
 10
0.0375654262296506
 20
0.0434774135918513
 30
0.0
 10
0.0374641462306347
 20
0.0399205840837288
 30
0.0
 10
0.0367599985922188
 20
0.034682381962227
 30
0.0
 10
0.0355489288548482
 20
0.0296727707096279
 30
0.0
 10
0.033899375000775
 20
0.0248373932309458
 30
0.0
 10
0.0316719197933609
 20
0.0202688975439859
 30
0.0
 10
0.0290613628539797
 20
0.0158520226162962
 30
0.0
 10
0.0259274405871352
 20
0.0116823132741982
 30
0.0
 10
0.0223494851859367
 20
0.0077652446900629
 30
0.0
 10
0.018431949901721
 20
0.0041876913028958
 30
0.0
 10
0.0142529400193282
 20
0.0010431231695972
 30
0.0
 10
0.009807309261481
 20
-0.0015693294874812
 30
0.0
 10
0.0051268234455953
 20
-0.0037311398619751
 30
0.0
 10
0.0002008481547001
 20
-0.0054503011438588
 30
0.0
 10
-0.0049713867943381
 20
-0.0066404819477005
 30
0.0
 10
-0.0103734406923111
 20
-0.0073528220258566
 30
0.0
 10
-0.0140469984159528
 20
-0.0074517131818967
 30
0.0
 10
-0.0159188355491008
 20
-0.0075021025188669
 30
0.0
  0
SPLINE
  5
C5
330
1F
100
AcDbEntity
  8
0
  6
Continuous
 62
     7
370
    25
100
AcDbSpline
210
0.0
220
0.0
230
1.0
 70
     8
 71
     3
 72
    11
 73
     7
 74
     0
 42
0.000000001
 43
0.00000001
 40
0.0
 40
0.0
 40
0.0
 40
0.0
 40
0.2488386141270729
 40
0.4952350254576692
 40
0.7433356038750066
 40
1.0
 40
1.0
 40
1.0
 40
1.0
 10
0.0291031997073094
 20
0.0735275449170305
 30
0.0
 10
0.0304039516653129
 20
0.0714085386277085
 30
0.0
 10
0.0329926894755429
 20
0.0671913228337745
 30
0.0
 10
0.0357111370795403
 20
0.0602471494450011
 30
0.0
 10
0.0372868709968831
 20
0.0528821135566294
 30
0.0
 10
0.0375056010128544
 20
0.0478440978340086
 30
0.0
 10
0.0376168215021813
 20
0.0452823526093382
 30
0.0
  0
SPLINE
  5
C6
330
1F
100
AcDbEntity
  8
0
  6
Continuous
 62
     7
370
    25
100
AcDbSpline
210
0.0
220
0.0
230
1.0
 70
     8
 71
     3
 72
    15
 73
    11
 74
     0
 42
0.000000001
 43
0.00000001
 40
0.0
 40
0.0
 40
0.0
 40
0.0
 40
0.1589891012267965
 40
0.307114591605574
 40
0.4462131585962146
 40
0.5748760724117283
 40
0.6941521095829557
 40
0.8045811801532374
 40
0.9065933190457646
 40
1.0
 40
1.0
 40
1.0
 40
1.0
 10
-0.0037994445234598
 20
0.0991685705580562
 30
0.0
 10
-0.0018556175879533
 20
0.0980796489284756
 30
0.0
 10
0.0018992159877041
 20
0.0959762109004686
 30
0.0
 10
0.0072344136488108
 20
0.0927112320783568
 30
0.0
 10
0.0120763451467331
 20
0.0894661303445332
 30
0.0
 10
0.0164660356930667
 20
0.0862756107818461
 30
0.0
 10
0.0203190220389138
 20
0.0830504059520749
 30
0.0
 10
0.0237522043711859
 20
0.0799141375968119
 30
0.0
 10
0.02667995036592
 20
0.0767720441479581
 30
0.0
 10
0.0283195165578784
 20
0.0745768217422383
 30
0.0
 10
0.0291031997073094
 20
0.0735275449170305
 30
0.0
  0
SPLINE
  5
C7
330
1F
100
AcDbEntity
  8
0
  6
Continuous
 62
     7
370
    25
100
AcDbSpline
210
0.0
220
0.0
230
1.0
 70
     8
 71
     3
 72
    15
 73
    11
 74
     0
 42
0.000000001
 43
0.00000001
 40
0.0
 40
0.0
 40
0.0
 40
0.0
 40
0.0834251049856353
 40
0.1775598214659708
 40
0.2839823599504455
 40
0.4022167468072136
 40
0.5335684803800571
 40
0.6761209941988217
 40
0.8316493725539867
 40
1.0
 40
1.0
 40
1.0
 40
1.0
 10
-0.0298911913183315
 20
0.1179986987631844
 30
0.0
 10
-0.0293223703346403
 20
0.117299799882253
 30
0.0
 10
-0.0281117065622937
 20
0.1158122817000188
 30
0.0
 10
-0.0258396697782385
 20
0.1137477207416218
 30
0.0
 10
-0.0232666338596451
 20
0.1114661313862524
 30
0.0
 10
-0.0201723525930543
 20
0.1091849287449291
 30
0.0
 10
-0.0166901363156214
 20
0.1067826626587637
 30
0.0
 10
-0.0127444731574957
 20
0.1043539388748625
 30
0.0
 10
-0.0084605799452778
 20
0.1017136228114105
 30
0.0
 10
-0.0053936294726618
 20
0.1000390202725697
 30
0.0
 10
-0.0037994445234598
 20
0.0991685705580562
 30
0.0
  0
SPLINE
  5
C8
330
1F
100
AcDbEntity
  8
0
  6
Continuous
 62
     7
370
    25
100
AcDbSpline
210
0.0
220
0.0
230
1.0
 70
     8
 71
     3
 72
    11
 73
     7
 74
     0
 42
0.000000001
 43
0.00000001
 40
0.0
 40
0.0
 40
0.0
 40
0.0
 40
0.2400399314959811
 40
0.4794031936060936
 40
0.7317567388575619
 40
0.9999999999999999
 40
0.9999999999999999
 40
0.9999999999999999
 40
0.9999999999999999
 10
-0.0361011272157675
 20
0.1345752211990818
 30
0.0
 10
-0.0360217834825287
 20
0.1331315037596789
 30
0.0
 10
-0.0358633196849836
 20
0.1302481387012027
 30
0.0
 10
-0.0346314140270343
 20
0.1259947077125938
 30
0.0
 10
-0.0326695517284855
 20
0.1218477764131105
 30
0.0
 10
-0.0308359664225885
 20
0.1193075688164403
 30
0.0
 10
-0.0298911913183315
 20
0.1179986987631844
 30
0.0
  0
SPLINE
  5
C9
330
1F
100
AcDbEntity
  8
0
  6
Continuous
 62
     7
370
    25
100
AcDbSpline
210
0.0
220
0.0
230
1.0
 70
     8
 71
     3
 72
    15
 73
    11
 74
     0
 42
0.000000001
 43
0.00000001
 40
0.0
 40
0.0
 40
0.0
 40
0.0
 40
0.1249584925460601
 40
0.2459006286062647
 40
0.3691660295860706
 40
0.4985108411773543
 40
0.6285038663666044
 40
0.7510283288509906
 40
0.8737241742784333
 40
1.0
 40
1.0
 40
1.0
 40
1.0
 10
-0.0123631464465367
 20
0.1591645641477998
 30
0.0
 10
-0.0139445314352335
 20
0.1590877875065351
 30
0.0
 10
-0.0170564732878109
 20
0.1589367019423241
 30
0.0
 10
-0.0215154603116435
 20
0.1574285997755543
 30
0.0
 10
-0.0256547906700684
 20
0.1551136898855592
 30
0.0
 10
-0.0292374320990808
 20
0.1518302196316169
 30
0.0
 10
-0.0322722663863168
 20
0.1480613432867553
 30
0.0
 10
-0.034487529316195
 20
0.1438473200806153
 30
0.0
 10
-0.0358422424325866
 20
0.1393153169587355
 30
0.0
 10
-0.0360140090070238
 20
0.1361703271252807
 30
0.0
 10
-0.0361011272157675
 20
0.1345752211990818
 30
0.0
  0
SPLINE
  5
CA
330
1F
100
AcDbEntity
  8
0
  6
Continuous
 62
     7
370
    25
100
AcDbSpline
210
0.0
220
0.0
230
1.0
 70
     8
 71
     3
 72
    15
 73
    11
 74
     0
 42
0.000000001
 43
0.00000001
 40
0.0
 40
0.0
 40
0.0
 40
0.0
 40
0.1582230975563218
 40
0.3050355053581694
 40
0.4413089638879047
 40
0.565963227104724
 40
0.6835251144150594
 40
0.7933341296296007
 40
0.8985175121609992
 40
1.0
 40
1.0
 40
1.0
 40
1.0
 10
0.0191873343226941
 20
0.1399337949170305
 30
0.0
 10
0.0178737269278374
 20
0.1414561625123721
 30
0.0
 10
0.015341246514289
 20
0.1443911080162711
 30
0.0
 10
0.0113247121569727
 20
0.1483151841950915
 30
0.0
 10
0.0073230261873793
 20
0.1516106798338306
 30
0.0
 10
0.0033909680750053
 20
0.154392984041638
 30
0.0
 10
-0.0005703368588684
 20
0.1564964945134826
 30
0.0
 10
-0.0045144024397447
 20
0.1580318417949331
 30
0.0
 10
-0.0084453123336698
 20
0.1589819707706988
 30
0.0
 10
-0.0110728862776214
 20
0.1591044306774195
 30
0.0
 10
-0.0123631464465367
 20
0.1591645641477998
 30
0.0
  0
SPLINE
  5
D8
330
1F
100
AcDbEntity
  8
0
  6
Continuous
 62
     7
370
    25
100
AcDbSpline
210
0.0
220
0.0
230
1.0
 70
     8
 71
     3
 72
    23
 73
    19
 74
     0
 42
0.000000001
 43
0.00000001
 40
0.0
 40
0.0
 40
0.0
 40
0.0
 40
0.0679784896192548
 40
0.1330435352439079
 40
0.1965074380533953
 40
0.258613416768575
 40
0.3197283376065487
 40
0.3808728540495686
 40
0.4426356023162055
 40
0.5050793035048784
 40
0.5678805200585764
 40
0.628813854155489
 40
0.6889100905404413
 40
0.7487650058898476
 40
0.8093857829631179
 40
0.8708843357532268
 40
0.9340374630737025
 40
0.9999999999999999
 40
0.9999999999999999
 40
0.9999999999999999
 40
0.9999999999999999
 10
-0.0585370246516648
 20
0.1336737788913895
 30
0.0
 10
-0.0584988678429213
 20
0.1353613073162785
 30
0.0
 10
-0.0584241895622284
 20
0.1386640395295025
 30
0.0
 10
-0.0578281858782432
 20
0.1435168124082994
 30
0.0
 10
-0.0567430636499561
 20
0.1481273948260602
 30
0.0
 10
-0.0553819977500375
 20
0.1525650278980925
 30
0.0
 10
-0.0534903545754634
 20
0.1567437489007883
 30
0.0
 10
-0.0512299327793954
 20
0.1607192825457996
 30
0.0
 10
-0.0485736881419725
 20
0.1644861338316869
 30
0.0
 10
-0.0455134530813895
 20
0.1679863575522607
 30
0.0
 10
-0.0421486927068504
 20
0.1711655951456306
 30
0.0
 10
-0.0385133520114682
 20
0.1739369257150143
 30
0.0
 10
-0.0346891908271235
 20
0.176301665343331
 30
0.0
 10
-0.0306600180014778
 20
0.1782848910998449
 30
0.0
 10
-0.0263871270754822
 20
0.1797849898566158
 30
0.0
 10
-0.0219003851942885
 20
0.1808176602186496
 30
0.0
 10
-0.0172088741314853
 20
0.1815073175615707
 30
0.0
 10
-0.0140016508485208
 20
0.1815689664398931
 30
0.0
 10
-0.0123631464465367
 20
0.1816004615836972
 30
0.0
  0
SPLINE
  5
D9
330
1F
100
AcDbEntity
  8
0
  6
Continuous
 62
     7
370
    25
100
AcDbSpline
210
0.0
220
0.0
230
1.0
 70
     8
 71
     3
 72
    15
 73
    11
 74
     0
 42
0.000000001
 43
0.00000001
 40
0.0
 40
0.0
 40
0.0
 40
0.0
 40
0.1057142614175179
 40
0.2134116126389965
 40
0.3261267300734711
 40
0.4444516715568697
 40
0.5690610798550866
 40
0.7027122044812173
 40
0.8463179465861964
 40
1.0
 40
1.0
 40
1.0
 40
1.0
 10
-0.0123631464465367
 20
0.1816004615836972
 30
0.0
 10
-0.0104208561989913
 20
0.1815215801053127
 30
0.0
 10
-0.006499840355116
 20
0.1813623374138947
 30
0.0
 10
-0.0006173670659658
 20
0.1800976452278418
 30
0.0
 10
0.0052564430831374
 20
0.178016709220737
 30
0.0
 10
0.0111366823665391
 20
0.1751426925537093
 30
0.0
 10
0.0169802744653572
 20
0.1714236299908386
 30
0.0
 10
0.0228386213707666
 20
0.1669286800359588
 30
0.0
 10
0.0287820521057771
 20
0.1616874147138748
 30
0.0
 10
0.0324932173273047
 20
0.157680327183876
 30
0.0
 10
0.034411693297053
 20
0.1556088750452357
 30
0.0
  0
LINE
  5
DA
330
1F
100
AcDbEntity
  8
0
  6
Continuous
 62
     7
370
    25
100
AcDbLine
 10
-0.5393062554
 20
-0.0042969743
 30
0.0
 11
-0.6803318964
 21
-0.0042969743
 31
0.0
  0
LINE
  5
DB
330
1F
100
AcDbEntity
  8
0
  6
Continuous
 62
     7
370
    25
100
AcDbLine
 10
-0.5393062554
 20
0.0213440513
 30
0.0
 11
-0.5393062554
 21
-0.0042969743
 31
0.0
  0
LINE
  5
DC
330
1F
100
AcDbEntity
  8
0
  6
Continuous
 62
     7
370
    25
100
AcDbLine
 10
-0.657895999
 20
0.0213440513
 30
0.0
 11
-0.5393062554
 21
0.0213440513
 31
0.0
  0
LINE
  5
DD
330
1F
100
AcDbEntity
  8
0
  6
Continuous
 62
     7
370
    25
100
AcDbLine
 10
-0.657895999
 20
0.1174978975
 30
0.0
 11
-0.657895999
 21
0.0213440513
 31
0.0
  0
LINE
  5
DE
330
1F
100
AcDbEntity
  8
0
  6
Continuous
 62
     7
370
    25
100
AcDbLine
 10
-0.5393062554
 20
0.1174978975
 30
0.0
 11
-0.657895999
 21
0.1174978975
 31
0.0
  0
LINE
  5
DF
330
1F
100
AcDbEntity
  8
0
  6
Continuous
 62
     7
370
    25
100
AcDbLine
 10
-0.5393062554
 20
0.1431389231
 30
0.0
 11
-0.5393062554
 21
0.1174978975
 31
0.0
  0
LINE
  5
E0
330
1F
100
AcDbEntity
  8
0
  6
Continuous
 62
     7
370
    25
100
AcDbLine
 10
-0.657895999
 20
0.1431389231
 30
0.0
 11
-0.5393062554
 21
0.1431389231
 31
0.0
  0
LINE
  5
E1
330
1F
100
AcDbEntity
  8
0
  6
Continuous
 62
     7
370
    25
100
AcDbLine
 10
-0.657895999
 20
0.220062
 30
0.0
 11
-0.657895999
 21
0.1431389231
 31
0.0
  0
LINE
  5
E2
330
1F
100
AcDbEntity
  8
0
  6
Continuous
 62
     7
370
    25
100
AcDbLine
 10
-0.5393062554
 20
0.220062
 30
0.0
 11
-0.657895999
 21
0.220062
 31
0.0
  0
LINE
  5
E3
330
1F
100
AcDbEntity
  8
0
  6
Continuous
 62
     7
370
    25
100
AcDbLine
 10
-0.5393062554
 20
0.2457030257
 30
0.0
 11
-0.5393062554
 21
0.220062
 31
0.0
  0
LINE
  5
E4
330
1F
100
AcDbEntity
  8
0
  6
Continuous
 62
     7
370
    25
100
AcDbLine
 10
-0.6803318964
 20
0.2457030257
 30
0.0
 11
-0.5393062554
 21
0.2457030257
 31
0.0
  0
LINE
  5
E5
330
1F
100
AcDbEntity
  8
0
  6
Continuous
 62
     7
370
    25
100
AcDbLine
 10
-0.6803318964
 20
-0.0042969743
 30
0.0
 11
-0.6803318964
 21
0.2457030257
 31
0.0
  0
LINE
  5
E6
330
1F
100
AcDbEntity
  8
0
  6
Continuous
 62
     7
370
    25
100
AcDbLine
 10
-0.2780883067
 20
-0.0042969743
 30
0.0
 11
-0.1964576977
 21
0.1232070321
 31
0.0
  0
LINE
  5
E7
330
1F
100
AcDbEntity
  8
0
  6
Continuous
 62
     7
370
    25
100
AcDbLine
 10
-0.2521968804
 20
-0.0042969743
 30
0.0
 11
-0.2780883067
 21
-0.0042969743
 31
0.0
  0
LINE
  5
E8
330
1F
100
AcDbEntity
  8
0
  6
Continuous
 62
     7
370
    25
100
AcDbLine
 10
-0.1835370247
 20
0.1029746603
 30
0.0
 11
-0.2521968804
 21
-0.0042969743
 31
0.0
  0
LINE
  5
E9
330
1F
100
AcDbEntity
  8
0
  6
Continuous
 62
     7
370
    25
100
AcDbLine
 10
-0.1148771689
 20
-0.0042969743
 30
0.0
 11
-0.1835370247
 21
0.1029746603
 31
0.0
  0
LINE
  5
EA
330
1F
100
AcDbEntity
  8
0
  6
Continuous
 62
     7
370
    25
100
AcDbLine
 10
-0.0889857426
 20
-0.0042969743
 30
0.0
 11
-0.1148771689
 21
-0.0042969743
 31
0.0
  0
LINE
  5
EB
330
1F
100
AcDbEntity
  8
0
  6
Continuous
 62
     7
370
    25
100
AcDbLine
 10
-0.1705662714
 20
0.1232070321
 30
0.0
 11
-0.0889857426
 21
-0.0042969743
 31
0.0
  0
LINE
  5
EC
330
1F
100
AcDbEntity
  8
0
  6
Continuous
 62
     7
370
    25
100
AcDbLine
 10
-0.0921908708
 20
0.2457030257
 30
0.0
 11
-0.1705662714
 21
0.1232070321
 31
0.0
  0
LINE
  5
ED
330
1F
100
AcDbEntity
  8
0
  6
Continuous
 62
     7
370
    25
100
AcDbLine
 10
-0.1180822971
 20
0.2457030257
 30
0.0
 11
-0.0921908708
 21
0.2457030257
 31
0.0
  0
LINE
  5
EE
330
1F
100
AcDbEntity
  8
0
  6
Continuous
 62
     7
370
    25
100
AcDbLine
 10
-0.1835370247
 20
0.1434394039
 30
0.0
 11
-0.1180822971
 21
0.2457030257
 31
0.0
  0
LINE
  5
EF
330
1F
100
AcDbEntity
  8
0
  6
Continuous
 62
     7
370
    25
100
AcDbLine
 10
-0.2489917522
 20
0.2457030257
 30
0.0
 11
-0.1835370247
 21
0.1434394039
 31
0.0
  0
LINE
  5
F0
330
1F
100
AcDbEntity
  8
0
  6
Continuous
 62
     7
370
    25
100
AcDbLine
 10
-0.2748831785
 20
0.2457030257
 30
0.0
 11
-0.2489917522
 21
0.2457030257
 31
0.0
  0
LINE
  5
F1
330
1F
100
AcDbEntity
  8
0
  6
Continuous
 62
     7
370
    25
100
AcDbLine
 10
-0.1964576977
 20
0.1232070321
 30
0.0
 11
-0.2748831785
 21
0.2457030257
 31
0.0
  0
LINE
  5
F2
330
1F
100
AcDbEntity
  8
0
  6
Continuous
 62
     7
370
    25
100
AcDbLine
 10
0.1049245138
 20
-0.0042969743
 30
0.0
 11
0.0824886164
 21
-0.0042969743
 31
0.0
  0
LINE
  5
F3
330
1F
100
AcDbEntity
  8
0
  6
Continuous
 62
     7
370
    25
100
AcDbLine
 10
0.1049245138
 20
0.0725760225
 30
0.0
 11
0.1049245138
 21
-0.0042969743
 31
0.0
  0
LINE
  5
F4
330
1F
100
AcDbEntity
  8
0
  6
Continuous
 62
     7
370
    25
100
AcDbLine
 10
0.2074886164
 20
-0.0042969743
 30
0.0
 11
0.2074886164
 21
0.0886016635
 31
0.0
  0
LINE
  5
F5
330
1F
100
AcDbEntity
  8
0
  6
Continuous
 62
     7
370
    25
100
AcDbLine
 10
0.2299245138
 20
-0.0042969743
 30
0.0
 11
0.2074886164
 21
-0.0042969743
 31
0.0
  0
LINE
  5
F6
330
1F
100
AcDbEntity
  8
0
  6
Continuous
 62
     7
370
    25
100
AcDbLine
 10
0.2299245138
 20
0.0667667276
 30
0.0
 11
0.2299245138
 21
-0.0042969743
 31
0.0
  0
LINE
  5
F7
330
1F
100
AcDbEntity
  8
0
  6
Continuous
 62
     7
370
    25
100
AcDbLine
 10
0.3324886164
 20
-0.0042969743
 30
0.0
 11
0.3324886164
 21
0.0947615193
 31
0.0
  0
LINE
  5
F8
330
1F
100
AcDbEntity
  8
0
  6
Continuous
 62
     7
370
    25
100
AcDbLine
 10
0.3549245138
 20
-0.0042969743
 30
0.0
 11
0.3324886164
 21
-0.0042969743
 31
0.0
  0
LINE
  5
F9
330
1F
100
AcDbEntity
  8
0
  6
Continuous
 62
     7
370
    25
100
AcDbLine
 10
0.3549245138
 20
0.094661359
 30
0.0
 11
0.3549245138
 21
-0.0042969743
 31
0.0
  0
LINE
  5
FA
330
1F
100
AcDbEntity
  8
0
  6
Continuous
 62
     7
370
    25
100
AcDbLine
 10
0.1049245138
 20
0.1783953334
 30
0.0
 11
0.1049245138
 21
0.1466445321
 31
0.0
  0
LINE
  5
FB
330
1F
100
AcDbEntity
  8
0
  6
Continuous
 62
     7
370
    25
100
AcDbLine
 10
0.0824886164
 20
0.1783953334
 30
0.0
 11
0.1049245138
 21
0.1783953334
 31
0.0
  0
LINE
  5
FC
330
1F
100
AcDbEntity
  8
0
  6
Continuous
 62
     7
370
    25
100
AcDbLine
 10
0.0824886164
 20
-0.0042969743
 30
0.0
 11
0.0824886164
 21
0.1783953334
 31
0.0
  0
LINE
  5
FD
330
1F
100
AcDbEntity
  8
0
  6
Continuous
 62
     7
370
    25
100
AcDbLine
 10
0.6626168215
 20
-0.0042969743
 30
0.0
 11
0.6401809241
 21
-0.0042969743
 31
0.0
  0
LINE
  5
FE
330
1F
100
AcDbEntity
  8
0
  6
Continuous
 62
     7
370
    25
100
AcDbLine
 10
0.6626168215
 20
0.2521132821
 30
0.0
 11
0.6626168215
 21
-0.0042969743
 31
0.0
  0
LINE
  5
FF
330
1F
100
AcDbEntity
  8
0
  6
Continuous
 62
     7
370
    25
100
AcDbLine
 10
0.6401809241
 20
0.2521132821
 30
0.0
 11
0.6626168215
 21
0.2521132821
 31
0.0
  0
LINE
  5
100
330
1F
100
AcDbEntity
  8
0
  6
Continuous
 62
     7
370
    25
100
AcDbLine
 10
0.6401809241
 20
-0.0042969743
 30
0.0
 11
0.6401809241
 21
0.2521132821
 31
0.0
  0
LINE
  5
101
330
1F
100
AcDbEntity
  8
0
  6
Continuous
 62
     7
370
    25
100
AcDbLine
 10
-1.19
 20
-2.195
 30
0.0
 11
1.19
 21
-2.195
 31
0.0
  0
LINE
  5
102
330
1F
100
AcDbEntity
  8
0
  6
Continuous
 62
     7
370
    25
100
AcDbLine
 10
-1.19
 20
2.195
 30
0.0
 11
-1.19
 21
-2.195
 31
0.0
  0
LINE
  5
103
330
1F
100
AcDbEntity
  8
0
  6
Continuous
 62
     7
370
    25
100
AcDbLine
 10
1.19
 20
2.195
 30
0.0
 11
-1.19
 21
2.195
 31
0.0
  0
LINE
  5
104
330
1F
100
AcDbEntity
  8
0
  6
Continuous
 62
     7
370
    25
100
AcDbLine
 10
1.19
 20
-2.195
 30
0.0
 11
1.19
 21
2.195
 31
0.0
  0
LINE
  5
105
330
1F
100
AcDbEntity
  8
0
  6
Continuous
 62
     7
370
    25
100
AcDbLine
 10
0.733129642
 20
-0.0042969743
 30
0.0
 11
0.7106937446
 21
-0.0042969743
 31
0.0
  0
LINE
  5
106
330
1F
100
AcDbEntity
  8
0
  6
Continuous
 62
     7
370
    25
100
AcDbLine
 10
0.733129642
 20
0.2521132821
 30
0.0
 11
0.733129642
 21
-0.0042969743
 31
0.0
  0
LINE
  5
107
330
1F
100
AcDbEntity
  8
0
  6
Continuous
 62
     7
370
    25
100
AcDbLine
 10
0.7106937446
 20
0.2521132821
 30
0.0
 11
0.733129642
 21
0.2521132821
 31
0.0
  0
LINE
  5
108
330
1F
100
AcDbEntity
  8
0
  6
Continuous
 62
     7
370
    25
100
AcDbLine
 10
0.7106937446
 20
-0.0042969743
 30
0.0
 11
0.7106937446
 21
0.2521132821
 31
0.0
  0
LINE
  5
109
330
1F
100
AcDbEntity
  8
0
  6
Continuous
 62
     7
370
    25
100
AcDbLine
 10
0.5696681036
 20
0.1445912468
 30
0.0
 11
0.5696681036
 21
0.1783953334
 31
0.0
  0
LINE
  5
10A
330
1F
100
AcDbEntity
  8
0
  6
Continuous
 62
     7
370
    25
100
AcDbLine
 10
0.5696681036
 20
-0.0042969743
 30
0.0
 11
0.5696681036
 21
0.0273035866
 31
0.0
  0
LINE
  5
10B
330
1F
100
AcDbEntity
  8
0
  6
Continuous
 62
     7
370
    25
100
AcDbLine
 10
0.592104001
 20
-0.0042969743
 30
0.0
 11
0.5696681036
 21
-0.0042969743
 31
0.0
  0
LINE
  5
10C
330
1F
100
AcDbEntity
  8
0
  6
Continuous
 62
     7
370
    25
100
AcDbLine
 10
0.592104001
 20
0.1783953334
 30
0.0
 11
0.592104001
 21
-0.0042969743
 31
0.0
  0
LINE
  5
10D
330
1F
100
AcDbEntity
  8
0
  6
Continuous
 62
     7
370
    25
100
AcDbLine
 10
0.5696681036
 20
0.1783953334
 30
0.0
 11
0.592104001
 21
0.1783953334
 31
0.0
  0
LINE
  5
10E
330
1F
100
AcDbEntity
  8
0
  6
Continuous
 62
     7
370
    25
100
AcDbLine
 10
-0.0681524093
 20
0.0172374808
 30
0.0
 11
-0.0532786112
 21
0.0341645641
 31
0.0
  0
LINE
  5
10F
330
1F
100
AcDbEntity
  8
0
  6
Continuous
 62
     7
370
    25
100
AcDbLine
 10
0.0344116933
 20
0.155608875
 30
0.0
 11
0.0191873343
 21
0.1399337949
 31
0.0
  0
LINE
  5
110
330
1F
100
AcDbEntity
  8
0
  6
Continuous
 62
     7
370
    25
100
AcDbLine
 10
-0.4719985631
 20
-0.0042969743
 30
0.0
 11
-0.4944344605
 21
-0.0042969743
 31
0.0
  0
LINE
  5
111
330
1F
100
AcDbEntity
  8
0
  6
Continuous
 62
     7
370
    25
100
AcDbLine
 10
-0.4719985631
 20
0.1174978975
 30
0.0
 11
-0.4719985631
 21
-0.0042969743
 31
0.0
  0
LINE
  5
112
330
1F
100
AcDbEntity
  8
0
  6
Continuous
 62
     7
370
    25
100
AcDbLine
 10
-0.3437934349
 20
0.1174978975
 30
0.0
 11
-0.4719985631
 21
0.1174978975
 31
0.0
  0
LINE
  5
113
330
1F
100
AcDbEntity
  8
0
  6
Continuous
 62
     7
370
    25
100
AcDbLine
 10
-0.3437934349
 20
-0.0042969743
 30
0.0
 11
-0.3437934349
 21
0.1174978975
 31
0.0
  0
LINE
  5
114
330
1F
100
AcDbEntity
  8
0
  6
Continuous
 62
     7
370
    25
100
AcDbLine
 10
-0.3213575375
 20
-0.0042969743
 30
0.0
 11
-0.3437934349
 21
-0.0042969743
 31
0.0
  0
LINE
  5
115
330
1F
100
AcDbEntity
  8
0
  6
Continuous
 62
     7
370
    25
100
AcDbLine
 10
-0.3213575375
 20
0.2457030257
 30
0.0
 11
-0.3213575375
 21
-0.0042969743
 31
0.0
  0
LINE
  5
116
330
1F
100
AcDbEntity
  8
0
  6
Continuous
 62
     7
370
    25
100
AcDbLine
 10
-0.3437934349
 20
0.2457030257
 30
0.0
 11
-0.3213575375
 21
0.2457030257
 31
0.0
  0
LINE
  5
117
330
1F
100
AcDbEntity
  8
0
  6
Continuous
 62
     7
370
    25
100
AcDbLine
 10
-0.3437934349
 20
0.1431389231
 30
0.0
 11
-0.3437934349
 21
0.2457030257
 31
0.0
  0
LINE
  5
118
330
1F
100
AcDbEntity
  8
0
  6
Continuous
 62
     7
370
    25
100
AcDbLine
 10
-0.4719985631
 20
0.1431389231
 30
0.0
 11
-0.3437934349
 21
0.1431389231
 31
0.0
  0
LINE
  5
119
330
1F
100
AcDbEntity
  8
0
  6
Continuous
 62
     7
370
    25
100
AcDbLine
 10
-0.4719985631
 20
0.2457030257
 30
0.0
 11
-0.4719985631
 21
0.1431389231
 31
0.0
  0
LINE
  5
11A
330
1F
100
AcDbEntity
  8
0
  6
Continuous
 62
     7
370
    25
100
AcDbLine
 10
-0.4944344605
 20
0.2457030257
 30
0.0
 11
-0.4719985631
 21
0.2457030257
 31
0.0
  0
LINE
  5
11B
330
1F
100
AcDbEntity
  8
0
  6
Continuous
 62
     7
370
    25
100
AcDbLine
 10
-0.4944344605
 20
-0.0042969743
 30
0.0
 11
-0.4944344605
 21
0.2457030257
 31
0.0
  0
MTEXT
  5
11D
330
1F
100
AcDbEntity
  8
0
  6
Continuous
 62
     7
100
AcDbMText
 10
-1.19
 20
-2.2351404091
 30
0.0
 40
0.1903
 41
0.0
 71
     1
 72
     1
  1
SOLIDWORKS Educational Product.
  7
SLDTEXTSTYLE0
 73
     1
 44
1.0
  0
MTEXT
  5
11E
330
1F
100
AcDbEntity
  8
0
  6
Continuous
 62
     7
100
AcDbMText
 10
-1.19
 20
-2.5205904091
 30
0.0
 40
0.1903
 41
0.0
 71
     1
 72
     1
  1
For Instructional Use Only.
  7
SLDTEXTSTYLE0
 73
     1
 44
1.0
  0
ENDSEC
  0
SECTION
  2
OBJECTS
  0
DICTIONARY
  5
C
330
0
100
AcDbDictionary
281
     1
  3
ACAD_GROUP
350
D
  3
ACAD_LAYOUT
350
1A
  3
ACAD_MLINESTYLE
350
17
  3
ACAD_PLOTSETTINGS
350
19
  3
ACAD_PLOTSTYLENAME
350
E
  3
ACAD_SCALELIST
350
47
  0
DICTIONARY
  5
D
102
{ACAD_REACTORS
330
C
102
}
330
C
100
AcDbDictionary
281
     1
  0
DICTIONARY
  5
1A
102
{ACAD_REACTORS
330
C
102
}
330
C
100
AcDbDictionary
281
     1
  3
Layout1
350
1E
  3
Layout2
350
26
  3
Model
350
22
  0
DICTIONARY
  5
17
102
{ACAD_REACTORS
330
C
102
}
330
C
100
AcDbDictionary
281
     1
  3
Standard
350
18
  0
DICTIONARY
  5
19
102
{ACAD_REACTORS
330
C
102
}
330
C
100
AcDbDictionary
281
     1
  0
ACDBDICTIONARYWDFLT
  5
E
102
{ACAD_REACTORS
330
C
102
}
330
C
100
AcDbDictionary
281
     1
  3
Normal
350
F
100
AcDbDictionaryWithDefault
340
F
  0
DICTIONARY
  5
47
102
{ACAD_REACTORS
330
C
102
}
330
C
100
AcDbDictionary
281
     1
  3
A0
350
48
  3
A1
350
49
  3
A2
350
4A
  3
A3
350
4B
  3
A4
350
4C
  3
A5
350
4D
  3
A6
350
4E
  3
A7
350
4F
  3
A8
350
50
  3
A9
350
51
  3
B0
350
52
  3
B1
350
53
  3
B2
350
54
  3
B3
350
55
  3
B4
350
56
  3
B5
350
57
  3
B6
350
58
  3
B7
350
59
  3
B8
350
5A
  3
B9
350
5B
  3
C0
350
5C
  3
C1
350
5D
  3
C2
350
5E
  3
C3
350
5F
  3
C4
350
60
  3
C5
350
61
  3
C6
350
62
  3
C7
350
63
  3
C8
350
64
  3
C9
350
65
  3
D0
350
66
  3
D1
350
67
  3
D2
350
68
  0
LAYOUT
  5
1E
102
{ACAD_REACTORS
330
1A
102
}
330
1A
100
AcDbPlotSettings
  1

  2
none_device
  4

  6

 40
0.0
 41
0.0
 42
0.0
 43
0.0
 44
0.0
 45
0.0
 46
0.0
 47
0.0
 48
0.0
 49
0.0
140
0.0
141
0.0
142
1.0
143
1.0
 70
   688
 72
     0
 73
     0
 74
     5
  7

 75
    16
147
1.0
148
0.0
149
0.0
100
AcDbLayout
  1
Layout1
 70
     1
 71
     1
 10
0.0
 20
0.0
 11
12.0
 21
9.0
 12
0.0
 22
0.0
 32
0.0
 14
1.0000000000E+20
 24
1.0000000000E+20
 34
1.0000000000E+20
 15
-1.0000000000E+20
 25
-1.0000000000E+20
 35
-1.0000000000E+20
146
0.0
 13
0.0
 23
0.0
 33
0.0
 16
1.0
 26
0.0
 36
0.0
 17
0.0
 27
1.0
 37
0.0
 76
     0
330
1B
  0
LAYOUT
  5
26
102
{ACAD_REACTORS
330
1A
102
}
330
1A
100
AcDbPlotSettings
  1

  2
none_device
  4

  6

 40
0.0
 41
0.0
 42
0.0
 43
0.0
 44
0.0
 45
0.0
 46
0.0
 47
0.0
 48
0.0
 49
0.0
140
0.0
141
0.0
142
1.0
143
1.0
 70
   688
 72
     0
 73
     0
 74
     5
  7

 75
    16
147
1.0
148
0.0
149
0.0
100
AcDbLayout
  1
Layout2
 70
     1
 71
     2
 10
0.0
 20
0.0
 11
0.0
 21
0.0
 12
0.0
 22
0.0
 32
0.0
 14
0.0
 24
0.0
 34
0.0
 15
0.0
 25
0.0
 35
0.0
146
0.0
 13
0.0
 23
0.0
 33
0.0
 16
1.0
 26
0.0
 36
0.0
 17
0.0
 27
1.0
 37
0.0
 76
     0
330
23
  0
LAYOUT
  5
22
102
{ACAD_REACTORS
330
1A
102
}
330
1A
100
AcDbPlotSettings
  1

  2
none_device
  4
ANSI_A_(11.00_x_8.50_Inches)
  6

 40
6.35
 41
19.05
 42
6.35000508
 43
19.05000254
 44
279.4
 45
215.9
 46
133.34999746
 47
88.89999873
 48
0.0
 49
0.0
140
0.0
141
0.0
142
1.916856492
143
1.0
 70
  1696
 72
     0
 73
     0
 74
     0
  7

 75
     0
147
0.5913241897
148
-39.4088153714
149
0.0
100
AcDbLayout
  1
Model
 70
     1
 71
     0
 10
0.0
 20
0.0
 11
12.0
 21
9.0
 12
0.0
 22
0.0
 32
0.0
 14
-1.19
 24
-2.195
 34
0.0
 15
1.19
 25
2.195
 35
0.0
146
0.0
 13
0.0
 23
0.0
 33
0.0
 16
1.0
 26
0.0
 36
0.0
 17
0.0
 27
1.0
 37
0.0
 76
     0
330
1F
331
29
  0
MLINESTYLE
  5
18
102
{ACAD_REACTORS
330
17
102
}
330
17
100
AcDbMlineStyle
  2
Standard
 70
     0
  3

 62
   256
 51
90.0
 52
90.0
 71
     2
 49
0.5
 62
   256
  6
BYLAYER
 49
-0.5
 62
   256
  6
BYLAYER
  0
ACDBPLACEHOLDER
  5
F
102
{ACAD_REACTORS
330
E
102
}
330
E
  0
SCALE
  5
48
102
{ACAD_REACTORS
330
47
102
}
330
47
100
AcDbScale
 70
     0
300
1:1
140
1.0
141
1.0
290
     1
  0
SCALE
  5
49
102
{ACAD_REACTORS
330
47
102
}
330
47
100
AcDbScale
 70
     0
300
1:2
140
1.0
141
2.0
290
     0
  0
SCALE
  5
4A
102
{ACAD_REACTORS
330
47
102
}
330
47
100
AcDbScale
 70
     0
300
1:4
140
1.0
141
4.0
290
     0
  0
SCALE
  5
4B
102
{ACAD_REACTORS
330
47
102
}
330
47
100
AcDbScale
 70
     0
300
1:5
140
1.0
141
5.0
290
     0
  0
SCALE
  5
4C
102
{ACAD_REACTORS
330
47
102
}
330
47
100
AcDbScale
 70
     0
300
1:8
140
1.0
141
8.0
290
     0
  0
SCALE
  5
4D
102
{ACAD_REACTORS
330
47
102
}
330
47
100
AcDbScale
 70
     0
300
1:10
140
1.0
141
10.0
290
     0
  0
SCALE
  5
4E
102
{ACAD_REACTORS
330
47
102
}
330
47
100
AcDbScale
 70
     0
300
1:16
140
1.0
141
16.0
290
     0
  0
SCALE
  5
4F
102
{ACAD_REACTORS
330
47
102
}
330
47
100
AcDbScale
 70
     0
300
1:20
140
1.0
141
20.0
290
     0
  0
SCALE
  5
50
102
{ACAD_REACTORS
330
47
102
}
330
47
100
AcDbScale
 70
     0
300
1:30
140
1.0
141
30.0
290
     0
  0
SCALE
  5
51
102
{ACAD_REACTORS
330
47
102
}
330
47
100
AcDbScale
 70
     0
300
1:40
140
1.0
141
40.0
290
     0
  0
SCALE
  5
52
102
{ACAD_REACTORS
330
47
102
}
330
47
100
AcDbScale
 70
     0
300
1:50
140
1.0
141
50.0
290
     0
  0
SCALE
  5
53
102
{ACAD_REACTORS
330
47
102
}
330
47
100
AcDbScale
 70
     0
300
1:100
140
1.0
141
100.0
290
     0
  0
SCALE
  5
54
102
{ACAD_REACTORS
330
47
102
}
330
47
100
AcDbScale
 70
     0
300
2:1
140
2.0
141
1.0
290
     0
  0
SCALE
  5
55
102
{ACAD_REACTORS
330
47
102
}
330
47
100
AcDbScale
 70
     0
300
4:1
140
4.0
141
1.0
290
     0
  0
SCALE
  5
56
102
{ACAD_REACTORS
330
47
102
}
330
47
100
AcDbScale
 70
     0
300
8:1
140
8.0
141
1.0
290
     0
  0
SCALE
  5
57
102
{ACAD_REACTORS
330
47
102
}
330
47
100
AcDbScale
 70
     0
300
10:1
140
10.0
141
1.0
290
     0
  0
SCALE
  5
58
102
{ACAD_REACTORS
330
47
102
}
330
47
100
AcDbScale
 70
     0
300
100:1
140
100.0
141
1.0
290
     0
  0
SCALE
  5
59
102
{ACAD_REACTORS
330
47
102
}
330
47
100
AcDbScale
 70
     0
300
1/128" = 1'-0"
140
0.0078125
141
12.0
290
     0
  0
SCALE
  5
5A
102
{ACAD_REACTORS
330
47
102
}
330
47
100
AcDbScale
 70
     0
300
1/64" = 1'-0"
140
0.015625
141
12.0
290
     0
  0
SCALE
  5
5B
102
{ACAD_REACTORS
330
47
102
}
330
47
100
AcDbScale
 70
     0
300
1/32" = 1'-0"
140
0.03125
141
12.0
290
     0
  0
SCALE
  5
5C
102
{ACAD_REACTORS
330
47
102
}
330
47
100
AcDbScale
 70
     0
300
1/16" = 1'-0"
140
0.0625
141
12.0
290
     0
  0
SCALE
  5
5D
102
{ACAD_REACTORS
330
47
102
}
330
47
100
AcDbScale
 70
     0
300
3/32" = 1'-0"
140
0.09375
141
12.0
290
     0
  0
SCALE
  5
5E
102
{ACAD_REACTORS
330
47
102
}
330
47
100
AcDbScale
 70
     0
300
1/8" = 1'-0"
140
0.125
141
12.0
290
     0
  0
SCALE
  5
5F
102
{ACAD_REACTORS
330
47
102
}
330
47
100
AcDbScale
 70
     0
300
3/16" = 1'-0"
140
0.1875
141
12.0
290
     0
  0
SCALE
  5
60
102
{ACAD_REACTORS
330
47
102
}
330
47
100
AcDbScale
 70
     0
300
1/4" = 1'-0"
140
0.25
141
12.0
290
     0
  0
SCALE
  5
61
102
{ACAD_REACTORS
330
47
102
}
330
47
100
AcDbScale
 70
     0
300
3/8" = 1'-0"
140
0.375
141
12.0
290
     0
  0
SCALE
  5
62
102
{ACAD_REACTORS
330
47
102
}
330
47
100
AcDbScale
 70
     0
300
1/2" = 1'-0"
140
0.5
141
12.0
290
     0
  0
SCALE
  5
63
102
{ACAD_REACTORS
330
47
102
}
330
47
100
AcDbScale
 70
     0
300
3/4" = 1'-0"
140
0.75
141
12.0
290
     0
  0
SCALE
  5
64
102
{ACAD_REACTORS
330
47
102
}
330
47
100
AcDbScale
 70
     0
300
1" = 1'-0"
140
1.0
141
12.0
290
     0
  0
SCALE
  5
65
102
{ACAD_REACTORS
330
47
102
}
330
47
100
AcDbScale
 70
     0
300
1-1/2" = 1'-0"
140
1.5
141
12.0
290
     0
  0
SCALE
  5
66
102
{ACAD_REACTORS
330
47
102
}
330
47
100
AcDbScale
 70
     0
300
3" = 1'-0"
140
3.0
141
12.0
290
     0
  0
SCALE
  5
67
102
{ACAD_REACTORS
330
47
102
}
330
47
100
AcDbScale
 70
     0
300
6" = 1'-0"
140
6.0
141
12.0
290
     0
  0
SCALE
  5
68
102
{ACAD_REACTORS
330
47
102
}
330
47
100
AcDbScale
 70
     0
300
1'-0" = 1'-0"
140
12.0
141
12.0
290
     0
  0
ENDSEC
  0
EOF
