  0
SECTION
  2
HEADER
  9
$ACADVER
  1
AC1015
  9
$ACADMAINTVER
 70
     6
  9
$DWGCODEPAGE
  3
ANSI_1252
  9
$INSBASE
 10
0.0
 20
0.0
 30
0.0
  9
$EXTMIN
 10
-1.3125
 20
-2.4175
 30
0.0
  9
$EXTMAX
 10
1.3125
 20
2.4175
 30
0.0
  9
$LIMMIN
 10
0.0
 20
0.0
  9
$LIMMAX
 10
12.0
 20
9.0
  9
$ORTHOMODE
 70
     0
  9
$REGENMODE
 70
     1
  9
$FILLMODE
 70
     1
  9
$QTEXTMODE
 70
     0
  9
$MIRRTEXT
 70
     1
  9
$LTSCALE
 40
1.0
  9
$ATTMODE
 70
     1
  9
$TEXTSIZE
 40
0.125
  9
$TRACEWID
 40
0.05
  9
$TEXTSTYLE
  7
Standard
  9
$CLAYER
  8
0
  9
$CELTYPE
  6
ByLayer
  9
$CECOLOR
 62
   256
  9
$CELTSCALE
 40
1.0
  9
$DISPSILH
 70
     0
  9
$DIMSCALE
 40
1.0
  9
$DIMASZ
 40
0.13
  9
$DIMEXO
 40
0.05
  9
$DIMDLI
 40
0.38
  9
$DIMRND
 40
0.0
  9
$DIMDLE
 40
0.0
  9
$DIMEXE
 40
0.125
  9
$DIMTP
 40
0.0
  9
$DIMTM
 40
0.0
  9
$DIMTXT
 40
0.125
  9
$DIMCEN
 40
0.09
  9
$DIMTSZ
 40
0.0
  9
$DIMTOL
 70
     0
  9
$DIMLIM
 70
     0
  9
$DIMTIH
 70
     1
  9
$DIMTOH
 70
     1
  9
$DIMSE1
 70
     0
  9
$DIMSE2
 70
     0
  9
$DIMTAD
 70
     0
  9
$DIMZIN
 70
     1
  9
$DIMBLK
  1

  9
$DIMASO
 70
     1
  9
$DIMSHO
 70
     1
  9
$DIMPOST
  1

  9
$DIMAPOST
  1

  9
$DIMALT
 70
     0
  9
$DIMALTD
 70
     2
  9
$DIMALTF
 40
25.4
  9
$DIMLFAC
 40
1.0
  9
$DIMTOFL
 70
     0
  9
$DIMTVP
 40
0.0
  9
$DIMTIX
 70
     0
  9
$DIMSOXD
 70
     0
  9
$DIMSAH
 70
     0
  9
$DIMBLK1
  1

  9
$DIMBLK2
  1

  9
$DIMSTYLE
  2
Standard
  9
$DIMCLRD
 70
     0
  9
$DIMCLRE
 70
     0
  9
$DIMCLRT
 70
     0
  9
$DIMTFAC
 40
1.0
  9
$DIMGAP
 40
0.06
  9
$DIMJUST
 70
     0
  9
$DIMSD1
 70
     0
  9
$DIMSD2
 70
     0
  9
$DIMTOLJ
 70
     1
  9
$DIMTZIN
 70
     1
  9
$DIMALTZ
 70
     0
  9
$DIMALTTZ
 70
     0
  9
$DIMUPT
 70
     0
  9
$DIMDEC
 70
     2
  9
$DIMTDEC
 70
     2
  9
$DIMALTU
 70
     2
  9
$DIMALTTD
 70
     2
  9
$DIMTXSTY
  7
Standard
  9
$DIMAUNIT
 70
     0
  9
$DIMADEC
 70
     2
  9
$DIMALTRND
 40
0.0
  9
$DIMAZIN
 70
     0
  9
$DIMDSEP
 70
    46
  9
$DIMATFIT
 70
     3
  9
$DIMFRAC
 70
     0
  9
$DIMLDRBLK
  1

  9
$DIMLUNIT
 70
     2
  9
$DIMLWD
 70
    -2
  9
$DIMLWE
 70
    -2
  9
$DIMTMOVE
 70
     0
  9
$LUNITS
 70
     2
  9
$LUPREC
 70
     2
  9
$SKETCHINC
 40
0.1
  9
$FILLETRAD
 40
0.5
  9
$AUNITS
 70
     0
  9
$AUPREC
 70
     2
  9
$MENU
  1
.
  9
$ELEVATION
 40
0.0
  9
$PELEVATION
 40
0.0
  9
$THICKNESS
 40
0.0
  9
$LIMCHECK
 70
     0
  9
$CHAMFERA
 40
0.0
  9
$CHAMFERB
 40
0.0
  9
$CHAMFERC
 40
0.0
  9
$CHAMFERD
 40
0.0
  9
$SKPOLY
 70
     0
  9
$TDCREATE
 40
2458403.700733252
  9
$TDUCREATE
 40
2458403.867399919
  9
$TDUPDATE
 40
2458403.700759618
  9
$TDUUPDATE
 40
2458403.867426285
  9
$TDINDWG
 40
0.0000000116
  9
$TDUSRTIMER
 40
0.0000000116
  9
$USRTIMER
 70
     1
  9
$ANGBASE
 50
0.0
  9
$ANGDIR
 70
     0
  9
$PDMODE
 70
     0
  9
$PDSIZE
 40
-1.0
  9
$PLINEWID
 40
0.0
  9
$SPLFRAME
 70
     0
  9
$SPLINETYPE
 70
     6
  9
$SPLINESEGS
 70
     8
  9
$HANDSEED
  5
14B
  9
$SURFTAB1
 70
     6
  9
$SURFTAB2
 70
     6
  9
$SURFTYPE
 70
     6
  9
$SURFU
 70
     6
  9
$SURFV
 70
     6
  9
$UCSBASE
  2

  9
$UCSNAME
  2

  9
$UCSORG
 10
0.0
 20
0.0
 30
0.0
  9
$UCSXDIR
 10
1.0
 20
0.0
 30
0.0
  9
$UCSYDIR
 10
0.0
 20
1.0
 30
0.0
  9
$UCSORTHOREF
  2

  9
$UCSORTHOVIEW
 70
     0
  9
$UCSORGTOP
 10
0.0
 20
0.0
 30
0.0
  9
$UCSORGBOTTOM
 10
0.0
 20
0.0
 30
0.0
  9
$UCSORGLEFT
 10
0.0
 20
0.0
 30
0.0
  9
$UCSORGRIGHT
 10
0.0
 20
0.0
 30
0.0
  9
$UCSORGFRONT
 10
0.0
 20
0.0
 30
0.0
  9
$UCSORGBACK
 10
0.0
 20
0.0
 30
0.0
  9
$PUCSBASE
  2

  9
$PUCSNAME
  2

  9
$PUCSORG
 10
0.0
 20
0.0
 30
0.0
  9
$PUCSXDIR
 10
1.0
 20
0.0
 30
0.0
  9
$PUCSYDIR
 10
0.0
 20
1.0
 30
0.0
  9
$PUCSORTHOREF
  2

  9
$PUCSORTHOVIEW
 70
     0
  9
$PUCSORGTOP
 10
0.0
 20
0.0
 30
0.0
  9
$PUCSORGBOTTOM
 10
0.0
 20
0.0
 30
0.0
  9
$PUCSORGLEFT
 10
0.0
 20
0.0
 30
0.0
  9
$PUCSORGRIGHT
 10
0.0
 20
0.0
 30
0.0
  9
$PUCSORGFRONT
 10
0.0
 20
0.0
 30
0.0
  9
$PUCSORGBACK
 10
0.0
 20
0.0
 30
0.0
  9
$USERI1
 70
     0
  9
$USERI2
 70
     0
  9
$USERI3
 70
     0
  9
$USERI4
 70
     0
  9
$USERI5
 70
     0
  9
$USERR1
 40
0.0
  9
$USERR2
 40
0.0
  9
$USERR3
 40
0.0
  9
$USERR4
 40
0.0
  9
$USERR5
 40
0.0
  9
$WORLDVIEW
 70
     1
  9
$SHADEDGE
 70
     3
  9
$SHADEDIF
 70
    70
  9
$TILEMODE
 70
     1
  9
$MAXACTVP
 70
    64
  9
$PINSBASE
 10
0.0
 20
0.0
 30
0.0
  9
$PLIMCHECK
 70
     0
  9
$PEXTMIN
 10
1.0000000000E+20
 20
1.0000000000E+20
 30
1.0000000000E+20
  9
$PEXTMAX
 10
-1.0000000000E+20
 20
-1.0000000000E+20
 30
-1.0000000000E+20
  9
$PLIMMIN
 10
0.0
 20
0.0
  9
$PLIMMAX
 10
12.0
 20
9.0
  9
$UNITMODE
 70
     0
  9
$VISRETAIN
 70
     1
  9
$PLINEGEN
 70
     0
  9
$PSLTSCALE
 70
     1
  9
$TREEDEPTH
 70
  3020
  9
$CMLSTYLE
  2
Standard
  9
$CMLJUST
 70
     0
  9
$CMLSCALE
 40
1.0
  9
$PROXYGRAPHICS
 70
     1
  9
$MEASUREMENT
 70
     0
  9
$CELWEIGHT
370
    -1
  9
$ENDCAPS
280
     0
  9
$JOINSTYLE
280
     0
  9
$LWDISPLAY
290
     1
  9
$INSUNITS
 70
     1
  9
$HYPERLINKBASE
  1

  9
$STYLESHEET
  1

  9
$XEDIT
290
     1
  9
$CEPSNTYPE
380
     0
  9
$PSTYLEMODE
290
     1
  9
$FINGERPRINTGUID
  2
{D586DB57-070D-4E3D-BD14-C524C2B476C9}
  9
$VERSIONGUID
  2
{FAEB1C32-E019-11D5-929B-00C0DF256EC4}
  9
$EXTNAMES
290
     1
  9
$PSVPSCALE
 40
0.0
  9
$OLESTARTUP
290
     0
  0
ENDSEC
  0
SECTION
  2
CLASSES
  0
CLASS
  1
ACDBDICTIONARYWDFLT
  2
AcDbDictionaryWithDefault
  3
ObjectDBX Classes
 90
        0
280
     0
281
     0
  0
CLASS
  1
VISUALSTYLE
  2
AcDbVisualStyle
  3
ObjectDBX Classes
 90
     4095
280
     0
281
     0
  0
CLASS
  1
MATERIAL
  2
AcDbMaterial
  3
ObjectDBX Classes
 90
     1153
280
     0
281
     0
  0
CLASS
  1
SCALE
  2
AcDbScale
  3
ObjectDBX Classes
 90
     1153
280
     0
281
     0
  0
CLASS
  1
TABLESTYLE
  2
AcDbTableStyle
  3
ObjectDBX Classes
 90
     4095
280
     0
281
     0
  0
CLASS
  1
MLEADERSTYLE
  2
AcDbMLeaderStyle
  3
ACDB_MLEADERSTYLE_CLASS
 90
     4095
280
     0
281
     0
  0
CLASS
  1
SUN
  2
AcDbSun
  3
SCENEOE
 90
     1153
280
     0
281
     0
  0
CLASS
  1
ACDBPLACEHOLDER
  2
AcDbPlaceHolder
  3
ObjectDBX Classes
 90
        0
280
     0
281
     0
  0
CLASS
  1
LAYOUT
  2
AcDbLayout
  3
ObjectDBX Classes
 90
        0
280
     0
281
     0
  0
ENDSEC
  0
SECTION
  2
TABLES
  0
TABLE
  2
VPORT
  5
8
330
0
100
AcDbSymbolTable
 70
     1
  0
VPORT
  5
29
330
8
100
AcDbSymbolTableRecord
100
AcDbViewportTableRecord
  2
*Active
 70
     0
 10
0.0
 20
0.0
 11
1.0
 21
1.0
 12
0.0
 22
0.0
 13
0.0
 23
0.0
 14
0.5
 24
0.5
 15
0.5
 25
0.5
 16
0.0
 26
0.0
 36
1.0
 17
0.0
 27
0.0
 37
0.0
 40
4.9317
 41
0.5429162358
 42
50.0
 43
0.0
 44
0.0
 50
0.0
 51
0.0
 71
     0
 72
   100
 73
     1
 74
     3
 75
     0
 76
     0
 77
     0
 78
     0
281
     0
 65
     1
110
0.0
120
0.0
130
0.0
111
1.0
121
0.0
131
0.0
112
0.0
122
1.0
132
0.0
 79
     0
146
0.0
  0
ENDTAB
  0
TABLE
  2
LTYPE
  5
5
330
0
100
AcDbSymbolTable
 70
     6
  0
LTYPE
  5
14
330
5
100
AcDbSymbolTableRecord
100
AcDbLinetypeTableRecord
  2
ByBlock
 70
     0
  3

 72
    65
 73
     0
 40
0.0
  0
LTYPE
  5
15
330
5
100
AcDbSymbolTableRecord
100
AcDbLinetypeTableRecord
  2
ByLayer
 70
     0
  3

 72
    65
 73
     0
 40
0.0
  0
LTYPE
  5
16
330
5
100
AcDbSymbolTableRecord
100
AcDbLinetypeTableRecord
  2
Continuous
 70
     0
  3
Solid line
 72
    65
 73
     0
 40
0.0
  0
LTYPE
  5
6E
330
5
100
AcDbSymbolTableRecord
100
AcDbLinetypeTableRecord
  2
HIDDEN
 70
     0
  3
Hidden __ __ __ __ __ __ __ __ __ __ __ __ __ __
 72
    65
 73
     2
 40
0.075
 49
0.05
 74
     0
 49
-0.025
 74
     0
  0
LTYPE
  5
6F
330
5
100
AcDbSymbolTableRecord
100
AcDbLinetypeTableRecord
  2
PHANTOM
 70
     0
  3
Phantom ______  __  __  ______  __  __  ______
 72
    65
 73
     6
 40
0.5
 49
0.25
 74
     0
 49
-0.05
 74
     0
 49
0.05
 74
     0
 49
-0.05
 74
     0
 49
0.05
 74
     0
 49
-0.05
 74
     0
  0
LTYPE
  5
70
330
5
100
AcDbSymbolTableRecord
100
AcDbLinetypeTableRecord
  2
CENTER
 70
     0
  3
Center ____ _ ____ _ ____ _ ____ _ ____ _ ____
 72
    65
 73
     4
 40
0.4
 49
0.25
 74
     0
 49
-0.05
 74
     0
 49
0.05
 74
     0
 49
-0.05
 74
     0
  0
LTYPE
  5
71
330
5
100
AcDbSymbolTableRecord
100
AcDbLinetypeTableRecord
  2
CENTERX2
 70
     0
  3
Center (2x) ________  __  ________  __  _____
 72
    65
 73
     4
 40
0.8
 49
0.5
 74
     0
 49
-0.1
 74
     0
 49
0.1
 74
     0
 49
-0.1
 74
     0
  0
LTYPE
  5
72
330
5
100
AcDbSymbolTableRecord
100
AcDbLinetypeTableRecord
  2
DOT2
 70
     0
  3
Dot (.5x) ........................................
 72
    65
 73
     2
 40
0.025
 49
0.0
 74
     0
 49
-0.025
 74
     0
  0
ENDTAB
  0
TABLE
  2
LAYER
  5
2
330
0
100
AcDbSymbolTable
 70
     1
  0
LAYER
  5
10
330
2
100
AcDbSymbolTableRecord
100
AcDbLayerTableRecord
  2
0
 70
     0
 62
     7
  6
Continuous
370
    -3
390
F
  0
ENDTAB
  0
TABLE
  2
STYLE
  5
3
330
0
100
AcDbSymbolTable
 70
     2
  0
STYLE
  5
11
330
3
100
AcDbSymbolTableRecord
100
AcDbTextStyleTableRecord
  2
Standard
 70
     0
 40
0.0
 41
1.0
 50
0.0
 71
     0
 42
0.125
  3
txt
  4

  0
STYLE
  5
148
330
3
100
AcDbSymbolTableRecord
100
AcDbTextStyleTableRecord
  2
SLDTEXTSTYLE0
 70
     0
 40
0.0
 41
0.7
 50
0.0
 71
     0
 42
0.125
  3
TXT
  4

  0
ENDTAB
  0
TABLE
  2
VIEW
  5
6
330
0
100
AcDbSymbolTable
 70
     0
  0
ENDTAB
  0
TABLE
  2
UCS
  5
7
330
0
100
AcDbSymbolTable
 70
     0
  0
ENDTAB
  0
TABLE
  2
APPID
  5
9
330
0
100
AcDbSymbolTable
 70
     1
  0
APPID
  5
12
330
9
100
AcDbSymbolTableRecord
100
AcDbRegAppTableRecord
  2
ACAD
 70
     0
  0
ENDTAB
  0
TABLE
  2
DIMSTYLE
  5
A
330
0
100
AcDbSymbolTable
 70
     1
100
AcDbDimStyleTable
  0
DIMSTYLE
105
27
330
A
100
AcDbSymbolTableRecord
100
AcDbDimStyleTableRecord
  2
Standard
 70
     0
178
     0
340
11
  0
ENDTAB
  0
TABLE
  2
BLOCK_RECORD
  5
1
330
0
100
AcDbSymbolTable
 70
     1
  0
BLOCK_RECORD
  5
1F
330
1
100
AcDbSymbolTableRecord
100
AcDbBlockTableRecord
  2
*Model_Space
340
22
  0
BLOCK_RECORD
  5
1B
330
1
100
AcDbSymbolTableRecord
100
AcDbBlockTableRecord
  2
*Paper_Space
340
1E
  0
BLOCK_RECORD
  5
23
330
1
100
AcDbSymbolTableRecord
100
AcDbBlockTableRecord
  2
*Paper_Space0
340
26
  0
ENDTAB
  0
ENDSEC
  0
SECTION
  2
BLOCKS
  0
BLOCK
  5
20
330
1F
100
AcDbEntity
  8
0
100
AcDbBlockBegin
  2
*Model_Space
 70
     0
 10
0.0
 20
0.0
 30
0.0
  3
*Model_Space
  1

  0
ENDBLK
  5
21
330
1F
100
AcDbEntity
  8
0
100
AcDbBlockEnd
  0
BLOCK
  5
1C
330
1B
100
AcDbEntity
 67
     1
  8
0
100
AcDbBlockBegin
  2
*Paper_Space
 70
     0
 10
0.0
 20
0.0
 30
0.0
  3
*Paper_Space
  1

  0
ENDBLK
  5
1D
330
1B
100
AcDbEntity
 67
     1
  8
0
100
AcDbBlockEnd
  0
BLOCK
  5
24
330
23
100
AcDbEntity
  8
0
100
AcDbBlockBegin
  2
*Paper_Space0
 70
     0
 10
0.0
 20
0.0
 30
0.0
  3
*Paper_Space0
  1

  0
ENDBLK
  5
25
330
23
100
AcDbEntity
  8
0
100
AcDbBlockEnd
  0
ENDSEC
  0
SECTION
  2
ENTITIES
  0
SPLINE
  5
75
330
1F
100
AcDbEntity
  8
0
  6
Continuous
 62
     7
370
    25
100
AcDbSpline
210
0.0
220
0.0
230
1.0
 70
     8
 71
     3
 72
    15
 73
    11
 74
     0
 42
0.000000001
 43
0.00000001
 40
0.0
 40
0.0
 40
0.0
 40
0.0
 40
0.1325868341022092
 40
0.2622473938845559
 40
0.3884718013410979
 40
0.5137507825547951
 40
0.6357587077740074
 40
0.7577484178707887
 40
0.8786953314398522
 40
1.0
 40
1.0
 40
1.0
 40
1.0
 10
-0.6497007421879039
 20
-0.0088806739684408
 30
0.0
 10
-0.6471279990472676
 20
-0.0088526474870254
 30
0.0
 10
-0.6420392948155478
 20
-0.0087972130861612
 30
0.0
 10
-0.6345354373014048
 20
-0.0080414546164837
 30
0.0
 10
-0.6272152069094158
 20
-0.0069777090051692
 30
0.0
 10
-0.620146390817863
 20
-0.0053598561235645
 30
0.0
 10
-0.6132676914264125
 20
-0.0033485091470432
 30
0.0
 10
-0.6066200528432378
 20
-0.000901887133807
 30
0.0
 10
-0.6001682119291135
 20
0.0019986038361705
 30
0.0
 10
-0.5960658498362413
 20
0.0042932335146116
 30
0.0
 10
-0.5940116396238013
 20
0.0054422426982259
 30
0.0
  0
SPLINE
  5
76
330
1F
100
AcDbEntity
  8
0
  6
Continuous
 62
     7
370
    25
100
AcDbSpline
210
0.0
220
0.0
230
1.0
 70
     8
 71
     3
 72
    23
 73
    19
 74
     0
 42
0.000000001
 43
0.00000001
 40
0.0
 40
0.0
 40
0.0
 40
0.0
 40
0.0639079077057086
 40
0.1257266250228222
 40
0.1861562693658087
 40
0.2461040826832877
 40
0.3061123364554268
 40
0.3668627559233627
 40
0.4290835859354382
 40
0.4932513481089751
 40
0.5578147107893223
 40
0.6207925512431073
 40
0.6827460661082976
 40
0.7445343957783831
 40
0.8065935673314375
 40
0.8693302975165225
 40
0.9337426282431771
 40
1.0
 40
1.0
 40
1.0
 40
1.0
 10
-0.7601274248802116
 20
0.0958869542366875
 30
0.0
 10
-0.7600335994104569
 20
0.0922760320004748
 30
0.0
 10
-0.7598490156855793
 20
0.0851722308860734
 30
0.0
 10
-0.7583188625824777
 20
0.074742624790932
 30
0.0
 10
-0.7557533688471851
 20
0.0647578754930918
 30
0.0
 10
-0.7521641365830681
 20
0.0552036986057738
 30
0.0
 10
-0.7476583477933152
 20
0.0460250256000432
 30
0.0
 10
-0.7420550587113492
 20
0.0373117768277799
 30
0.0
 10
-0.7353781745828017
 20
0.0290971398337417
 30
0.0
 10
-0.7278802847809267
 20
0.0213246913103388
 30
0.0
 10
-0.719632494099551
 20
0.0142831641770196
 30
0.0
 10
-0.7108890360214182
 20
0.0080858514455688
 30
0.0
 10
-0.70172456013878
 20
0.0028279807340923
 30
0.0
 10
-0.6921102884475918
 20
-0.0014157344095206
 30
0.0
 10
-0.6821179149254388
 20
-0.0048235812617154
 30
0.0
 10
-0.6716685600134055
 20
-0.0071307616751136
 30
0.0
 10
-0.6608305314965116
 20
-0.0086600228659032
 30
0.0
 10
-0.6534454308785798
 20
-0.0088064344958553
 30
0.0
 10
-0.6497007421879039
 20
-0.0088806739684408
 30
0.0
  0
SPLINE
  5
77
330
1F
100
AcDbEntity
  8
0
  6
Continuous
 62
     7
370
    25
100
AcDbSpline
210
0.0
220
0.0
230
1.0
 70
     8
 71
     3
 72
    31
 73
    27
 74
     0
 42
0.000000001
 43
0.00000001
 40
0.0
 40
0.0
 40
0.0
 40
0.0
 40
0.0422168938016583
 40
0.08432534699001
 40
0.1258559105936466
 40
0.1673077630956336
 40
0.2088592911446257
 40
0.250687606139549
 40
0.2928477325013346
 40
0.3357450514592588
 40
0.3783592435927322
 40
0.4201865175514312
 40
0.4615742413042144
 40
0.5025272668889493
 40
0.5432232369154772
 40
0.5842591139918686
 40
0.6252227709273664
 40
0.6664840488718746
 40
0.7078180804198864
 40
0.7488762351019672
 40
0.7898749559354324
 40
0.8308609297313316
 40
0.8723789095864912
 40
0.9142009779753626
 40
0.9566031247605726
 40
1.0
 40
1.0
 40
1.0
 40
1.0
 10
-0.6513033062904681
 20
0.2026577875700208
 30
0.0
 10
-0.6536924321225105
 20
0.2026282839736564
 30
0.0
 10
-0.6584645469478289
 20
0.2025693525654725
 30
0.0
 10
-0.6655517002287494
 20
0.2018156048967043
 30
0.0
 10
-0.6725479819965403
 20
0.2007371935808492
 30
0.0
 10
-0.6794226212411285
 20
0.1991726815991429
 30
0.0
 10
-0.6861999635022651
 20
0.1971712464201725
 30
0.0
 10
-0.692858972445797
 20
0.1946928924711184
 30
0.0
 10
-0.6994575582183147
 20
0.1918561555558784
 30
0.0
 10
-0.7058587940788379
 20
0.1884994256240209
 30
0.0
 10
-0.7120514801303885
 20
0.18481445260764
 30
0.0
 10
-0.7179411164173785
 20
0.1808070172621636
 30
0.0
 10
-0.7234469896719903
 20
0.1764371372489066
 30
0.0
 10
-0.728621328374367
 20
0.1717751673090179
 30
0.0
 10
-0.7334512087447361
 20
0.1667851367897464
 30
0.0
 10
-0.7379594351074509
 20
0.1615002391318341
 30
0.0
 10
-0.7420668351176458
 20
0.1558591534220294
 30
0.0
 10
-0.7458299861575475
 20
0.1499628075923652
 30
0.0
 10
-0.749156037572855
 20
0.143804795273582
 30
0.0
 10
-0.7521557139091546
 20
0.1374962217130671
 30
0.0
 10
-0.7545921174157207
 20
0.1309675357426929
 30
0.0
 10
-0.7565923530124724
 20
0.1242709927782055
 30
0.0
 10
-0.758226848274318
 20
0.1174232409314538
 30
0.0
 10
-0.7592803439058057
 20
0.1103845292541159
 30
0.0
 10
-0.7600453772109713
 20
0.1031987977207326
 30
0.0
 10
-0.7600998650850394
 20
0.0983430009546322
 30
0.0
 10
-0.7601274248802116
 20
0.0958869542366875
 30
0.0
  0
SPLINE
  5
79
330
1F
100
AcDbEntity
  8
0
  6
Continuous
 62
     7
370
    25
100
AcDbSpline
210
0.0
220
0.0
230
1.0
 70
     8
 71
     3
 72
    31
 73
    27
 74
     0
 42
0.000000001
 43
0.00000001
 40
0.0
 40
0.0
 40
0.0
 40
0.0
 40
0.0430399286694078
 40
0.0850823542599338
 40
0.1265459763824852
 40
0.1676449120135368
 40
0.2082860955153122
 40
0.2486763011610193
 40
0.2892947325755569
 40
0.3300743209766445
 40
0.3710606404109121
 40
0.4115325030015796
 40
0.4523412262352959
 40
0.493046264211733
 40
0.5342457570078347
 40
0.5761444940038722
 40
0.6184447453397043
 40
0.6618015866715622
 40
0.7051959773844246
 40
0.7479763643669153
 40
0.7903109431511067
 40
0.8323732575992
 40
0.8740507803589337
 40
0.9158074427356552
 40
0.9578498683261814
 40
1.0
 40
1.0
 40
1.0
 40
1.0
 10
-0.5421787069314936
 20
0.0972391176982259
 30
0.0
 10
-0.5422066429686179
 20
0.0996617200341736
 30
0.0
 10
-0.5422618675909792
 20
0.104450777928792
 30
0.0
 10
-0.5430212050474831
 20
0.1115377434129216
 30
0.0
 10
-0.5440954417041368
 20
0.1184681840935046
 30
0.0
 10
-0.5456506071001832
 20
0.1252297170995818
 30
0.0
 10
-0.5476532780266649
 20
0.1318086432897939
 30
0.0
 10
-0.5501267525463482
 20
0.1381960316664413
 30
0.0
 10
-0.5530228389038474
 20
0.1444124884788996
 30
0.0
 10
-0.5563990427974714
 20
0.1504193973331613
 30
0.0
 10
-0.5601210219121261
 20
0.1562080519507647
 30
0.0
 10
-0.5642640413033707
 20
0.1617076598329704
 30
0.0
 10
-0.5687697855734788
 20
0.1668898634347094
 30
0.0
 10
-0.5735890315504226
 20
0.1718400630630464
 30
0.0
 10
-0.5788146942366577
 20
0.1764562168602252
 30
0.0
 10
-0.5844280324490413
 20
0.180736346053611
 30
0.0
 10
-0.5903598771421487
 20
0.1847840285894854
 30
0.0
 10
-0.5966395815857315
 20
0.1884375845862381
 30
0.0
 10
-0.6031108151225496
 20
0.1917964591863077
 30
0.0
 10
-0.6097357120901847
 20
0.1947050367323533
 30
0.0
 10
-0.6164586452868112
 20
0.1971684977014934
 30
0.0
 10
-0.6232692038926894
 20
0.1991660481925682
 30
0.0
 10
-0.6301585749847781
 20
0.2007383748188489
 30
0.0
 10
-0.6371388370376301
 20
0.2018114094515473
 30
0.0
 10
-0.6441919390761868
 20
0.2025699649795104
 30
0.0
 10
-0.6489308297587271
 20
0.2026284884171766
 30
0.0
 10
-0.6513033062904681
 20
0.2026577875700208
 30
0.0
  0
SPLINE
  5
7A
330
1F
100
AcDbEntity
  8
0
  6
Continuous
 62
     7
370
    25
100
AcDbSpline
210
0.0
220
0.0
230
1.0
 70
     8
 71
     3
 72
    15
 73
    11
 74
     0
 42
0.000000001
 43
0.00000001
 40
0.0
 40
0.0
 40
0.0
 40
0.0
 40
0.1315262635769306
 40
0.2587179924131618
 40
0.3827297268112472
 40
0.5050597936177654
 40
0.6263067267417242
 40
0.7481632880963787
 40
0.8726877911473313
 40
1.0
 40
1.0
 40
1.0
 40
1.0
 10
-0.5764335146238013
 20
0.0182126753905336
 30
0.0
 10
-0.5737057517082039
 20
0.020982887751292
 30
0.0
 10
-0.5683401211024987
 20
0.0264320182978642
 30
0.0
 10
-0.5613783208960018
 20
0.0353683040653015
 30
0.0
 10
-0.555390474313135
 20
0.0446573920885873
 30
0.0
 10
-0.550596551258343
 20
0.054422849232631
 30
0.0
 10
-0.5467823318505433
 20
0.0645423287104942
 30
0.0
 10
-0.5441471251834629
 20
0.0750960133351098
 30
0.0
 10
-0.5424971193674397
 20
0.0860358577801803
 30
0.0
 10
-0.5422856247896948
 20
0.0934772402710876
 30
0.0
 10
-0.5421787069314936
 20
0.0972391176982259
 30
0.0
  0
SPLINE
  5
7B
330
1F
100
AcDbEntity
  8
0
  6
Continuous
 62
     7
370
    25
100
AcDbSpline
210
0.0
220
0.0
230
1.0
 70
     8
 71
     3
 72
    19
 73
    15
 74
     0
 42
0.000000001
 43
0.00000001
 40
0.0
 40
0.0
 40
0.0
 40
0.0
 40
0.0848023883688285
 40
0.1686635395998416
 40
0.2525519243727823
 40
0.3382396894642454
 40
0.4231026613931557
 40
0.5055560510576229
 40
0.5861756559890523
 40
0.667135720330361
 40
0.748499180305534
 40
0.830452398758279
 40
0.9134557062010135
 40
1.0
 40
1.0
 40
1.0
 40
1.0
 10
-0.1352275851366219
 20
-0.0088806739684408
 30
0.0
 10
-0.1319814063678955
 20
-0.0087621051165976
 30
0.0
 10
-0.1255250787592203
 20
-0.0085262834301707
 30
0.0
 10
-0.1159937424820766
 20
-0.0067204787663686
 30
0.0
 10
-0.1067441022822291
 20
-0.0037369931699357
 30
0.0
 10
-0.0979021573980608
 20
0.0003986587396347
 30
0.0
 10
-0.0896652908875006
 20
0.0055241841608544
 30
0.0
 10
-0.0822725853434689
 20
0.0115246906630604
 30
0.0
 10
-0.0760214447453641
 20
0.0185034895289178
 30
0.0
 10
-0.0707219726326335
 20
0.0261732361749896
 30
0.0
 10
-0.0665665857255894
 20
0.0345812359221946
 30
0.0
 10
-0.0635397243543705
 20
0.0435336781183312
 30
0.0
 10
-0.0617501596560624
 20
0.0530308744144053
 30
0.0
 10
-0.0615246075387367
 20
0.0595211549114496
 30
0.0
 10
-0.0614094761622628
 20
0.0628340696213028
 30
0.0
  0
SPLINE
  5
7C
330
1F
100
AcDbEntity
  8
0
  6
Continuous
 62
     7
370
    25
100
AcDbSpline
210
0.0
220
0.0
230
1.0
 70
     8
 71
     3
 72
    19
 73
    15
 74
     0
 42
0.000000001
 43
0.00000001
 40
0.0
 40
0.0
 40
0.0
 40
0.0
 40
0.0859205174117674
 40
0.1695934351247435
 40
0.2524755148685383
 40
0.3362444769570508
 40
0.4195045210415725
 40
0.5020359066440891
 40
0.5847746476768714
 40
0.6698464747058013
 40
0.7541848663887862
 40
0.8366582383293271
 40
0.9180097257088053
 40
0.9999999999999999
 40
0.9999999999999999
 40
0.9999999999999999
 40
0.9999999999999999
 10
-0.1350272646238013
 20
0.1353500952623285
 30
0.0
 10
-0.138306860186091
 20
0.1352334068530034
 30
0.0
 10
-0.1447802601839408
 20
0.1350030824930853
 30
0.0
 10
-0.1542834031883999
 20
0.1332049756941876
 30
0.0
 10
-0.1633772184804025
 20
0.1302132189539195
 30
0.0
 10
-0.1720162237853004
 20
0.1261216545847509
 30
0.0
 10
-0.1800639535440574
 20
0.1209767448263898
 30
0.0
 10
-0.1872563586032949
 20
0.1147537888769733
 30
0.0
 10
-0.1936522658430045
 20
0.1076225735802124
 30
0.0
 10
-0.1990314275739166
 20
0.099615279980914
 30
0.0
 10
-0.2034164630681794
 20
0.0910311306188692
 30
0.0
 10
-0.2064998224922321
 20
0.0820579564687924
 30
0.0
 10
-0.2085333401643146
 20
0.0728576009290292
 30
0.0
 10
-0.2087410916329913
 20
0.0666174090877616
 30
0.0
 10
-0.2088453735981603
 20
0.0634851112879695
 30
0.0
  0
SPLINE
  5
7D
330
1F
100
AcDbEntity
  8
0
  6
Continuous
 62
     7
370
    25
100
AcDbSpline
210
0.0
220
0.0
230
1.0
 70
     8
 71
     3
 72
    23
 73
    19
 74
     0
 42
0.000000001
 43
0.00000001
 40
0.0
 40
0.0
 40
0.0
 40
0.0
 40
0.06563379967569
 40
0.1291880880571288
 40
0.1912186831121887
 40
0.2519128178811572
 40
0.3125074743865505
 40
0.373494433775198
 40
0.4351515996540503
 40
0.498741474406649
 40
0.5620952169966307
 40
0.6241865668116561
 40
0.6854757184651948
 40
0.7460968148060529
 40
0.8076116364477847
 40
0.8699665806571902
 40
0.9339510189149068
 40
1.0
 40
1.0
 40
1.0
 40
1.0
 10
-0.0614094761622628
 20
0.0628340696213028
 30
0.0
 10
-0.0614780230459478
 20
0.0653582003718569
 30
0.0
 10
-0.061612945005202
 20
0.0703264884685624
 30
0.0
 10
-0.0626436999716765
 20
0.0776213111522789
 30
0.0
 10
-0.0642833375725282
 20
0.0846022915823018
 30
0.0
 10
-0.0665937782879906
 20
0.0912767693722017
 30
0.0
 10
-0.069628870031959
 20
0.097607841900719
 30
0.0
 10
-0.0732894247381301
 20
0.1036409676300274
 30
0.0
 10
-0.0776398140048152
 20
0.1093447684435758
 30
0.0
 10
-0.0826100065833845
 20
0.1146407020848954
 30
0.0
 10
-0.0880503781937751
 20
0.1194711636748398
 30
0.0
 10
-0.0938071310960665
 20
0.1237828951542513
 30
0.0
 10
-0.0999484701644545
 20
0.1273249503499555
 30
0.0
 10
-0.1063711156585793
 20
0.1302564697426441
 30
0.0
 10
-0.1130862109772976
 20
0.1325892661639015
 30
0.0
 10
-0.1201483981071939
 20
0.1341455300044777
 30
0.0
 10
-0.1274826114591265
 20
0.1352141243641491
 30
0.0
 10
-0.1324859011302917
 20
0.1353042944190995
 30
0.0
 10
-0.1350272646238013
 20
0.1353500952623285
 30
0.0
  0
SPLINE
  5
7E
330
1F
100
AcDbEntity
  8
0
  6
Continuous
 62
     7
370
    25
100
AcDbSpline
210
0.0
220
0.0
230
1.0
 70
     8
 71
     3
 72
    19
 73
    15
 74
     0
 42
0.000000001
 43
0.00000001
 40
0.0
 40
0.0
 40
0.0
 40
0.0
 40
0.0815893489321834
 40
0.1628588951679351
 40
0.2454836892755793
 40
0.3308071391580109
 40
0.416493373776285
 40
0.4998932031606323
 40
0.5830481559950214
 40
0.6671578520621579
 40
0.751311929292914
 40
0.8337847893576152
 40
0.91625648854398
 40
1.0
 40
1.0
 40
1.0
 40
1.0
 10
-0.2088453735981603
 20
0.0634851112879695
 30
0.0
 10
-0.2087121669331767
 20
0.060371532203398
 30
0.0
 10
-0.2084462757283546
 20
0.0541565782128622
 30
0.0
 10
-0.2065355118427844
 20
0.0449436798722649
 30
0.0
 10
-0.2033298065975308
 20
0.0359683911535989
 30
0.0
 10
-0.1989553735455278
 20
0.0273068916164783
 30
0.0
 10
-0.1934777574934775
 20
0.019265170161929
 30
0.0
 10
-0.187128568025461
 20
0.0119980185503885
 30
0.0
 10
-0.1798464050745418
 20
0.005748762245188
 30
0.0
 10
-0.1717801545692503
 20
0.0005175069876529
 30
0.0
 10
-0.163165299540654
 20
-0.003708387362021
 30
0.0
 10
-0.1541057330068784
 20
-0.0066487901839475
 30
0.0
 10
-0.1447717588528432
 20
-0.0085472030853886
 30
0.0
 10
-0.1384251635777053
 20
-0.0087689514308926
 30
0.0
 10
-0.1352275851366219
 20
-0.0088806739684408
 30
0.0
  0
SPLINE
  5
7F
330
1F
100
AcDbEntity
  8
0
  6
Continuous
 62
     7
370
    25
100
AcDbSpline
210
0.0
220
0.0
230
1.0
 70
     8
 71
     3
 72
    19
 73
    15
 74
     0
 42
0.000000001
 43
0.00000001
 40
0.0
 40
0.0
 40
0.0
 40
0.0
 40
0.0848023883688262
 40
0.1686635395998417
 40
0.2525519243727824
 40
0.3382396894642435
 40
0.4231026613931548
 40
0.505556051057622
 40
0.5861756559890523
 40
0.6671357203303611
 40
0.7484991803055336
 40
0.8304523987582789
 40
0.9134557062010132
 40
1.0
 40
1.0
 40
1.0
 40
1.0
 10
0.3134903635813271
 20
-0.0088806739684408
 30
0.0
 10
0.3167365423500533
 20
-0.0087621051165976
 30
0.0
 10
0.3231928699587285
 20
-0.0085262834301707
 30
0.0
 10
0.3327242062358721
 20
-0.0067204787663686
 30
0.0
 10
0.3419738464357197
 20
-0.0037369931699357
 30
0.0
 10
0.3508157913198878
 20
0.0003986587396348
 30
0.0
 10
0.3590526578304483
 20
0.0055241841608543
 30
0.0
 10
0.3664453633744798
 20
0.0115246906630604
 30
0.0
 10
0.3726965039725848
 20
0.0185034895289178
 30
0.0
 10
0.3779959760853154
 20
0.0261732361749896
 30
0.0
 10
0.3821513629923594
 20
0.0345812359221947
 30
0.0
 10
0.3851782243635784
 20
0.0435336781183312
 30
0.0
 10
0.3869677890618863
 20
0.0530308744144053
 30
0.0
 10
0.3871933411792118
 20
0.0595211549114496
 30
0.0
 10
0.3873084725556858
 20
0.0628340696213028
 30
0.0
  0
SPLINE
  5
80
330
1F
100
AcDbEntity
  8
0
  6
Continuous
 62
     7
370
    25
100
AcDbSpline
210
0.0
220
0.0
230
1.0
 70
     8
 71
     3
 72
    19
 73
    15
 74
     0
 42
0.000000001
 43
0.00000001
 40
0.0
 40
0.0
 40
0.0
 40
0.0
 40
0.0859205174117675
 40
0.1695934351247425
 40
0.2524755148685374
 40
0.3362444769570489
 40
0.4195045210415718
 40
0.5020359066440895
 40
0.5847746476768717
 40
0.6698464747058004
 40
0.7541848663887865
 40
0.836658238329327
 40
0.9180097257088053
 40
1.0
 40
1.0
 40
1.0
 40
1.0
 10
0.3136906840941473
 20
0.1353500952623285
 30
0.0
 10
0.3104110885318576
 20
0.1352334068530034
 30
0.0
 10
0.3039376885340079
 20
0.1350030824930853
 30
0.0
 10
0.2944345455295487
 20
0.1332049756941877
 30
0.0
 10
0.2853407302375461
 20
0.1302132189539196
 30
0.0
 10
0.2767017249326486
 20
0.1261216545847508
 30
0.0
 10
0.2686539951738913
 20
0.1209767448263898
 30
0.0
 10
0.2614615901146538
 20
0.1147537888769733
 30
0.0
 10
0.255065682874944
 20
0.1076225735802125
 30
0.0
 10
0.2496865211440324
 20
0.0996152799809138
 30
0.0
 10
0.2453014856497691
 20
0.0910311306188693
 30
0.0
 10
0.2422181262257167
 20
0.0820579564687923
 30
0.0
 10
0.240184608553634
 20
0.0728576009290292
 30
0.0
 10
0.2399768570849574
 20
0.0666174090877616
 30
0.0
 10
0.2398725751197884
 20
0.0634851112879695
 30
0.0
  0
SPLINE
  5
81
330
1F
100
AcDbEntity
  8
0
  6
Continuous
 62
     7
370
    25
100
AcDbSpline
210
0.0
220
0.0
230
1.0
 70
     8
 71
     3
 72
    23
 73
    19
 74
     0
 42
0.000000001
 43
0.00000001
 40
0.0
 40
0.0
 40
0.0
 40
0.0
 40
0.0656337996756898
 40
0.1291880880571288
 40
0.1912186831121888
 40
0.2519128178811568
 40
0.3125074743865501
 40
0.3734944337751975
 40
0.4351515996540496
 40
0.4987414744066483
 40
0.5620952169966308
 40
0.6241865668116542
 40
0.6854757184651951
 40
0.7460968148060508
 40
0.8076116364477838
 40
0.8699665806571891
 40
0.933951018914907
 40
1.0
 40
1.0
 40
1.0
 40
1.0
 10
0.3873084725556858
 20
0.0628340696213028
 30
0.0
 10
0.3872399256720008
 20
0.0653582003718569
 30
0.0
 10
0.387105003712747
 20
0.0703264884685624
 30
0.0
 10
0.3860742487462723
 20
0.0776213111522789
 30
0.0
 10
0.3844346111454203
 20
0.0846022915823017
 30
0.0
 10
0.3821241704299582
 20
0.0912767693722017
 30
0.0
 10
0.3790890786859898
 20
0.097607841900719
 30
0.0
 10
0.3754285239798186
 20
0.1036409676300274
 30
0.0
 10
0.3710781347131335
 20
0.1093447684435758
 30
0.0
 10
0.3661079421345643
 20
0.1146407020848955
 30
0.0
 10
0.3606675705241735
 20
0.1194711636748396
 30
0.0
 10
0.3549108176218824
 20
0.1237828951542515
 30
0.0
 10
0.3487694785534942
 20
0.1273249503499553
 30
0.0
 10
0.3423468330593696
 20
0.1302564697426443
 30
0.0
 10
0.335631737740651
 20
0.1325892661639013
 30
0.0
 10
0.3285695506107549
 20
0.1341455300044778
 30
0.0
 10
0.3212353372588221
 20
0.1352141243641491
 30
0.0
 10
0.3162320475876568
 20
0.1353042944190994
 30
0.0
 10
0.3136906840941473
 20
0.1353500952623285
 30
0.0
  0
SPLINE
  5
82
330
1F
100
AcDbEntity
  8
0
  6
Continuous
 62
     7
370
    25
100
AcDbSpline
210
0.0
220
0.0
230
1.0
 70
     8
 71
     3
 72
    19
 73
    15
 74
     0
 42
0.000000001
 43
0.00000001
 40
0.0
 40
0.0
 40
0.0
 40
0.0
 40
0.0815893489321833
 40
0.1628588951679349
 40
0.245483689275579
 40
0.3308071391580105
 40
0.4164933737762838
 40
0.4998932031606327
 40
0.5830481559950207
 40
0.6671578520621573
 40
0.7513119292929131
 40
0.8337847893576152
 40
0.9162564885439789
 40
1.0
 40
1.0
 40
1.0
 40
1.0
 10
0.2398725751197884
 20
0.0634851112879695
 30
0.0
 10
0.2400057817847719
 20
0.060371532203398
 30
0.0
 10
0.2402716729895941
 20
0.0541565782128622
 30
0.0
 10
0.2421824368751644
 20
0.0449436798722648
 30
0.0
 10
0.2453881421204178
 20
0.0359683911535989
 30
0.0
 10
0.249762575172421
 20
0.0273068916164784
 30
0.0
 10
0.2552401912244711
 20
0.0192651701619289
 30
0.0
 10
0.2615893806924879
 20
0.0119980185503887
 30
0.0
 10
0.268871543643407
 20
0.0057487622451879
 30
0.0
 10
0.2769377941486985
 20
0.0005175069876529
 30
0.0
 10
0.2855526491772947
 20
-0.003708387362021
 30
0.0
 10
0.2946122157110704
 20
-0.0066487901839475
 30
0.0
 10
0.3039461898651056
 20
-0.0085472030853886
 30
0.0
 10
0.3102927851402435
 20
-0.0087689514308926
 30
0.0
 10
0.313490363581327
 20
-0.0088806739684408
 30
0.0
  0
SPLINE
  5
83
330
1F
100
AcDbEntity
  8
0
  6
Continuous
 62
     7
370
    25
100
AcDbSpline
210
0.0
220
0.0
230
1.0
 70
     8
 71
     3
 72
    19
 73
    15
 74
     0
 42
0.000000001
 43
0.00000001
 40
0.0
 40
0.0
 40
0.0
 40
0.0
 40
0.0848023883688262
 40
0.1686635395998395
 40
0.2525519243727802
 40
0.3382396894642435
 40
0.4231026613931548
 40
0.5055560510576221
 40
0.5861756559890525
 40
0.6671357203303598
 40
0.7484991803055335
 40
0.8304523987582788
 40
0.9134557062010132
 40
1.0
 40
1.0
 40
1.0
 40
1.0
 10
0.5506698507608142
 20
-0.0088806739684408
 30
0.0
 10
0.5539160295295406
 20
-0.0087621051165976
 30
0.0
 10
0.5603723571382156
 20
-0.0085262834301707
 30
0.0
 10
0.5699036934153591
 20
-0.0067204787663686
 30
0.0
 10
0.5791533336152068
 20
-0.0037369931699357
 30
0.0
 10
0.5879952784993752
 20
0.0003986587396347
 30
0.0
 10
0.5962321450099354
 20
0.0055241841608543
 30
0.0
 10
0.603624850553967
 20
0.0115246906630604
 30
0.0
 10
0.609875991152072
 20
0.0185034895289177
 30
0.0
 10
0.6151754632648024
 20
0.0261732361749898
 30
0.0
 10
0.6193308501718465
 20
0.0345812359221946
 30
0.0
 10
0.6223577115430654
 20
0.0435336781183312
 30
0.0
 10
0.6241472762413739
 20
0.0530308744144053
 30
0.0
 10
0.6243728283586992
 20
0.0595211549114496
 30
0.0
 10
0.624487959735173
 20
0.0628340696213028
 30
0.0
  0
SPLINE
  5
84
330
1F
100
AcDbEntity
  8
0
  6
Continuous
 62
     7
370
    25
100
AcDbSpline
210
0.0
220
0.0
230
1.0
 70
     8
 71
     3
 72
    23
 73
    19
 74
     0
 42
0.000000001
 43
0.00000001
 40
0.0
 40
0.0
 40
0.0
 40
0.0
 40
0.0656337996756899
 40
0.1291880880571285
 40
0.1912186831121886
 40
0.2519128178811566
 40
0.3125074743865499
 40
0.3734944337751974
 40
0.4351515996540495
 40
0.4987414744066482
 40
0.5620952169966307
 40
0.6241865668116541
 40
0.6854757184651948
 40
0.7460968148060529
 40
0.8076116364477836
 40
0.869966580657189
 40
0.9339510189149068
 40
0.9999999999999999
 40
0.9999999999999999
 40
0.9999999999999999
 40
0.9999999999999999
 10
0.624487959735173
 20
0.0628340696213028
 30
0.0
 10
0.6244194128514879
 20
0.0653582003718569
 30
0.0
 10
0.6242844908922338
 20
0.0703264884685624
 30
0.0
 10
0.6232537359257595
 20
0.0776213111522789
 30
0.0
 10
0.6216140983249078
 20
0.0846022915823017
 30
0.0
 10
0.6193036576094454
 20
0.0912767693722017
 30
0.0
 10
0.6162685658654771
 20
0.097607841900719
 30
0.0
 10
0.6126080111593055
 20
0.1036409676300274
 30
0.0
 10
0.6082576218926208
 20
0.1093447684435758
 30
0.0
 10
0.6032874293140515
 20
0.1146407020848954
 30
0.0
 10
0.5978470577036608
 20
0.1194711636748396
 30
0.0
 10
0.5920903048013695
 20
0.1237828951542515
 30
0.0
 10
0.5859489657329816
 20
0.1273249503499554
 30
0.0
 10
0.5795263202388566
 20
0.1302564697426442
 30
0.0
 10
0.5728112249201383
 20
0.1325892661639015
 30
0.0
 10
0.5657490377902423
 20
0.1341455300044778
 30
0.0
 10
0.5584148244383094
 20
0.1352141243641491
 30
0.0
 10
0.5534115347671441
 20
0.1353042944190994
 30
0.0
 10
0.5508701712736346
 20
0.1353500952623285
 30
0.0
  0
SPLINE
  5
85
330
1F
100
AcDbEntity
  8
0
  6
Continuous
 62
     7
370
    25
100
AcDbSpline
210
0.0
220
0.0
230
1.0
 70
     8
 71
     3
 72
    19
 73
    15
 74
     0
 42
0.000000001
 43
0.00000001
 40
0.0
 40
0.0
 40
0.0
 40
0.0
 40
0.0815893489321832
 40
0.1628588951679349
 40
0.2454836892755791
 40
0.3308071391580105
 40
0.4164933737762838
 40
0.4998932031606312
 40
0.5830481559950209
 40
0.6671578520621574
 40
0.7513119292929131
 40
0.833784789357613
 40
0.9162564885439789
 40
1.0
 40
1.0
 40
1.0
 40
1.0
 10
0.4770520622992758
 20
0.0634851112879695
 30
0.0
 10
0.4771852689642593
 20
0.060371532203398
 30
0.0
 10
0.477451160169081
 20
0.0541565782128621
 30
0.0
 10
0.4793619240546518
 20
0.0449436798722648
 30
0.0
 10
0.4825676292999052
 20
0.0359683911535989
 30
0.0
 10
0.4869420623519083
 20
0.0273068916164783
 30
0.0
 10
0.4924196784039584
 20
0.019265170161929
 30
0.0
 10
0.4987688678719749
 20
0.0119980185503885
 30
0.0
 10
0.5060510308228942
 20
0.005748762245188
 30
0.0
 10
0.5141172813281856
 20
0.0005175069876529
 30
0.0
 10
0.5227321363567821
 20
-0.003708387362021
 30
0.0
 10
0.5317917028905575
 20
-0.0066487901839476
 30
0.0
 10
0.5411256770445927
 20
-0.0085472030853886
 30
0.0
 10
0.5474722723197308
 20
-0.0087689514308926
 30
0.0
 10
0.5506698507608142
 20
-0.0088806739684408
 30
0.0
  0
SPLINE
  5
86
330
1F
100
AcDbEntity
  8
0
  6
Continuous
 62
     7
370
    25
100
AcDbSpline
210
0.0
220
0.0
230
1.0
 70
     8
 71
     3
 72
    19
 73
    15
 74
     0
 42
0.000000001
 43
0.00000001
 40
0.0
 40
0.0
 40
0.0
 40
0.0
 40
0.0859205174117675
 40
0.1695934351247425
 40
0.2524755148685374
 40
0.3362444769570511
 40
0.4195045210415719
 40
0.5020359066440896
 40
0.5847746476768719
 40
0.6698464747058006
 40
0.7541848663887866
 40
0.8366582383293271
 40
0.9180097257088055
 40
1.0
 40
1.0
 40
1.0
 40
1.0
 10
0.5508701712736346
 20
0.1353500952623285
 30
0.0
 10
0.5475905757113448
 20
0.1352334068530034
 30
0.0
 10
0.541117175713495
 20
0.1350030824930853
 30
0.0
 10
0.531614032709036
 20
0.1332049756941876
 30
0.0
 10
0.5225202174170335
 20
0.1302132189539195
 30
0.0
 10
0.5138812121121358
 20
0.1261216545847509
 30
0.0
 10
0.5058334823533784
 20
0.1209767448263897
 30
0.0
 10
0.498641077294141
 20
0.1147537888769733
 30
0.0
 10
0.4922451700544311
 20
0.1076225735802124
 30
0.0
 10
0.4868660083235197
 20
0.0996152799809138
 30
0.0
 10
0.4824809728292565
 20
0.0910311306188693
 30
0.0
 10
0.479397613405204
 20
0.0820579564687923
 30
0.0
 10
0.4773640957331213
 20
0.0728576009290292
 30
0.0
 10
0.4771563442644448
 20
0.0666174090877616
 30
0.0
 10
0.4770520622992758
 20
0.0634851112879695
 30
0.0
  0
SPLINE
  5
87
330
1F
100
AcDbEntity
  8
0
  6
Continuous
 62
     7
370
    25
100
AcDbSpline
210
0.0
220
0.0
230
1.0
 70
     8
 71
     3
 72
    19
 73
    15
 74
     0
 42
0.000000001
 43
0.00000001
 40
0.0
 40
0.0
 40
0.0
 40
0.0
 40
0.0848023883688284
 40
0.1686635395998415
 40
0.2525519243727821
 40
0.3382396894642452
 40
0.4231026613931563
 40
0.5055560510576235
 40
0.586175655989052
 40
0.6671357203303605
 40
0.7484991803055341
 40
0.8304523987582791
 40
0.9134557062010134
 40
1.0
 40
1.0
 40
1.0
 40
1.0
 10
0.8904134405044039
 20
-0.0088806739684408
 30
0.0
 10
0.8936596192731303
 20
-0.0087621051165976
 30
0.0
 10
0.9001159468818052
 20
-0.0085262834301707
 30
0.0
 10
0.9096472831589494
 20
-0.0067204787663686
 30
0.0
 10
0.9188969233587965
 20
-0.0037369931699357
 30
0.0
 10
0.9277388682429646
 20
0.0003986587396347
 30
0.0
 10
0.9359757347535254
 20
0.0055241841608544
 30
0.0
 10
0.9433684402975567
 20
0.0115246906630603
 30
0.0
 10
0.9496195808956615
 20
0.0185034895289179
 30
0.0
 10
0.9549190530083917
 20
0.0261732361749897
 30
0.0
 10
0.9590744399154368
 20
0.0345812359221946
 30
0.0
 10
0.962101301286655
 20
0.0435336781183312
 30
0.0
 10
0.9638908659849631
 20
0.0530308744144053
 30
0.0
 10
0.9641164181022891
 20
0.0595211549114496
 30
0.0
 10
0.964231549478763
 20
0.0628340696213028
 30
0.0
  0
SPLINE
  5
88
330
1F
100
AcDbEntity
  8
0
  6
Continuous
 62
     7
370
    25
100
AcDbSpline
210
0.0
220
0.0
230
1.0
 70
     8
 71
     3
 72
    19
 73
    15
 74
     0
 42
0.000000001
 43
0.00000001
 40
0.0
 40
0.0
 40
0.0
 40
0.0
 40
0.0815893489321835
 40
0.1628588951679354
 40
0.2454836892755797
 40
0.3308071391580113
 40
0.4164933737762848
 40
0.4998932031606323
 40
0.5830481559950222
 40
0.6671578520621588
 40
0.751311929292915
 40
0.833784789357615
 40
0.916256488543981
 40
0.9999999999999999
 40
0.9999999999999999
 40
0.9999999999999999
 40
0.9999999999999999
 10
0.8167956520428653
 20
0.0634851112879695
 30
0.0
 10
0.8169288587078487
 20
0.060371532203398
 30
0.0
 10
0.817194749912671
 20
0.0541565782128621
 30
0.0
 10
0.8191055137982417
 20
0.0449436798722649
 30
0.0
 10
0.8223112190434951
 20
0.0359683911535989
 30
0.0
 10
0.8266856520954979
 20
0.0273068916164783
 30
0.0
 10
0.8321632681475484
 20
0.019265170161929
 30
0.0
 10
0.8385124576155649
 20
0.0119980185503885
 30
0.0
 10
0.8457946205664839
 20
0.005748762245188
 30
0.0
 10
0.8538608710717754
 20
0.0005175069876529
 30
0.0
 10
0.8624757261003715
 20
-0.003708387362021
 30
0.0
 10
0.8715352926341474
 20
-0.0066487901839476
 30
0.0
 10
0.8808692667881823
 20
-0.0085472030853886
 30
0.0
 10
0.8872158620633203
 20
-0.0087689514308926
 30
0.0
 10
0.8904134405044037
 20
-0.0088806739684408
 30
0.0
  0
SPLINE
  5
89
330
1F
100
AcDbEntity
  8
0
  6
Continuous
 62
     7
370
    25
100
AcDbSpline
210
0.0
220
0.0
230
1.0
 70
     8
 71
     3
 72
    23
 73
    19
 74
     0
 42
0.000000001
 43
0.00000001
 40
0.0
 40
0.0
 40
0.0
 40
0.0
 40
0.06563379967569
 40
0.1291880880571286
 40
0.1912186831121887
 40
0.2519128178811567
 40
0.31250747438655
 40
0.3734944337751975
 40
0.4351515996540496
 40
0.4987414744066484
 40
0.5620952169966308
 40
0.6241865668116562
 40
0.685475718465195
 40
0.746096814806053
 40
0.8076116364477837
 40
0.8699665806571891
 40
0.933951018914907
 40
1.0
 40
1.0
 40
1.0
 40
1.0
 10
0.9642315494787628
 20
0.0628340696213028
 30
0.0
 10
0.9641630025950776
 20
0.0653582003718569
 30
0.0
 10
0.9640280806358233
 20
0.0703264884685624
 30
0.0
 10
0.9629973256693495
 20
0.0776213111522789
 30
0.0
 10
0.9613576880684972
 20
0.0846022915823017
 30
0.0
 10
0.9590472473530355
 20
0.0912767693722017
 30
0.0
 10
0.9560121556090668
 20
0.097607841900719
 30
0.0
 10
0.9523516009028956
 20
0.1036409676300274
 30
0.0
 10
0.9480012116362104
 20
0.1093447684435758
 30
0.0
 10
0.9430310190576413
 20
0.1146407020848954
 30
0.0
 10
0.9375906474472506
 20
0.1194711636748398
 30
0.0
 10
0.9318338945449589
 20
0.1237828951542513
 30
0.0
 10
0.9256925554765711
 20
0.1273249503499555
 30
0.0
 10
0.9192699099824465
 20
0.1302564697426442
 30
0.0
 10
0.9125548146637279
 20
0.1325892661639014
 30
0.0
 10
0.9054926275338322
 20
0.1341455300044778
 30
0.0
 10
0.8981584141818991
 20
0.1352141243641491
 30
0.0
 10
0.893155124510734
 20
0.1353042944190994
 30
0.0
 10
0.8906137610172243
 20
0.1353500952623285
 30
0.0
  0
SPLINE
  5
8A
330
1F
100
AcDbEntity
  8
0
  6
Continuous
 62
     7
370
    25
100
AcDbSpline
210
0.0
220
0.0
230
1.0
 70
     8
 71
     3
 72
    19
 73
    15
 74
     0
 42
0.000000001
 43
0.00000001
 40
0.0
 40
0.0
 40
0.0
 40
0.0
 40
0.0859205174117675
 40
0.1695934351247424
 40
0.2524755148685373
 40
0.3362444769570509
 40
0.4195045210415717
 40
0.5020359066440894
 40
0.5847746476768716
 40
0.6698464747058016
 40
0.7541848663887866
 40
0.836658238329327
 40
0.9180097257088053
 40
1.0
 40
1.0
 40
1.0
 40
1.0
 10
0.8906137610172243
 20
0.1353500952623285
 30
0.0
 10
0.8873341654549346
 20
0.1352334068530033
 30
0.0
 10
0.8808607654570852
 20
0.1350030824930853
 30
0.0
 10
0.8713576224526255
 20
0.1332049756941877
 30
0.0
 10
0.8622638071606233
 20
0.1302132189539195
 30
0.0
 10
0.853624801855725
 20
0.1261216545847509
 30
0.0
 10
0.8455770720969685
 20
0.1209767448263897
 30
0.0
 10
0.8383846670377305
 20
0.1147537888769733
 30
0.0
 10
0.8319887597980211
 20
0.1076225735802124
 30
0.0
 10
0.8266095980671091
 20
0.0996152799809139
 30
0.0
 10
0.8222245625728463
 20
0.0910311306188692
 30
0.0
 10
0.8191412031487937
 20
0.0820579564687923
 30
0.0
 10
0.8171076854767109
 20
0.0728576009290292
 30
0.0
 10
0.8168999340080343
 20
0.0666174090877616
 30
0.0
 10
0.8167956520428654
 20
0.0634851112879695
 30
0.0
  0
SPLINE
  5
97
330
1F
100
AcDbEntity
  8
0
  6
Continuous
 62
     7
370
    25
100
AcDbSpline
210
0.0
220
0.0
230
1.0
 70
     8
 71
     3
 72
    11
 73
     7
 74
     0
 42
0.000000001
 43
0.00000001
 40
0.0
 40
0.0
 40
0.0
 40
0.0
 40
0.2462523706929819
 40
0.492590796476374
 40
0.7405699911180893
 40
1.0
 40
1.0
 40
1.0
 40
1.0
 10
-0.4729178896238013
 20
0.0817142779546362
 30
0.0
 10
-0.4742129324563949
 20
0.0837961076000424
 30
0.0
 10
-0.4768034706858671
 20
0.0879604944048189
 30
0.0
 10
-0.4793188414843034
 20
0.0949112427428252
 30
0.0
 10
-0.4810478435469552
 20
0.1022287468377762
 30
0.0
 10
-0.4812022999876211
 20
0.107277807862496
 30
0.0
 10
-0.4812812710340578
 20
0.1098593100059182
 30
0.0
  0
SPLINE
  5
98
330
1F
100
AcDbEntity
  8
0
  6
Continuous
 62
     7
370
    25
100
AcDbSpline
210
0.0
220
0.0
230
1.0
 70
     8
 71
     3
 72
    15
 73
    11
 74
     0
 42
0.000000001
 43
0.00000001
 40
0.0
 40
0.0
 40
0.0
 40
0.0
 40
0.1577616635135483
 40
0.3059502132085398
 40
0.4437754990007255
 40
0.5728243624015389
 40
0.692154156443243
 40
0.802295706990847
 40
0.9055643918329938
 40
1.0
 40
1.0
 40
1.0
 40
1.0
 10
-0.4414174889827758
 20
0.0567743741084823
 30
0.0
 10
-0.4432779632713052
 20
0.0578128835130736
 30
0.0
 10
-0.4468860166637931
 20
0.0598268846758244
 30
0.0
 10
-0.4519965374449251
 20
0.0629637475514195
 30
0.0
 10
-0.4566070627462647
 20
0.0661542671714324
 30
0.0
 10
-0.4608285323578887
 20
0.0692194699749877
 30
0.0
 10
-0.4645543184777067
 20
0.07232096597124
 30
0.0
 10
-0.4677697433566325
 20
0.0754621982189149
 30
0.0
 10
-0.4706014016303146
 20
0.0785164829388654
 30
0.0
 10
-0.47216907389683
 20
0.0806805755542042
 30
0.0
 10
-0.4729178896238013
 20
0.0817142779546362
 30
0.0
  0
SPLINE
  5
99
330
1F
100
AcDbEntity
  8
0
  6
Continuous
 62
     7
370
    25
100
AcDbSpline
210
0.0
220
0.0
230
1.0
 70
     8
 71
     3
 72
    15
 73
    11
 74
     0
 42
0.000000001
 43
0.00000001
 40
0.0
 40
0.0
 40
0.0
 40
0.0
 40
0.076875074035047
 40
0.1674616757257258
 40
0.272270023246641
 40
0.3895508405125225
 40
0.5208013683480555
 40
0.6662632933752257
 40
0.8255449152058609
 40
1.0
 40
1.0
 40
1.0
 40
1.0
 10
-0.4137231780853399
 20
0.0379442459033541
 30
0.0
 10
-0.4142962062587247
 20
0.0385896289141943
 30
0.0
 10
-0.4155444685772668
 20
0.0399955062006467
 30
0.0
 10
-0.4178341286676642
 20
0.0420258689764769
 30
0.0
 10
-0.4205756902534312
 20
0.044214304630284
 30
0.0
 10
-0.4237999876057348
 20
0.0465237038401939
 30
0.0
 10
-0.4275135206012754
 20
0.0489236042182045
 30
0.0
 10
-0.4317313402719771
 20
0.0514014150931709
 30
0.0
 10
-0.4363956654540063
 20
0.0540748240780596
 30
0.0
 10
-0.4396935676910002
 20
0.0558476566025807
 30
0.0
 10
-0.4414174889827757
 20
0.0567743741084823
 30
0.0
  0
SPLINE
  5
9A
330
1F
100
AcDbEntity
  8
0
  6
Continuous
 62
     7
370
    25
100
AcDbSpline
210
0.0
220
0.0
230
1.0
 70
     8
 71
     3
 72
    11
 73
     7
 74
     0
 42
0.000000001
 43
0.00000001
 40
0.0
 40
0.0
 40
0.0
 40
0.0
 40
0.2534754346498641
 40
0.5004533151029024
 40
0.7455781350009818
 40
0.9999999999999999
 40
0.9999999999999999
 40
0.9999999999999999
 40
0.9999999999999999
 10
-0.407563322316109
 20
0.0205163612879695
 30
0.0
 10
-0.4076409147688808
 20
0.0221099054781183
 30
0.0
 10
-0.4077941106802332
 20
0.0252561451672802
 30
0.0
 10
-0.4089972015376986
 20
0.0298097409561463
 30
0.0
 10
-0.4108981195562559
 20
0.0341289752906019
 30
0.0
 10
-0.4127698801529526
 20
0.0366568072364414
 30
0.0
 10
-0.4137231780853398
 20
0.0379442459033541
 30
0.0
  0
SPLINE
  5
9B
330
1F
100
AcDbEntity
  8
0
  6
Continuous
 62
     7
370
    25
100
AcDbSpline
210
0.0
220
0.0
230
1.0
 70
     8
 71
     3
 72
    15
 73
    11
 74
     0
 42
0.000000001
 43
0.00000001
 40
0.0
 40
0.0
 40
0.0
 40
0.0
 40
0.1340420464623702
 40
0.2618956736507316
 40
0.387836044691119
 40
0.5176862058208263
 40
0.6445086536782133
 40
0.7647182630567263
 40
0.8802907821585002
 40
1.0
 40
1.0
 40
1.0
 40
1.0
 10
-0.4398149248802116
 20
-0.0088806739684408
 30
0.0
 10
-0.4376493587403514
 20
-0.0087827579069979
 30
0.0
 10
-0.4334182057700547
 20
-0.0085914463480535
 30
0.0
 10
-0.4273579372976267
 20
-0.0068545112030662
 30
0.0
 10
-0.4217623211225934
 20
-0.0041309432155624
 30
0.0
 10
-0.4169035107283885
 20
-0.0002677504898393
 30
0.0
 10
-0.4127676420807051
 20
0.0042290761244229
 30
0.0
 10
-0.409772772480154
 20
0.0092943703601623
 30
0.0
 10
-0.4078959028043762
 20
0.0147794744093926
 30
0.0
 10
-0.4076754743289511
 20
0.0185817817393273
 30
0.0
 10
-0.4075633223161091
 20
0.0205163612879695
 30
0.0
  0
SPLINE
  5
9C
330
1F
100
AcDbEntity
  8
0
  6
Continuous
 62
     7
370
    25
100
AcDbSpline
210
0.0
220
0.0
230
1.0
 70
     8
 71
     3
 72
    15
 73
    11
 74
     0
 42
0.000000001
 43
0.00000001
 40
0.0
 40
0.0
 40
0.0
 40
0.0
 40
0.147475817748359
 40
0.2859041715443769
 40
0.4171716482444371
 40
0.5405007435864946
 40
0.6592377183802365
 40
0.7750060983159544
 40
0.8872285734286346
 40
1.0
 40
1.0
 40
1.0
 40
1.0
 10
-0.4760228575725192
 20
0.0103500952623285
 30
0.0
 10
-0.474610542359916
 20
0.0088247549389139
 30
0.0
 10
-0.4718725557734791
 20
0.0058676520853925
 30
0.0
 10
-0.4674938974308152
 20
0.001930199180289
 30
0.0
 10
-0.4630382259234556
 20
-0.0013698916148548
 30
0.0
 10
-0.4585500340252906
 20
-0.0041301355285681
 30
0.0
 10
-0.4539628844307523
 20
-0.0062569500398215
 30
0.0
 10
-0.4493024834140624
 20
-0.0077511353190799
 30
0.0
 10
-0.4445783102668173
 20
-0.0087114347637489
 30
0.0
 10
-0.441405300565399
 20
-0.0088241692151451
 30
0.0
 10
-0.4398149248802116
 20
-0.0088806739684408
 30
0.0
  0
SPLINE
  5
9E
330
1F
100
AcDbEntity
  8
0
  6
Continuous
 62
     7
370
    25
100
AcDbSpline
210
0.0
220
0.0
230
1.0
 70
     8
 71
     3
 72
    15
 73
    11
 74
     0
 42
0.000000001
 43
0.00000001
 40
0.0
 40
0.0
 40
0.0
 40
0.0
 40
0.126742518961846
 40
0.2517239612496066
 40
0.3772186880262432
 40
0.5046935492516292
 40
0.631458238593486
 40
0.7554010672029515
 40
0.8777005336014755
 40
1.0
 40
1.0
 40
1.0
 40
1.0
 10
-0.4386630819314936
 20
-0.0313165714043382
 30
0.0
 10
-0.4411893087484915
 20
-0.0312456642382273
 30
0.0
 10
-0.4462066606726798
 20
-0.0311048351551333
 30
0.0
 10
-0.4536273548975895
 20
-0.0297829736434376
 30
0.0
 10
-0.4608788376593513
 20
-0.0277261597886112
 30
0.0
 10
-0.4679062333955205
 20
-0.0248893073487457
 30
0.0
 10
-0.474552384387595
 20
-0.0213071135732259
 30
0.0
 10
-0.4806331647162311
 20
-0.0170169426027792
 30
0.0
 10
-0.4861696977491408
 20
-0.0121605142167878
 30
0.0
 10
-0.4893210030160084
 20
-0.0084381634529325
 30
0.0
 10
-0.4908966556494423
 20
-0.0065769880710049
 30
0.0
  0
SPLINE
  5
9F
330
1F
100
AcDbEntity
  8
0
  6
Continuous
 62
     7
370
    25
100
AcDbSpline
210
0.0
220
0.0
230
1.0
 70
     8
 71
     3
 72
    23
 73
    19
 74
     0
 42
0.000000001
 43
0.00000001
 40
0.0
 40
0.0
 40
0.0
 40
0.0
 40
0.0645481255642506
 40
0.1271991327555119
 40
0.1885973380874247
 40
0.2486395150940132
 40
0.3095246994640575
 40
0.370036991053349
 40
0.4318892436070741
 40
0.4957042857252938
 40
0.5595193278435133
 40
0.6213715803972383
 40
0.6823971072916408
 40
0.7435684819321652
 40
0.8054984835712146
 40
0.8686397008205241
 40
0.9330662250811649
 40
1.0
 40
1.0
 40
1.0
 40
1.0
 10
-0.3851274248802116
 20
0.0214678837238669
 30
0.0
 10
-0.3851788201527423
 20
0.01966294470638
 30
0.0
 10
-0.3852801001517582
 20
0.0161061151982575
 30
0.0
 10
-0.3859842477901741
 20
0.0108679130767557
 30
0.0
 10
-0.3871953175275447
 20
0.0058583018241566
 30
0.0
 10
-0.3888448713816179
 20
0.0010229243454745
 30
0.0
 10
-0.3910723265890319
 20
-0.0035455713414854
 30
0.0
 10
-0.3936828835284131
 20
-0.0079624462691751
 30
0.0
 10
-0.3968168057952578
 20
-0.012132155611273
 30
0.0
 10
-0.400394761196456
 20
-0.0160492241954084
 30
0.0
 10
-0.4043122964806717
 20
-0.0196267775825755
 30
0.0
 10
-0.4084913063630646
 20
-0.0227713457158741
 30
0.0
 10
-0.412936937120912
 20
-0.0253837983729524
 30
0.0
 10
-0.4176174229367977
 20
-0.0275456087474464
 30
0.0
 10
-0.4225433982276927
 20
-0.0292647700293301
 30
0.0
 10
-0.4277156331767309
 20
-0.0304549508331718
 30
0.0
 10
-0.4331176870747039
 20
-0.0311672909113279
 30
0.0
 10
-0.4367912447983455
 20
-0.031266182067368
 30
0.0
 10
-0.4386630819314936
 20
-0.0313165714043382
 30
0.0
  0
SPLINE
  5
A0
330
1F
100
AcDbEntity
  8
0
  6
Continuous
 62
     7
370
    25
100
AcDbSpline
210
0.0
220
0.0
230
1.0
 70
     8
 71
     3
 72
    11
 73
     7
 74
     0
 42
0.000000001
 43
0.00000001
 40
0.0
 40
0.0
 40
0.0
 40
0.0
 40
0.2488386141270709
 40
0.4952350254576691
 40
0.7433356038750064
 40
1.0
 40
1.0
 40
1.0
 40
1.0
 10
-0.3936410466750834
 20
0.0497130760315593
 30
0.0
 10
-0.39234029471708
 20
0.0475940697422372
 30
0.0
 10
-0.3897515569068501
 20
0.0433768539483031
 30
0.0
 10
-0.3870331093028523
 20
0.0364326805595299
 30
0.0
 10
-0.3854573753855097
 20
0.0290676446711581
 30
0.0
 10
-0.3852386453695384
 20
0.0240296289485373
 30
0.0
 10
-0.3851274248802116
 20
0.0214678837238669
 30
0.0
  0
SPLINE
  5
A1
330
1F
100
AcDbEntity
  8
0
  6
Continuous
 62
     7
370
    25
100
AcDbSpline
210
0.0
220
0.0
230
1.0
 70
     8
 71
     3
 72
    15
 73
    11
 74
     0
 42
0.000000001
 43
0.00000001
 40
0.0
 40
0.0
 40
0.0
 40
0.0
 40
0.1589891012267963
 40
0.3071145916055723
 40
0.4462131585962153
 40
0.5748760724117288
 40
0.6941521095829561
 40
0.8045811801532377
 40
0.9065933190457636
 40
1.0
 40
1.0
 40
1.0
 40
1.0
 10
-0.4265436909058526
 20
0.0753541016725849
 30
0.0
 10
-0.424599863970346
 20
0.0742651800430043
 30
0.0
 10
-0.4208450303946886
 20
0.0721617420149973
 30
0.0
 10
-0.4155098327335822
 20
0.0688967631928855
 30
0.0
 10
-0.4106679012356597
 20
0.065651661459062
 30
0.0
 10
-0.4062782106893261
 20
0.0624611418963749
 30
0.0
 10
-0.4024252243434789
 20
0.0592359370666036
 30
0.0
 10
-0.3989920420112069
 20
0.0560996687113406
 30
0.0
 10
-0.3960642960164727
 20
0.0529575752624867
 30
0.0
 10
-0.3944247298245144
 20
0.050762352856767
 30
0.0
 10
-0.3936410466750834
 20
0.0497130760315592
 30
0.0
  0
SPLINE
  5
A2
330
1F
100
AcDbEntity
  8
0
  6
Continuous
 62
     7
370
    25
100
AcDbSpline
210
0.0
220
0.0
230
1.0
 70
     8
 71
     3
 72
    15
 73
    11
 74
     0
 42
0.000000001
 43
0.00000001
 40
0.0
 40
0.0
 40
0.0
 40
0.0
 40
0.083425104985634
 40
0.1775598214659709
 40
0.2839823599504457
 40
0.4022167468072154
 40
0.5335684803800573
 40
0.6761209941988201
 40
0.8316493725539887
 40
1.0
 40
1.0
 40
1.0
 40
1.0
 10
-0.4526354377007244
 20
0.0941842298777131
 30
0.0
 10
-0.4520666167170332
 20
0.0934853309967818
 30
0.0
 10
-0.4508559529446866
 20
0.0919978128145475
 30
0.0
 10
-0.4485839161606314
 20
0.0899332518561505
 30
0.0
 10
-0.4460108802420381
 20
0.0876516625007812
 30
0.0
 10
-0.4429165989754472
 20
0.0853704598594579
 30
0.0
 10
-0.4394343826980142
 20
0.0829681937732924
 30
0.0
 10
-0.4354887195398885
 20
0.0805394699893911
 30
0.0
 10
-0.4312048263276706
 20
0.0778991539259393
 30
0.0
 10
-0.4281378758550546
 20
0.0762245513870984
 30
0.0
 10
-0.4265436909058526
 20
0.0753541016725849
 30
0.0
  0
SPLINE
  5
A3
330
1F
100
AcDbEntity
  8
0
  6
Continuous
 62
     7
370
    25
100
AcDbSpline
210
0.0
220
0.0
230
1.0
 70
     8
 71
     3
 72
    11
 73
     7
 74
     0
 42
0.000000001
 43
0.00000001
 40
0.0
 40
0.0
 40
0.0
 40
0.0
 40
0.2400399314959807
 40
0.4794031936060922
 40
0.731756738857562
 40
0.9999999999999999
 40
0.9999999999999999
 40
0.9999999999999999
 40
0.9999999999999999
 10
-0.4588453735981602
 20
0.1107607523136105
 30
0.0
 10
-0.4587660298649214
 20
0.1093170348742077
 30
0.0
 10
-0.4586075660673766
 20
0.1064336698157314
 30
0.0
 10
-0.4573756604094273
 20
0.1021802388271225
 30
0.0
 10
-0.4554137981108784
 20
0.0980333075276392
 30
0.0
 10
-0.4535802128049813
 20
0.095493099930969
 30
0.0
 10
-0.4526354377007244
 20
0.0941842298777131
 30
0.0
  0
SPLINE
  5
A4
330
1F
100
AcDbEntity
  8
0
  6
Continuous
 62
     7
370
    25
100
AcDbSpline
210
0.0
220
0.0
230
1.0
 70
     8
 71
     3
 72
    15
 73
    11
 74
     0
 42
0.000000001
 43
0.00000001
 40
0.0
 40
0.0
 40
0.0
 40
0.0
 40
0.1249584925460618
 40
0.2459006286062662
 40
0.369166029586072
 40
0.4985108411773542
 40
0.6285038663666053
 40
0.7510283288509914
 40
0.8737241742784335
 40
1.0
 40
1.0
 40
1.0
 40
1.0
 10
-0.4351073928289295
 20
0.1353500952623285
 30
0.0
 10
-0.4366887778176263
 20
0.1352733186210637
 30
0.0
 10
-0.4398007196702034
 20
0.1351222330568527
 30
0.0
 10
-0.4442597066940365
 20
0.1336141308900831
 30
0.0
 10
-0.4483990370524613
 20
0.131299221000088
 30
0.0
 10
-0.4519816784814736
 20
0.1280157507461455
 30
0.0
 10
-0.4550165127687097
 20
0.124246874401284
 30
0.0
 10
-0.4572317756985879
 20
0.120032851195144
 30
0.0
 10
-0.4585864888149793
 20
0.1155008480732642
 30
0.0
 10
-0.4587582553894164
 20
0.1123558582398094
 30
0.0
 10
-0.4588453735981602
 20
0.1107607523136105
 30
0.0
  0
SPLINE
  5
A5
330
1F
100
AcDbEntity
  8
0
  6
Continuous
 62
     7
370
    25
100
AcDbSpline
210
0.0
220
0.0
230
1.0
 70
     8
 71
     3
 72
    15
 73
    11
 74
     0
 42
0.000000001
 43
0.00000001
 40
0.0
 40
0.0
 40
0.0
 40
0.0
 40
0.1582230975563209
 40
0.30503550535817
 40
0.4413089638879069
 40
0.5659632271047249
 40
0.6835251144150604
 40
0.7933341296296004
 40
0.8985175121610025
 40
0.9999999999999999
 40
0.9999999999999999
 40
0.9999999999999999
 40
0.9999999999999999
 10
-0.4035569120596988
 20
0.1161193260315593
 30
0.0
 10
-0.4048705194545554
 20
0.1176416936269008
 30
0.0
 10
-0.4074029998681037
 20
0.1205766391307998
 30
0.0
 10
-0.4114195342254202
 20
0.1245007153096202
 30
0.0
 10
-0.4154212201950137
 20
0.1277962109483592
 30
0.0
 10
-0.4193532783073876
 20
0.1305785151561668
 30
0.0
 10
-0.4233145832412612
 20
0.1326820256280112
 30
0.0
 10
-0.4272586488221375
 20
0.134217372909462
 30
0.0
 10
-0.4311895587160626
 20
0.1351675018852274
 30
0.0
 10
-0.4338171326600143
 20
0.1352899617919481
 30
0.0
 10
-0.4351073928289295
 20
0.1353500952623285
 30
0.0
  0
SPLINE
  5
A8
330
1F
100
AcDbEntity
  8
0
  6
Continuous
 62
     7
370
    25
100
AcDbSpline
210
0.0
220
0.0
230
1.0
 70
     8
 71
     3
 72
    15
 73
    11
 74
     0
 42
0.000000001
 43
0.00000001
 40
0.0
 40
0.0
 40
0.0
 40
0.0
 40
0.1298621417207368
 40
0.2546535308972863
 40
0.3760145541937118
 40
0.4952552518176068
 40
0.6147977192994578
 40
0.7381055541683323
 40
0.8651963000723568
 40
1.0
 40
1.0
 40
1.0
 40
1.0
 10
-0.135327745393032
 20
0.1577859926982259
 30
0.0
 10
-0.1315991840313932
 20
0.1576832961595216
 30
0.0
 10
-0.1242876511756486
 20
0.1574819130940227
 30
0.0
 10
-0.1135927933708758
 20
0.1558060039998098
 30
0.0
 10
-0.1034753306634788
 20
0.1529746849173208
 30
0.0
 10
-0.0938571626613304
 20
0.1491234350584988
 30
0.0
 10
-0.0847728279402712
 20
0.144005668695505
 30
0.0
 10
-0.0763083290605611
 20
0.1375499571938165
 30
0.0
 10
-0.0683750802528603
 20
0.1297970152673789
 30
0.0
 10
-0.0637764879914872
 20
0.1238419835195769
 30
0.0
 10
-0.0614094761622628
 20
0.1207767779546362
 30
0.0
  0
SPLINE
  5
A9
330
1F
100
AcDbEntity
  8
0
  6
Continuous
 62
     7
370
    25
100
AcDbSpline
210
0.0
220
0.0
230
1.0
 70
     8
 71
     3
 72
    23
 73
    19
 74
     0
 42
0.000000001
 43
0.00000001
 40
0.0
 40
0.0
 40
0.0
 40
0.0
 40
0.063774532305632
 40
0.1260788099895058
 40
0.1869040927472073
 40
0.2475739349176197
 40
0.3080033561644469
 40
0.3691318984609776
 40
0.4320332277442044
 40
0.4967907944370906
 40
0.5616108232295651
 40
0.6249138657484622
 40
0.6867263492419245
 40
0.748078833257771
 40
0.8095822911398958
 40
0.8716307425688272
 40
0.9348858208285531
 40
1.0
 40
1.0
 40
1.0
 40
1.0
 10
-0.2312812710340577
 20
0.0637355119289951
 30
0.0
 10
-0.2311917730779946
 20
0.0669114907553829
 30
0.0
 10
-0.2310148404469116
 20
0.0731902295639068
 30
0.0
 10
-0.2296967533154636
 20
0.0824244222771823
 30
0.0
 10
-0.2274802526969509
 20
0.0913185837581282
 30
0.0
 10
-0.2243696921493875
 20
0.0998440797026824
 30
0.0
 10
-0.2203809810805932
 20
0.1080112261418673
 30
0.0
 10
-0.215528974864818
 20
0.1158257993572201
 30
0.0
 10
-0.2098133231006154
 20
0.1233093277473655
 30
0.0
 10
-0.203223865456588
 20
0.1302858439487066
 30
0.0
 10
-0.196085667587828
 20
0.1367301735393767
 30
0.0
 10
-0.1884493296653016
 20
0.1423308196424098
 30
0.0
 10
-0.1805048095709565
 20
0.1471677374149828
 30
0.0
 10
-0.1721288802479291
 20
0.1510001285797221
 30
0.0
 10
-0.163445515618358
 20
0.1541007789043263
 30
0.0
 10
-0.1543774123506986
 20
0.1562459909115061
 30
0.0
 10
-0.1449622995881576
 20
0.1575100852857922
 30
0.0
 10
-0.1385701215835422
 20
0.1576931398680127
 30
0.0
 10
-0.135327745393032
 20
0.1577859926982259
 30
0.0
  0
SPLINE
  5
AA
330
1F
100
AcDbEntity
  8
0
  6
Continuous
 62
     7
370
    25
100
AcDbSpline
210
0.0
220
0.0
230
1.0
 70
     8
 71
     3
 72
    23
 73
    19
 74
     0
 42
0.000000001
 43
0.00000001
 40
0.0
 40
0.0
 40
0.0
 40
0.0
 40
0.0646199913407671
 40
0.1274334841444694
 40
0.1890041265579392
 40
0.2499300706860469
 40
0.3106684537406715
 40
0.3723289611368239
 40
0.434939109997008
 40
0.499575544194034
 40
0.5641912077719239
 40
0.6267352169294782
 40
0.6881093335614014
 40
0.749293606536751
 40
0.8103305278109454
 40
0.8719011702244157
 40
0.9350459146845314
 40
1.0
 40
1.0
 40
1.0
 40
1.0
 10
-0.1360288671879039
 20
-0.0313165714043382
 30
0.0
 10
-0.1392551496045136
 20
-0.031228973385113
 30
0.0
 10
-0.1456175213822274
 20
-0.0310562262125678
 30
0.0
 10
-0.1549767411778642
 20
-0.0297160616684052
 30
0.0
 10
-0.1639833304244829
 20
-0.0275638744082567
 30
0.0
 10
-0.1726457999003249
 20
-0.0245709537302736
 30
0.0
 10
-0.180908096002761
 20
-0.0206008950418316
 30
0.0
 10
-0.1888409600507831
 20
-0.015847948753159
 30
0.0
 10
-0.1964032951950056
 20
-0.0101878894616841
 30
0.0
 10
-0.2034798336924236
 20
-0.0037173160079063
 30
0.0
 10
-0.2099964051478453
 20
0.0033108973623516
 30
0.0
 10
-0.2157150674780012
 20
0.0108070078534323
 30
0.0
 10
-0.2204831446104832
 20
0.0187386009886229
 30
0.0
 10
-0.2244702932324311
 20
0.0270052548378166
 30
0.0
 10
-0.2275414606924836
 20
0.0356706062331046
 30
0.0
 10
-0.2296824345680492
 20
0.0447046896573747
 30
0.0
 10
-0.2310210379038109
 20
0.0540968234816495
 30
0.0
 10
-0.2311937136670219
 20
0.0604925037027644
 30
0.0
 10
-0.2312812710340577
 20
0.0637355119289951
 30
0.0
  0
SPLINE
  5
AB
330
1F
100
AcDbEntity
  8
0
  6
Continuous
 62
     7
370
    25
100
AcDbSpline
210
0.0
220
0.0
230
1.0
 70
     8
 71
     3
 72
    15
 73
    11
 74
     0
 42
0.000000001
 43
0.00000001
 40
0.0
 40
0.0
 40
0.0
 40
0.0
 40
0.1342983790141681
 40
0.2620849753823011
 40
0.3862699121345002
 40
0.5071645966228004
 40
0.6273002357255061
 40
0.7481449416029933
 40
0.8723701771613517
 40
1.0
 40
1.0
 40
1.0
 40
1.0
 10
-0.0614094761622628
 20
0.0034891176982259
 30
0.0
 10
-0.0639393897784171
 20
0.0006291467012378
 30
0.0
 10
-0.0688765480127633
 20
-0.0049521226621151
 30
0.0
 10
-0.0771223421535827
 20
-0.0122437064114543
 30
0.0
 10
-0.0858629262894747
 20
-0.0182707293786011
 30
0.0
 10
-0.0950558777988102
 20
-0.0231385805000576
 30
0.0
 10
-0.1046928951805687
 20
-0.0267951559527261
 30
0.0
 10
-0.1147526157003011
 20
-0.0293941673188546
 30
0.0
 10
-0.1252391429049823
 20
-0.0310651555454439
 30
0.0
 10
-0.1324000253899826
 20
-0.0312320142503746
 30
0.0
 10
-0.1360288671879039
 20
-0.0313165714043382
 30
0.0
  0
SPLINE
  5
B0
330
1F
100
AcDbEntity
  8
0
  6
Continuous
 62
     7
370
    25
100
AcDbSpline
210
0.0
220
0.0
230
1.0
 70
     8
 71
     3
 72
    15
 73
    11
 74
     0
 42
0.000000001
 43
0.00000001
 40
0.0
 40
0.0
 40
0.0
 40
0.0
 40
0.1288840014739275
 40
0.2529849718578392
 40
0.3742104371825978
 40
0.4941015128996909
 40
0.6147527632399876
 40
0.7385110703733295
 40
0.8662425140769323
 40
1.0
 40
1.0
 40
1.0
 40
1.0
 10
0.3133902033249166
 20
0.1577859926982259
 30
0.0
 10
0.31711997530544
 20
0.1576740572671306
 30
0.0
 10
0.3244411032091213
 20
0.1574543404554109
 30
0.0
 10
0.3351481404612375
 20
0.1556181713836811
 30
0.0
 10
0.345275826928193
 20
0.1525351086829508
 30
0.0
 10
0.3548824688902873
 20
0.1483143028752979
 30
0.0
 10
0.3639107946200379
 20
0.1428285349262638
 30
0.0
 10
0.3724269832335256
 20
0.1362034315087983
 30
0.0
 10
0.3802829348701156
 20
0.1282514925027178
 30
0.0
 10
0.3849309221944192
 20
0.1222792372556278
 30
0.0
 10
0.3873084725556858
 20
0.1192242939802772
 30
0.0
  0
SPLINE
  5
B1
330
1F
100
AcDbEntity
  8
0
  6
Continuous
 62
     7
370
    25
100
AcDbSpline
210
0.0
220
0.0
230
1.0
 70
     8
 71
     3
 72
    23
 73
    19
 74
     0
 42
0.000000001
 43
0.00000001
 40
0.0
 40
0.0
 40
0.0
 40
0.0
 40
0.063774532305632
 40
0.1260788099895059
 40
0.1869040927472075
 40
0.2475739349176199
 40
0.3080033561644471
 40
0.3691318984609779
 40
0.4320332277442047
 40
0.4967907944370917
 40
0.5616108232295655
 40
0.6249138657484626
 40
0.686726349241925
 40
0.7480788332577724
 40
0.8095822911398963
 40
0.871630742568828
 40
0.9348858208285549
 40
0.9999999999999999
 40
0.9999999999999999
 40
0.9999999999999999
 40
0.9999999999999999
 10
0.217436677683891
 20
0.0637355119289951
 30
0.0
 10
0.2175261756399541
 20
0.0669114907553829
 30
0.0
 10
0.2177031082710371
 20
0.0731902295639068
 30
0.0
 10
0.2190211954024851
 20
0.0824244222771823
 30
0.0
 10
0.2212376960209978
 20
0.0913185837581282
 30
0.0
 10
0.2243482565685612
 20
0.0998440797026824
 30
0.0
 10
0.2283369676373556
 20
0.1080112261418673
 30
0.0
 10
0.2331889738531307
 20
0.1158257993572201
 30
0.0
 10
0.2389046256173334
 20
0.1233093277473656
 30
0.0
 10
0.2454940832613608
 20
0.1302858439487064
 30
0.0
 10
0.2526322811301207
 20
0.1367301735393767
 30
0.0
 10
0.2602686190526472
 20
0.1423308196424098
 30
0.0
 10
0.2682131391469923
 20
0.1471677374149829
 30
0.0
 10
0.2765890684700197
 20
0.1510001285797221
 30
0.0
 10
0.2852724330995908
 20
0.1541007789043264
 30
0.0
 10
0.2943405363672501
 20
0.156245990911506
 30
0.0
 10
0.3037556491297911
 20
0.1575100852857922
 30
0.0
 10
0.3101478271344065
 20
0.1576931398680127
 30
0.0
 10
0.3133902033249166
 20
0.1577859926982259
 30
0.0
  0
SPLINE
  5
B2
330
1F
100
AcDbEntity
  8
0
  6
Continuous
 62
     7
370
    25
100
AcDbSpline
210
0.0
220
0.0
230
1.0
 70
     8
 71
     3
 72
    23
 73
    19
 74
     0
 42
0.000000001
 43
0.00000001
 40
0.0
 40
0.0
 40
0.0
 40
0.0
 40
0.0646199913407679
 40
0.1274334841444693
 40
0.1890041265579409
 40
0.2499300706860468
 40
0.3106684537406714
 40
0.3723289611368237
 40
0.4349391099970085
 40
0.4995755441940345
 40
0.5641912077719243
 40
0.6267352169294786
 40
0.6881093335614017
 40
0.7492936065367514
 40
0.8103305278109453
 40
0.8719011702244158
 40
0.9350459146845314
 40
1.0
 40
1.0
 40
1.0
 40
1.0
 10
0.3126890815300449
 20
-0.0313165714043382
 30
0.0
 10
0.3094627991134352
 20
-0.0312289733851131
 30
0.0
 10
0.3031004273357213
 20
-0.0310562262125678
 30
0.0
 10
0.2937412075400846
 20
-0.0297160616684051
 30
0.0
 10
0.2847346182934659
 20
-0.0275638744082568
 30
0.0
 10
0.2760721488176239
 20
-0.0245709537302735
 30
0.0
 10
0.2678098527151878
 20
-0.0206008950418316
 30
0.0
 10
0.2598769886671659
 20
-0.0158479487531589
 30
0.0
 10
0.2523146535229431
 20
-0.0101878894616842
 30
0.0
 10
0.2452381150255251
 20
-0.0037173160079063
 30
0.0
 10
0.2387215435701034
 20
0.0033108973623516
 30
0.0
 10
0.2330028812399475
 20
0.0108070078534323
 30
0.0
 10
0.2282348041074657
 20
0.0187386009886229
 30
0.0
 10
0.2242476554855176
 20
0.0270052548378166
 30
0.0
 10
0.2211764880254653
 20
0.0356706062331047
 30
0.0
 10
0.2190355141498994
 20
0.0447046896573746
 30
0.0
 10
0.2176969108141378
 20
0.0540968234816495
 30
0.0
 10
0.2175242350509269
 20
0.0604925037027644
 30
0.0
 10
0.217436677683891
 20
0.0637355119289951
 30
0.0
  0
SPLINE
  5
B9
330
1F
100
AcDbEntity
  8
0
  6
Continuous
 62
     7
370
    25
100
AcDbSpline
210
0.0
220
0.0
230
1.0
 70
     8
 71
     3
 72
    15
 73
    11
 74
     0
 42
0.000000001
 43
0.00000001
 40
0.0
 40
0.0
 40
0.0
 40
0.0
 40
0.0708548685015312
 40
0.1569381495573537
 40
0.2586003949600845
 40
0.3758909295892027
 40
0.508166167698903
 40
0.6562378085782241
 40
0.8201767703979103
 40
1.0
 40
1.0
 40
1.0
 40
1.0
 10
0.7182379597351731
 20
0.0959871144930977
 30
0.0
 10
0.7178999316376673
 20
0.0945387449517533
 30
0.0
 10
0.7171512250880281
 20
0.0913307164774798
 30
0.0
 10
0.7164232580991976
 20
0.0859486789973534
 30
0.0
 10
0.7157040068151589
 20
0.0795898462284962
 30
0.0
 10
0.7151971055043913
 20
0.0722365181653851
 30
0.0
 10
0.7147272453524429
 20
0.0639070578848022
 30
0.0
 10
0.7144622394790757
 20
0.0545887760545446
 30
0.0
 10
0.7142405865821648
 20
0.0442721081158268
 30
0.0
 10
0.7142346532342432
 20
0.0370596543135254
 30
0.0
 10
0.7142315494787628
 20
0.0332867939802772
 30
0.0
  0
SPLINE
  5
BA
330
1F
100
AcDbEntity
  8
0
  6
Continuous
 62
     7
370
    25
100
AcDbSpline
210
0.0
220
0.0
230
1.0
 70
     8
 71
     3
 72
    19
 73
    15
 74
     0
 42
0.000000001
 43
0.00000001
 40
0.0
 40
0.0
 40
0.0
 40
0.0
 40
0.0938065293523317
 40
0.1913381281363404
 40
0.2951906166251701
 40
0.4103123367232983
 40
0.4719302510512801
 40
0.5364251593464331
 40
0.6031187283036322
 40
0.6741176724905978
 40
0.749332023225887
 40
0.8282833841715636
 40
0.9120398092627618
 40
1.0
 40
1.0
 40
1.0
 40
1.0
 10
0.7545460526838912
 20
0.1353500952623285
 30
0.0
 10
0.7527456431473899
 20
0.135230092593145
 30
0.0
 10
0.7490733295784795
 20
0.1349853219332404
 30
0.0
 10
0.7436815796206407
 20
0.133061121378456
 30
0.0
 10
0.7384496363705451
 20
0.1299521756560875
 30
0.0
 10
0.7342945176322584
 20
0.1265042390953115
 30
0.0
 10
0.7310772138554852
 20
0.123179396419284
 30
0.0
 10
0.7287814834604306
 20
0.1202759390930704
 30
0.0
 10
0.7266755729637394
 20
0.117020322555325
 30
0.0
 10
0.7246634143637034
 20
0.1134682022836582
 30
0.0
 10
0.7228301076344791
 20
0.1095589275670688
 30
0.0
 10
0.7211190598342123
 20
0.1053315551797905
 30
0.0
 10
0.7195719981968995
 20
0.1007811888390917
 30
0.0
 10
0.718689837895168
 20
0.0976110088233581
 30
0.0
 10
0.7182379597351731
 20
0.0959871144930977
 30
0.0
  0
SPLINE
  5
BB
330
1F
100
AcDbEntity
  8
0
  6
Continuous
 62
     7
370
    25
100
AcDbSpline
210
0.0
220
0.0
230
1.0
 70
     8
 71
     3
 72
    11
 73
     7
 74
     0
 42
0.000000001
 43
0.00000001
 40
0.0
 40
0.0
 40
0.0
 40
0.0
 40
0.2951388013693713
 40
0.5602299448882345
 40
0.7949833567409109
 40
1.0
 40
1.0
 40
1.0
 40
1.0
 10
0.7660144020428655
 20
0.1320948869289952
 30
0.0
 10
0.764935186246875
 20
0.1325763345086483
 30
0.0
 10
0.7628866280664359
 20
0.1334902141807356
 30
0.0
 10
0.7598898733329537
 20
0.1345717863330239
 30
0.0
 10
0.7571269207093199
 20
0.1352086374650323
 30
0.0
 10
0.7553666665405433
 20
0.1353051172830406
 30
0.0
 10
0.7545460526838912
 20
0.1353500952623285
 30
0.0
  0
SPLINE
  5
BD
330
1F
100
AcDbEntity
  8
0
  6
Continuous
 62
     7
370
    25
100
AcDbSpline
210
0.0
220
0.0
230
1.0
 70
     8
 71
     3
 72
    11
 73
     7
 74
     0
 42
0.000000001
 43
0.00000001
 40
0.0
 40
0.0
 40
0.0
 40
0.0
 40
0.2252775478670025
 40
0.4635231951764808
 40
0.720323555326926
 40
1.0
 40
1.0
 40
1.0
 40
1.0
 10
0.758802863581327
 20
0.1577859926982259
 30
0.0
 10
0.7603618869018047
 20
0.1577009550843032
 30
0.0
 10
0.7635696787022073
 20
0.1575259846671938
 30
0.0
 10
0.7684255779739388
 20
0.1562966400499184
 30
0.0
 10
0.7734286816817679
 20
0.154333924153276
 30
0.0
 10
0.7766531379139496
 20
0.1524881939629195
 30
0.0
 10
0.7783341135813269
 20
0.1515259766725849
 30
0.0
  0
SPLINE
  5
BE
330
1F
100
AcDbEntity
  8
0
  6
Continuous
 62
     7
370
    25
100
AcDbSpline
210
0.0
220
0.0
230
1.0
 70
     8
 71
     3
 72
    15
 73
    11
 74
     0
 42
0.000000001
 43
0.00000001
 40
0.0
 40
0.0
 40
0.0
 40
0.0
 40
0.160059412485494
 40
0.3061123827401272
 40
0.4383665141302051
 40
0.5605414552552166
 40
0.6753172249526997
 40
0.7861136344281774
 40
0.8928417881050884
 40
1.0
 40
1.0
 40
1.0
 40
1.0
 10
0.7142315494787628
 20
0.1276878356469439
 30
0.0
 10
0.7158878893895699
 20
0.1301918233845075
 30
0.0
 10
0.7190556265994683
 20
0.1349806804769772
 30
0.0
 10
0.7243208358390222
 20
0.1413142019763948
 30
0.0
 10
0.729713930930337
 20
0.1465581338772097
 30
0.0
 10
0.7352607300233757
 20
0.1507369566464879
 30
0.0
 10
0.7410020228741007
 20
0.1538664651339046
 30
0.0
 10
0.7468118051396714
 20
0.1561588247790144
 30
0.0
 10
0.752781481558062
 20
0.157514347295967
 30
0.0
 10
0.7567930475743393
 20
0.1576953229357735
 30
0.0
 10
0.758802863581327
 20
0.1577859926982259
 30
0.0
  0
CIRCLE
  5
C6
330
1F
100
AcDbEntity
  8
0
  6
Continuous
 62
     7
370
    25
100
AcDbCircle
 10
-1.1175
 20
-2.205
 30
0.0
 40
0.0720000000000001
  0
CIRCLE
  5
C7
330
1F
100
AcDbEntity
  8
0
  6
Continuous
 62
     7
370
    25
100
AcDbCircle
 10
1.1225
 20
-2.205
 30
0.0
 40
0.0719999999999996
  0
CIRCLE
  5
C8
330
1F
100
AcDbEntity
  8
0
  6
Continuous
 62
     7
370
    25
100
AcDbCircle
 10
1.1225
 20
2.205
 30
0.0
 40
0.0719999999999992
  0
CIRCLE
  5
C9
330
1F
100
AcDbEntity
  8
0
  6
Continuous
 62
     7
370
    25
100
AcDbCircle
 10
-1.1175
 20
2.205
 30
0.0
 40
0.0719999999999992
  0
SPLINE
  5
CB
330
1F
100
AcDbEntity
  8
0
  6
Continuous
 62
     7
370
    25
100
AcDbSpline
210
0.0
220
0.0
230
1.0
 70
     8
 71
     3
 72
    15
 73
    11
 74
     0
 42
0.000000001
 43
0.00000001
 40
0.0
 40
0.0
 40
0.0
 40
0.0
 40
0.1288840014739275
 40
0.2529849718578362
 40
0.3742104371825979
 40
0.494101512899691
 40
0.6147527632399878
 40
0.7385110703733299
 40
0.8662425140769305
 40
1.0
 40
1.0
 40
1.0
 40
1.0
 10
0.8903132802479936
 20
0.1577859926982259
 30
0.0
 10
0.894043052228517
 20
0.1576740572671306
 30
0.0
 10
0.9013641801321981
 20
0.1574543404554108
 30
0.0
 10
0.9120712173843145
 20
0.1556181713836811
 30
0.0
 10
0.9221989038512699
 20
0.1525351086829509
 30
0.0
 10
0.9318055458133644
 20
0.1483143028752979
 30
0.0
 10
0.9408338715431147
 20
0.1428285349262637
 30
0.0
 10
0.9493500601566027
 20
0.1362034315087984
 30
0.0
 10
0.9572060117931922
 20
0.1282514925027176
 30
0.0
 10
0.9618539991174959
 20
0.1222792372556277
 30
0.0
 10
0.9642315494787628
 20
0.1192242939802772
 30
0.0
  0
SPLINE
  5
CC
330
1F
100
AcDbEntity
  8
0
  6
Continuous
 62
     7
370
    25
100
AcDbSpline
210
0.0
220
0.0
230
1.0
 70
     8
 71
     3
 72
    23
 73
    19
 74
     0
 42
0.000000001
 43
0.00000001
 40
0.0
 40
0.0
 40
0.0
 40
0.0
 40
0.063774532305632
 40
0.1260788099895059
 40
0.1869040927472074
 40
0.2475739349176201
 40
0.3080033561644473
 40
0.3691318984609775
 40
0.4320332277442043
 40
0.4967907944370906
 40
0.5616108232295658
 40
0.624913865748463
 40
0.6867263492419253
 40
0.7480788332577709
 40
0.8095822911398965
 40
0.8716307425688281
 40
0.9348858208285531
 40
1.0
 40
1.0
 40
1.0
 40
1.0
 10
0.794359754606968
 20
0.0637355119289951
 30
0.0
 10
0.794449252563031
 20
0.0669114907553829
 30
0.0
 10
0.7946261851941141
 20
0.0731902295639068
 30
0.0
 10
0.795944272325562
 20
0.0824244222771823
 30
0.0
 10
0.7981607729440745
 20
0.0913185837581282
 30
0.0
 10
0.8012713334916383
 20
0.0998440797026824
 30
0.0
 10
0.8052600445604325
 20
0.1080112261418672
 30
0.0
 10
0.8101120507762076
 20
0.1158257993572201
 30
0.0
 10
0.8158277025404101
 20
0.1233093277473654
 30
0.0
 10
0.8224171601844378
 20
0.1302858439487066
 30
0.0
 10
0.8295553580531975
 20
0.1367301735393766
 30
0.0
 10
0.8371916959757246
 20
0.1423308196424098
 30
0.0
 10
0.8451362160700688
 20
0.1471677374149828
 30
0.0
 10
0.8535121453930968
 20
0.1510001285797223
 30
0.0
 10
0.8621955100226677
 20
0.1541007789043263
 30
0.0
 10
0.871263613290327
 20
0.1562459909115061
 30
0.0
 10
0.880678726052868
 20
0.1575100852857922
 30
0.0
 10
0.8870709040574835
 20
0.1576931398680127
 30
0.0
 10
0.8903132802479936
 20
0.1577859926982259
 30
0.0
  0
SPLINE
  5
CD
330
1F
100
AcDbEntity
  8
0
  6
Continuous
 62
     7
370
    25
100
AcDbSpline
210
0.0
220
0.0
230
1.0
 70
     8
 71
     3
 72
    23
 73
    19
 74
     0
 42
0.000000001
 43
0.00000001
 40
0.0
 40
0.0
 40
0.0
 40
0.0
 40
0.0646199913407662
 40
0.1274334841444694
 40
0.1890041265579392
 40
0.2499300706860469
 40
0.3106684537406716
 40
0.372328961136824
 40
0.4349391099970074
 40
0.4995755441940334
 40
0.5641912077719239
 40
0.6267352169294783
 40
0.6881093335614014
 40
0.7492936065367511
 40
0.8103305278109454
 40
0.8719011702244157
 40
0.9350459146845315
 40
1.0
 40
1.0
 40
1.0
 40
1.0
 10
0.8896121584531217
 20
-0.0313165714043382
 30
0.0
 10
0.8863858760365122
 20
-0.031228973385113
 30
0.0
 10
0.8800235042587983
 20
-0.0310562262125678
 30
0.0
 10
0.8706642844631614
 20
-0.0297160616684052
 30
0.0
 10
0.8616576952165429
 20
-0.0275638744082567
 30
0.0
 10
0.8529952257407007
 20
-0.0245709537302736
 30
0.0
 10
0.8447329296382646
 20
-0.0206008950418316
 30
0.0
 10
0.8368000655902429
 20
-0.015847948753159
 30
0.0
 10
0.8292377304460198
 20
-0.0101878894616841
 30
0.0
 10
0.8221611919486023
 20
-0.0037173160079063
 30
0.0
 10
0.8156446204931802
 20
0.0033108973623516
 30
0.0
 10
0.8099259581630244
 20
0.0108070078534323
 30
0.0
 10
0.8051578810305426
 20
0.0187386009886229
 30
0.0
 10
0.8011707324085944
 20
0.0270052548378166
 30
0.0
 10
0.7980995649485418
 20
0.0356706062331047
 30
0.0
 10
0.7959585910729765
 20
0.0447046896573747
 30
0.0
 10
0.7946199877372148
 20
0.0540968234816494
 30
0.0
 10
0.7944473119740036
 20
0.0604925037027644
 30
0.0
 10
0.794359754606968
 20
0.0637355119289951
 30
0.0
  0
SPLINE
  5
CE
330
1F
100
AcDbEntity
  8
0
  6
Continuous
 62
     7
370
    25
100
AcDbSpline
210
0.0
220
0.0
230
1.0
 70
     8
 71
     3
 72
    15
 73
    11
 74
     0
 42
0.000000001
 43
0.00000001
 40
0.0
 40
0.0
 40
0.0
 40
0.0
 40
0.1342983790141681
 40
0.2620849753822997
 40
0.3862699121344989
 40
0.5071645966228003
 40
0.6273002357255045
 40
0.7481449416029917
 40
0.8723701771613501
 40
1.0
 40
1.0
 40
1.0
 40
1.0
 10
0.9642315494787628
 20
0.0034891176982259
 30
0.0
 10
0.9617016358626085
 20
0.0006291467012378
 30
0.0
 10
0.9567644776282624
 20
-0.004952122662115
 30
0.0
 10
0.9485186834874428
 20
-0.0122437064114544
 30
0.0
 10
0.9397780993515515
 20
-0.0182707293786011
 30
0.0
 10
0.9305851478422151
 20
-0.0231385805000576
 30
0.0
 10
0.9209481304604573
 20
-0.0267951559527261
 30
0.0
 10
0.9108884099407244
 20
-0.0293941673188546
 30
0.0
 10
0.9004018827360436
 20
-0.0310651555454439
 30
0.0
 10
0.8932410002510429
 20
-0.0312320142503746
 30
0.0
 10
0.8896121584531217
 20
-0.0313165714043382
 30
0.0
  0
SPLINE
  5
D4
330
1F
100
AcDbEntity
  8
0
  6
Continuous
 62
     7
370
    25
100
AcDbSpline
210
0.0
220
0.0
230
1.0
 70
     8
 71
     3
 72
    15
 73
    11
 74
     0
 42
0.000000001
 43
0.00000001
 40
0.0
 40
0.0
 40
0.0
 40
0.0
 40
0.1298621417207384
 40
0.2546535308972893
 40
0.3760145541937133
 40
0.4952552518176082
 40
0.6147977192994578
 40
0.7381055541683336
 40
0.8651963000723569
 40
1.0
 40
1.0
 40
1.0
 40
1.0
 10
0.5505696905044039
 20
0.1577859926982259
 30
0.0
 10
0.5542982518660428
 20
0.1576832961595216
 30
0.0
 10
0.5616097847217874
 20
0.1574819130940227
 30
0.0
 10
0.5723046425265602
 20
0.1558060039998098
 30
0.0
 10
0.5824221052339572
 20
0.1529746849173209
 30
0.0
 10
0.5920402732361056
 20
0.1491234350584988
 30
0.0
 10
0.6011246079571648
 20
0.144005668695505
 30
0.0
 10
0.609589106836875
 20
0.1375499571938166
 30
0.0
 10
0.6175223556445751
 20
0.1297970152673789
 30
0.0
 10
0.6221209479059487
 20
0.1238419835195769
 30
0.0
 10
0.624487959735173
 20
0.1207767779546362
 30
0.0
  0
SPLINE
  5
D5
330
1F
100
AcDbEntity
  8
0
  6
Continuous
 62
     7
370
    25
100
AcDbSpline
210
0.0
220
0.0
230
1.0
 70
     8
 71
     3
 72
    23
 73
    19
 74
     0
 42
0.000000001
 43
0.00000001
 40
0.0
 40
0.0
 40
0.0
 40
0.0
 40
0.063774532305632
 40
0.1260788099895059
 40
0.1869040927472074
 40
0.2475739349176201
 40
0.3080033561644473
 40
0.3691318984609775
 40
0.4320332277442043
 40
0.4967907944370906
 40
0.5616108232295658
 40
0.624913865748463
 40
0.6867263492419253
 40
0.7480788332577709
 40
0.8095822911398965
 40
0.8716307425688281
 40
0.9348858208285549
 40
1.0
 40
1.0
 40
1.0
 40
1.0
 10
0.4546161648633781
 20
0.0637355119289951
 30
0.0
 10
0.4547056628194411
 20
0.0669114907553829
 30
0.0
 10
0.4548825954505242
 20
0.0731902295639068
 30
0.0
 10
0.4562006825819722
 20
0.0824244222771823
 30
0.0
 10
0.4584171832004848
 20
0.0913185837581282
 30
0.0
 10
0.4615277437480484
 20
0.0998440797026824
 30
0.0
 10
0.465516454816843
 20
0.1080112261418672
 30
0.0
 10
0.4703684610326179
 20
0.1158257993572201
 30
0.0
 10
0.4760841127968204
 20
0.1233093277473654
 30
0.0
 10
0.482673570440848
 20
0.1302858439487066
 30
0.0
 10
0.4898117683096078
 20
0.1367301735393766
 30
0.0
 10
0.4974481062321344
 20
0.1423308196424098
 30
0.0
 10
0.5053926263264794
 20
0.1471677374149828
 30
0.0
 10
0.5137685556495069
 20
0.1510001285797223
 30
0.0
 10
0.5224519202790779
 20
0.1541007789043262
 30
0.0
 10
0.5315200235467373
 20
0.1562459909115061
 30
0.0
 10
0.5409351363092784
 20
0.1575100852857922
 30
0.0
 10
0.5473273143138938
 20
0.1576931398680127
 30
0.0
 10
0.5505696905044039
 20
0.1577859926982259
 30
0.0
  0
SPLINE
  5
D6
330
1F
100
AcDbEntity
  8
0
  6
Continuous
 62
     7
370
    25
100
AcDbSpline
210
0.0
220
0.0
230
1.0
 70
     8
 71
     3
 72
    23
 73
    19
 74
     0
 42
0.000000001
 43
0.00000001
 40
0.0
 40
0.0
 40
0.0
 40
0.0
 40
0.0646199913407679
 40
0.127433484144471
 40
0.1890041265579408
 40
0.2499300706860466
 40
0.3106684537406729
 40
0.3723289611368251
 40
0.4349391099970084
 40
0.4995755441940344
 40
0.5641912077719247
 40
0.6267352169294791
 40
0.688109333561402
 40
0.7492936065367517
 40
0.8103305278109453
 40
0.8719011702244159
 40
0.9350459146845315
 40
1.0
 40
1.0
 40
1.0
 40
1.0
 10
0.5498685687095322
 20
-0.0313165714043382
 30
0.0
 10
0.5466422862929226
 20
-0.031228973385113
 30
0.0
 10
0.5402799145152086
 20
-0.0310562262125678
 30
0.0
 10
0.5309206947195717
 20
-0.0297160616684052
 30
0.0
 10
0.5219141054729529
 20
-0.0275638744082568
 30
0.0
 10
0.5132516359971112
 20
-0.0245709537302734
 30
0.0
 10
0.5049893398946748
 20
-0.0206008950418317
 30
0.0
 10
0.497056475846653
 20
-0.015847948753159
 30
0.0
 10
0.4894941407024304
 20
-0.0101878894616841
 30
0.0
 10
0.4824176022050123
 20
-0.0037173160079063
 30
0.0
 10
0.4759010307495905
 20
0.0033108973623516
 30
0.0
 10
0.4701823684194346
 20
0.0108070078534323
 30
0.0
 10
0.4654142912869527
 20
0.0187386009886229
 30
0.0
 10
0.4614271426650048
 20
0.0270052548378166
 30
0.0
 10
0.4583559752049527
 20
0.0356706062331048
 30
0.0
 10
0.4562150013293865
 20
0.0447046896573746
 30
0.0
 10
0.4548763979936249
 20
0.0540968234816494
 30
0.0
 10
0.454703722230414
 20
0.0604925037027644
 30
0.0
 10
0.4546161648633781
 20
0.0637355119289951
 30
0.0
  0
SPLINE
  5
D7
330
1F
100
AcDbEntity
  8
0
  6
Continuous
 62
     7
370
    25
100
AcDbSpline
210
0.0
220
0.0
230
1.0
 70
     8
 71
     3
 72
    15
 73
    11
 74
     0
 42
0.000000001
 43
0.00000001
 40
0.0
 40
0.0
 40
0.0
 40
0.0
 40
0.1342983790141685
 40
0.2620849753823006
 40
0.3862699121345001
 40
0.507164596622802
 40
0.6273002357255065
 40
0.7481449416029942
 40
0.8723701771613529
 40
1.0
 40
1.0
 40
1.0
 40
1.0
 10
0.624487959735173
 20
0.0034891176982259
 30
0.0
 10
0.6219580461190188
 20
0.0006291467012378
 30
0.0
 10
0.6170208878846726
 20
-0.004952122662115
 30
0.0
 10
0.6087750937438532
 20
-0.0122437064114544
 30
0.0
 10
0.6000345096079615
 20
-0.0182707293786011
 30
0.0
 10
0.5908415580986256
 20
-0.0231385805000576
 30
0.0
 10
0.5812045407168672
 20
-0.0267951559527261
 30
0.0
 10
0.5711448201971348
 20
-0.0293941673188546
 30
0.0
 10
0.560658292992454
 20
-0.0310651555454439
 30
0.0
 10
0.5534974105074537
 20
-0.0312320142503746
 30
0.0
 10
0.5498685687095322
 20
-0.0313165714043382
 30
0.0
  0
SPLINE
  5
DE
330
1F
100
AcDbEntity
  8
0
  6
Continuous
 62
     7
370
    25
100
AcDbSpline
210
0.0
220
0.0
230
1.0
 70
     8
 71
     3
 72
    23
 73
    19
 74
     0
 42
0.000000001
 43
0.00000001
 40
0.0
 40
0.0
 40
0.0
 40
0.0
 40
0.0639861098164674
 40
0.1266268580894767
 40
0.1889843719814868
 40
0.2502301939603973
 40
0.3123511629623216
 40
0.3745736184579381
 40
0.4381475308782039
 40
0.5029204126073697
 40
0.5679740951402716
 40
0.6307713337491896
 40
0.6929346089254584
 40
0.7543975343123294
 40
0.8152183520172952
 40
0.8761169254810909
 40
0.9380146047939528
 40
1.0
 40
1.0
 40
1.0
 40
1.0
 10
0.1003493379403013
 20
0.1353500952623285
 30
0.0
 10
0.0985445033970963
 20
0.1353160949292185
 30
0.0
 10
0.094972782468399
 20
0.1352488091484754
 30
0.0
 10
0.0896763559036741
 20
0.1345737164325476
 30
0.0
 10
0.0845389149623913
 20
0.1334695410326648
 30
0.0
 10
0.079508900034193
 20
0.13197892406844
 30
0.0
 10
0.0746869147674042
 20
0.1299316191239623
 30
0.0
 10
0.0699180368259626
 20
0.127608092679326
 30
0.0
 10
0.0653818393881177
 20
0.1247117918232312
 30
0.0
 10
0.0609815967360834
 20
0.1214838902918195
 30
0.0
 10
0.0568878247608569
 20
0.1179068040634204
 30
0.0
 10
0.0530786577315244
 20
0.1141321961953568
 30
0.0
 10
0.0496830848564458
 20
0.1101125102099222
 30
0.0
 10
0.0466067509076105
 20
0.1059125139578455
 30
0.0
 10
0.0439511606663553
 20
0.1014745255294812
 30
0.0
 10
0.0416330829476186
 20
0.0968413607809953
 30
0.0
 10
0.039666247605352
 20
0.0920069215792906
 30
0.0
 10
0.0386889124289342
 20
0.088651560062808
 30
0.0
 10
0.0381998988377371
 20
0.0869726914161746
 30
0.0
  0
SPLINE
  5
DF
330
1F
100
AcDbEntity
  8
0
  6
Continuous
 62
     7
370
    25
100
AcDbSpline
210
0.0
220
0.0
230
1.0
 70
     8
 71
     3
 72
    15
 73
    11
 74
     0
 42
0.000000001
 43
0.00000001
 40
0.0
 40
0.0
 40
0.0
 40
0.0
 40
0.1355195283706056
 40
0.260833163193679
 40
0.3784760291245032
 40
0.4931776464746764
 40
0.6092809649289382
 40
0.7299810378566461
 40
0.859261308930066
 40
1.0
 40
1.0
 40
1.0
 40
1.0
 10
0.147474738581327
 20
0.0993925632110464
 30
0.0
 10
0.146715772045161
 20
0.1022290764215928
 30
0.0
 10
0.1452549962826823
 20
0.1076884867519192
 30
0.0
 10
0.1416454260594578
 20
0.1150937976534513
 30
0.0
 10
0.1370872702889315
 20
0.1213936682126868
 30
0.0
 10
0.1315231381914195
 20
0.1265491483287149
 30
0.0
 10
0.1250067756456787
 20
0.1305613509505013
 30
0.0
 10
0.1175562654479762
 20
0.1333452048595769
 30
0.0
 10
0.1092435053999534
 20
0.1350863669452132
 30
0.0
 10
0.1033967637804188
 20
0.1352597335177365
 30
0.0
 10
0.1003493379403013
 20
0.1353500952623285
 30
0.0
  0
SPLINE
  5
E0
330
1F
100
AcDbEntity
  8
0
  6
Continuous
 62
     7
370
    25
100
AcDbSpline
210
0.0
220
0.0
230
1.0
 70
     8
 71
     3
 72
    15
 73
    11
 74
     0
 42
0.000000001
 43
0.00000001
 40
0.0
 40
0.0
 40
0.0
 40
0.0
 40
0.17885001941116
 40
0.3421096489422998
 40
0.4898256633683922
 40
0.6232544282245643
 40
0.7400796760857926
 40
0.8414826730699856
 40
0.9289076721840656
 40
1.0
 40
1.0
 40
1.0
 40
1.0
 10
0.1501289853761987
 20
0.05782605680079
 30
0.0
 10
0.1501151848034168
 20
0.0603133742957013
 30
0.0
 10
0.150088786656382
 20
0.0650711893509847
 30
0.0
 10
0.150005526178915
 20
0.0718832624360091
 30
0.0
 10
0.1498048257072747
 20
0.0780608751790648
 30
0.0
 10
0.1495228033561287
 20
0.0835892585651663
 30
0.0
 10
0.1491100154611824
 20
0.0884631040339771
 30
0.0
 10
0.1486798275076107
 20
0.0926923380867273
 30
0.0
 10
0.1481537577364005
 20
0.0962715911176426
 30
0.0
 10
0.1476849782266031
 20
0.0984262398592947
 30
0.0
 10
0.147474738581327
 20
0.0993925632110464
 30
0.0
  0
SPLINE
  5
E3
330
1F
100
AcDbEntity
  8
0
  6
Continuous
 62
     7
370
    25
100
AcDbSpline
210
0.0
220
0.0
230
1.0
 70
     8
 71
     3
 72
    23
 73
    19
 74
     0
 42
0.000000001
 43
0.00000001
 40
0.0
 40
0.0
 40
0.0
 40
0.0
 40
0.0772404236164786
 40
0.151178140466383
 40
0.2234879838003992
 40
0.2955426441988694
 40
0.3669762546197892
 40
0.4371305254863861
 40
0.5070436156432694
 40
0.5785597335236781
 40
0.6166135446965534
 40
0.6587562369775287
 40
0.7044912261144044
 40
0.75480311490515
 40
0.8093316253185656
 40
0.868274455472821
 40
0.9320728834092941
 40
1.0
 40
1.0
 40
1.0
 40
1.0
 10
0.1042555879403013
 20
0.157785992698226
 30
0.0
 10
0.1076363475200548
 20
0.1576613358809978
 30
0.0
 10
0.1142533095031841
 20
0.1574173524207491
 30
0.0
 10
0.1238874567447596
 20
0.1554875887699601
 30
0.0
 10
0.1328855562938153
 20
0.1521914991181992
 30
0.0
 10
0.1412155245643929
 20
0.1476763512322673
 30
0.0
 10
0.1487246112331531
 20
0.1420616031319956
 30
0.0
 10
0.1553192434814509
 20
0.1355203330063416
 30
0.0
 10
0.1607737611512783
 20
0.1279963270609411
 30
0.0
 10
0.1644307156512577
 20
0.1210161016154695
 30
0.0
 10
0.1668396904863282
 20
0.1148240448816984
 30
0.0
 10
0.1683562860230297
 20
0.1095207055889234
 30
0.0
 10
0.1696442132701279
 20
0.1036122662197038
 30
0.0
 10
0.1707607666999633
 20
0.0971165812872469
 30
0.0
 10
0.1715162746904945
 20
0.0899881391263641
 30
0.0
 10
0.1721121526570144
 20
0.082256161122584
 30
0.0
 10
0.1725392022490359
 20
0.0739231518014711
 30
0.0
 10
0.1725561456052323
 20
0.0681598212721938
 30
0.0
 10
0.1725648828120962
 20
0.0651878356469439
 30
0.0
  0
SPLINE
  5
E4
330
1F
100
AcDbEntity
  8
0
  6
Continuous
 62
     7
370
    25
100
AcDbSpline
210
0.0
220
0.0
230
1.0
 70
     8
 71
     3
 72
    15
 73
    11
 74
     0
 42
0.000000001
 43
0.00000001
 40
0.0
 40
0.0
 40
0.0
 40
0.0
 40
0.140975966268771
 40
0.2735687809631701
 40
0.3989883138042537
 40
0.5199297813924308
 40
0.6381100215247455
 40
0.7565889007405938
 40
0.8768597544106066
 40
1.0
 40
1.0
 40
1.0
 40
1.0
 10
0.0347443699915833
 20
0.1216281401341234
 30
0.0
 10
0.0371399153581629
 20
0.1246169060510966
 30
0.0
 10
0.0417885547186318
 20
0.1304167105860896
 30
0.0
 10
0.0495302928097329
 20
0.1380396087689526
 30
0.0
 10
0.0577119999756336
 20
0.1443214105578657
 30
0.0
 10
0.066283571653288
 20
0.1493288244110315
 30
0.0
 10
0.0752566438032828
 20
0.1531035834216501
 30
0.0
 10
0.0845765202292181
 20
0.155829721356341
 30
0.0
 10
0.0942989992354898
 20
0.1574643519663138
 30
0.0
 10
0.1009107447264568
 20
0.1576779398448514
 30
0.0
 10
0.1042555879403013
 20
0.1577859926982259
 30
0.0
  0
SPLINE
  5
F3
330
1F
100
AcDbEntity
  8
0
  6
Continuous
 62
     7
370
    25
100
AcDbSpline
210
0.0
220
0.0
230
1.0
 70
     8
 71
     3
 72
    31
 73
    27
 74
     0
 42
0.000000001
 43
0.00000001
 40
0.0
 40
0.0
 40
0.0
 40
0.0
 40
0.04294674328312
 40
0.0855917492701631
 40
0.1273442348477958
 40
0.169121093308215
 40
0.2106332667734656
 40
0.2525241407022984
 40
0.2943009991627178
 40
0.3368059667078249
 40
0.3791196007503849
 40
0.4208686033260864
 40
0.4620374625207039
 40
0.502825195942498
 40
0.5436015190109768
 40
0.5843628611434202
 40
0.6255204156466198
 40
0.667012266628602
 40
0.7085517546538066
 40
0.749889109682318
 40
0.7910176817309432
 40
0.8320676863961224
 40
0.8733740728916943
 40
0.9148883481149926
 40
0.9570532567168796
 40
0.9999999999999999
 40
0.9999999999999999
 40
0.9999999999999999
 40
0.9999999999999999
 10
-0.7825633223161091
 20
0.0957867939802772
 30
0.0
 10
-0.7825241942779309
 20
0.098760457100165
 30
0.0
 10
-0.7824462131092286
 20
0.1046868908344643
 30
0.0
 10
-0.7815441308407167
 20
0.1134645459523966
 30
0.0
 10
-0.7802038600966817
 20
0.1220976981535261
 30
0.0
 10
-0.7783080991539059
 20
0.1305504715243787
 30
0.0
 10
-0.775826389958109
 20
0.1388575127929162
 30
0.0
 10
-0.7728510768446256
 20
0.1470024416837608
 30
0.0
 10
-0.7692460889728928
 20
0.1549642708695918
 30
0.0
 10
-0.7651707376568322
 20
0.1627267049409304
 30
0.0
 10
-0.7606255519501918
 20
0.1702224664202547
 30
0.0
 10
-0.7556743779738336
 20
0.1773448706317517
 30
0.0
 10
-0.750305035393914
 20
0.1840237258540308
 30
0.0
 10
-0.7445213253671391
 20
0.1902559762568213
 30
0.0
 10
-0.7383463461508317
 20
0.1960553983035823
 30
0.0
 10
-0.7318331976028832
 20
0.2015174910489594
 30
0.0
 10
-0.7248430064059596
 20
0.2064390588757552
 30
0.0
 10
-0.7175602653525261
 20
0.2110159195247479
 30
0.0
 10
-0.7099441335980847
 20
0.2150406346891063
 30
0.0
 10
-0.7021435825647089
 20
0.2186386014535625
 30
0.0
 10
-0.6941002598694863
 20
0.221557898110151
 30
0.0
 10
-0.6859185282850755
 20
0.2240454925069356
 30
0.0
 10
-0.6775487501298756
 20
0.225944628879623
 30
0.0
 10
-0.6689974484864696
 20
0.2272750745240899
 30
0.0
 10
-0.6602706392430852
 20
0.2281858578641424
 30
0.0
 10
-0.6543772363565897
 20
0.2282609315533888
 30
0.0
 10
-0.6514034665468782
 20
0.2282988132110464
 30
0.0
  0
SPLINE
  5
F4
330
1F
100
AcDbEntity
  8
0
  6
Continuous
 62
     7
370
    25
100
AcDbSpline
210
0.0
220
0.0
230
1.0
 70
     8
 71
     3
 72
    23
 73
    19
 74
     0
 42
0.000000001
 43
0.00000001
 40
0.0
 40
0.0
 40
0.0
 40
0.0
 40
0.065984410694279
 40
0.1298376775260097
 40
0.1923264853164008
 40
0.2536425275300623
 40
0.3149010679722003
 40
0.3765395581448094
 40
0.4394064860026823
 40
0.5035731128955243
 40
0.5677241768075025
 40
0.6300096275864548
 40
0.6913591876110217
 40
0.7517408501832353
 40
0.8122231072176319
 40
0.8732972781823892
 40
0.9357103752807189
 40
1.0
 40
1.0
 40
1.0
 40
1.0
 10
-0.6504519441109807
 20
-0.0345216996094664
 30
0.0
 10
-0.654999111317146
 20
-0.0344121748665577
 30
0.0
 10
-0.663946582745001
 20
-0.0341966627766372
 30
0.0
 10
-0.6770873054026167
 20
-0.032315201580457
 30
0.0
 10
-0.6897004210513786
 20
-0.0294094502098549
 30
0.0
 10
-0.7017607889581409
 20
-0.0252051170187929
 30
0.0
 10
-0.7132815469590786
 20
-0.0198349397017001
 30
0.0
 10
-0.7242573425330524
 20
-0.0132142771460633
 30
0.0
 10
-0.7346937543198561
 20
-0.0054348332082417
 30
0.0
 10
-0.7444367250549794
 20
0.0034525510347902
 30
0.0
 10
-0.753345683451628
 20
0.0131207871769964
 30
0.0
 10
-0.7611627362074931
 20
0.0234508613550171
 30
0.0
 10
-0.7678093430952521
 20
0.0342713584660257
 30
0.0
 10
-0.7731835206938039
 20
0.0456362369024362
 30
0.0
 10
-0.7774486488748404
 20
0.0574465574207289
 30
0.0
 10
-0.7803552180625464
 20
0.0698005427605948
 30
0.0
 10
-0.7822366064759769
 20
0.0826246513920908
 30
0.0
 10
-0.7824533470258275
 20
0.0913563064615916
 30
0.0
 10
-0.7825633223161091
 20
0.0957867939802772
 30
0.0
  0
SPLINE
  5
F5
330
1F
100
AcDbEntity
  8
0
  6
Continuous
 62
     7
370
    25
100
AcDbSpline
210
0.0
220
0.0
230
1.0
 70
     8
 71
     3
 72
    15
 73
    11
 74
     0
 42
0.000000001
 43
0.00000001
 40
0.0
 40
0.0
 40
0.0
 40
0.0
 40
0.1287770352440087
 40
0.2551818927067128
 40
0.3801502058277869
 40
0.5033630045969959
 40
0.626858645170287
 40
0.7503101344280992
 40
0.874439812691417
 40
0.9999999999999999
 40
0.9999999999999999
 40
0.9999999999999999
 40
0.9999999999999999
 10
-0.578687120393032
 20
-0.0133878855069023
 30
0.0
 10
-0.5814697698814966
 20
-0.0150788666246962
 30
0.0
 10
-0.5869838101904713
 20
-0.0184296796120611
 30
0.0
 10
-0.5955814271745669
 20
-0.022748691525784
 30
0.0
 10
-0.6043500200436429
 20
-0.0263426727944695
 30
0.0
 10
-0.6132701873931786
 20
-0.0293119566633293
 30
0.0
 10
-0.6223289365658204
 20
-0.0316886941940932
 30
0.0
 10
-0.6315722035837202
 20
-0.0333382505632486
 30
0.0
 10
-0.6409664638557997
 20
-0.0342961274098011
 30
0.0
 10
-0.6472780640051415
 20
-0.0344462222379799
 30
0.0
 10
-0.6504519441109807
 20
-0.0345216996094664
 30
0.0
  0
SPLINE
  5
FC
330
1F
100
AcDbEntity
  8
0
  6
Continuous
 62
     7
370
    25
100
AcDbSpline
210
0.0
220
0.0
230
1.0
 70
     8
 71
     3
 72
    15
 73
    11
 74
     0
 42
0.000000001
 43
0.00000001
 40
0.0
 40
0.0
 40
0.0
 40
0.0
 40
0.1342983790141684
 40
0.2620849753823006
 40
0.3862699121345001
 40
0.5071645966227991
 40
0.6273002357255066
 40
0.7481449416029943
 40
0.872370177161353
 40
1.0
 40
1.0
 40
1.0
 40
1.0
 10
0.3873084725556858
 20
0.0034891176982259
 30
0.0
 10
0.3847785589395314
 20
0.0006291467012378
 30
0.0
 10
0.3798414007051852
 20
-0.004952122662115
 30
0.0
 10
0.3715956065643661
 20
-0.0122437064114544
 30
0.0
 10
0.3628550224284742
 20
-0.018270729378601
 30
0.0
 10
0.3536620709191385
 20
-0.0231385805000577
 30
0.0
 10
0.34402505353738
 20
-0.026795155952726
 30
0.0
 10
0.3339653330176477
 20
-0.0293941673188546
 30
0.0
 10
0.3234788058129665
 20
-0.0310651555454439
 30
0.0
 10
0.3163179233279662
 20
-0.0312320142503746
 30
0.0
 10
0.3126890815300449
 20
-0.0313165714043382
 30
0.0
  0
SPLINE
  5
FD
330
1F
100
AcDbEntity
  8
0
  6
Continuous
 62
     7
370
    25
100
AcDbSpline
210
0.0
220
0.0
230
1.0
 70
     8
 71
     3
 72
    15
 73
    11
 74
     0
 42
0.000000001
 43
0.00000001
 40
0.0
 40
0.0
 40
0.0
 40
0.0
 40
0.0769954547170578
 40
0.1676150771831733
 40
0.2710523936342342
 40
0.3894595025720741
 40
0.5208428024655763
 40
0.6663987586080736
 40
0.8260936125153155
 40
1.0
 40
1.0
 40
1.0
 40
1.0
 10
0.0381998988377371
 20
0.0869726914161746
 30
0.0
 10
0.0379184953680449
 20
0.0857401769123251
 30
0.0
 10
0.0373058947351193
 20
0.0830570573119371
 30
0.0
 10
0.0366442390309151
 20
0.0786538844987529
 30
0.0
 10
0.0360436979307955
 20
0.0735603148564559
 30
0.0
 10
0.0355410580294686
 20
0.0677822922096103
 30
0.0
 10
0.0352335282815705
 20
0.0612995868440715
 30
0.0
 10
0.0348982142263092
 20
0.0541398841437864
 30
0.0
 10
0.0347761384358532
 20
0.0462746349754949
 30
0.0
 10
0.0347552560060285
 20
0.0407987997808686
 30
0.0
 10
0.0347443699915833
 20
0.0379442459033541
 30
0.0
  0
SPLINE
  5
FE
330
1F
100
AcDbEntity
  8
0
  6
Continuous
 62
     7
370
    25
100
AcDbSpline
210
0.0
220
0.0
230
1.0
 70
     8
 71
     3
 72
    15
 73
    11
 74
     0
 42
0.000000001
 43
0.00000001
 40
0.0
 40
0.0
 40
0.0
 40
0.0
 40
0.1307076167532169
 40
0.2570291278115444
 40
0.3802316977119433
 40
0.5012473315417583
 40
0.6219529799761154
 40
0.7443181763518826
 40
0.8701288996743934
 40
1.0
 40
1.0
 40
1.0
 40
1.0
 10
-0.5197428094955963
 20
0.0965880760315593
 30
0.0
 10
-0.5198629964970627
 20
0.0918568355874313
 30
0.0
 10
-0.5200993374305798
 20
0.0825531191321239
 30
0.0
 10
-0.5221106394327374
 20
0.0689102101714863
 30
0.0
 10
-0.5253444599207834
 20
0.0558780182643011
 30
0.0
 10
-0.5299304079169006
 20
0.0434650821784546
 30
0.0
 10
-0.5358590023110291
 20
0.0316736580974009
 30
0.0
 10
-0.543015707053978
 20
0.0203858306127999
 30
0.0
 10
-0.5514866895820064
 20
0.0096024000617276
 30
0.0
 10
-0.558033836375724
 20
0.0030575175971626
 30
0.0
 10
-0.5613593960340577
 20
-0.0002668919171587
 30
0.0
  0
SPLINE
  5
FF
330
1F
100
AcDbEntity
  8
0
  6
Continuous
 62
     7
370
    25
100
AcDbSpline
210
0.0
220
0.0
230
1.0
 70
     8
 71
     3
 72
    23
 73
    19
 74
     0
 42
0.000000001
 43
0.00000001
 40
0.0
 40
0.0
 40
0.0
 40
0.0
 40
0.0656670126655704
 40
0.1289742151073968
 40
0.1909276749603056
 40
0.2519487749183337
 40
0.3126942235710618
 40
0.3738296131874433
 40
0.436200909256765
 40
0.4998805412082637
 40
0.5635601731597625
 40
0.625931469229084
 40
0.6870668588454659
 40
0.7478123074981939
 40
0.8088334074562218
 40
0.8707868673091307
 40
0.9343329873344296
 40
1.0
 40
1.0
 40
1.0
 40
1.0
 10
-0.6514034665468782
 20
0.2282988132110464
 30
0.0
 10
-0.6468562823570356
 20
0.228189838341141
 30
0.0
 10
-0.6379253216200144
 20
0.2279758047230129
 30
0.0
 10
-0.6248171528675928
 20
0.2260940597703358
 30
0.0
 10
-0.6122411948903839
 20
0.223176648185596
 30
0.0
 10
-0.6002064002819452
 20
0.2189937413229471
 30
0.0
 10
-0.5887234990394273
 20
0.2136100399543855
 30
0.0
 10
-0.5777973153744476
 20
0.2069907118844126
 30
0.0
 10
-0.5674109094174843
 20
0.1992107525909312
 30
0.0
 10
-0.5577188488547372
 20
0.190322773227574
 30
0.0
 10
-0.5488308727505344
 20
0.1806307131260063
 30
0.0
 10
-0.5410509012107327
 20
0.1702443085548516
 30
0.0
 10
-0.5344316177837493
 20
0.1593181190482619
 30
0.0
 10
-0.5290477512249099
 20
0.1478352396300672
 30
0.0
 10
-0.5248654660209158
 20
0.1358003628341655
 30
0.0
 10
-0.5219419355997881
 20
0.1232085897145745
 30
0.0
 10
-0.5200691756300253
 20
0.1100823812457798
 30
0.0
 10
-0.5198527821613287
 20
0.1011351308882485
 30
0.0
 10
-0.5197428094955963
 20
0.0965880760315593
 30
0.0
  0
SPLINE
  5
100
330
1F
100
AcDbEntity
  8
0
  6
Continuous
 62
     7
370
    25
100
AcDbSpline
210
0.0
220
0.0
230
1.0
 70
     8
 71
     3
 72
    15
 73
    11
 74
     0
 42
0.000000001
 43
0.00000001
 40
0.0
 40
0.0
 40
0.0
 40
0.0
 40
0.1057142614175166
 40
0.2134116126389966
 40
0.3261267300734713
 40
0.4444516715568698
 40
0.5690610798550857
 40
0.7027122044812163
 40
0.8463179465861964
 40
1.0
 40
1.0
 40
1.0
 40
1.0
 10
-0.4351073928289295
 20
0.1577859926982259
 30
0.0
 10
-0.4331651025813841
 20
0.1577071112198414
 30
0.0
 10
-0.4292440867375088
 20
0.1575478685284234
 30
0.0
 10
-0.4233616134483589
 20
0.1562831763423707
 30
0.0
 10
-0.4174878032992553
 20
0.1542022403352656
 30
0.0
 10
-0.4116075640158538
 20
0.1513282236682381
 30
0.0
 10
-0.4057639719170357
 20
0.1476091611053674
 30
0.0
 10
-0.3999056250116264
 20
0.1431142111504875
 30
0.0
 10
-0.3939621942766157
 20
0.1378729458284036
 30
0.0
 10
-0.3902510290550881
 20
0.1338658582984047
 30
0.0
 10
-0.3883325530853398
 20
0.1317944061597644
 30
0.0
  0
SPLINE
  5
101
330
1F
100
AcDbEntity
  8
0
  6
Continuous
 62
     7
370
    25
100
AcDbSpline
210
0.0
220
0.0
230
1.0
 70
     8
 71
     3
 72
    23
 73
    19
 74
     0
 42
0.000000001
 43
0.00000001
 40
0.0
 40
0.0
 40
0.0
 40
0.0
 40
0.0679784896192548
 40
0.1330435352439079
 40
0.1965074380533954
 40
0.258613416768575
 40
0.3197283376065482
 40
0.3808728540495676
 40
0.442635602316205
 40
0.5050793035048784
 40
0.5678805200585765
 40
0.6288138541554883
 40
0.6889100905404406
 40
0.7487650058898478
 40
0.809385782963118
 40
0.8708843357532259
 40
0.9340374630737027
 40
1.0
 40
1.0
 40
1.0
 40
1.0
 10
-0.4812812710340578
 20
0.1098593100059182
 30
0.0
 10
-0.4812431142253142
 20
0.1115468384308073
 30
0.0
 10
-0.4811684359446213
 20
0.1148495706440312
 30
0.0
 10
-0.4805724322606361
 20
0.1197023435228282
 30
0.0
 10
-0.4794873100323487
 20
0.1243129259405889
 30
0.0
 10
-0.4781262441324304
 20
0.1287505590126213
 30
0.0
 10
-0.4762346009578562
 20
0.132929280015317
 30
0.0
 10
-0.4739741791617886
 20
0.1369048136603284
 30
0.0
 10
-0.4713179345243652
 20
0.1406716649462157
 30
0.0
 10
-0.4682576994637823
 20
0.1441718886667893
 30
0.0
 10
-0.4648929390892431
 20
0.1473511262601593
 30
0.0
 10
-0.4612575983938612
 20
0.150122456829543
 30
0.0
 10
-0.4574334372095164
 20
0.1524871964578597
 30
0.0
 10
-0.4534042643838705
 20
0.1544704222143736
 30
0.0
 10
-0.449131373457875
 20
0.1559705209711446
 30
0.0
 10
-0.4446446315766815
 20
0.1570031913331784
 30
0.0
 10
-0.439953120513878
 20
0.1576928486760994
 30
0.0
 10
-0.4367458972309135
 20
0.1577544975544219
 30
0.0
 10
-0.4351073928289295
 20
0.1577859926982259
 30
0.0
  0
LINE
  5
102
330
1F
100
AcDbEntity
  8
0
  6
Continuous
 62
     7
370
    25
100
AcDbLine
 10
-0.6503017037
 20
0.0744526594
 30
0.0
 11
-0.6223069121
 21
0.0744526594
 31
0.0
  0
LINE
  5
103
330
1F
100
AcDbEntity
  8
0
  6
Continuous
 62
     7
370
    25
100
AcDbLine
 10
-0.5940116396
 20
0.0054422427
 30
0.0
 11
-0.6503017037
 21
0.0744526594
 31
0.0
  0
LINE
  5
104
330
1F
100
AcDbEntity
  8
0
  6
Continuous
 62
     7
370
    25
100
AcDbLine
 10
-0.6223069121
 20
0.0744526594
 30
0.0
 11
-0.5764335146
 21
0.0182126754
 31
0.0
  0
LINE
  5
105
330
1F
100
AcDbEntity
  8
0
  6
Continuous
 62
     7
370
    25
100
AcDbLine
 10
-0.8146146044
 20
-0.0281114432
 30
0.0
 11
-0.9556402454
 21
-0.0281114432
 31
0.0
  0
LINE
  5
106
330
1F
100
AcDbEntity
  8
0
  6
Continuous
 62
     7
370
    25
100
AcDbLine
 10
-0.8146146044
 20
-0.0024704176
 30
0.0
 11
-0.8146146044
 21
-0.0281114432
 31
0.0
  0
LINE
  5
107
330
1F
100
AcDbEntity
  8
0
  6
Continuous
 62
     7
370
    25
100
AcDbLine
 10
-0.933204348
 20
-0.0024704176
 30
0.0
 11
-0.8146146044
 21
-0.0024704176
 31
0.0
  0
LINE
  5
108
330
1F
100
AcDbEntity
  8
0
  6
Continuous
 62
     7
370
    25
100
AcDbLine
 10
-0.933204348
 20
0.0936834286
 30
0.0
 11
-0.933204348
 21
-0.0024704176
 31
0.0
  0
LINE
  5
109
330
1F
100
AcDbEntity
  8
0
  6
Continuous
 62
     7
370
    25
100
AcDbLine
 10
-0.8146146044
 20
0.0936834286
 30
0.0
 11
-0.933204348
 21
0.0936834286
 31
0.0
  0
LINE
  5
10A
330
1F
100
AcDbEntity
  8
0
  6
Continuous
 62
     7
370
    25
100
AcDbLine
 10
-0.8146146044
 20
0.1193244542
 30
0.0
 11
-0.8146146044
 21
0.0936834286
 31
0.0
  0
LINE
  5
10B
330
1F
100
AcDbEntity
  8
0
  6
Continuous
 62
     7
370
    25
100
AcDbLine
 10
-0.933204348
 20
0.1193244542
 30
0.0
 11
-0.8146146044
 21
0.1193244542
 31
0.0
  0
LINE
  5
10C
330
1F
100
AcDbEntity
  8
0
  6
Continuous
 62
     7
370
    25
100
AcDbLine
 10
-0.933204348
 20
0.1962475312
 30
0.0
 11
-0.933204348
 21
0.1193244542
 31
0.0
  0
LINE
  5
10D
330
1F
100
AcDbEntity
  8
0
  6
Continuous
 62
     7
370
    25
100
AcDbLine
 10
-0.8146146044
 20
0.1962475312
 30
0.0
 11
-0.933204348
 21
0.1962475312
 31
0.0
  0
LINE
  5
10E
330
1F
100
AcDbEntity
  8
0
  6
Continuous
 62
     7
370
    25
100
AcDbLine
 10
-0.8146146044
 20
0.2218885568
 30
0.0
 11
-0.8146146044
 21
0.1962475312
 31
0.0
  0
LINE
  5
10F
330
1F
100
AcDbEntity
  8
0
  6
Continuous
 62
     7
370
    25
100
AcDbLine
 10
-0.9556402454
 20
0.2218885568
 30
0.0
 11
-0.8146146044
 21
0.2218885568
 31
0.0
  0
LINE
  5
110
330
1F
100
AcDbEntity
  8
0
  6
Continuous
 62
     7
370
    25
100
AcDbLine
 10
-0.9556402454
 20
-0.0281114432
 30
0.0
 11
-0.9556402454
 21
0.2218885568
 31
0.0
  0
LINE
  5
111
330
1F
100
AcDbEntity
  8
0
  6
Continuous
 62
     7
370
    25
100
AcDbLine
 10
-0.4908966556
 20
-0.0065769881
 30
0.0
 11
-0.4760228576
 21
0.0103500953
 31
0.0
  0
LINE
  5
112
330
1F
100
AcDbEntity
  8
0
  6
Continuous
 62
     7
370
    25
100
AcDbLine
 10
-0.3883325531
 20
0.1317944062
 30
0.0
 11
-0.4035569121
 21
0.116119326
 31
0.0
  0
LINE
  5
113
330
1F
100
AcDbEntity
  8
0
  6
Continuous
 62
     7
370
    25
100
AcDbLine
 10
-0.0614094762
 20
0.120776778
 30
0.0
 11
-0.0614094762
 21
0.1545808645
 31
0.0
  0
LINE
  5
114
330
1F
100
AcDbEntity
  8
0
  6
Continuous
 62
     7
370
    25
100
AcDbLine
 10
-0.0389735787
 20
-0.0281114432
 30
0.0
 11
-0.0614094762
 21
-0.0281114432
 31
0.0
  0
LINE
  5
115
330
1F
100
AcDbEntity
  8
0
  6
Continuous
 62
     7
370
    25
100
AcDbLine
 10
-0.0389735787
 20
0.1545808645
 30
0.0
 11
-0.0389735787
 21
-0.0281114432
 31
0.0
  0
LINE
  5
116
330
1F
100
AcDbEntity
  8
0
  6
Continuous
 62
     7
370
    25
100
AcDbLine
 10
-0.0614094762
 20
0.1545808645
 30
0.0
 11
-0.0389735787
 21
0.1545808645
 31
0.0
  0
LINE
  5
117
330
1F
100
AcDbEntity
  8
0
  6
Continuous
 62
     7
370
    25
100
AcDbLine
 10
0.3873084726
 20
0.119224294
 30
0.0
 11
0.3873084726
 21
0.2282988132
 31
0.0
  0
LINE
  5
118
330
1F
100
AcDbEntity
  8
0
  6
Continuous
 62
     7
370
    25
100
AcDbLine
 10
0.3873084726
 20
-0.0281114432
 30
0.0
 11
0.3873084726
 21
0.0034891177
 31
0.0
  0
LINE
  5
119
330
1F
100
AcDbEntity
  8
0
  6
Continuous
 62
     7
370
    25
100
AcDbLine
 10
0.40974437
 20
-0.0281114432
 30
0.0
 11
0.3873084726
 21
-0.0281114432
 31
0.0
  0
LINE
  5
11A
330
1F
100
AcDbEntity
  8
0
  6
Continuous
 62
     7
370
    25
100
AcDbLine
 10
0.40974437
 20
0.2282988132
 30
0.0
 11
0.40974437
 21
-0.0281114432
 31
0.0
  0
LINE
  5
11B
330
1F
100
AcDbEntity
  8
0
  6
Continuous
 62
     7
370
    25
100
AcDbLine
 10
0.3873084726
 20
0.2282988132
 30
0.0
 11
0.40974437
 21
0.2282988132
 31
0.0
  0
LINE
  5
11C
330
1F
100
AcDbEntity
  8
0
  6
Continuous
 62
     7
370
    25
100
AcDbLine
 10
0.7142315495
 20
-0.0281114432
 30
0.0
 11
0.691795652
 21
-0.0281114432
 31
0.0
  0
LINE
  5
11D
330
1F
100
AcDbEntity
  8
0
  6
Continuous
 62
     7
370
    25
100
AcDbLine
 10
0.7142315495
 20
0.033286794
 30
0.0
 11
0.7142315495
 21
-0.0281114432
 31
0.0
  0
LINE
  5
11E
330
1F
100
AcDbEntity
  8
0
  6
Continuous
 62
     7
370
    25
100
AcDbLine
 10
0.7783341136
 20
0.1515259767
 30
0.0
 11
0.766014402
 21
0.1320948869
 31
0.0
  0
LINE
  5
11F
330
1F
100
AcDbEntity
  8
0
  6
Continuous
 62
     7
370
    25
100
AcDbLine
 10
0.7142315495
 20
0.1545808645
 30
0.0
 11
0.7142315495
 21
0.1276878356
 31
0.0
  0
LINE
  5
120
330
1F
100
AcDbEntity
  8
0
  6
Continuous
 62
     7
370
    25
100
AcDbLine
 10
0.691795652
 20
0.1545808645
 30
0.0
 11
0.7142315495
 21
0.1545808645
 31
0.0
  0
LINE
  5
121
330
1F
100
AcDbEntity
  8
0
  6
Continuous
 62
     7
370
    25
100
AcDbLine
 10
0.691795652
 20
-0.0281114432
 30
0.0
 11
0.691795652
 21
0.1545808645
 31
0.0
  0
LINE
  5
122
330
1F
100
AcDbEntity
  8
0
  6
Continuous
 62
     7
370
    25
100
AcDbLine
 10
-1.3125
 20
-2.4175
 30
0.0
 11
1.3125
 21
-2.4175
 31
0.0
  0
LINE
  5
123
330
1F
100
AcDbEntity
  8
0
  6
Continuous
 62
     7
370
    25
100
AcDbLine
 10
-1.3125
 20
2.4175
 30
0.0
 11
-1.3125
 21
-2.4175
 31
0.0
  0
LINE
  5
124
330
1F
100
AcDbEntity
  8
0
  6
Continuous
 62
     7
370
    25
100
AcDbLine
 10
1.3125
 20
2.4175
 30
0.0
 11
-1.3125
 21
2.4175
 31
0.0
  0
LINE
  5
125
330
1F
100
AcDbEntity
  8
0
  6
Continuous
 62
     7
370
    25
100
AcDbLine
 10
1.3125
 20
-2.4175
 30
0.0
 11
1.3125
 21
2.4175
 31
0.0
  0
LINE
  5
126
330
1F
100
AcDbEntity
  8
0
  6
Continuous
 62
     7
370
    25
100
AcDbLine
 10
0.9642315495
 20
0.119224294
 30
0.0
 11
0.9642315495
 21
0.2282988132
 31
0.0
  0
LINE
  5
127
330
1F
100
AcDbEntity
  8
0
  6
Continuous
 62
     7
370
    25
100
AcDbLine
 10
0.9642315495
 20
-0.0281114432
 30
0.0
 11
0.9642315495
 21
0.0034891177
 31
0.0
  0
LINE
  5
128
330
1F
100
AcDbEntity
  8
0
  6
Continuous
 62
     7
370
    25
100
AcDbLine
 10
0.9866674469
 20
-0.0281114432
 30
0.0
 11
0.9642315495
 21
-0.0281114432
 31
0.0
  0
LINE
  5
129
330
1F
100
AcDbEntity
  8
0
  6
Continuous
 62
     7
370
    25
100
AcDbLine
 10
0.9866674469
 20
0.2282988132
 30
0.0
 11
0.9866674469
 21
-0.0281114432
 31
0.0
  0
LINE
  5
12A
330
1F
100
AcDbEntity
  8
0
  6
Continuous
 62
     7
370
    25
100
AcDbLine
 10
0.9642315495
 20
0.2282988132
 30
0.0
 11
0.9866674469
 21
0.2282988132
 31
0.0
  0
LINE
  5
12B
330
1F
100
AcDbEntity
  8
0
  6
Continuous
 62
     7
370
    25
100
AcDbLine
 10
0.6244879597
 20
0.120776778
 30
0.0
 11
0.6244879597
 21
0.1545808645
 31
0.0
  0
LINE
  5
12C
330
1F
100
AcDbEntity
  8
0
  6
Continuous
 62
     7
370
    25
100
AcDbLine
 10
0.6244879597
 20
-0.0281114432
 30
0.0
 11
0.6244879597
 21
0.0034891177
 31
0.0
  0
LINE
  5
12D
330
1F
100
AcDbEntity
  8
0
  6
Continuous
 62
     7
370
    25
100
AcDbLine
 10
0.6469238572
 20
-0.0281114432
 30
0.0
 11
0.6244879597
 21
-0.0281114432
 31
0.0
  0
LINE
  5
12E
330
1F
100
AcDbEntity
  8
0
  6
Continuous
 62
     7
370
    25
100
AcDbLine
 10
0.6469238572
 20
0.1545808645
 30
0.0
 11
0.6469238572
 21
-0.0281114432
 31
0.0
  0
LINE
  5
12F
330
1F
100
AcDbEntity
  8
0
  6
Continuous
 62
     7
370
    25
100
AcDbLine
 10
0.6244879597
 20
0.1545808645
 30
0.0
 11
0.6469238572
 21
0.1545808645
 31
0.0
  0
LINE
  5
130
330
1F
100
AcDbEntity
  8
0
  6
Continuous
 62
     7
370
    25
100
AcDbLine
 10
0.03474437
 20
-0.0281114432
 30
0.0
 11
0.0123084726
 21
-0.0281114432
 31
0.0
  0
LINE
  5
131
330
1F
100
AcDbEntity
  8
0
  6
Continuous
 62
     7
370
    25
100
AcDbLine
 10
0.03474437
 20
0.0379442459
 30
0.0
 11
0.03474437
 21
-0.0281114432
 31
0.0
  0
LINE
  5
132
330
1F
100
AcDbEntity
  8
0
  6
Continuous
 62
     7
370
    25
100
AcDbLine
 10
0.1501289854
 20
-0.0281114432
 30
0.0
 11
0.1501289854
 21
0.0578260568
 31
0.0
  0
LINE
  5
133
330
1F
100
AcDbEntity
  8
0
  6
Continuous
 62
     7
370
    25
100
AcDbLine
 10
0.1725648828
 20
-0.0281114432
 30
0.0
 11
0.1501289854
 21
-0.0281114432
 31
0.0
  0
LINE
  5
134
330
1F
100
AcDbEntity
  8
0
  6
Continuous
 62
     7
370
    25
100
AcDbLine
 10
0.03474437
 20
0.1545808645
 30
0.0
 11
0.03474437
 21
0.1216281401
 31
0.0
  0
LINE
  5
135
330
1F
100
AcDbEntity
  8
0
  6
Continuous
 62
     7
370
    25
100
AcDbLine
 10
0.0123084726
 20
0.1545808645
 30
0.0
 11
0.03474437
 21
0.1545808645
 31
0.0
  0
LINE
  5
136
330
1F
100
AcDbEntity
  8
0
  6
Continuous
 62
     7
370
    25
100
AcDbLine
 10
0.0123084726
 20
-0.0281114432
 30
0.0
 11
0.0123084726
 21
0.1545808645
 31
0.0
  0
LINE
  5
137
330
1F
100
AcDbEntity
  8
0
  6
Continuous
 62
     7
370
    25
100
AcDbLine
 10
-0.3498710146
 20
0.1545808645
 30
0.0
 11
-0.3178197326
 21
0.1545808645
 31
0.0
  0
LINE
  5
138
330
1F
100
AcDbEntity
  8
0
  6
Continuous
 62
     7
370
    25
100
AcDbLine
 10
-0.3498710146
 20
0.1321449671
 30
0.0
 11
-0.3498710146
 21
0.1545808645
 31
0.0
  0
LINE
  5
139
330
1F
100
AcDbEntity
  8
0
  6
Continuous
 62
     7
370
    25
100
AcDbLine
 10
-0.3178197326
 20
0.1321449671
 30
0.0
 11
-0.3498710146
 21
0.1321449671
 31
0.0
  0
LINE
  5
13A
330
1F
100
AcDbEntity
  8
0
  6
Continuous
 62
     7
370
    25
100
AcDbLine
 10
-0.3178197326
 20
-0.0281114432
 30
0.0
 11
-0.3178197326
 21
0.1321449671
 31
0.0
  0
LINE
  5
13B
330
1F
100
AcDbEntity
  8
0
  6
Continuous
 62
     7
370
    25
100
AcDbLine
 10
-0.2953838351
 20
-0.0281114432
 30
0.0
 11
-0.3178197326
 21
-0.0281114432
 31
0.0
  0
LINE
  5
13C
330
1F
100
AcDbEntity
  8
0
  6
Continuous
 62
     7
370
    25
100
AcDbLine
 10
-0.2953838351
 20
0.1321449671
 30
0.0
 11
-0.2953838351
 21
-0.0281114432
 31
0.0
  0
LINE
  5
13D
330
1F
100
AcDbEntity
  8
0
  6
Continuous
 62
     7
370
    25
100
AcDbLine
 10
-0.2633325531
 20
0.1321449671
 30
0.0
 11
-0.2953838351
 21
0.1321449671
 31
0.0
  0
LINE
  5
13E
330
1F
100
AcDbEntity
  8
0
  6
Continuous
 62
     7
370
    25
100
AcDbLine
 10
-0.2633325531
 20
0.1545808645
 30
0.0
 11
-0.2633325531
 21
0.1321449671
 31
0.0
  0
LINE
  5
13F
330
1F
100
AcDbEntity
  8
0
  6
Continuous
 62
     7
370
    25
100
AcDbLine
 10
-0.2953838351
 20
0.1545808645
 30
0.0
 11
-0.2633325531
 21
0.1545808645
 31
0.0
  0
LINE
  5
140
330
1F
100
AcDbEntity
  8
0
  6
Continuous
 62
     7
370
    25
100
AcDbLine
 10
-0.2953838351
 20
0.2282988132
 30
0.0
 11
-0.2953838351
 21
0.1545808645
 31
0.0
  0
LINE
  5
141
330
1F
100
AcDbEntity
  8
0
  6
Continuous
 62
     7
370
    25
100
AcDbLine
 10
-0.3178197326
 20
0.2282988132
 30
0.0
 11
-0.2953838351
 21
0.2282988132
 31
0.0
  0
LINE
  5
142
330
1F
100
AcDbEntity
  8
0
  6
Continuous
 62
     7
370
    25
100
AcDbLine
 10
-0.5509427294
 20
-0.0473422124
 30
0.0
 11
-0.5786871204
 21
-0.0133878855
 31
0.0
  0
LINE
  5
143
330
1F
100
AcDbEntity
  8
0
  6
Continuous
 62
     7
370
    25
100
AcDbLine
 10
-0.5229479377
 20
-0.0473422124
 30
0.0
 11
-0.5509427294
 21
-0.0473422124
 31
0.0
  0
LINE
  5
144
330
1F
100
AcDbEntity
  8
0
  6
Continuous
 62
     7
370
    25
100
AcDbLine
 10
-0.561359396
 20
-0.0002668919
 30
0.0
 11
-0.5229479377
 21
-0.0473422124
 31
0.0
  0
LINE
  5
145
330
1F
100
AcDbEntity
  8
0
  6
Continuous
 62
     7
370
    25
100
AcDbLine
 10
0.1725648828
 20
0.0651878356
 30
0.0
 11
0.1725648828
 21
-0.0281114432
 31
0.0
  0
LINE
  5
146
330
1F
100
AcDbEntity
  8
0
  6
Continuous
 62
     7
370
    25
100
AcDbLine
 10
-0.3178197326
 20
0.1545808645
 30
0.0
 11
-0.3178197326
 21
0.2282988132
 31
0.0
  0
LINE
  5
147
330
1F
100
AcDbEntity
  8
0
  6
Continuous
 62
     7
370
    25
100
AcDbLine
 10
-0.0614094762
 20
-0.0281114432
 30
0.0
 11
-0.0614094762
 21
0.0034891177
 31
0.0
  0
MTEXT
  5
149
330
1F
100
AcDbEntity
  8
0
  6
Continuous
 62
     7
100
AcDbMText
 10
-1.3125
 20
-2.4576404091
 30
0.0
 40
0.1903
 41
0.0
 71
     1
 72
     1
  1
SOLIDWORKS Educational Product.
  7
SLDTEXTSTYLE0
 73
     1
 44
1.0
  0
MTEXT
  5
14A
330
1F
100
AcDbEntity
  8
0
  6
Continuous
 62
     7
100
AcDbMText
 10
-1.3125
 20
-2.7430904091
 30
0.0
 40
0.1903
 41
0.0
 71
     1
 72
     1
  1
For Instructional Use Only.
  7
SLDTEXTSTYLE0
 73
     1
 44
1.0
  0
ENDSEC
  0
SECTION
  2
OBJECTS
  0
DICTIONARY
  5
C
330
0
100
AcDbDictionary
281
     1
  3
ACAD_GROUP
350
D
  3
ACAD_LAYOUT
350
1A
  3
ACAD_MLINESTYLE
350
17
  3
ACAD_PLOTSETTINGS
350
19
  3
ACAD_PLOTSTYLENAME
350
E
  3
ACAD_SCALELIST
350
47
  0
DICTIONARY
  5
D
102
{ACAD_REACTORS
330
C
102
}
330
C
100
AcDbDictionary
281
     1
  0
DICTIONARY
  5
1A
102
{ACAD_REACTORS
330
C
102
}
330
C
100
AcDbDictionary
281
     1
  3
Layout1
350
1E
  3
Layout2
350
26
  3
Model
350
22
  0
DICTIONARY
  5
17
102
{ACAD_REACTORS
330
C
102
}
330
C
100
AcDbDictionary
281
     1
  3
Standard
350
18
  0
DICTIONARY
  5
19
102
{ACAD_REACTORS
330
C
102
}
330
C
100
AcDbDictionary
281
     1
  0
ACDBDICTIONARYWDFLT
  5
E
102
{ACAD_REACTORS
330
C
102
}
330
C
100
AcDbDictionary
281
     1
  3
Normal
350
F
100
AcDbDictionaryWithDefault
340
F
  0
DICTIONARY
  5
47
102
{ACAD_REACTORS
330
C
102
}
330
C
100
AcDbDictionary
281
     1
  3
A0
350
48
  3
A1
350
49
  3
A2
350
4A
  3
A3
350
4B
  3
A4
350
4C
  3
A5
350
4D
  3
A6
350
4E
  3
A7
350
4F
  3
A8
350
50
  3
A9
350
51
  3
B0
350
52
  3
B1
350
53
  3
B2
350
54
  3
B3
350
55
  3
B4
350
56
  3
B5
350
57
  3
B6
350
58
  3
B7
350
59
  3
B8
350
5A
  3
B9
350
5B
  3
C0
350
5C
  3
C1
350
5D
  3
C2
350
5E
  3
C3
350
5F
  3
C4
350
60
  3
C5
350
61
  3
C6
350
62
  3
C7
350
63
  3
C8
350
64
  3
C9
350
65
  3
D0
350
66
  3
D1
350
67
  3
D2
350
68
  0
LAYOUT
  5
1E
102
{ACAD_REACTORS
330
1A
102
}
330
1A
100
AcDbPlotSettings
  1

  2
none_device
  4

  6

 40
0.0
 41
0.0
 42
0.0
 43
0.0
 44
0.0
 45
0.0
 46
0.0
 47
0.0
 48
0.0
 49
0.0
140
0.0
141
0.0
142
1.0
143
1.0
 70
   688
 72
     0
 73
     0
 74
     5
  7

 75
    16
147
1.0
148
0.0
149
0.0
100
AcDbLayout
  1
Layout1
 70
     1
 71
     1
 10
0.0
 20
0.0
 11
12.0
 21
9.0
 12
0.0
 22
0.0
 32
0.0
 14
1.0000000000E+20
 24
1.0000000000E+20
 34
1.0000000000E+20
 15
-1.0000000000E+20
 25
-1.0000000000E+20
 35
-1.0000000000E+20
146
0.0
 13
0.0
 23
0.0
 33
0.0
 16
1.0
 26
0.0
 36
0.0
 17
0.0
 27
1.0
 37
0.0
 76
     0
330
1B
  0
LAYOUT
  5
26
102
{ACAD_REACTORS
330
1A
102
}
330
1A
100
AcDbPlotSettings
  1

  2
none_device
  4

  6

 40
0.0
 41
0.0
 42
0.0
 43
0.0
 44
0.0
 45
0.0
 46
0.0
 47
0.0
 48
0.0
 49
0.0
140
0.0
141
0.0
142
1.0
143
1.0
 70
   688
 72
     0
 73
     0
 74
     5
  7

 75
    16
147
1.0
148
0.0
149
0.0
100
AcDbLayout
  1
Layout2
 70
     1
 71
     2
 10
0.0
 20
0.0
 11
0.0
 21
0.0
 12
0.0
 22
0.0
 32
0.0
 14
0.0
 24
0.0
 34
0.0
 15
0.0
 25
0.0
 35
0.0
146
0.0
 13
0.0
 23
0.0
 33
0.0
 16
1.0
 26
0.0
 36
0.0
 17
0.0
 27
1.0
 37
0.0
 76
     0
330
23
  0
LAYOUT
  5
22
102
{ACAD_REACTORS
330
1A
102
}
330
1A
100
AcDbPlotSettings
  1

  2
none_device
  4
ANSI_A_(11.00_x_8.50_Inches)
  6

 40
6.35
 41
19.05
 42
6.35000508
 43
19.05000254
 44
279.4
 45
215.9
 46
133.34999746
 47
88.89999873
 48
0.0
 49
0.0
140
0.0
141
0.0
142
1.740434333
143
1.0
 70
  1696
 72
     0
 73
     0
 74
     0
  7

 75
     0
147
0.5913241897
148
-39.4088153714
149
0.0
100
AcDbLayout
  1
Model
 70
     1
 71
     0
 10
0.0
 20
0.0
 11
12.0
 21
9.0
 12
0.0
 22
0.0
 32
0.0
 14
-1.3125
 24
-2.4175
 34
0.0
 15
1.3125
 25
2.4175
 35
0.0
146
0.0
 13
0.0
 23
0.0
 33
0.0
 16
1.0
 26
0.0
 36
0.0
 17
0.0
 27
1.0
 37
0.0
 76
     0
330
1F
331
29
  0
MLINESTYLE
  5
18
102
{ACAD_REACTORS
330
17
102
}
330
17
100
AcDbMlineStyle
  2
Standard
 70
     0
  3

 62
   256
 51
90.0
 52
90.0
 71
     2
 49
0.5
 62
   256
  6
BYLAYER
 49
-0.5
 62
   256
  6
BYLAYER
  0
ACDBPLACEHOLDER
  5
F
102
{ACAD_REACTORS
330
E
102
}
330
E
  0
SCALE
  5
48
102
{ACAD_REACTORS
330
47
102
}
330
47
100
AcDbScale
 70
     0
300
1:1
140
1.0
141
1.0
290
     1
  0
SCALE
  5
49
102
{ACAD_REACTORS
330
47
102
}
330
47
100
AcDbScale
 70
     0
300
1:2
140
1.0
141
2.0
290
     0
  0
SCALE
  5
4A
102
{ACAD_REACTORS
330
47
102
}
330
47
100
AcDbScale
 70
     0
300
1:4
140
1.0
141
4.0
290
     0
  0
SCALE
  5
4B
102
{ACAD_REACTORS
330
47
102
}
330
47
100
AcDbScale
 70
     0
300
1:5
140
1.0
141
5.0
290
     0
  0
SCALE
  5
4C
102
{ACAD_REACTORS
330
47
102
}
330
47
100
AcDbScale
 70
     0
300
1:8
140
1.0
141
8.0
290
     0
  0
SCALE
  5
4D
102
{ACAD_REACTORS
330
47
102
}
330
47
100
AcDbScale
 70
     0
300
1:10
140
1.0
141
10.0
290
     0
  0
SCALE
  5
4E
102
{ACAD_REACTORS
330
47
102
}
330
47
100
AcDbScale
 70
     0
300
1:16
140
1.0
141
16.0
290
     0
  0
SCALE
  5
4F
102
{ACAD_REACTORS
330
47
102
}
330
47
100
AcDbScale
 70
     0
300
1:20
140
1.0
141
20.0
290
     0
  0
SCALE
  5
50
102
{ACAD_REACTORS
330
47
102
}
330
47
100
AcDbScale
 70
     0
300
1:30
140
1.0
141
30.0
290
     0
  0
SCALE
  5
51
102
{ACAD_REACTORS
330
47
102
}
330
47
100
AcDbScale
 70
     0
300
1:40
140
1.0
141
40.0
290
     0
  0
SCALE
  5
52
102
{ACAD_REACTORS
330
47
102
}
330
47
100
AcDbScale
 70
     0
300
1:50
140
1.0
141
50.0
290
     0
  0
SCALE
  5
53
102
{ACAD_REACTORS
330
47
102
}
330
47
100
AcDbScale
 70
     0
300
1:100
140
1.0
141
100.0
290
     0
  0
SCALE
  5
54
102
{ACAD_REACTORS
330
47
102
}
330
47
100
AcDbScale
 70
     0
300
2:1
140
2.0
141
1.0
290
     0
  0
SCALE
  5
55
102
{ACAD_REACTORS
330
47
102
}
330
47
100
AcDbScale
 70
     0
300
4:1
140
4.0
141
1.0
290
     0
  0
SCALE
  5
56
102
{ACAD_REACTORS
330
47
102
}
330
47
100
AcDbScale
 70
     0
300
8:1
140
8.0
141
1.0
290
     0
  0
SCALE
  5
57
102
{ACAD_REACTORS
330
47
102
}
330
47
100
AcDbScale
 70
     0
300
10:1
140
10.0
141
1.0
290
     0
  0
SCALE
  5
58
102
{ACAD_REACTORS
330
47
102
}
330
47
100
AcDbScale
 70
     0
300
100:1
140
100.0
141
1.0
290
     0
  0
SCALE
  5
59
102
{ACAD_REACTORS
330
47
102
}
330
47
100
AcDbScale
 70
     0
300
1/128" = 1'-0"
140
0.0078125
141
12.0
290
     0
  0
SCALE
  5
5A
102
{ACAD_REACTORS
330
47
102
}
330
47
100
AcDbScale
 70
     0
300
1/64" = 1'-0"
140
0.015625
141
12.0
290
     0
  0
SCALE
  5
5B
102
{ACAD_REACTORS
330
47
102
}
330
47
100
AcDbScale
 70
     0
300
1/32" = 1'-0"
140
0.03125
141
12.0
290
     0
  0
SCALE
  5
5C
102
{ACAD_REACTORS
330
47
102
}
330
47
100
AcDbScale
 70
     0
300
1/16" = 1'-0"
140
0.0625
141
12.0
290
     0
  0
SCALE
  5
5D
102
{ACAD_REACTORS
330
47
102
}
330
47
100
AcDbScale
 70
     0
300
3/32" = 1'-0"
140
0.09375
141
12.0
290
     0
  0
SCALE
  5
5E
102
{ACAD_REACTORS
330
47
102
}
330
47
100
AcDbScale
 70
     0
300
1/8" = 1'-0"
140
0.125
141
12.0
290
     0
  0
SCALE
  5
5F
102
{ACAD_REACTORS
330
47
102
}
330
47
100
AcDbScale
 70
     0
300
3/16" = 1'-0"
140
0.1875
141
12.0
290
     0
  0
SCALE
  5
60
102
{ACAD_REACTORS
330
47
102
}
330
47
100
AcDbScale
 70
     0
300
1/4" = 1'-0"
140
0.25
141
12.0
290
     0
  0
SCALE
  5
61
102
{ACAD_REACTORS
330
47
102
}
330
47
100
AcDbScale
 70
     0
300
3/8" = 1'-0"
140
0.375
141
12.0
290
     0
  0
SCALE
  5
62
102
{ACAD_REACTORS
330
47
102
}
330
47
100
AcDbScale
 70
     0
300
1/2" = 1'-0"
140
0.5
141
12.0
290
     0
  0
SCALE
  5
63
102
{ACAD_REACTORS
330
47
102
}
330
47
100
AcDbScale
 70
     0
300
3/4" = 1'-0"
140
0.75
141
12.0
290
     0
  0
SCALE
  5
64
102
{ACAD_REACTORS
330
47
102
}
330
47
100
AcDbScale
 70
     0
300
1" = 1'-0"
140
1.0
141
12.0
290
     0
  0
SCALE
  5
65
102
{ACAD_REACTORS
330
47
102
}
330
47
100
AcDbScale
 70
     0
300
1-1/2" = 1'-0"
140
1.5
141
12.0
290
     0
  0
SCALE
  5
66
102
{ACAD_REACTORS
330
47
102
}
330
47
100
AcDbScale
 70
     0
300
3" = 1'-0"
140
3.0
141
12.0
290
     0
  0
SCALE
  5
67
102
{ACAD_REACTORS
330
47
102
}
330
47
100
AcDbScale
 70
     0
300
6" = 1'-0"
140
6.0
141
12.0
290
     0
  0
SCALE
  5
68
102
{ACAD_REACTORS
330
47
102
}
330
47
100
AcDbScale
 70
     0
300
1'-0" = 1'-0"
140
12.0
141
12.0
290
     0
  0
ENDSEC
  0
EOF
