  0
SECTION
  2
HEADER
  9
$ACADVER
  1
AC1015
  9
$ACADMAINTVER
 70
     6
  9
$DWGCODEPAGE
  3
ANSI_1252
  9
$INSBASE
 10
0.0
 20
0.0
 30
0.0
  9
$EXTMIN
 10
-1.375
 20
-2.375
 30
0.0
  9
$EXTMAX
 10
1.375
 20
2.375
 30
0.0
  9
$LIMMIN
 10
0.0
 20
0.0
  9
$LIMMAX
 10
12.0
 20
9.0
  9
$ORTHOMODE
 70
     0
  9
$REGENMODE
 70
     1
  9
$FILLMODE
 70
     1
  9
$QTEXTMODE
 70
     0
  9
$MIRRTEXT
 70
     1
  9
$LTSCALE
 40
1.0
  9
$ATTMODE
 70
     1
  9
$TEXTSIZE
 40
0.125
  9
$TRACEWID
 40
0.05
  9
$TEXTSTYLE
  7
Standard
  9
$CLAYER
  8
0
  9
$CELTYPE
  6
ByLayer
  9
$CECOLOR
 62
   256
  9
$CELTSCALE
 40
1.0
  9
$DISPSILH
 70
     0
  9
$DIMSCALE
 40
1.0
  9
$DIMASZ
 40
0.13
  9
$DIMEXO
 40
0.05
  9
$DIMDLI
 40
0.38
  9
$DIMRND
 40
0.0
  9
$DIMDLE
 40
0.0
  9
$DIMEXE
 40
0.125
  9
$DIMTP
 40
0.0
  9
$DIMTM
 40
0.0
  9
$DIMTXT
 40
0.125
  9
$DIMCEN
 40
0.09
  9
$DIMTSZ
 40
0.0
  9
$DIMTOL
 70
     0
  9
$DIMLIM
 70
     0
  9
$DIMTIH
 70
     1
  9
$DIMTOH
 70
     1
  9
$DIMSE1
 70
     0
  9
$DIMSE2
 70
     0
  9
$DIMTAD
 70
     0
  9
$DIMZIN
 70
     1
  9
$DIMBLK
  1

  9
$DIMASO
 70
     1
  9
$DIMSHO
 70
     1
  9
$DIMPOST
  1

  9
$DIMAPOST
  1

  9
$DIMALT
 70
     0
  9
$DIMALTD
 70
     2
  9
$DIMALTF
 40
25.4
  9
$DIMLFAC
 40
1.0
  9
$DIMTOFL
 70
     0
  9
$DIMTVP
 40
0.0
  9
$DIMTIX
 70
     0
  9
$DIMSOXD
 70
     0
  9
$DIMSAH
 70
     0
  9
$DIMBLK1
  1

  9
$DIMBLK2
  1

  9
$DIMSTYLE
  2
Standard
  9
$DIMCLRD
 70
     0
  9
$DIMCLRE
 70
     0
  9
$DIMCLRT
 70
     0
  9
$DIMTFAC
 40
1.0
  9
$DIMGAP
 40
0.06
  9
$DIMJUST
 70
     0
  9
$DIMSD1
 70
     0
  9
$DIMSD2
 70
     0
  9
$DIMTOLJ
 70
     1
  9
$DIMTZIN
 70
     1
  9
$DIMALTZ
 70
     0
  9
$DIMALTTZ
 70
     0
  9
$DIMUPT
 70
     0
  9
$DIMDEC
 70
     2
  9
$DIMTDEC
 70
     2
  9
$DIMALTU
 70
     2
  9
$DIMALTTD
 70
     2
  9
$DIMTXSTY
  7
Standard
  9
$DIMAUNIT
 70
     0
  9
$DIMADEC
 70
     2
  9
$DIMALTRND
 40
0.0
  9
$DIMAZIN
 70
     0
  9
$DIMDSEP
 70
    46
  9
$DIMATFIT
 70
     3
  9
$DIMFRAC
 70
     0
  9
$DIMLDRBLK
  1

  9
$DIMLUNIT
 70
     2
  9
$DIMLWD
 70
    -2
  9
$DIMLWE
 70
    -2
  9
$DIMTMOVE
 70
     0
  9
$LUNITS
 70
     2
  9
$LUPREC
 70
     2
  9
$SKETCHINC
 40
0.1
  9
$FILLETRAD
 40
0.5
  9
$AUNITS
 70
     0
  9
$AUPREC
 70
     2
  9
$MENU
  1
.
  9
$ELEVATION
 40
0.0
  9
$PELEVATION
 40
0.0
  9
$THICKNESS
 40
0.0
  9
$LIMCHECK
 70
     0
  9
$CHAMFERA
 40
0.0
  9
$CHAMFERB
 40
0.0
  9
$CHAMFERC
 40
0.0
  9
$CHAMFERD
 40
0.0
  9
$SKPOLY
 70
     0
  9
$TDCREATE
 40
2458403.479847824
  9
$TDUCREATE
 40
2458403.646514491
  9
$TDUPDATE
 40
2458403.479944606
  9
$TDUUPDATE
 40
2458403.646611273
  9
$TDINDWG
 40
0.0000000116
  9
$TDUSRTIMER
 40
0.0000000116
  9
$USRTIMER
 70
     1
  9
$ANGBASE
 50
0.0
  9
$ANGDIR
 70
     0
  9
$PDMODE
 70
     0
  9
$PDSIZE
 40
-1.0
  9
$PLINEWID
 40
0.0
  9
$SPLFRAME
 70
     0
  9
$SPLINETYPE
 70
     6
  9
$SPLINESEGS
 70
     8
  9
$HANDSEED
  5
14D
  9
$SURFTAB1
 70
     6
  9
$SURFTAB2
 70
     6
  9
$SURFTYPE
 70
     6
  9
$SURFU
 70
     6
  9
$SURFV
 70
     6
  9
$UCSBASE
  2

  9
$UCSNAME
  2

  9
$UCSORG
 10
0.0
 20
0.0
 30
0.0
  9
$UCSXDIR
 10
1.0
 20
0.0
 30
0.0
  9
$UCSYDIR
 10
0.0
 20
1.0
 30
0.0
  9
$UCSORTHOREF
  2

  9
$UCSORTHOVIEW
 70
     0
  9
$UCSORGTOP
 10
0.0
 20
0.0
 30
0.0
  9
$UCSORGBOTTOM
 10
0.0
 20
0.0
 30
0.0
  9
$UCSORGLEFT
 10
0.0
 20
0.0
 30
0.0
  9
$UCSORGRIGHT
 10
0.0
 20
0.0
 30
0.0
  9
$UCSORGFRONT
 10
0.0
 20
0.0
 30
0.0
  9
$UCSORGBACK
 10
0.0
 20
0.0
 30
0.0
  9
$PUCSBASE
  2

  9
$PUCSNAME
  2

  9
$PUCSORG
 10
0.0
 20
0.0
 30
0.0
  9
$PUCSXDIR
 10
1.0
 20
0.0
 30
0.0
  9
$PUCSYDIR
 10
0.0
 20
1.0
 30
0.0
  9
$PUCSORTHOREF
  2

  9
$PUCSORTHOVIEW
 70
     0
  9
$PUCSORGTOP
 10
0.0
 20
0.0
 30
0.0
  9
$PUCSORGBOTTOM
 10
0.0
 20
0.0
 30
0.0
  9
$PUCSORGLEFT
 10
0.0
 20
0.0
 30
0.0
  9
$PUCSORGRIGHT
 10
0.0
 20
0.0
 30
0.0
  9
$PUCSORGFRONT
 10
0.0
 20
0.0
 30
0.0
  9
$PUCSORGBACK
 10
0.0
 20
0.0
 30
0.0
  9
$USERI1
 70
     0
  9
$USERI2
 70
     0
  9
$USERI3
 70
     0
  9
$USERI4
 70
     0
  9
$USERI5
 70
     0
  9
$USERR1
 40
0.0
  9
$USERR2
 40
0.0
  9
$USERR3
 40
0.0
  9
$USERR4
 40
0.0
  9
$USERR5
 40
0.0
  9
$WORLDVIEW
 70
     1
  9
$SHADEDGE
 70
     3
  9
$SHADEDIF
 70
    70
  9
$TILEMODE
 70
     1
  9
$MAXACTVP
 70
    64
  9
$PINSBASE
 10
0.0
 20
0.0
 30
0.0
  9
$PLIMCHECK
 70
     0
  9
$PEXTMIN
 10
1.0000000000E+20
 20
1.0000000000E+20
 30
1.0000000000E+20
  9
$PEXTMAX
 10
-1.0000000000E+20
 20
-1.0000000000E+20
 30
-1.0000000000E+20
  9
$PLIMMIN
 10
0.0
 20
0.0
  9
$PLIMMAX
 10
12.0
 20
9.0
  9
$UNITMODE
 70
     0
  9
$VISRETAIN
 70
     1
  9
$PLINEGEN
 70
     0
  9
$PSLTSCALE
 70
     1
  9
$TREEDEPTH
 70
  3020
  9
$CMLSTYLE
  2
Standard
  9
$CMLJUST
 70
     0
  9
$CMLSCALE
 40
1.0
  9
$PROXYGRAPHICS
 70
     1
  9
$MEASUREMENT
 70
     0
  9
$CELWEIGHT
370
    -1
  9
$ENDCAPS
280
     0
  9
$JOINSTYLE
280
     0
  9
$LWDISPLAY
290
     1
  9
$INSUNITS
 70
     1
  9
$HYPERLINKBASE
  1

  9
$STYLESHEET
  1

  9
$XEDIT
290
     1
  9
$CEPSNTYPE
380
     0
  9
$PSTYLEMODE
290
     1
  9
$FINGERPRINTGUID
  2
{15EE3C0B-2CD3-42AE-9962-789B250F9B0A}
  9
$VERSIONGUID
  2
{FAEB1C32-E019-11D5-929B-00C0DF256EC4}
  9
$EXTNAMES
290
     1
  9
$PSVPSCALE
 40
0.0
  9
$OLESTARTUP
290
     0
  0
ENDSEC
  0
SECTION
  2
CLASSES
  0
CLASS
  1
ACDBDICTIONARYWDFLT
  2
AcDbDictionaryWithDefault
  3
ObjectDBX Classes
 90
        0
280
     0
281
     0
  0
CLASS
  1
VISUALSTYLE
  2
AcDbVisualStyle
  3
ObjectDBX Classes
 90
     4095
280
     0
281
     0
  0
CLASS
  1
MATERIAL
  2
AcDbMaterial
  3
ObjectDBX Classes
 90
     1153
280
     0
281
     0
  0
CLASS
  1
SCALE
  2
AcDbScale
  3
ObjectDBX Classes
 90
     1153
280
     0
281
     0
  0
CLASS
  1
TABLESTYLE
  2
AcDbTableStyle
  3
ObjectDBX Classes
 90
     4095
280
     0
281
     0
  0
CLASS
  1
MLEADERSTYLE
  2
AcDbMLeaderStyle
  3
ACDB_MLEADERSTYLE_CLASS
 90
     4095
280
     0
281
     0
  0
CLASS
  1
SUN
  2
AcDbSun
  3
SCENEOE
 90
     1153
280
     0
281
     0
  0
CLASS
  1
ACDBPLACEHOLDER
  2
AcDbPlaceHolder
  3
ObjectDBX Classes
 90
        0
280
     0
281
     0
  0
CLASS
  1
LAYOUT
  2
AcDbLayout
  3
ObjectDBX Classes
 90
        0
280
     0
281
     0
  0
ENDSEC
  0
SECTION
  2
TABLES
  0
TABLE
  2
VPORT
  5
8
330
0
100
AcDbSymbolTable
 70
     1
  0
VPORT
  5
29
330
8
100
AcDbSymbolTableRecord
100
AcDbViewportTableRecord
  2
*Active
 70
     0
 10
0.0
 20
0.0
 11
1.0
 21
1.0
 12
0.0
 22
0.0
 13
0.0
 23
0.0
 14
0.5
 24
0.5
 15
0.5
 25
0.5
 16
0.0
 26
0.0
 36
1.0
 17
0.0
 27
0.0
 37
0.0
 40
4.845
 41
0.5789473684
 42
50.0
 43
0.0
 44
0.0
 50
0.0
 51
0.0
 71
     0
 72
   100
 73
     1
 74
     3
 75
     0
 76
     0
 77
     0
 78
     0
281
     0
 65
     1
110
0.0
120
0.0
130
0.0
111
1.0
121
0.0
131
0.0
112
0.0
122
1.0
132
0.0
 79
     0
146
0.0
  0
ENDTAB
  0
TABLE
  2
LTYPE
  5
5
330
0
100
AcDbSymbolTable
 70
     6
  0
LTYPE
  5
14
330
5
100
AcDbSymbolTableRecord
100
AcDbLinetypeTableRecord
  2
ByBlock
 70
     0
  3

 72
    65
 73
     0
 40
0.0
  0
LTYPE
  5
15
330
5
100
AcDbSymbolTableRecord
100
AcDbLinetypeTableRecord
  2
ByLayer
 70
     0
  3

 72
    65
 73
     0
 40
0.0
  0
LTYPE
  5
16
330
5
100
AcDbSymbolTableRecord
100
AcDbLinetypeTableRecord
  2
Continuous
 70
     0
  3
Solid line
 72
    65
 73
     0
 40
0.0
  0
LTYPE
  5
6E
330
5
100
AcDbSymbolTableRecord
100
AcDbLinetypeTableRecord
  2
HIDDEN
 70
     0
  3
Hidden __ __ __ __ __ __ __ __ __ __ __ __ __ __
 72
    65
 73
     2
 40
0.075
 49
0.05
 74
     0
 49
-0.025
 74
     0
  0
LTYPE
  5
6F
330
5
100
AcDbSymbolTableRecord
100
AcDbLinetypeTableRecord
  2
PHANTOM
 70
     0
  3
Phantom ______  __  __  ______  __  __  ______
 72
    65
 73
     6
 40
0.5
 49
0.25
 74
     0
 49
-0.05
 74
     0
 49
0.05
 74
     0
 49
-0.05
 74
     0
 49
0.05
 74
     0
 49
-0.05
 74
     0
  0
LTYPE
  5
70
330
5
100
AcDbSymbolTableRecord
100
AcDbLinetypeTableRecord
  2
CENTER
 70
     0
  3
Center ____ _ ____ _ ____ _ ____ _ ____ _ ____
 72
    65
 73
     4
 40
0.4
 49
0.25
 74
     0
 49
-0.05
 74
     0
 49
0.05
 74
     0
 49
-0.05
 74
     0
  0
LTYPE
  5
71
330
5
100
AcDbSymbolTableRecord
100
AcDbLinetypeTableRecord
  2
CENTERX2
 70
     0
  3
Center (2x) ________  __  ________  __  _____
 72
    65
 73
     4
 40
0.8
 49
0.5
 74
     0
 49
-0.1
 74
     0
 49
0.1
 74
     0
 49
-0.1
 74
     0
  0
LTYPE
  5
72
330
5
100
AcDbSymbolTableRecord
100
AcDbLinetypeTableRecord
  2
DOT2
 70
     0
  3
Dot (.5x) ........................................
 72
    65
 73
     2
 40
0.025
 49
0.0
 74
     0
 49
-0.025
 74
     0
  0
ENDTAB
  0
TABLE
  2
LAYER
  5
2
330
0
100
AcDbSymbolTable
 70
     1
  0
LAYER
  5
10
330
2
100
AcDbSymbolTableRecord
100
AcDbLayerTableRecord
  2
0
 70
     0
 62
     7
  6
Continuous
370
    -3
390
F
  0
ENDTAB
  0
TABLE
  2
STYLE
  5
3
330
0
100
AcDbSymbolTable
 70
     2
  0
STYLE
  5
11
330
3
100
AcDbSymbolTableRecord
100
AcDbTextStyleTableRecord
  2
Standard
 70
     0
 40
0.0
 41
1.0
 50
0.0
 71
     0
 42
0.125
  3
txt
  4

  0
STYLE
  5
14A
330
3
100
AcDbSymbolTableRecord
100
AcDbTextStyleTableRecord
  2
SLDTEXTSTYLE0
 70
     0
 40
0.0
 41
0.7
 50
0.0
 71
     0
 42
0.125
  3
TXT
  4

  0
ENDTAB
  0
TABLE
  2
VIEW
  5
6
330
0
100
AcDbSymbolTable
 70
     0
  0
ENDTAB
  0
TABLE
  2
UCS
  5
7
330
0
100
AcDbSymbolTable
 70
     0
  0
ENDTAB
  0
TABLE
  2
APPID
  5
9
330
0
100
AcDbSymbolTable
 70
     1
  0
APPID
  5
12
330
9
100
AcDbSymbolTableRecord
100
AcDbRegAppTableRecord
  2
ACAD
 70
     0
  0
ENDTAB
  0
TABLE
  2
DIMSTYLE
  5
A
330
0
100
AcDbSymbolTable
 70
     1
100
AcDbDimStyleTable
  0
DIMSTYLE
105
27
330
A
100
AcDbSymbolTableRecord
100
AcDbDimStyleTableRecord
  2
Standard
 70
     0
178
     0
340
11
  0
ENDTAB
  0
TABLE
  2
BLOCK_RECORD
  5
1
330
0
100
AcDbSymbolTable
 70
     1
  0
BLOCK_RECORD
  5
1F
330
1
100
AcDbSymbolTableRecord
100
AcDbBlockTableRecord
  2
*Model_Space
340
22
  0
BLOCK_RECORD
  5
1B
330
1
100
AcDbSymbolTableRecord
100
AcDbBlockTableRecord
  2
*Paper_Space
340
1E
  0
BLOCK_RECORD
  5
23
330
1
100
AcDbSymbolTableRecord
100
AcDbBlockTableRecord
  2
*Paper_Space0
340
26
  0
ENDTAB
  0
ENDSEC
  0
SECTION
  2
BLOCKS
  0
BLOCK
  5
20
330
1F
100
AcDbEntity
  8
0
100
AcDbBlockBegin
  2
*Model_Space
 70
     0
 10
0.0
 20
0.0
 30
0.0
  3
*Model_Space
  1

  0
ENDBLK
  5
21
330
1F
100
AcDbEntity
  8
0
100
AcDbBlockEnd
  0
BLOCK
  5
1C
330
1B
100
AcDbEntity
 67
     1
  8
0
100
AcDbBlockBegin
  2
*Paper_Space
 70
     0
 10
0.0
 20
0.0
 30
0.0
  3
*Paper_Space
  1

  0
ENDBLK
  5
1D
330
1B
100
AcDbEntity
 67
     1
  8
0
100
AcDbBlockEnd
  0
BLOCK
  5
24
330
23
100
AcDbEntity
  8
0
100
AcDbBlockBegin
  2
*Paper_Space0
 70
     0
 10
0.0
 20
0.0
 30
0.0
  3
*Paper_Space0
  1

  0
ENDBLK
  5
25
330
23
100
AcDbEntity
  8
0
100
AcDbBlockEnd
  0
ENDSEC
  0
SECTION
  2
ENTITIES
  0
SPLINE
  5
73
330
1F
100
AcDbEntity
  8
0
  6
Continuous
 62
     7
370
    25
100
AcDbSpline
210
0.0
220
0.0
230
1.0
 70
     8
 71
     3
 72
    23
 73
    19
 74
     0
 42
0.000000001
 43
0.00000001
 40
0.0
 40
0.0
 40
0.0
 40
0.0
 40
0.0570031325129242
 40
0.111817869120724
 40
0.1644023722182111
 40
0.2158698048987949
 40
0.2668411100818672
 40
0.3174789632053576
 40
0.3699021362727593
 40
0.4234004494436355
 40
0.4797183982994508
 40
0.5392414966442963
 40
0.6024306889434226
 40
0.6710295461473349
 40
0.7444847975608481
 40
0.8234539713786849
 40
0.9087403127306656
 40
0.9999999999999999
 40
0.9999999999999999
 40
0.9999999999999999
 40
0.9999999999999999
 10
-1.039101699111793
 20
0.1096191071560553
 30
0.0
 10
-1.039139283410636
 20
0.1110066622641659
 30
0.0
 10
-1.039213009116991
 20
0.1137285031286364
 30
0.0
 10
-1.039816816445916
 20
0.1176963141398092
 30
0.0
 10
-1.040843071762743
 20
0.1214280107478229
 30
0.0
 10
-1.042161235565609
 20
0.1249747329138404
 30
0.0
 10
-1.044003284759635
 20
0.128225579358148
 30
0.0
 10
-1.046172103566921
 20
0.1312929504792055
 30
0.0
 10
-1.048792510016186
 20
0.1340723875146989
 30
0.0
 10
-1.051775175205899
 20
0.1366702088229352
 30
0.0
 10
-1.055204362552924
 20
0.138973389379939
 30
0.0
 10
-1.059078026254305
 20
0.1409905867494807
 30
0.0
 10
-1.063448574616217
 20
0.1426149279408988
 30
0.0
 10
-1.068242349972033
 20
0.1440375102607283
 30
0.0
 10
-1.07353314193622
 20
0.1450366741048878
 30
0.0
 10
-1.079259895751121
 20
0.1458690589375365
 30
0.0
 10
-1.085469518538761
 20
0.146292826223579
 30
0.0
 10
-1.089765597290597
 20
0.1463489235717697
 30
0.0
 10
-1.091986314496409
 20
0.1463779212586194
 30
0.0
  0
SPLINE
  5
76
330
1F
100
AcDbEntity
  8
0
  6
Continuous
 62
     7
370
    25
100
AcDbSpline
210
0.0
220
0.0
230
1.0
 70
     8
 71
     3
 72
    23
 73
    19
 74
     0
 42
0.000000001
 43
0.00000001
 40
0.0
 40
0.0
 40
0.0
 40
0.0
 40
0.0723010339955059
 40
0.1397003317393864
 40
0.2022885114847736
 40
0.2605995332222016
 40
0.3131903291553319
 40
0.361738932985429
 40
0.405706475632223
 40
0.4455399848948711
 40
0.5188319558616069
 40
0.5897782395835762
 40
0.6588674786561456
 40
0.7284304780610633
 40
0.7972827036080995
 40
0.8648153774014452
 40
0.9313637528792684
 40
1.0
 40
1.0
 40
1.0
 40
1.0
 10
-1.107360913855383
 20
0.0662497161304143
 30
0.0
 10
-1.105157428472065
 20
0.0662782820594496
 30
0.0
 10
-1.100899845668319
 20
0.0663334772557304
 30
0.0
 10
-1.094734138771262
 20
0.0664915856172988
 30
0.0
 10
-1.089010923185823
 20
0.0669343030042274
 30
0.0
 10
-1.083740077966253
 20
0.0673768931509863
 30
0.0
 10
-1.078929903397209
 20
0.0680965065555437
 30
0.0
 10
-1.074591056147056
 20
0.0689530867635689
 30
0.0
 10
-1.07065544208002
 20
0.0698590085561723
 30
0.0
 10
-1.066116903113132
 20
0.0713996861919135
 30
0.0
 10
-1.060968835366124
 20
0.0736766629907632
 30
0.0
 10
-1.055480756497952
 20
0.0772103655707627
 30
0.0
 10
-1.050642580098748
 20
0.0814192479421269
 30
0.0
 10
-1.046557066690228
 20
0.0862757452103429
 30
0.0
 10
-1.043213390223899
 20
0.091623329914493
 30
0.0
 10
-1.040890981998595
 20
0.0973766785169752
 30
0.0
 10
-1.039316175985554
 20
0.1033924022338011
 30
0.0
 10
-1.039173923745755
 20
0.107522277433072
 30
0.0
 10
-1.039101699111793
 20
0.1096191071560553
 30
0.0
  0
SPLINE
  5
78
330
1F
100
AcDbEntity
  8
0
  6
Continuous
 62
     7
370
    25
100
AcDbSpline
210
0.0
220
0.0
230
1.0
 70
     8
 71
     3
 72
    19
 73
    15
 74
     0
 42
0.000000001
 43
0.00000001
 40
0.0
 40
0.0
 40
0.0
 40
0.0
 40
0.0602873979279713
 40
0.1196023547075217
 40
0.1775033710185411
 40
0.2351426637323306
 40
0.2921325932269339
 40
0.350871208641566
 40
0.4100978625665939
 40
0.4707315215304501
 40
0.594828704080416
 40
0.7225788240942905
 40
0.8566913895440167
 40
1.0
 40
1.0
 40
1.0
 40
1.0
 10
-1.019870929881024
 20
-0.0070175114336883
 30
0.0
 10
-1.019890651619411
 20
-0.0056965585397546
 30
0.0
 10
-1.019929776982772
 20
-0.0030759598408201
 30
0.0
 10
-1.020519820905891
 20
0.0007751701011746
 30
0.0
 10
-1.021377954462587
 20
0.0045055896232638
 30
0.0
 10
-1.022487342597055
 20
0.0081254282293186
 30
0.0
 10
-1.024103018817844
 20
0.0115692408255921
 30
0.0
 10
-1.02598920060478
 20
0.0149051379353589
 30
0.0
 10
-1.028200729293683
 20
0.0181375293227725
 30
0.0
 10
-1.031646741141372
 20
0.0222241188548694
 30
0.0
 10
-1.036659025749943
 20
0.0269324769193988
 30
0.0
 10
-1.043780938281577
 20
0.0315422985098738
 30
0.0
 10
-1.051878959565098
 20
0.0352599990161221
 30
0.0
 10
-1.057752351914814
 20
0.0368385330402978
 30
0.0
 10
-1.060786394624614
 20
0.0376539629252861
 30
0.0
  0
SPLINE
  5
7B
330
1F
100
AcDbEntity
  8
0
  6
Continuous
 62
     7
370
    25
100
AcDbSpline
210
0.0
220
0.0
230
1.0
 70
     8
 71
     3
 72
    23
 73
    19
 74
     0
 42
0.000000001
 43
0.00000001
 40
0.0
 40
0.0
 40
0.0
 40
0.0
 40
0.0725024889330336
 40
0.1397389892678943
 40
0.2017951348259224
 40
0.2598219344148625
 40
0.3122059893845972
 40
0.3607734341243379
 40
0.4045403426007484
 40
0.4436980985527627
 40
0.5168407942439696
 40
0.5878743359442808
 40
0.6579654175616312
 40
0.7289693886473115
 40
0.7993077199548836
 40
0.8666357778344712
 40
0.933116329057274
 40
1.0
 40
1.0
 40
1.0
 40
1.0
 10
-1.090483910650255
 20
-0.0523400274593293
 30
0.0
 10
-1.088196844513611
 20
-0.05231261693099
 30
0.0
 10
-1.083788826043809
 20
-0.0522597867512018
 30
0.0
 10
-1.077424452463743
 20
-0.052087318568286
 30
0.0
 10
-1.071525659335093
 20
-0.0516950131612099
 30
0.0
 10
-1.066119363925847
 20
-0.0510774524709428
 30
0.0
 10
-1.061147188737941
 20
-0.050407563244361
 30
0.0
 10
-1.056668781378734
 20
-0.0495067574642422
 30
0.0
 10
-1.05264783898863
 20
-0.0484746888552809
 30
0.0
 10
-1.047985388435818
 20
-0.0468793908384929
 30
0.0
 10
-1.042735137844321
 20
-0.0444010714872586
 30
0.0
 10
-1.037077219531063
 20
-0.0406643410288146
 30
0.0
 10
-1.032046775377919
 20
-0.0362126761878981
 30
0.0
 10
-1.027774971148874
 20
-0.031060468032638
 30
0.0
 10
-1.024274043395591
 20
-0.025458230394905
 30
0.0
 10
-1.021727225175336
 20
-0.0195192768268565
 30
0.0
 10
-1.020156449695399
 20
-0.0133417391541117
 30
0.0
 10
-1.019966294746121
 20
-0.0091298311153291
 30
0.0
 10
-1.019870929881024
 20
-0.0070175114336883
 30
0.0
  0
SPLINE
  5
7D
330
1F
100
AcDbEntity
  8
0
  6
Continuous
 62
     7
370
    25
100
AcDbSpline
210
0.0
220
0.0
230
1.0
 70
     8
 71
     3
 72
    15
 73
    11
 74
     0
 42
0.000000001
 43
0.00000001
 40
0.0
 40
0.0
 40
0.0
 40
0.0
 40
0.0793064855229998
 40
0.1719528189279335
 40
0.2770565073915918
 40
0.3947305758644764
 40
0.5261773212767586
 40
0.6713447665976124
 40
0.8292852571892535
 40
1.0
 40
1.0
 40
1.0
 40
1.0
 10
-1.060786394624614
 20
0.0376539629252861
 30
0.0
 10
-1.062002758614063
 20
0.0379007546363875
 30
0.0
 10
-1.064640086638988
 20
0.0384358499710514
 30
0.0
 10
-1.068940628098189
 20
0.0390006859274365
 30
0.0
 10
-1.073850333019781
 20
0.0395039044911591
 30
0.0
 10
-1.079380538535928
 20
0.0398761300385676
 30
0.0
 10
-1.08553824147262
 20
0.0402608831491424
 30
0.0
 10
-1.092336592807307
 20
0.0404105132293037
 30
0.0
 10
-1.099747829568678
 20
0.0405890318074056
 30
0.0
 10
-1.104890141882944
 20
0.0406019699675339
 30
0.0
 10
-1.107561234368204
 20
0.0406086904893886
 30
0.0
  0
SPLINE
  5
7E
330
1F
100
AcDbEntity
  8
0
  6
Continuous
 62
     7
370
    25
100
AcDbSpline
210
0.0
220
0.0
230
1.0
 70
     8
 71
     3
 72
    19
 73
    15
 74
     0
 42
0.000000001
 43
0.00000001
 40
0.0
 40
0.0
 40
0.0
 40
0.0
 40
0.0856056949735272
 40
0.1689832639222349
 40
0.2509075823297911
 40
0.333708096114322
 40
0.4160049842563388
 40
0.4976595675743803
 40
0.5798932856419651
 40
0.6639023210428566
 40
0.7484662538082593
 40
0.8317908864798563
 40
0.915251908831687
 40
1.0
 40
1.0
 40
1.0
 40
1.0
 10
-0.8644222119323063
 20
-0.0587502838695857
 30
0.0
 10
-0.8611917570085036
 20
-0.0586566924219318
 30
0.0
 10
-0.8548149287245138
 20
-0.0584719455040467
 30
0.0
 10
-0.8454964160935204
 20
-0.0566348869520898
 30
0.0
 10
-0.8365739895314751
 20
-0.0537703397589176
 30
0.0
 10
-0.8281288904231286
 20
-0.04977589619631
 30
0.0
 10
-0.8203027044635665
 20
-0.0447035808556153
 30
0.0
 10
-0.8132063386547808
 20
-0.0386724110646509
 30
0.0
 10
-0.8070814378594922
 20
-0.0315714216823331
 30
0.0
 10
-0.8018433232231954
 20
-0.0236744553380101
 30
0.0
 10
-0.7975899844581971
 20
-0.0151541444742206
 30
0.0
 10
-0.7945054700445215
 20
-0.0061691107379804
 30
0.0
 10
-0.7926484996243914
 20
0.003172463684562
 30
0.0
 10
-0.7924212975724686
 20
0.0095173444515093
 30
0.0
 10
-0.7923068273169217
 20
0.0127140590791322
 30
0.0
  0
SPLINE
  5
7F
330
1F
100
AcDbEntity
  8
0
  6
Continuous
 62
     7
370
    25
100
AcDbSpline
210
0.0
220
0.0
230
1.0
 70
     8
 71
     3
 72
    23
 73
    19
 74
     0
 42
0.000000001
 43
0.00000001
 40
0.0
 40
0.0
 40
0.0
 40
0.0
 40
0.065184795986072
 40
0.1282737271139275
 40
0.1902702203927573
 40
0.2517683137756832
 40
0.3127686945781241
 40
0.3747932794097868
 40
0.4379695860627116
 40
0.5030473998633714
 40
0.5681252136640302
 40
0.6309497487122621
 40
0.6923691093867022
 40
0.7529731677502609
 40
0.8136410669177468
 40
0.874355208691815
 40
0.9365729684654829
 40
1.0
 40
1.0
 40
1.0
 40
1.0
 10
-0.7923068273169216
 20
0.0127140590791322
 30
0.0
 10
-0.792375275175919
 20
0.0151881703442272
 30
0.0
 10
-0.792509970112886
 20
0.0200568436056438
 30
0.0
 10
-0.7935438961400323
 20
0.027218447433747
 30
0.0
 10
-0.7951978632588472
 20
0.0341107043358576
 30
0.0
 10
-0.7974815502055649
 20
0.0407429902846222
 30
0.0
 10
-0.8005282654804597
 20
0.0470653120218957
 30
0.0
 10
-0.8042723221288659
 20
0.053067435383117
 30
0.0
 10
-0.8085745382293636
 20
0.0588800458154282
 30
0.0
 10
-0.8135757611506556
 20
0.0642624487288363
 30
0.0
 10
-0.8189545738565086
 20
0.0692435227697789
 30
0.0
 10
-0.8247020765838129
 20
0.0735741934411706
 30
0.0
 10
-0.8306867179111802
 20
0.0772497359765608
 30
0.0
 10
-0.836928045244113
 20
0.0802987531603074
 30
0.0
 10
-0.8434603715046434
 20
0.0825807060407302
 30
0.0
 10
-0.8502323093032743
 20
0.0842504654338141
 30
0.0
 10
-0.8572465100132511
 20
0.0852711937647304
 30
0.0
 10
-0.862015013096122
 20
0.085410275297682
 30
0.0
 10
-0.8644222119323063
 20
0.0854804853611835
 30
0.0
  0
SPLINE
  5
80
330
1F
100
AcDbEntity
  8
0
  6
Continuous
 62
     7
370
    25
100
AcDbSpline
210
0.0
220
0.0
230
1.0
 70
     8
 71
     3
 72
    19
 73
    15
 74
     0
 42
0.000000001
 43
0.00000001
 40
0.0
 40
0.0
 40
0.0
 40
0.0
 40
0.0847327446980156
 40
0.168178653646313
 40
0.2514881976122797
 40
0.3358406713894907
 40
0.4198344941507961
 40
0.5023448759880104
 40
0.58364901973244
 40
0.6659310052762729
 40
0.7487165252643913
 40
0.8310473361373631
 40
0.914409806794561
 40
0.9999999999999999
 40
0.9999999999999999
 40
0.9999999999999999
 40
0.9999999999999999
 10
-0.9365375965476909
 20
0.0127140590791322
 30
0.0
 10
-0.9364228234308678
 20
0.0095174857105696
 30
0.0
 10
-0.9361950202559455
 20
0.0031728853164422
 30
0.0
 10
-0.9343425033677282
 20
-0.0061707663004549
 30
0.0
 10
-0.9312434833761298
 20
-0.0151408985946501
 30
0.0
 10
-0.9270586776826156
 20
-0.0236849261691107
 30
0.0
 10
-0.9218153763482887
 20
-0.0315900888861604
 30
0.0
 10
-0.9156377287285513
 20
-0.0386380520542892
 30
0.0
 10
-0.9085920358454858
 20
-0.0447227528719646
 30
0.0
 10
-0.9007622858316018
 20
-0.0497713846976193
 30
0.0
 10
-0.892308405980765
 20
-0.0537827958186968
 30
0.0
 10
-0.8833615259015791
 20
-0.0566255797984591
 30
0.0
 10
-0.8740300477554573
 20
-0.0584735578268341
 30
0.0
 10
-0.867652852673365
 20
-0.0586572345664668
 30
0.0
 10
-0.8644222119323063
 20
-0.0587502838695857
 30
0.0
  0
SPLINE
  5
81
330
1F
100
AcDbEntity
  8
0
  6
Continuous
 62
     7
370
    25
100
AcDbSpline
210
0.0
220
0.0
230
1.0
 70
     8
 71
     3
 72
    23
 73
    19
 74
     0
 42
0.000000001
 43
0.00000001
 40
0.0
 40
0.0
 40
0.0
 40
0.0
 40
0.0638458997347868
 40
0.1260436278408444
 40
0.1871653577195673
 40
0.2473992895212637
 40
0.3083800306041641
 40
0.3697796166640493
 40
0.4325839246869348
 40
0.4976407859952566
 40
0.5624011369620613
 40
0.6255571033330408
 40
0.6873320046201731
 40
0.7483127457030734
 40
0.8097910391226147
 40
0.8717675719729278
 40
0.9348361909503149
 40
1.0
 40
1.0
 40
1.0
 40
1.0
 10
-0.8644222119323063
 20
0.0854804853611835
 30
0.0
 10
-0.8668463270267169
 20
0.0854115859558785
 30
0.0
 10
-0.87163197907442
 20
0.0852755657723304
 30
0.0
 10
-0.8786762351249928
 20
0.0842410011501692
 30
0.0
 10
-0.8854576746915881
 20
0.0826018937167073
 30
0.0
 10
-0.8919891635581216
 20
0.0802730325552878
 30
0.0
 10
-0.8982486758735786
 20
0.0772659683473415
 30
0.0
 10
-0.9042422046166587
 20
0.0735725140472466
 30
0.0
 10
-0.9099873788958004
 20
0.0692415885844608
 30
0.0
 10
-0.9153718119930178
 20
0.0642799691837434
 30
0.0
 10
-0.9203134057188979
 20
0.0588600410023475
 30
0.0
 10
-0.9246332611900431
 20
0.0530851582248486
 30
0.0
 10
-0.9283064830736839
 20
0.04704899063367
 30
0.0
 10
-0.9313664944263933
 20
0.0407452612665297
 30
0.0
 10
-0.9336455792903621
 20
0.0341100888449096
 30
0.0
 10
-0.9353007951821455
 20
0.0272186151858373
 30
0.0
 10
-0.9363343837866385
 20
0.0200567997228331
 30
0.0
 10
-0.936469125114338
 20
0.0151881555581531
 30
0.0
 10
-0.9365375965476909
 20
0.0127140590791322
 30
0.0
  0
SPLINE
  5
82
330
1F
100
AcDbEntity
  8
0
  6
Continuous
 62
     7
370
    25
100
AcDbSpline
210
0.0
220
0.0
230
1.0
 70
     8
 71
     3
 72
    19
 73
    15
 74
     0
 42
0.000000001
 43
0.00000001
 40
0.0
 40
0.0
 40
0.0
 40
0.0
 40
0.0856056949735273
 40
0.1689832639222338
 40
0.25090758232979
 40
0.3337080961143221
 40
0.4160049842563389
 40
0.4976595675743786
 40
0.5798932856419651
 40
0.6639023210428566
 40
0.7484662538082593
 40
0.8317908864798557
 40
0.9152519088316868
 40
1.0
 40
1.0
 40
1.0
 40
1.0
 10
0.0105777880676939
 20
-0.0587502838695857
 30
0.0
 10
0.0138082429914963
 20
-0.0586566924219318
 30
0.0
 10
0.020185071275486
 20
-0.0584719455040467
 30
0.0
 10
0.02950358390648
 20
-0.0566348869520898
 30
0.0
 10
0.0384260104685248
 20
-0.0537703397589176
 30
0.0
 10
0.0468711095768714
 20
-0.04977589619631
 30
0.0
 10
0.0546972955364333
 20
-0.0447035808556154
 30
0.0
 10
0.0617936613452192
 20
-0.0386724110646507
 30
0.0
 10
0.0679185621405081
 20
-0.0315714216823332
 30
0.0
 10
0.0731566767768043
 20
-0.02367445533801
 30
0.0
 10
0.0774100155418034
 20
-0.0151541444742207
 30
0.0
 10
0.0804945299554782
 20
-0.0061691107379804
 30
0.0
 10
0.0823515003756088
 20
0.003172463684562
 30
0.0
 10
0.0825787024275314
 20
0.0095173444515093
 30
0.0
 10
0.0826931726830784
 20
0.0127140590791322
 30
0.0
  0
SPLINE
  5
83
330
1F
100
AcDbEntity
  8
0
  6
Continuous
 62
     7
370
    25
100
AcDbSpline
210
0.0
220
0.0
230
1.0
 70
     8
 71
     3
 72
    23
 73
    19
 74
     0
 42
0.000000001
 43
0.00000001
 40
0.0
 40
0.0
 40
0.0
 40
0.0
 40
0.0651847959860721
 40
0.1282737271139273
 40
0.1902702203927574
 40
0.251768313775683
 40
0.312768694578124
 40
0.3747932794097873
 40
0.4379695860627121
 40
0.5030473998633712
 40
0.5681252136640301
 40
0.630949748712263
 40
0.692369109386703
 40
0.7529731677502619
 40
0.8136410669177478
 40
0.8743552086918148
 40
0.9365729684654828
 40
1.0
 40
1.0
 40
1.0
 40
1.0
 10
0.0826931726830784
 20
0.0127140590791322
 30
0.0
 10
0.0826247248240808
 20
0.0151881703442272
 30
0.0
 10
0.0824900298871132
 20
0.0200568436056438
 30
0.0
 10
0.0814561038599682
 20
0.027218447433747
 30
0.0
 10
0.0798021367411525
 20
0.0341107043358575
 30
0.0
 10
0.0775184497944351
 20
0.0407429902846222
 30
0.0
 10
0.0744717345195403
 20
0.0470653120218957
 30
0.0
 10
0.070727677871134
 20
0.0530674353831169
 30
0.0
 10
0.0664254617706362
 20
0.0588800458154282
 30
0.0
 10
0.0614242388493446
 20
0.0642624487288363
 30
0.0
 10
0.0560454261434917
 20
0.0692435227697789
 30
0.0
 10
0.0502979234161868
 20
0.0735741934411706
 30
0.0
 10
0.0443132820888201
 20
0.0772497359765608
 30
0.0
 10
0.0380719547558871
 20
0.0802987531603074
 30
0.0
 10
0.0315396284953569
 20
0.0825807060407302
 30
0.0
 10
0.0247676906967256
 20
0.0842504654338142
 30
0.0
 10
0.0177534899867491
 20
0.0852711937647304
 30
0.0
 10
0.0129849869038782
 20
0.0854102752976819
 30
0.0
 10
0.0105777880676939
 20
0.0854804853611835
 30
0.0
  0
SPLINE
  5
84
330
1F
100
AcDbEntity
  8
0
  6
Continuous
 62
     7
370
    25
100
AcDbSpline
210
0.0
220
0.0
230
1.0
 70
     8
 71
     3
 72
    23
 73
    19
 74
     0
 42
0.000000001
 43
0.00000001
 40
0.0
 40
0.0
 40
0.0
 40
0.0
 40
0.0638458997347879
 40
0.1260436278408443
 40
0.1871653577195683
 40
0.2473992895212636
 40
0.308380030604164
 40
0.3697796166640501
 40
0.4325839246869356
 40
0.4976407859952575
 40
0.5624011369620621
 40
0.6255571033330409
 40
0.6873320046201732
 40
0.7483127457030734
 40
0.8097910391226149
 40
0.8717675719729279
 40
0.9348361909503152
 40
1.0
 40
1.0
 40
1.0
 40
1.0
 10
0.0105777880676939
 20
0.0854804853611835
 30
0.0
 10
0.0081536729732834
 20
0.0854115859558785
 30
0.0
 10
0.0033680209255801
 20
0.0852755657723304
 30
0.0
 10
-0.0036762351249929
 20
0.0842410011501692
 30
0.0
 10
-0.0104576746915877
 20
0.0826018937167073
 30
0.0
 10
-0.0169891635581215
 20
0.0802730325552878
 30
0.0
 10
-0.0232486758735787
 20
0.0772659683473415
 30
0.0
 10
-0.0292422046166586
 20
0.0735725140472466
 30
0.0
 10
-0.0349873788958001
 20
0.0692415885844607
 30
0.0
 10
-0.0403718119930178
 20
0.0642799691837435
 30
0.0
 10
-0.0453134057188979
 20
0.0588600410023475
 30
0.0
 10
-0.049633261190043
 20
0.0530851582248485
 30
0.0
 10
-0.0533064830736838
 20
0.04704899063367
 30
0.0
 10
-0.0563664944263932
 20
0.0407452612665297
 30
0.0
 10
-0.058645579290362
 20
0.0341100888449096
 30
0.0
 10
-0.0603007951821453
 20
0.0272186151858373
 30
0.0
 10
-0.0613343837866384
 20
0.0200567997228332
 30
0.0
 10
-0.061469125114338
 20
0.0151881555581531
 30
0.0
 10
-0.0615375965476908
 20
0.0127140590791322
 30
0.0
  0
SPLINE
  5
85
330
1F
100
AcDbEntity
  8
0
  6
Continuous
 62
     7
370
    25
100
AcDbSpline
210
0.0
220
0.0
230
1.0
 70
     8
 71
     3
 72
    19
 73
    15
 74
     0
 42
0.000000001
 43
0.00000001
 40
0.0
 40
0.0
 40
0.0
 40
0.0
 40
0.0847327446980154
 40
0.1681786536463128
 40
0.2514881976122799
 40
0.3358406713894908
 40
0.4198344941507962
 40
0.5023448759880096
 40
0.5836490197324392
 40
0.665931005276273
 40
0.7487165252643914
 40
0.8310473361373631
 40
0.914409806794561
 40
1.0
 40
1.0
 40
1.0
 40
1.0
 10
-0.0615375965476908
 20
0.0127140590791322
 30
0.0
 10
-0.0614228234308678
 20
0.0095174857105696
 30
0.0
 10
-0.0611950202559458
 20
0.0031728853164422
 30
0.0
 10
-0.059342503367728
 20
-0.006170766300455
 30
0.0
 10
-0.0562434833761297
 20
-0.0151408985946501
 30
0.0
 10
-0.0520586776826152
 20
-0.0236849261691107
 30
0.0
 10
-0.0468153763482886
 20
-0.0315900888861604
 30
0.0
 10
-0.0406377287285513
 20
-0.0386380520542892
 30
0.0
 10
-0.0335920358454857
 20
-0.0447227528719647
 30
0.0
 10
-0.0257622858316019
 20
-0.0497713846976193
 30
0.0
 10
-0.0173084059807645
 20
-0.0537827958186967
 30
0.0
 10
-0.0083615259015792
 20
-0.0566255797984591
 30
0.0
 10
0.000969952244543
 20
-0.0584735578268341
 30
0.0
 10
0.0073471473266351
 20
-0.0586572345664668
 30
0.0
 10
0.0105777880676939
 20
-0.0587502838695857
 30
0.0
  0
SPLINE
  5
86
330
1F
100
AcDbEntity
  8
0
  6
Continuous
 62
     7
370
    25
100
AcDbSpline
210
0.0
220
0.0
230
1.0
 70
     8
 71
     3
 72
    19
 73
    15
 74
     0
 42
0.000000001
 43
0.00000001
 40
0.0
 40
0.0
 40
0.0
 40
0.0
 40
0.0834200466710279
 40
0.1655737957865948
 40
0.2481587766688898
 40
0.3320333067748064
 40
0.4162573489175285
 40
0.4995253498660663
 40
0.5830385602711599
 40
0.6685959042141673
 40
0.7540353502552543
 40
0.8369197002092049
 40
0.9182997313725114
 40
1.0
 40
1.0
 40
1.0
 40
1.0
 10
0.5701230605035912
 20
-0.0587502838695857
 30
0.0
 10
0.5733041867859717
 20
-0.0586391140923826
 30
0.0
 10
0.5796181505688904
 20
-0.0584184620702031
 30
0.0
 10
0.5889151592464449
 20
-0.0565085915266852
 30
0.0
 10
0.5979502048480008
 20
-0.0535910897737581
 30
0.0
 10
0.6065345028808645
 20
-0.0493368357417769
 30
0.0
 10
0.6145933234373279
 20
-0.0441232601687075
 30
0.0
 10
0.6218705772629843
 20
-0.0378689720875777
 30
0.0
 10
0.628228213943913
 20
-0.0306196904284265
 30
0.0
 10
0.6336470964487009
 20
-0.0225476545083252
 30
0.0
 10
0.6380136311130855
 20
-0.0138922699618826
 30
0.0
 10
0.641294362536608
 20
-0.0049364564911638
 30
0.0
 10
0.6431878320542566
 20
0.0042882165866519
 30
0.0
 10
0.6434561740924962
 20
0.0105023389382554
 30
0.0
 10
0.6435906085805143
 20
0.0136155013868245
 30
0.0
  0
SPLINE
  5
87
330
1F
100
AcDbEntity
  8
0
  6
Continuous
 62
     7
370
    25
100
AcDbSpline
210
0.0
220
0.0
230
1.0
 70
     8
 71
     3
 72
    19
 73
    15
 74
     0
 42
0.000000001
 43
0.00000001
 40
0.0
 40
0.0
 40
0.0
 40
0.0
 40
0.0864403724626693
 40
0.1693440105424732
 40
0.2510606708491857
 40
0.3323264305703406
 40
0.4131892790502057
 40
0.494299499359639
 40
0.5766538799957596
 40
0.6617849185411934
 40
0.747764930274269
 40
0.8319674345472003
 40
0.9152994413086182
 40
1.0
 40
1.0
 40
1.0
 40
1.0
 10
0.496154711144617
 20
0.0129644597201579
 30
0.0
 10
0.4962683437231908
 20
0.0096510231105076
 30
0.0
 10
0.4964909595684923
 20
0.0031597201675599
 30
0.0
 10
0.4983007715667321
 20
-0.0063248599691231
 30
0.0
 10
0.5012461475688361
 20
-0.01529997822098
 30
0.0
 10
0.5054267699750975
 20
-0.0236900522905351
 30
0.0
 10
0.5107087395647473
 20
-0.0314031119434719
 30
0.0
 10
0.517072893593878
 20
-0.0383095838347528
 30
0.0
 10
0.524461647239331
 20
-0.0443660546226707
 30
0.0
 10
0.5327521609318379
 20
-0.0494675727459072
 30
0.0
 10
0.54163945597744
 20
-0.053609577483893
 30
0.0
 10
0.5509098782674721
 20
-0.0565748782309359
 30
0.0
 10
0.5604359411876059
 20
-0.0584014659692484
 30
0.0
 10
0.5668765354548765
 20
-0.0586333816188809
 30
0.0
 10
0.5701230605035912
 20
-0.0587502838695857
 30
0.0
  0
SPLINE
  5
88
330
1F
100
AcDbEntity
  8
0
  6
Continuous
 62
     7
370
    25
100
AcDbSpline
210
0.0
220
0.0
230
1.0
 70
     8
 71
     3
 72
    23
 73
    19
 74
     0
 42
0.000000001
 43
0.00000001
 40
0.0
 40
0.0
 40
0.0
 40
0.0
 40
0.0660440693699989
 40
0.1300237494418064
 40
0.1923740566421976
 40
0.2538843037504098
 40
0.3148960853343823
 40
0.3758058275294929
 40
0.4382422362453598
 40
0.5015912675509493
 40
0.5648807602801258
 40
0.6265333410400656
 40
0.6875157651495301
 40
0.748105915549241
 40
0.8087955368148516
 40
0.8708215189810371
 40
0.9343710811645481
 40
1.0
 40
1.0
 40
1.0
 40
1.0
 10
0.5697724996061555
 20
0.0854804853611835
 30
0.0
 10
0.5672311022852227
 20
0.0854347526319057
 30
0.0
 10
0.5622277460165803
 20
0.0853447166757688
 30
0.0
 10
0.5548940160897635
 20
0.0842751489048332
 30
0.0
 10
0.5478300569640485
 20
0.0827224531053733
 30
0.0
 10
0.5411070604346064
 20
0.0803716030875106
 30
0.0
 10
0.534660587829351
 20
0.0774859735752034
 30
0.0
 10
0.5285402903461274
 20
0.0738801156323065
 30
0.0
 10
0.5227504640911599
 20
0.06961925807211
 30
0.0
 10
0.5173056762070708
 20
0.0647850192217072
 30
0.0
 10
0.5123868695305142
 20
0.0594582557845348
 30
0.0
 10
0.508032374675542
 20
0.0537734122754124
 30
0.0
 10
0.5043747100264234
 20
0.0477376880166051
 30
0.0
 10
0.501338851436257
 20
0.0414073049805202
 30
0.0
 10
0.4990286169593769
 20
0.0347326417558588
 30
0.0
 10
0.4973889226891318
 20
0.0277517122788405
 30
0.0
 10
0.496358183203117
 20
0.0204568756762184
 30
0.0
 10
0.4962232591115965
 20
0.0154885894966921
 30
0.0
 10
0.496154711144617
 20
0.0129644597201579
 30
0.0
  0
SPLINE
  5
89
330
1F
100
AcDbEntity
  8
0
  6
Continuous
 62
     7
370
    25
100
AcDbSpline
210
0.0
220
0.0
230
1.0
 70
     8
 71
     3
 72
    19
 73
    15
 74
     0
 42
0.000000001
 43
0.00000001
 40
0.0
 40
0.0
 40
0.0
 40
0.0
 40
0.0819940568376543
 40
0.1633492972937414
 40
0.2458264740680108
 40
0.3303671599787232
 40
0.415198374278568
 40
0.4979409323876399
 40
0.5804761255002938
 40
0.6637400107109468
 40
0.7475128374040559
 40
0.8303987408369411
 40
0.9140755187235942
 40
1.0
 40
1.0
 40
1.0
 40
1.0
 10
0.6435906085805144
 20
0.0136155013868245
 30
0.0
 10
0.6434866990208699
 20
0.0167480006101762
 30
0.0
 10
0.6432796894618279
 20
0.0229885937292704
 30
0.0
 10
0.6412406153388369
 20
0.0321859439427241
 30
0.0
 10
0.6381763312182754
 20
0.0411779422339103
 30
0.0
 10
0.6337078275060236
 20
0.049715124358934
 30
0.0
 10
0.6284077368321428
 20
0.057770415976103
 30
0.0
 10
0.6219972370494687
 20
0.0648814073325754
 30
0.0
 10
0.6148103658741394
 20
0.0711078839579054
 30
0.0
 10
0.6067611398762743
 20
0.0762518418038167
 30
0.0
 10
0.598122538058834
 20
0.080343662873089
 30
0.0
 10
0.5890286154936388
 20
0.0833353513657842
 30
0.0
 10
0.5795255010366348
 20
0.0851334763266707
 30
0.0
 10
0.5730520971424378
 20
0.0853637982077192
 30
0.0
 10
0.5697724996061556
 20
0.0854804853611835
 30
0.0
  0
SPLINE
  5
8A
330
1F
100
AcDbEntity
  8
0
  6
Continuous
 62
     7
370
    25
100
AcDbSpline
210
0.0
220
0.0
230
1.0
 70
     8
 71
     3
 72
    19
 73
    15
 74
     0
 42
0.000000001
 43
0.00000001
 40
0.0
 40
0.0
 40
0.0
 40
0.0
 40
0.0848023883688262
 40
0.1686635395998417
 40
0.2525519243727825
 40
0.3382396894642436
 40
0.4231026613931549
 40
0.5055560510576221
 40
0.5861756559890524
 40
0.6671357203303611
 40
0.7484991803055336
 40
0.8304523987582789
 40
0.9134557062010132
 40
1.0
 40
1.0
 40
1.0
 40
1.0
 10
0.8005417303753863
 20
-0.0587502838695857
 30
0.0
 10
0.8037879091441126
 20
-0.0586317150177425
 30
0.0
 10
0.8102442367527879
 20
-0.0583958933313157
 30
0.0
 10
0.8197755730299314
 20
-0.0565900886675136
 30
0.0
 10
0.829025213229779
 20
-0.0536066030710807
 30
0.0
 10
0.8378671581139469
 20
-0.0494709511615102
 30
0.0
 10
0.8461040246245074
 20
-0.0443454257402906
 30
0.0
 10
0.8534967301685391
 20
-0.0383449192380846
 30
0.0
 10
0.8597478707666439
 20
-0.0313661203722272
 30
0.0
 10
0.8650473428793745
 20
-0.0236963737261554
 30
0.0
 10
0.8692027297864188
 20
-0.0152883739789503
 30
0.0
 10
0.8722295911576377
 20
-0.0063359317828138
 30
0.0
 10
0.8740191558559456
 20
0.0031612645132603
 30
0.0
 10
0.874244707973271
 20
0.0096515450103046
 30
0.0
 10
0.874359839349745
 20
0.0129644597201579
 30
0.0
  0
SPLINE
  5
8B
330
1F
100
AcDbEntity
  8
0
  6
Continuous
 62
     7
370
    25
100
AcDbSpline
210
0.0
220
0.0
230
1.0
 70
     8
 71
     3
 72
    23
 73
    19
 74
     0
 42
0.000000001
 43
0.00000001
 40
0.0
 40
0.0
 40
0.0
 40
0.0
 40
0.06563379967569
 40
0.129188088057129
 40
0.1912186831121893
 40
0.2519128178811574
 40
0.3125074743865508
 40
0.3734944337751984
 40
0.4351515996540506
 40
0.4987414744066495
 40
0.5620952169966321
 40
0.6241865668116556
 40
0.6854757184651966
 40
0.7460968148060526
 40
0.8076116364477857
 40
0.8699665806571912
 40
0.9339510189149092
 40
1.0
 40
1.0
 40
1.0
 40
1.0
 10
0.874359839349745
 20
0.0129644597201579
 30
0.0
 10
0.8742912924660601
 20
0.0154885904707119
 30
0.0
 10
0.8741563705068063
 20
0.0204568785674174
 30
0.0
 10
0.8731256155403313
 20
0.0277517012511339
 30
0.0
 10
0.8714859779394798
 20
0.0347326816811567
 30
0.0
 10
0.8691755372240175
 20
0.0414071594710568
 30
0.0
 10
0.8661404454800492
 20
0.047738231999574
 30
0.0
 10
0.8624798907738778
 20
0.0537713577288824
 30
0.0
 10
0.8581295015071928
 20
0.0594751585424309
 30
0.0
 10
0.8531593089286236
 20
0.0647710921837504
 30
0.0
 10
0.8477189373182327
 20
0.0696015537736947
 30
0.0
 10
0.8419621844159414
 20
0.0739132852531065
 30
0.0
 10
0.835820845347554
 20
0.0774553404488104
 30
0.0
 10
0.8293981998534281
 20
0.0803868598414992
 30
0.0
 10
0.8226831045347105
 20
0.0827196562627565
 30
0.0
 10
0.8156209174048142
 20
0.0842759201033327
 30
0.0
 10
0.8082867040528815
 20
0.0853445144630041
 30
0.0
 10
0.8032834143817162
 20
0.0854346845179545
 30
0.0
 10
0.8007420508882068
 20
0.0854804853611835
 30
0.0
  0
SPLINE
  5
8C
330
1F
100
AcDbEntity
  8
0
  6
Continuous
 62
     7
370
    25
100
AcDbSpline
210
0.0
220
0.0
230
1.0
 70
     8
 71
     3
 72
    19
 73
    15
 74
     0
 42
0.000000001
 43
0.00000001
 40
0.0
 40
0.0
 40
0.0
 40
0.0
 40
0.0859205174117673
 40
0.1695934351247445
 40
0.2524755148685393
 40
0.3362444769570506
 40
0.4195045210415732
 40
0.5020359066440889
 40
0.5847746476768726
 40
0.6698464747058012
 40
0.754184866388787
 40
0.8366582383293274
 40
0.9180097257088057
 40
1.0
 40
1.0
 40
1.0
 40
1.0
 10
0.8007420508882068
 20
0.0854804853611835
 30
0.0
 10
0.7974624553259171
 20
0.0853637969518583
 30
0.0
 10
0.7909890553280675
 20
0.0851334725919403
 30
0.0
 10
0.7814859123236078
 20
0.0833353657930427
 30
0.0
 10
0.7723920970316057
 20
0.0803436090527746
 30
0.0
 10
0.7637530917267074
 20
0.0762520446836057
 30
0.0
 10
0.7557053619679507
 20
0.071107134925245
 30
0.0
 10
0.7485129569087132
 20
0.0648841789758281
 30
0.0
 10
0.742117049669003
 20
0.0577529636790676
 30
0.0
 10
0.7367378879380916
 20
0.0497456700797688
 30
0.0
 10
0.7323528524438283
 20
0.0411615207177243
 30
0.0
 10
0.729269493019776
 20
0.0321883465676473
 30
0.0
 10
0.7272359753476935
 20
0.0229879910278842
 30
0.0
 10
0.7270282238790169
 20
0.0167477991866166
 30
0.0
 10
0.7269239419138477
 20
0.0136155013868245
 30
0.0
  0
SPLINE
  5
8D
330
1F
100
AcDbEntity
  8
0
  6
Continuous
 62
     7
370
    25
100
AcDbSpline
210
0.0
220
0.0
230
1.0
 70
     8
 71
     3
 72
    19
 73
    15
 74
     0
 42
0.000000001
 43
0.00000001
 40
0.0
 40
0.0
 40
0.0
 40
0.0
 40
0.0815893489321834
 40
0.1628588951679347
 40
0.2454836892755789
 40
0.3308071391580103
 40
0.4164933737762836
 40
0.4998932031606326
 40
0.5830481559950206
 40
0.6671578520621572
 40
0.7513119292929129
 40
0.8337847893576151
 40
0.9162564885439788
 40
0.9999999999999999
 40
0.9999999999999999
 40
0.9999999999999999
 40
0.9999999999999999
 10
0.7269239419138479
 20
0.0136155013868245
 30
0.0
 10
0.7270571485788314
 20
0.0105019223022531
 30
0.0
 10
0.7273230397836538
 20
0.0042869683117172
 30
0.0
 10
0.7292338036692233
 20
-0.0049259300288802
 30
0.0
 10
0.7324395089144772
 20
-0.013901218747546
 30
0.0
 10
0.7368139419664801
 20
-0.0225627182846666
 30
0.0
 10
0.7422915580185304
 20
-0.0306044397392161
 30
0.0
 10
0.748640747486547
 20
-0.0378715913507563
 30
0.0
 10
0.7559229104374664
 20
-0.0441208476559571
 30
0.0
 10
0.7639891609427578
 20
-0.0493521029134921
 30
0.0
 10
0.7726040159713539
 20
-0.053577997263166
 30
0.0
 10
0.7816635825051298
 20
-0.0565184000850925
 30
0.0
 10
0.7909975566591648
 20
-0.0584168129865336
 30
0.0
 10
0.7973441519343029
 20
-0.0586385613320376
 30
0.0
 10
0.8005417303753862
 20
-0.0587502838695857
 30
0.0
  0
SPLINE
  5
8F
330
1F
100
AcDbEntity
  8
0
  6
Continuous
 62
     7
370
    25
100
AcDbSpline
210
0.0
220
0.0
230
1.0
 70
     8
 71
     3
 72
    23
 73
    19
 74
     0
 42
0.000000001
 43
0.00000001
 40
0.0
 40
0.0
 40
0.0
 40
0.0
 40
0.0611602766365174
 40
0.1203345577262021
 40
0.1781802550631249
 40
0.2352351259863639
 40
0.2926829614441807
 40
0.3511862482150796
 40
0.4104566095096941
 40
0.4717198544629959
 40
0.5337612027725886
 40
0.5957390238870945
 40
0.6578875151248846
 40
0.7212951802914619
 40
0.78682251454189
 40
0.8546861538286841
 40
0.9254779862699967
 40
1.0
 40
1.0
 40
1.0
 40
1.0
 10
-0.9974350324451268
 20
-0.0070175114336883
 30
0.0
 10
-0.9975048071610793
 20
-0.0094580022995371
 30
0.0
 10
-0.9976420908694982
 20
-0.0142597364499907
 30
0.0
 10
-0.9986549459978372
 20
-0.0213136746321692
 30
0.0
 10
-1.000369882211472
 20
-0.0280547422473692
 30
0.0
 10
-1.002732106951808
 20
-0.034526541011958
 30
0.0
 10
-1.005815129423116
 20
-0.040716550617006
 30
0.0
 10
-1.009567126875362
 20
-0.0466317837589002
 30
0.0
 10
-1.014040809991279
 20
-0.0522128073741191
 30
0.0
 10
-1.019045300630701
 20
-0.0575216375957626
 30
0.0
 10
-1.024706882451322
 20
-0.0622950509771735
 30
0.0
 10
-1.030815150660075
 20
-0.0665461728829825
 30
0.0
 10
-1.037447030652479
 20
-0.0700423201769449
 30
0.0
 10
-1.044493601653653
 20
-0.0729791788557196
 30
0.0
 10
-1.052033909947528
 20
-0.0752225501746513
 30
0.0
 10
-1.060034096187514
 20
-0.0767920197388881
 30
0.0
 10
-1.068487260604299
 20
-0.0778495223816449
 30
0.0
 10
-1.074287957112263
 20
-0.0779364655884266
 30
0.0
 10
-1.077262756804101
 20
-0.077981053100355
 30
0.0
  0
SPLINE
  5
90
330
1F
100
AcDbEntity
  8
0
  6
Continuous
 62
     7
370
    25
100
AcDbSpline
210
0.0
220
0.0
230
1.0
 70
     8
 71
     3
 72
    19
 73
    15
 74
     0
 42
0.000000001
 43
0.00000001
 40
0.0
 40
0.0
 40
0.0
 40
0.0
 40
0.1060574933033975
 40
0.2029142570846101
 40
0.2903001653958379
 40
0.3702225656250402
 40
0.4463837207709703
 40
0.5213968999648274
 40
0.5982910828464566
 40
0.6761424688569279
 40
0.7555286995560222
 40
0.8348871724576578
 40
0.9166460487466415
 40
1.0
 40
1.0
 40
1.0
 40
1.0
 10
-1.045562035650255
 20
0.0568847321560553
 30
0.0
 10
-1.042722005107769
 20
0.0557943750888678
 30
0.0
 10
-1.037288323152102
 20
0.0537082519178026
 30
0.0
 10
-1.029810750835533
 20
0.0500200044894421
 30
0.0
 10
-1.023368261907238
 20
0.0460084251757723
 30
0.0
 10
-1.017911322908295
 20
0.0416275787369372
 30
0.0
 10
-1.013244347557107
 20
0.0369055208233569
 30
0.0
 10
-1.009169137444759
 20
0.0317730126627601
 30
0.0
 10
-1.005691896433266
 20
0.0261631013858033
 30
0.0
 10
-1.002712401892866
 20
0.0201342774313463
 30
0.0
 10
-1.000387490748137
 20
0.0137481011201411
 30
0.0
 10
-0.9986463547217262
 20
0.0070644742560426
 30
0.0
 10
-0.9976486797834547
 20
0.0001073631707316
 30
0.0
 10
-0.9975067054064409
 20
-0.0046273067820177
 30
0.0
 10
-0.9974350324451268
 20
-0.0070175114336883
 30
0.0
  0
SPLINE
  5
91
330
1F
100
AcDbEntity
  8
0
  6
Continuous
 62
     7
370
    25
100
AcDbSpline
210
0.0
220
0.0
230
1.0
 70
     8
 71
     3
 72
    15
 73
    11
 74
     0
 42
0.000000001
 43
0.00000001
 40
0.0
 40
0.0
 40
0.0
 40
0.0
 40
0.1305691070873099
 40
0.2565806086940828
 40
0.3805516168036837
 40
0.5036229172007088
 40
0.6257393231697881
 40
0.7475485819596268
 40
0.8717661185648721
 40
0.9999999999999999
 40
0.9999999999999999
 40
0.9999999999999999
 40
0.9999999999999999
 10
-1.016665801675896
 20
0.1100698283099014
 30
0.0
 10
-1.016743888707507
 20
0.1073089314757617
 30
0.0
 10
-1.01689733708859
 20
0.1018835088314035
 30
0.0
 10
-1.018364677040929
 20
0.0939482153111426
 30
0.0
 10
-1.020661867643754
 20
0.0863945568234753
 30
0.0
 10
-1.023855099726893
 20
0.0792501007222682
 30
0.0
 10
-1.028005242312471
 20
0.0726762712118649
 30
0.0
 10
-1.032923693645693
 20
0.066620037922933
 30
0.0
 10
-1.038857750966477
 20
0.0613378195661507
 30
0.0
 10
-1.0433036966799
 20
0.0583847550982419
 30
0.0
 10
-1.045562035650255
 20
0.0568847321560553
 30
0.0
  0
SPLINE
  5
92
330
1F
100
AcDbEntity
  8
0
  6
Continuous
 62
     7
370
    25
100
AcDbSpline
210
0.0
220
0.0
230
1.0
 70
     8
 71
     3
 72
    23
 73
    19
 74
     0
 42
0.000000001
 43
0.00000001
 40
0.0
 40
0.0
 40
0.0
 40
0.0
 40
0.0625940971873312
 40
0.1213229386347498
 40
0.1766801421977657
 40
0.2283650957096754
 40
0.2768684458368074
 40
0.3218791276660463
 40
0.3640986251098916
 40
0.403355696242702
 40
0.4779679481633712
 40
0.5505354613647762
 40
0.6235844567403233
 40
0.698174882264204
 40
0.7733536703408754
 40
0.8472811254977334
 40
0.9228183395566693
 40
0.9999999999999999
 40
0.9999999999999999
 40
0.9999999999999999
 40
0.9999999999999999
 10
-1.096092885009229
 20
0.172018946899645
 30
0.0
 10
-1.093705136567245
 20
0.1720063932995191
 30
0.0
 10
-1.089077085828927
 20
0.1719820612981617
 30
0.0
 10
-1.082347125698303
 20
0.1716046947876629
 30
0.0
 10
-1.076043639223979
 20
0.1710901469391889
 30
0.0
 10
-1.070164798341798
 20
0.1702737117503172
 30
0.0
 10
-1.064713319599578
 20
0.1692885848113641
 30
0.0
 10
-1.05967277408259
 20
0.1680955979477695
 30
0.0
 10
-1.055059190349139
 20
0.1666651255435536
 30
0.0
 10
-1.049551137748699
 20
0.164390391169807
 30
0.0
 10
-1.043271090543068
 20
0.1610101648591132
 30
0.0
 10
-1.036471205349998
 20
0.1560152673484692
 30
0.0
 10
-1.030656616824333
 20
0.1499058056970134
 30
0.0
 10
-1.025643308449979
 20
0.1430141874524193
 30
0.0
 10
-1.021657514192033
 20
0.1354330608987751
 30
0.0
 10
-1.018773992955199
 20
0.1273431188432378
 30
0.0
 10
-1.01694843042958
 20
0.1188487087061279
 30
0.0
 10
-1.016760685128444
 20
0.1130170531433474
 30
0.0
 10
-1.016665801675896
 20
0.1100698283099014
 30
0.0
  0
SPLINE
  5
95
330
1F
100
AcDbEntity
  8
0
  6
Continuous
 62
     7
370
    25
100
AcDbSpline
210
0.0
220
0.0
230
1.0
 70
     8
 71
     3
 72
    11
 73
     7
 74
     0
 42
0.000000001
 43
0.00000001
 40
0.0
 40
0.0
 40
0.0
 40
0.0
 40
0.2462523706929831
 40
0.4925907964763744
 40
0.7405699911180893
 40
1.0
 40
1.0
 40
1.0
 40
1.0
 10
-0.7230460100092294
 20
0.0318446680534912
 30
0.0
 10
-0.724341052841823
 20
0.0339264976988974
 30
0.0
 10
-0.726931591071295
 20
0.0380908845036738
 30
0.0
 10
-0.7294469618697313
 20
0.0450416328416802
 30
0.0
 10
-0.731175963932383
 20
0.0523591369366312
 30
0.0
 10
-0.731330420373049
 20
0.0574081979613511
 30
0.0
 10
-0.7314093914194857
 20
0.0599897001047733
 30
0.0
  0
SPLINE
  5
96
330
1F
100
AcDbEntity
  8
0
  6
Continuous
 62
     7
370
    25
100
AcDbSpline
210
0.0
220
0.0
230
1.0
 70
     8
 71
     3
 72
    15
 73
    11
 74
     0
 42
0.000000001
 43
0.00000001
 40
0.0
 40
0.0
 40
0.0
 40
0.0
 40
0.1577616635135497
 40
0.3059502132085427
 40
0.4437754990007257
 40
0.572824362401539
 40
0.6921541564432431
 40
0.8022957069908458
 40
0.9055643918329938
 40
1.0
 40
1.0
 40
1.0
 40
1.0
 10
-0.6915456093682036
 20
0.0069047642073373
 30
0.0
 10
-0.693406083656733
 20
0.0079432736119287
 30
0.0
 10
-0.6970141370492211
 20
0.0099572747746795
 30
0.0
 10
-0.7021246578303535
 20
0.0130941376502744
 30
0.0
 10
-0.7067351831316924
 20
0.0162846572702875
 30
0.0
 10
-0.7109566527433169
 20
0.0193498600738427
 30
0.0
 10
-0.7146824388631347
 20
0.022451356070095
 30
0.0
 10
-0.7178978637420607
 20
0.0255925883177699
 30
0.0
 10
-0.7207295220157425
 20
0.0286468730377203
 30
0.0
 10
-0.7222971942822581
 20
0.0308109656530593
 30
0.0
 10
-0.7230460100092293
 20
0.0318446680534912
 30
0.0
  0
SPLINE
  5
97
330
1F
100
AcDbEntity
  8
0
  6
Continuous
 62
     7
370
    25
100
AcDbSpline
210
0.0
220
0.0
230
1.0
 70
     8
 71
     3
 72
    15
 73
    11
 74
     0
 42
0.000000001
 43
0.00000001
 40
0.0
 40
0.0
 40
0.0
 40
0.0
 40
0.0768750740350484
 40
0.1674616757257288
 40
0.2722700232466392
 40
0.3895508405125224
 40
0.5208013683480552
 40
0.6662632933752256
 40
0.8255449152058608
 40
1.0
 40
1.0
 40
1.0
 40
1.0
 10
-0.6638512984707677
 20
-0.0119253639977909
 30
0.0
 10
-0.6644243266441527
 20
-0.0112799809869507
 30
0.0
 10
-0.6656725889626944
 20
-0.0098741037004983
 30
0.0
 10
-0.6679622490530924
 20
-0.0078437409246681
 30
0.0
 10
-0.6707038106388591
 20
-0.0056553052708608
 30
0.0
 10
-0.6739281079911623
 20
-0.0033459060609511
 30
0.0
 10
-0.6776416409867035
 20
-0.0009460056829404
 30
0.0
 10
-0.6818594606574051
 20
0.0015318051920259
 30
0.0
 10
-0.6865237858394341
 20
0.0042052141769147
 30
0.0
 10
-0.6898216880764281
 20
0.0059780467014357
 30
0.0
 10
-0.6915456093682036
 20
0.0069047642073373
 30
0.0
  0
SPLINE
  5
98
330
1F
100
AcDbEntity
  8
0
  6
Continuous
 62
     7
370
    25
100
AcDbSpline
210
0.0
220
0.0
230
1.0
 70
     8
 71
     3
 72
    11
 73
     7
 74
     0
 42
0.000000001
 43
0.00000001
 40
0.0
 40
0.0
 40
0.0
 40
0.0
 40
0.2534754346498634
 40
0.5004533151029025
 40
0.7455781350009819
 40
0.9999999999999999
 40
0.9999999999999999
 40
0.9999999999999999
 40
0.9999999999999999
 10
-0.657691442701537
 20
-0.0293532486131755
 30
0.0
 10
-0.6577690351543087
 20
-0.0277597044230267
 30
0.0
 10
-0.6579222310656611
 20
-0.0246134647338648
 30
0.0
 10
-0.6591253219231269
 20
-0.0200598689449987
 30
0.0
 10
-0.6610262399416837
 20
-0.0157406346105431
 30
0.0
 10
-0.6628980005383807
 20
-0.0132128026647036
 30
0.0
 10
-0.6638512984707677
 20
-0.0119253639977909
 30
0.0
  0
SPLINE
  5
99
330
1F
100
AcDbEntity
  8
0
  6
Continuous
 62
     7
370
    25
100
AcDbSpline
210
0.0
220
0.0
230
1.0
 70
     8
 71
     3
 72
    15
 73
    11
 74
     0
 42
0.000000001
 43
0.00000001
 40
0.0
 40
0.0
 40
0.0
 40
0.0
 40
0.1340420464623703
 40
0.2618956736507316
 40
0.387836044691119
 40
0.5176862058208251
 40
0.6445086536782141
 40
0.7647182630567265
 40
0.8802907821585003
 40
1.0
 40
1.0
 40
1.0
 40
1.0
 10
-0.6899430452656395
 20
-0.0587502838695857
 30
0.0
 10
-0.6877774791257794
 20
-0.0586523678081428
 30
0.0
 10
-0.6835463261554827
 20
-0.0584610562491985
 30
0.0
 10
-0.6774860576830546
 20
-0.0567241211042111
 30
0.0
 10
-0.6718904415080211
 20
-0.0540005531167074
 30
0.0
 10
-0.6670316311138164
 20
-0.0501373603909843
 30
0.0
 10
-0.6628957624661331
 20
-0.0456405337767221
 30
0.0
 10
-0.6599008928655822
 20
-0.0405752395409826
 30
0.0
 10
-0.6580240231898039
 20
-0.0350901354917524
 30
0.0
 10
-0.6578035947143791
 20
-0.0312878281618177
 30
0.0
 10
-0.657691442701537
 20
-0.0293532486131755
 30
0.0
  0
SPLINE
  5
9A
330
1F
100
AcDbEntity
  8
0
  6
Continuous
 62
     7
370
    25
100
AcDbSpline
210
0.0
220
0.0
230
1.0
 70
     8
 71
     3
 72
    15
 73
    11
 74
     0
 42
0.000000001
 43
0.00000001
 40
0.0
 40
0.0
 40
0.0
 40
0.0
 40
0.1474758177483577
 40
0.2859041715443779
 40
0.4171716482444392
 40
0.5405007435864951
 40
0.6592377183802384
 40
0.7750060983159514
 40
0.8872285734286347
 40
1.0
 40
1.0
 40
1.0
 40
1.0
 10
-0.7261509779579473
 20
-0.0395195146388165
 30
0.0
 10
-0.724738662745344
 20
-0.0410448549622311
 30
0.0
 10
-0.722000676158907
 20
-0.0440019578157526
 30
0.0
 10
-0.7176220178162432
 20
-0.047939410720856
 30
0.0
 10
-0.7131663463088834
 20
-0.0512395015159997
 30
0.0
 10
-0.7086781544107185
 20
-0.0539997454297132
 30
0.0
 10
-0.7040910048161807
 20
-0.0561265599409664
 30
0.0
 10
-0.6994306037994903
 20
-0.0576207452202249
 30
0.0
 10
-0.6947064306522452
 20
-0.0585810446648939
 30
0.0
 10
-0.6915334209508268
 20
-0.0586937791162901
 30
0.0
 10
-0.6899430452656395
 20
-0.0587502838695857
 30
0.0
  0
SPLINE
  5
9C
330
1F
100
AcDbEntity
  8
0
  6
Continuous
 62
     7
370
    25
100
AcDbSpline
210
0.0
220
0.0
230
1.0
 70
     8
 71
     3
 72
    15
 73
    11
 74
     0
 42
0.000000001
 43
0.00000001
 40
0.0
 40
0.0
 40
0.0
 40
0.0
 40
0.1267425189618472
 40
0.2517239612496057
 40
0.3772186880262424
 40
0.5046935492516287
 40
0.6314582385934865
 40
0.7554010672029531
 40
0.8777005336014754
 40
1.0
 40
1.0
 40
1.0
 40
1.0
 10
-0.6887912023169216
 20
-0.0811861813054832
 30
0.0
 10
-0.6913174291339198
 20
-0.0811152741393723
 30
0.0
 10
-0.6963347810581082
 20
-0.0809744450562783
 30
0.0
 10
-0.7037554752830173
 20
-0.0796525835445825
 30
0.0
 10
-0.7110069580447793
 20
-0.0775957696897562
 30
0.0
 10
-0.7180343537809483
 20
-0.0747589172498907
 30
0.0
 10
-0.7246805047730234
 20
-0.0711767234743709
 30
0.0
 10
-0.7307612851016588
 20
-0.0668865525039242
 30
0.0
 10
-0.7362978181345688
 20
-0.0620301241179327
 30
0.0
 10
-0.7394491234014366
 20
-0.0583077733540775
 30
0.0
 10
-0.7410247760348704
 20
-0.0564465979721498
 30
0.0
  0
SPLINE
  5
9D
330
1F
100
AcDbEntity
  8
0
  6
Continuous
 62
     7
370
    25
100
AcDbSpline
210
0.0
220
0.0
230
1.0
 70
     8
 71
     3
 72
    23
 73
    19
 74
     0
 42
0.000000001
 43
0.00000001
 40
0.0
 40
0.0
 40
0.0
 40
0.0
 40
0.0645481255642505
 40
0.1271991327555118
 40
0.1885973380874247
 40
0.2486395150940131
 40
0.309524699464058
 40
0.3700369910533486
 40
0.4318892436070738
 40
0.4957042857252939
 40
0.5595193278435133
 40
0.6213715803972376
 40
0.6823971072916408
 40
0.7435684819321636
 40
0.8054984835712129
 40
0.8686397008205248
 40
0.9330662250811649
 40
1.0
 40
1.0
 40
1.0
 40
1.0
 10
-0.6352555452656395
 20
-0.028401726177278
 30
0.0
 10
-0.63530694053817
 20
-0.030206665194765
 30
0.0
 10
-0.635408220537186
 20
-0.0337634947028874
 30
0.0
 10
-0.636112368175602
 20
-0.0390016968243893
 30
0.0
 10
-0.6373234379129726
 20
-0.0440113080769884
 30
0.0
 10
-0.6389729917670459
 20
-0.0488466855556706
 30
0.0
 10
-0.6412004469744602
 20
-0.0534151812426303
 30
0.0
 10
-0.643811003913841
 20
-0.0578320561703201
 30
0.0
 10
-0.6469449261806858
 20
-0.062001765512418
 30
0.0
 10
-0.6505228815818839
 20
-0.0659188340965533
 30
0.0
 10
-0.6544404168660999
 20
-0.0694963874837205
 30
0.0
 10
-0.6586194267484925
 20
-0.0726409556170191
 30
0.0
 10
-0.6630650575063403
 20
-0.0752534082740974
 30
0.0
 10
-0.6677455433222254
 20
-0.0774152186485914
 30
0.0
 10
-0.6726715186131207
 20
-0.0791343799304751
 30
0.0
 10
-0.6778437535621589
 20
-0.0803245607343167
 30
0.0
 10
-0.6832458074601319
 20
-0.0810369008124729
 30
0.0
 10
-0.6869193651837736
 20
-0.081135791968513
 30
0.0
 10
-0.6887912023169216
 20
-0.0811861813054832
 30
0.0
  0
SPLINE
  5
9E
330
1F
100
AcDbEntity
  8
0
  6
Continuous
 62
     7
370
    25
100
AcDbSpline
210
0.0
220
0.0
230
1.0
 70
     8
 71
     3
 72
    11
 73
     7
 74
     0
 42
0.000000001
 43
0.00000001
 40
0.0
 40
0.0
 40
0.0
 40
0.0
 40
0.2488386141270727
 40
0.4952350254576706
 40
0.7433356038750069
 40
1.0
 40
1.0
 40
1.0
 40
1.0
 10
-0.6437691670605113
 20
-0.0001565338695857
 30
0.0
 10
-0.6424684151025079
 20
-0.0022755401589078
 30
0.0
 10
-0.6398796772922779
 20
-0.0064927559528418
 30
0.0
 10
-0.63716122968828
 20
-0.0134369293416151
 30
0.0
 10
-0.6355854957709381
 20
-0.0208019652299869
 30
0.0
 10
-0.6353667657549666
 20
-0.0258399809526077
 30
0.0
 10
-0.6352555452656395
 20
-0.028401726177278
 30
0.0
  0
SPLINE
  5
9F
330
1F
100
AcDbEntity
  8
0
  6
Continuous
 62
     7
370
    25
100
AcDbSpline
210
0.0
220
0.0
230
1.0
 70
     8
 71
     3
 72
    15
 73
    11
 74
     0
 42
0.000000001
 43
0.00000001
 40
0.0
 40
0.0
 40
0.0
 40
0.0
 40
0.1589891012267936
 40
0.3071145916055739
 40
0.4462131585962145
 40
0.5748760724117282
 40
0.6941521095829556
 40
0.8045811801532398
 40
0.9065933190457625
 40
1.0
 40
1.0
 40
1.0
 40
1.0
 10
-0.6766718112912806
 20
0.0254844917714399
 30
0.0
 10
-0.6747279843557742
 20
0.0243955701418593
 30
0.0
 10
-0.6709731507801168
 20
0.0222921321138522
 30
0.0
 10
-0.6656379531190103
 20
0.0190271532917406
 30
0.0
 10
-0.6607960216210879
 20
0.0157820515579169
 30
0.0
 10
-0.656406331074754
 20
0.0125915319952299
 30
0.0
 10
-0.6525533447289071
 20
0.0093663271654585
 30
0.0
 10
-0.6491201623966347
 20
0.0062300588101958
 30
0.0
 10
-0.646192416401901
 20
0.0030879653613417
 30
0.0
 10
-0.6445528502099426
 20
0.000892742955622
 30
0.0
 10
-0.6437691670605113
 20
-0.0001565338695857
 30
0.0
  0
SPLINE
  5
A0
330
1F
100
AcDbEntity
  8
0
  6
Continuous
 62
     7
370
    25
100
AcDbSpline
210
0.0
220
0.0
230
1.0
 70
     8
 71
     3
 72
    15
 73
    11
 74
     0
 42
0.000000001
 43
0.00000001
 40
0.0
 40
0.0
 40
0.0
 40
0.0
 40
0.0834251049856353
 40
0.1775598214659708
 40
0.2839823599504455
 40
0.4022167468072136
 40
0.5335684803800571
 40
0.6761209941988181
 40
0.8316493725539867
 40
1.0
 40
1.0
 40
1.0
 40
1.0
 10
-0.7027635580861523
 20
0.0443146199765681
 30
0.0
 10
-0.7021947371024609
 20
0.0436157210956368
 30
0.0
 10
-0.7009840733301144
 20
0.0421282029134025
 30
0.0
 10
-0.6987120365460596
 20
0.0400636419550055
 30
0.0
 10
-0.6961390006274656
 20
0.0377820525996362
 30
0.0
 10
-0.6930447193608752
 20
0.0355008499583128
 30
0.0
 10
-0.689562503083442
 20
0.0330985838721474
 30
0.0
 10
-0.6856168399253167
 20
0.0306698600882461
 30
0.0
 10
-0.6813329467130985
 20
0.0280295440247943
 30
0.0
 10
-0.6782659962404827
 20
0.0263549414859534
 30
0.0
 10
-0.6766718112912806
 20
0.0254844917714399
 30
0.0
  0
SPLINE
  5
A1
330
1F
100
AcDbEntity
  8
0
  6
Continuous
 62
     7
370
    25
100
AcDbSpline
210
0.0
220
0.0
230
1.0
 70
     8
 71
     3
 72
    11
 73
     7
 74
     0
 42
0.000000001
 43
0.00000001
 40
0.0
 40
0.0
 40
0.0
 40
0.0
 40
0.2400399314959809
 40
0.4794031936060911
 40
0.7317567388575623
 40
1.0
 40
1.0
 40
1.0
 40
1.0
 10
-0.7089734939835883
 20
0.0608911424124655
 30
0.0
 10
-0.7088941502503494
 20
0.0594474249730627
 30
0.0
 10
-0.7087356864528044
 20
0.0565640599145864
 30
0.0
 10
-0.7075037807948552
 20
0.0523106289259775
 30
0.0
 10
-0.7055419184963062
 20
0.0481636976264942
 30
0.0
 10
-0.7037083331904093
 20
0.045623490029824
 30
0.0
 10
-0.7027635580861523
 20
0.0443146199765681
 30
0.0
  0
SPLINE
  5
A2
330
1F
100
AcDbEntity
  8
0
  6
Continuous
 62
     7
370
    25
100
AcDbSpline
210
0.0
220
0.0
230
1.0
 70
     8
 71
     3
 72
    15
 73
    11
 74
     0
 42
0.000000001
 43
0.00000001
 40
0.0
 40
0.0
 40
0.0
 40
0.0
 40
0.1249584925460601
 40
0.2459006286062647
 40
0.3691660295860706
 40
0.4985108411773543
 40
0.6285038663666044
 40
0.7510283288509906
 40
0.8737241742784333
 40
1.0
 40
1.0
 40
1.0
 40
1.0
 10
-0.6852355132143577
 20
0.0854804853611835
 30
0.0
 10
-0.6868168982030545
 20
0.0854037087199188
 30
0.0
 10
-0.6899288400556318
 20
0.0852526231557078
 30
0.0
 10
-0.6943878270794641
 20
0.0837445209889381
 30
0.0
 10
-0.6985271574378893
 20
0.0814296110989429
 30
0.0
 10
-0.7021097988669017
 20
0.0781461408450006
 30
0.0
 10
-0.7051446331541376
 20
0.074377264500139
 30
0.0
 10
-0.707359896084016
 20
0.070163241293999
 30
0.0
 10
-0.7087146092004074
 20
0.0656312381721192
 30
0.0
 10
-0.7088863757748446
 20
0.0624862483386645
 30
0.0
 10
-0.7089734939835883
 20
0.0608911424124655
 30
0.0
  0
SPLINE
  5
A3
330
1F
100
AcDbEntity
  8
0
  6
Continuous
 62
     7
370
    25
100
AcDbSpline
210
0.0
220
0.0
230
1.0
 70
     8
 71
     3
 72
    15
 73
    11
 74
     0
 42
0.000000001
 43
0.00000001
 40
0.0
 40
0.0
 40
0.0
 40
0.0
 40
0.1582230975563218
 40
0.3050355053581694
 40
0.4413089638879047
 40
0.565963227104724
 40
0.6835251144150594
 40
0.7933341296296007
 40
0.8985175121609992
 40
1.0
 40
1.0
 40
1.0
 40
1.0
 10
-0.6536850324451267
 20
0.0662497161304143
 30
0.0
 10
-0.6549986398399834
 20
0.0677720837257558
 30
0.0
 10
-0.6575311202535319
 20
0.0707070292296548
 30
0.0
 10
-0.6615476546108482
 20
0.0746311054084752
 30
0.0
 10
-0.6655493405804416
 20
0.0779266010472143
 30
0.0
 10
-0.6694813986928154
 20
0.0807089052550217
 30
0.0
 10
-0.6734427036266896
 20
0.0828124157268663
 30
0.0
 10
-0.6773867692075655
 20
0.0843477630083169
 30
0.0
 10
-0.6813176791014907
 20
0.0852978919840825
 30
0.0
 10
-0.6839452530454423
 20
0.0854203518908032
 30
0.0
 10
-0.6852355132143577
 20
0.0854804853611835
 30
0.0
  0
SPLINE
  5
A5
330
1F
100
AcDbEntity
  8
0
  6
Continuous
 62
     7
370
    25
100
AcDbSpline
210
0.0
220
0.0
230
1.0
 70
     8
 71
     3
 72
    15
 73
    11
 74
     0
 42
0.000000001
 43
0.00000001
 40
0.0
 40
0.0
 40
0.0
 40
0.0
 40
0.1243285095938496
 40
0.2471560163611869
 40
0.3687797492913395
 40
0.4907338624016476
 40
0.6136137718478435
 40
0.7389575757222154
 40
0.8673105751912623
 40
0.9999999999999999
 40
0.9999999999999999
 40
0.9999999999999999
 40
0.9999999999999999
 10
-0.3343240548810242
 20
-0.0406713575875345
 30
0.0
 10
-0.3368551722738671
 20
-0.0375612726648827
 30
0.0
 10
-0.3418868491901363
 20
-0.0313786504928751
 30
0.0
 10
-0.348324398015218
 20
-0.0213582232601287
 30
0.0
 10
-0.3538349376730242
 20
-0.0108962083404272
 30
0.0
 10
-0.3582903605857496
 20
0.0000623580008819
 30
0.0
 10
-0.3617734129539378
 20
0.0114928856609151
 30
0.0
 10
-0.3641863554596341
 20
0.0234011366902503
 30
0.0
 10
-0.3657543272080486
 20
0.0357759897046925
 30
0.0
 10
-0.365933633549561
 20
0.0441929031803991
 30
0.0
 10
-0.3660247760348704
 20
0.0484712706175938
 30
0.0
  0
SPLINE
  5
A6
330
1F
100
AcDbEntity
  8
0
  6
Continuous
 62
     7
370
    25
100
AcDbSpline
210
0.0
220
0.0
230
1.0
 70
     8
 71
     3
 72
    23
 73
    19
 74
     0
 42
0.000000001
 43
0.00000001
 40
0.0
 40
0.0
 40
0.0
 40
0.0
 40
0.0696628008990772
 40
0.1377495622582731
 40
0.203916743517782
 40
0.2687798623293368
 40
0.3324137064772241
 40
0.3947535404471396
 40
0.4561800316591682
 40
0.5169956491967191
 40
0.5773959379659517
 40
0.6371983435092754
 40
0.6969991842614545
 40
0.7567561942255594
 40
0.8165539052726075
 40
0.8769479965978704
 40
0.9381317879205953
 40
1.0
 40
1.0
 40
1.0
 40
1.0
 10
-0.2312090709066652
 20
-0.0843913095106114
 30
0.0
 10
-0.2338979042679297
 20
-0.0843725957566264
 30
0.0
 10
-0.2392147392748399
 20
-0.0843355916254924
 30
0.0
 10
-0.2470646501042774
 20
-0.0837361510961381
 30
0.0
 10
-0.2547067630186808
 20
-0.0829183127454246
 30
0.0
 10
-0.2621192362948738
 20
-0.0816868748122838
 30
0.0
 10
-0.2693425202267639
 20
-0.0802337076655776
 30
0.0
 10
-0.2763111334046801
 20
-0.0782857607637761
 30
0.0
 10
-0.2830936484302847
 20
-0.0761036774354802
 30
0.0
 10
-0.2896628156228648
 20
-0.0735390355251424
 30
0.0
 10
-0.2960242227511929
 20
-0.0706450224867581
 30
0.0
 10
-0.3021573521346158
 20
-0.0673741968509643
 30
0.0
 10
-0.3080593830202574
 20
-0.0637540636608724
 30
0.0
 10
-0.3137883416527759
 20
-0.0598644200591836
 30
0.0
 10
-0.3192595976295631
 20
-0.0555803270684374
 30
0.0
 10
-0.3245205637258068
 20
-0.0509612817467491
 30
0.0
 10
-0.3296007405995643
 20
-0.0460228524073666
 30
0.0
 10
-0.3327437895275468
 20
-0.0424617914543405
 30
0.0
 10
-0.3343240548810242
 20
-0.0406713575875345
 30
0.0
  0
SPLINE
  5
A7
330
1F
100
AcDbEntity
  8
0
  6
Continuous
 62
     7
370
    25
100
AcDbSpline
210
0.0
220
0.0
230
1.0
 70
     8
 71
     3
 72
    23
 73
    19
 74
     0
 42
0.000000001
 43
0.00000001
 40
0.0
 40
0.0
 40
0.0
 40
0.0
 40
0.0616742388774258
 40
0.1230530616348059
 40
0.1834750007317019
 40
0.2437265005106111
 40
0.3042789165122535
 40
0.3648629209606826
 40
0.4259462039686192
 40
0.4873912299654075
 40
0.5492203840754764
 40
0.6111435886926027
 40
0.6735285303101517
 40
0.7369614566573043
 40
0.8007852828728398
 40
0.8660125956416149
 40
0.9321007477905782
 40
1.0
 40
1.0
 40
1.0
 40
1.0
 10
-0.1224350324451267
 20
-0.0319574152798421
 30
0.0
 10
-0.1240148974366352
 20
-0.0339958761315074
 30
0.0
 10
-0.1271670599555945
 20
-0.0380630337225177
 30
0.0
 10
-0.1322712040260499
 20
-0.043796727274236
 30
0.0
 10
-0.1376481538400285
 20
-0.0491898726670312
 30
0.0
 10
-0.143337847411949
 20
-0.0541989884689943
 30
0.0
 10
-0.1492748325254981
 20
-0.0589243074407687
 30
0.0
 10
-0.155565711978688
 20
-0.0632315811033186
 30
0.0
 10
-0.1621277857290638
 20
-0.0671809299806307
 30
0.0
 10
-0.1689388199366086
 20
-0.0707971388743516
 30
0.0
 10
-0.1759915779937248
 20
-0.0740055136618146
 30
0.0
 10
-0.18327760906101
 20
-0.076752211361244
 30
0.0
 10
-0.1907655073112958
 20
-0.079118274899282
 30
0.0
 10
-0.1984556150550154
 20
-0.0810648418081307
 30
0.0
 10
-0.206363883399795
 20
-0.0825842049419491
 30
0.0
 10
-0.2144617744064523
 20
-0.0835998960022887
 30
0.0
 10
-0.2227667654935261
 20
-0.084295747033349
 30
0.0
 10
-0.2283697241453641
 20
-0.0843591695918287
 30
0.0
 10
-0.2312090709066652
 20
-0.0843913095106114
 30
0.0
  0
SPLINE
  5
A9
330
1F
100
AcDbEntity
  8
0
  6
Continuous
 62
     7
370
    25
100
AcDbSpline
210
0.0
220
0.0
230
1.0
 70
     8
 71
     3
 72
    23
 73
    19
 74
     0
 42
0.000000001
 43
0.00000001
 40
0.0
 40
0.0
 40
0.0
 40
0.0
 40
0.0643232165798422
 40
0.126290103703556
 40
0.1867264692161328
 40
0.2461464323353444
 40
0.3055756426461386
 40
0.3654293856180521
 40
0.42632630894826
 40
0.4888399064006415
 40
0.5517249718140474
 40
0.613918596466159
 40
0.6754837657683963
 40
0.7373338970992859
 40
0.8002290443945261
 40
0.864502298123323
 40
0.9310407391556972
 40
1.0
 40
1.0
 40
1.0
 40
1.0
 10
-0.3435888785989729
 20
0.0467685462586194
 30
0.0
 10
-0.3434987486686939
 20
0.0430734519784254
 30
0.0
 10
-0.3433217905057329
 20
0.03581862448918
 30
0.0
 10
-0.3417469094999864
 20
0.0251921523076627
 30
0.0
 10
-0.3393536886936545
 20
0.0150121041805004
 30
0.0
 10
-0.335766861769676
 20
0.005342115444006
 30
0.0
 10
-0.3313440724439271
 20
-0.0039370529887085
 30
0.0
 10
-0.3257554573364043
 20
-0.012668399660596
 30
0.0
 10
-0.3192828475246755
 20
-0.0209838685542777
 30
0.0
 10
-0.3118346747060243
 20
-0.0286869362505948
 30
0.0
 10
-0.3036628307067931
 20
-0.0357236309147446
 30
0.0
 10
-0.294895122735799
 20
-0.0419201010226959
 30
0.0
 10
-0.2855533878940777
 20
-0.0470854497702944
 30
0.0
 10
-0.2757407714521776
 20
-0.0513837316643169
 30
0.0
 10
-0.265381763315134
 20
-0.0546877836397135
 30
0.0
 10
-0.2544949917141433
 20
-0.0570137924613747
 30
0.0
 10
-0.2431041349105658
 20
-0.0585310910714903
 30
0.0
 10
-0.2353206063469931
 20
-0.0586763545050002
 30
0.0
 10
-0.2313593112912806
 20
-0.0587502838695857
 30
0.0
  0
SPLINE
  5
AA
330
1F
100
AcDbEntity
  8
0
  6
Continuous
 62
     7
370
    25
100
AcDbSpline
210
0.0
220
0.0
230
1.0
 70
     8
 71
     3
 72
    31
 73
    27
 74
     0
 42
0.000000001
 43
0.00000001
 40
0.0
 40
0.0
 40
0.0
 40
0.0
 40
0.0439549089061943
 40
0.0875018747976051
 40
0.1304626267314906
 40
0.1727520205665178
 40
0.2154030673796034
 40
0.2576498297432397
 40
0.3001527489572942
 40
0.3431214895020869
 40
0.3859251632064335
 40
0.4276857274028022
 40
0.4688179504865897
 40
0.5094918001549961
 40
0.5498830310733489
 40
0.5899800229668865
 40
0.6304052300068401
 40
0.670868626082639
 40
0.7113839438381759
 40
0.7516272580635843
 40
0.7917755768651917
 40
0.8324589188037426
 40
0.8733190450172883
 40
0.9145429556263494
 40
0.9569235582098847
 40
1.0
 40
1.0
 40
1.0
 40
1.0
 10
-0.2329117952656395
 20
0.1527881776688758
 30
0.0
 10
-0.235417745218526
 20
0.1527593232038872
 30
0.0
 10
-0.2404063875450179
 20
0.1527018820705619
 30
0.0
 10
-0.2478098499379102
 20
0.151944087413067
 30
0.0
 10
-0.2550750678758649
 20
0.1508790009813124
 30
0.0
 10
-0.26219731546291
 20
0.1492986207510661
 30
0.0
 10
-0.269167526787143
 20
0.1473005765312444
 30
0.0
 10
-0.2760312697918308
 20
0.1449130469652661
 30
0.0
 10
-0.2826891697773382
 20
0.1419591298324131
 30
0.0
 10
-0.2892333296497832
 20
0.1386942541212056
 30
0.0
 10
-0.2955032732923054
 20
0.1350065794966835
 30
0.0
 10
-0.3014357767049717
 20
0.1309841972194316
 30
0.0
 10
-0.3070092029850558
 20
0.1266721189023045
 30
0.0
 10
-0.3122279609945696
 20
0.1220541827324618
 30
0.0
 10
-0.3170973858756747
 20
0.1171511855556377
 30
0.0
 10
-0.3215821937903327
 20
0.111910875442132
 30
0.0
 10
-0.3256668659521449
 20
0.106350005905185
 30
0.0
 10
-0.3294323677423889
 20
0.1005419053653033
 30
0.0
 10
-0.3328047058391554
 20
0.0945034916770968
 30
0.0
 10
-0.3356282686527913
 20
0.0882124152172039
 30
0.0
 10
-0.3381286345246214
 20
0.0817764078578418
 30
0.0
 10
-0.3401071518564813
 20
0.0751227535129345
 30
0.0
 10
-0.3416731887730066
 20
0.0682982702384172
 30
0.0
 10
-0.3427537361496829
 20
0.0612846425277045
 30
0.0
 10
-0.3435029126635621
 20
0.0540965225564727
 30
0.0
 10
-0.3435600681564712
 20
0.0492244287982996
 30
0.0
 10
-0.343588878598973
 20
0.0467685462586194
 30
0.0
  0
SPLINE
  5
AB
330
1F
100
AcDbEntity
  8
0
  6
Continuous
 62
     7
370
    25
100
AcDbSpline
210
0.0
220
0.0
230
1.0
 70
     8
 71
     3
 72
    19
 73
    15
 74
     0
 42
0.000000001
 43
0.00000001
 40
0.0
 40
0.0
 40
0.0
 40
0.0
 40
0.0631632593634701
 40
0.1254749410306409
 40
0.1871212198160331
 40
0.2482943461142994
 40
0.3092948562551208
 40
0.3698500660670935
 40
0.4309733755473818
 40
0.4924559896728171
 40
0.6161479662918548
 40
0.7408436984673633
 40
0.8681826486700429
 40
1.0
 40
1.0
 40
1.0
 40
1.0
 10
-0.142066442701537
 20
0.1111215110022091
 30
0.0
 10
-0.1434668632984087
 20
0.11279050884729
 30
0.0
 10
-0.1462488237859036
 20
0.1161060028275276
 30
0.0
 10
-0.1507244811090395
 20
0.1207616845757335
 30
0.0
 10
-0.1553888841730502
 20
0.1251234889630704
 30
0.0
 10
-0.1602402499741926
 20
0.1292121946508499
 30
0.0
 10
-0.1653659013661177
 20
0.1328848207747608
 30
0.0
 10
-0.1706416726993973
 20
0.1363327566992555
 30
0.0
 10
-0.1761558187855821
 20
0.1394233094094359
 30
0.0
 10
-0.1837809426888271
 20
0.1431706655605748
 30
0.0
 10
-0.1937557889945676
 20
0.1470811052043045
 30
0.0
 10
-0.2063125632140764
 20
0.1503599074400332
 30
0.0
 10
-0.2194204988201268
 20
0.1524471342746265
 30
0.0
 10
-0.2283631845077689
 20
0.1526731943788526
 30
0.0
 10
-0.2329117952656395
 20
0.1527881776688758
 30
0.0
  0
SPLINE
  5
AE
330
1F
100
AcDbEntity
  8
0
  6
Continuous
 62
     7
370
    25
100
AcDbSpline
210
0.0
220
0.0
230
1.0
 70
     8
 71
     3
 72
    23
 73
    19
 74
     0
 42
0.000000001
 43
0.00000001
 40
0.0
 40
0.0
 40
0.0
 40
0.0
 40
0.0686770684130356
 40
0.1368709585090956
 40
0.2061143571452995
 40
0.2775381819697282
 40
0.349771977554898
 40
0.4212508361555699
 40
0.4929107569233712
 40
0.5670265889927392
 40
0.6066141532413346
 40
0.6497039535189878
 40
0.6973031504846855
 40
0.7490856597091364
 40
0.8048806474593091
 40
0.8654850057023364
 40
0.9302371271531362
 40
1.0
 40
1.0
 40
1.0
 40
1.0
 10
0.2315313137087194
 20
0.0854804853611835
 30
0.0
 10
0.2288158700335095
 20
0.0853711667885398
 30
0.0
 10
0.2234040872187834
 20
0.0851532987553469
 30
0.0
 10
0.2154539465291338
 20
0.083192279194726
 30
0.0
 10
0.2077763976992978
 20
0.0801205595691142
 30
0.0
 10
0.2004939192140576
 20
0.0758591439201074
 30
0.0
 10
0.1938029086207556
 20
0.0705806383060483
 30
0.0
 10
0.1879451752425866
 20
0.0643724314652006
 30
0.0
 10
0.183020709133719
 20
0.0573117862143331
 30
0.0
 10
0.179754150926429
 20
0.0507286064632248
 30
0.0
 10
0.1776471170606012
 20
0.0449019439705697
 30
0.0
 10
0.1762474502979338
 20
0.0399483048509978
 30
0.0
 10
0.1750446198827779
 20
0.0344482871165586
 30
0.0
 10
0.1741507611896236
 20
0.0283849220391054
 30
0.0
 10
0.1732878743605046
 20
0.0217977010294265
 30
0.0
 10
0.1728714237121212
 20
0.0146538089073107
 30
0.0
 10
0.1724663121296695
 20
0.0069593740714537
 30
0.0
 10
0.1724468539368349
 20
0.0016470494113245
 30
0.0
 10
0.1724367624266681
 20
-0.0011080563054832
 30
0.0
  0
SPLINE
  5
AF
330
1F
100
AcDbEntity
  8
0
  6
Continuous
 62
     7
370
    25
100
AcDbSpline
210
0.0
220
0.0
230
1.0
 70
     8
 71
     3
 72
    23
 73
    19
 74
     0
 42
0.000000001
 43
0.00000001
 40
0.0
 40
0.0
 40
0.0
 40
0.0
 40
0.0825297038220663
 40
0.15877885491757
 40
0.2277380621151792
 40
0.2899456527966758
 40
0.3454988386981374
 40
0.3938963373401232
 40
0.4363737851900876
 40
0.4721222744615226
 40
0.5363836155048263
 40
0.5990779017254961
 40
0.6619482340244576
 40
0.7263105423531551
 40
0.7917711030502111
 40
0.8586473037978578
 40
0.9273053338076852
 40
1.0
 40
1.0
 40
1.0
 40
1.0
 10
0.2750008649907709
 20
0.0149175847201579
 30
0.0
 10
0.2749951913496105
 20
0.0175385360605348
 30
0.0
 10
0.2749842758342878
 20
0.0225809830020255
 30
0.0
 10
0.2747931103116941
 20
0.0298119598099362
 30
0.0
 10
0.2744297801905431
 20
0.0363891798165798
 30
0.0
 10
0.274009741021531
 20
0.0423049986618239
 30
0.0
 10
0.27340544255595
 20
0.0475486650018708
 30
0.0
 10
0.2727190309766784
 20
0.0521482905734758
 30
0.0
 10
0.2719084159390561
 20
0.0560923442222794
 30
0.0
 10
0.2705662813232673
 20
0.0604183002839283
 30
0.0
 10
0.2685152478740211
 20
0.0651840804970756
 30
0.0
 10
0.26521608630346
 20
0.0702655820101065
 30
0.0
 10
0.2611012591333855
 20
0.0747133032617239
 30
0.0
 10
0.2562747680002048
 20
0.0785103567214019
 30
0.0
 10
0.2508457907009029
 20
0.081649033957007
 30
0.0
 10
0.2448469763574112
 20
0.0839104447988989
 30
0.0
 10
0.2383323397262334
 20
0.085226465486211
 30
0.0
 10
0.2338410750184493
 20
0.0853942152487618
 30
0.0
 10
0.2315313137087195
 20
0.0854804853611835
 30
0.0
  0
SPLINE
  5
B2
330
1F
100
AcDbEntity
  8
0
  6
Continuous
 62
     7
370
    25
100
AcDbSpline
210
0.0
220
0.0
230
1.0
 70
     8
 71
     3
 72
    23
 73
    19
 74
     0
 42
0.000000001
 43
0.00000001
 40
0.0
 40
0.0
 40
0.0
 40
0.0
 40
0.0681582441559986
 40
0.1347066022023573
 40
0.2018649976035987
 40
0.2707882662774642
 40
0.3400242943604921
 40
0.4080827390537218
 40
0.4768131952581446
 40
0.5473460643070953
 40
0.5856397954238958
 40
0.6288649531777647
 40
0.6771532033637916
 40
0.7308028113651063
 40
0.7898066155325021
 40
0.8543250087420142
 40
0.9243651340575435
 40
0.9999999999999999
 40
0.9999999999999999
 40
0.9999999999999999
 40
0.9999999999999999
 10
0.356681554093335
 20
0.0854804853611835
 30
0.0
 10
0.3538479859238118
 20
0.0853793312621443
 30
0.0
 10
0.3482477779819582
 20
0.0851794123066437
 30
0.0
 10
0.3400731003956664
 20
0.0831384213807019
 30
0.0
 10
0.3322180277808831
 20
0.0800612606193043
 30
0.0
 10
0.3249169468576726
 20
0.0756017993961989
 30
0.0
 10
0.318200676099333
 20
0.0702583448353392
 30
0.0
 10
0.3124221348289326
 20
0.0639048022811019
 30
0.0
 10
0.3076484072816636
 20
0.0567169503571607
 30
0.0
 10
0.3044159804287492
 20
0.0500636144774724
 30
0.0
 10
0.3023738874826882
 20
0.0440872256288166
 30
0.0
 10
0.3010255363580547
 20
0.0388659847718169
 30
0.0
 10
0.2999767226816364
 20
0.0329315870694487
 30
0.0
 10
0.2989931134522624
 20
0.0263239091505775
 30
0.0
 10
0.2983511328832146
 20
0.0189974676968634
 30
0.0
 10
0.2977676777171885
 20
0.0109861533397332
 30
0.0
 10
0.2974947589447635
 20
0.0022658705228775
 30
0.0
 10
0.2974565833190891
 20
-0.0037788929495361
 30
0.0
 10
0.2974367624266682
 20
-0.006917351177278
 30
0.0
  0
SPLINE
  5
B3
330
1F
100
AcDbEntity
  8
0
  6
Continuous
 62
     7
370
    25
100
AcDbSpline
210
0.0
220
0.0
230
1.0
 70
     8
 71
     3
 72
    23
 73
    19
 74
     0
 42
0.000000001
 43
0.00000001
 40
0.0
 40
0.0
 40
0.0
 40
0.0
 40
0.0783429851937014
 40
0.1505633028794206
 40
0.2161510566599774
 40
0.2756797924514268
 40
0.3287070503654631
 40
0.3759044348322089
 40
0.4173018977400342
 40
0.4526927480535838
 40
0.5172652917530135
 40
0.581216568062308
 40
0.6453218939728039
 40
0.7120244933797628
 40
0.7801300447160466
 40
0.8502182262116653
 40
0.9226485217347388
 40
1.0
 40
1.0
 40
1.0
 40
1.0
 10
0.4000008649907708
 20
0.0210774404893886
 30
0.0
 10
0.3999953019210543
 20
0.0234146243420625
 30
0.0
 10
0.3999846105471095
 20
0.0279063362601745
 30
0.0
 10
0.3997922082925253
 20
0.0343529399178652
 30
0.0
 10
0.399429685859976
 20
0.0402292511495075
 30
0.0
 10
0.3990057830909002
 20
0.0455272574454709
 30
0.0
 10
0.3984169395637167
 20
0.0502593137666595
 30
0.0
 10
0.3976565158683827
 20
0.0544159150929538
 30
0.0
 10
0.3968509673041875
 20
0.0580297587615726
 30
0.0
 10
0.3955126822249858
 20
0.0620359050185829
 30
0.0
 10
0.3933735471095682
 20
0.0664552057673898
 30
0.0
 10
0.3901151556786359
 20
0.0712211754670455
 30
0.0
 10
0.3860101480882967
 20
0.0753698040515613
 30
0.0
 10
0.3812701369052162
 20
0.0789711123957159
 30
0.0
 10
0.3758738194270974
 20
0.0818992296169905
 30
0.0
 10
0.3699263392010407
 20
0.0839903731671743
 30
0.0
 10
0.3634646212300093
 20
0.0852848644823429
 30
0.0
 10
0.3589915649149583
 20
0.0854138655949403
 30
0.0
 10
0.356681554093335
 20
0.0854804853611835
 30
0.0
  0
SPLINE
  5
B7
330
1F
100
AcDbEntity
  8
0
  6
Continuous
 62
     7
370
    25
100
AcDbSpline
210
0.0
220
0.0
230
1.0
 70
     8
 71
     3
 72
    23
 73
    19
 74
     0
 42
0.000000001
 43
0.00000001
 40
0.0
 40
0.0
 40
0.0
 40
0.0
 40
0.0756043304957457
 40
0.1479650154827372
 40
0.2187969985237011
 40
0.2894704453213768
 40
0.3597242180874993
 40
0.4297077387530447
 40
0.5004965198485849
 40
0.5744290198679481
 40
0.6139472962286695
 40
0.6571552698261104
 40
0.7039727697209368
 40
0.7549389848168002
 40
0.8097066112894875
 40
0.8688329536985493
 40
0.9323854739325977
 40
1.0
 40
1.0
 40
1.0
 40
1.0
 10
0.3605878040933349
 20
0.1079163827970809
 30
0.0
 10
0.3636507657232319
 20
0.1078008670215306
 30
0.0
 10
0.3696452790271521
 20
0.1075747914329269
 30
0.0
 10
0.3783722265780683
 20
0.1057995433375402
 30
0.0
 10
0.3865109269583799
 20
0.1027511399719891
 30
0.0
 10
0.3940450038247705
 20
0.0985915945026774
 30
0.0
 10
0.4008421333539942
 20
0.0933645099809428
 30
0.0
 10
0.4067504411528448
 20
0.0871453072939495
 30
0.0
 10
0.4117340385339883
 20
0.0799779770788525
 30
0.0
 10
0.414989655655196
 20
0.0732356921721405
 30
0.0
 10
0.4171978888144761
 20
0.0672831683972478
 30
0.0
 10
0.4185594055520408
 20
0.0622112904466704
 30
0.0
 10
0.4197622409153671
 20
0.0566290366666636
 30
0.0
 10
0.4207609012912963
 20
0.0505297322735779
 30
0.0
 10
0.4214907978695607
 20
0.0438918316805228
 30
0.0
 10
0.422031563261549
 20
0.0367261976888838
 30
0.0
 10
0.4223975685157159
 20
0.0290272611444644
 30
0.0
 10
0.4224234308201103
 20
0.0237154396996506
 30
0.0
 10
0.4224367624266681
 20
0.0209772802329784
 30
0.0
  0
SPLINE
  5
B8
330
1F
100
AcDbEntity
  8
0
  6
Continuous
 62
     7
370
    25
100
AcDbSpline
210
0.0
220
0.0
230
1.0
 70
     8
 71
     3
 72
    19
 73
    15
 74
     0
 42
0.000000001
 43
0.00000001
 40
0.0
 40
0.0
 40
0.0
 40
0.0
 40
0.0717660641583405
 40
0.1412255357663697
 40
0.2091158524974617
 40
0.2748396534685272
 40
0.3394829303752201
 40
0.4024762667354012
 40
0.4649418891713284
 40
0.5268326406463821
 40
0.6474148160608219
 40
0.7655615117859482
 40
0.8816150870393312
 40
1.0
 40
1.0
 40
1.0
 40
1.0
 10
0.2935805925548733
 20
0.063795789848363
 30
0.0
 10
0.2945599676517106
 20
0.0655618197965876
 30
0.0
 10
0.2964872403033347
 20
0.0690371187215391
 30
0.0
 10
0.2997233572370986
 20
0.0739555660247448
 30
0.0
 10
0.3031139141284061
 20
0.0785560511565571
 30
0.0
 10
0.3066878064898773
 20
0.082842224325849
 30
0.0
 10
0.3104324198356338
 20
0.0867929193554225
 30
0.0
 10
0.3143653769999324
 20
0.0904211980450175
 30
0.0
 10
0.3184642899587558
 20
0.0937426418796335
 30
0.0
 10
0.324163735666806
 20
0.0976228675591841
 30
0.0
 10
0.3315789219087208
 20
0.1017443805136458
 30
0.0
 10
0.3409280729585671
 20
0.1053178407999812
 30
0.0
 10
0.3506530852149342
 20
0.1075261356827686
 30
0.0
 10
0.3572543493797521
 20
0.1077854408853279
 30
0.0
 10
0.3605878040933349
 20
0.1079163827970809
 30
0.0
  0
SPLINE
  5
B9
330
1F
100
AcDbEntity
  8
0
  6
Continuous
 62
     7
370
    25
100
AcDbSpline
210
0.0
220
0.0
230
1.0
 70
     8
 71
     3
 72
    19
 73
    15
 74
     0
 42
0.000000001
 43
0.00000001
 40
0.0
 40
0.0
 40
0.0
 40
0.0
 40
0.0841520188443191
 40
0.1665323202984591
 40
0.2488363311465331
 40
0.3312461454872607
 40
0.4129571090216181
 40
0.4904942776695666
 40
0.5661557919819246
 40
0.6399873346864663
 40
0.7167654882718497
 40
0.8021439047100979
 40
0.8958332007101932
 40
1.0
 40
1.0
 40
1.0
 40
1.0
 10
0.2354375637087194
 20
0.107916382797081
 30
0.0
 10
0.2376442063206861
 20
0.1078417191699048
 30
0.0
 10
0.2420110333949136
 20
0.1076939638665111
 30
0.0
 10
0.2484813255449241
 20
0.1067325327824537
 30
0.0
 10
0.254756940675854
 20
0.1050706632810588
 30
0.0
 10
0.2608007999136651
 20
0.1027558544262434
 30
0.0
 10
0.2664951341478702
 20
0.0999525196466681
 30
0.0
 10
0.2717157911300361
 20
0.09666325479547
 30
0.0
 10
0.2764032345716617
 20
0.0929706065522191
 30
0.0
 10
0.2805550953793858
 20
0.0887078256247122
 30
0.0
 10
0.2842885971933816
 20
0.0837552114446734
 30
0.0
 10
0.2877228005240946
 20
0.0779791936658419
 30
0.0
 10
0.2908960299796238
 20
0.0712500750190098
 30
0.0
 10
0.2926546948962005
 20
0.0663667506634373
 30
0.0
 10
0.2935805925548733
 20
0.063795789848363
 30
0.0
  0
SPLINE
  5
BA
330
1F
100
AcDbEntity
  8
0
  6
Continuous
 62
     7
370
    25
100
AcDbSpline
210
0.0
220
0.0
230
1.0
 70
     8
 71
     3
 72
    11
 73
     7
 74
     0
 42
0.000000001
 43
0.00000001
 40
0.0
 40
0.0
 40
0.0
 40
0.0
 40
0.253734075690663
 40
0.5030351201318575
 40
0.750013597330881
 40
1.0
 40
1.0
 40
1.0
 40
1.0
 10
0.197777307298463
 20
0.0986515590791322
 30
0.0
 10
0.2007676403116948
 20
0.1000805137395107
 30
0.0
 10
0.2066960617208051
 20
0.1029134575500331
 30
0.0
 10
0.2160831492152192
 20
0.1057872831902767
 30
0.0
 10
0.2256884827535371
 20
0.1075533618551841
 30
0.0
 10
0.2321747837466346
 20
0.1077948885290076
 30
0.0
 10
0.2354375637087194
 20
0.107916382797081
 30
0.0
  0
SPLINE
  5
BB
330
1F
100
AcDbEntity
  8
0
  6
Continuous
 62
     7
370
    25
100
AcDbSpline
210
0.0
220
0.0
230
1.0
 70
     8
 71
     3
 72
    11
 73
     7
 74
     0
 42
0.000000001
 43
0.00000001
 40
0.0
 40
0.0
 40
0.0
 40
0.0
 40
0.2835948081386947
 40
0.5433948405759667
 40
0.7806456291745606
 40
0.9999999999999999
 40
0.9999999999999999
 40
0.9999999999999999
 40
0.9999999999999999
 10
0.1724367624266681
 20
0.0729604533099015
 30
0.0
 10
0.1744570445633969
 20
0.0757381391477477
 30
0.0
 10
0.1783280988214472
 20
0.0810604515092929
 30
0.0
 10
0.1846756454280417
 20
0.0880740432404326
 30
0.0
 10
0.191016796319412
 20
0.0940260542871582
 30
0.0
 10
0.1955834664457112
 20
0.0971505451160344
 30
0.0
 10
0.197777307298463
 20
0.0986515590791322
 30
0.0
  0
SPLINE
  5
C0
330
1F
100
AcDbEntity
  8
0
  6
Continuous
 62
     7
370
    25
100
AcDbSpline
210
0.0
220
0.0
230
1.0
 70
     8
 71
     3
 72
    15
 73
    11
 74
     0
 42
0.000000001
 43
0.00000001
 40
0.0
 40
0.0
 40
0.0
 40
0.0
 40
0.1298621417207383
 40
0.2546535308972892
 40
0.3760145541937132
 40
0.495255251817608
 40
0.6147977192994576
 40
0.7381055541683333
 40
0.8651963000723588
 40
1.0
 40
1.0
 40
1.0
 40
1.0
 10
0.8004415701189758
 20
0.1079163827970809
 30
0.0
 10
0.8041701314806146
 20
0.1078136862583767
 30
0.0
 10
0.8114816643363593
 20
0.1076123031928777
 30
0.0
 10
0.8221765221411325
 20
0.1059363940986648
 30
0.0
 10
0.832293984848529
 20
0.1031050750161758
 30
0.0
 10
0.8419121528506779
 20
0.0992538251573539
 30
0.0
 10
0.8509964875717362
 20
0.0941360587943599
 30
0.0
 10
0.8594609864514471
 20
0.0876803472926715
 30
0.0
 10
0.8673942352591474
 20
0.0799274053662341
 30
0.0
 10
0.8719928275205207
 20
0.073972373618432
 30
0.0
 10
0.874359839349745
 20
0.0709071680534912
 30
0.0
  0
SPLINE
  5
C1
330
1F
100
AcDbEntity
  8
0
  6
Continuous
 62
     7
370
    25
100
AcDbSpline
210
0.0
220
0.0
230
1.0
 70
     8
 71
     3
 72
    23
 73
    19
 74
     0
 42
0.000000001
 43
0.00000001
 40
0.0
 40
0.0
 40
0.0
 40
0.0
 40
0.0637745323056321
 40
0.1260788099895057
 40
0.1869040927472078
 40
0.2475739349176199
 40
0.3080033561644471
 40
0.3691318984609784
 40
0.4320332277442052
 40
0.4967907944370915
 40
0.5616108232295653
 40
0.6249138657484625
 40
0.686726349241925
 40
0.7480788332577724
 40
0.8095822911398963
 40
0.8716307425688279
 40
0.9348858208285548
 40
0.9999999999999999
 40
0.9999999999999999
 40
0.9999999999999999
 40
0.9999999999999999
 10
0.7044880444779503
 20
0.0138659020278502
 30
0.0
 10
0.7045775424340135
 20
0.0170418808542379
 30
0.0
 10
0.7047544750650967
 20
0.0233206196627618
 30
0.0
 10
0.7060725621965437
 20
0.0325548123760374
 30
0.0
 10
0.7082890628150573
 20
0.0414489738569831
 30
0.0
 10
0.7113996233626203
 20
0.0499744698015374
 30
0.0
 10
0.7153883344314151
 20
0.0581416162407224
 30
0.0
 10
0.7202403406471899
 20
0.0659561894560751
 30
0.0
 10
0.7259559924113927
 20
0.0734397178462205
 30
0.0
 10
0.7325454500554202
 20
0.0804162340475615
 30
0.0
 10
0.7396836479241798
 20
0.0868605636382317
 30
0.0
 10
0.7473199858467063
 20
0.0924612097412648
 30
0.0
 10
0.7552645059410514
 20
0.0972981275138379
 30
0.0
 10
0.763640435264079
 20
0.1011305186785771
 30
0.0
 10
0.7723237998936501
 20
0.1042311690031814
 30
0.0
 10
0.7813919031613092
 20
0.106376381010361
 30
0.0
 10
0.7908070159238504
 20
0.1076404753846473
 30
0.0
 10
0.7971991939284656
 20
0.1078235299668677
 30
0.0
 10
0.8004415701189758
 20
0.1079163827970809
 30
0.0
  0
SPLINE
  5
C2
330
1F
100
AcDbEntity
  8
0
  6
Continuous
 62
     7
370
    25
100
AcDbSpline
210
0.0
220
0.0
230
1.0
 70
     8
 71
     3
 72
    23
 73
    19
 74
     0
 42
0.000000001
 43
0.00000001
 40
0.0
 40
0.0
 40
0.0
 40
0.0
 40
0.0646199913407679
 40
0.1274334841444694
 40
0.1890041265579409
 40
0.2499300706860469
 40
0.3106684537406715
 40
0.3723289611368239
 40
0.4349391099970087
 40
0.4995755441940348
 40
0.5641912077719239
 40
0.6267352169294782
 40
0.6881093335614014
 40
0.749293606536751
 40
0.8103305278109453
 40
0.871901170224416
 40
0.9350459146845315
 40
1.0
 40
1.0
 40
1.0
 40
1.0
 10
0.7997404483241042
 20
-0.0811861813054832
 30
0.0
 10
0.7965141659074945
 20
-0.081098583286258
 30
0.0
 10
0.7901517941297806
 20
-0.0809258361137129
 30
0.0
 10
0.7807925743341437
 20
-0.0795856715695501
 30
0.0
 10
0.771785985087525
 20
-0.0774334843094018
 30
0.0
 10
0.7631235156116831
 20
-0.0744405636314185
 30
0.0
 10
0.7548612195092469
 20
-0.0704705049429766
 30
0.0
 10
0.7469283554612252
 20
-0.0657175586543039
 30
0.0
 10
0.7393660203170024
 20
-0.0600574993628291
 30
0.0
 10
0.7322894818195843
 20
-0.0535869259090513
 30
0.0
 10
0.7257729103641628
 20
-0.0465587125387933
 30
0.0
 10
0.7200542480340064
 20
-0.0390626020477127
 30
0.0
 10
0.7152861709015252
 20
-0.0311310089125221
 30
0.0
 10
0.7112990222795771
 20
-0.0228643550633284
 30
0.0
 10
0.7082278548195245
 20
-0.0141990036680403
 30
0.0
 10
0.7060868809439581
 20
-0.0051649202437704
 30
0.0
 10
0.7047482776081975
 20
0.0042272135805045
 30
0.0
 10
0.7045756018449865
 20
0.0106228938016194
 30
0.0
 10
0.7044880444779503
 20
0.0138659020278502
 30
0.0
  0
SPLINE
  5
C3
330
1F
100
AcDbEntity
  8
0
  6
Continuous
 62
     7
370
    25
100
AcDbSpline
210
0.0
220
0.0
230
1.0
 70
     8
 71
     3
 72
    15
 73
    11
 74
     0
 42
0.000000001
 43
0.00000001
 40
0.0
 40
0.0
 40
0.0
 40
0.0
 40
0.1342983790141662
 40
0.2620849753823006
 40
0.3862699121345001
 40
0.5071645966227992
 40
0.6273002357255067
 40
0.7481449416029943
 40
0.872370177161353
 40
1.0
 40
1.0
 40
1.0
 40
1.0
 10
0.874359839349745
 20
-0.0463804922029191
 30
0.0
 10
0.8718299257335909
 20
-0.0492404631999072
 30
0.0
 10
0.8668927674992446
 20
-0.0548217325632602
 30
0.0
 10
0.8586469733584254
 20
-0.0621133163125993
 30
0.0
 10
0.849906389222533
 20
-0.068140339279746
 30
0.0
 10
0.8407134377131977
 20
-0.0730081904012027
 30
0.0
 10
0.8310764203314392
 20
-0.076664765853871
 30
0.0
 10
0.8210166998117069
 20
-0.0792637772199996
 30
0.0
 10
0.8105301726070258
 20
-0.0809347654465889
 30
0.0
 10
0.8033692901220255
 20
-0.0811016241515196
 30
0.0
 10
0.7997404483241042
 20
-0.0811861813054832
 30
0.0
  0
CIRCLE
  5
D4
330
1F
100
AcDbEntity
  8
0
  6
Continuous
 62
     7
370
    25
100
AcDbCircle
 10
-1.1
 20
-2.175
 30
0.0
 40
0.0720000000000001
  0
SPLINE
  5
D5
330
1F
100
AcDbEntity
  8
0
  6
Continuous
 62
     7
370
    25
100
AcDbSpline
210
0.0
220
0.0
230
1.0
 70
     8
 71
     3
 72
    23
 73
    19
 74
     0
 42
0.000000001
 43
0.00000001
 40
0.0
 40
0.0
 40
0.0
 40
0.0
 40
0.0695585437274132
 40
0.136335250557572
 40
0.2010957661175481
 40
0.2644499547795252
 40
0.3270049911572453
 40
0.3893913874403777
 40
0.4519764903030318
 40
0.5156699828847828
 40
0.5789732464632439
 40
0.640167028800424
 40
0.699739843424755
 40
0.7586849854260629
 40
0.8178204012911089
 40
0.8769839874813278
 40
0.9376342848620924
 40
1.0
 40
1.0
 40
1.0
 40
1.0
 10
1.042078188708719
 20
-0.0811861813054832
 30
0.0
 10
1.03853455415991
 20
-0.0811225184626225
 30
0.0
 10
1.031589004724751
 20
-0.0809977388285545
 30
0.0
 10
1.021423111323738
 20
-0.0796257048714134
 30
0.0
 10
1.01170784938007
 20
-0.0775573037086579
 30
0.0
 10
1.002446538096797
 20
-0.0745884655720015
 30
0.0
 10
0.9936377356504777
 20
-0.0707666959107328
 30
0.0
 10
0.9852896557758829
 20
-0.0660983448687287
 30
0.0
 10
0.977429940190426
 20
-0.0605446455899489
 30
0.0
 10
0.9701363128497429
 20
-0.0542044477777641
 30
0.0
 10
0.9634376381247586
 20
-0.0473301162798661
 30
0.0
 10
0.9576857673853605
 20
-0.0399122649989824
 30
0.0
 10
0.9526968194840899
 20
-0.0322236187245549
 30
0.0
 10
0.9486905664075418
 20
-0.0240943668643765
 30
0.0
 10
0.9455015002334444
 20
-0.0156325545391768
 30
0.0
 10
0.9433225836209536
 20
-0.0067703945434623
 30
0.0
 10
0.9419133166410871
 20
0.0024190521749079
 30
0.0
 10
0.9417502181037729
 20
0.0086856866073599
 30
0.0
 10
0.9416675316574374
 20
0.011862696899645
 30
0.0
  0
SPLINE
  5
D6
330
1F
100
AcDbEntity
  8
0
  6
Continuous
 62
     7
370
    25
100
AcDbSpline
210
0.0
220
0.0
230
1.0
 70
     8
 71
     3
 72
    23
 73
    19
 74
     0
 42
0.000000001
 43
0.00000001
 40
0.0
 40
0.0
 40
0.0
 40
0.0
 40
0.0596333961362503
 40
0.1190688615049896
 40
0.1781965462156714
 40
0.2369566475521797
 40
0.2959319880758018
 40
0.3558557687429126
 40
0.4164733051171456
 40
0.4777415997317969
 40
0.5399029904536085
 40
0.6025375151243929
 40
0.6654223850767759
 40
0.7297652560446468
 40
0.7948287708416036
 40
0.8618265399701652
 40
0.930010932434066
 40
1.0
 40
1.0
 40
1.0
 40
1.0
 10
1.127564967554874
 20
-0.0390187133567652
 30
0.0
 10
1.126451560253595
 20
-0.0406537652794451
 30
0.0
 10
1.124228441190384
 20
-0.0439184421811299
 30
0.0
 10
1.120512182229382
 20
-0.0485215933717987
 30
0.0
 10
1.116503622821899
 20
-0.0528302849648183
 30
0.0
 10
1.112218401615725
 20
-0.0568387414026105
 30
0.0
 10
1.10771247234232
 20
-0.0606428856321573
 30
0.0
 10
1.102831907371197
 20
-0.0640608552401382
 30
0.0
 10
1.097734077980922
 20
-0.067284771148418
 30
0.0
 10
1.092359138143513
 20
-0.0701856905914896
 30
0.0
 10
1.086762659714017
 20
-0.0727932849874894
 30
0.0
 10
1.080952517598676
 20
-0.0750355114674454
 30
0.0
 10
1.074953959547835
 20
-0.0769619476035583
 30
0.0
 10
1.068759932677915
 20
-0.07849318665877
 30
0.0
 10
1.0623582256558
 20
-0.0797153894073773
 30
0.0
 10
1.055765394625477
 20
-0.0805263680905267
 30
0.0
 10
1.048983710225324
 20
-0.0811317453133343
 30
0.0
 10
1.04439998513186
 20
-0.0811678786629446
 30
0.0
 10
1.042078188708719
 20
-0.0811861813054832
 30
0.0
  0
SPLINE
  5
D8
330
1F
100
AcDbEntity
  8
0
  6
Continuous
 62
     7
370
    25
100
AcDbSpline
210
0.0
220
0.0
230
1.0
 70
     8
 71
     3
 72
    15
 73
    11
 74
     0
 42
0.000000001
 43
0.00000001
 40
0.0
 40
0.0
 40
0.0
 40
0.0
 40
0.129981078576614
 40
0.2554473120268475
 40
0.3772983447181159
 40
0.4984417785420225
 40
0.619372125336625
 40
0.7418565019578115
 40
0.868563689145753
 40
1.0
 40
1.0
 40
1.0
 40
1.0
 10
1.042428749606156
 20
-0.0587502838695857
 30
0.0
 10
1.045739834204591
 20
-0.0586574626413091
 30
0.0
 10
1.052246994091445
 20
-0.0584750442961011
 30
0.0
 10
1.061758943025016
 20
-0.0569372612012499
 30
0.0
 10
1.070814650942858
 20
-0.0544198588004151
 30
0.0
 10
1.079413795983949
 20
-0.0509093123683937
 30
0.0
 10
1.087540664987968
 20
-0.0463716326611091
 30
0.0
 10
1.095142748910709
 20
-0.0407745490316931
 30
0.0
 10
1.102371315930598
 20
-0.0342790775804021
 30
0.0
 10
1.106621099972176
 20
-0.0292563653454026
 30
0.0
 10
1.10878491947795
 20
-0.0266990018183037
 30
0.0
  0
SPLINE
  5
D9
330
1F
100
AcDbEntity
  8
0
  6
Continuous
 62
     7
370
    25
100
AcDbSpline
210
0.0
220
0.0
230
1.0
 70
     8
 71
     3
 72
    19
 73
    15
 74
     0
 42
0.000000001
 43
0.00000001
 40
0.0
 40
0.0
 40
0.0
 40
0.0
 40
0.0805252423525409
 40
0.1599654769449856
 40
0.2403213612945774
 40
0.3225285276294008
 40
0.4050235832074846
 40
0.4865966363996185
 40
0.5678654736293202
 40
0.6513327733845238
 40
0.7362375672940276
 40
0.8215290690095377
 40
0.9090049060738444
 40
1.0
 40
1.0
 40
1.0
 40
1.0
 10
0.964103429093335
 20
0.0138659020278502
 30
0.0
 10
0.96423051853701
 20
0.0106681012399104
 30
0.0
 10
0.964482985004396
 20
0.0043155872545652
 30
0.0
 10
0.9664616606974248
 20
-0.0050614200150348
 30
0.0
 10
0.9697005469342762
 20
-0.0141273978976799
 30
0.0
 10
0.9741332505526897
 20
-0.0228179791207752
 30
0.0
 10
0.9797387601535679
 20
-0.0308604187827393
 30
0.0
 10
0.9863225146749085
 20
-0.0380735226673904
 30
0.0
 10
0.9938881634790434
 20
-0.0443175246833543
 30
0.0
 10
1.002369044247619
 20
-0.0494941336175808
 30
0.0
 10
1.011566025922145
 20
-0.0536556598755794
 30
0.0
 10
1.021379604832713
 20
-0.0566204693673738
 30
0.0
 10
1.031729589150272
 20
-0.0584099245498536
 30
0.0
 10
1.038815785370997
 20
-0.0586353490525629
 30
0.0
 10
1.042428749606156
 20
-0.0587502838695857
 30
0.0
  0
SPLINE
  5
DA
330
1F
100
AcDbEntity
  8
0
  6
Continuous
 62
     7
370
    25
100
AcDbSpline
210
0.0
220
0.0
230
1.0
 70
     8
 71
     3
 72
    23
 73
    19
 74
     0
 42
0.000000001
 43
0.00000001
 40
0.0
 40
0.0
 40
0.0
 40
0.0
 40
0.0695216413260453
 40
0.1369209822612551
 40
0.2019692428653327
 40
0.2654615503849189
 40
0.3282478845128394
 40
0.390816716670098
 40
0.4535501756793824
 40
0.5175419816323168
 40
0.5807383719174802
 40
0.6419215091741663
 40
0.701596724408931
 40
0.7603128802455017
 40
0.8187565130146951
 40
0.8777180795361955
 40
0.9380940530276966
 40
1.0
 40
1.0
 40
1.0
 40
1.0
 10
1.04227850922154
 20
0.0854804853611835
 30
0.0
 10
1.039538583727857
 20
0.0854049966319189
 30
0.0
 10
1.034142374968078
 20
0.0852563236322111
 30
0.0
 10
1.026220506864744
 20
0.084327002678569
 30
0.0
 10
1.018674624498142
 20
0.082638287799529
 30
0.0
 10
1.011457431005209
 20
0.0804132194643618
 30
0.0
 10
1.004620258252983
 20
0.0774310558971999
 30
0.0
 10
0.9981451926496016
 20
0.0738017876028757
 30
0.0
 10
0.9919748005066216
 20
0.0695839275807028
 30
0.0
 10
0.9862878904108539
 20
0.064697460052244
 30
0.0
 10
0.9810858184764293
 20
0.0593832695059193
 30
0.0
 10
0.9765787531879013
 20
0.0536865769800295
 30
0.0
 10
0.9726546865312328
 20
0.0477780133224085
 30
0.0
 10
0.9695756896498599
 20
0.0415100317351352
 30
0.0
 10
0.9670560346158374
 20
0.0350260279310824
 30
0.0
 10
0.9653984117454648
 20
0.0282036096681111
 30
0.0
 10
0.9642937906445387
 20
0.0211301805555524
 30
0.0
 10
0.9641674100289873
 20
0.016307442003245
 30
0.0
 10
0.964103429093335
 20
0.0138659020278502
 30
0.0
  0
SPLINE
  5
DB
330
1F
100
AcDbEntity
  8
0
  6
Continuous
 62
     7
370
    25
100
AcDbSpline
210
0.0
220
0.0
230
1.0
 70
     8
 71
     3
 72
    15
 73
    11
 74
     0
 42
0.000000001
 43
0.00000001
 40
0.0
 40
0.0
 40
0.0
 40
0.0
 40
0.1283242377690988
 40
0.2525844750621369
 40
0.373506483310903
 40
0.4933644513855717
 40
0.6146085973434227
 40
0.7384702442356689
 40
0.8659947178700198
 40
1.0
 40
1.0
 40
1.0
 40
1.0
 10
1.10878491947795
 20
0.0534292033099015
 30
0.0
 10
1.106725643379524
 20
0.0559883742983652
 30
0.0
 10
1.102672308005228
 20
0.0610256678911664
 30
0.0
 10
1.095633791123285
 20
0.0675263774106743
 30
0.0
 10
1.088132975821819
 20
0.0731097375370225
 30
0.0
 10
1.080041686699336
 20
0.0776600054622184
 30
0.0
 10
1.071371272409893
 20
0.0811758233457654
 30
0.0
 10
1.062155925891983
 20
0.0836636951674055
 30
0.0
 10
1.052396961255973
 20
0.0852139982266128
 30
0.0
 10
1.045706589896292
 20
0.0853902008598603
 30
0.0
 10
1.04227850922154
 20
0.0854804853611835
 30
0.0
  0
SPLINE
  5
DE
330
1F
100
AcDbEntity
  8
0
  6
Continuous
 62
     7
370
    25
100
AcDbSpline
210
0.0
220
0.0
230
1.0
 70
     8
 71
     3
 72
    15
 73
    11
 74
     0
 42
0.000000001
 43
0.00000001
 40
0.0
 40
0.0
 40
0.0
 40
0.0
 40
0.1268408077972017
 40
0.2505477821575813
 40
0.3712302035652626
 40
0.4921157704266517
 40
0.6134009879986352
 40
0.737997320123624
 40
0.8661319098407447
 40
1.0
 40
1.0
 40
1.0
 40
1.0
 10
0.5706739419138477
 20
-0.0811861813054832
 30
0.0
 10
0.5670434010602824
 20
-0.0810936950402207
 30
0.0
 10
0.5598720184848286
 20
-0.0809110075515176
 30
0.0
 10
0.5493864705982199
 20
-0.0790596211190088
 30
0.0
 10
0.5392952668903332
 20
-0.0762926971432984
 30
0.0
 10
0.5297102079809315
 20
-0.072242769026471
 30
0.0
 10
0.5205553642292787
 20
-0.0670816607507885
 30
0.0
 10
0.5118825209605558
 20
-0.0607880746096809
 30
0.0
 10
0.503645610038872
 20
-0.0533751728427226
 30
0.0
 10
0.498687841662083
 20
-0.0477514716882867
 30
0.0
 10
0.496154711144617
 20
-0.0448780883567652
 30
0.0
  0
SPLINE
  5
DF
330
1F
100
AcDbEntity
  8
0
  6
Continuous
 62
     7
370
    25
100
AcDbSpline
210
0.0
220
0.0
230
1.0
 70
     8
 71
     3
 72
    23
 73
    19
 74
     0
 42
0.000000001
 43
0.00000001
 40
0.0
 40
0.0
 40
0.0
 40
0.0
 40
0.0649212959378681
 40
0.128034164391116
 40
0.1895737254178903
 40
0.2505798347323824
 40
0.3117332213636314
 40
0.3732500799286346
 40
0.4357625163356382
 40
0.5003455613741146
 40
0.5649493665465405
 40
0.6275279092682857
 40
0.6891572899131302
 40
0.7498650117126983
 40
0.8107601999033159
 40
0.8722997609300894
 40
0.9354126293833377
 40
1.0
 40
1.0
 40
1.0
 40
1.0
 10
0.6660265060164117
 20
0.0138659020278502
 30
0.0
 10
0.6659389713335726
 20
0.0106228799883369
 30
0.0
 10
0.665766340306871
 20
0.0042271725254354
 30
0.0
 10
0.6644274113110572
 20
-0.0051647629918698
 30
0.0
 10
0.6622876345874573
 20
-0.0141995754081564
 30
0.0
 10
0.6592120500784929
 20
-0.0228622370919588
 30
0.0
 10
0.6552376580533507
 20
-0.0311467836128618
 30
0.0
 10
0.6504016180274137
 20
-0.0390472404735719
 30
0.0
 10
0.644695441805347
 20
-0.0465610764128601
 30
0.0
 10
0.638173932683075
 20
-0.0535862835628911
 30
0.0
 10
0.6310987229647292
 20
-0.0600576630553639
 30
0.0
 10
0.623536045143492
 20
-0.0657175251706629
 30
0.0
 10
0.6156032647475939
 20
-0.070470480548731
 30
0.0
 10
0.6073409670950115
 20
-0.074440691946446
 30
0.0
 10
0.5986784214876059
 20
-0.0774329908085252
 30
0.0
 10
0.5896560445089223
 20
-0.079591405138829
 30
0.0
 10
0.580278748330548
 20
-0.0809224405484539
 30
0.0
 10
0.5739000946168114
 20
-0.0810975935797907
 30
0.0
 10
0.5706739419138477
 20
-0.0811861813054832
 30
0.0
  0
SPLINE
  5
E0
330
1F
100
AcDbEntity
  8
0
  6
Continuous
 62
     7
370
    25
100
AcDbSpline
210
0.0
220
0.0
230
1.0
 70
     8
 71
     3
 72
    23
 73
    19
 74
     0
 42
0.000000001
 43
0.00000001
 40
0.0
 40
0.0
 40
0.0
 40
0.0
 40
0.0650810177750298
 40
0.1286360505630799
 40
0.1906529019116437
 40
0.2521250372681106
 40
0.3134462756463776
 40
0.3752272792333936
 40
0.4384980827328623
 40
0.5032850999340388
 40
0.5680096868463699
 40
0.6308789816949764
 40
0.6921535040082761
 40
0.7525521497156015
 40
0.8131910939047694
 40
0.873985399518332
 40
0.9362579468344571
 40
1.0
 40
1.0
 40
1.0
 40
1.0
 10
0.5699728201189758
 20
0.1079163827970809
 30
0.0
 10
0.5732150774902002
 20
0.1078225843048157
 30
0.0
 10
0.5796235695114076
 20
0.1076371866572946
 30
0.0
 10
0.5890566572920877
 20
0.1063819684739203
 30
0.0
 10
0.5981406132581615
 20
0.1042307047287105
 30
0.0
 10
0.6068240456850504
 20
0.101130639345513
 30
0.0
 10
0.6151999789126349
 20
0.0972981057787261
 30
0.0
 10
0.6231444146151774
 20
0.0924611746660696
 30
0.0
 10
0.6307810971600563
 20
0.0868607324666531
 30
0.0
 10
0.6379179678102976
 20
0.0804155788365977
 30
0.0
 10
0.6445123512050022
 20
0.0734421312353271
 30
0.0
 10
0.6502156498562908
 20
0.0659405380829195
 30
0.0
 10
0.6551350715930513
 20
0.0581574961972744
 30
0.0
 10
0.6591115213403649
 20
0.0499723467526117
 30
0.0
 10
0.6622264032985966
 20
0.0414495446214072
 30
0.0
 10
0.6644417374156238
 20
0.0325546559850217
 30
0.0
 10
0.6657601405217726
 20
0.0233206602391101
 30
0.0
 10
0.6659370299258798
 20
0.0170418944844306
 30
0.0
 10
0.6660265060164117
 20
0.0138659020278502
 30
0.0
  0
SPLINE
  5
E1
330
1F
100
AcDbEntity
  8
0
  6
Continuous
 62
     7
370
    25
100
AcDbSpline
210
0.0
220
0.0
230
1.0
 70
     8
 71
     3
 72
    15
 73
    11
 74
     0
 42
0.000000001
 43
0.00000001
 40
0.0
 40
0.0
 40
0.0
 40
0.0
 40
0.1353597999413043
 40
0.2630446827611688
 40
0.3860610822643563
 40
0.5057706525454618
 40
0.6251780311386995
 40
0.7461477220466154
 40
0.8705380668997046
 40
1.0
 40
1.0
 40
1.0
 40
1.0
 10
0.496154711144617
 20
0.0709071680534912
 30
0.0
 10
0.498537388576876
 20
0.0739741490405347
 30
0.0
 10
0.5031676453411628
 20
0.0799342128195978
 30
0.0
 10
0.5111479956886819
 20
0.0876477934329559
 30
0.0
 10
0.5195713391826708
 20
0.0941531722648262
 30
0.0
 10
0.5286544400756802
 20
0.0992519246208831
 30
0.0
 10
0.5382561322195892
 20
0.1030962683289325
 30
0.0
 10
0.5483370120373224
 20
0.1059376576064762
 30
0.0
 10
0.5589826381002276
 20
0.1076120486495484
 30
0.0
 10
0.5662609561487876
 20
0.1078135958773378
 30
0.0
 10
0.5699728201189758
 20
0.1079163827970809
 30
0.0
  0
SPLINE
  5
E5
330
1F
100
AcDbEntity
  8
0
  6
Continuous
 62
     7
370
    25
100
AcDbSpline
210
0.0
220
0.0
230
1.0
 70
     8
 71
     3
 72
    23
 73
    19
 74
     0
 42
0.000000001
 43
0.00000001
 40
0.0
 40
0.0
 40
0.0
 40
0.0
 40
0.068742261605489
 40
0.1346351922242766
 40
0.1983241870671465
 40
0.2608250125604209
 40
0.3227135881590246
 40
0.3845545346076187
 40
0.4469128577247561
 40
0.510957632514829
 40
0.5749307010013354
 40
0.6366845377960935
 40
0.6974831152940618
 40
0.7571338075238543
 40
0.8169656636752641
 40
0.8768183516571962
 40
0.9376625803840032
 40
0.9999999999999999
 40
0.9999999999999999
 40
0.9999999999999999
 40
0.9999999999999999
 10
0.010677948324104
 20
-0.0811861813054832
 30
0.0
 10
0.0072683255020363
 20
-0.0810989530042195
 30
0.0
 10
0.0005904069503326
 20
-0.0809281119694069
 30
0.0
 10
-0.0091757346156144
 20
-0.0796083060601521
 30
0.0
 10
-0.0184607073966763
 20
-0.0774113073051898
 30
0.0
 10
-0.0272627501480624
 20
-0.0742779149673328
 30
0.0
 10
-0.0356302392162839
 20
-0.0703283046995162
 30
0.0
 10
-0.0434721318555254
 20
-0.0654274697296472
 30
0.0
 10
-0.0508435543923728
 20
-0.0596731729269015
 30
0.0
 10
-0.0576344104220796
 20
-0.0530920345661978
 30
0.0
 10
-0.063777167945371
 20
-0.0459484662570753
 30
0.0
 10
-0.0691966685418871
 20
-0.0384377492218237
 30
0.0
 10
-0.0737602632668901
 20
-0.0306227425477365
 30
0.0
 10
-0.0775001349727551
 20
-0.0224882650519679
 30
0.0
 10
-0.0804166930383345
 20
-0.0140697842099048
 30
0.0
 10
-0.0824546282289291
 20
-0.0053415833199166
 30
0.0
 10
-0.0837648864122085
 20
0.0036598001469888
 30
0.0
 10
-0.0839033984518715
 20
0.0097714382146205
 30
0.0
 10
-0.0839734939835883
 20
0.0128642994637476
 30
0.0
  0
SPLINE
  5
E6
330
1F
100
AcDbEntity
  8
0
  6
Continuous
 62
     7
370
    25
100
AcDbSpline
210
0.0
220
0.0
230
1.0
 70
     8
 71
     3
 72
    23
 73
    19
 74
     0
 42
0.000000001
 43
0.00000001
 40
0.0
 40
0.0
 40
0.0
 40
0.0
 40
0.0624160261588176
 40
0.1233369785373298
 40
0.1832651398530921
 40
0.2431724430697093
 40
0.3028983539197448
 40
0.3637735975039098
 40
0.4256053049523827
 40
0.4896590425101838
 40
0.5537845767921162
 40
0.6162215328110732
 40
0.6778544713083423
 40
0.7395168974879377
 40
0.8020965355763716
 40
0.865865841277971
 40
0.931507795196511
 40
1.0
 40
1.0
 40
1.0
 40
1.0
 10
0.105129070118976
 20
0.0128642994637476
 30
0.0
 10
0.1050589745962687
 20
0.0097714382010545
 30
0.0
 10
0.104920462574409
 20
0.0036598001066156
 30
0.0
 10
0.1036102042607615
 20
-0.0053415831639898
 30
0.0
 10
0.1015722695552428
 20
-0.0140697847843745
 30
0.0
 10
0.098655709685311
 20
-0.0224882629095585
 30
0.0
 10
0.0949158447379153
 20
-0.0306227505817996
 30
0.0
 10
0.0903522241998027
 20
-0.0384377183881508
 30
0.0
 10
0.08493282297468
 20
-0.0459485850505157
 30
0.0
 10
0.0787896803490801
 20
-0.0530915734971168
 30
0.0
 10
0.0720002606239808
 20
-0.0596748745537921
 30
0.0
 10
0.064634821458333
 20
-0.0654126080933152
 30
0.0
 10
0.056838104761839
 20
-0.0703284312624877
 30
0.0
 10
0.0485064366707902
 20
-0.0742881752349706
 30
0.0
 10
0.039715901897094
 20
-0.0774102966857945
 30
0.0
 10
0.0304475398895894
 20
-0.0796031550022514
 30
0.0
 10
0.0207157491529301
 20
-0.0809289895577063
 30
0.0
 10
0.0140709476267737
 20
-0.0810992447906289
 30
0.0
 10
0.010677948324104
 20
-0.0811861813054832
 30
0.0
  0
SPLINE
  5
E7
330
1F
100
AcDbEntity
  8
0
  6
Continuous
 62
     7
370
    25
100
AcDbSpline
210
0.0
220
0.0
230
1.0
 70
     8
 71
     3
 72
    15
 73
    11
 74
     0
 42
0.000000001
 43
0.00000001
 40
0.0
 40
0.0
 40
0.0
 40
0.0
 40
0.1281572795931866
 40
0.2538343627967336
 40
0.376505622522208
 40
0.4985336856679091
 40
0.6213677287324634
 40
0.7445647449043574
 40
0.8706337982552829
 40
0.9999999999999999
 40
0.9999999999999999
 40
0.9999999999999999
 40
0.9999999999999999
 10
0.0800890060164118
 20
0.0778182257457989
 30
0.0
 10
0.0820877170210512
 20
0.0755172267608394
 30
0.0
 10
0.0860464584666242
 20
0.0709597594597451
 30
0.0
 10
0.0911225812372927
 20
0.0635700728195745
 30
0.0
 10
0.0954955498199669
 20
0.055917208491599
 30
0.0
 10
0.0990000470333022
 20
0.0478995423007941
 30
0.0
 10
0.1017632630108177
 20
0.0395870657898249
 30
0.0
 10
0.1037250984576244
 20
0.0309512078499118
 30
0.0
 10
0.1048920223819401
 20
0.0220110401953712
 30
0.0
 10
0.1050493771634858
 20
0.0159393374755832
 30
0.0
 10
0.105129070118976
 20
0.0128642994637476
 30
0.0
  0
SPLINE
  5
E8
330
1F
100
AcDbEntity
  8
0
  6
Continuous
 62
     7
370
    25
100
AcDbSpline
210
0.0
220
0.0
230
1.0
 70
     8
 71
     3
 72
    15
 73
    11
 74
     0
 42
0.000000001
 43
0.00000001
 40
0.0
 40
0.0
 40
0.0
 40
0.0
 40
0.1317514273024057
 40
0.2583323505141585
 40
0.382133976092545
 40
0.5038043916000847
 40
0.6246929865409322
 40
0.7468705897275757
 40
0.8715135042348167
 40
1.0
 40
1.0
 40
1.0
 40
1.0
 10
0.010677948324104
 20
0.1079163827970809
 30
0.0
 10
0.0141058963843367
 20
0.1078433905728781
 30
0.0
 10
0.0208272647821741
 20
0.1077002706596168
 30
0.0
 10
0.0306706852021267
 20
0.106170630255858
 30
0.0
 10
0.0400667663404347
 20
0.1038315327997427
 30
0.0
 10
0.0490514943521148
 20
0.1005978497944244
 30
0.0
 10
0.0575098011701683
 20
0.0962634247553773
 30
0.0
 10
0.0655648900350228
 20
0.0910913325321321
 30
0.0
 10
0.0731946763839458
 20
0.0849640044203956
 30
0.0
 10
0.0777677499023171
 20
0.0802241423936286
 30
0.0
 10
0.0800890060164118
 20
0.0778182257457989
 30
0.0
  0
SPLINE
  5
E9
330
1F
100
AcDbEntity
  8
0
  6
Continuous
 62
     7
370
    25
100
AcDbSpline
210
0.0
220
0.0
230
1.0
 70
     8
 71
     3
 72
    23
 73
    19
 74
     0
 42
0.000000001
 43
0.00000001
 40
0.0
 40
0.0
 40
0.0
 40
0.0
 40
0.0679784896192548
 40
0.1330435352439079
 40
0.1965074380533951
 40
0.258613416768575
 40
0.3197283376065483
 40
0.3808728540495677
 40
0.4426356023162051
 40
0.5050793035048785
 40
0.5678805200585765
 40
0.6288138541554875
 40
0.6889100905404398
 40
0.748765005889847
 40
0.8093857829631171
 40
0.8708843357532251
 40
0.9340374630737027
 40
1.0
 40
1.0
 40
1.0
 40
1.0
 10
-0.5967940068041011
 20
0.0599897001047733
 30
0.0
 10
-0.5967558499953577
 20
0.0616772285296623
 30
0.0
 10
-0.5966811717146646
 20
0.0649799607428862
 30
0.0
 10
-0.5960851680306793
 20
0.0698327336216831
 30
0.0
 10
-0.5950000458023923
 20
0.074443316039444
 30
0.0
 10
-0.5936389799024735
 20
0.0788809491114762
 30
0.0
 10
-0.5917473367278997
 20
0.083059670114172
 30
0.0
 10
-0.5894869149318317
 20
0.0870352037591834
 30
0.0
 10
-0.5868306702944087
 20
0.0908020550450707
 30
0.0
 10
-0.5837704352338257
 20
0.0943022787656444
 30
0.0
 10
-0.5804056748592865
 20
0.0974815163590143
 30
0.0
 10
-0.5767703341639047
 20
0.1002528469283981
 30
0.0
 10
-0.5729461729795596
 20
0.1026175865567147
 30
0.0
 10
-0.5689170001539141
 20
0.1046008123132286
 30
0.0
 10
-0.5646441092279182
 20
0.1061009110699995
 30
0.0
 10
-0.5601573673467248
 20
0.1071335814320334
 30
0.0
 10
-0.5554658562839213
 20
0.1078232387749544
 30
0.0
 10
-0.5522586330009569
 20
0.1078848876532769
 30
0.0
 10
-0.5506201285989728
 20
0.1079163827970809
 30
0.0
  0
SPLINE
  5
EA
330
1F
100
AcDbEntity
  8
0
  6
Continuous
 62
     7
370
    25
100
AcDbSpline
210
0.0
220
0.0
230
1.0
 70
     8
 71
     3
 72
    11
 73
     7
 74
     0
 42
0.000000001
 43
0.00000001
 40
0.0
 40
0.0
 40
0.0
 40
0.0
 40
0.2462523706929829
 40
0.492590796476374
 40
0.7405699911180897
 40
1.0
 40
1.0
 40
1.0
 40
1.0
 10
-0.5884306253938447
 20
0.0318446680534912
 30
0.0
 10
-0.5897256682264383
 20
0.0339264976988974
 30
0.0
 10
-0.5923162064559105
 20
0.0380908845036738
 30
0.0
 10
-0.5948315772543467
 20
0.0450416328416803
 30
0.0
 10
-0.5965605793169988
 20
0.0523591369366312
 30
0.0
 10
-0.5967150357576645
 20
0.0574081979613511
 30
0.0
 10
-0.5967940068041011
 20
0.0599897001047733
 30
0.0
  0
SPLINE
  5
EB
330
1F
100
AcDbEntity
  8
0
  6
Continuous
 62
     7
370
    25
100
AcDbSpline
210
0.0
220
0.0
230
1.0
 70
     8
 71
     3
 72
    15
 73
    11
 74
     0
 42
0.000000001
 43
0.00000001
 40
0.0
 40
0.0
 40
0.0
 40
0.0
 40
0.1577616635135485
 40
0.3059502132085402
 40
0.4437754990007247
 40
0.5728243624015381
 40
0.6921541564432436
 40
0.8022957069908478
 40
0.9055643918329946
 40
1.0
 40
1.0
 40
1.0
 40
1.0
 10
-0.5569302247528191
 20
0.0069047642073373
 30
0.0
 10
-0.5587906990413485
 20
0.0079432736119287
 30
0.0
 10
-0.5623987524338365
 20
0.0099572747746795
 30
0.0
 10
-0.5675092732149684
 20
0.0130941376502745
 30
0.0
 10
-0.5721197985163079
 20
0.0162846572702875
 30
0.0
 10
-0.5763412681279321
 20
0.0193498600738427
 30
0.0
 10
-0.5800670542477501
 20
0.022451356070095
 30
0.0
 10
-0.5832824791266759
 20
0.0255925883177699
 30
0.0
 10
-0.5861141374003578
 20
0.0286468730377203
 30
0.0
 10
-0.5876818096668736
 20
0.0308109656530593
 30
0.0
 10
-0.5884306253938446
 20
0.0318446680534912
 30
0.0
  0
SPLINE
  5
EC
330
1F
100
AcDbEntity
  8
0
  6
Continuous
 62
     7
370
    25
100
AcDbSpline
210
0.0
220
0.0
230
1.0
 70
     8
 71
     3
 72
    15
 73
    11
 74
     0
 42
0.000000001
 43
0.00000001
 40
0.0
 40
0.0
 40
0.0
 40
0.0
 40
0.0768750740350456
 40
0.1674616757257259
 40
0.2722700232466394
 40
0.3895508405125226
 40
0.5208013683480553
 40
0.6662632933752256
 40
0.8255449152058609
 40
0.9999999999999999
 40
0.9999999999999999
 40
0.9999999999999999
 40
0.9999999999999999
 10
-0.5292359138553832
 20
-0.0119253639977909
 30
0.0
 10
-0.529808942028768
 20
-0.0112799809869506
 30
0.0
 10
-0.5310572043473102
 20
-0.0098741037004983
 30
0.0
 10
-0.5333468644377075
 20
-0.0078437409246681
 30
0.0
 10
-0.5360884260234745
 20
-0.0056553052708609
 30
0.0
 10
-0.5393127233757781
 20
-0.0033459060609511
 30
0.0
 10
-0.5430262563713188
 20
-0.0009460056829405
 30
0.0
 10
-0.5472440760420206
 20
0.0015318051920259
 30
0.0
 10
-0.5519084012240496
 20
0.0042052141769147
 30
0.0
 10
-0.5552063034610434
 20
0.0059780467014357
 30
0.0
 10
-0.5569302247528191
 20
0.0069047642073373
 30
0.0
  0
SPLINE
  5
ED
330
1F
100
AcDbEntity
  8
0
  6
Continuous
 62
     7
370
    25
100
AcDbSpline
210
0.0
220
0.0
230
1.0
 70
     8
 71
     3
 72
    11
 73
     7
 74
     0
 42
0.000000001
 43
0.00000001
 40
0.0
 40
0.0
 40
0.0
 40
0.0
 40
0.2534754346498639
 40
0.5004533151029028
 40
0.745578135000982
 40
0.9999999999999999
 40
0.9999999999999999
 40
0.9999999999999999
 40
0.9999999999999999
 10
-0.5230760580861523
 20
-0.0293532486131755
 30
0.0
 10
-0.523153650538924
 20
-0.0277597044230266
 30
0.0
 10
-0.5233068464502765
 20
-0.0246134647338648
 30
0.0
 10
-0.5245099373077423
 20
-0.0200598689449987
 30
0.0
 10
-0.526410855326299
 20
-0.0157406346105431
 30
0.0
 10
-0.528282615922996
 20
-0.0132128026647036
 30
0.0
 10
-0.5292359138553832
 20
-0.0119253639977909
 30
0.0
  0
SPLINE
  5
EE
330
1F
100
AcDbEntity
  8
0
  6
Continuous
 62
     7
370
    25
100
AcDbSpline
210
0.0
220
0.0
230
1.0
 70
     8
 71
     3
 72
    15
 73
    11
 74
     0
 42
0.000000001
 43
0.00000001
 40
0.0
 40
0.0
 40
0.0
 40
0.0
 40
0.1340420464623702
 40
0.2618956736507315
 40
0.3878360446911188
 40
0.517686205820827
 40
0.6445086536782141
 40
0.7647182630567264
 40
0.8802907821585002
 40
1.0
 40
1.0
 40
1.0
 40
1.0
 10
-0.555327660650255
 20
-0.0587502838695857
 30
0.0
 10
-0.5531620945103947
 20
-0.0586523678081428
 30
0.0
 10
-0.548930941540098
 20
-0.0584610562491985
 30
0.0
 10
-0.54287067306767
 20
-0.0567241211042112
 30
0.0
 10
-0.5372750568926368
 20
-0.0540005531167073
 30
0.0
 10
-0.5324162464984318
 20
-0.0501373603909843
 30
0.0
 10
-0.5282803778507487
 20
-0.0456405337767221
 30
0.0
 10
-0.5252855082501976
 20
-0.0405752395409826
 30
0.0
 10
-0.5234086385744195
 20
-0.0350901354917524
 30
0.0
 10
-0.5231882100989944
 20
-0.0312878281618177
 30
0.0
 10
-0.5230760580861524
 20
-0.0293532486131755
 30
0.0
  0
SPLINE
  5
EF
330
1F
100
AcDbEntity
  8
0
  6
Continuous
 62
     7
370
    25
100
AcDbSpline
210
0.0
220
0.0
230
1.0
 70
     8
 71
     3
 72
    15
 73
    11
 74
     0
 42
0.000000001
 43
0.00000001
 40
0.0
 40
0.0
 40
0.0
 40
0.0
 40
0.1474758177483591
 40
0.285904171544377
 40
0.4171716482444372
 40
0.540500743586496
 40
0.659237718380238
 40
0.7750060983159542
 40
0.8872285734286345
 40
1.0
 40
1.0
 40
1.0
 40
1.0
 10
-0.5915355933425627
 20
-0.0395195146388165
 30
0.0
 10
-0.5901232781299593
 20
-0.0410448549622311
 30
0.0
 10
-0.5873852915435223
 20
-0.0440019578157525
 30
0.0
 10
-0.5830066332008587
 20
-0.047939410720856
 30
0.0
 10
-0.5785509616934988
 20
-0.0512395015159998
 30
0.0
 10
-0.5740627697953339
 20
-0.0539997454297131
 30
0.0
 10
-0.5694756202007958
 20
-0.0561265599409665
 30
0.0
 10
-0.5648152191841056
 20
-0.0576207452202249
 30
0.0
 10
-0.5600910460368607
 20
-0.0585810446648939
 30
0.0
 10
-0.5569180363354422
 20
-0.0586937791162901
 30
0.0
 10
-0.555327660650255
 20
-0.0587502838695857
 30
0.0
  0
SPLINE
  5
F1
330
1F
100
AcDbEntity
  8
0
  6
Continuous
 62
     7
370
    25
100
AcDbSpline
210
0.0
220
0.0
230
1.0
 70
     8
 71
     3
 72
    15
 73
    11
 74
     0
 42
0.000000001
 43
0.00000001
 40
0.0
 40
0.0
 40
0.0
 40
0.0
 40
0.126742518961845
 40
0.2517239612496059
 40
0.3772186880262428
 40
0.5046935492516279
 40
0.6314582385934859
 40
0.7554010672029515
 40
0.8777005336014758
 40
0.9999999999999999
 40
0.9999999999999999
 40
0.9999999999999999
 40
0.9999999999999999
 10
-0.554175817701537
 20
-0.0811861813054832
 30
0.0
 10
-0.556702044518535
 20
-0.0811152741393723
 30
0.0
 10
-0.5617193964427233
 20
-0.0809744450562783
 30
0.0
 10
-0.5691400906676329
 20
-0.0796525835445826
 30
0.0
 10
-0.5763915734293943
 20
-0.0775957696897562
 30
0.0
 10
-0.583418969165564
 20
-0.0747589172498907
 30
0.0
 10
-0.5900651201576385
 20
-0.0711767234743709
 30
0.0
 10
-0.5961459004862746
 20
-0.0668865525039242
 30
0.0
 10
-0.6016824335191842
 20
-0.0620301241179328
 30
0.0
 10
-0.6048337387860518
 20
-0.0583077733540775
 30
0.0
 10
-0.6064093914194858
 20
-0.0564465979721498
 30
0.0
  0
SPLINE
  5
F2
330
1F
100
AcDbEntity
  8
0
  6
Continuous
 62
     7
370
    25
100
AcDbSpline
210
0.0
220
0.0
230
1.0
 70
     8
 71
     3
 72
    23
 73
    19
 74
     0
 42
0.000000001
 43
0.00000001
 40
0.0
 40
0.0
 40
0.0
 40
0.0
 40
0.0645481255642505
 40
0.1271991327555118
 40
0.1885973380874246
 40
0.248639515094013
 40
0.3095246994640572
 40
0.3700369910533487
 40
0.4318892436070738
 40
0.4957042857252928
 40
0.5595193278435122
 40
0.6213715803972377
 40
0.6823971072916396
 40
0.7435684819321638
 40
0.8054984835712131
 40
0.8686397008205234
 40
0.9330662250811633
 40
1.0
 40
1.0
 40
1.0
 40
1.0
 10
-0.500640160650255
 20
-0.028401726177278
 30
0.0
 10
-0.5006915559227856
 20
-0.030206665194765
 30
0.0
 10
-0.5007928359218016
 20
-0.0337634947028874
 30
0.0
 10
-0.5014969835602175
 20
-0.0390016968243893
 30
0.0
 10
-0.502708053297588
 20
-0.0440113080769884
 30
0.0
 10
-0.5043576071516613
 20
-0.0488466855556705
 30
0.0
 10
-0.5065850623590753
 20
-0.0534151812426303
 30
0.0
 10
-0.5091956192984566
 20
-0.0578320561703201
 30
0.0
 10
-0.5123295415653012
 20
-0.062001765512418
 30
0.0
 10
-0.5159074969664993
 20
-0.0659188340965534
 30
0.0
 10
-0.5198250322507152
 20
-0.0694963874837205
 30
0.0
 10
-0.5240040421331079
 20
-0.072640955617019
 30
0.0
 10
-0.5284496728909553
 20
-0.0752534082740974
 30
0.0
 10
-0.5331301587068409
 20
-0.0774152186485914
 30
0.0
 10
-0.5380561339977361
 20
-0.0791343799304751
 30
0.0
 10
-0.5432283689467742
 20
-0.0803245607343167
 30
0.0
 10
-0.5486304228447472
 20
-0.0810369008124729
 30
0.0
 10
-0.552303980568389
 20
-0.081135791968513
 30
0.0
 10
-0.554175817701537
 20
-0.0811861813054832
 30
0.0
  0
SPLINE
  5
F3
330
1F
100
AcDbEntity
  8
0
  6
Continuous
 62
     7
370
    25
100
AcDbSpline
210
0.0
220
0.0
230
1.0
 70
     8
 71
     3
 72
    11
 73
     7
 74
     0
 42
0.000000001
 43
0.00000001
 40
0.0
 40
0.0
 40
0.0
 40
0.0
 40
0.248838614127071
 40
0.4952350254576694
 40
0.7433356038750063
 40
1.0
 40
1.0
 40
1.0
 40
1.0
 10
-0.5091537824451267
 20
-0.0001565338695857
 30
0.0
 10
-0.5078530304871233
 20
-0.0022755401589078
 30
0.0
 10
-0.5052642926768935
 20
-0.0064927559528418
 30
0.0
 10
-0.5025458450728956
 20
-0.0134369293416151
 30
0.0
 10
-0.5009701111555532
 20
-0.0208019652299868
 30
0.0
 10
-0.5007513811395818
 20
-0.0258399809526076
 30
0.0
 10
-0.500640160650255
 20
-0.028401726177278
 30
0.0
  0
SPLINE
  5
F4
330
1F
100
AcDbEntity
  8
0
  6
Continuous
 62
     7
370
    25
100
AcDbSpline
210
0.0
220
0.0
230
1.0
 70
     8
 71
     3
 72
    15
 73
    11
 74
     0
 42
0.000000001
 43
0.00000001
 40
0.0
 40
0.0
 40
0.0
 40
0.0
 40
0.1589891012267961
 40
0.3071145916055733
 40
0.4462131585962162
 40
0.5748760724117296
 40
0.6941521095829567
 40
0.8045811801532381
 40
0.9065933190457628
 40
1.0
 40
1.0
 40
1.0
 40
1.0
 10
-0.542056426675896
 20
0.0254844917714399
 30
0.0
 10
-0.5401125997403896
 20
0.0243955701418594
 30
0.0
 10
-0.5363577661647322
 20
0.0222921321138523
 30
0.0
 10
-0.5310225685036255
 20
0.0190271532917405
 30
0.0
 10
-0.526180637005703
 20
0.015782051557917
 30
0.0
 10
-0.5217909464593694
 20
0.0125915319952299
 30
0.0
 10
-0.5179379601135222
 20
0.0093663271654586
 30
0.0
 10
-0.5145047777812503
 20
0.0062300588101957
 30
0.0
 10
-0.5115770317865163
 20
0.0030879653613417
 30
0.0
 10
-0.5099374655945579
 20
0.000892742955622
 30
0.0
 10
-0.5091537824451268
 20
-0.0001565338695857
 30
0.0
  0
SPLINE
  5
F5
330
1F
100
AcDbEntity
  8
0
  6
Continuous
 62
     7
370
    25
100
AcDbSpline
210
0.0
220
0.0
230
1.0
 70
     8
 71
     3
 72
    15
 73
    11
 74
     0
 42
0.000000001
 43
0.00000001
 40
0.0
 40
0.0
 40
0.0
 40
0.0
 40
0.0834251049856353
 40
0.1775598214659708
 40
0.2839823599504455
 40
0.402216746807217
 40
0.5335684803800571
 40
0.6761209941988217
 40
0.8316493725539867
 40
1.0
 40
1.0
 40
1.0
 40
1.0
 10
-0.5681481734707677
 20
0.0443146199765681
 30
0.0
 10
-0.5675793524870765
 20
0.0436157210956368
 30
0.0
 10
-0.5663686887147299
 20
0.0421282029134025
 30
0.0
 10
-0.5640966519306749
 20
0.0400636419550055
 30
0.0
 10
-0.5615236160120811
 20
0.0377820525996361
 30
0.0
 10
-0.5584293347454904
 20
0.0355008499583129
 30
0.0
 10
-0.5549471184680576
 20
0.0330985838721473
 30
0.0
 10
-0.551001455309932
 20
0.0306698600882462
 30
0.0
 10
-0.546717562097714
 20
0.0280295440247942
 30
0.0
 10
-0.5436506116250981
 20
0.0263549414859534
 30
0.0
 10
-0.542056426675896
 20
0.0254844917714399
 30
0.0
  0
SPLINE
  5
F6
330
1F
100
AcDbEntity
  8
0
  6
Continuous
 62
     7
370
    25
100
AcDbSpline
210
0.0
220
0.0
230
1.0
 70
     8
 71
     3
 72
    11
 73
     7
 74
     0
 42
0.000000001
 43
0.00000001
 40
0.0
 40
0.0
 40
0.0
 40
0.0
 40
0.2400399314959814
 40
0.4794031936060931
 40
0.7317567388575617
 40
1.0
 40
1.0
 40
1.0
 40
1.0
 10
-0.5743581093682036
 20
0.0608911424124655
 30
0.0
 10
-0.5742787656349649
 20
0.0594474249730627
 30
0.0
 10
-0.5741203018374199
 20
0.0565640599145865
 30
0.0
 10
-0.5728883961794706
 20
0.0523106289259776
 30
0.0
 10
-0.5709265338809217
 20
0.0481636976264942
 30
0.0
 10
-0.5690929485750249
 20
0.045623490029824
 30
0.0
 10
-0.5681481734707677
 20
0.0443146199765681
 30
0.0
  0
SPLINE
  5
F7
330
1F
100
AcDbEntity
  8
0
  6
Continuous
 62
     7
370
    25
100
AcDbSpline
210
0.0
220
0.0
230
1.0
 70
     8
 71
     3
 72
    15
 73
    11
 74
     0
 42
0.000000001
 43
0.00000001
 40
0.0
 40
0.0
 40
0.0
 40
0.0
 40
0.1249584925460634
 40
0.2459006286062678
 40
0.3691660295860719
 40
0.4985108411773554
 40
0.6285038663666063
 40
0.7510283288509915
 40
0.8737241742784335
 40
1.0
 40
1.0
 40
1.0
 40
1.0
 10
-0.5506201285989728
 20
0.0854804853611835
 30
0.0
 10
-0.5522015135876697
 20
0.0854037087199188
 30
0.0
 10
-0.5553134554402471
 20
0.0852526231557078
 30
0.0
 10
-0.5597724424640796
 20
0.0837445209889381
 30
0.0
 10
-0.5639117728225047
 20
0.0814296110989429
 30
0.0
 10
-0.5674944142515168
 20
0.0781461408450005
 30
0.0
 10
-0.570529248538753
 20
0.0743772645001391
 30
0.0
 10
-0.5727445114686313
 20
0.070163241293999
 30
0.0
 10
-0.5740992245850226
 20
0.0656312381721192
 30
0.0
 10
-0.5742709911594599
 20
0.0624862483386645
 30
0.0
 10
-0.5743581093682036
 20
0.0608911424124655
 30
0.0
  0
SPLINE
  5
F8
330
1F
100
AcDbEntity
  8
0
  6
Continuous
 62
     7
370
    25
100
AcDbSpline
210
0.0
220
0.0
230
1.0
 70
     8
 71
     3
 72
    15
 73
    11
 74
     0
 42
0.000000001
 43
0.00000001
 40
0.0
 40
0.0
 40
0.0
 40
0.0
 40
0.1582230975563199
 40
0.3050355053581705
 40
0.4413089638879062
 40
0.5659632271047259
 40
0.6835251144150616
 40
0.7933341296295999
 40
0.8985175121610023
 40
0.9999999999999999
 40
0.9999999999999999
 40
0.9999999999999999
 40
0.9999999999999999
 10
-0.5190696478297421
 20
0.0662497161304143
 30
0.0
 10
-0.5203832552245987
 20
0.0677720837257558
 30
0.0
 10
-0.5229157356381471
 20
0.0707070292296549
 30
0.0
 10
-0.5269322699954636
 20
0.0746311054084752
 30
0.0
 10
-0.5309339559650568
 20
0.0779266010472143
 30
0.0
 10
-0.5348660140774313
 20
0.0807089052550218
 30
0.0
 10
-0.5388273190113044
 20
0.0828124157268662
 30
0.0
 10
-0.5427713845921811
 20
0.084347763008317
 30
0.0
 10
-0.5467022944861059
 20
0.0852978919840825
 30
0.0
 10
-0.5493298684300577
 20
0.0854203518908032
 30
0.0
 10
-0.5506201285989729
 20
0.0854804853611835
 30
0.0
  0
SPLINE
  5
F9
330
1F
100
AcDbEntity
  8
0
  6
Continuous
 62
     7
370
    25
100
AcDbSpline
210
0.0
220
0.0
230
1.0
 70
     8
 71
     3
 72
    15
 73
    11
 74
     0
 42
0.000000001
 43
0.00000001
 40
0.0
 40
0.0
 40
0.0
 40
0.0
 40
0.1057142614175154
 40
0.2134116126389966
 40
0.3261267300734712
 40
0.4444516715568698
 40
0.5690610798550847
 40
0.7027122044812153
 40
0.8463179465861964
 40
1.0
 40
1.0
 40
1.0
 40
1.0
 10
-0.5506201285989728
 20
0.1079163827970809
 30
0.0
 10
-0.5486778383514275
 20
0.1078375013186964
 30
0.0
 10
-0.5447568225075521
 20
0.1076782586272784
 30
0.0
 10
-0.538874349218402
 20
0.1064135664412256
 30
0.0
 10
-0.5330005390692987
 20
0.1043326304341207
 30
0.0
 10
-0.527120299785897
 20
0.101458613767093
 30
0.0
 10
-0.5212767076870791
 20
0.0977395512042223
 30
0.0
 10
-0.5154183607816695
 20
0.0932446012493425
 30
0.0
 10
-0.5094749300466591
 20
0.0880033359272586
 30
0.0
 10
-0.5057637648251314
 20
0.0839962483972598
 30
0.0
 10
-0.5038452888553832
 20
0.0819247962586194
 30
0.0
  0
SPLINE
  5
FA
330
1F
100
AcDbEntity
  8
0
  6
Continuous
 62
     7
370
    25
100
AcDbSpline
210
0.0
220
0.0
230
1.0
 70
     8
 71
     3
 72
    23
 73
    19
 74
     0
 42
0.000000001
 43
0.00000001
 40
0.0
 40
0.0
 40
0.0
 40
0.0
 40
0.0687422616054882
 40
0.1346351922242766
 40
0.1983241870671466
 40
0.2608250125604202
 40
0.3227135881590239
 40
0.384554534607618
 40
0.4469128577247554
 40
0.510957632514829
 40
0.5749307010013354
 40
0.6366845377960935
 40
0.6974831152940619
 40
0.7571338075238544
 40
0.816965663675264
 40
0.8768183516571961
 40
0.9376625803840032
 40
1.0
 40
1.0
 40
1.0
 40
1.0
 10
-0.864322051675896
 20
-0.0811861813054832
 30
0.0
 10
-0.8677316744979636
 20
-0.0810989530042194
 30
0.0
 10
-0.8744095930496675
 20
-0.0809281119694069
 30
0.0
 10
-0.8841757346156145
 20
-0.0796083060601521
 30
0.0
 10
-0.8934607073966763
 20
-0.0774113073051898
 30
0.0
 10
-0.9022627501480625
 20
-0.0742779149673328
 30
0.0
 10
-0.910630239216284
 20
-0.0703283046995162
 30
0.0
 10
-0.9184721318555253
 20
-0.0654274697296472
 30
0.0
 10
-0.9258435543923729
 20
-0.0596731729269015
 30
0.0
 10
-0.9326344104220796
 20
-0.0530920345661978
 30
0.0
 10
-0.9387771679453712
 20
-0.0459484662570753
 30
0.0
 10
-0.9441966685418873
 20
-0.0384377492218236
 30
0.0
 10
-0.9487602632668897
 20
-0.0306227425477364
 30
0.0
 10
-0.9525001349727555
 20
-0.0224882650519679
 30
0.0
 10
-0.955416693038334
 20
-0.0140697842099048
 30
0.0
 10
-0.9574546282289291
 20
-0.0053415833199166
 30
0.0
 10
-0.958764886412208
 20
0.0036598001469888
 30
0.0
 10
-0.9589033984518714
 20
0.0097714382146205
 30
0.0
 10
-0.9589734939835883
 20
0.0128642994637476
 30
0.0
  0
SPLINE
  5
FB
330
1F
100
AcDbEntity
  8
0
  6
Continuous
 62
     7
370
    25
100
AcDbSpline
210
0.0
220
0.0
230
1.0
 70
     8
 71
     3
 72
    23
 73
    19
 74
     0
 42
0.000000001
 43
0.00000001
 40
0.0
 40
0.0
 40
0.0
 40
0.0
 40
0.0624160261588176
 40
0.1233369785373297
 40
0.1832651398530921
 40
0.2431724430697089
 40
0.3028983539197448
 40
0.3637735975039096
 40
0.4256053049523821
 40
0.4896590425101837
 40
0.5537845767921162
 40
0.6162215328110732
 40
0.6778544713083422
 40
0.7395168974879376
 40
0.8020965355763705
 40
0.8658658412779707
 40
0.9315077951965106
 40
0.9999999999999999
 40
0.9999999999999999
 40
0.9999999999999999
 40
0.9999999999999999
 10
-0.7698709298810241
 20
0.0128642994637476
 30
0.0
 10
-0.7699410254037313
 20
0.0097714382010545
 30
0.0
 10
-0.770079537425591
 20
0.0036598001066156
 30
0.0
 10
-0.771389795739239
 20
-0.0053415831639899
 30
0.0
 10
-0.7734277304447571
 20
-0.0140697847843745
 30
0.0
 10
-0.776344290314689
 20
-0.0224882629095586
 30
0.0
 10
-0.7800841552620847
 20
-0.0306227505817996
 30
0.0
 10
-0.7846477758001975
 20
-0.0384377183881508
 30
0.0
 10
-0.7900671770253196
 20
-0.0459485850505158
 30
0.0
 10
-0.7962103196509203
 20
-0.0530915734971168
 30
0.0
 10
-0.802999739376019
 20
-0.0596748745537921
 30
0.0
 10
-0.8103651785416673
 20
-0.0654126080933152
 30
0.0
 10
-0.8181618952381612
 20
-0.0703284312624877
 30
0.0
 10
-0.8264935633292099
 20
-0.0742881752349706
 30
0.0
 10
-0.835284098102906
 20
-0.0774102966857945
 30
0.0
 10
-0.8445524601104104
 20
-0.0796031550022513
 30
0.0
 10
-0.85428425084707
 20
-0.0809289895577063
 30
0.0
 10
-0.8609290523732263
 20
-0.0810992447906289
 30
0.0
 10
-0.864322051675896
 20
-0.0811861813054832
 30
0.0
  0
SPLINE
  5
FC
330
1F
100
AcDbEntity
  8
0
  6
Continuous
 62
     7
370
    25
100
AcDbSpline
210
0.0
220
0.0
230
1.0
 70
     8
 71
     3
 72
    15
 73
    11
 74
     0
 42
0.000000001
 43
0.00000001
 40
0.0
 40
0.0
 40
0.0
 40
0.0
 40
0.1281572795931865
 40
0.2538343627967357
 40
0.376505622522209
 40
0.4985336856679093
 40
0.6213677287324635
 40
0.744564744904358
 40
0.8706337982552831
 40
1.0
 40
1.0
 40
1.0
 40
1.0
 10
-0.7949109939835882
 20
0.0778182257457989
 30
0.0
 10
-0.792912282978949
 20
0.0755172267608393
 30
0.0
 10
-0.7889535415333759
 20
0.070959759459745
 30
0.0
 10
-0.7838774187627072
 20
0.0635700728195746
 30
0.0
 10
-0.7795044501800328
 20
0.0559172084915989
 30
0.0
 10
-0.7759999529666982
 20
0.0478995423007941
 30
0.0
 10
-0.7732367369891825
 20
0.0395870657898249
 30
0.0
 10
-0.7712749015423753
 20
0.0309512078499118
 30
0.0
 10
-0.77010797761806
 20
0.0220110401953712
 30
0.0
 10
-0.7699506228365144
 20
0.0159393374755832
 30
0.0
 10
-0.7698709298810241
 20
0.0128642994637476
 30
0.0
  0
SPLINE
  5
FD
330
1F
100
AcDbEntity
  8
0
  6
Continuous
 62
     7
370
    25
100
AcDbSpline
210
0.0
220
0.0
230
1.0
 70
     8
 71
     3
 72
    15
 73
    11
 74
     0
 42
0.000000001
 43
0.00000001
 40
0.0
 40
0.0
 40
0.0
 40
0.0
 40
0.1317514273024057
 40
0.2583323505141601
 40
0.3821339760925466
 40
0.5038043916000847
 40
0.6246929865409321
 40
0.746870589727577
 40
0.8715135042348167
 40
1.0
 40
1.0
 40
1.0
 40
1.0
 10
-0.864322051675896
 20
0.1079163827970809
 30
0.0
 10
-0.8608941036156633
 20
0.1078433905728781
 30
0.0
 10
-0.8541727352178259
 20
0.1077002706596168
 30
0.0
 10
-0.8443293147978733
 20
0.1061706302558581
 30
0.0
 10
-0.8349332336595653
 20
0.1038315327997427
 30
0.0
 10
-0.8259485056478852
 20
0.1005978497944243
 30
0.0
 10
-0.8174901988298321
 20
0.0962634247553772
 30
0.0
 10
-0.809435109964977
 20
0.0910913325321322
 30
0.0
 10
-0.8018053236160545
 20
0.0849640044203956
 30
0.0
 10
-0.7972322500976831
 20
0.0802241423936286
 30
0.0
 10
-0.7949109939835882
 20
0.0778182257457989
 30
0.0
  0
CIRCLE
  5
FE
330
1F
100
AcDbEntity
  8
0
  6
Continuous
 62
     7
370
    25
100
AcDbCircle
 10
-1.1
 20
2.175
 30
0.0
 40
0.0720000000000001
  0
CIRCLE
  5
FF
330
1F
100
AcDbEntity
  8
0
  6
Continuous
 62
     7
370
    25
100
AcDbCircle
 10
1.1
 20
2.175
 30
0.0
 40
0.0720000000000001
  0
CIRCLE
  5
100
330
1F
100
AcDbEntity
  8
0
  6
Continuous
 62
     7
370
    25
100
AcDbCircle
 10
1.1
 20
-2.175
 30
0.0
 40
0.0720000000000001
  0
SPLINE
  5
106
330
1F
100
AcDbEntity
  8
0
  6
Continuous
 62
     7
370
    25
100
AcDbSpline
210
0.0
220
0.0
230
1.0
 70
     8
 71
     3
 72
    15
 73
    11
 74
     0
 42
0.000000001
 43
0.00000001
 40
0.0
 40
0.0
 40
0.0
 40
0.0
 40
0.1285151895116615
 40
0.2529486363526582
 40
0.3747547340060052
 40
0.4959397538670504
 40
0.617180641429892
 40
0.7409094692781379
 40
0.8678111481862029
 40
1.0
 40
1.0
 40
1.0
 40
1.0
 10
-0.2313593112912806
 20
-0.0587502838695857
 30
0.0
 10
-0.2269948335060244
 20
-0.058629656744521
 30
0.0
 10
-0.2184044971546016
 20
-0.058392233705982
 30
0.0
 10
-0.2058067809873659
 20
-0.0563808587686344
 30
0.0
 10
-0.193747083442453
 20
-0.0531195789232757
 30
0.0
 10
-0.1822247558323515
 20
-0.0485554416147628
 30
0.0
 10
-0.1712722811034346
 20
-0.0426222067645673
 30
0.0
 10
-0.1608725196527907
 20
-0.0354295012354668
 30
0.0
 10
-0.1510166931882229
 20
-0.0269089060382797
 30
0.0
 10
-0.1450901730284807
 20
-0.0204029683056235
 30
0.0
 10
-0.142066442701537
 20
-0.0170836172029191
 30
0.0
  0
SPLINE
  5
10A
330
1F
100
AcDbEntity
  8
0
  6
Continuous
 62
     7
370
    25
100
AcDbSpline
210
0.0
220
0.0
230
1.0
 70
     8
 71
     3
 72
    23
 73
    19
 74
     0
 42
0.000000001
 43
0.00000001
 40
0.0
 40
0.0
 40
0.0
 40
0.0
 40
0.064557845929719
 40
0.1270135315497586
 40
0.1879548102020904
 40
0.2480139127896341
 40
0.3077476818488371
 40
0.3682345146974853
 40
0.4294698439426693
 40
0.4927434367465851
 40
0.5562577687060836
 40
0.6182167855431435
 40
0.679655475587555
 40
0.7412455456206296
 40
0.8034152647056966
 40
0.8668154615439921
 40
0.9323283119492648
 40
0.9999999999999999
 40
0.9999999999999999
 40
0.9999999999999999
 40
0.9999999999999999
 10
-0.3660247760348704
 20
0.0484712706175938
 30
0.0
 10
-0.3659136907807938
 20
0.0529680887276851
 30
0.0
 10
-0.3656951374784
 20
0.0618152976249803
 30
0.0
 10
-0.3638382949447041
 20
0.0747991514313457
 30
0.0
 10
-0.3608512380738837
 20
0.0872385370637211
 30
0.0
 10
-0.3566086031742412
 20
0.0991102331057125
 30
0.0
 10
-0.351229649509571
 20
0.110476681693717
 30
0.0
 10
-0.3445848913781769
 20
0.121251053468485
 30
0.0
 10
-0.3367515240766475
 20
0.1315022534439516
 30
0.0
 10
-0.3277909835278176
 20
0.1410747356794898
 30
0.0
 10
-0.317964745292121
 20
0.1498275465810801
 30
0.0
 10
-0.3074419728714771
 20
0.1575279897059606
 30
0.0
 10
-0.2962432623734321
 20
0.1639363837058953
 30
0.0
 10
-0.2844919872537477
 20
0.169293252450618
 30
0.0
 10
-0.2721001528561314
 20
0.1734107141031781
 30
0.0
 10
-0.2590941979186005
 20
0.1762930845808887
 30
0.0
 10
-0.2454985611485107
 20
0.178087164315881
 30
0.0
 10
-0.23622267360213
 20
0.1783139648803685
 30
0.0
 10
-0.231509551675896
 20
0.1784292033099014
 30
0.0
  0
SPLINE
  5
10B
330
1F
100
AcDbEntity
  8
0
  6
Continuous
 62
     7
370
    25
100
AcDbSpline
210
0.0
220
0.0
230
1.0
 70
     8
 71
     3
 72
    15
 73
    11
 74
     0
 42
0.000000001
 43
0.00000001
 40
0.0
 40
0.0
 40
0.0
 40
0.0
 40
0.1289191318119613
 40
0.2552377249249069
 40
0.3786785959785509
 40
0.5010878871851333
 40
0.6227136794297776
 40
0.7462407949383834
 40
0.8715890472316702
 40
1.0
 40
1.0
 40
1.0
 40
1.0
 10
-0.9589734939835883
 20
0.0128642994637476
 30
0.0
 10
-0.9588932575297567
 20
0.0159226241703844
 30
0.0
 10
-0.9587344031406206
 20
0.0219775814853483
 30
0.0
 10
-0.9575686524924554
 20
0.0309009429604297
 30
0.0
 10
-0.955614469886422
 20
0.0395221850364713
 30
0.0
 10
-0.9528479415682383
 20
0.0478025761781632
 30
0.0
 10
-0.9493111422188536
 20
0.0557851073238546
 30
0.0
 10
-0.9449996216514115
 20
0.0634568809657346
 30
0.0
 10
-0.93987171932709
 20
0.0708131524285041
 30
0.0
 10
-0.9359287227890662
 20
0.0753647295733656
 30
0.0
 10
-0.9339334298810242
 20
0.0776679853611835
 30
0.0
  0
SPLINE
  5
10C
330
1F
100
AcDbEntity
  8
0
  6
Continuous
 62
     7
370
    25
100
AcDbSpline
210
0.0
220
0.0
230
1.0
 70
     8
 71
     3
 72
    31
 73
    27
 74
     0
 42
0.000000001
 43
0.00000001
 40
0.0
 40
0.0
 40
0.0
 40
0.0
 40
0.0412914469532471
 40
0.0821355032144643
 40
0.1226360352259628
 40
0.1628308697551232
 40
0.2030066005770548
 40
0.2435260831621609
 40
0.2841729362467877
 40
0.3254098107964587
 40
0.3668546660987573
 40
0.4075505951658515
 40
0.4481873740566101
 40
0.4886828510840636
 40
0.5290149651896815
 40
0.5698427286954859
 40
0.6113702381646685
 40
0.6532377352823788
 40
0.695446119073281
 40
0.7377513945470107
 40
0.7800433605771139
 40
0.8228070703900527
 40
0.8659781422330312
 40
0.9095950301662477
 40
0.9542314047047894
 40
1.0
 40
1.0
 40
1.0
 40
1.0
 10
0.9416675316574373
 20
0.011862696899645
 30
0.0
 10
0.9416990328100472
 20
0.0140182993678342
 30
0.0
 10
0.9417616938019077
 20
0.0183061484629634
 30
0.0
 10
0.9424804029261036
 20
0.0246700817973526
 30
0.0
 10
0.9434088652785173
 20
0.0309492636065256
 30
0.0
 10
0.9449821322122568
 20
0.0370641007028623
 30
0.0
 10
0.9467993201887281
 20
0.0431073357078128
 30
0.0
 10
0.9491190010305431
 20
0.0490061286580795
 30
0.0
 10
0.9518401006675374
 20
0.0547878910030303
 30
0.0
 10
0.9549295254746876
 20
0.0604377288318114
 30
0.0
 10
0.9584072929824968
 20
0.0658626959378582
 30
0.0
 10
0.9622559525003554
 20
0.0709879577000232
 30
0.0
 10
0.9663305479445841
 20
0.0758750838055723
 30
0.0
 10
0.9708216988043542
 20
0.0803553524252405
 30
0.0
 10
0.9755388169362097
 20
0.084607937516606
 30
0.0
 10
0.9806153580570702
 20
0.0885192321116408
 30
0.0
 10
0.9860222046042486
 20
0.0921007314666782
 30
0.0
 10
0.9916781562170368
 20
0.0954186611410031
 30
0.0
 10
0.9975799213121106
 20
0.0983729065042336
 30
0.0
 10
1.003691826336758
 20
0.1009181377798289
 30
0.0
 10
1.00997704271129
 20
0.1030933217715558
 30
0.0
 10
1.016445624439265
 20
0.1048153874317012
 30
0.0
 10
1.023054636806117
 20
0.1062594890989481
 30
0.0
 10
1.029856160945595
 20
0.1071679066930532
 30
0.0
 10
1.036824176821231
 20
0.1078097833302436
 30
0.0
 10
1.041542464157935
 20
0.107880554199572
 30
0.0
 10
1.043931153452309
 20
0.1079163827970809
 30
0.0
  0
SPLINE
  5
10D
330
1F
100
AcDbEntity
  8
0
  6
Continuous
 62
     7
370
    25
100
AcDbSpline
210
0.0
220
0.0
230
1.0
 70
     8
 71
     3
 72
    19
 73
    15
 74
     0
 42
0.000000001
 43
0.00000001
 40
0.0
 40
0.0
 40
0.0
 40
0.0
 40
0.0912688044343277
 40
0.1820814045527851
 40
0.2719096545272044
 40
0.3620494585053547
 40
0.4500663484251185
 40
0.5339764739707188
 40
0.6136024537413257
 40
0.6901976142648817
 40
0.7654128769004134
 40
0.8414365506928796
 40
0.9197327486057726
 40
1.0
 40
1.0
 40
1.0
 40
1.0
 10
1.043931153452309
 20
0.1079163827970809
 30
0.0
 10
1.046922589741297
 20
0.1078505334353882
 30
0.0
 10
1.052890509716855
 20
0.1077191638580148
 30
0.0
 10
1.061743417335312
 20
0.1066135458422149
 30
0.0
 10
1.070465931182472
 20
0.1049466589557517
 30
0.0
 10
1.078905010003468
 20
0.1024771711149397
 30
0.0
 10
1.086958332463289
 20
0.0994869099919906
 30
0.0
 10
1.094496578905669
 20
0.0961288589649338
 30
0.0
 10
1.101342300610686
 20
0.0922292444351905
 30
0.0
 10
1.107622842692034
 20
0.0879635219782206
 30
0.0
 10
1.1133499510743
 20
0.0831520287123129
 30
0.0
 10
1.118582414829678
 20
0.0777372460404308
 30
0.0
 10
1.123427532630357
 20
0.0717473546780288
 30
0.0
 10
1.126174440590634
 20
0.0673326595862081
 30
0.0
 10
1.127564967554874
 20
0.0650978731816963
 30
0.0
  0
SPLINE
  5
10E
330
1F
100
AcDbEntity
  8
0
  6
Continuous
 62
     7
370
    25
100
AcDbSpline
210
0.0
220
0.0
230
1.0
 70
     8
 71
     3
 72
    15
 73
    11
 74
     0
 42
0.000000001
 43
0.00000001
 40
0.0
 40
0.0
 40
0.0
 40
0.0
 40
0.1057142614175176
 40
0.2134116126389985
 40
0.3261267300734728
 40
0.4444516715568712
 40
0.5690610798550858
 40
0.702712204481216
 40
0.8463179465861967
 40
1.0
 40
1.0
 40
1.0
 40
1.0
 10
-0.6852355132143575
 20
0.1079163827970809
 30
0.0
 10
-0.6832932229668123
 20
0.1078375013186964
 30
0.0
 10
-0.6793722071229369
 20
0.1076782586272784
 30
0.0
 10
-0.6734897338337866
 20
0.1064135664412257
 30
0.0
 10
-0.6676159236846835
 20
0.1043326304341207
 30
0.0
 10
-0.6617356844012815
 20
0.101458613767093
 30
0.0
 10
-0.6558920923024639
 20
0.0977395512042223
 30
0.0
 10
-0.650033745397054
 20
0.0932446012493425
 30
0.0
 10
-0.6440903146620437
 20
0.0880033359272586
 30
0.0
 10
-0.640379149440516
 20
0.0839962483972597
 30
0.0
 10
-0.6384606734707676
 20
0.0819247962586194
 30
0.0
  0
SPLINE
  5
10F
330
1F
100
AcDbEntity
  8
0
  6
Continuous
 62
     7
370
    25
100
AcDbSpline
210
0.0
220
0.0
230
1.0
 70
     8
 71
     3
 72
    15
 73
    11
 74
     0
 42
0.000000001
 43
0.00000001
 40
0.0
 40
0.0
 40
0.0
 40
0.0
 40
0.1284975211375121
 40
0.2527129855154533
 40
0.3748191325670468
 40
0.4964364263727305
 40
0.617910556745853
 40
0.7412876173092905
 40
0.8687004007446077
 40
1.0
 40
1.0
 40
1.0
 40
1.0
 10
-0.9339334298810242
 20
0.0776679853611835
 30
0.0
 10
-0.9316156733791655
 20
0.0800947667364351
 30
0.0
 10
-0.9270573973898893
 20
0.0848674593230634
 30
0.0
 10
-0.9193896311235891
 20
0.0909769253292742
 30
0.0
 10
-0.9113543581871271
 20
0.0962566448907616
 30
0.0
 10
-0.9028025777487333
 20
0.1005049459945249
 30
0.0
 10
-0.8938252307518924
 20
0.1038505544035534
 30
0.0
 10
-0.8843809991427579
 20
0.1061766626260438
 30
0.0
 10
-0.8745041766099362
 20
0.1076947594095433
 30
0.0
 10
-0.8677499179602516
 20
0.107841772109932
 30
0.0
 10
-0.864322051675896
 20
0.1079163827970809
 30
0.0
  0
SPLINE
  5
110
330
1F
100
AcDbEntity
  8
0
  6
Continuous
 62
     7
370
    25
100
AcDbSpline
210
0.0
220
0.0
230
1.0
 70
     8
 71
     3
 72
    23
 73
    19
 74
     0
 42
0.000000001
 43
0.00000001
 40
0.0
 40
0.0
 40
0.0
 40
0.0
 40
0.0679784896192548
 40
0.1330435352439081
 40
0.1965074380533951
 40
0.2586134167685748
 40
0.3197283376065485
 40
0.3808728540495675
 40
0.4426356023162054
 40
0.5050793035048783
 40
0.5678805200585777
 40
0.6288138541554888
 40
0.6889100905404412
 40
0.7487650058898475
 40
0.8093857829631196
 40
0.8708843357532268
 40
0.9340374630737025
 40
0.9999999999999999
 40
0.9999999999999999
 40
0.9999999999999999
 40
0.9999999999999999
 10
-0.7314093914194857
 20
0.0599897001047733
 30
0.0
 10
-0.7313712346107423
 20
0.0616772285296623
 30
0.0
 10
-0.7312965563300495
 20
0.0649799607428863
 30
0.0
 10
-0.7307005526460638
 20
0.0698327336216831
 30
0.0
 10
-0.729615430417777
 20
0.074443316039444
 30
0.0
 10
-0.7282543645178581
 20
0.0788809491114762
 30
0.0
 10
-0.7263627213432844
 20
0.083059670114172
 30
0.0
 10
-0.7241022995472163
 20
0.0870352037591834
 30
0.0
 10
-0.7214460549097934
 20
0.0908020550450707
 30
0.0
 10
-0.7183858198492106
 20
0.0943022787656444
 30
0.0
 10
-0.715021059474671
 20
0.0974815163590143
 30
0.0
 10
-0.7113857187792889
 20
0.100252846928398
 30
0.0
 10
-0.7075615575949444
 20
0.1026175865567147
 30
0.0
 10
-0.7035323847692986
 20
0.1046008123132286
 30
0.0
 10
-0.6992594938433028
 20
0.1061009110699994
 30
0.0
 10
-0.6947727519621095
 20
0.1071335814320334
 30
0.0
 10
-0.690081240899306
 20
0.1078232387749544
 30
0.0
 10
-0.6868740176163415
 20
0.1078848876532768
 30
0.0
 10
-0.6852355132143575
 20
0.1079163827970809
 30
0.0
  0
SPLINE
  5
111
330
1F
100
AcDbEntity
  8
0
  6
Continuous
 62
     7
370
    25
100
AcDbSpline
210
0.0
220
0.0
230
1.0
 70
     8
 71
     3
 72
    23
 73
    19
 74
     0
 42
0.000000001
 43
0.00000001
 40
0.0
 40
0.0
 40
0.0
 40
0.0
 40
0.0685475367089029
 40
0.1356829456230484
 40
0.2012149895263288
 40
0.2656822347546963
 40
0.329266834817259
 40
0.3923954278443291
 40
0.4550697616521443
 40
0.5171268500645065
 40
0.5787900352866525
 40
0.6397398633435415
 40
0.7001915036663084
 40
0.7598062425966701
 40
0.8196283192750086
 40
0.8793547910462771
 40
0.9395116077646618
 40
0.9999999999999999
 40
0.9999999999999999
 40
0.9999999999999999
 40
0.9999999999999999
 10
-0.231509551675896
 20
0.1784292033099014
 30
0.0
 10
-0.2286370893940098
 20
0.1783947648676967
 30
0.0
 10
-0.2229513395872365
 20
0.1783265974395824
 30
0.0
 10
-0.2145404358434961
 20
0.177661873002823
 30
0.0
 10
-0.2063516982046945
 20
0.1765537582723142
 30
0.0
 10
-0.1983794852022408
 20
0.1750454675713778
 30
0.0
 10
-0.1905850126163191
 20
0.1731735160378365
 30
0.0
 10
-0.1830278525535639
 20
0.1707349233009375
 30
0.0
 10
-0.1756636606346643
 20
0.1679465996355373
 30
0.0
 10
-0.1685388814792051
 20
0.1647352806399734
 30
0.0
 10
-0.1616876993263244
 20
0.1611305133966272
 30
0.0
 10
-0.1551122480040916
 20
0.1571722545718913
 30
0.0
 10
-0.1488647580964016
 20
0.1528654113215745
 30
0.0
 10
-0.1429012689223618
 20
0.1482466130780286
 30
0.0
 10
-0.137321539559786
 20
0.1432181445569282
 30
0.0
 10
-0.1319671482358432
 20
0.1379183162730945
 30
0.0
 10
-0.1270199283671573
 20
0.1321944716904278
 30
0.0
 10
-0.1239661287247205
 20
0.1281655478397893
 30
0.0
 10
-0.1224350324451267
 20
0.1261455494637476
 30
0.0
  0
SPLINE
  5
112
330
1F
100
AcDbEntity
  8
0
  6
Continuous
 62
     7
370
    25
100
AcDbSpline
210
0.0
220
0.0
230
1.0
 70
     8
 71
     3
 72
    15
 73
    11
 74
     0
 42
0.000000001
 43
0.00000001
 40
0.0
 40
0.0
 40
0.0
 40
0.0
 40
0.1289191318119611
 40
0.2552377249249068
 40
0.3786785959785506
 40
0.5010878871851324
 40
0.6227136794297775
 40
0.7462407949383822
 40
0.8715890472316701
 40
0.9999999999999999
 40
0.9999999999999999
 40
0.9999999999999999
 40
0.9999999999999999
 10
-0.0839734939835883
 20
0.0128642994637476
 30
0.0
 10
-0.0838932575297568
 20
0.0159226241703844
 30
0.0
 10
-0.0837344031406204
 20
0.0219775814853483
 30
0.0
 10
-0.0825686524924553
 20
0.0309009429604297
 30
0.0
 10
-0.0806144698864217
 20
0.0395221850364712
 30
0.0
 10
-0.0778479415682383
 20
0.0478025761781633
 30
0.0
 10
-0.0743111422188534
 20
0.0557851073238545
 30
0.0
 10
-0.0699996216514118
 20
0.0634568809657347
 30
0.0
 10
-0.0648717193270899
 20
0.0708131524285041
 30
0.0
 10
-0.0609287227890662
 20
0.0753647295733657
 30
0.0
 10
-0.0589334298810241
 20
0.0776679853611835
 30
0.0
  0
SPLINE
  5
113
330
1F
100
AcDbEntity
  8
0
  6
Continuous
 62
     7
370
    25
100
AcDbSpline
210
0.0
220
0.0
230
1.0
 70
     8
 71
     3
 72
    15
 73
    11
 74
     0
 42
0.000000001
 43
0.00000001
 40
0.0
 40
0.0
 40
0.0
 40
0.0
 40
0.1284975211375121
 40
0.2527129855154518
 40
0.3748191325670452
 40
0.4964364263727305
 40
0.6179105567458514
 40
0.7412876173092905
 40
0.8687004007446077
 40
1.0
 40
1.0
 40
1.0
 40
1.0
 10
-0.0589334298810241
 20
0.0776679853611835
 30
0.0
 10
-0.0566156733791652
 20
0.080094766736435
 30
0.0
 10
-0.0520573973898892
 20
0.0848674593230633
 30
0.0
 10
-0.0443896311235893
 20
0.0909769253292743
 30
0.0
 10
-0.0363543581871271
 20
0.0962566448907617
 30
0.0
 10
-0.0278025777487332
 20
0.1005049459945248
 30
0.0
 10
-0.0188252307518923
 20
0.1038505544035535
 30
0.0
 10
-0.0093809991427579
 20
0.1061766626260438
 30
0.0
 10
0.0004958233900638
 20
0.1076947594095433
 30
0.0
 10
0.0072500820397482
 20
0.107841772109932
 30
0.0
 10
0.010677948324104
 20
0.1079163827970809
 30
0.0
  0
LINE
  5
114
330
1F
100
AcDbEntity
  8
0
  6
Continuous
 62
     7
370
    25
100
AcDbLine
 10
-1.1224350324
 20
0.0662497161
 30
0.0
 11
-1.1073609139
 21
0.0662497161
 31
0.0
  0
LINE
  5
115
330
1F
100
AcDbEntity
  8
0
  6
Continuous
 62
     7
370
    25
100
AcDbLine
 10
-1.1224350324
 20
0.1463779213
 30
0.0
 11
-1.1224350324
 21
0.0662497161
 31
0.0
  0
LINE
  5
116
330
1F
100
AcDbEntity
  8
0
  6
Continuous
 62
     7
370
    25
100
AcDbLine
 10
-1.0919863145
 20
0.1463779213
 30
0.0
 11
-1.1224350324
 21
0.1463779213
 31
0.0
  0
LINE
  5
117
330
1F
100
AcDbEntity
  8
0
  6
Continuous
 62
     7
370
    25
100
AcDbLine
 10
-1.1224350324
 20
0.0406086905
 30
0.0
 11
-1.1224350324
 21
-0.0523400275
 31
0.0
  0
LINE
  5
118
330
1F
100
AcDbEntity
  8
0
  6
Continuous
 62
     7
370
    25
100
AcDbLine
 10
-1.1075612344
 20
0.0406086905
 30
0.0
 11
-1.1224350324
 21
0.0406086905
 31
0.0
  0
LINE
  5
119
330
1F
100
AcDbEntity
  8
0
  6
Continuous
 62
     7
370
    25
100
AcDbLine
 10
-1.1224350324
 20
-0.0523400275
 30
0.0
 11
-1.0904839107
 21
-0.0523400275
 31
0.0
  0
LINE
  5
11A
330
1F
100
AcDbEntity
  8
0
  6
Continuous
 62
     7
370
    25
100
AcDbLine
 10
-1.0772627568
 20
-0.0779810531
 30
0.0
 11
-1.1448709299
 21
-0.0779810531
 31
0.0
  0
LINE
  5
11B
330
1F
100
AcDbEntity
  8
0
  6
Continuous
 62
     7
370
    25
100
AcDbLine
 10
-1.1448709299
 20
0.1720189469
 30
0.0
 11
-1.096092885
 21
0.1720189469
 31
0.0
  0
LINE
  5
11C
330
1F
100
AcDbEntity
  8
0
  6
Continuous
 62
     7
370
    25
100
AcDbLine
 10
-1.1448709299
 20
-0.0779810531
 30
0.0
 11
-1.1448709299
 21
0.1720189469
 31
0.0
  0
LINE
  5
11D
330
1F
100
AcDbEntity
  8
0
  6
Continuous
 62
     7
370
    25
100
AcDbLine
 10
-0.741024776
 20
-0.056446598
 30
0.0
 11
-0.726150978
 21
-0.0395195146
 31
0.0
  0
LINE
  5
11E
330
1F
100
AcDbEntity
  8
0
  6
Continuous
 62
     7
370
    25
100
AcDbLine
 10
-0.6384606735
 20
0.0819247963
 30
0.0
 11
-0.6536850324
 21
0.0662497161
 31
0.0
  0
LINE
  5
11F
330
1F
100
AcDbEntity
  8
0
  6
Continuous
 62
     7
370
    25
100
AcDbLine
 10
-0.1420664427
 20
-0.0170836172
 30
0.0
 11
-0.1224350324
 21
-0.0319574153
 31
0.0
  0
LINE
  5
120
330
1F
100
AcDbEntity
  8
0
  6
Continuous
 62
     7
370
    25
100
AcDbLine
 10
-0.1224350324
 20
0.1261455495
 30
0.0
 11
-0.1420664427
 21
0.111121511
 31
0.0
  0
LINE
  5
121
330
1F
100
AcDbEntity
  8
0
  6
Continuous
 62
     7
370
    25
100
AcDbLine
 10
0.1724367624
 20
-0.0011080563
 30
0.0
 11
0.1724367624
 21
-0.0779810531
 31
0.0
  0
LINE
  5
122
330
1F
100
AcDbEntity
  8
0
  6
Continuous
 62
     7
370
    25
100
AcDbLine
 10
0.275000865
 20
-0.0779810531
 30
0.0
 11
0.275000865
 21
0.0149175847
 31
0.0
  0
LINE
  5
123
330
1F
100
AcDbEntity
  8
0
  6
Continuous
 62
     7
370
    25
100
AcDbLine
 10
0.2974367624
 20
-0.0779810531
 30
0.0
 11
0.275000865
 21
-0.0779810531
 31
0.0
  0
LINE
  5
124
330
1F
100
AcDbEntity
  8
0
  6
Continuous
 62
     7
370
    25
100
AcDbLine
 10
0.400000865
 20
-0.0779810531
 30
0.0
 11
0.400000865
 21
0.0210774405
 31
0.0
  0
LINE
  5
125
330
1F
100
AcDbEntity
  8
0
  6
Continuous
 62
     7
370
    25
100
AcDbLine
 10
0.4224367624
 20
-0.0779810531
 30
0.0
 11
0.400000865
 21
-0.0779810531
 31
0.0
  0
LINE
  5
126
330
1F
100
AcDbEntity
  8
0
  6
Continuous
 62
     7
370
    25
100
AcDbLine
 10
0.4224367624
 20
0.0209772802
 30
0.0
 11
0.4224367624
 21
-0.0779810531
 31
0.0
  0
LINE
  5
127
330
1F
100
AcDbEntity
  8
0
  6
Continuous
 62
     7
370
    25
100
AcDbLine
 10
0.1724367624
 20
0.1047112546
 30
0.0
 11
0.1724367624
 21
0.0729604533
 31
0.0
  0
LINE
  5
128
330
1F
100
AcDbEntity
  8
0
  6
Continuous
 62
     7
370
    25
100
AcDbLine
 10
0.150000865
 20
0.1047112546
 30
0.0
 11
0.1724367624
 21
0.1047112546
 31
0.0
  0
LINE
  5
129
330
1F
100
AcDbEntity
  8
0
  6
Continuous
 62
     7
370
    25
100
AcDbLine
 10
0.150000865
 20
-0.0779810531
 30
0.0
 11
0.150000865
 21
0.1047112546
 31
0.0
  0
LINE
  5
12A
330
1F
100
AcDbEntity
  8
0
  6
Continuous
 62
     7
370
    25
100
AcDbLine
 10
0.8743598393
 20
0.0709071681
 30
0.0
 11
0.8743598393
 21
0.1047112546
 31
0.0
  0
LINE
  5
12B
330
1F
100
AcDbEntity
  8
0
  6
Continuous
 62
     7
370
    25
100
AcDbLine
 10
0.8743598393
 20
-0.0779810531
 30
0.0
 11
0.8743598393
 21
-0.0463804922
 31
0.0
  0
LINE
  5
12C
330
1F
100
AcDbEntity
  8
0
  6
Continuous
 62
     7
370
    25
100
AcDbLine
 10
0.8967957368
 20
-0.0779810531
 30
0.0
 11
0.8743598393
 21
-0.0779810531
 31
0.0
  0
LINE
  5
12D
330
1F
100
AcDbEntity
  8
0
  6
Continuous
 62
     7
370
    25
100
AcDbLine
 10
0.8967957368
 20
0.1047112546
 30
0.0
 11
0.8967957368
 21
-0.0779810531
 31
0.0
  0
LINE
  5
12E
330
1F
100
AcDbEntity
  8
0
  6
Continuous
 62
     7
370
    25
100
AcDbLine
 10
0.8743598393
 20
0.1047112546
 30
0.0
 11
0.8967957368
 21
0.1047112546
 31
0.0
  0
LINE
  5
12F
330
1F
100
AcDbEntity
  8
0
  6
Continuous
 62
     7
370
    25
100
AcDbLine
 10
1.1628213778
 20
0.1047112546
 30
0.0
 11
1.1948726599
 21
0.1047112546
 31
0.0
  0
LINE
  5
130
330
1F
100
AcDbEntity
  8
0
  6
Continuous
 62
     7
370
    25
100
AcDbLine
 10
1.1628213778
 20
0.0822753572
 30
0.0
 11
1.1628213778
 21
0.1047112546
 31
0.0
  0
LINE
  5
131
330
1F
100
AcDbEntity
  8
0
  6
Continuous
 62
     7
370
    25
100
AcDbLine
 10
1.1948726599
 20
0.0822753572
 30
0.0
 11
1.1628213778
 21
0.0822753572
 31
0.0
  0
LINE
  5
132
330
1F
100
AcDbEntity
  8
0
  6
Continuous
 62
     7
370
    25
100
AcDbLine
 10
1.1948726599
 20
-0.0779810531
 30
0.0
 11
1.1948726599
 21
0.0822753572
 31
0.0
  0
LINE
  5
133
330
1F
100
AcDbEntity
  8
0
  6
Continuous
 62
     7
370
    25
100
AcDbLine
 10
1.2173085573
 20
-0.0779810531
 30
0.0
 11
1.1948726599
 21
-0.0779810531
 31
0.0
  0
LINE
  5
134
330
1F
100
AcDbEntity
  8
0
  6
Continuous
 62
     7
370
    25
100
AcDbLine
 10
1.2173085573
 20
0.0822753572
 30
0.0
 11
1.2173085573
 21
-0.0779810531
 31
0.0
  0
LINE
  5
135
330
1F
100
AcDbEntity
  8
0
  6
Continuous
 62
     7
370
    25
100
AcDbLine
 10
1.2493598393
 20
0.0822753572
 30
0.0
 11
1.2173085573
 21
0.0822753572
 31
0.0
  0
LINE
  5
136
330
1F
100
AcDbEntity
  8
0
  6
Continuous
 62
     7
370
    25
100
AcDbLine
 10
1.2493598393
 20
0.1047112546
 30
0.0
 11
1.2493598393
 21
0.0822753572
 31
0.0
  0
LINE
  5
137
330
1F
100
AcDbEntity
  8
0
  6
Continuous
 62
     7
370
    25
100
AcDbLine
 10
1.2173085573
 20
0.1047112546
 30
0.0
 11
1.2493598393
 21
0.1047112546
 31
0.0
  0
LINE
  5
138
330
1F
100
AcDbEntity
  8
0
  6
Continuous
 62
     7
370
    25
100
AcDbLine
 10
1.2173085573
 20
0.1784292033
 30
0.0
 11
1.2173085573
 21
0.1047112546
 31
0.0
  0
LINE
  5
139
330
1F
100
AcDbEntity
  8
0
  6
Continuous
 62
     7
370
    25
100
AcDbLine
 10
1.1948726599
 20
0.1784292033
 30
0.0
 11
1.2173085573
 21
0.1784292033
 31
0.0
  0
LINE
  5
13A
330
1F
100
AcDbEntity
  8
0
  6
Continuous
 62
     7
370
    25
100
AcDbLine
 10
1.1948726599
 20
0.1047112546
 30
0.0
 11
1.1948726599
 21
0.1784292033
 31
0.0
  0
LINE
  5
13B
330
1F
100
AcDbEntity
  8
0
  6
Continuous
 62
     7
370
    25
100
AcDbLine
 10
1.1087849195
 20
-0.0266990018
 30
0.0
 11
1.1275649676
 21
-0.0390187134
 31
0.0
  0
LINE
  5
13C
330
1F
100
AcDbEntity
  8
0
  6
Continuous
 62
     7
370
    25
100
AcDbLine
 10
1.1275649676
 20
0.0650978732
 30
0.0
 11
1.1087849195
 21
0.0534292033
 31
0.0
  0
LINE
  5
13D
330
1F
100
AcDbEntity
  8
0
  6
Continuous
 62
     7
370
    25
100
AcDbLine
 10
0.4961547111
 20
-0.1452887454
 30
0.0
 11
0.4737188137
 21
-0.1452887454
 31
0.0
  0
LINE
  5
13E
330
1F
100
AcDbEntity
  8
0
  6
Continuous
 62
     7
370
    25
100
AcDbLine
 10
0.4961547111
 20
0.1047112546
 30
0.0
 11
0.4961547111
 21
0.0709071681
 31
0.0
  0
LINE
  5
13F
330
1F
100
AcDbEntity
  8
0
  6
Continuous
 62
     7
370
    25
100
AcDbLine
 10
0.4737188137
 20
0.1047112546
 30
0.0
 11
0.4961547111
 21
0.1047112546
 31
0.0
  0
LINE
  5
140
330
1F
100
AcDbEntity
  8
0
  6
Continuous
 62
     7
370
    25
100
AcDbLine
 10
0.4737188137
 20
-0.1452887454
 30
0.0
 11
0.4737188137
 21
0.1047112546
 31
0.0
  0
LINE
  5
141
330
1F
100
AcDbEntity
  8
0
  6
Continuous
 62
     7
370
    25
100
AcDbLine
 10
-0.6064093914
 20
-0.056446598
 30
0.0
 11
-0.5915355933
 21
-0.0395195146
 31
0.0
  0
LINE
  5
142
330
1F
100
AcDbEntity
  8
0
  6
Continuous
 62
     7
370
    25
100
AcDbLine
 10
-1.375
 20
-2.375
 30
0.0
 11
1.375
 21
-2.375
 31
0.0
  0
LINE
  5
143
330
1F
100
AcDbEntity
  8
0
  6
Continuous
 62
     7
370
    25
100
AcDbLine
 10
-1.375
 20
2.375
 30
0.0
 11
-1.375
 21
-2.375
 31
0.0
  0
LINE
  5
144
330
1F
100
AcDbEntity
  8
0
  6
Continuous
 62
     7
370
    25
100
AcDbLine
 10
1.375
 20
2.375
 30
0.0
 11
-1.375
 21
2.375
 31
0.0
  0
LINE
  5
145
330
1F
100
AcDbEntity
  8
0
  6
Continuous
 62
     7
370
    25
100
AcDbLine
 10
1.375
 20
-2.375
 30
0.0
 11
1.375
 21
2.375
 31
0.0
  0
LINE
  5
146
330
1F
100
AcDbEntity
  8
0
  6
Continuous
 62
     7
370
    25
100
AcDbLine
 10
-0.5038452889
 20
0.0819247963
 30
0.0
 11
-0.5190696478
 21
0.0662497161
 31
0.0
  0
LINE
  5
147
330
1F
100
AcDbEntity
  8
0
  6
Continuous
 62
     7
370
    25
100
AcDbLine
 10
0.2974367624
 20
-0.0069173512
 30
0.0
 11
0.2974367624
 21
-0.0779810531
 31
0.0
  0
LINE
  5
148
330
1F
100
AcDbEntity
  8
0
  6
Continuous
 62
     7
370
    25
100
AcDbLine
 10
0.4961547111
 20
-0.0448780884
 30
0.0
 11
0.4961547111
 21
-0.1452887454
 31
0.0
  0
LINE
  5
149
330
1F
100
AcDbEntity
  8
0
  6
Continuous
 62
     7
370
    25
100
AcDbLine
 10
0.1724367624
 20
-0.0779810531
 30
0.0
 11
0.150000865
 21
-0.0779810531
 31
0.0
  0
MTEXT
  5
14B
330
1F
100
AcDbEntity
  8
0
  6
Continuous
 62
     7
100
AcDbMText
 10
-1.375
 20
-2.4151404091
 30
0.0
 40
0.1903
 41
0.0
 71
     1
 72
     1
  1
SOLIDWORKS Educational Product.
  7
SLDTEXTSTYLE0
 73
     1
 44
1.0
  0
MTEXT
  5
14C
330
1F
100
AcDbEntity
  8
0
  6
Continuous
 62
     7
100
AcDbMText
 10
-1.375
 20
-2.7005904091
 30
0.0
 40
0.1903
 41
0.0
 71
     1
 72
     1
  1
For Instructional Use Only.
  7
SLDTEXTSTYLE0
 73
     1
 44
1.0
  0
ENDSEC
  0
SECTION
  2
OBJECTS
  0
DICTIONARY
  5
C
330
0
100
AcDbDictionary
281
     1
  3
ACAD_GROUP
350
D
  3
ACAD_LAYOUT
350
1A
  3
ACAD_MLINESTYLE
350
17
  3
ACAD_PLOTSETTINGS
350
19
  3
ACAD_PLOTSTYLENAME
350
E
  3
ACAD_SCALELIST
350
47
  0
DICTIONARY
  5
D
102
{ACAD_REACTORS
330
C
102
}
330
C
100
AcDbDictionary
281
     1
  0
DICTIONARY
  5
1A
102
{ACAD_REACTORS
330
C
102
}
330
C
100
AcDbDictionary
281
     1
  3
Layout1
350
1E
  3
Layout2
350
26
  3
Model
350
22
  0
DICTIONARY
  5
17
102
{ACAD_REACTORS
330
C
102
}
330
C
100
AcDbDictionary
281
     1
  3
Standard
350
18
  0
DICTIONARY
  5
19
102
{ACAD_REACTORS
330
C
102
}
330
C
100
AcDbDictionary
281
     1
  0
ACDBDICTIONARYWDFLT
  5
E
102
{ACAD_REACTORS
330
C
102
}
330
C
100
AcDbDictionary
281
     1
  3
Normal
350
F
100
AcDbDictionaryWithDefault
340
F
  0
DICTIONARY
  5
47
102
{ACAD_REACTORS
330
C
102
}
330
C
100
AcDbDictionary
281
     1
  3
A0
350
48
  3
A1
350
49
  3
A2
350
4A
  3
A3
350
4B
  3
A4
350
4C
  3
A5
350
4D
  3
A6
350
4E
  3
A7
350
4F
  3
A8
350
50
  3
A9
350
51
  3
B0
350
52
  3
B1
350
53
  3
B2
350
54
  3
B3
350
55
  3
B4
350
56
  3
B5
350
57
  3
B6
350
58
  3
B7
350
59
  3
B8
350
5A
  3
B9
350
5B
  3
C0
350
5C
  3
C1
350
5D
  3
C2
350
5E
  3
C3
350
5F
  3
C4
350
60
  3
C5
350
61
  3
C6
350
62
  3
C7
350
63
  3
C8
350
64
  3
C9
350
65
  3
D0
350
66
  3
D1
350
67
  3
D2
350
68
  0
LAYOUT
  5
1E
102
{ACAD_REACTORS
330
1A
102
}
330
1A
100
AcDbPlotSettings
  1

  2
none_device
  4

  6

 40
0.0
 41
0.0
 42
0.0
 43
0.0
 44
0.0
 45
0.0
 46
0.0
 47
0.0
 48
0.0
 49
0.0
140
0.0
141
0.0
142
1.0
143
1.0
 70
   688
 72
     0
 73
     0
 74
     5
  7

 75
    16
147
1.0
148
0.0
149
0.0
100
AcDbLayout
  1
Layout1
 70
     1
 71
     1
 10
0.0
 20
0.0
 11
12.0
 21
9.0
 12
0.0
 22
0.0
 32
0.0
 14
1.0000000000E+20
 24
1.0000000000E+20
 34
1.0000000000E+20
 15
-1.0000000000E+20
 25
-1.0000000000E+20
 35
-1.0000000000E+20
146
0.0
 13
0.0
 23
0.0
 33
0.0
 16
1.0
 26
0.0
 36
0.0
 17
0.0
 27
1.0
 37
0.0
 76
     0
330
1B
  0
LAYOUT
  5
26
102
{ACAD_REACTORS
330
1A
102
}
330
1A
100
AcDbPlotSettings
  1

  2
none_device
  4

  6

 40
0.0
 41
0.0
 42
0.0
 43
0.0
 44
0.0
 45
0.0
 46
0.0
 47
0.0
 48
0.0
 49
0.0
140
0.0
141
0.0
142
1.0
143
1.0
 70
   688
 72
     0
 73
     0
 74
     5
  7

 75
    16
147
1.0
148
0.0
149
0.0
100
AcDbLayout
  1
Layout2
 70
     1
 71
     2
 10
0.0
 20
0.0
 11
0.0
 21
0.0
 12
0.0
 22
0.0
 32
0.0
 14
0.0
 24
0.0
 34
0.0
 15
0.0
 25
0.0
 35
0.0
146
0.0
 13
0.0
 23
0.0
 33
0.0
 16
1.0
 26
0.0
 36
0.0
 17
0.0
 27
1.0
 37
0.0
 76
     0
330
23
  0
LAYOUT
  5
22
102
{ACAD_REACTORS
330
1A
102
}
330
1A
100
AcDbPlotSettings
  1

  2
none_device
  4
ANSI_A_(11.00_x_8.50_Inches)
  6

 40
6.35
 41
19.05
 42
6.35000508
 43
19.05000254
 44
279.4
 45
215.9
 46
133.34999746
 47
88.89999873
 48
0.0
 49
0.0
140
0.0
141
0.0
142
1.7715789474
143
1.0
 70
  1696
 72
     0
 73
     0
 74
     0
  7

 75
     0
147
0.5913241897
148
-39.4088153714
149
0.0
100
AcDbLayout
  1
Model
 70
     1
 71
     0
 10
0.0
 20
0.0
 11
12.0
 21
9.0
 12
0.0
 22
0.0
 32
0.0
 14
-1.375
 24
-2.375
 34
0.0
 15
1.375
 25
2.375
 35
0.0
146
0.0
 13
0.0
 23
0.0
 33
0.0
 16
1.0
 26
0.0
 36
0.0
 17
0.0
 27
1.0
 37
0.0
 76
     0
330
1F
331
29
  0
MLINESTYLE
  5
18
102
{ACAD_REACTORS
330
17
102
}
330
17
100
AcDbMlineStyle
  2
Standard
 70
     0
  3

 62
   256
 51
90.0
 52
90.0
 71
     2
 49
0.5
 62
   256
  6
BYLAYER
 49
-0.5
 62
   256
  6
BYLAYER
  0
ACDBPLACEHOLDER
  5
F
102
{ACAD_REACTORS
330
E
102
}
330
E
  0
SCALE
  5
48
102
{ACAD_REACTORS
330
47
102
}
330
47
100
AcDbScale
 70
     0
300
1:1
140
1.0
141
1.0
290
     1
  0
SCALE
  5
49
102
{ACAD_REACTORS
330
47
102
}
330
47
100
AcDbScale
 70
     0
300
1:2
140
1.0
141
2.0
290
     0
  0
SCALE
  5
4A
102
{ACAD_REACTORS
330
47
102
}
330
47
100
AcDbScale
 70
     0
300
1:4
140
1.0
141
4.0
290
     0
  0
SCALE
  5
4B
102
{ACAD_REACTORS
330
47
102
}
330
47
100
AcDbScale
 70
     0
300
1:5
140
1.0
141
5.0
290
     0
  0
SCALE
  5
4C
102
{ACAD_REACTORS
330
47
102
}
330
47
100
AcDbScale
 70
     0
300
1:8
140
1.0
141
8.0
290
     0
  0
SCALE
  5
4D
102
{ACAD_REACTORS
330
47
102
}
330
47
100
AcDbScale
 70
     0
300
1:10
140
1.0
141
10.0
290
     0
  0
SCALE
  5
4E
102
{ACAD_REACTORS
330
47
102
}
330
47
100
AcDbScale
 70
     0
300
1:16
140
1.0
141
16.0
290
     0
  0
SCALE
  5
4F
102
{ACAD_REACTORS
330
47
102
}
330
47
100
AcDbScale
 70
     0
300
1:20
140
1.0
141
20.0
290
     0
  0
SCALE
  5
50
102
{ACAD_REACTORS
330
47
102
}
330
47
100
AcDbScale
 70
     0
300
1:30
140
1.0
141
30.0
290
     0
  0
SCALE
  5
51
102
{ACAD_REACTORS
330
47
102
}
330
47
100
AcDbScale
 70
     0
300
1:40
140
1.0
141
40.0
290
     0
  0
SCALE
  5
52
102
{ACAD_REACTORS
330
47
102
}
330
47
100
AcDbScale
 70
     0
300
1:50
140
1.0
141
50.0
290
     0
  0
SCALE
  5
53
102
{ACAD_REACTORS
330
47
102
}
330
47
100
AcDbScale
 70
     0
300
1:100
140
1.0
141
100.0
290
     0
  0
SCALE
  5
54
102
{ACAD_REACTORS
330
47
102
}
330
47
100
AcDbScale
 70
     0
300
2:1
140
2.0
141
1.0
290
     0
  0
SCALE
  5
55
102
{ACAD_REACTORS
330
47
102
}
330
47
100
AcDbScale
 70
     0
300
4:1
140
4.0
141
1.0
290
     0
  0
SCALE
  5
56
102
{ACAD_REACTORS
330
47
102
}
330
47
100
AcDbScale
 70
     0
300
8:1
140
8.0
141
1.0
290
     0
  0
SCALE
  5
57
102
{ACAD_REACTORS
330
47
102
}
330
47
100
AcDbScale
 70
     0
300
10:1
140
10.0
141
1.0
290
     0
  0
SCALE
  5
58
102
{ACAD_REACTORS
330
47
102
}
330
47
100
AcDbScale
 70
     0
300
100:1
140
100.0
141
1.0
290
     0
  0
SCALE
  5
59
102
{ACAD_REACTORS
330
47
102
}
330
47
100
AcDbScale
 70
     0
300
1/128" = 1'-0"
140
0.0078125
141
12.0
290
     0
  0
SCALE
  5
5A
102
{ACAD_REACTORS
330
47
102
}
330
47
100
AcDbScale
 70
     0
300
1/64" = 1'-0"
140
0.015625
141
12.0
290
     0
  0
SCALE
  5
5B
102
{ACAD_REACTORS
330
47
102
}
330
47
100
AcDbScale
 70
     0
300
1/32" = 1'-0"
140
0.03125
141
12.0
290
     0
  0
SCALE
  5
5C
102
{ACAD_REACTORS
330
47
102
}
330
47
100
AcDbScale
 70
     0
300
1/16" = 1'-0"
140
0.0625
141
12.0
290
     0
  0
SCALE
  5
5D
102
{ACAD_REACTORS
330
47
102
}
330
47
100
AcDbScale
 70
     0
300
3/32" = 1'-0"
140
0.09375
141
12.0
290
     0
  0
SCALE
  5
5E
102
{ACAD_REACTORS
330
47
102
}
330
47
100
AcDbScale
 70
     0
300
1/8" = 1'-0"
140
0.125
141
12.0
290
     0
  0
SCALE
  5
5F
102
{ACAD_REACTORS
330
47
102
}
330
47
100
AcDbScale
 70
     0
300
3/16" = 1'-0"
140
0.1875
141
12.0
290
     0
  0
SCALE
  5
60
102
{ACAD_REACTORS
330
47
102
}
330
47
100
AcDbScale
 70
     0
300
1/4" = 1'-0"
140
0.25
141
12.0
290
     0
  0
SCALE
  5
61
102
{ACAD_REACTORS
330
47
102
}
330
47
100
AcDbScale
 70
     0
300
3/8" = 1'-0"
140
0.375
141
12.0
290
     0
  0
SCALE
  5
62
102
{ACAD_REACTORS
330
47
102
}
330
47
100
AcDbScale
 70
     0
300
1/2" = 1'-0"
140
0.5
141
12.0
290
     0
  0
SCALE
  5
63
102
{ACAD_REACTORS
330
47
102
}
330
47
100
AcDbScale
 70
     0
300
3/4" = 1'-0"
140
0.75
141
12.0
290
     0
  0
SCALE
  5
64
102
{ACAD_REACTORS
330
47
102
}
330
47
100
AcDbScale
 70
     0
300
1" = 1'-0"
140
1.0
141
12.0
290
     0
  0
SCALE
  5
65
102
{ACAD_REACTORS
330
47
102
}
330
47
100
AcDbScale
 70
     0
300
1-1/2" = 1'-0"
140
1.5
141
12.0
290
     0
  0
SCALE
  5
66
102
{ACAD_REACTORS
330
47
102
}
330
47
100
AcDbScale
 70
     0
300
3" = 1'-0"
140
3.0
141
12.0
290
     0
  0
SCALE
  5
67
102
{ACAD_REACTORS
330
47
102
}
330
47
100
AcDbScale
 70
     0
300
6" = 1'-0"
140
6.0
141
12.0
290
     0
  0
SCALE
  5
68
102
{ACAD_REACTORS
330
47
102
}
330
47
100
AcDbScale
 70
     0
300
1'-0" = 1'-0"
140
12.0
141
12.0
290
     0
  0
ENDSEC
  0
EOF
