  0
SECTION
  2
HEADER
  9
$ACADVER
  1
AC1015
  9
$ACADMAINTVER
 70
     6
  9
$DWGCODEPAGE
  3
ANSI_1252
  9
$INSBASE
 10
0.0
 20
0.0
 30
0.0
  9
$EXTMIN
 10
-3.325
 20
-2.95
 30
0.0
  9
$EXTMAX
 10
3.325
 20
2.95
 30
0.0
  9
$LIMMIN
 10
0.0
 20
0.0
  9
$LIMMAX
 10
12.0
 20
9.0
  9
$ORTHOMODE
 70
     0
  9
$REGENMODE
 70
     1
  9
$FILLMODE
 70
     1
  9
$QTEXTMODE
 70
     0
  9
$MIRRTEXT
 70
     1
  9
$LTSCALE
 40
1.0
  9
$ATTMODE
 70
     1
  9
$TEXTSIZE
 40
0.125
  9
$TRACEWID
 40
0.05
  9
$TEXTSTYLE
  7
Standard
  9
$CLAYER
  8
0
  9
$CELTYPE
  6
ByLayer
  9
$CECOLOR
 62
   256
  9
$CELTSCALE
 40
1.0
  9
$DISPSILH
 70
     0
  9
$DIMSCALE
 40
1.0
  9
$DIMASZ
 40
0.13
  9
$DIMEXO
 40
0.05
  9
$DIMDLI
 40
0.38
  9
$DIMRND
 40
0.0
  9
$DIMDLE
 40
0.0
  9
$DIMEXE
 40
0.125
  9
$DIMTP
 40
0.0
  9
$DIMTM
 40
0.0
  9
$DIMTXT
 40
0.125
  9
$DIMCEN
 40
0.09
  9
$DIMTSZ
 40
0.0
  9
$DIMTOL
 70
     0
  9
$DIMLIM
 70
     0
  9
$DIMTIH
 70
     1
  9
$DIMTOH
 70
     1
  9
$DIMSE1
 70
     0
  9
$DIMSE2
 70
     0
  9
$DIMTAD
 70
     0
  9
$DIMZIN
 70
     1
  9
$DIMBLK
  1

  9
$DIMASO
 70
     1
  9
$DIMSHO
 70
     1
  9
$DIMPOST
  1

  9
$DIMAPOST
  1

  9
$DIMALT
 70
     0
  9
$DIMALTD
 70
     2
  9
$DIMALTF
 40
25.4
  9
$DIMLFAC
 40
1.0
  9
$DIMTOFL
 70
     0
  9
$DIMTVP
 40
0.0
  9
$DIMTIX
 70
     0
  9
$DIMSOXD
 70
     0
  9
$DIMSAH
 70
     0
  9
$DIMBLK1
  1

  9
$DIMBLK2
  1

  9
$DIMSTYLE
  2
Standard
  9
$DIMCLRD
 70
     0
  9
$DIMCLRE
 70
     0
  9
$DIMCLRT
 70
     0
  9
$DIMTFAC
 40
1.0
  9
$DIMGAP
 40
0.06
  9
$DIMJUST
 70
     0
  9
$DIMSD1
 70
     0
  9
$DIMSD2
 70
     0
  9
$DIMTOLJ
 70
     1
  9
$DIMTZIN
 70
     1
  9
$DIMALTZ
 70
     0
  9
$DIMALTTZ
 70
     0
  9
$DIMUPT
 70
     0
  9
$DIMDEC
 70
     2
  9
$DIMTDEC
 70
     2
  9
$DIMALTU
 70
     2
  9
$DIMALTTD
 70
     2
  9
$DIMTXSTY
  7
Standard
  9
$DIMAUNIT
 70
     0
  9
$DIMADEC
 70
     2
  9
$DIMALTRND
 40
0.0
  9
$DIMAZIN
 70
     0
  9
$DIMDSEP
 70
    46
  9
$DIMATFIT
 70
     3
  9
$DIMFRAC
 70
     0
  9
$DIMLDRBLK
  1

  9
$DIMLUNIT
 70
     2
  9
$DIMLWD
 70
    -2
  9
$DIMLWE
 70
    -2
  9
$DIMTMOVE
 70
     0
  9
$LUNITS
 70
     2
  9
$LUPREC
 70
     2
  9
$SKETCHINC
 40
0.1
  9
$FILLETRAD
 40
0.5
  9
$AUNITS
 70
     0
  9
$AUPREC
 70
     2
  9
$MENU
  1
.
  9
$ELEVATION
 40
0.0
  9
$PELEVATION
 40
0.0
  9
$THICKNESS
 40
0.0
  9
$LIMCHECK
 70
     0
  9
$CHAMFERA
 40
0.0
  9
$CHAMFERB
 40
0.0
  9
$CHAMFERC
 40
0.0
  9
$CHAMFERD
 40
0.0
  9
$SKPOLY
 70
     0
  9
$TDCREATE
 40
2458403.541628426
  9
$TDUCREATE
 40
2458403.708295092
  9
$TDUPDATE
 40
2458403.541665984
  9
$TDUUPDATE
 40
2458403.70833265
  9
$TDINDWG
 40
0.0000000116
  9
$TDUSRTIMER
 40
0.0000000116
  9
$USRTIMER
 70
     1
  9
$ANGBASE
 50
0.0
  9
$ANGDIR
 70
     0
  9
$PDMODE
 70
     0
  9
$PDSIZE
 40
-1.0
  9
$PLINEWID
 40
0.0
  9
$SPLFRAME
 70
     0
  9
$SPLINETYPE
 70
     6
  9
$SPLINESEGS
 70
     8
  9
$HANDSEED
  5
10E
  9
$SURFTAB1
 70
     6
  9
$SURFTAB2
 70
     6
  9
$SURFTYPE
 70
     6
  9
$SURFU
 70
     6
  9
$SURFV
 70
     6
  9
$UCSBASE
  2

  9
$UCSNAME
  2

  9
$UCSORG
 10
0.0
 20
0.0
 30
0.0
  9
$UCSXDIR
 10
1.0
 20
0.0
 30
0.0
  9
$UCSYDIR
 10
0.0
 20
1.0
 30
0.0
  9
$UCSORTHOREF
  2

  9
$UCSORTHOVIEW
 70
     0
  9
$UCSORGTOP
 10
0.0
 20
0.0
 30
0.0
  9
$UCSORGBOTTOM
 10
0.0
 20
0.0
 30
0.0
  9
$UCSORGLEFT
 10
0.0
 20
0.0
 30
0.0
  9
$UCSORGRIGHT
 10
0.0
 20
0.0
 30
0.0
  9
$UCSORGFRONT
 10
0.0
 20
0.0
 30
0.0
  9
$UCSORGBACK
 10
0.0
 20
0.0
 30
0.0
  9
$PUCSBASE
  2

  9
$PUCSNAME
  2

  9
$PUCSORG
 10
0.0
 20
0.0
 30
0.0
  9
$PUCSXDIR
 10
1.0
 20
0.0
 30
0.0
  9
$PUCSYDIR
 10
0.0
 20
1.0
 30
0.0
  9
$PUCSORTHOREF
  2

  9
$PUCSORTHOVIEW
 70
     0
  9
$PUCSORGTOP
 10
0.0
 20
0.0
 30
0.0
  9
$PUCSORGBOTTOM
 10
0.0
 20
0.0
 30
0.0
  9
$PUCSORGLEFT
 10
0.0
 20
0.0
 30
0.0
  9
$PUCSORGRIGHT
 10
0.0
 20
0.0
 30
0.0
  9
$PUCSORGFRONT
 10
0.0
 20
0.0
 30
0.0
  9
$PUCSORGBACK
 10
0.0
 20
0.0
 30
0.0
  9
$USERI1
 70
     0
  9
$USERI2
 70
     0
  9
$USERI3
 70
     0
  9
$USERI4
 70
     0
  9
$USERI5
 70
     0
  9
$USERR1
 40
0.0
  9
$USERR2
 40
0.0
  9
$USERR3
 40
0.0
  9
$USERR4
 40
0.0
  9
$USERR5
 40
0.0
  9
$WORLDVIEW
 70
     1
  9
$SHADEDGE
 70
     3
  9
$SHADEDIF
 70
    70
  9
$TILEMODE
 70
     1
  9
$MAXACTVP
 70
    64
  9
$PINSBASE
 10
0.0
 20
0.0
 30
0.0
  9
$PLIMCHECK
 70
     0
  9
$PEXTMIN
 10
1.0000000000E+20
 20
1.0000000000E+20
 30
1.0000000000E+20
  9
$PEXTMAX
 10
-1.0000000000E+20
 20
-1.0000000000E+20
 30
-1.0000000000E+20
  9
$PLIMMIN
 10
0.0
 20
0.0
  9
$PLIMMAX
 10
12.0
 20
9.0
  9
$UNITMODE
 70
     0
  9
$VISRETAIN
 70
     1
  9
$PLINEGEN
 70
     0
  9
$PSLTSCALE
 70
     1
  9
$TREEDEPTH
 70
  3020
  9
$CMLSTYLE
  2
Standard
  9
$CMLJUST
 70
     0
  9
$CMLSCALE
 40
1.0
  9
$PROXYGRAPHICS
 70
     1
  9
$MEASUREMENT
 70
     0
  9
$CELWEIGHT
370
    -1
  9
$ENDCAPS
280
     0
  9
$JOINSTYLE
280
     0
  9
$LWDISPLAY
290
     1
  9
$INSUNITS
 70
     1
  9
$HYPERLINKBASE
  1

  9
$STYLESHEET
  1

  9
$XEDIT
290
     1
  9
$CEPSNTYPE
380
     0
  9
$PSTYLEMODE
290
     1
  9
$FINGERPRINTGUID
  2
{36469496-EF4E-45F8-A8DF-B1A9283F51CB}
  9
$VERSIONGUID
  2
{FAEB1C32-E019-11D5-929B-00C0DF256EC4}
  9
$EXTNAMES
290
     1
  9
$PSVPSCALE
 40
0.0
  9
$OLESTARTUP
290
     0
  0
ENDSEC
  0
SECTION
  2
CLASSES
  0
CLASS
  1
ACDBDICTIONARYWDFLT
  2
AcDbDictionaryWithDefault
  3
ObjectDBX Classes
 90
        0
280
     0
281
     0
  0
CLASS
  1
VISUALSTYLE
  2
AcDbVisualStyle
  3
ObjectDBX Classes
 90
     4095
280
     0
281
     0
  0
CLASS
  1
MATERIAL
  2
AcDbMaterial
  3
ObjectDBX Classes
 90
     1153
280
     0
281
     0
  0
CLASS
  1
SCALE
  2
AcDbScale
  3
ObjectDBX Classes
 90
     1153
280
     0
281
     0
  0
CLASS
  1
TABLESTYLE
  2
AcDbTableStyle
  3
ObjectDBX Classes
 90
     4095
280
     0
281
     0
  0
CLASS
  1
MLEADERSTYLE
  2
AcDbMLeaderStyle
  3
ACDB_MLEADERSTYLE_CLASS
 90
     4095
280
     0
281
     0
  0
CLASS
  1
SUN
  2
AcDbSun
  3
SCENEOE
 90
     1153
280
     0
281
     0
  0
CLASS
  1
ACDBPLACEHOLDER
  2
AcDbPlaceHolder
  3
ObjectDBX Classes
 90
        0
280
     0
281
     0
  0
CLASS
  1
LAYOUT
  2
AcDbLayout
  3
ObjectDBX Classes
 90
        0
280
     0
281
     0
  0
ENDSEC
  0
SECTION
  2
TABLES
  0
TABLE
  2
VPORT
  5
8
330
0
100
AcDbSymbolTable
 70
     1
  0
VPORT
  5
29
330
8
100
AcDbSymbolTableRecord
100
AcDbViewportTableRecord
  2
*Active
 70
     0
 10
0.0
 20
0.0
 11
1.0
 21
1.0
 12
0.0
 22
0.0
 13
0.0
 23
0.0
 14
0.5
 24
0.5
 15
0.5
 25
0.5
 16
0.0
 26
0.0
 36
1.0
 17
0.0
 27
0.0
 37
0.0
 40
6.018
 41
1.1271186441
 42
50.0
 43
0.0
 44
0.0
 50
0.0
 51
0.0
 71
     0
 72
   100
 73
     1
 74
     3
 75
     0
 76
     0
 77
     0
 78
     0
281
     0
 65
     1
110
0.0
120
0.0
130
0.0
111
1.0
121
0.0
131
0.0
112
0.0
122
1.0
132
0.0
 79
     0
146
0.0
  0
ENDTAB
  0
TABLE
  2
LTYPE
  5
5
330
0
100
AcDbSymbolTable
 70
     6
  0
LTYPE
  5
14
330
5
100
AcDbSymbolTableRecord
100
AcDbLinetypeTableRecord
  2
ByBlock
 70
     0
  3

 72
    65
 73
     0
 40
0.0
  0
LTYPE
  5
15
330
5
100
AcDbSymbolTableRecord
100
AcDbLinetypeTableRecord
  2
ByLayer
 70
     0
  3

 72
    65
 73
     0
 40
0.0
  0
LTYPE
  5
16
330
5
100
AcDbSymbolTableRecord
100
AcDbLinetypeTableRecord
  2
Continuous
 70
     0
  3
Solid line
 72
    65
 73
     0
 40
0.0
  0
LTYPE
  5
6E
330
5
100
AcDbSymbolTableRecord
100
AcDbLinetypeTableRecord
  2
HIDDEN
 70
     0
  3
Hidden __ __ __ __ __ __ __ __ __ __ __ __ __ __
 72
    65
 73
     2
 40
0.075
 49
0.05
 74
     0
 49
-0.025
 74
     0
  0
LTYPE
  5
6F
330
5
100
AcDbSymbolTableRecord
100
AcDbLinetypeTableRecord
  2
PHANTOM
 70
     0
  3
Phantom ______  __  __  ______  __  __  ______
 72
    65
 73
     6
 40
0.5
 49
0.25
 74
     0
 49
-0.05
 74
     0
 49
0.05
 74
     0
 49
-0.05
 74
     0
 49
0.05
 74
     0
 49
-0.05
 74
     0
  0
LTYPE
  5
70
330
5
100
AcDbSymbolTableRecord
100
AcDbLinetypeTableRecord
  2
CENTER
 70
     0
  3
Center ____ _ ____ _ ____ _ ____ _ ____ _ ____
 72
    65
 73
     4
 40
0.4
 49
0.25
 74
     0
 49
-0.05
 74
     0
 49
0.05
 74
     0
 49
-0.05
 74
     0
  0
LTYPE
  5
71
330
5
100
AcDbSymbolTableRecord
100
AcDbLinetypeTableRecord
  2
CENTERX2
 70
     0
  3
Center (2x) ________  __  ________  __  _____
 72
    65
 73
     4
 40
0.8
 49
0.5
 74
     0
 49
-0.1
 74
     0
 49
0.1
 74
     0
 49
-0.1
 74
     0
  0
LTYPE
  5
72
330
5
100
AcDbSymbolTableRecord
100
AcDbLinetypeTableRecord
  2
DOT2
 70
     0
  3
Dot (.5x) ........................................
 72
    65
 73
     2
 40
0.025
 49
0.0
 74
     0
 49
-0.025
 74
     0
  0
ENDTAB
  0
TABLE
  2
LAYER
  5
2
330
0
100
AcDbSymbolTable
 70
     1
  0
LAYER
  5
10
330
2
100
AcDbSymbolTableRecord
100
AcDbLayerTableRecord
  2
0
 70
     0
 62
     7
  6
Continuous
370
    -3
390
F
  0
ENDTAB
  0
TABLE
  2
STYLE
  5
3
330
0
100
AcDbSymbolTable
 70
     2
  0
STYLE
  5
11
330
3
100
AcDbSymbolTableRecord
100
AcDbTextStyleTableRecord
  2
Standard
 70
     0
 40
0.0
 41
1.0
 50
0.0
 71
     0
 42
0.125
  3
txt
  4

  0
STYLE
  5
10B
330
3
100
AcDbSymbolTableRecord
100
AcDbTextStyleTableRecord
  2
SLDTEXTSTYLE0
 70
     0
 40
0.0
 41
0.7
 50
0.0
 71
     0
 42
0.125
  3
TXT
  4

  0
ENDTAB
  0
TABLE
  2
VIEW
  5
6
330
0
100
AcDbSymbolTable
 70
     0
  0
ENDTAB
  0
TABLE
  2
UCS
  5
7
330
0
100
AcDbSymbolTable
 70
     0
  0
ENDTAB
  0
TABLE
  2
APPID
  5
9
330
0
100
AcDbSymbolTable
 70
     1
  0
APPID
  5
12
330
9
100
AcDbSymbolTableRecord
100
AcDbRegAppTableRecord
  2
ACAD
 70
     0
  0
ENDTAB
  0
TABLE
  2
DIMSTYLE
  5
A
330
0
100
AcDbSymbolTable
 70
     1
100
AcDbDimStyleTable
  0
DIMSTYLE
105
27
330
A
100
AcDbSymbolTableRecord
100
AcDbDimStyleTableRecord
  2
Standard
 70
     0
178
     0
340
11
  0
ENDTAB
  0
TABLE
  2
BLOCK_RECORD
  5
1
330
0
100
AcDbSymbolTable
 70
     1
  0
BLOCK_RECORD
  5
1F
330
1
100
AcDbSymbolTableRecord
100
AcDbBlockTableRecord
  2
*Model_Space
340
22
  0
BLOCK_RECORD
  5
1B
330
1
100
AcDbSymbolTableRecord
100
AcDbBlockTableRecord
  2
*Paper_Space
340
1E
  0
BLOCK_RECORD
  5
23
330
1
100
AcDbSymbolTableRecord
100
AcDbBlockTableRecord
  2
*Paper_Space0
340
26
  0
ENDTAB
  0
ENDSEC
  0
SECTION
  2
BLOCKS
  0
BLOCK
  5
20
330
1F
100
AcDbEntity
  8
0
100
AcDbBlockBegin
  2
*Model_Space
 70
     0
 10
0.0
 20
0.0
 30
0.0
  3
*Model_Space
  1

  0
ENDBLK
  5
21
330
1F
100
AcDbEntity
  8
0
100
AcDbBlockEnd
  0
BLOCK
  5
1C
330
1B
100
AcDbEntity
 67
     1
  8
0
100
AcDbBlockBegin
  2
*Paper_Space
 70
     0
 10
0.0
 20
0.0
 30
0.0
  3
*Paper_Space
  1

  0
ENDBLK
  5
1D
330
1B
100
AcDbEntity
 67
     1
  8
0
100
AcDbBlockEnd
  0
BLOCK
  5
24
330
23
100
AcDbEntity
  8
0
100
AcDbBlockBegin
  2
*Paper_Space0
 70
     0
 10
0.0
 20
0.0
 30
0.0
  3
*Paper_Space0
  1

  0
ENDBLK
  5
25
330
23
100
AcDbEntity
  8
0
100
AcDbBlockEnd
  0
ENDSEC
  0
SECTION
  2
ENTITIES
  0
SPLINE
  5
73
330
1F
100
AcDbEntity
  8
0
  6
Continuous
 62
     7
370
    25
100
AcDbSpline
210
0.0
220
0.0
230
1.0
 70
     8
 71
     3
 72
    15
 73
    11
 74
     0
 42
0.000000001
 43
0.00000001
 40
0.0
 40
0.0
 40
0.0
 40
0.0
 40
0.0793064855229998
 40
0.1719528189279321
 40
0.2770565073915903
 40
0.3947305758644764
 40
0.5261773212767585
 40
0.6713447665976123
 40
0.8292852571892535
 40
1.0
 40
1.0
 40
1.0
 40
1.0
 10
-0.59686858232221
 20
0.1195526226170157
 30
0.0
 10
-0.5980849463116586
 20
0.1197994143281172
 30
0.0
 10
-0.6007222743365839
 20
0.120334509662781
 30
0.0
 10
-0.6050228157957858
 20
0.1208993456191663
 30
0.0
 10
-0.6099325207173767
 20
0.1214025641828887
 30
0.0
 10
-0.6154627262335236
 20
0.1217747897302972
 30
0.0
 10
-0.6216204291702158
 20
0.122159542840872
 30
0.0
 10
-0.628418780504903
 20
0.1223091729210334
 30
0.0
 10
-0.6358300172662741
 20
0.1224876914991353
 30
0.0
 10
-0.6409723295805398
 20
0.1225006296592636
 30
0.0
 10
-0.6436434220657996
 20
0.1225073501811183
 30
0.0
  0
SPLINE
  5
74
330
1F
100
AcDbEntity
  8
0
  6
Continuous
 62
     7
370
    25
100
AcDbSpline
210
0.0
220
0.0
230
1.0
 70
     8
 71
     3
 72
    19
 73
    15
 74
     0
 42
0.000000001
 43
0.00000001
 40
0.0
 40
0.0
 40
0.0
 40
0.0
 40
0.0602873979279713
 40
0.1196023547075217
 40
0.1775033710185414
 40
0.2351426637323306
 40
0.2921325932269342
 40
0.3508712086415659
 40
0.4100978625665943
 40
0.4707315215304499
 40
0.5948287040804159
 40
0.7225788240942913
 40
0.8566913895440166
 40
1.0
 40
1.0
 40
1.0
 40
1.0
 10
-0.5559531175786202
 20
0.0748811482580414
 30
0.0
 10
-0.5559728393170075
 20
0.0762021011519751
 30
0.0
 10
-0.556011964680369
 20
0.0788226998509096
 30
0.0
 10
-0.5566020086034865
 20
0.0826738297929042
 30
0.0
 10
-0.557460142160183
 20
0.0864042493149935
 30
0.0
 10
-0.5585695302946513
 20
0.0900240879210483
 30
0.0
 10
-0.5601852065154407
 20
0.0934679005173217
 30
0.0
 10
-0.5620713883023759
 20
0.0968037976270886
 30
0.0
 10
-0.5642829169912791
 20
0.1000361890145021
 30
0.0
 10
-0.5677289288389675
 20
0.1041227785465991
 30
0.0
 10
-0.5727412134475386
 20
0.1088311366111285
 30
0.0
 10
-0.5798631259791733
 20
0.1134409582016034
 30
0.0
 10
-0.5879611472626933
 20
0.1171586587078518
 30
0.0
 10
-0.5938345396124104
 20
0.1187371927320275
 30
0.0
 10
-0.59686858232221
 20
0.1195526226170157
 30
0.0
  0
SPLINE
  5
75
330
1F
100
AcDbEntity
  8
0
  6
Continuous
 62
     7
370
    25
100
AcDbSpline
210
0.0
220
0.0
230
1.0
 70
     8
 71
     3
 72
    23
 73
    19
 74
     0
 42
0.000000001
 43
0.00000001
 40
0.0
 40
0.0
 40
0.0
 40
0.0
 40
0.0725024889330336
 40
0.1397389892678943
 40
0.2017951348259224
 40
0.2598219344148625
 40
0.3122059893845972
 40
0.3607734341243379
 40
0.4045403426007491
 40
0.4436980985527627
 40
0.5168407942439696
 40
0.5878743359442808
 40
0.6579654175616306
 40
0.7289693886473115
 40
0.7993077199548836
 40
0.8666357778344712
 40
0.933116329057274
 40
1.0
 40
1.0
 40
1.0
 40
1.0
 10
-0.6265660983478509
 20
0.0295586322324003
 30
0.0
 10
-0.6242790322112073
 20
0.0295860427607396
 30
0.0
 10
-0.6198710137414053
 20
0.0296388729405279
 30
0.0
 10
-0.6135066401613396
 20
0.0298113411234436
 30
0.0
 10
-0.6076078470326884
 20
0.0302036465305198
 30
0.0
 10
-0.602201551623443
 20
0.0308212072207868
 30
0.0
 10
-0.5972293764355368
 20
0.0314910964473686
 30
0.0
 10
-0.5927509690763305
 20
0.0323919022274874
 30
0.0
 10
-0.5887300266862261
 20
0.0334239708364487
 30
0.0
 10
-0.5840675761334135
 20
0.0350192688532368
 30
0.0
 10
-0.5788173255419168
 20
0.0374975882044711
 30
0.0
 10
-0.5731594072286585
 20
0.0412343186629151
 30
0.0
 10
-0.5681289630755152
 20
0.0456859835038317
 30
0.0
 10
-0.56385715884647
 20
0.0508381916590916
 30
0.0
 10
-0.5603562310931871
 20
0.0564404292968247
 30
0.0
 10
-0.557809412872932
 20
0.0623793828648731
 30
0.0
 10
-0.5562386373929944
 20
0.068556920537618
 30
0.0
 10
-0.5560484824437171
 20
0.0727688285764006
 30
0.0
 10
-0.5559531175786202
 20
0.0748811482580414
 30
0.0
  0
SPLINE
  5
79
330
1F
100
AcDbEntity
  8
0
  6
Continuous
 62
     7
370
    25
100
AcDbSpline
210
0.0
220
0.0
230
1.0
 70
     8
 71
     3
 72
    23
 73
    19
 74
     0
 42
0.000000001
 43
0.00000001
 40
0.0
 40
0.0
 40
0.0
 40
0.0
 40
0.0570031325129242
 40
0.1118178691207242
 40
0.1644023722182115
 40
0.215869804898795
 40
0.2668411100818677
 40
0.3174789632053581
 40
0.3699021362727598
 40
0.4234004494436353
 40
0.4797183982994507
 40
0.539241496644297
 40
0.6024306889434224
 40
0.6710295461473348
 40
0.7444847975608481
 40
0.8234539713786848
 40
0.9087403127306655
 40
0.9999999999999999
 40
0.9999999999999999
 40
0.9999999999999999
 40
0.9999999999999999
 10
-0.5751838868093894
 20
0.191517766847785
 30
0.0
 10
-0.5752214711082317
 20
0.1929053219558955
 30
0.0
 10
-0.5752951968145866
 20
0.195627162820366
 30
0.0
 10
-0.5758990041435121
 20
0.1995949738315389
 30
0.0
 10
-0.5769252594603389
 20
0.2033266704395525
 30
0.0
 10
-0.5782434232632053
 20
0.20687339260557
 30
0.0
 10
-0.5800854724572307
 20
0.2101242390498776
 30
0.0
 10
-0.5822542912645166
 20
0.2131916101709351
 30
0.0
 10
-0.5848746977137823
 20
0.2159710472064285
 30
0.0
 10
-0.5878573629034948
 20
0.2185688685146649
 30
0.0
 10
-0.59128655025052
 20
0.2208720490716687
 30
0.0
 10
-0.595160213951901
 20
0.2228892464412103
 30
0.0
 10
-0.5995307623138133
 20
0.2245135876326285
 30
0.0
 10
-0.6043245376696286
 20
0.225936169952458
 30
0.0
 10
-0.6096153296338165
 20
0.2269353337966175
 30
0.0
 10
-0.6153420834487164
 20
0.2277677186292661
 30
0.0
 10
-0.6215517062363569
 20
0.2281914859153086
 30
0.0
 10
-0.6258477849881934
 20
0.2282475832634994
 30
0.0
 10
-0.6280685021940048
 20
0.228276580950349
 30
0.0
  0
SPLINE
  5
7A
330
1F
100
AcDbEntity
  8
0
  6
Continuous
 62
     7
370
    25
100
AcDbSpline
210
0.0
220
0.0
230
1.0
 70
     8
 71
     3
 72
    23
 73
    19
 74
     0
 42
0.000000001
 43
0.00000001
 40
0.0
 40
0.0
 40
0.0
 40
0.0
 40
0.0723010339955059
 40
0.1397003317393864
 40
0.2022885114847735
 40
0.2605995332222015
 40
0.3131903291553326
 40
0.3617389329854282
 40
0.405706475632223
 40
0.4455399848948717
 40
0.5188319558616076
 40
0.5897782395835768
 40
0.6588674786561454
 40
0.7284304780610636
 40
0.7972827036080989
 40
0.864815377401445
 40
0.9313637528792683
 40
1.0
 40
1.0
 40
1.0
 40
1.0
 10
-0.6434431015529792
 20
0.1481483758221439
 30
0.0
 10
-0.6412396161696616
 20
0.1481769417511793
 30
0.0
 10
-0.6369820333659149
 20
0.14823213694746
 30
0.0
 10
-0.6308163264688583
 20
0.1483902453090285
 30
0.0
 10
-0.6250931108834195
 20
0.148832962695957
 30
0.0
 10
-0.619822265663849
 20
0.1492755528427159
 30
0.0
 10
-0.615012091094805
 20
0.1499951662472734
 30
0.0
 10
-0.6106732438446525
 20
0.1508517464552986
 30
0.0
 10
-0.606737629777616
 20
0.1517576682479019
 30
0.0
 10
-0.6021990908107281
 20
0.1532983458836431
 30
0.0
 10
-0.5970510230637203
 20
0.155575322682493
 30
0.0
 10
-0.591562944195547
 20
0.1591090252624923
 30
0.0
 10
-0.5867247677963435
 20
0.1633179076338566
 30
0.0
 10
-0.5826392543878237
 20
0.1681744049020724
 30
0.0
 10
-0.5792955779214948
 20
0.1735219896062227
 30
0.0
 10
-0.5769731696961904
 20
0.1792753382087049
 30
0.0
 10
-0.5753983636831498
 20
0.1852910619255307
 30
0.0
 10
-0.5752561114433505
 20
0.1894209371248017
 30
0.0
 10
-0.5751838868093894
 20
0.191517766847785
 30
0.0
  0
SPLINE
  5
7F
330
1F
100
AcDbEntity
  8
0
  6
Continuous
 62
     7
370
    25
100
AcDbSpline
210
0.0
220
0.0
230
1.0
 70
     8
 71
     3
 72
    23
 73
    19
 74
     0
 42
0.000000001
 43
0.00000001
 40
0.0
 40
0.0
 40
0.0
 40
0.0
 40
0.0611602766365174
 40
0.1203345577262021
 40
0.1781802550631248
 40
0.2352351259863638
 40
0.2926829614441805
 40
0.3511862482150794
 40
0.4104566095096935
 40
0.4717198544629954
 40
0.5337612027725885
 40
0.5957390238870944
 40
0.6578875151248845
 40
0.7212951802914612
 40
0.7868225145418895
 40
0.854686153828684
 40
0.925477986269996
 40
1.0
 40
1.0
 40
1.0
 40
1.0
 10
-0.5335172201427228
 20
0.0748811482580414
 30
0.0
 10
-0.5335869948586752
 20
0.0724406573921926
 30
0.0
 10
-0.5337242785670945
 20
0.067638923241739
 30
0.0
 10
-0.5347371336954331
 20
0.0605849850595605
 30
0.0
 10
-0.5364520699090684
 20
0.0538439174443604
 30
0.0
 10
-0.5388142946494038
 20
0.0473721186797716
 30
0.0
 10
-0.5418973171207123
 20
0.0411821090747236
 30
0.0
 10
-0.5456493145729574
 20
0.0352668759328295
 30
0.0
 10
-0.5501229976888747
 20
0.0296858523176105
 30
0.0
 10
-0.5551274883282974
 20
0.024377022095967
 30
0.0
 10
-0.5607890701489181
 20
0.0196036087145562
 30
0.0
 10
-0.5668973383576714
 20
0.0153524868087471
 30
0.0
 10
-0.5735292183500745
 20
0.0118563395147848
 30
0.0
 10
-0.5805757893512495
 20
0.00891948083601
 30
0.0
 10
-0.5881160976451237
 20
0.0066761095170784
 30
0.0
 10
-0.5961162838851103
 20
0.0051066399528416
 30
0.0
 10
-0.6045694483018945
 20
0.0040491373100848
 30
0.0
 10
-0.6103701448098595
 20
0.003962194103303
 30
0.0
 10
-0.6133449445016971
 20
0.0039176065913747
 30
0.0
  0
SPLINE
  5
80
330
1F
100
AcDbEntity
  8
0
  6
Continuous
 62
     7
370
    25
100
AcDbSpline
210
0.0
220
0.0
230
1.0
 70
     8
 71
     3
 72
    19
 73
    15
 74
     0
 42
0.000000001
 43
0.00000001
 40
0.0
 40
0.0
 40
0.0
 40
0.0
 40
0.1060574933033961
 40
0.2029142570846094
 40
0.2903001653958374
 40
0.3702225656250397
 40
0.4463837207709699
 40
0.5213968999648275
 40
0.5982910828464564
 40
0.6761424688569277
 40
0.7555286995560221
 40
0.8348871724576574
 40
0.9166460487466414
 40
1.0
 40
1.0
 40
1.0
 40
1.0
 10
-0.5816442233478509
 20
0.138783391847785
 30
0.0
 10
-0.5788041928053655
 20
0.1376930347805974
 30
0.0
 10
-0.5733705108496976
 20
0.1356069116095322
 30
0.0
 10
-0.5658929385331295
 20
0.1319186641811718
 30
0.0
 10
-0.559450449604834
 20
0.127907084867502
 30
0.0
 10
-0.5539935106058913
 20
0.1235262384286668
 30
0.0
 10
-0.5493265352547032
 20
0.1188041805150866
 30
0.0
 10
-0.5452513251423546
 20
0.1136716723544898
 30
0.0
 10
-0.5417740841308618
 20
0.1080617610775329
 30
0.0
 10
-0.5387945895904627
 20
0.102032937123076
 30
0.0
 10
-0.5364696784457325
 20
0.0956467608118708
 30
0.0
 10
-0.5347285424193226
 20
0.0889631339477723
 30
0.0
 10
-0.5337308674810508
 20
0.0820060228624612
 30
0.0
 10
-0.5335888931040366
 20
0.077271352909712
 30
0.0
 10
-0.5335172201427227
 20
0.0748811482580414
 30
0.0
  0
SPLINE
  5
81
330
1F
100
AcDbEntity
  8
0
  6
Continuous
 62
     7
370
    25
100
AcDbSpline
210
0.0
220
0.0
230
1.0
 70
     8
 71
     3
 72
    15
 73
    11
 74
     0
 42
0.000000001
 43
0.00000001
 40
0.0
 40
0.0
 40
0.0
 40
0.0
 40
0.13056910708731
 40
0.2565806086940829
 40
0.380551616803684
 40
0.503622917200709
 40
0.6257393231697886
 40
0.7475485819596276
 40
0.8717661185648728
 40
1.0
 40
1.0
 40
1.0
 40
1.0
 10
-0.552747989373492
 20
0.1919684880016311
 30
0.0
 10
-0.5528260764051032
 20
0.1892075911674914
 30
0.0
 10
-0.552979524786186
 20
0.1837821685231332
 30
0.0
 10
-0.5544468647385257
 20
0.1758468750028722
 30
0.0
 10
-0.5567440553413499
 20
0.1682932165152049
 30
0.0
 10
-0.559937287424489
 20
0.1611487604139979
 30
0.0
 10
-0.5640874300100669
 20
0.1545749309035946
 30
0.0
 10
-0.5690058813432889
 20
0.1485186976146627
 30
0.0
 10
-0.5749399386640728
 20
0.1432364792578804
 30
0.0
 10
-0.5793858843774957
 20
0.1402834147899716
 30
0.0
 10
-0.5816442233478509
 20
0.138783391847785
 30
0.0
  0
SPLINE
  5
82
330
1F
100
AcDbEntity
  8
0
  6
Continuous
 62
     7
370
    25
100
AcDbSpline
210
0.0
220
0.0
230
1.0
 70
     8
 71
     3
 72
    23
 73
    19
 74
     0
 42
0.000000001
 43
0.00000001
 40
0.0
 40
0.0
 40
0.0
 40
0.0
 40
0.0625940971873312
 40
0.1213229386347498
 40
0.1766801421977657
 40
0.2283650957096754
 40
0.2768684458368074
 40
0.3218791276660457
 40
0.3640986251098921
 40
0.403355696242702
 40
0.4779679481633712
 40
0.5505354613647762
 40
0.6235844567403237
 40
0.698174882264204
 40
0.7733536703408758
 40
0.8472811254977337
 40
0.9228183395566695
 40
1.0
 40
1.0
 40
1.0
 40
1.0
 10
-0.6321750727068253
 20
0.2539176065913747
 30
0.0
 10
-0.6297873242648405
 20
0.2539050529912487
 30
0.0
 10
-0.6251592735265231
 20
0.2538807209898913
 30
0.0
 10
-0.618429313395899
 20
0.2535033544793927
 30
0.0
 10
-0.6121258269215749
 20
0.2529888066309187
 30
0.0
 10
-0.6062469860393939
 20
0.2521723714420468
 30
0.0
 10
-0.6007955072971739
 20
0.2511872445030937
 30
0.0
 10
-0.5957549617801857
 20
0.2499942576394991
 30
0.0
 10
-0.5911413780467356
 20
0.2485637852352833
 30
0.0
 10
-0.5856333254462952
 20
0.2462890508615365
 30
0.0
 10
-0.5793532782406645
 20
0.2429088245508429
 30
0.0
 10
-0.5725533930475942
 20
0.2379139270401987
 30
0.0
 10
-0.5667388045219284
 20
0.2318044653887431
 30
0.0
 10
-0.5617254961475748
 20
0.2249128471441488
 30
0.0
 10
-0.5577397018896296
 20
0.2173317205905048
 30
0.0
 10
-0.5548561806527946
 20
0.2092417785349674
 30
0.0
 10
-0.5530306181271762
 20
0.2007473683978576
 30
0.0
 10
-0.5528428728260405
 20
0.194915712835077
 30
0.0
 10
-0.552747989373492
 20
0.1919684880016311
 30
0.0
  0
SPLINE
  5
85
330
1F
100
AcDbEntity
  8
0
  6
Continuous
 62
     7
370
    25
100
AcDbSpline
210
0.0
220
0.0
230
1.0
 70
     8
 71
     3
 72
    23
 73
    19
 74
     0
 42
0.000000001
 43
0.00000001
 40
0.0
 40
0.0
 40
0.0
 40
0.0
 40
0.0679784896192549
 40
0.1330435352439081
 40
0.1965074380533953
 40
0.2586134167685751
 40
0.3197283376065484
 40
0.3808728540495679
 40
0.4426356023162054
 40
0.5050793035048788
 40
0.5678805200585768
 40
0.6288138541554887
 40
0.6889100905404411
 40
0.7487650058898475
 40
0.8093857829631187
 40
0.8708843357532268
 40
0.9340374630737026
 40
1.0
 40
1.0
 40
1.0
 40
1.0
 10
-0.2674915791170818
 20
0.1418883597965029
 30
0.0
 10
-0.2674534223083382
 20
0.143575888221392
 30
0.0
 10
-0.2673787440276453
 20
0.1468786204346159
 30
0.0
 10
-0.26678274034366
 20
0.1517313933134128
 30
0.0
 10
-0.265697618115373
 20
0.1563419757311737
 30
0.0
 10
-0.2643365522154542
 20
0.1607796088032058
 30
0.0
 10
-0.2624449090408802
 20
0.1649583298059017
 30
0.0
 10
-0.2601844872448123
 20
0.168933863450913
 30
0.0
 10
-0.2575282426073892
 20
0.1727007147368003
 30
0.0
 10
-0.2544680075468063
 20
0.176200938457374
 30
0.0
 10
-0.2511032471722672
 20
0.179380176050744
 30
0.0
 10
-0.247467906476885
 20
0.1821515066201276
 30
0.0
 10
-0.2436437452925403
 20
0.1845162462484443
 30
0.0
 10
-0.2396145724668947
 20
0.1864994720049583
 30
0.0
 10
-0.235341681540899
 20
0.1879995707617291
 30
0.0
 10
-0.2308549396597054
 20
0.1890322411237632
 30
0.0
 10
-0.2261634285969022
 20
0.1897218984666841
 30
0.0
 10
-0.2229562053139376
 20
0.1897835473450065
 30
0.0
 10
-0.2213177009119535
 20
0.1898150424888106
 30
0.0
  0
SPLINE
  5
86
330
1F
100
AcDbEntity
  8
0
  6
Continuous
 62
     7
370
    25
100
AcDbSpline
210
0.0
220
0.0
230
1.0
 70
     8
 71
     3
 72
    11
 73
     7
 74
     0
 42
0.000000001
 43
0.00000001
 40
0.0
 40
0.0
 40
0.0
 40
0.0
 40
0.2462523706929829
 40
0.4925907964763741
 40
0.7405699911180894
 40
0.9999999999999999
 40
0.9999999999999999
 40
0.9999999999999999
 40
0.9999999999999999
 10
-0.2591281977068253
 20
0.1137433277452208
 30
0.0
 10
-0.260423240539419
 20
0.1158251573906271
 30
0.0
 10
-0.2630137787688912
 20
0.1199895441954035
 30
0.0
 10
-0.2655291495673271
 20
0.1269402925334099
 30
0.0
 10
-0.2672581516299793
 20
0.1342577966283608
 30
0.0
 10
-0.2674126080706452
 20
0.1393068576530807
 30
0.0
 10
-0.2674915791170818
 20
0.1418883597965029
 30
0.0
  0
SPLINE
  5
87
330
1F
100
AcDbEntity
  8
0
  6
Continuous
 62
     7
370
    25
100
AcDbSpline
210
0.0
220
0.0
230
1.0
 70
     8
 71
     3
 72
    15
 73
    11
 74
     0
 42
0.000000001
 43
0.00000001
 40
0.0
 40
0.0
 40
0.0
 40
0.0
 40
0.0768750740350484
 40
0.1674616757257273
 40
0.2722700232466408
 40
0.3895508405125222
 40
0.5208013683480552
 40
0.6662632933752256
 40
0.8255449152058608
 40
1.0
 40
1.0
 40
1.0
 40
1.0
 10
-0.1999334861683638
 20
0.0699732956939388
 30
0.0
 10
-0.2005065143417487
 20
0.070618678704779
 30
0.0
 10
-0.2017547766602908
 20
0.0720245559912313
 30
0.0
 10
-0.2040444367506883
 20
0.0740549187670616
 30
0.0
 10
-0.2067859983364552
 20
0.0762433544208687
 30
0.0
 10
-0.2100102956887587
 20
0.0785527536307786
 30
0.0
 10
-0.2137238286842995
 20
0.0809526540087892
 30
0.0
 10
-0.2179416483550011
 20
0.0834304648837556
 30
0.0
 10
-0.2226059735370303
 20
0.0861038738686443
 30
0.0
 10
-0.225903875774024
 20
0.0878767063931654
 30
0.0
 10
-0.2276277970657997
 20
0.088803423899067
 30
0.0
  0
SPLINE
  5
88
330
1F
100
AcDbEntity
  8
0
  6
Continuous
 62
     7
370
    25
100
AcDbSpline
210
0.0
220
0.0
230
1.0
 70
     8
 71
     3
 72
    11
 73
     7
 74
     0
 42
0.000000001
 43
0.00000001
 40
0.0
 40
0.0
 40
0.0
 40
0.0
 40
0.2534754346498641
 40
0.5004533151029024
 40
0.7455781350009818
 40
0.9999999999999999
 40
0.9999999999999999
 40
0.9999999999999999
 40
0.9999999999999999
 10
-0.193773630399133
 20
0.0525454110785542
 30
0.0
 10
-0.1938512228519048
 20
0.054138955268703
 30
0.0
 10
-0.1940044187632572
 20
0.0572851949578648
 30
0.0
 10
-0.1952075096207227
 20
0.061838790746731
 30
0.0
 10
-0.1971084276392798
 20
0.0661580250811866
 30
0.0
 10
-0.1989801882359766
 20
0.0686858570270261
 30
0.0
 10
-0.1999334861683638
 20
0.0699732956939388
 30
0.0
  0
SPLINE
  5
89
330
1F
100
AcDbEntity
  8
0
  6
Continuous
 62
     7
370
    25
100
AcDbSpline
210
0.0
220
0.0
230
1.0
 70
     8
 71
     3
 72
    15
 73
    11
 74
     0
 42
0.000000001
 43
0.00000001
 40
0.0
 40
0.0
 40
0.0
 40
0.0
 40
0.1340420464623714
 40
0.2618956736507327
 40
0.3878360446911199
 40
0.5176862058208258
 40
0.6445086536782136
 40
0.7647182630567265
 40
0.8802907821585004
 40
1.0
 40
1.0
 40
1.0
 40
1.0
 10
-0.2260252329632356
 20
0.0231483758221439
 30
0.0
 10
-0.2238596668233754
 20
0.0232462918835868
 30
0.0
 10
-0.2196285138530787
 20
0.0234376034425312
 30
0.0
 10
-0.2135682453806507
 20
0.0251745385875185
 30
0.0
 10
-0.2079726292056173
 20
0.0278981065750223
 30
0.0
 10
-0.2031138188114125
 20
0.0317612993007454
 30
0.0
 10
-0.1989779501637293
 20
0.0362581259150076
 30
0.0
 10
-0.195983080563178
 20
0.041323420150747
 30
0.0
 10
-0.1941062108874003
 20
0.0468085241999772
 30
0.0
 10
-0.193885782411975
 20
0.0506108315299119
 30
0.0
 10
-0.193773630399133
 20
0.0525454110785542
 30
0.0
  0
SPLINE
  5
8A
330
1F
100
AcDbEntity
  8
0
  6
Continuous
 62
     7
370
    25
100
AcDbSpline
210
0.0
220
0.0
230
1.0
 70
     8
 71
     3
 72
    15
 73
    11
 74
     0
 42
0.000000001
 43
0.00000001
 40
0.0
 40
0.0
 40
0.0
 40
0.0
 40
0.1474758177483591
 40
0.2859041715443771
 40
0.4171716482444385
 40
0.540500743586496
 40
0.659237718380238
 40
0.7750060983159542
 40
0.8872285734286361
 40
1.0
 40
1.0
 40
1.0
 40
1.0
 10
-0.2622331656555433
 20
0.0423791450529132
 30
0.0
 10
-0.26082085044294
 20
0.0408538047294986
 30
0.0
 10
-0.258082863856503
 20
0.0378967018759771
 30
0.0
 10
-0.253704205513839
 20
0.0339592489708737
 30
0.0
 10
-0.2492485340064796
 20
0.0306591581757299
 30
0.0
 10
-0.2447603421083145
 20
0.0278989142620165
 30
0.0
 10
-0.2401731925137765
 20
0.0257720997507632
 30
0.0
 10
-0.2355127914970862
 20
0.0242779144715048
 30
0.0
 10
-0.2307886183498414
 20
0.0233176150268358
 30
0.0
 10
-0.2276156086484229
 20
0.0232048805754396
 30
0.0
 10
-0.2260252329632356
 20
0.0231483758221439
 30
0.0
  0
SPLINE
  5
8C
330
1F
100
AcDbEntity
  8
0
  6
Continuous
 62
     7
370
    25
100
AcDbSpline
210
0.0
220
0.0
230
1.0
 70
     8
 71
     3
 72
    15
 73
    11
 74
     0
 42
0.000000001
 43
0.00000001
 40
0.0
 40
0.0
 40
0.0
 40
0.0
 40
0.126742518961846
 40
0.2517239612496067
 40
0.3772186880262423
 40
0.5046935492516285
 40
0.6314582385934864
 40
0.7554010672029519
 40
0.877700533601476
 40
1.0
 40
1.0
 40
1.0
 40
1.0
 10
-0.2248733900145176
 20
0.0007124783862465
 30
0.0
 10
-0.2273996168315156
 20
0.0007833855523574
 30
0.0
 10
-0.2324169687557039
 20
0.0009242146354514
 30
0.0
 10
-0.2398376629806136
 20
0.0022460761471471
 30
0.0
 10
-0.247089145742375
 20
0.0043028900019735
 30
0.0
 10
-0.2541165414785445
 20
0.007139742441839
 30
0.0
 10
-0.2607626924706193
 20
0.0107219362173588
 30
0.0
 10
-0.2668434727992551
 20
0.0150121071878055
 30
0.0
 10
-0.2723800058321648
 20
0.0198685355737969
 30
0.0
 10
-0.2755313110990326
 20
0.0235908863376522
 30
0.0
 10
-0.2771069637324663
 20
0.0254520617195798
 30
0.0
  0
SPLINE
  5
8D
330
1F
100
AcDbEntity
  8
0
  6
Continuous
 62
     7
370
    25
100
AcDbSpline
210
0.0
220
0.0
230
1.0
 70
     8
 71
     3
 72
    23
 73
    19
 74
     0
 42
0.000000001
 43
0.00000001
 40
0.0
 40
0.0
 40
0.0
 40
0.0
 40
0.0645481255642505
 40
0.1271991327555118
 40
0.1885973380874247
 40
0.2486395150940131
 40
0.3095246994640578
 40
0.3700369910533491
 40
0.4318892436070738
 40
0.4957042857252933
 40
0.5595193278435129
 40
0.6213715803972378
 40
0.6823971072916404
 40
0.7435684819321646
 40
0.8054984835712138
 40
0.8686397008205242
 40
0.9330662250811641
 40
1.0
 40
1.0
 40
1.0
 40
1.0
 10
-0.1713377329632355
 20
0.0534969335144516
 30
0.0
 10
-0.1713891282357662
 20
0.0516919944969647
 30
0.0
 10
-0.1714904082347821
 20
0.0481351649888422
 30
0.0
 10
-0.1721945558731981
 20
0.0428969628673404
 30
0.0
 10
-0.1734056256105686
 20
0.0378873516147413
 30
0.0
 10
-0.1750551794646419
 20
0.0330519741360591
 30
0.0
 10
-0.1772826346720561
 20
0.0284834784490994
 30
0.0
 10
-0.1798931916114372
 20
0.0240666035214096
 30
0.0
 10
-0.1830271138782817
 20
0.0198968941793116
 30
0.0
 10
-0.18660506927948
 20
0.0159798255951763
 30
0.0
 10
-0.1905226045636958
 20
0.0124022722080092
 30
0.0
 10
-0.1947016144460887
 20
0.0092577040747106
 30
0.0
 10
-0.1991472452039359
 20
0.0066452514176323
 30
0.0
 10
-0.2038277310198214
 20
0.0044834410431383
 30
0.0
 10
-0.2087537063107169
 20
0.0027642797612546
 30
0.0
 10
-0.2139259412597549
 20
0.0015740989574129
 30
0.0
 10
-0.219327995157728
 20
0.0008617588792568
 30
0.0
 10
-0.2230015528813696
 20
0.0007628677232166
 30
0.0
 10
-0.2248733900145176
 20
0.0007124783862465
 30
0.0
  0
SPLINE
  5
8E
330
1F
100
AcDbEntity
  8
0
  6
Continuous
 62
     7
370
    25
100
AcDbSpline
210
0.0
220
0.0
230
1.0
 70
     8
 71
     3
 72
    11
 73
     7
 74
     0
 42
0.000000001
 43
0.00000001
 40
0.0
 40
0.0
 40
0.0
 40
0.0
 40
0.2488386141270709
 40
0.4952350254576691
 40
0.7433356038750064
 40
1.0
 40
1.0
 40
1.0
 40
1.0
 10
-0.1798513547581074
 20
0.0817421258221439
 30
0.0
 10
-0.1785506028001039
 20
0.0796231195328219
 30
0.0
 10
-0.175961864989874
 20
0.0754059037388878
 30
0.0
 10
-0.1732434173858764
 20
0.0684617303501146
 30
0.0
 10
-0.1716676834685337
 20
0.0610966944617428
 30
0.0
 10
-0.1714489534525624
 20
0.056058678739122
 30
0.0
 10
-0.1713377329632355
 20
0.0534969335144516
 30
0.0
  0
SPLINE
  5
8F
330
1F
100
AcDbEntity
  8
0
  6
Continuous
 62
     7
370
    25
100
AcDbSpline
210
0.0
220
0.0
230
1.0
 70
     8
 71
     3
 72
    15
 73
    11
 74
     0
 42
0.000000001
 43
0.00000001
 40
0.0
 40
0.0
 40
0.0
 40
0.0
 40
0.1589891012267949
 40
0.3071145916055723
 40
0.446213158596214
 40
0.5748760724117276
 40
0.6941521095829561
 40
0.8045811801532378
 40
0.9065933190457626
 40
0.9999999999999999
 40
0.9999999999999999
 40
0.9999999999999999
 40
0.9999999999999999
 10
-0.2127539989888766
 20
0.1073831514631696
 30
0.0
 10
-0.2108101720533702
 20
0.106294229833589
 30
0.0
 10
-0.2070553384777128
 20
0.104190791805582
 30
0.0
 10
-0.2017201408166062
 20
0.1009258129834702
 30
0.0
 10
-0.1968782093186836
 20
0.0976807112496466
 30
0.0
 10
-0.1924885187723502
 20
0.0944901916869596
 30
0.0
 10
-0.1886355324265029
 20
0.0912649868571882
 30
0.0
 10
-0.1852023500942308
 20
0.0881287185019253
 30
0.0
 10
-0.1822746040994968
 20
0.0849866250530714
 30
0.0
 10
-0.1806350379075385
 20
0.0827914026473517
 30
0.0
 10
-0.1798513547581073
 20
0.0817421258221439
 30
0.0
  0
SPLINE
  5
90
330
1F
100
AcDbEntity
  8
0
  6
Continuous
 62
     7
370
    25
100
AcDbSpline
210
0.0
220
0.0
230
1.0
 70
     8
 71
     3
 72
    15
 73
    11
 74
     0
 42
0.000000001
 43
0.00000001
 40
0.0
 40
0.0
 40
0.0
 40
0.0
 40
0.0834251049856352
 40
0.1775598214659705
 40
0.2839823599504467
 40
0.4022167468072145
 40
0.5335684803800579
 40
0.6761209941988204
 40
0.831649372553987
 40
0.9999999999999999
 40
0.9999999999999999
 40
0.9999999999999999
 40
0.9999999999999999
 10
-0.2388457457837484
 20
0.1262132796682978
 30
0.0
 10
-0.2382769248000571
 20
0.1255143807873664
 30
0.0
 10
-0.2370662610277106
 20
0.1240268626051322
 30
0.0
 10
-0.2347942242436555
 20
0.1219623016467351
 30
0.0
 10
-0.2322211883250619
 20
0.1196807122913659
 30
0.0
 10
-0.2291269070584711
 20
0.1173995096500425
 30
0.0
 10
-0.2256446907810383
 20
0.1149972435638771
 30
0.0
 10
-0.2216990276229125
 20
0.1125685197799758
 30
0.0
 10
-0.2174151344106947
 20
0.109928203716524
 30
0.0
 10
-0.2143481839380787
 20
0.1082536011776831
 30
0.0
 10
-0.2127539989888766
 20
0.1073831514631696
 30
0.0
  0
SPLINE
  5
91
330
1F
100
AcDbEntity
  8
0
  6
Continuous
 62
     7
370
    25
100
AcDbSpline
210
0.0
220
0.0
230
1.0
 70
     8
 71
     3
 72
    11
 73
     7
 74
     0
 42
0.000000001
 43
0.00000001
 40
0.0
 40
0.0
 40
0.0
 40
0.0
 40
0.2400399314959815
 40
0.4794031936060935
 40
0.7317567388575636
 40
0.9999999999999999
 40
0.9999999999999999
 40
0.9999999999999999
 40
0.9999999999999999
 10
-0.2450556816811843
 20
0.1427898021041952
 30
0.0
 10
-0.2449763379479455
 20
0.1413460846647923
 30
0.0
 10
-0.2448178741504004
 20
0.1384627196063161
 30
0.0
 10
-0.2435859684924514
 20
0.1342092886177073
 30
0.0
 10
-0.2416241061939023
 20
0.1300623573182239
 30
0.0
 10
-0.2397905208880054
 20
0.1275221497215536
 30
0.0
 10
-0.2388457457837484
 20
0.1262132796682978
 30
0.0
  0
SPLINE
  5
92
330
1F
100
AcDbEntity
  8
0
  6
Continuous
 62
     7
370
    25
100
AcDbSpline
210
0.0
220
0.0
230
1.0
 70
     8
 71
     3
 72
    15
 73
    11
 74
     0
 42
0.000000001
 43
0.00000001
 40
0.0
 40
0.0
 40
0.0
 40
0.0
 40
0.124958492546062
 40
0.2459006286062649
 40
0.3691660295860709
 40
0.4985108411773547
 40
0.6285038663666048
 40
0.7510283288509908
 40
0.8737241742784332
 40
1.0
 40
1.0
 40
1.0
 40
1.0
 10
-0.2213177009119535
 20
0.1673791450529132
 30
0.0
 10
-0.2228990859006504
 20
0.1673023684116484
 30
0.0
 10
-0.2260110277532278
 20
0.1671512828474375
 30
0.0
 10
-0.2304700147770604
 20
0.1656431806806678
 30
0.0
 10
-0.2346093451354852
 20
0.1633282707906726
 30
0.0
 10
-0.2381919865644977
 20
0.1600448005367302
 30
0.0
 10
-0.2412268208517336
 20
0.1562759241918687
 30
0.0
 10
-0.2434420837816118
 20
0.1520619009857287
 30
0.0
 10
-0.2447967968980033
 20
0.1475298978638489
 30
0.0
 10
-0.2449685634724406
 20
0.1443849080303941
 30
0.0
 10
-0.2450556816811843
 20
0.1427898021041952
 30
0.0
  0
SPLINE
  5
93
330
1F
100
AcDbEntity
  8
0
  6
Continuous
 62
     7
370
    25
100
AcDbSpline
210
0.0
220
0.0
230
1.0
 70
     8
 71
     3
 72
    15
 73
    11
 74
     0
 42
0.000000001
 43
0.00000001
 40
0.0
 40
0.0
 40
0.0
 40
0.0
 40
0.1582230975563197
 40
0.3050355053581684
 40
0.4413089638879053
 40
0.5659632271047234
 40
0.6835251144150588
 40
0.7933341296296004
 40
0.8985175121610006
 40
0.9999999999999999
 40
0.9999999999999999
 40
0.9999999999999999
 40
0.9999999999999999
 10
-0.1897672201427228
 20
0.1481483758221439
 30
0.0
 10
-0.1910808275375795
 20
0.1496707434174855
 30
0.0
 10
-0.1936133079511278
 20
0.1526056889213846
 30
0.0
 10
-0.197629842308444
 20
0.1565297651002048
 30
0.0
 10
-0.2016315282780376
 20
0.1598252607389439
 30
0.0
 10
-0.2055635863904116
 20
0.1626075649467514
 30
0.0
 10
-0.2095248913242852
 20
0.1647110754185959
 30
0.0
 10
-0.2134689569051616
 20
0.1662464227000466
 30
0.0
 10
-0.2173998667990867
 20
0.1671965516758122
 30
0.0
 10
-0.2200274407430383
 20
0.1673190115825328
 30
0.0
 10
-0.2213177009119536
 20
0.1673791450529132
 30
0.0
  0
SPLINE
  5
95
330
1F
100
AcDbEntity
  8
0
  6
Continuous
 62
     7
370
    25
100
AcDbSpline
210
0.0
220
0.0
230
1.0
 70
     8
 71
     3
 72
    15
 73
    11
 74
     0
 42
0.000000001
 43
0.00000001
 40
0.0
 40
0.0
 40
0.0
 40
0.0
 40
0.1057142614175177
 40
0.2134116126389975
 40
0.326126730073472
 40
0.4444516715568704
 40
0.5690610798550862
 40
0.7027122044812166
 40
0.8463179465861966
 40
1.0
 40
1.0
 40
1.0
 40
1.0
 10
-0.2213177009119536
 20
0.1898150424888106
 30
0.0
 10
-0.2193754106644081
 20
0.1897361610104261
 30
0.0
 10
-0.2154543948205329
 20
0.1895769183190081
 30
0.0
 10
-0.2095719215313827
 20
0.1883122261329553
 30
0.0
 10
-0.2036981113822794
 20
0.1862312901258503
 30
0.0
 10
-0.1978178720988777
 20
0.1833572734588227
 30
0.0
 10
-0.1919742800000596
 20
0.179638210895952
 30
0.0
 10
-0.1861159330946501
 20
0.1751432609410722
 30
0.0
 10
-0.1801725023596397
 20
0.1699019956189882
 30
0.0
 10
-0.1764613371381121
 20
0.1658949080889894
 30
0.0
 10
-0.1745428611683638
 20
0.163823455950349
 30
0.0
  0
SPLINE
  5
96
330
1F
100
AcDbEntity
  8
0
  6
Continuous
 62
     7
370
    25
100
AcDbSpline
210
0.0
220
0.0
230
1.0
 70
     8
 71
     3
 72
    31
 73
    27
 74
     0
 42
0.000000001
 43
0.00000001
 40
0.0
 40
0.0
 40
0.0
 40
0.0
 40
0.046080683387248
 40
0.0908067996076162
 40
0.1342952705290698
 40
0.1770243856662443
 40
0.2188227336826558
 40
0.2602441163273735
 40
0.3010798671134453
 40
0.3416138942851572
 40
0.3815834185517462
 40
0.4201195913296167
 40
0.4580746185423138
 40
0.4947384876076567
 40
0.5311946228937139
 40
0.5669336984503786
 40
0.6027126507379957
 40
0.6383266061284352
 40
0.6748532488548246
 40
0.71346737078406
 40
0.754441803848381
 40
0.7978153607124989
 40
0.8439894562081107
 40
0.8930715698796481
 40
0.944963346178144
 40
1.0
 40
1.0
 40
1.0
 40
1.0
 10
0.3158417542162517
 20
0.1257625585144516
 30
0.0
 10
0.3157968279677434
 20
0.1226724700511156
 30
0.0
 10
0.315708296102642
 20
0.1165831279833802
 30
0.0
 10
0.3149133449691203
 20
0.1076087782970977
 30
0.0
 10
0.3137578935372283
 20
0.0989006660582067
 30
0.0
 10
0.3119690222631527
 20
0.0905002589122974
 30
0.0
 10
0.3097974141604953
 20
0.0823339576347578
 30
0.0
 10
0.3070142604966937
 20
0.0744887973243966
 30
0.0
 10
0.3038260107698369
 20
0.0668928109434962
 30
0.0
 10
0.3001081623014459
 20
0.0596487055214622
 30
0.0
 10
0.2960266348009555
 20
0.0527856074974375
 30
0.0
 10
0.2916465102867177
 20
0.0463159269175033
 30
0.0
 10
0.2869724606155895
 20
0.0403319825024122
 30
0.0
 10
0.281959915407793
 20
0.0348156530711864
 30
0.0
 10
0.2766736499471288
 20
0.0297752546144782
 30
0.0
 10
0.2710790549066004
 20
0.0251686820896829
 30
0.0
 10
0.265161694137037
 20
0.0210860710291078
 30
0.0
 10
0.2589480710827404
 20
0.0173669918706883
 30
0.0
 10
0.2522569189971202
 20
0.0141226807622409
 30
0.0
 10
0.2449614999834056
 20
0.011377680061982
 30
0.0
 10
0.2370307015561097
 20
0.0091029218211923
 30
0.0
 10
0.228483990347479
 20
0.0072050006929049
 30
0.0
 10
0.219306599080313
 20
0.0056994790754101
 30
0.0
 10
0.2094895300928654
 20
0.0046904510441448
 30
0.0
 10
0.1990478665436242
 20
0.0040080987089079
 30
0.0
 10
0.1918779190264223
 20
0.0039483563259783
 30
0.0
 10
0.1881875074213799
 20
0.0039176065913747
 30
0.0
  0
SPLINE
  5
97
330
1F
100
AcDbEntity
  8
0
  6
Continuous
 62
     7
370
    25
100
AcDbSpline
210
0.0
220
0.0
230
1.0
 70
     8
 71
     3
 72
    23
 73
    19
 74
     0
 42
0.000000001
 43
0.00000001
 40
0.0
 40
0.0
 40
0.0
 40
0.0
 40
0.0615449660163233
 40
0.1216942964020302
 40
0.1811548554526324
 40
0.2398753889119564
 40
0.2987019424504287
 40
0.3576474237092007
 40
0.4176048428493664
 40
0.4784940407282908
 40
0.5404070506371327
 40
0.6023449938728029
 40
0.6650043279232337
 40
0.7285593088233759
 40
0.7936505420268853
 40
0.8605342675902674
 40
0.9292359605619638
 40
1.0
 40
1.0
 40
1.0
 40
1.0
 10
0.2405212413957389
 20
0.2449031835144516
 30
0.0
 10
0.243413722774839
 20
0.2438009902541751
 30
0.0
 10
0.2491330936522589
 20
0.2416215978198233
 30
0.0
 10
0.2572764595499262
 20
0.2375104334388755
 30
0.0
 10
0.264942556904687
 20
0.2328523547424929
 30
0.0
 10
0.2721724958241882
 20
0.227641221693004
 30
0.0
 10
0.2788011262815548
 20
0.221729482515786
 30
0.0
 10
0.2850874046198102
 20
0.21536826211393
 30
0.0
 10
0.2907741706057435
 20
0.2083262378128987
 30
0.0
 10
0.295981906036468
 20
0.2007494529568629
 30
0.0
 10
0.3006773102831263
 20
0.1927271635127098
 30
0.0
 10
0.3047586787016644
 20
0.1842746557488533
 30
0.0
 10
0.3081482496542466
 20
0.1754348551731258
 30
0.0
 10
0.3109620515539926
 20
0.1662323446023383
 30
0.0
 10
0.3131796556640042
 20
0.1566468890443565
 30
0.0
 10
0.314692650785462
 20
0.1466673271828943
 30
0.0
 10
0.3156905786333284
 20
0.1363330993690651
 30
0.0
 10
0.3157908680129416
 20
0.1293206376739481
 30
0.0
 10
0.3158417542162516
 20
0.1257625585144516
 30
0.0
  0
SPLINE
  5
98
330
1F
100
AcDbEntity
  8
0
  6
Continuous
 62
     7
370
    25
100
AcDbSpline
210
0.0
220
0.0
230
1.0
 70
     8
 71
     3
 72
    15
 73
    11
 74
     0
 42
0.000000001
 43
0.00000001
 40
0.0
 40
0.0
 40
0.0
 40
0.0
 40
0.1642892164747609
 40
0.3174059112304896
 40
0.4588436116410186
 40
0.5893665423053093
 40
0.7078313187781718
 40
0.8157700306990033
 40
0.9128799029021255
 40
1.0
 40
1.0
 40
1.0
 40
1.0
 10
0.1611943183188158
 20
0.2539176065913747
 30
0.0
 10
0.1655849603335542
 20
0.2538859944488057
 30
0.0
 10
0.1740676578561213
 20
0.2538249199538793
 30
0.0
 10
0.1863256898166574
 20
0.2534376777295144
 30
0.0
 10
0.1976673871359436
 20
0.2527526444546482
 30
0.0
 10
0.2080554484989477
 20
0.2517548211593188
 30
0.0
 10
0.2175183922123394
 20
0.250529604472081
 30
0.0
 10
0.2260297213633483
 20
0.2489938613046277
 30
0.0
 10
0.2336334458562876
 20
0.247180420562863
 30
0.0
 10
0.2383098344698042
 20
0.2456343169739174
 30
0.0
 10
0.2405212413957389
 20
0.2449031835144516
 30
0.0
  0
SPLINE
  5
9D
330
1F
100
AcDbEntity
  8
0
  6
Continuous
 62
     7
370
    25
100
AcDbSpline
210
0.0
220
0.0
230
1.0
 70
     8
 71
     3
 72
    15
 73
    11
 74
     0
 42
0.000000001
 43
0.00000001
 40
0.0
 40
0.0
 40
0.0
 40
0.0
 40
0.1298621417207353
 40
0.2546535308972863
 40
0.3760145541937104
 40
0.4952552518176054
 40
0.6147977192994578
 40
0.7381055541683311
 40
0.8651963000723567
 40
1.0
 40
1.0
 40
1.0
 40
1.0
 10
0.6617952798572774
 20
0.1898150424888106
 30
0.0
 10
0.6655238412189162
 20
0.1897123459501063
 30
0.0
 10
0.6728353740746607
 20
0.1895109628846074
 30
0.0
 10
0.6835302318794335
 20
0.1878350537903944
 30
0.0
 10
0.6936476945868303
 20
0.1850037347079054
 30
0.0
 10
0.703265862588979
 20
0.1811524848490835
 30
0.0
 10
0.7123501973100381
 20
0.1760347184860897
 30
0.0
 10
0.7208146961897481
 20
0.1695790069844011
 30
0.0
 10
0.7287479449974491
 20
0.1618260650579637
 30
0.0
 10
0.7333465372588223
 20
0.1558710333101616
 30
0.0
 10
0.7357135490880465
 20
0.1528058277452209
 30
0.0
  0
SPLINE
  5
9E
330
1F
100
AcDbEntity
  8
0
  6
Continuous
 62
     7
370
    25
100
AcDbSpline
210
0.0
220
0.0
230
1.0
 70
     8
 71
     3
 72
    23
 73
    19
 74
     0
 42
0.000000001
 43
0.00000001
 40
0.0
 40
0.0
 40
0.0
 40
0.0
 40
0.063774532305632
 40
0.1260788099895058
 40
0.1869040927472073
 40
0.2475739349176193
 40
0.3080033561644465
 40
0.3691318984609777
 40
0.4320332277442043
 40
0.4967907944370905
 40
0.5616108232295643
 40
0.6249138657484614
 40
0.6867263492419237
 40
0.748078833257771
 40
0.8095822911398949
 40
0.8716307425688263
 40
0.9348858208285531
 40
1.0
 40
1.0
 40
1.0
 40
1.0
 10
0.5658417542162517
 20
0.0957645617195798
 30
0.0
 10
0.5659312521723148
 20
0.0989405405459676
 30
0.0
 10
0.5661081848033979
 20
0.1052192793544914
 30
0.0
 10
0.5674262719348455
 20
0.114453472067767
 30
0.0
 10
0.5696427725533585
 20
0.1233476335487128
 30
0.0
 10
0.5727533331009217
 20
0.1318731294932672
 30
0.0
 10
0.5767420441697161
 20
0.140040275932452
 30
0.0
 10
0.5815940503854915
 20
0.1478548491478047
 30
0.0
 10
0.5873097021496939
 20
0.1553383775379501
 30
0.0
 10
0.5938991597937215
 20
0.1623148937392912
 30
0.0
 10
0.6010373576624812
 20
0.1687592233299614
 30
0.0
 10
0.6086736955850076
 20
0.1743598694329944
 30
0.0
 10
0.616618215679353
 20
0.1791967872055676
 30
0.0
 10
0.62499414500238
 20
0.1830291783703067
 30
0.0
 10
0.6336775096319512
 20
0.186129828694911
 30
0.0
 10
0.6427456128996105
 20
0.1882750407020907
 30
0.0
 10
0.6521607256621516
 20
0.1895391350763769
 30
0.0
 10
0.6585529036667672
 20
0.1897221896585974
 30
0.0
 10
0.6617952798572774
 20
0.1898150424888106
 30
0.0
  0
SPLINE
  5
9F
330
1F
100
AcDbEntity
  8
0
  6
Continuous
 62
     7
370
    25
100
AcDbSpline
210
0.0
220
0.0
230
1.0
 70
     8
 71
     3
 72
    23
 73
    19
 74
     0
 42
0.000000001
 43
0.00000001
 40
0.0
 40
0.0
 40
0.0
 40
0.0
 40
0.064619991340768
 40
0.1274334841444694
 40
0.1890041265579392
 40
0.2499300706860469
 40
0.3106684537406716
 40
0.372328961136824
 40
0.4349391099970088
 40
0.4995755441940335
 40
0.5641912077719239
 40
0.6267352169294782
 40
0.6881093335614014
 40
0.749293606536751
 40
0.8103305278109454
 40
0.8719011702244157
 40
0.9350459146845314
 40
1.0
 40
1.0
 40
1.0
 40
1.0
 10
0.6610941580624055
 20
0.0007124783862465
 30
0.0
 10
0.6578678756457956
 20
0.0008000764054716
 30
0.0
 10
0.6515055038680817
 20
0.0009728235780168
 30
0.0
 10
0.6421462840724456
 20
0.0023129881221795
 30
0.0
 10
0.6331396948258263
 20
0.004465175382328
 30
0.0
 10
0.6244772253499846
 20
0.0074580960603111
 30
0.0
 10
0.6162149292475483
 20
0.0114281547487531
 30
0.0
 10
0.6082820651995265
 20
0.0161811010374258
 30
0.0
 10
0.6007197300553037
 20
0.0218411603289004
 30
0.0
 10
0.5936431915578858
 20
0.0283117337826785
 30
0.0
 10
0.5871266201024642
 20
0.0353399471529362
 30
0.0
 10
0.5814079577723078
 20
0.042836057644017
 30
0.0
 10
0.5766398806398264
 20
0.0507676507792075
 30
0.0
 10
0.5726527320178785
 20
0.0590343046284013
 30
0.0
 10
0.5695815645578256
 20
0.0676996560236893
 30
0.0
 10
0.56744059068226
 20
0.0767337394479593
 30
0.0
 10
0.5661019873464985
 20
0.0861258732722341
 30
0.0
 10
0.5659293115832876
 20
0.0925215534933491
 30
0.0
 10
0.5658417542162517
 20
0.0957645617195798
 30
0.0
  0
SPLINE
  5
A0
330
1F
100
AcDbEntity
  8
0
  6
Continuous
 62
     7
370
    25
100
AcDbSpline
210
0.0
220
0.0
230
1.0
 70
     8
 71
     3
 72
    15
 73
    11
 74
     0
 42
0.000000001
 43
0.00000001
 40
0.0
 40
0.0
 40
0.0
 40
0.0
 40
0.1342983790141681
 40
0.2620849753823023
 40
0.3862699121345016
 40
0.5071645966228003
 40
0.6273002357255075
 40
0.7481449416029948
 40
0.8723701771613532
 40
1.0
 40
1.0
 40
1.0
 40
1.0
 10
0.7357135490880465
 20
0.0355181674888106
 30
0.0
 10
0.7331836354718924
 20
0.0326581964918225
 30
0.0
 10
0.7282464772375461
 20
0.0270769271284696
 30
0.0
 10
0.7200006830967268
 20
0.0197853433791304
 30
0.0
 10
0.7112600989608346
 20
0.0137583204119836
 30
0.0
 10
0.7020671474514992
 20
0.008890469290527
 30
0.0
 10
0.6924301300697406
 20
0.0052338938378586
 30
0.0
 10
0.6823704095500082
 20
0.0026348824717301
 30
0.0
 10
0.6718838823453268
 20
0.0009638942451408
 30
0.0
 10
0.6647229998603267
 20
0.0007970355402101
 30
0.0
 10
0.6610941580624055
 20
0.0007124783862465
 30
0.0
  0
CIRCLE
  5
A9
330
1F
100
AcDbEntity
  8
0
  6
Continuous
 62
     7
370
    25
100
AcDbCircle
 10
-3.05
 20
-2.6
 30
0.0
 40
0.0720000000000001
  0
CIRCLE
  5
AA
330
1F
100
AcDbEntity
  8
0
  6
Continuous
 62
     7
370
    25
100
AcDbCircle
 10
3.05
 20
-2.6
 30
0.0
 40
0.0720000000000014
  0
CIRCLE
  5
AB
330
1F
100
AcDbEntity
  8
0
  6
Continuous
 62
     7
370
    25
100
AcDbCircle
 10
3.05
 20
2.6
 30
0.0
 40
0.0719999999999996
  0
CIRCLE
  5
AC
330
1F
100
AcDbEntity
  8
0
  6
Continuous
 62
     7
370
    25
100
AcDbCircle
 10
-3.05
 20
2.6
 30
0.0
 40
0.0720000000000005
  0
SPLINE
  5
B1
330
1F
100
AcDbEntity
  8
0
  6
Continuous
 62
     7
370
    25
100
AcDbSpline
210
0.0
220
0.0
230
1.0
 70
     8
 71
     3
 72
    31
 73
    27
 74
     0
 42
0.000000001
 43
0.00000001
 40
0.0
 40
0.0
 40
0.0
 40
0.0
 40
0.0451516788047786
 40
0.0887272521645416
 40
0.1305341108247535
 40
0.1710707458966335
 40
0.2100958400813106
 40
0.2477692374166783
 40
0.2848493643644394
 40
0.3209855015160369
 40
0.3563873757532809
 40
0.3915492787874606
 40
0.4261913606636695
 40
0.4605110592984611
 40
0.49497144048112
 40
0.5295336250796107
 40
0.5645757480731535
 40
0.6000961892387711
 40
0.6375349450701501
 40
0.6782134162474365
 40
0.7225827429711686
 40
0.7701823039810382
 40
0.8218792822902016
 40
0.8770670125167508
 40
0.936524037635408
 40
1.0
 40
1.0
 40
1.0
 40
1.0
 10
0.4393894304983029
 20
0.0007124783862465
 30
0.0
 10
0.437168250919851
 20
0.000736743182281
 30
0.0
 10
0.432803426271533
 20
0.0007844257653758
 30
0.0
 10
0.4263983373957927
 20
0.0012945548863385
 30
0.0
 10
0.4202591512317995
 20
0.0021379956479172
 30
0.0
 10
0.4144076941947485
 20
0.0033419397467247
 30
0.0
 10
0.4088380943868841
 20
0.0048447304563377
 30
0.0
 10
0.4035277915387288
 20
0.0066306972755103
 30
0.0
 10
0.3985389656100302
 20
0.0088507316866419
 30
0.0
 10
0.3938116796101097
 20
0.0113491286486891
 30
0.0
 10
0.3893829375946271
 20
0.0141752197496902
 30
0.0
 10
0.3852323248750322
 20
0.017272936865764
 30
0.0
 10
0.3813654068364638
 20
0.0206376556559093
 30
0.0
 10
0.3777813305501089
 20
0.0242553240237984
 30
0.0
 10
0.3745304036508758
 20
0.0281708194787795
 30
0.0
 10
0.3715721149590661
 20
0.0323526452129197
 30
0.0
 10
0.368860921733369
 20
0.0367593658270573
 30
0.0
 10
0.3664071509937436
 20
0.0414781631455375
 30
0.0
 10
0.3642991684549569
 20
0.0466618781293048
 30
0.0
 10
0.362438079462114
 20
0.0523973850644924
 30
0.0
 10
0.3609158910062546
 20
0.0587475648365684
 30
0.0
 10
0.3596771432662161
 20
0.0657069882972183
 30
0.0
 10
0.3586806117940879
 20
0.0732423484122538
 30
0.0
 10
0.3579887444931998
 20
0.0813972352189448
 30
0.0
 10
0.3576018994389993
 20
0.0901517846575843
 30
0.0
 10
0.3575402521941967
 20
0.0961982053748751
 30
0.0
 10
0.3575084208829183
 20
0.0993202508221439
 30
0.0
  0
SPLINE
  5
B2
330
1F
100
AcDbEntity
  8
0
  6
Continuous
 62
     7
370
    25
100
AcDbSpline
210
0.0
220
0.0
230
1.0
 70
     8
 71
     3
 72
    31
 73
    27
 74
     0
 42
0.000000001
 43
0.00000001
 40
0.0
 40
0.0
 40
0.0
 40
0.0
 40
0.0622100326824415
 40
0.1206959731983286
 40
0.1755484638831967
 40
0.2261906127214153
 40
0.2737107306295716
 40
0.3173020717741426
 40
0.35783729802162
 40
0.395427837653709
 40
0.4310885268449397
 40
0.4660974733410735
 40
0.5010152197637682
 40
0.5354236135188901
 40
0.5701735381629636
 40
0.6047650703833902
 40
0.6400930345425703
 40
0.6759387007616813
 40
0.7122247901876547
 40
0.7494554524110936
 40
0.7876011171624475
 40
0.826783774390883
 40
0.8678285699487366
 40
0.9101595124056447
 40
0.9539387393934008
 40
1.0
 40
1.0
 40
1.0
 40
1.0
 10
0.5209699593444567
 20
0.0976676065913747
 30
0.0
 10
0.5209384097145835
 20
0.0946456657734851
 30
0.0
 10
0.5208771991169131
 20
0.0887826872114133
 30
0.0
 10
0.5204838174393606
 20
0.080262393531999
 30
0.0
 10
0.5198088451072683
 20
0.0723222331831538
 30
0.0
 10
0.5187843676090307
 20
0.064958003192639
 30
0.0
 10
0.5175796765640629
 20
0.0581753259257615
 30
0.0
 10
0.5160256570679769
 20
0.0519655083571303
 30
0.0
 10
0.5141700686572909
 20
0.0463476830746578
 30
0.0
 10
0.5120768175870428
 20
0.0412232704374565
 30
0.0
 10
0.5096038270495549
 20
0.0365770637090947
 30
0.0
 10
0.5069733255835491
 20
0.0321673625224415
 30
0.0
 10
0.5039358418812254
 20
0.0281035814383559
 30
0.0
 10
0.5007379680054579
 20
0.0241834287823384
 30
0.0
 10
0.4971807068717328
 20
0.0206018911108583
 30
0.0
 10
0.4933307169458778
 20
0.0172767856920692
 30
0.0
 10
0.4892421869574953
 20
0.0141572834225789
 30
0.0
 10
0.4848243871005244
 20
0.0113650491813947
 30
0.0
 10
0.4801418111775927
 20
0.0088495745142975
 30
0.0
 10
0.4751886785330947
 20
0.0066198546484125
 30
0.0
 10
0.4699043215184547
 20
0.0048553848581117
 30
0.0
 10
0.4643569188768665
 20
0.0033331944481793
 30
0.0
 10
0.4585192917824005
 20
0.0021393037954173
 30
0.0
 10
0.4523970679919788
 20
0.0012974061702465
 30
0.0
 10
0.4459923096863126
 20
0.0007813111042611
 30
0.0
 10
0.4416273482812521
 20
0.0007358079004338
 30
0.0
 10
0.439389430498303
 20
0.0007124783862465
 30
0.0
  0
SPLINE
  5
B6
330
1F
100
AcDbEntity
  8
0
  6
Continuous
 62
     7
370
    25
100
AcDbSpline
210
0.0
220
0.0
230
1.0
 70
     8
 71
     3
 72
    15
 73
    11
 74
     0
 42
0.000000001
 43
0.00000001
 40
0.0
 40
0.0
 40
0.0
 40
0.0
 40
0.0696927557420279
 40
0.1540736621798084
 40
0.2545914510459133
 40
0.3714654144290028
 40
0.504754565952048
 40
0.653494295001861
 40
0.8189527408800031
 40
1.0
 40
1.0
 40
1.0
 40
1.0
 10
0.4948281324213799
 20
0.0573531033862465
 30
0.0
 10
0.4951277202833659
 20
0.0583506961476282
 30
0.0
 10
0.4957900358791456
 20
0.060556130105199
 30
0.0
 10
0.4965016324157268
 20
0.0642975407040276
 30
0.0
 10
0.4971426653868232
 20
0.0687592981726682
 30
0.0
 10
0.4976900351114808
 20
0.0739705987919857
 30
0.0
 10
0.4980804038697859
 20
0.0799178239673677
 30
0.0
 10
0.4982908343407305
 20
0.0865991151206653
 30
0.0
 10
0.4985285682848113
 20
0.0939934979897027
 30
0.0
 10
0.4985321765897576
 20
0.0991697665123458
 30
0.0
 10
0.4985340619085593
 20
0.1018743373606055
 30
0.0
  0
SPLINE
  5
B7
330
1F
100
AcDbEntity
  8
0
  6
Continuous
 62
     7
370
    25
100
AcDbSpline
210
0.0
220
0.0
230
1.0
 70
     8
 71
     3
 72
    15
 73
    11
 74
     0
 42
0.000000001
 43
0.00000001
 40
0.0
 40
0.0
 40
0.0
 40
0.0
 40
0.1446324159930491
 40
0.2798369641781404
 40
0.408371311809088
 40
0.5330428696034661
 40
0.6535963008637282
 40
0.7700157379356753
 40
0.8843394719004998
 40
1.0
 40
1.0
 40
1.0
 40
1.0
 10
0.4395897510111235
 20
0.0231483758221439
 30
0.0
 10
0.4429364301338362
 20
0.023259893579152
 30
0.0
 10
0.4494116350133791
 20
0.0234756598052697
 30
0.0
 10
0.4587298471039133
 20
0.0252459125632094
 30
0.0
 10
0.4672478052772577
 20
0.028203461778786
 30
0.0
 10
0.4748800160848816
 20
0.0323325626203932
 30
0.0
 10
0.4815918618103181
 20
0.0373855671080182
 30
0.0
 10
0.4871850345792647
 20
0.0433147677303811
 30
0.0
 10
0.4917998384753213
 20
0.0499325810788973
 30
0.0
 10
0.493814797092716
 20
0.054870029568078
 30
0.0
 10
0.49482813242138
 20
0.0573531033862465
 30
0.0
  0
SPLINE
  5
B8
330
1F
100
AcDbEntity
  8
0
  6
Continuous
 62
     7
370
    25
100
AcDbSpline
210
0.0
220
0.0
230
1.0
 70
     8
 71
     3
 72
    19
 73
    15
 74
     0
 42
0.000000001
 43
0.00000001
 40
0.0
 40
0.0
 40
0.0
 40
0.0
 40
0.0604867187842474
 40
0.1197159334053027
 40
0.1780861642555813
 40
0.2359713213676926
 40
0.2946097683616259
 40
0.3535360182612494
 40
0.4131613089451981
 40
0.4745453087944145
 40
0.5992335172031764
 40
0.7270292124547207
 40
0.859695426472434
 40
1.0
 40
1.0
 40
1.0
 40
1.0
 10
0.3835000074213798
 20
0.0591559880016311
 30
0.0
 10
0.3839829684936243
 20
0.0577972115035191
 30
0.0
 10
0.3849388499949571
 20
0.0551079071400126
 30
0.0
 10
0.3866726702630447
 20
0.0512229781980399
 30
0.0
 10
0.3888175514469361
 20
0.0476247437388686
 30
0.0
 10
0.3911646820092832
 20
0.0441744528300764
 30
0.0
 10
0.3938717825529259
 20
0.0409743109097612
 30
0.0
 10
0.3969046019184959
 20
0.0380297220775661
 30
0.0
 10
0.4001616188481015
 20
0.0352294298459601
 30
0.0
 10
0.4050012633745699
 20
0.0319162304198662
 30
0.0
 10
0.4116197823734881
 20
0.0283651354084455
 30
0.0
 10
0.4203092648967982
 20
0.0253011483820837
 30
0.0
 10
0.429730995318106
 20
0.0234700183799342
 30
0.0
 10
0.4362427609814482
 20
0.0232575715936555
 30
0.0
 10
0.4395897510111236
 20
0.0231483758221439
 30
0.0
  0
SPLINE
  5
B9
330
1F
100
AcDbEntity
  8
0
  6
Continuous
 62
     7
370
    25
100
AcDbSpline
210
0.0
220
0.0
230
1.0
 70
     8
 71
     3
 72
    15
 73
    11
 74
     0
 42
0.000000001
 43
0.00000001
 40
0.0
 40
0.0
 40
0.0
 40
0.0
 40
0.1736165757486489
 40
0.3321203769789026
 40
0.4779362767239443
 40
0.6099318098113856
 40
0.7270315210379766
 40
0.8316714227513092
 40
0.9217154761224311
 40
1.0
 40
1.0
 40
1.0
 40
1.0
 10
0.3799443183188157
 20
0.1018743373606055
 30
0.0
 10
0.3799544543832031
 20
0.0993869981333326
 30
0.0
 10
0.3799738441995896
 20
0.0946288347017933
 30
0.0
 10
0.3801053399806033
 20
0.0877820356477625
 30
0.0
 10
0.3804146323827233
 20
0.0815379847443685
 30
0.0
 10
0.3808013341337438
 20
0.0758930749760667
 30
0.0
 10
0.3812986295701515
 20
0.0708482612910463
 30
0.0
 10
0.3818902981774348
 20
0.0664211643601972
 30
0.0
 10
0.3825516140078277
 20
0.0625615797841719
 30
0.0
 10
0.3831989507196495
 20
0.0602370543764506
 30
0.0
 10
0.3835000074213798
 20
0.0591559880016311
 30
0.0
  0
SPLINE
  5
BD
330
1F
100
AcDbEntity
  8
0
  6
Continuous
 62
     7
370
    25
100
AcDbSpline
210
0.0
220
0.0
230
1.0
 70
     8
 71
     3
 72
    23
 73
    19
 74
     0
 42
0.000000001
 43
0.00000001
 40
0.0
 40
0.0
 40
0.0
 40
0.0
 40
0.0679784896192548
 40
0.133043535243908
 40
0.1965074380533952
 40
0.2586134167685749
 40
0.3197283376065481
 40
0.3808728540495676
 40
0.442635602316205
 40
0.5050793035048784
 40
0.5678805200585764
 40
0.6288138541554874
 40
0.6889100905404397
 40
0.7487650058898468
 40
0.8093857829631171
 40
0.8708843357532251
 40
0.9340374630737027
 40
1.0
 40
1.0
 40
1.0
 40
1.0
 10
-0.1328761945016971
 20
0.1418883597965029
 30
0.0
 10
-0.1328380376929535
 20
0.143575888221392
 30
0.0
 10
-0.1327633594122607
 20
0.1468786204346159
 30
0.0
 10
-0.1321673557282753
 20
0.1517313933134128
 30
0.0
 10
-0.1310822334999883
 20
0.1563419757311737
 30
0.0
 10
-0.1297211676000695
 20
0.1607796088032058
 30
0.0
 10
-0.1278295244254956
 20
0.1649583298059017
 30
0.0
 10
-0.1255691026294277
 20
0.168933863450913
 30
0.0
 10
-0.1229128579920046
 20
0.1727007147368003
 30
0.0
 10
-0.1198526229314217
 20
0.1762009384573741
 30
0.0
 10
-0.1164878625568825
 20
0.1793801760507439
 30
0.0
 10
-0.1128525218615005
 20
0.1821515066201277
 30
0.0
 10
-0.1090283606771558
 20
0.1845162462484443
 30
0.0
 10
-0.1049991878515099
 20
0.1864994720049582
 30
0.0
 10
-0.1007262969255144
 20
0.1879995707617292
 30
0.0
 10
-0.0962395550443207
 20
0.189032241123763
 30
0.0
 10
-0.0915480439815175
 20
0.1897218984666841
 30
0.0
 10
-0.0883408206985529
 20
0.1897835473450065
 30
0.0
 10
-0.0867023162965688
 20
0.1898150424888106
 30
0.0
  0
SPLINE
  5
BE
330
1F
100
AcDbEntity
  8
0
  6
Continuous
 62
     7
370
    25
100
AcDbSpline
210
0.0
220
0.0
230
1.0
 70
     8
 71
     3
 72
    11
 73
     7
 74
     0
 42
0.000000001
 43
0.00000001
 40
0.0
 40
0.0
 40
0.0
 40
0.0
 40
0.2462523706929829
 40
0.492590796476374
 40
0.7405699911180897
 40
1.0
 40
1.0
 40
1.0
 40
1.0
 10
-0.1245128130914407
 20
0.1137433277452209
 30
0.0
 10
-0.1258078559240343
 20
0.1158251573906271
 30
0.0
 10
-0.1283983941535065
 20
0.1199895441954035
 30
0.0
 10
-0.1309137649519425
 20
0.1269402925334099
 30
0.0
 10
-0.1326427670145949
 20
0.1342577966283609
 30
0.0
 10
-0.1327972234552606
 20
0.1393068576530807
 30
0.0
 10
-0.1328761945016971
 20
0.1418883597965029
 30
0.0
  0
SPLINE
  5
BF
330
1F
100
AcDbEntity
  8
0
  6
Continuous
 62
     7
370
    25
100
AcDbSpline
210
0.0
220
0.0
230
1.0
 70
     8
 71
     3
 72
    15
 73
    11
 74
     0
 42
0.000000001
 43
0.00000001
 40
0.0
 40
0.0
 40
0.0
 40
0.0
 40
0.1577616635135485
 40
0.3059502132085402
 40
0.4437754990007247
 40
0.5728243624015381
 40
0.6921541564432436
 40
0.8022957069908478
 40
0.9055643918329946
 40
1.0
 40
1.0
 40
1.0
 40
1.0
 10
-0.0930124124504151
 20
0.088803423899067
 30
0.0
 10
-0.0948728867389445
 20
0.0898419333036583
 30
0.0
 10
-0.0984809401314325
 20
0.0918559344664091
 30
0.0
 10
-0.1035914609125645
 20
0.0949927973420041
 30
0.0
 10
-0.108201986213904
 20
0.0981833169620171
 30
0.0
 10
-0.1124234558255281
 20
0.1012485197655724
 30
0.0
 10
-0.116149241945346
 20
0.1043500157618247
 30
0.0
 10
-0.1193646668242721
 20
0.1074912480094996
 30
0.0
 10
-0.1221963250979538
 20
0.11054553272945
 30
0.0
 10
-0.1237639973644695
 20
0.1127096253447889
 30
0.0
 10
-0.1245128130914407
 20
0.1137433277452208
 30
0.0
  0
SPLINE
  5
C0
330
1F
100
AcDbEntity
  8
0
  6
Continuous
 62
     7
370
    25
100
AcDbSpline
210
0.0
220
0.0
230
1.0
 70
     8
 71
     3
 72
    15
 73
    11
 74
     0
 42
0.000000001
 43
0.00000001
 40
0.0
 40
0.0
 40
0.0
 40
0.0
 40
0.0768750740350456
 40
0.1674616757257259
 40
0.2722700232466394
 40
0.3895508405125224
 40
0.5208013683480553
 40
0.6662632933752256
 40
0.8255449152058609
 40
0.9999999999999999
 40
0.9999999999999999
 40
0.9999999999999999
 40
0.9999999999999999
 10
-0.0653181015529792
 20
0.0699732956939388
 30
0.0
 10
-0.065891129726364
 20
0.070618678704779
 30
0.0
 10
-0.0671393920449061
 20
0.0720245559912314
 30
0.0
 10
-0.0694290521353036
 20
0.0740549187670615
 30
0.0
 10
-0.0721706137210706
 20
0.0762433544208688
 30
0.0
 10
-0.0753949110733741
 20
0.0785527536307785
 30
0.0
 10
-0.0791084440689149
 20
0.0809526540087892
 30
0.0
 10
-0.0833262637396165
 20
0.0834304648837556
 30
0.0
 10
-0.0879905889216457
 20
0.0861038738686443
 30
0.0
 10
-0.0912884911586395
 20
0.0878767063931654
 30
0.0
 10
-0.0930124124504151
 20
0.088803423899067
 30
0.0
  0
SPLINE
  5
C1
330
1F
100
AcDbEntity
  8
0
  6
Continuous
 62
     7
370
    25
100
AcDbSpline
210
0.0
220
0.0
230
1.0
 70
     8
 71
     3
 72
    11
 73
     7
 74
     0
 42
0.000000001
 43
0.00000001
 40
0.0
 40
0.0
 40
0.0
 40
0.0
 40
0.2534754346498639
 40
0.5004533151029028
 40
0.745578135000982
 40
0.9999999999999999
 40
0.9999999999999999
 40
0.9999999999999999
 40
0.9999999999999999
 10
-0.0591582457837483
 20
0.0525454110785542
 30
0.0
 10
-0.0592358382365202
 20
0.054138955268703
 30
0.0
 10
-0.0593890341478726
 20
0.0572851949578649
 30
0.0
 10
-0.0605921250053381
 20
0.061838790746731
 30
0.0
 10
-0.0624930430238952
 20
0.0661580250811865
 30
0.0
 10
-0.064364803620592
 20
0.0686858570270261
 30
0.0
 10
-0.0653181015529792
 20
0.0699732956939388
 30
0.0
  0
SPLINE
  5
C2
330
1F
100
AcDbEntity
  8
0
  6
Continuous
 62
     7
370
    25
100
AcDbSpline
210
0.0
220
0.0
230
1.0
 70
     8
 71
     3
 72
    15
 73
    11
 74
     0
 42
0.000000001
 43
0.00000001
 40
0.0
 40
0.0
 40
0.0
 40
0.0
 40
0.1340420464623701
 40
0.2618956736507315
 40
0.3878360446911188
 40
0.517686205820827
 40
0.6445086536782141
 40
0.7647182630567264
 40
0.8802907821585002
 40
1.0
 40
1.0
 40
1.0
 40
1.0
 10
-0.091409848347851
 20
0.0231483758221439
 30
0.0
 10
-0.0892442822079908
 20
0.0232462918835868
 30
0.0
 10
-0.085013129237694
 20
0.0234376034425312
 30
0.0
 10
-0.0789528607652661
 20
0.0251745385875185
 30
0.0
 10
-0.0733572445902327
 20
0.0278981065750223
 30
0.0
 10
-0.0684984341960279
 20
0.0317612993007453
 30
0.0
 10
-0.0643625655483446
 20
0.0362581259150076
 30
0.0
 10
-0.0613676959477935
 20
0.041323420150747
 30
0.0
 10
-0.0594908262720156
 20
0.0468085241999772
 30
0.0
 10
-0.0592703977965904
 20
0.0506108315299119
 30
0.0
 10
-0.0591582457837483
 20
0.0525454110785542
 30
0.0
  0
SPLINE
  5
C3
330
1F
100
AcDbEntity
  8
0
  6
Continuous
 62
     7
370
    25
100
AcDbSpline
210
0.0
220
0.0
230
1.0
 70
     8
 71
     3
 72
    15
 73
    11
 74
     0
 42
0.000000001
 43
0.00000001
 40
0.0
 40
0.0
 40
0.0
 40
0.0
 40
0.1474758177483591
 40
0.2859041715443771
 40
0.4171716482444372
 40
0.5405007435864961
 40
0.6592377183802381
 40
0.7750060983159544
 40
0.8872285734286346
 40
1.0
 40
1.0
 40
1.0
 40
1.0
 10
-0.1276177810401586
 20
0.0423791450529132
 30
0.0
 10
-0.1262054658275554
 20
0.0408538047294986
 30
0.0
 10
-0.1234674792411184
 20
0.0378967018759771
 30
0.0
 10
-0.1190888208984545
 20
0.0339592489708737
 30
0.0
 10
-0.114633149391095
 20
0.0306591581757299
 30
0.0
 10
-0.1101449574929299
 20
0.0278989142620166
 30
0.0
 10
-0.1055578078983918
 20
0.0257720997507632
 30
0.0
 10
-0.1008974068817016
 20
0.0242779144715048
 30
0.0
 10
-0.0961732337344567
 20
0.0233176150268357
 30
0.0
 10
-0.0930002240330383
 20
0.0232048805754396
 30
0.0
 10
-0.091409848347851
 20
0.0231483758221439
 30
0.0
  0
SPLINE
  5
C5
330
1F
100
AcDbEntity
  8
0
  6
Continuous
 62
     7
370
    25
100
AcDbSpline
210
0.0
220
0.0
230
1.0
 70
     8
 71
     3
 72
    15
 73
    11
 74
     0
 42
0.000000001
 43
0.00000001
 40
0.0
 40
0.0
 40
0.0
 40
0.0
 40
0.126742518961845
 40
0.2517239612496058
 40
0.3772186880262428
 40
0.5046935492516279
 40
0.6314582385934859
 40
0.7554010672029516
 40
0.8777005336014758
 40
0.9999999999999999
 40
0.9999999999999999
 40
0.9999999999999999
 40
0.9999999999999999
 10
-0.0902580053991331
 20
0.0007124783862465
 30
0.0
 10
-0.092784232216131
 20
0.0007833855523574
 30
0.0
 10
-0.0978015841403193
 20
0.0009242146354514
 30
0.0
 10
-0.105222278365229
 20
0.0022460761471471
 30
0.0
 10
-0.1124737611269905
 20
0.0043028900019735
 30
0.0
 10
-0.1195011568631599
 20
0.007139742441839
 30
0.0
 10
-0.1261473078552346
 20
0.0107219362173588
 30
0.0
 10
-0.1322280881838703
 20
0.0150121071878055
 30
0.0
 10
-0.1377646212167801
 20
0.0198685355737969
 30
0.0
 10
-0.1409159264836479
 20
0.0235908863376522
 30
0.0
 10
-0.1424915791170817
 20
0.0254520617195798
 30
0.0
  0
SPLINE
  5
C6
330
1F
100
AcDbEntity
  8
0
  6
Continuous
 62
     7
370
    25
100
AcDbSpline
210
0.0
220
0.0
230
1.0
 70
     8
 71
     3
 72
    23
 73
    19
 74
     0
 42
0.000000001
 43
0.00000001
 40
0.0
 40
0.0
 40
0.0
 40
0.0
 40
0.0645481255642505
 40
0.1271991327555118
 40
0.1885973380874246
 40
0.248639515094013
 40
0.3095246994640573
 40
0.3700369910533487
 40
0.4318892436070738
 40
0.4957042857252928
 40
0.5595193278435123
 40
0.6213715803972378
 40
0.6823971072916397
 40
0.743568481932164
 40
0.8054984835712131
 40
0.8686397008205234
 40
0.9330662250811633
 40
1.0
 40
1.0
 40
1.0
 40
1.0
 10
-0.036722348347851
 20
0.0534969335144516
 30
0.0
 10
-0.0367737436203816
 20
0.0516919944969647
 30
0.0
 10
-0.0368750236193976
 20
0.0481351649888422
 30
0.0
 10
-0.0375791712578135
 20
0.0428969628673404
 30
0.0
 10
-0.0387902409951841
 20
0.0378873516147413
 30
0.0
 10
-0.0404397948492573
 20
0.0330519741360591
 30
0.0
 10
-0.0426672500566714
 20
0.0284834784490993
 30
0.0
 10
-0.0452778069960526
 20
0.0240666035214095
 30
0.0
 10
-0.0484117292628971
 20
0.0198968941793117
 30
0.0
 10
-0.0519896846640954
 20
0.0159798255951763
 30
0.0
 10
-0.0559072199483111
 20
0.0124022722080091
 30
0.0
 10
-0.0600862298307041
 20
0.0092577040747106
 30
0.0
 10
-0.0645318605885513
 20
0.0066452514176322
 30
0.0
 10
-0.0692123464044369
 20
0.0044834410431383
 30
0.0
 10
-0.0741383216953321
 20
0.0027642797612546
 30
0.0
 10
-0.0793105566443703
 20
0.0015740989574129
 30
0.0
 10
-0.0847126105423432
 20
0.0008617588792568
 30
0.0
 10
-0.088386168265985
 20
0.0007628677232166
 30
0.0
 10
-0.0902580053991331
 20
0.0007124783862465
 30
0.0
  0
SPLINE
  5
C7
330
1F
100
AcDbEntity
  8
0
  6
Continuous
 62
     7
370
    25
100
AcDbSpline
210
0.0
220
0.0
230
1.0
 70
     8
 71
     3
 72
    11
 73
     7
 74
     0
 42
0.000000001
 43
0.00000001
 40
0.0
 40
0.0
 40
0.0
 40
0.0
 40
0.248838614127071
 40
0.4952350254576694
 40
0.7433356038750063
 40
1.0
 40
1.0
 40
1.0
 40
1.0
 10
-0.0452359701427227
 20
0.0817421258221439
 30
0.0
 10
-0.0439352181847193
 20
0.0796231195328219
 30
0.0
 10
-0.0413464803744894
 20
0.0754059037388878
 30
0.0
 10
-0.0386280327704917
 20
0.0684617303501146
 30
0.0
 10
-0.0370522988531492
 20
0.0610966944617428
 30
0.0
 10
-0.0368335688371779
 20
0.056058678739122
 30
0.0
 10
-0.036722348347851
 20
0.0534969335144516
 30
0.0
  0
SPLINE
  5
C8
330
1F
100
AcDbEntity
  8
0
  6
Continuous
 62
     7
370
    25
100
AcDbSpline
210
0.0
220
0.0
230
1.0
 70
     8
 71
     3
 72
    15
 73
    11
 74
     0
 42
0.000000001
 43
0.00000001
 40
0.0
 40
0.0
 40
0.0
 40
0.0
 40
0.1589891012267961
 40
0.3071145916055733
 40
0.4462131585962162
 40
0.5748760724117296
 40
0.6941521095829567
 40
0.8045811801532381
 40
0.9065933190457628
 40
1.0
 40
1.0
 40
1.0
 40
1.0
 10
-0.078138614373492
 20
0.1073831514631696
 30
0.0
 10
-0.0761947874379856
 20
0.106294229833589
 30
0.0
 10
-0.0724399538623282
 20
0.104190791805582
 30
0.0
 10
-0.0671047562012215
 20
0.1009258129834702
 30
0.0
 10
-0.0622628247032991
 20
0.0976807112496466
 30
0.0
 10
-0.0578731341569654
 20
0.0944901916869596
 30
0.0
 10
-0.0540201478111183
 20
0.0912649868571882
 30
0.0
 10
-0.0505869654788462
 20
0.0881287185019253
 30
0.0
 10
-0.0476592194841123
 20
0.0849866250530714
 30
0.0
 10
-0.0460196532921538
 20
0.0827914026473517
 30
0.0
 10
-0.0452359701427227
 20
0.0817421258221439
 30
0.0
  0
SPLINE
  5
C9
330
1F
100
AcDbEntity
  8
0
  6
Continuous
 62
     7
370
    25
100
AcDbSpline
210
0.0
220
0.0
230
1.0
 70
     8
 71
     3
 72
    15
 73
    11
 74
     0
 42
0.000000001
 43
0.00000001
 40
0.0
 40
0.0
 40
0.0
 40
0.0
 40
0.0834251049856353
 40
0.1775598214659708
 40
0.2839823599504455
 40
0.402216746807217
 40
0.5335684803800571
 40
0.6761209941988217
 40
0.8316493725539867
 40
1.0
 40
1.0
 40
1.0
 40
1.0
 10
-0.1042303611683638
 20
0.1262132796682978
 30
0.0
 10
-0.1036615401846725
 20
0.1255143807873664
 30
0.0
 10
-0.1024508764123259
 20
0.1240268626051322
 30
0.0
 10
-0.1001788396282708
 20
0.1219623016467352
 30
0.0
 10
-0.0976058037096773
 20
0.1196807122913657
 30
0.0
 10
-0.0945115224430864
 20
0.1173995096500426
 30
0.0
 10
-0.0910293061656537
 20
0.1149972435638769
 30
0.0
 10
-0.087083643007528
 20
0.1125685197799759
 30
0.0
 10
-0.08279974979531
 20
0.1099282037165239
 30
0.0
 10
-0.0797327993226941
 20
0.1082536011776831
 30
0.0
 10
-0.078138614373492
 20
0.1073831514631696
 30
0.0
  0
SPLINE
  5
CA
330
1F
100
AcDbEntity
  8
0
  6
Continuous
 62
     7
370
    25
100
AcDbSpline
210
0.0
220
0.0
230
1.0
 70
     8
 71
     3
 72
    11
 73
     7
 74
     0
 42
0.000000001
 43
0.00000001
 40
0.0
 40
0.0
 40
0.0
 40
0.0
 40
0.2400399314959814
 40
0.4794031936060931
 40
0.7317567388575617
 40
1.0
 40
1.0
 40
1.0
 40
1.0
 10
-0.1104402970657997
 20
0.1427898021041952
 30
0.0
 10
-0.1103609533325609
 20
0.1413460846647924
 30
0.0
 10
-0.1102024895350158
 20
0.1384627196063161
 30
0.0
 10
-0.1089705838770666
 20
0.1342092886177072
 30
0.0
 10
-0.1070087215785178
 20
0.1300623573182239
 30
0.0
 10
-0.1051751362726208
 20
0.1275221497215537
 30
0.0
 10
-0.1042303611683638
 20
0.1262132796682978
 30
0.0
  0
SPLINE
  5
CB
330
1F
100
AcDbEntity
  8
0
  6
Continuous
 62
     7
370
    25
100
AcDbSpline
210
0.0
220
0.0
230
1.0
 70
     8
 71
     3
 72
    15
 73
    11
 74
     0
 42
0.000000001
 43
0.00000001
 40
0.0
 40
0.0
 40
0.0
 40
0.0
 40
0.1249584925460635
 40
0.2459006286062679
 40
0.3691660295860721
 40
0.4985108411773556
 40
0.6285038663666066
 40
0.7510283288509914
 40
0.8737241742784335
 40
1.0
 40
1.0
 40
1.0
 40
1.0
 10
-0.0867023162965688
 20
0.1673791450529132
 30
0.0
 10
-0.0882837012852657
 20
0.1673023684116484
 30
0.0
 10
-0.0913956431378431
 20
0.1671512828474375
 30
0.0
 10
-0.0958546301616757
 20
0.1656431806806677
 30
0.0
 10
-0.0999939605201006
 20
0.1633282707906726
 30
0.0
 10
-0.103576601949113
 20
0.1600448005367302
 30
0.0
 10
-0.1066114362363491
 20
0.1562759241918687
 30
0.0
 10
-0.1088266991662272
 20
0.1520619009857287
 30
0.0
 10
-0.1101814122826186
 20
0.1475298978638489
 30
0.0
 10
-0.1103531788570559
 20
0.1443849080303941
 30
0.0
 10
-0.1104402970657997
 20
0.1427898021041952
 30
0.0
  0
SPLINE
  5
CC
330
1F
100
AcDbEntity
  8
0
  6
Continuous
 62
     7
370
    25
100
AcDbSpline
210
0.0
220
0.0
230
1.0
 70
     8
 71
     3
 72
    15
 73
    11
 74
     0
 42
0.000000001
 43
0.00000001
 40
0.0
 40
0.0
 40
0.0
 40
0.0
 40
0.1582230975563199
 40
0.3050355053581703
 40
0.441308963887906
 40
0.5659632271047258
 40
0.6835251144150615
 40
0.7933341296295999
 40
0.8985175121610023
 40
0.9999999999999999
 40
0.9999999999999999
 40
0.9999999999999999
 40
0.9999999999999999
 10
-0.0551518355273381
 20
0.1481483758221439
 30
0.0
 10
-0.0564654429221948
 20
0.1496707434174855
 30
0.0
 10
-0.0589979233357431
 20
0.1526056889213845
 30
0.0
 10
-0.0630144576930595
 20
0.1565297651002048
 30
0.0
 10
-0.0670161436626529
 20
0.159825260738944
 30
0.0
 10
-0.070948201775027
 20
0.1626075649467514
 30
0.0
 10
-0.0749095067089006
 20
0.1647110754185958
 30
0.0
 10
-0.0788535722897769
 20
0.1662464227000467
 30
0.0
 10
-0.0827844821837019
 20
0.1671965516758121
 30
0.0
 10
-0.0854120561276536
 20
0.1673190115825328
 30
0.0
 10
-0.0867023162965689
 20
0.1673791450529132
 30
0.0
  0
SPLINE
  5
CE
330
1F
100
AcDbEntity
  8
0
  6
Continuous
 62
     7
370
    25
100
AcDbSpline
210
0.0
220
0.0
230
1.0
 70
     8
 71
     3
 72
    15
 73
    11
 74
     0
 42
0.000000001
 43
0.00000001
 40
0.0
 40
0.0
 40
0.0
 40
0.0
 40
0.1057142614175154
 40
0.2134116126389966
 40
0.3261267300734712
 40
0.4444516715568698
 40
0.5690610798550847
 40
0.7027122044812153
 40
0.8463179465861964
 40
1.0
 40
1.0
 40
1.0
 40
1.0
 10
-0.0867023162965688
 20
0.1898150424888106
 30
0.0
 10
-0.0847600260490235
 20
0.189736161010426
 30
0.0
 10
-0.0808390102051482
 20
0.189576918319008
 30
0.0
 10
-0.074956536915998
 20
0.1883122261329553
 30
0.0
 10
-0.0690827267668947
 20
0.1862312901258503
 30
0.0
 10
-0.063202487483493
 20
0.1833572734588226
 30
0.0
 10
-0.057358895384675
 20
0.179638210895952
 30
0.0
 10
-0.0515005484792656
 20
0.1751432609410721
 30
0.0
 10
-0.045557117744255
 20
0.1699019956189883
 30
0.0
 10
-0.0418459525227275
 20
0.1658949080889894
 30
0.0
 10
-0.0399274765529791
 20
0.1638234559503491
 30
0.0
  0
SPLINE
  5
CF
330
1F
100
AcDbEntity
  8
0
  6
Continuous
 62
     7
370
    25
100
AcDbSpline
210
0.0
220
0.0
230
1.0
 70
     8
 71
     3
 72
    15
 73
    11
 74
     0
 42
0.000000001
 43
0.00000001
 40
0.0
 40
0.0
 40
0.0
 40
0.0
 40
0.1289191318119612
 40
0.255237724924907
 40
0.3786785959785509
 40
0.5010878871851331
 40
0.6227136794297778
 40
0.7462407949383837
 40
0.8715890472316704
 40
1.0
 40
1.0
 40
1.0
 40
1.0
 10
-0.4950556816811843
 20
0.0947629591554772
 30
0.0
 10
-0.4949754452273529
 20
0.0978212838621141
 30
0.0
 10
-0.4948165908382164
 20
0.1038762411770779
 30
0.0
 10
-0.4936508401900515
 20
0.1127996026521593
 30
0.0
 10
-0.4916966575840177
 20
0.1214208447282009
 30
0.0
 10
-0.4889301292658343
 20
0.1297012358698929
 30
0.0
 10
-0.4853933299164495
 20
0.1376837670155842
 30
0.0
 10
-0.4810818093490078
 20
0.1453555406574643
 30
0.0
 10
-0.4759539070246858
 20
0.1527118121202337
 30
0.0
 10
-0.4720109104866624
 20
0.1572633892650953
 30
0.0
 10
-0.4700156175786202
 20
0.1595666450529131
 30
0.0
  0
SPLINE
  5
D0
330
1F
100
AcDbEntity
  8
0
  6
Continuous
 62
     7
370
    25
100
AcDbSpline
210
0.0
220
0.0
230
1.0
 70
     8
 71
     3
 72
    23
 73
    19
 74
     0
 42
0.000000001
 43
0.00000001
 40
0.0
 40
0.0
 40
0.0
 40
0.0
 40
0.0687422616054886
 40
0.1346351922242766
 40
0.198324187067147
 40
0.2608250125604206
 40
0.3227135881590242
 40
0.3845545346076187
 40
0.4469128577247558
 40
0.510957632514829
 40
0.5749307010013356
 40
0.6366845377960935
 40
0.697483115294062
 40
0.7571338075238545
 40
0.8169656636752642
 40
0.8768183516571962
 40
0.9376625803840033
 40
1.0
 40
1.0
 40
1.0
 40
1.0
 10
-0.400404239373492
 20
0.0007124783862465
 30
0.0
 10
-0.4038138621955597
 20
0.0007997066875102
 30
0.0
 10
-0.4104917807472634
 20
0.0009705477223228
 30
0.0
 10
-0.4202579223132104
 20
0.0022903536315776
 30
0.0
 10
-0.4295428950942723
 20
0.0044873523865398
 30
0.0
 10
-0.4383449378456586
 20
0.0076207447243969
 30
0.0
 10
-0.4467124269138798
 20
0.0115703549922135
 30
0.0
 10
-0.4545543195531213
 20
0.0164711899620825
 30
0.0
 10
-0.461925742089969
 20
0.0222254867648282
 30
0.0
 10
-0.4687165981196756
 20
0.0288066251255319
 30
0.0
 10
-0.4748593556429671
 20
0.0359501934346543
 30
0.0
 10
-0.4802788562394832
 20
0.0434609104699061
 30
0.0
 10
-0.4848424509644861
 20
0.0512759171439932
 30
0.0
 10
-0.4885823226703513
 20
0.0594103946397618
 30
0.0
 10
-0.4914988807359303
 20
0.0678288754818248
 30
0.0
 10
-0.4935368159265252
 20
0.0765570763718131
 30
0.0
 10
-0.4948470741098044
 20
0.0855584598387184
 30
0.0
 10
-0.4949855861494675
 20
0.0916700979063502
 30
0.0
 10
-0.4950556816811844
 20
0.0947629591554773
 30
0.0
  0
SPLINE
  5
D1
330
1F
100
AcDbEntity
  8
0
  6
Continuous
 62
     7
370
    25
100
AcDbSpline
210
0.0
220
0.0
230
1.0
 70
     8
 71
     3
 72
    23
 73
    19
 74
     0
 42
0.000000001
 43
0.00000001
 40
0.0
 40
0.0
 40
0.0
 40
0.0
 40
0.0624160261588176
 40
0.1233369785373298
 40
0.1832651398530921
 40
0.2431724430697091
 40
0.302898353919745
 40
0.3637735975039101
 40
0.4256053049523824
 40
0.4896590425101843
 40
0.5537845767921165
 40
0.6162215328110731
 40
0.6778544713083422
 40
0.739516897487938
 40
0.802096535576371
 40
0.8658658412779713
 40
0.9315077951965108
 40
1.0
 40
1.0
 40
1.0
 40
1.0
 10
-0.3059531175786202
 20
0.0947629591554773
 30
0.0
 10
-0.3060232131013275
 20
0.0916700978927841
 30
0.0
 10
-0.3061617251231871
 20
0.0855584597983453
 30
0.0
 10
-0.3074719834368346
 20
0.0765570765277398
 30
0.0
 10
-0.3095099181423532
 20
0.0678288749073552
 30
0.0
 10
-0.312426478012285
 20
0.0594103967821711
 30
0.0
 10
-0.3161663429596808
 20
0.0512759091099301
 30
0.0
 10
-0.3207299634977936
 20
0.0434609413035789
 30
0.0
 10
-0.3261493647229158
 20
0.0359500746412138
 30
0.0
 10
-0.3322925073485162
 20
0.028807086194613
 30
0.0
 10
-0.3390819270736153
 20
0.0222237851379375
 30
0.0
 10
-0.3464473662392631
 20
0.0164860515984144
 30
0.0
 10
-0.3542440829357569
 20
0.0115702284292419
 30
0.0
 10
-0.3625757510268059
 20
0.0076104844567591
 30
0.0
 10
-0.371366285800502
 20
0.0044883630059351
 30
0.0
 10
-0.3806346478080068
 20
0.0022955046894783
 30
0.0
 10
-0.390366438544666
 20
0.0009696701340233
 30
0.0
 10
-0.3970112400708223
 20
0.0007994149011007
 30
0.0
 10
-0.400404239373492
 20
0.0007124783862465
 30
0.0
  0
SPLINE
  5
D2
330
1F
100
AcDbEntity
  8
0
  6
Continuous
 62
     7
370
    25
100
AcDbSpline
210
0.0
220
0.0
230
1.0
 70
     8
 71
     3
 72
    15
 73
    11
 74
     0
 42
0.000000001
 43
0.00000001
 40
0.0
 40
0.0
 40
0.0
 40
0.0
 40
0.1281572795931864
 40
0.253834362796735
 40
0.3765056225222089
 40
0.4985336856679096
 40
0.6213677287324635
 40
0.7445647449043579
 40
0.8706337982552831
 40
1.0
 40
1.0
 40
1.0
 40
1.0
 10
-0.3309931816811843
 20
0.1597168854375285
 30
0.0
 10
-0.328994470676545
 20
0.157415886452569
 30
0.0
 10
-0.325035729230972
 20
0.1528584191514747
 30
0.0
 10
-0.3199596064603031
 20
0.1454687325113043
 30
0.0
 10
-0.3155866378776291
 20
0.1378158681833286
 30
0.0
 10
-0.3120821406642938
 20
0.1297982019925238
 30
0.0
 10
-0.3093189246867786
 20
0.1214857254815545
 30
0.0
 10
-0.3073570892399714
 20
0.1128498675416414
 30
0.0
 10
-0.306190165315656
 20
0.1039096998871009
 30
0.0
 10
-0.3060328105341103
 20
0.0978379971673129
 30
0.0
 10
-0.3059531175786202
 20
0.0947629591554772
 30
0.0
  0
SPLINE
  5
D3
330
1F
100
AcDbEntity
  8
0
  6
Continuous
 62
     7
370
    25
100
AcDbSpline
210
0.0
220
0.0
230
1.0
 70
     8
 71
     3
 72
    15
 73
    11
 74
     0
 42
0.000000001
 43
0.00000001
 40
0.0
 40
0.0
 40
0.0
 40
0.0
 40
0.1317514273024049
 40
0.2583323505141586
 40
0.3821339760925452
 40
0.503804391600085
 40
0.6246929865409325
 40
0.7468705897275768
 40
0.8715135042348159
 40
1.0
 40
1.0
 40
1.0
 40
1.0
 10
-0.400404239373492
 20
0.1898150424888106
 30
0.0
 10
-0.3969762913132593
 20
0.1897420502646078
 30
0.0
 10
-0.390254922915422
 20
0.1895989303513464
 30
0.0
 10
-0.3804115024954692
 20
0.1880692899475877
 30
0.0
 10
-0.3710154213571614
 20
0.1857301924914724
 30
0.0
 10
-0.3620306933454813
 20
0.182496509486154
 30
0.0
 10
-0.3535723865274278
 20
0.1781620844471069
 30
0.0
 10
-0.3455172976625731
 20
0.1729899922238618
 30
0.0
 10
-0.3378875113136504
 20
0.1668626641121252
 30
0.0
 10
-0.3333144377952791
 20
0.1621228020853583
 30
0.0
 10
-0.3309931816811843
 20
0.1597168854375285
 30
0.0
  0
SPLINE
  5
D4
330
1F
100
AcDbEntity
  8
0
  6
Continuous
 62
     7
370
    25
100
AcDbSpline
210
0.0
220
0.0
230
1.0
 70
     8
 71
     3
 72
    15
 73
    11
 74
     0
 42
0.000000001
 43
0.00000001
 40
0.0
 40
0.0
 40
0.0
 40
0.0
 40
0.128497521137512
 40
0.2527129855154531
 40
0.3748191325670457
 40
0.4964364263727301
 40
0.6179105567458517
 40
0.7412876173092899
 40
0.868700400744608
 40
1.0
 40
1.0
 40
1.0
 40
1.0
 10
-0.4700156175786202
 20
0.1595666450529131
 30
0.0
 10
-0.4676978610767613
 20
0.1619934264281647
 30
0.0
 10
-0.4631395850874853
 20
0.166766119014793
 30
0.0
 10
-0.4554718188211852
 20
0.1728755850210039
 30
0.0
 10
-0.4474365458847232
 20
0.1781553045824913
 30
0.0
 10
-0.4388847654463292
 20
0.1824036056862545
 30
0.0
 10
-0.4299074184494885
 20
0.1857492140952831
 30
0.0
 10
-0.420463186840354
 20
0.1880753223177735
 30
0.0
 10
-0.4105863643075321
 20
0.189593419101273
 30
0.0
 10
-0.4038321056578478
 20
0.1897404318016617
 30
0.0
 10
-0.400404239373492
 20
0.1898150424888106
 30
0.0
  0
SPLINE
  5
D5
330
1F
100
AcDbEntity
  8
0
  6
Continuous
 62
     7
370
    25
100
AcDbSpline
210
0.0
220
0.0
230
1.0
 70
     8
 71
     3
 72
    15
 73
    11
 74
     0
 42
0.000000001
 43
0.00000001
 40
0.0
 40
0.0
 40
0.0
 40
0.0
 40
0.1577616635135497
 40
0.3059502132085413
 40
0.4437754990007257
 40
0.572824362401539
 40
0.6921541564432431
 40
0.8022957069908471
 40
0.9055643918329939
 40
1.0
 40
1.0
 40
1.0
 40
1.0
 10
-0.2276277970657997
 20
0.088803423899067
 30
0.0
 10
-0.2294882713543291
 20
0.0898419333036583
 30
0.0
 10
-0.233096324746817
 20
0.0918559344664091
 30
0.0
 10
-0.2382068455279492
 20
0.0949927973420042
 30
0.0
 10
-0.2428173708292886
 20
0.0981833169620171
 30
0.0
 10
-0.2470388404409127
 20
0.1012485197655723
 30
0.0
 10
-0.2507646265607306
 20
0.1043500157618247
 30
0.0
 10
-0.2539800514396566
 20
0.1074912480094996
 30
0.0
 10
-0.2568117097133383
 20
0.11054553272945
 30
0.0
 10
-0.2583793819798542
 20
0.1127096253447889
 30
0.0
 10
-0.2591281977068253
 20
0.1137433277452208
 30
0.0
  0
SPLINE
  5
D7
330
1F
100
AcDbEntity
  8
0
  6
Continuous
 62
     7
370
    25
100
AcDbSpline
210
0.0
220
0.0
230
1.0
 70
     8
 71
     3
 72
    15
 73
    11
 74
     0
 42
0.000000001
 43
0.00000001
 40
0.0
 40
0.0
 40
0.0
 40
0.0
 40
0.0843186169585815
 40
0.1792845142139037
 40
0.2865825276465604
 40
0.4051114834342783
 40
0.5355928734189742
 40
0.6781902099934122
 40
0.8329758397604876
 40
1.0
 40
1.0
 40
1.0
 40
1.0
 10
0.2275504881906106
 20
0.2212653630016311
 30
0.0
 10
0.2254539777354914
 20
0.2218451078495823
 30
0.0
 10
0.2209962212868171
 20
0.2230778044613399
 30
0.0
 10
0.213721973856424
 20
0.2244224739271712
 30
0.0
 10
0.2055351774686095
 20
0.225608509571232
 30
0.0
 10
0.1963994845319168
 20
0.2266126552388929
 30
0.0
 10
0.1863253088822266
 20
0.2273331781918912
 30
0.0
 10
0.1753049025975539
 20
0.2278739863781314
 30
0.0
 10
0.1633335022712945
 20
0.2282387458411584
 30
0.0
 10
0.1550347498532185
 20
0.2282636534985283
 30
0.0
 10
0.1507275715239439
 20
0.228276580950349
 30
0.0
  0
SPLINE
  5
D8
330
1F
100
AcDbEntity
  8
0
  6
Continuous
 62
     7
370
    25
100
AcDbSpline
210
0.0
220
0.0
230
1.0
 70
     8
 71
     3
 72
    23
 73
    19
 74
     0
 42
0.000000001
 43
0.00000001
 40
0.0
 40
0.0
 40
0.0
 40
0.0
 40
0.0701511759972784
 40
0.1378126061901917
 40
0.2032262471813943
 40
0.2671740552944737
 40
0.3300240034081789
 40
0.3917942717866854
 40
0.4530843989971402
 40
0.5143339076458769
 40
0.5749999928182689
 40
0.6348654826222127
 40
0.6941163151896411
 40
0.7534416217804383
 40
0.8131258003036117
 40
0.8740796856370745
 40
0.9360070132744065
 40
1.0
 40
1.0
 40
1.0
 40
1.0
 10
0.2934058567803541
 20
0.1258126386426567
 30
0.0
 10
0.2933691933972115
 20
0.1287364586639097
 30
0.0
 10
0.2932971678565016
 20
0.134480328975871
 30
0.0
 10
0.2923918599691833
 20
0.1429082357810662
 30
0.0
 10
0.291068891719228
 20
0.1510139965328676
 30
0.0
 10
0.2891557712878894
 20
0.1587981533466966
 30
0.0
 10
0.2867178513703596
 20
0.1662758927877883
 30
0.0
 10
0.2836753769592041
 20
0.1734058578018048
 30
0.0
 10
0.2801991898686141
 20
0.1802633484355792
 30
0.0
 10
0.2760632372368976
 20
0.186690088845137
 30
0.0
 10
0.2715335519968505
 20
0.1927681680686645
 30
0.0
 10
0.2665065606158335
 20
0.1983363763246645
 30
0.0
 10
0.2610621292923586
 20
0.2034073977730611
 30
0.0
 10
0.2552596400456046
 20
0.2080602058202564
 30
0.0
 10
0.2489355615279119
 20
0.2121076112408772
 30
0.0
 10
0.2422388693286161
 20
0.2157280884610318
 30
0.0
 10
0.235071321386912
 20
0.2188006521280871
 30
0.0
 10
0.2300847002554727
 20
0.2204348566110355
 30
0.0
 10
0.2275504881906106
 20
0.2212653630016311
 30
0.0
  0
SPLINE
  5
D9
330
1F
100
AcDbEntity
  8
0
  6
Continuous
 62
     7
370
    25
100
AcDbSpline
210
0.0
220
0.0
230
1.0
 70
     8
 71
     3
 72
    23
 73
    19
 74
     0
 42
0.000000001
 43
0.00000001
 40
0.0
 40
0.0
 40
0.0
 40
0.0
 40
0.0624145002632778
 40
0.1233382314733137
 40
0.1831245376921927
 40
0.2417829946389429
 40
0.3005788825509773
 40
0.3596800748966255
 40
0.4188816408500468
 40
0.4795306644577834
 40
0.5408505357600385
 40
0.60230339589838
 40
0.6644632119464732
 40
0.7278057226670118
 40
0.792894814781235
 40
0.8596723283028315
 40
0.9284644007334888
 40
0.9999999999999999
 40
0.9999999999999999
 40
0.9999999999999999
 40
0.9999999999999999
 10
0.2333097029342004
 20
0.0359188085144516
 30
0.0
 10
0.2355917287968485
 20
0.0367224912460755
 30
0.0
 10
0.2401012743814181
 20
0.0383106607638319
 30
0.0
 10
0.2465927804674397
 20
0.0412076365629413
 30
0.0
 10
0.252646852228709
 20
0.0446392129736233
 30
0.0
 10
0.2583689968920052
 20
0.0484536611152737
 30
0.0
 10
0.2636780437085093
 20
0.0527855184021972
 30
0.0
 10
0.2686369091590335
 20
0.057540589031052
 30
0.0
 10
0.2732356092561855
 20
0.0627430729647519
 30
0.0
 10
0.2774266312555346
 20
0.0683865130763843
 30
0.0
 10
0.2811772244007689
 20
0.0744357841935581
 30
0.0
 10
0.2844251693585452
 20
0.080831415170135
 30
0.0
 10
0.287271707329361
 20
0.087503330185843
 30
0.0
 10
0.2895058925162302
 20
0.0945539843753913
 30
0.0
 10
0.2912570056714696
 20
0.1019203456908181
 30
0.0
 10
0.2924973405257407
 20
0.1096029323523625
 30
0.0
 10
0.2932698208442995
 20
0.1176003096278235
 30
0.0
 10
0.2933599242684884
 20
0.1230397470754791
 30
0.0
 10
0.2934058567803541
 20
0.1258126386426567
 30
0.0
  0
SPLINE
  5
DA
330
1F
100
AcDbEntity
  8
0
  6
Continuous
 62
     7
370
    25
100
AcDbSpline
210
0.0
220
0.0
230
1.0
 70
     8
 71
     3
 72
    15
 73
    11
 74
     0
 42
0.000000001
 43
0.00000001
 40
0.0
 40
0.0
 40
0.0
 40
0.0
 40
0.1719006646132678
 40
0.3306279320958799
 40
0.4755488358809162
 40
0.6067461903123611
 40
0.7250238034674896
 40
0.829742386958455
 40
0.921322820343975
 40
1.0
 40
1.0
 40
1.0
 40
1.0
 10
0.1618453599854825
 20
0.0295586322324003
 30
0.0
 10
0.1659688150383406
 20
0.0295763534019766
 30
0.0
 10
0.1738997292106852
 20
0.0296104377009786
 30
0.0
 10
0.185303871874186
 20
0.0299095236390692
 30
0.0
 10
0.1957238287649606
 20
0.0303982334607341
 30
0.0
 10
0.2051610794359024
 20
0.0310821675899237
 30
0.0
 10
0.2136102954571403
 20
0.0319870686748051
 30
0.0
 10
0.2210891347344698
 20
0.0329959902996267
 30
0.0
 10
0.2275730817576744
 20
0.0342529510679167
 30
0.0
 10
0.2314966129678154
 20
0.0353923053118174
 30
0.0
 10
0.2333097029342004
 20
0.0359188085144516
 30
0.0
  0
SPLINE
  5
DD
330
1F
100
AcDbEntity
  8
0
  6
Continuous
 62
     7
370
    25
100
AcDbSpline
210
0.0
220
0.0
230
1.0
 70
     8
 71
     3
 72
    19
 73
    15
 74
     0
 42
0.000000001
 43
0.00000001
 40
0.0
 40
0.0
 40
0.0
 40
0.0
 40
0.0856056949735272
 40
0.1689832639222349
 40
0.2509075823297905
 40
0.3337080961143225
 40
0.4160049842563388
 40
0.4976595675743798
 40
0.579893285641965
 40
0.6639023210428562
 40
0.7484662538082592
 40
0.831790886479856
 40
0.915251908831687
 40
1.0
 40
1.0
 40
1.0
 40
1.0
 10
-0.4005043996299023
 20
0.0231483758221439
 30
0.0
 10
-0.3972739447060998
 20
0.0232419672697979
 30
0.0
 10
-0.3908971164221099
 20
0.023426714187683
 30
0.0
 10
-0.381578603791116
 20
0.0252637727396398
 30
0.0
 10
-0.3726561772290713
 20
0.0281283199328121
 30
0.0
 10
-0.3642110781207246
 20
0.0321227634954196
 30
0.0
 10
-0.3563848921611629
 20
0.0371950788361144
 30
0.0
 10
-0.3492885263523768
 20
0.0432262486270788
 30
0.0
 10
-0.3431636255570879
 20
0.0503272380093965
 30
0.0
 10
-0.3379255109207919
 20
0.0582242043537197
 30
0.0
 10
-0.3336721721557926
 20
0.066744515217509
 30
0.0
 10
-0.3305876577421176
 20
0.0757295489537493
 30
0.0
 10
-0.3287306873219874
 20
0.0850711233762917
 30
0.0
 10
-0.3285034852700647
 20
0.091416004143239
 30
0.0
 10
-0.3283890150145177
 20
0.0946127187708619
 30
0.0
  0
SPLINE
  5
DE
330
1F
100
AcDbEntity
  8
0
  6
Continuous
 62
     7
370
    25
100
AcDbSpline
210
0.0
220
0.0
230
1.0
 70
     8
 71
     3
 72
    19
 73
    15
 74
     0
 42
0.000000001
 43
0.00000001
 40
0.0
 40
0.0
 40
0.0
 40
0.0
 40
0.0847327446980155
 40
0.168178653646313
 40
0.2514881976122798
 40
0.3358406713894908
 40
0.4198344941507964
 40
0.5023448759880104
 40
0.5836490197324401
 40
0.6659310052762729
 40
0.7487165252643913
 40
0.8310473361373631
 40
0.914409806794561
 40
0.9999999999999999
 40
0.9999999999999999
 40
0.9999999999999999
 40
0.9999999999999999
 10
-0.4726197842452869
 20
0.0946127187708619
 30
0.0
 10
-0.4725050111284639
 20
0.0914161454022992
 30
0.0
 10
-0.4722772079535418
 20
0.0850715450081718
 30
0.0
 10
-0.4704246910653239
 20
0.0757278933912747
 30
0.0
 10
-0.467325671073726
 20
0.0667577610970795
 30
0.0
 10
-0.4631408653802115
 20
0.0582137335226189
 30
0.0
 10
-0.4578975640458846
 20
0.0503085708055693
 30
0.0
 10
-0.4517199164261474
 20
0.0432606076374405
 30
0.0
 10
-0.4446742235430816
 20
0.0371759068197651
 30
0.0
 10
-0.4368444735291981
 20
0.0321272749941103
 30
0.0
 10
-0.4283905936783607
 20
0.0281158638730329
 30
0.0
 10
-0.4194437135991751
 20
0.0252730798932705
 30
0.0
 10
-0.4101122354530533
 20
0.0234251018648956
 30
0.0
 10
-0.403735040370961
 20
0.0232414251252629
 30
0.0
 10
-0.4005043996299023
 20
0.0231483758221439
 30
0.0
  0
SPLINE
  5
DF
330
1F
100
AcDbEntity
  8
0
  6
Continuous
 62
     7
370
    25
100
AcDbSpline
210
0.0
220
0.0
230
1.0
 70
     8
 71
     3
 72
    23
 73
    19
 74
     0
 42
0.000000001
 43
0.00000001
 40
0.0
 40
0.0
 40
0.0
 40
0.0
 40
0.0638458997347868
 40
0.1260436278408444
 40
0.1871653577195673
 40
0.2473992895212637
 40
0.3083800306041635
 40
0.3697796166640491
 40
0.4325839246869346
 40
0.4976407859952565
 40
0.5624011369620615
 40
0.6255571033330408
 40
0.6873320046201731
 40
0.7483127457030734
 40
0.8097910391226147
 40
0.8717675719729278
 40
0.9348361909503149
 40
1.0
 40
1.0
 40
1.0
 40
1.0
 10
-0.4005043996299023
 20
0.1673791450529132
 30
0.0
 10
-0.4029285147243127
 20
0.1673102456476082
 30
0.0
 10
-0.4077141667720159
 20
0.1671742254640601
 30
0.0
 10
-0.4147584228225888
 20
0.1661396608418988
 30
0.0
 10
-0.4215398623891839
 20
0.164500553408437
 30
0.0
 10
-0.4280713512557176
 20
0.1621716922470175
 30
0.0
 10
-0.4343308635711747
 20
0.159164628039071
 30
0.0
 10
-0.4403243923142546
 20
0.1554711737389762
 30
0.0
 10
-0.4460695665933961
 20
0.1511402482761904
 30
0.0
 10
-0.4514539996906137
 20
0.1461786288754731
 30
0.0
 10
-0.4563955934164939
 20
0.1407587006940772
 30
0.0
 10
-0.4607154488876393
 20
0.1349838179165782
 30
0.0
 10
-0.4643886707712798
 20
0.1289476503253996
 30
0.0
 10
-0.4674486821239893
 20
0.1226439209582594
 30
0.0
 10
-0.469727766987958
 20
0.1160087485366392
 30
0.0
 10
-0.4713829828797415
 20
0.109117274877567
 30
0.0
 10
-0.4724165714842344
 20
0.1019554594145628
 30
0.0
 10
-0.4725513128119341
 20
0.0970868152498827
 30
0.0
 10
-0.4726197842452869
 20
0.0946127187708619
 30
0.0
  0
SPLINE
  5
E0
330
1F
100
AcDbEntity
  8
0
  6
Continuous
 62
     7
370
    25
100
AcDbSpline
210
0.0
220
0.0
230
1.0
 70
     8
 71
     3
 72
    23
 73
    19
 74
     0
 42
0.000000001
 43
0.00000001
 40
0.0
 40
0.0
 40
0.0
 40
0.0
 40
0.065184795986072
 40
0.1282737271139275
 40
0.1902702203927573
 40
0.2517683137756832
 40
0.3127686945781242
 40
0.3747932794097869
 40
0.4379695860627116
 40
0.5030473998633711
 40
0.5681252136640309
 40
0.6309497487122626
 40
0.6923691093867023
 40
0.7529731677502615
 40
0.8136410669177474
 40
0.8743552086918144
 40
0.9365729684654829
 40
1.0
 40
1.0
 40
1.0
 40
1.0
 10
-0.3283890150145176
 20
0.0946127187708619
 30
0.0
 10
-0.3284574628735151
 20
0.0970868300359569
 30
0.0
 10
-0.3285921578104826
 20
0.1019555032973735
 30
0.0
 10
-0.329626083837628
 20
0.1091171071254766
 30
0.0
 10
-0.3312800509564434
 20
0.1160093640275872
 30
0.0
 10
-0.3335637379031611
 20
0.1226416499763518
 30
0.0
 10
-0.3366104531780559
 20
0.1289639717136254
 30
0.0
 10
-0.3403545098264619
 20
0.1349660950748467
 30
0.0
 10
-0.3446567259269598
 20
0.1407787055071578
 30
0.0
 10
-0.3496579488482515
 20
0.146161108420566
 30
0.0
 10
-0.3550367615541044
 20
0.1511421824615085
 30
0.0
 10
-0.3607842642814093
 20
0.1554728531329003
 30
0.0
 10
-0.366768905608776
 20
0.1591483956682904
 30
0.0
 10
-0.373010232941709
 20
0.1621974128520371
 30
0.0
 10
-0.379542559202239
 20
0.1644793657324597
 30
0.0
 10
-0.3863144970008708
 20
0.1661491251255439
 30
0.0
 10
-0.3933286977108469
 20
0.16716985345646
 30
0.0
 10
-0.3980972007937179
 20
0.1673089349894116
 30
0.0
 10
-0.4005043996299023
 20
0.1673791450529132
 30
0.0
  0
SPLINE
  5
E1
330
1F
100
AcDbEntity
  8
0
  6
Continuous
 62
     7
370
    25
100
AcDbSpline
210
0.0
220
0.0
230
1.0
 70
     8
 71
     3
 72
    19
 73
    15
 74
     0
 42
0.000000001
 43
0.00000001
 40
0.0
 40
0.0
 40
0.0
 40
0.0
 40
0.0859205174117674
 40
0.1695934351247446
 40
0.2524755148685395
 40
0.3362444769570508
 40
0.4195045210415714
 40
0.502035906644089
 40
0.5847746476768713
 40
0.6698464747058012
 40
0.754184866388786
 40
0.8366582383293274
 40
0.9180097257088057
 40
1.0
 40
1.0
 40
1.0
 40
1.0
 10
0.6620957606265082
 20
0.1673791450529132
 30
0.0
 10
0.6588161650642184
 20
0.167262456643588
 30
0.0
 10
0.6523427650663687
 20
0.1670321322836699
 30
0.0
 10
0.6428396220619094
 20
0.1652340254847724
 30
0.0
 10
0.6337458067699066
 20
0.1622422687445042
 30
0.0
 10
0.6251068014650091
 20
0.1581507043753355
 30
0.0
 10
0.617059071706252
 20
0.1530057946169744
 30
0.0
 10
0.6098666666470145
 20
0.146782838667558
 30
0.0
 10
0.6034707594073049
 20
0.1396516233707971
 30
0.0
 10
0.5980915976763927
 20
0.1316443297714986
 30
0.0
 10
0.5937065621821301
 20
0.1230601804094538
 30
0.0
 10
0.5906232027580771
 20
0.1140870062593771
 30
0.0
 10
0.5885896850859945
 20
0.1048866507196139
 30
0.0
 10
0.588381933617318
 20
0.0986464588783462
 30
0.0
 10
0.5882776516521491
 20
0.0955141610785542
 30
0.0
  0
SPLINE
  5
E2
330
1F
100
AcDbEntity
  8
0
  6
Continuous
 62
     7
370
    25
100
AcDbSpline
210
0.0
220
0.0
230
1.0
 70
     8
 71
     3
 72
    19
 73
    15
 74
     0
 42
0.000000001
 43
0.00000001
 40
0.0
 40
0.0
 40
0.0
 40
0.0
 40
0.0815893489321834
 40
0.1628588951679348
 40
0.245483689275579
 40
0.3308071391580116
 40
0.416493373776285
 40
0.4998932031606324
 40
0.5830481559950205
 40
0.667157852062157
 40
0.7513119292929151
 40
0.8337847893576151
 40
0.9162564885439788
 40
1.0
 40
1.0
 40
1.0
 40
1.0
 10
0.5882776516521491
 20
0.0955141610785542
 30
0.0
 10
0.5884108583171326
 20
0.0924005819939827
 30
0.0
 10
0.5886767495219546
 20
0.0861856280034468
 30
0.0
 10
0.590587513407525
 20
0.0769727296628495
 30
0.0
 10
0.5937932186527782
 20
0.0679974409441835
 30
0.0
 10
0.5981676517047819
 20
0.0593359414070631
 30
0.0
 10
0.6036452677568321
 20
0.0512942199525136
 30
0.0
 10
0.6099944572248481
 20
0.0440270683409733
 30
0.0
 10
0.6172766201757677
 20
0.0377778120357726
 30
0.0
 10
0.625342870681059
 20
0.0325465567782375
 30
0.0
 10
0.6339577257096553
 20
0.0283206624285638
 30
0.0
 10
0.643017292243431
 20
0.0253802596066371
 30
0.0
 10
0.652351266397466
 20
0.0234818467051961
 30
0.0
 10
0.6586978616726042
 20
0.0232600983596921
 30
0.0
 10
0.6618954401136876
 20
0.0231483758221439
 30
0.0
  0
SPLINE
  5
E3
330
1F
100
AcDbEntity
  8
0
  6
Continuous
 62
     7
370
    25
100
AcDbSpline
210
0.0
220
0.0
230
1.0
 70
     8
 71
     3
 72
    23
 73
    19
 74
     0
 42
0.000000001
 43
0.00000001
 40
0.0
 40
0.0
 40
0.0
 40
0.0
 40
0.06563379967569
 40
0.1291880880571291
 40
0.1912186831121887
 40
0.2519128178811576
 40
0.312507474386551
 40
0.3734944337751985
 40
0.4351515996540493
 40
0.4987414744066498
 40
0.5620952169966305
 40
0.6241865668116559
 40
0.6854757184651947
 40
0.7460968148060528
 40
0.8076116364477858
 40
0.869966580657189
 40
0.9339510189149068
 40
1.0
 40
1.0
 40
1.0
 40
1.0
 10
0.7357135490880465
 20
0.0948631194118875
 30
0.0
 10
0.7356450022043616
 20
0.0973872501624416
 30
0.0
 10
0.7355100802451076
 20
0.1023555382591471
 30
0.0
 10
0.7344793252786325
 20
0.1096503609428635
 30
0.0
 10
0.7328396876777814
 20
0.1166313413728865
 30
0.0
 10
0.7305292469623186
 20
0.1233058191627863
 30
0.0
 10
0.7274941552183505
 20
0.1296368916913037
 30
0.0
 10
0.7238336005121789
 20
0.135670017420612
 30
0.0
 10
0.7194832112454946
 20
0.1413738182341607
 30
0.0
 10
0.7145130186669246
 20
0.1466697518754799
 30
0.0
 10
0.7090726470565343
 20
0.1515002134654246
 30
0.0
 10
0.7033158941542428
 20
0.1558119449448359
 30
0.0
 10
0.6971745550858548
 20
0.1593540001405401
 30
0.0
 10
0.69075190959173
 20
0.1622855195332288
 30
0.0
 10
0.6840368142730119
 20
0.1646183159544861
 30
0.0
 10
0.6769746271431153
 20
0.1661745797950624
 30
0.0
 10
0.6696404137911831
 20
0.1672431741547337
 30
0.0
 10
0.6646371241200176
 20
0.1673333442096841
 30
0.0
 10
0.6620957606265081
 20
0.1673791450529132
 30
0.0
  0
SPLINE
  5
E4
330
1F
100
AcDbEntity
  8
0
  6
Continuous
 62
     7
370
    25
100
AcDbSpline
210
0.0
220
0.0
230
1.0
 70
     8
 71
     3
 72
    19
 73
    15
 74
     0
 42
0.000000001
 43
0.00000001
 40
0.0
 40
0.0
 40
0.0
 40
0.0
 40
0.0848023883688285
 40
0.1686635395998415
 40
0.2525519243727821
 40
0.3382396894642452
 40
0.4231026613931564
 40
0.5055560510576218
 40
0.586175655989052
 40
0.6671357203303605
 40
0.748499180305534
 40
0.8304523987582791
 40
0.9134557062010134
 40
1.0
 40
1.0
 40
1.0
 40
1.0
 10
0.6618954401136876
 20
0.0231483758221439
 30
0.0
 10
0.6651416188824141
 20
0.0232669446739871
 30
0.0
 10
0.6715979464910893
 20
0.023502766360414
 30
0.0
 10
0.6811292827682325
 20
0.0253085710242161
 30
0.0
 10
0.6903789229680807
 20
0.028292056620649
 30
0.0
 10
0.6992208678522487
 20
0.0324277085302194
 30
0.0
 10
0.7074577343628089
 20
0.0375532339514389
 30
0.0
 10
0.7148504399068404
 20
0.0435537404536452
 30
0.0
 10
0.7211015805049452
 20
0.0505325393195024
 30
0.0
 10
0.726401052617676
 20
0.0582022859655743
 30
0.0
 10
0.73055643952472
 20
0.0666102857127793
 30
0.0
 10
0.733583300895939
 20
0.0755627279089159
 30
0.0
 10
0.735372865594247
 20
0.08505992420499
 30
0.0
 10
0.7355984177115727
 20
0.0915502047020343
 30
0.0
 10
0.7357135490880468
 20
0.0948631194118875
 30
0.0
  0
LINE
  5
E5
330
1F
100
AcDbEntity
  8
0
  6
Continuous
 62
     7
370
    25
100
AcDbLine
 10
-0.6585172201
 20
0.0295586322
 30
0.0
 11
-0.6265660983
 21
0.0295586322
 31
0.0
  0
LINE
  5
E6
330
1F
100
AcDbEntity
  8
0
  6
Continuous
 62
     7
370
    25
100
AcDbLine
 10
-0.6585172201
 20
0.1225073502
 30
0.0
 11
-0.6585172201
 21
0.0295586322
 31
0.0
  0
LINE
  5
E7
330
1F
100
AcDbEntity
  8
0
  6
Continuous
 62
     7
370
    25
100
AcDbLine
 10
-0.6436434221
 20
0.1225073502
 30
0.0
 11
-0.6585172201
 21
0.1225073502
 31
0.0
  0
LINE
  5
E8
330
1F
100
AcDbEntity
  8
0
  6
Continuous
 62
     7
370
    25
100
AcDbLine
 10
-0.6585172201
 20
0.1481483758
 30
0.0
 11
-0.6434431016
 21
0.1481483758
 31
0.0
  0
LINE
  5
E9
330
1F
100
AcDbEntity
  8
0
  6
Continuous
 62
     7
370
    25
100
AcDbLine
 10
-0.6585172201
 20
0.228276581
 30
0.0
 11
-0.6585172201
 21
0.1481483758
 31
0.0
  0
LINE
  5
EA
330
1F
100
AcDbEntity
  8
0
  6
Continuous
 62
     7
370
    25
100
AcDbLine
 10
-0.6280685022
 20
0.228276581
 30
0.0
 11
-0.6585172201
 21
0.228276581
 31
0.0
  0
LINE
  5
EB
330
1F
100
AcDbEntity
  8
0
  6
Continuous
 62
     7
370
    25
100
AcDbLine
 10
-0.6133449445
 20
0.0039176066
 30
0.0
 11
-0.6809531176
 21
0.0039176066
 31
0.0
  0
LINE
  5
EC
330
1F
100
AcDbEntity
  8
0
  6
Continuous
 62
     7
370
    25
100
AcDbLine
 10
-0.6809531176
 20
0.2539176066
 30
0.0
 11
-0.6321750727
 21
0.2539176066
 31
0.0
  0
LINE
  5
ED
330
1F
100
AcDbEntity
  8
0
  6
Continuous
 62
     7
370
    25
100
AcDbLine
 10
-0.6809531176
 20
0.0039176066
 30
0.0
 11
-0.6809531176
 21
0.2539176066
 31
0.0
  0
LINE
  5
EE
330
1F
100
AcDbEntity
  8
0
  6
Continuous
 62
     7
370
    25
100
AcDbLine
 10
-0.2771069637
 20
0.0254520617
 30
0.0
 11
-0.2622331657
 21
0.0423791451
 31
0.0
  0
LINE
  5
EF
330
1F
100
AcDbEntity
  8
0
  6
Continuous
 62
     7
370
    25
100
AcDbLine
 10
-0.1745428612
 20
0.163823456
 30
0.0
 11
-0.1897672201
 21
0.1481483758
 31
0.0
  0
LINE
  5
F0
330
1F
100
AcDbEntity
  8
0
  6
Continuous
 62
     7
370
    25
100
AcDbLine
 10
0.1107135491
 20
0.2539176066
 30
0.0
 11
0.1611943183
 21
0.2539176066
 31
0.0
  0
LINE
  5
F1
330
1F
100
AcDbEntity
  8
0
  6
Continuous
 62
     7
370
    25
100
AcDbLine
 10
0.1107135491
 20
0.0039176066
 30
0.0
 11
0.1107135491
 21
0.2539176066
 31
0.0
  0
LINE
  5
F2
330
1F
100
AcDbEntity
  8
0
  6
Continuous
 62
     7
370
    25
100
AcDbLine
 10
0.1881875074
 20
0.0039176066
 30
0.0
 11
0.1107135491
 21
0.0039176066
 31
0.0
  0
LINE
  5
F3
330
1F
100
AcDbEntity
  8
0
  6
Continuous
 62
     7
370
    25
100
AcDbLine
 10
0.7357135491
 20
0.1528058277
 30
0.0
 11
0.7357135491
 21
0.1866099143
 31
0.0
  0
LINE
  5
F4
330
1F
100
AcDbEntity
  8
0
  6
Continuous
 62
     7
370
    25
100
AcDbLine
 10
0.7357135491
 20
0.0039176066
 30
0.0
 11
0.7357135491
 21
0.0355181675
 31
0.0
  0
LINE
  5
F5
330
1F
100
AcDbEntity
  8
0
  6
Continuous
 62
     7
370
    25
100
AcDbLine
 10
0.7581494465
 20
0.0039176066
 30
0.0
 11
0.7357135491
 21
0.0039176066
 31
0.0
  0
LINE
  5
F6
330
1F
100
AcDbEntity
  8
0
  6
Continuous
 62
     7
370
    25
100
AcDbLine
 10
0.7581494465
 20
0.1866099143
 30
0.0
 11
0.7581494465
 21
0.0039176066
 31
0.0
  0
LINE
  5
F7
330
1F
100
AcDbEntity
  8
0
  6
Continuous
 62
     7
370
    25
100
AcDbLine
 10
0.7357135491
 20
0.1866099143
 30
0.0
 11
0.7581494465
 21
0.1866099143
 31
0.0
  0
LINE
  5
F8
330
1F
100
AcDbEntity
  8
0
  6
Continuous
 62
     7
370
    25
100
AcDbLine
 10
-3.325
 20
-2.95
 30
0.0
 11
3.325
 21
-2.95
 31
0.0
  0
LINE
  5
F9
330
1F
100
AcDbEntity
  8
0
  6
Continuous
 62
     7
370
    25
100
AcDbLine
 10
-3.325
 20
2.95
 30
0.0
 11
-3.325
 21
-2.95
 31
0.0
  0
LINE
  5
FA
330
1F
100
AcDbEntity
  8
0
  6
Continuous
 62
     7
370
    25
100
AcDbLine
 10
3.325
 20
2.95
 30
0.0
 11
-3.325
 21
2.95
 31
0.0
  0
LINE
  5
FB
330
1F
100
AcDbEntity
  8
0
  6
Continuous
 62
     7
370
    25
100
AcDbLine
 10
3.325
 20
-2.95
 30
0.0
 11
3.325
 21
2.95
 31
0.0
  0
LINE
  5
FC
330
1F
100
AcDbEntity
  8
0
  6
Continuous
 62
     7
370
    25
100
AcDbLine
 10
0.828662267
 20
0.0039176066
 30
0.0
 11
0.8062263696
 21
0.0039176066
 31
0.0
  0
LINE
  5
FD
330
1F
100
AcDbEntity
  8
0
  6
Continuous
 62
     7
370
    25
100
AcDbLine
 10
0.828662267
 20
0.260327863
 30
0.0
 11
0.828662267
 21
0.0039176066
 31
0.0
  0
LINE
  5
FE
330
1F
100
AcDbEntity
  8
0
  6
Continuous
 62
     7
370
    25
100
AcDbLine
 10
0.8062263696
 20
0.260327863
 30
0.0
 11
0.828662267
 21
0.260327863
 31
0.0
  0
LINE
  5
FF
330
1F
100
AcDbEntity
  8
0
  6
Continuous
 62
     7
370
    25
100
AcDbLine
 10
0.8062263696
 20
0.0039176066
 30
0.0
 11
0.8062263696
 21
0.260327863
 31
0.0
  0
LINE
  5
100
330
1F
100
AcDbEntity
  8
0
  6
Continuous
 62
     7
370
    25
100
AcDbLine
 10
0.5209699593
 20
0.1866099143
 30
0.0
 11
0.5209699593
 21
0.0976676066
 31
0.0
  0
LINE
  5
101
330
1F
100
AcDbEntity
  8
0
  6
Continuous
 62
     7
370
    25
100
AcDbLine
 10
0.4985340619
 20
0.1866099143
 30
0.0
 11
0.5209699593
 21
0.1866099143
 31
0.0
  0
LINE
  5
102
330
1F
100
AcDbEntity
  8
0
  6
Continuous
 62
     7
370
    25
100
AcDbLine
 10
0.4985340619
 20
0.1018743374
 30
0.0
 11
0.4985340619
 21
0.1866099143
 31
0.0
  0
LINE
  5
103
330
1F
100
AcDbEntity
  8
0
  6
Continuous
 62
     7
370
    25
100
AcDbLine
 10
0.3799443183
 20
0.1866099143
 30
0.0
 11
0.3799443183
 21
0.1018743374
 31
0.0
  0
LINE
  5
104
330
1F
100
AcDbEntity
  8
0
  6
Continuous
 62
     7
370
    25
100
AcDbLine
 10
0.3575084209
 20
0.1866099143
 30
0.0
 11
0.3799443183
 21
0.1866099143
 31
0.0
  0
LINE
  5
105
330
1F
100
AcDbEntity
  8
0
  6
Continuous
 62
     7
370
    25
100
AcDbLine
 10
0.3575084209
 20
0.0993202508
 30
0.0
 11
0.3575084209
 21
0.1866099143
 31
0.0
  0
LINE
  5
106
330
1F
100
AcDbEntity
  8
0
  6
Continuous
 62
     7
370
    25
100
AcDbLine
 10
-0.1424915791
 20
0.0254520617
 30
0.0
 11
-0.127617781
 21
0.0423791451
 31
0.0
  0
LINE
  5
107
330
1F
100
AcDbEntity
  8
0
  6
Continuous
 62
     7
370
    25
100
AcDbLine
 10
-0.0399274766
 20
0.163823456
 30
0.0
 11
-0.0551518355
 21
0.1481483758
 31
0.0
  0
LINE
  5
108
330
1F
100
AcDbEntity
  8
0
  6
Continuous
 62
     7
370
    25
100
AcDbLine
 10
0.1507275715
 20
0.228276581
 30
0.0
 11
0.1331494465
 21
0.228276581
 31
0.0
  0
LINE
  5
109
330
1F
100
AcDbEntity
  8
0
  6
Continuous
 62
     7
370
    25
100
AcDbLine
 10
0.1331494465
 20
0.0295586322
 30
0.0
 11
0.16184536
 21
0.0295586322
 31
0.0
  0
LINE
  5
10A
330
1F
100
AcDbEntity
  8
0
  6
Continuous
 62
     7
370
    25
100
AcDbLine
 10
0.1331494465
 20
0.228276581
 30
0.0
 11
0.1331494465
 21
0.0295586322
 31
0.0
  0
MTEXT
  5
10C
330
1F
100
AcDbEntity
  8
0
  6
Continuous
 62
     7
100
AcDbMText
 10
-3.325
 20
-2.9901404091
 30
0.0
 40
0.1903
 41
0.0
 71
     1
 72
     1
  1
SOLIDWORKS Educational Product.
  7
SLDTEXTSTYLE0
 73
     1
 44
1.0
  0
MTEXT
  5
10D
330
1F
100
AcDbEntity
  8
0
  6
Continuous
 62
     7
100
AcDbMText
 10
-3.325
 20
-3.2755904091
 30
0.0
 40
0.1903
 41
0.0
 71
     1
 72
     1
  1
For Instructional Use Only.
  7
SLDTEXTSTYLE0
 73
     1
 44
1.0
  0
ENDSEC
  0
SECTION
  2
OBJECTS
  0
DICTIONARY
  5
C
330
0
100
AcDbDictionary
281
     1
  3
ACAD_GROUP
350
D
  3
ACAD_LAYOUT
350
1A
  3
ACAD_MLINESTYLE
350
17
  3
ACAD_PLOTSETTINGS
350
19
  3
ACAD_PLOTSTYLENAME
350
E
  3
ACAD_SCALELIST
350
47
  0
DICTIONARY
  5
D
102
{ACAD_REACTORS
330
C
102
}
330
C
100
AcDbDictionary
281
     1
  0
DICTIONARY
  5
1A
102
{ACAD_REACTORS
330
C
102
}
330
C
100
AcDbDictionary
281
     1
  3
Layout1
350
1E
  3
Layout2
350
26
  3
Model
350
22
  0
DICTIONARY
  5
17
102
{ACAD_REACTORS
330
C
102
}
330
C
100
AcDbDictionary
281
     1
  3
Standard
350
18
  0
DICTIONARY
  5
19
102
{ACAD_REACTORS
330
C
102
}
330
C
100
AcDbDictionary
281
     1
  0
ACDBDICTIONARYWDFLT
  5
E
102
{ACAD_REACTORS
330
C
102
}
330
C
100
AcDbDictionary
281
     1
  3
Normal
350
F
100
AcDbDictionaryWithDefault
340
F
  0
DICTIONARY
  5
47
102
{ACAD_REACTORS
330
C
102
}
330
C
100
AcDbDictionary
281
     1
  3
A0
350
48
  3
A1
350
49
  3
A2
350
4A
  3
A3
350
4B
  3
A4
350
4C
  3
A5
350
4D
  3
A6
350
4E
  3
A7
350
4F
  3
A8
350
50
  3
A9
350
51
  3
B0
350
52
  3
B1
350
53
  3
B2
350
54
  3
B3
350
55
  3
B4
350
56
  3
B5
350
57
  3
B6
350
58
  3
B7
350
59
  3
B8
350
5A
  3
B9
350
5B
  3
C0
350
5C
  3
C1
350
5D
  3
C2
350
5E
  3
C3
350
5F
  3
C4
350
60
  3
C5
350
61
  3
C6
350
62
  3
C7
350
63
  3
C8
350
64
  3
C9
350
65
  3
D0
350
66
  3
D1
350
67
  3
D2
350
68
  0
LAYOUT
  5
1E
102
{ACAD_REACTORS
330
1A
102
}
330
1A
100
AcDbPlotSettings
  1

  2
none_device
  4

  6

 40
0.0
 41
0.0
 42
0.0
 43
0.0
 44
0.0
 45
0.0
 46
0.0
 47
0.0
 48
0.0
 49
0.0
140
0.0
141
0.0
142
1.0
143
1.0
 70
   688
 72
     0
 73
     0
 74
     5
  7

 75
    16
147
1.0
148
0.0
149
0.0
100
AcDbLayout
  1
Layout1
 70
     1
 71
     1
 10
0.0
 20
0.0
 11
12.0
 21
9.0
 12
0.0
 22
0.0
 32
0.0
 14
1.0000000000E+20
 24
1.0000000000E+20
 34
1.0000000000E+20
 15
-1.0000000000E+20
 25
-1.0000000000E+20
 35
-1.0000000000E+20
146
0.0
 13
0.0
 23
0.0
 33
0.0
 16
1.0
 26
0.0
 36
0.0
 17
0.0
 27
1.0
 37
0.0
 76
     0
330
1B
  0
LAYOUT
  5
26
102
{ACAD_REACTORS
330
1A
102
}
330
1A
100
AcDbPlotSettings
  1

  2
none_device
  4

  6

 40
0.0
 41
0.0
 42
0.0
 43
0.0
 44
0.0
 45
0.0
 46
0.0
 47
0.0
 48
0.0
 49
0.0
140
0.0
141
0.0
142
1.0
143
1.0
 70
   688
 72
     0
 73
     0
 74
     5
  7

 75
    16
147
1.0
148
0.0
149
0.0
100
AcDbLayout
  1
Layout2
 70
     1
 71
     2
 10
0.0
 20
0.0
 11
0.0
 21
0.0
 12
0.0
 22
0.0
 32
0.0
 14
0.0
 24
0.0
 34
0.0
 15
0.0
 25
0.0
 35
0.0
146
0.0
 13
0.0
 23
0.0
 33
0.0
 16
1.0
 26
0.0
 36
0.0
 17
0.0
 27
1.0
 37
0.0
 76
     0
330
23
  0
LAYOUT
  5
22
102
{ACAD_REACTORS
330
1A
102
}
330
1A
100
AcDbPlotSettings
  1

  2
none_device
  4
ANSI_A_(11.00_x_8.50_Inches)
  6

 40
6.35
 41
19.05
 42
6.35000508
 43
19.05000254
 44
279.4
 45
215.9
 46
133.34999746
 47
88.89999873
 48
0.0
 49
0.0
140
0.0
141
0.0
142
1.4262711864
143
1.0
 70
  1696
 72
     0
 73
     0
 74
     0
  7

 75
     0
147
0.5913241897
148
-39.4088153714
149
0.0
100
AcDbLayout
  1
Model
 70
     1
 71
     0
 10
0.0
 20
0.0
 11
12.0
 21
9.0
 12
0.0
 22
0.0
 32
0.0
 14
-3.325
 24
-2.95
 34
0.0
 15
3.325
 25
2.95
 35
0.0
146
0.0
 13
0.0
 23
0.0
 33
0.0
 16
1.0
 26
0.0
 36
0.0
 17
0.0
 27
1.0
 37
0.0
 76
     0
330
1F
331
29
  0
MLINESTYLE
  5
18
102
{ACAD_REACTORS
330
17
102
}
330
17
100
AcDbMlineStyle
  2
Standard
 70
     0
  3

 62
   256
 51
90.0
 52
90.0
 71
     2
 49
0.5
 62
   256
  6
BYLAYER
 49
-0.5
 62
   256
  6
BYLAYER
  0
ACDBPLACEHOLDER
  5
F
102
{ACAD_REACTORS
330
E
102
}
330
E
  0
SCALE
  5
48
102
{ACAD_REACTORS
330
47
102
}
330
47
100
AcDbScale
 70
     0
300
1:1
140
1.0
141
1.0
290
     1
  0
SCALE
  5
49
102
{ACAD_REACTORS
330
47
102
}
330
47
100
AcDbScale
 70
     0
300
1:2
140
1.0
141
2.0
290
     0
  0
SCALE
  5
4A
102
{ACAD_REACTORS
330
47
102
}
330
47
100
AcDbScale
 70
     0
300
1:4
140
1.0
141
4.0
290
     0
  0
SCALE
  5
4B
102
{ACAD_REACTORS
330
47
102
}
330
47
100
AcDbScale
 70
     0
300
1:5
140
1.0
141
5.0
290
     0
  0
SCALE
  5
4C
102
{ACAD_REACTORS
330
47
102
}
330
47
100
AcDbScale
 70
     0
300
1:8
140
1.0
141
8.0
290
     0
  0
SCALE
  5
4D
102
{ACAD_REACTORS
330
47
102
}
330
47
100
AcDbScale
 70
     0
300
1:10
140
1.0
141
10.0
290
     0
  0
SCALE
  5
4E
102
{ACAD_REACTORS
330
47
102
}
330
47
100
AcDbScale
 70
     0
300
1:16
140
1.0
141
16.0
290
     0
  0
SCALE
  5
4F
102
{ACAD_REACTORS
330
47
102
}
330
47
100
AcDbScale
 70
     0
300
1:20
140
1.0
141
20.0
290
     0
  0
SCALE
  5
50
102
{ACAD_REACTORS
330
47
102
}
330
47
100
AcDbScale
 70
     0
300
1:30
140
1.0
141
30.0
290
     0
  0
SCALE
  5
51
102
{ACAD_REACTORS
330
47
102
}
330
47
100
AcDbScale
 70
     0
300
1:40
140
1.0
141
40.0
290
     0
  0
SCALE
  5
52
102
{ACAD_REACTORS
330
47
102
}
330
47
100
AcDbScale
 70
     0
300
1:50
140
1.0
141
50.0
290
     0
  0
SCALE
  5
53
102
{ACAD_REACTORS
330
47
102
}
330
47
100
AcDbScale
 70
     0
300
1:100
140
1.0
141
100.0
290
     0
  0
SCALE
  5
54
102
{ACAD_REACTORS
330
47
102
}
330
47
100
AcDbScale
 70
     0
300
2:1
140
2.0
141
1.0
290
     0
  0
SCALE
  5
55
102
{ACAD_REACTORS
330
47
102
}
330
47
100
AcDbScale
 70
     0
300
4:1
140
4.0
141
1.0
290
     0
  0
SCALE
  5
56
102
{ACAD_REACTORS
330
47
102
}
330
47
100
AcDbScale
 70
     0
300
8:1
140
8.0
141
1.0
290
     0
  0
SCALE
  5
57
102
{ACAD_REACTORS
330
47
102
}
330
47
100
AcDbScale
 70
     0
300
10:1
140
10.0
141
1.0
290
     0
  0
SCALE
  5
58
102
{ACAD_REACTORS
330
47
102
}
330
47
100
AcDbScale
 70
     0
300
100:1
140
100.0
141
1.0
290
     0
  0
SCALE
  5
59
102
{ACAD_REACTORS
330
47
102
}
330
47
100
AcDbScale
 70
     0
300
1/128" = 1'-0"
140
0.0078125
141
12.0
290
     0
  0
SCALE
  5
5A
102
{ACAD_REACTORS
330
47
102
}
330
47
100
AcDbScale
 70
     0
300
1/64" = 1'-0"
140
0.015625
141
12.0
290
     0
  0
SCALE
  5
5B
102
{ACAD_REACTORS
330
47
102
}
330
47
100
AcDbScale
 70
     0
300
1/32" = 1'-0"
140
0.03125
141
12.0
290
     0
  0
SCALE
  5
5C
102
{ACAD_REACTORS
330
47
102
}
330
47
100
AcDbScale
 70
     0
300
1/16" = 1'-0"
140
0.0625
141
12.0
290
     0
  0
SCALE
  5
5D
102
{ACAD_REACTORS
330
47
102
}
330
47
100
AcDbScale
 70
     0
300
3/32" = 1'-0"
140
0.09375
141
12.0
290
     0
  0
SCALE
  5
5E
102
{ACAD_REACTORS
330
47
102
}
330
47
100
AcDbScale
 70
     0
300
1/8" = 1'-0"
140
0.125
141
12.0
290
     0
  0
SCALE
  5
5F
102
{ACAD_REACTORS
330
47
102
}
330
47
100
AcDbScale
 70
     0
300
3/16" = 1'-0"
140
0.1875
141
12.0
290
     0
  0
SCALE
  5
60
102
{ACAD_REACTORS
330
47
102
}
330
47
100
AcDbScale
 70
     0
300
1/4" = 1'-0"
140
0.25
141
12.0
290
     0
  0
SCALE
  5
61
102
{ACAD_REACTORS
330
47
102
}
330
47
100
AcDbScale
 70
     0
300
3/8" = 1'-0"
140
0.375
141
12.0
290
     0
  0
SCALE
  5
62
102
{ACAD_REACTORS
330
47
102
}
330
47
100
AcDbScale
 70
     0
300
1/2" = 1'-0"
140
0.5
141
12.0
290
     0
  0
SCALE
  5
63
102
{ACAD_REACTORS
330
47
102
}
330
47
100
AcDbScale
 70
     0
300
3/4" = 1'-0"
140
0.75
141
12.0
290
     0
  0
SCALE
  5
64
102
{ACAD_REACTORS
330
47
102
}
330
47
100
AcDbScale
 70
     0
300
1" = 1'-0"
140
1.0
141
12.0
290
     0
  0
SCALE
  5
65
102
{ACAD_REACTORS
330
47
102
}
330
47
100
AcDbScale
 70
     0
300
1-1/2" = 1'-0"
140
1.5
141
12.0
290
     0
  0
SCALE
  5
66
102
{ACAD_REACTORS
330
47
102
}
330
47
100
AcDbScale
 70
     0
300
3" = 1'-0"
140
3.0
141
12.0
290
     0
  0
SCALE
  5
67
102
{ACAD_REACTORS
330
47
102
}
330
47
100
AcDbScale
 70
     0
300
6" = 1'-0"
140
6.0
141
12.0
290
     0
  0
SCALE
  5
68
102
{ACAD_REACTORS
330
47
102
}
330
47
100
AcDbScale
 70
     0
300
1'-0" = 1'-0"
140
12.0
141
12.0
290
     0
  0
ENDSEC
  0
EOF
