  0
SECTION
  2
HEADER
  9
$ACADVER
  1
AC1015
  9
$ACADMAINTVER
 70
     6
  9
$DWGCODEPAGE
  3
ANSI_1252
  9
$INSBASE
 10
0.0
 20
0.0
 30
0.0
  9
$EXTMIN
 10
-2.855
 20
-2.38
 30
0.0
  9
$EXTMAX
 10
2.855
 20
2.38
 30
0.0
  9
$LIMMIN
 10
0.0
 20
0.0
  9
$LIMMAX
 10
12.0
 20
9.0
  9
$ORTHOMODE
 70
     0
  9
$REGENMODE
 70
     1
  9
$FILLMODE
 70
     1
  9
$QTEXTMODE
 70
     0
  9
$MIRRTEXT
 70
     1
  9
$LTSCALE
 40
1.0
  9
$ATTMODE
 70
     1
  9
$TEXTSIZE
 40
0.125
  9
$TRACEWID
 40
0.05
  9
$TEXTSTYLE
  7
Standard
  9
$CLAYER
  8
0
  9
$CELTYPE
  6
ByLayer
  9
$CECOLOR
 62
   256
  9
$CELTSCALE
 40
1.0
  9
$DISPSILH
 70
     0
  9
$DIMSCALE
 40
1.0
  9
$DIMASZ
 40
0.13
  9
$DIMEXO
 40
0.05
  9
$DIMDLI
 40
0.38
  9
$DIMRND
 40
0.0
  9
$DIMDLE
 40
0.0
  9
$DIMEXE
 40
0.125
  9
$DIMTP
 40
0.0
  9
$DIMTM
 40
0.0
  9
$DIMTXT
 40
0.125
  9
$DIMCEN
 40
0.09
  9
$DIMTSZ
 40
0.0
  9
$DIMTOL
 70
     0
  9
$DIMLIM
 70
     0
  9
$DIMTIH
 70
     1
  9
$DIMTOH
 70
     1
  9
$DIMSE1
 70
     0
  9
$DIMSE2
 70
     0
  9
$DIMTAD
 70
     0
  9
$DIMZIN
 70
     1
  9
$DIMBLK
  1

  9
$DIMASO
 70
     1
  9
$DIMSHO
 70
     1
  9
$DIMPOST
  1

  9
$DIMAPOST
  1

  9
$DIMALT
 70
     0
  9
$DIMALTD
 70
     2
  9
$DIMALTF
 40
25.4
  9
$DIMLFAC
 40
1.0
  9
$DIMTOFL
 70
     0
  9
$DIMTVP
 40
0.0
  9
$DIMTIX
 70
     0
  9
$DIMSOXD
 70
     0
  9
$DIMSAH
 70
     0
  9
$DIMBLK1
  1

  9
$DIMBLK2
  1

  9
$DIMSTYLE
  2
Standard
  9
$DIMCLRD
 70
     0
  9
$DIMCLRE
 70
     0
  9
$DIMCLRT
 70
     0
  9
$DIMTFAC
 40
1.0
  9
$DIMGAP
 40
0.06
  9
$DIMJUST
 70
     0
  9
$DIMSD1
 70
     0
  9
$DIMSD2
 70
     0
  9
$DIMTOLJ
 70
     1
  9
$DIMTZIN
 70
     1
  9
$DIMALTZ
 70
     0
  9
$DIMALTTZ
 70
     0
  9
$DIMUPT
 70
     0
  9
$DIMDEC
 70
     2
  9
$DIMTDEC
 70
     2
  9
$DIMALTU
 70
     2
  9
$DIMALTTD
 70
     2
  9
$DIMTXSTY
  7
Standard
  9
$DIMAUNIT
 70
     0
  9
$DIMADEC
 70
     2
  9
$DIMALTRND
 40
0.0
  9
$DIMAZIN
 70
     0
  9
$DIMDSEP
 70
    46
  9
$DIMATFIT
 70
     3
  9
$DIMFRAC
 70
     0
  9
$DIMLDRBLK
  1

  9
$DIMLUNIT
 70
     2
  9
$DIMLWD
 70
    -2
  9
$DIMLWE
 70
    -2
  9
$DIMTMOVE
 70
     0
  9
$LUNITS
 70
     2
  9
$LUPREC
 70
     2
  9
$SKETCHINC
 40
0.1
  9
$FILLETRAD
 40
0.5
  9
$AUNITS
 70
     0
  9
$AUPREC
 70
     2
  9
$MENU
  1
.
  9
$ELEVATION
 40
0.0
  9
$PELEVATION
 40
0.0
  9
$THICKNESS
 40
0.0
  9
$LIMCHECK
 70
     0
  9
$CHAMFERA
 40
0.0
  9
$CHAMFERB
 40
0.0
  9
$CHAMFERC
 40
0.0
  9
$CHAMFERD
 40
0.0
  9
$SKPOLY
 70
     0
  9
$TDCREATE
 40
2458403.541129908
  9
$TDUCREATE
 40
2458403.707796574
  9
$TDUPDATE
 40
2458403.541167466
  9
$TDUUPDATE
 40
2458403.707834132
  9
$TDINDWG
 40
0.0000000116
  9
$TDUSRTIMER
 40
0.0000000116
  9
$USRTIMER
 70
     1
  9
$ANGBASE
 50
0.0
  9
$ANGDIR
 70
     0
  9
$PDMODE
 70
     0
  9
$PDSIZE
 40
-1.0
  9
$PLINEWID
 40
0.0
  9
$SPLFRAME
 70
     0
  9
$SPLINETYPE
 70
     6
  9
$SPLINESEGS
 70
     8
  9
$HANDSEED
  5
11D
  9
$SURFTAB1
 70
     6
  9
$SURFTAB2
 70
     6
  9
$SURFTYPE
 70
     6
  9
$SURFU
 70
     6
  9
$SURFV
 70
     6
  9
$UCSBASE
  2

  9
$UCSNAME
  2

  9
$UCSORG
 10
0.0
 20
0.0
 30
0.0
  9
$UCSXDIR
 10
1.0
 20
0.0
 30
0.0
  9
$UCSYDIR
 10
0.0
 20
1.0
 30
0.0
  9
$UCSORTHOREF
  2

  9
$UCSORTHOVIEW
 70
     0
  9
$UCSORGTOP
 10
0.0
 20
0.0
 30
0.0
  9
$UCSORGBOTTOM
 10
0.0
 20
0.0
 30
0.0
  9
$UCSORGLEFT
 10
0.0
 20
0.0
 30
0.0
  9
$UCSORGRIGHT
 10
0.0
 20
0.0
 30
0.0
  9
$UCSORGFRONT
 10
0.0
 20
0.0
 30
0.0
  9
$UCSORGBACK
 10
0.0
 20
0.0
 30
0.0
  9
$PUCSBASE
  2

  9
$PUCSNAME
  2

  9
$PUCSORG
 10
0.0
 20
0.0
 30
0.0
  9
$PUCSXDIR
 10
1.0
 20
0.0
 30
0.0
  9
$PUCSYDIR
 10
0.0
 20
1.0
 30
0.0
  9
$PUCSORTHOREF
  2

  9
$PUCSORTHOVIEW
 70
     0
  9
$PUCSORGTOP
 10
0.0
 20
0.0
 30
0.0
  9
$PUCSORGBOTTOM
 10
0.0
 20
0.0
 30
0.0
  9
$PUCSORGLEFT
 10
0.0
 20
0.0
 30
0.0
  9
$PUCSORGRIGHT
 10
0.0
 20
0.0
 30
0.0
  9
$PUCSORGFRONT
 10
0.0
 20
0.0
 30
0.0
  9
$PUCSORGBACK
 10
0.0
 20
0.0
 30
0.0
  9
$USERI1
 70
     0
  9
$USERI2
 70
     0
  9
$USERI3
 70
     0
  9
$USERI4
 70
     0
  9
$USERI5
 70
     0
  9
$USERR1
 40
0.0
  9
$USERR2
 40
0.0
  9
$USERR3
 40
0.0
  9
$USERR4
 40
0.0
  9
$USERR5
 40
0.0
  9
$WORLDVIEW
 70
     1
  9
$SHADEDGE
 70
     3
  9
$SHADEDIF
 70
    70
  9
$TILEMODE
 70
     1
  9
$MAXACTVP
 70
    64
  9
$PINSBASE
 10
0.0
 20
0.0
 30
0.0
  9
$PLIMCHECK
 70
     0
  9
$PEXTMIN
 10
1.0000000000E+20
 20
1.0000000000E+20
 30
1.0000000000E+20
  9
$PEXTMAX
 10
-1.0000000000E+20
 20
-1.0000000000E+20
 30
-1.0000000000E+20
  9
$PLIMMIN
 10
0.0
 20
0.0
  9
$PLIMMAX
 10
12.0
 20
9.0
  9
$UNITMODE
 70
     0
  9
$VISRETAIN
 70
     1
  9
$PLINEGEN
 70
     0
  9
$PSLTSCALE
 70
     1
  9
$TREEDEPTH
 70
  3020
  9
$CMLSTYLE
  2
Standard
  9
$CMLJUST
 70
     0
  9
$CMLSCALE
 40
1.0
  9
$PROXYGRAPHICS
 70
     1
  9
$MEASUREMENT
 70
     0
  9
$CELWEIGHT
370
    -1
  9
$ENDCAPS
280
     0
  9
$JOINSTYLE
280
     0
  9
$LWDISPLAY
290
     1
  9
$INSUNITS
 70
     1
  9
$HYPERLINKBASE
  1

  9
$STYLESHEET
  1

  9
$XEDIT
290
     1
  9
$CEPSNTYPE
380
     0
  9
$PSTYLEMODE
290
     1
  9
$FINGERPRINTGUID
  2
{DC5691A3-6875-4DE1-99F3-BF4E34C11EB1}
  9
$VERSIONGUID
  2
{FAEB1C32-E019-11D5-929B-00C0DF256EC4}
  9
$EXTNAMES
290
     1
  9
$PSVPSCALE
 40
0.0
  9
$OLESTARTUP
290
     0
  0
ENDSEC
  0
SECTION
  2
CLASSES
  0
CLASS
  1
ACDBDICTIONARYWDFLT
  2
AcDbDictionaryWithDefault
  3
ObjectDBX Classes
 90
        0
280
     0
281
     0
  0
CLASS
  1
VISUALSTYLE
  2
AcDbVisualStyle
  3
ObjectDBX Classes
 90
     4095
280
     0
281
     0
  0
CLASS
  1
MATERIAL
  2
AcDbMaterial
  3
ObjectDBX Classes
 90
     1153
280
     0
281
     0
  0
CLASS
  1
SCALE
  2
AcDbScale
  3
ObjectDBX Classes
 90
     1153
280
     0
281
     0
  0
CLASS
  1
TABLESTYLE
  2
AcDbTableStyle
  3
ObjectDBX Classes
 90
     4095
280
     0
281
     0
  0
CLASS
  1
MLEADERSTYLE
  2
AcDbMLeaderStyle
  3
ACDB_MLEADERSTYLE_CLASS
 90
     4095
280
     0
281
     0
  0
CLASS
  1
SUN
  2
AcDbSun
  3
SCENEOE
 90
     1153
280
     0
281
     0
  0
CLASS
  1
ACDBPLACEHOLDER
  2
AcDbPlaceHolder
  3
ObjectDBX Classes
 90
        0
280
     0
281
     0
  0
CLASS
  1
LAYOUT
  2
AcDbLayout
  3
ObjectDBX Classes
 90
        0
280
     0
281
     0
  0
ENDSEC
  0
SECTION
  2
TABLES
  0
TABLE
  2
VPORT
  5
8
330
0
100
AcDbSymbolTable
 70
     1
  0
VPORT
  5
29
330
8
100
AcDbSymbolTableRecord
100
AcDbViewportTableRecord
  2
*Active
 70
     0
 10
0.0
 20
0.0
 11
1.0
 21
1.0
 12
0.0
 22
0.0
 13
0.0
 23
0.0
 14
0.5
 24
0.5
 15
0.5
 25
0.5
 16
0.0
 26
0.0
 36
1.0
 17
0.0
 27
0.0
 37
0.0
 40
4.8552
 41
1.1995798319
 42
50.0
 43
0.0
 44
0.0
 50
0.0
 51
0.0
 71
     0
 72
   100
 73
     1
 74
     3
 75
     0
 76
     0
 77
     0
 78
     0
281
     0
 65
     1
110
0.0
120
0.0
130
0.0
111
1.0
121
0.0
131
0.0
112
0.0
122
1.0
132
0.0
 79
     0
146
0.0
  0
ENDTAB
  0
TABLE
  2
LTYPE
  5
5
330
0
100
AcDbSymbolTable
 70
     6
  0
LTYPE
  5
14
330
5
100
AcDbSymbolTableRecord
100
AcDbLinetypeTableRecord
  2
ByBlock
 70
     0
  3

 72
    65
 73
     0
 40
0.0
  0
LTYPE
  5
15
330
5
100
AcDbSymbolTableRecord
100
AcDbLinetypeTableRecord
  2
ByLayer
 70
     0
  3

 72
    65
 73
     0
 40
0.0
  0
LTYPE
  5
16
330
5
100
AcDbSymbolTableRecord
100
AcDbLinetypeTableRecord
  2
Continuous
 70
     0
  3
Solid line
 72
    65
 73
     0
 40
0.0
  0
LTYPE
  5
6E
330
5
100
AcDbSymbolTableRecord
100
AcDbLinetypeTableRecord
  2
HIDDEN
 70
     0
  3
Hidden __ __ __ __ __ __ __ __ __ __ __ __ __ __
 72
    65
 73
     2
 40
0.075
 49
0.05
 74
     0
 49
-0.025
 74
     0
  0
LTYPE
  5
6F
330
5
100
AcDbSymbolTableRecord
100
AcDbLinetypeTableRecord
  2
PHANTOM
 70
     0
  3
Phantom ______  __  __  ______  __  __  ______
 72
    65
 73
     6
 40
0.5
 49
0.25
 74
     0
 49
-0.05
 74
     0
 49
0.05
 74
     0
 49
-0.05
 74
     0
 49
0.05
 74
     0
 49
-0.05
 74
     0
  0
LTYPE
  5
70
330
5
100
AcDbSymbolTableRecord
100
AcDbLinetypeTableRecord
  2
CENTER
 70
     0
  3
Center ____ _ ____ _ ____ _ ____ _ ____ _ ____
 72
    65
 73
     4
 40
0.4
 49
0.25
 74
     0
 49
-0.05
 74
     0
 49
0.05
 74
     0
 49
-0.05
 74
     0
  0
LTYPE
  5
71
330
5
100
AcDbSymbolTableRecord
100
AcDbLinetypeTableRecord
  2
CENTERX2
 70
     0
  3
Center (2x) ________  __  ________  __  _____
 72
    65
 73
     4
 40
0.8
 49
0.5
 74
     0
 49
-0.1
 74
     0
 49
0.1
 74
     0
 49
-0.1
 74
     0
  0
LTYPE
  5
72
330
5
100
AcDbSymbolTableRecord
100
AcDbLinetypeTableRecord
  2
DOT2
 70
     0
  3
Dot (.5x) ........................................
 72
    65
 73
     2
 40
0.025
 49
0.0
 74
     0
 49
-0.025
 74
     0
  0
ENDTAB
  0
TABLE
  2
LAYER
  5
2
330
0
100
AcDbSymbolTable
 70
     1
  0
LAYER
  5
10
330
2
100
AcDbSymbolTableRecord
100
AcDbLayerTableRecord
  2
0
 70
     0
 62
     7
  6
Continuous
370
    -3
390
F
  0
ENDTAB
  0
TABLE
  2
STYLE
  5
3
330
0
100
AcDbSymbolTable
 70
     2
  0
STYLE
  5
11
330
3
100
AcDbSymbolTableRecord
100
AcDbTextStyleTableRecord
  2
Standard
 70
     0
 40
0.0
 41
1.0
 50
0.0
 71
     0
 42
0.125
  3
txt
  4

  0
STYLE
  5
11A
330
3
100
AcDbSymbolTableRecord
100
AcDbTextStyleTableRecord
  2
SLDTEXTSTYLE0
 70
     0
 40
0.0
 41
0.7
 50
0.0
 71
     0
 42
0.125
  3
TXT
  4

  0
ENDTAB
  0
TABLE
  2
VIEW
  5
6
330
0
100
AcDbSymbolTable
 70
     0
  0
ENDTAB
  0
TABLE
  2
UCS
  5
7
330
0
100
AcDbSymbolTable
 70
     0
  0
ENDTAB
  0
TABLE
  2
APPID
  5
9
330
0
100
AcDbSymbolTable
 70
     1
  0
APPID
  5
12
330
9
100
AcDbSymbolTableRecord
100
AcDbRegAppTableRecord
  2
ACAD
 70
     0
  0
ENDTAB
  0
TABLE
  2
DIMSTYLE
  5
A
330
0
100
AcDbSymbolTable
 70
     1
100
AcDbDimStyleTable
  0
DIMSTYLE
105
27
330
A
100
AcDbSymbolTableRecord
100
AcDbDimStyleTableRecord
  2
Standard
 70
     0
178
     0
340
11
  0
ENDTAB
  0
TABLE
  2
BLOCK_RECORD
  5
1
330
0
100
AcDbSymbolTable
 70
     1
  0
BLOCK_RECORD
  5
1F
330
1
100
AcDbSymbolTableRecord
100
AcDbBlockTableRecord
  2
*Model_Space
340
22
  0
BLOCK_RECORD
  5
1B
330
1
100
AcDbSymbolTableRecord
100
AcDbBlockTableRecord
  2
*Paper_Space
340
1E
  0
BLOCK_RECORD
  5
23
330
1
100
AcDbSymbolTableRecord
100
AcDbBlockTableRecord
  2
*Paper_Space0
340
26
  0
ENDTAB
  0
ENDSEC
  0
SECTION
  2
BLOCKS
  0
BLOCK
  5
20
330
1F
100
AcDbEntity
  8
0
100
AcDbBlockBegin
  2
*Model_Space
 70
     0
 10
0.0
 20
0.0
 30
0.0
  3
*Model_Space
  1

  0
ENDBLK
  5
21
330
1F
100
AcDbEntity
  8
0
100
AcDbBlockEnd
  0
BLOCK
  5
1C
330
1B
100
AcDbEntity
 67
     1
  8
0
100
AcDbBlockBegin
  2
*Paper_Space
 70
     0
 10
0.0
 20
0.0
 30
0.0
  3
*Paper_Space
  1

  0
ENDBLK
  5
1D
330
1B
100
AcDbEntity
 67
     1
  8
0
100
AcDbBlockEnd
  0
BLOCK
  5
24
330
23
100
AcDbEntity
  8
0
100
AcDbBlockBegin
  2
*Paper_Space0
 70
     0
 10
0.0
 20
0.0
 30
0.0
  3
*Paper_Space0
  1

  0
ENDBLK
  5
25
330
23
100
AcDbEntity
  8
0
100
AcDbBlockEnd
  0
ENDSEC
  0
SECTION
  2
ENTITIES
  0
SPLINE
  5
73
330
1F
100
AcDbEntity
  8
0
  6
Continuous
 62
     7
370
    25
100
AcDbSpline
210
0.0
220
0.0
230
1.0
 70
     8
 71
     3
 72
    19
 73
    15
 74
     0
 42
0.000000001
 43
0.00000001
 40
0.0
 40
0.0
 40
0.0
 40
0.0
 40
0.0848023883688285
 40
0.1686635395998416
 40
0.2525519243727823
 40
0.3382396894642454
 40
0.4231026613931557
 40
0.5055560510576229
 40
0.5861756559890523
 40
0.667135720330361
 40
0.748499180305534
 40
0.830452398758279
 40
0.9134557062010135
 40
1.0
 40
1.0
 40
1.0
 40
1.0
 10
0.1080294817585905
 20
0.0149337949170308
 30
0.0
 10
0.111275660527317
 20
0.015052363768874
 30
0.0
 10
0.117731988135992
 20
0.0152881854553008
 30
0.0
 10
0.1272633244131357
 20
0.0170939901191029
 30
0.0
 10
0.1365129646129833
 20
0.0200774757155359
 30
0.0
 10
0.1453549094971517
 20
0.0242131276251062
 30
0.0
 10
0.1535917760077117
 20
0.0293386530463259
 30
0.0
 10
0.1609844815517436
 20
0.0353391595485319
 30
0.0
 10
0.1672356221498483
 20
0.0423179584143894
 30
0.0
 10
0.1725350942625788
 20
0.0499877050604612
 30
0.0
 10
0.1766904811696231
 20
0.0583957048076662
 30
0.0
 10
0.1797173425408418
 20
0.0673481470038027
 30
0.0
 10
0.18150690723915
 20
0.0768453432998768
 30
0.0
 10
0.1817324593564756
 20
0.0833356237969211
 30
0.0
 10
0.1818475907329496
 20
0.0866485385067744
 30
0.0
  0
SPLINE
  5
74
330
1F
100
AcDbEntity
  8
0
  6
Continuous
 62
     7
370
    25
100
AcDbSpline
210
0.0
220
0.0
230
1.0
 70
     8
 71
     3
 72
    19
 73
    15
 74
     0
 42
0.000000001
 43
0.00000001
 40
0.0
 40
0.0
 40
0.0
 40
0.0
 40
0.0815893489321834
 40
0.1628588951679351
 40
0.2454836892755793
 40
0.3308071391580109
 40
0.416493373776285
 40
0.4998932031606323
 40
0.5830481559950214
 40
0.6671578520621579
 40
0.751311929292914
 40
0.8337847893576152
 40
0.91625648854398
 40
1.0
 40
1.0
 40
1.0
 40
1.0
 10
0.0344116932970521
 20
0.0872995801734411
 30
0.0
 10
0.0345448999620356
 20
0.0841860010888696
 30
0.0
 10
0.0348107911668578
 20
0.0779710470983337
 30
0.0
 10
0.0367215550524281
 20
0.0687581487577364
 30
0.0
 10
0.0399272602976815
 20
0.0597828600390705
 30
0.0
 10
0.0443016933496846
 20
0.0511213605019498
 30
0.0
 10
0.049779309401735
 20
0.0430796390474006
 30
0.0
 10
0.0561284988697514
 20
0.0358124874358601
 30
0.0
 10
0.0634106618206706
 20
0.0295632311306595
 30
0.0
 10
0.0714769123259621
 20
0.0243319758731245
 30
0.0
 10
0.0800917673545583
 20
0.0201060815234506
 30
0.0
 10
0.089151333888334
 20
0.017165678701524
 30
0.0
 10
0.0984853080423692
 20
0.015267265800083
 30
0.0
 10
0.1048319033175071
 20
0.015045517454579
 30
0.0
 10
0.1080294817585905
 20
0.0149337949170308
 30
0.0
  0
SPLINE
  5
75
330
1F
100
AcDbEntity
  8
0
  6
Continuous
 62
     7
370
    25
100
AcDbSpline
210
0.0
220
0.0
230
1.0
 70
     8
 71
     3
 72
    23
 73
    19
 74
     0
 42
0.000000001
 43
0.00000001
 40
0.0
 40
0.0
 40
0.0
 40
0.0
 40
0.06563379967569
 40
0.1291880880571289
 40
0.1912186831121888
 40
0.2519128178811573
 40
0.3125074743865506
 40
0.3734944337751981
 40
0.4351515996540504
 40
0.4987414744066492
 40
0.5620952169966309
 40
0.6241865668116563
 40
0.6854757184651961
 40
0.746096814806053
 40
0.8076116364477848
 40
0.8699665806571903
 40
0.9339510189149071
 40
1.0
 40
1.0
 40
1.0
 40
1.0
 10
0.1818475907329496
 20
0.0866485385067744
 30
0.0
 10
0.1817790438492646
 20
0.0891726692573284
 30
0.0
 10
0.1816441218900104
 20
0.094140957354034
 30
0.0
 10
0.1806133669235358
 20
0.1014357800377504
 30
0.0
 10
0.1789737293226843
 20
0.1084167604677733
 30
0.0
 10
0.1766632886072217
 20
0.1150912382576732
 30
0.0
 10
0.1736281968632535
 20
0.1214223107861906
 30
0.0
 10
0.1699676421570822
 20
0.127455436515499
 30
0.0
 10
0.1656172528903972
 20
0.1331592373290474
 30
0.0
 10
0.1606470603118279
 20
0.1384551709703669
 30
0.0
 10
0.1552066887014373
 20
0.1432856325603113
 30
0.0
 10
0.1494499357991459
 20
0.1475973640397228
 30
0.0
 10
0.1433085967307578
 20
0.151139419235427
 30
0.0
 10
0.1368859512366331
 20
0.1540709386281158
 30
0.0
 10
0.1301708559179148
 20
0.156403735049373
 30
0.0
 10
0.1231086687880186
 20
0.1579599988899493
 30
0.0
 10
0.115774455436086
 20
0.1590285932496206
 30
0.0
 10
0.1107711657649207
 20
0.159118763304571
 30
0.0
 10
0.1082298022714111
 20
0.1591645641478001
 30
0.0
  0
SPLINE
  5
76
330
1F
100
AcDbEntity
  8
0
  6
Continuous
 62
     7
370
    25
100
AcDbSpline
210
0.0
220
0.0
230
1.0
 70
     8
 71
     3
 72
    19
 73
    15
 74
     0
 42
0.000000001
 43
0.00000001
 40
0.0
 40
0.0
 40
0.0
 40
0.0
 40
0.0859205174117674
 40
0.1695934351247435
 40
0.2524755148685383
 40
0.3362444769570507
 40
0.4195045210415724
 40
0.5020359066440891
 40
0.584774647676872
 40
0.6698464747058014
 40
0.7541848663887868
 40
0.8366582383293272
 40
0.9180097257088055
 40
1.0
 40
1.0
 40
1.0
 40
1.0
 10
0.1082298022714111
 20
0.1591645641478001
 30
0.0
 10
0.1049502067091214
 20
0.1590478757384749
 30
0.0
 10
0.0984768067112716
 20
0.1588175513785568
 30
0.0
 10
0.0889736637068124
 20
0.1570194445796592
 30
0.0
 10
0.0798798484148098
 20
0.1540276878393911
 30
0.0
 10
0.0712408431099122
 20
0.1499361234702224
 30
0.0
 10
0.063193113351155
 20
0.1447912137118613
 30
0.0
 10
0.0560007082919175
 20
0.1385682577624448
 30
0.0
 10
0.0496048010522077
 20
0.131437042465684
 30
0.0
 10
0.0442256393212959
 20
0.1234297488663854
 30
0.0
 10
0.0398406038270328
 20
0.1148455995043407
 30
0.0
 10
0.0367572444029804
 20
0.1058724253542639
 30
0.0
 10
0.0347237267308977
 20
0.0966720698145007
 30
0.0
 10
0.0345159752622211
 20
0.0904318779732331
 30
0.0
 10
0.0344116932970521
 20
0.0872995801734411
 30
0.0
  0
SPLINE
  5
77
330
1F
100
AcDbEntity
  8
0
  6
Continuous
 62
     7
370
    25
100
AcDbSpline
210
0.0
220
0.0
230
1.0
 70
     8
 71
     3
 72
    23
 73
    19
 74
     0
 42
0.000000001
 43
0.00000001
 40
0.0
 40
0.0
 40
0.0
 40
0.0
 40
0.0701214992195634
 40
0.1371218486740221
 40
0.2014871210766345
 40
0.2637651191668751
 40
0.3245600950367299
 40
0.3847388869594634
 40
0.444904604352268
 40
0.5052319196167139
 40
0.5654939949839912
 40
0.6250997441456836
 40
0.6843497139440939
 40
0.7438828254849644
 40
0.8046082057523067
 40
0.8672389137717529
 40
0.9320942880208508
 40
0.9999999999999999
 40
0.9999999999999999
 40
0.9999999999999999
 40
0.9999999999999999
 10
0.4465210682970521
 20
0.018138923122159
 30
0.0
 10
0.4491613367395988
 20
0.0181937523392996
 30
0.0
 10
0.4543243537011171
 20
0.0183009702924146
 30
0.0
 10
0.4618651348720405
 20
0.0192226487606878
 30
0.0
 10
0.4690103306128488
 20
0.0207099327811596
 30
0.0
 10
0.4757533893530003
 20
0.0228215774474078
 30
0.0
 10
0.4821197708575612
 20
0.0255159882064105
 30
0.0
 10
0.4880379576150757
 20
0.0289257466000137
 30
0.0
 10
0.4936348467627794
 20
0.0328089203174132
 30
0.0
 10
0.4987317331616368
 20
0.0373383499046285
 30
0.0
 10
0.5033406021275165
 20
0.0423301352610776
 30
0.0
 10
0.5073570854769641
 20
0.0477619134764172
 30
0.0
 10
0.5107795461215789
 20
0.0535519505512473
 30
0.0
 10
0.5136136653962321
 20
0.0596995938137303
 30
0.0
 10
0.5157773228367516
 20
0.066252619032641
 30
0.0
 10
0.5172286731943534
 20
0.0731946444449784
 30
0.0
 10
0.5182434407058879
 20
0.0804924115064769
 30
0.0
 10
0.518337792469691
 20
0.085493026947664
 30
0.0
 10
0.5183860522714112
 20
0.088050782096518
 30
0.0
  0
SPLINE
  5
78
330
1F
100
AcDbEntity
  8
0
  6
Continuous
 62
     7
370
    25
100
AcDbSpline
210
0.0
220
0.0
230
1.0
 70
     8
 71
     3
 72
    19
 73
    15
 74
     0
 42
0.000000001
 43
0.00000001
 40
0.0
 40
0.0
 40
0.0
 40
0.0
 40
0.0892427932208483
 40
0.1743490578004777
 40
0.2576131087527819
 40
0.3395273673229371
 40
0.4209973901479333
 40
0.501579058940574
 40
0.5825417599975042
 40
0.6661326583338258
 40
0.7500491310216031
 40
0.832742939744285
 40
0.9156474213323853
 40
1.0
 40
1.0
 40
1.0
 40
1.0
 10
0.5183860522714113
 20
0.088050782096518
 30
0.0
 10
0.5182903688307383
 20
0.0913806288078912
 30
0.0
 10
0.5181034370110769
 20
0.0978859791649922
 30
0.0
 10
0.5163393543207953
 20
0.1073650340213924
 30
0.0
 10
0.5134950535932196
 20
0.1162770821477225
 30
0.0
 10
0.5095059998588757
 20
0.1245939375672068
 30
0.0
 10
0.5045072849530687
 20
0.1322274768316809
 30
0.0
 10
0.4984865100371083
 20
0.1390363228652177
 30
0.0
 10
0.4915475078502325
 20
0.1450292411918542
 30
0.0
 10
0.4837102149804164
 20
0.1500219693002433
 30
0.0
 10
0.4752782546139115
 20
0.1540552146171418
 30
0.0
 10
0.4664553120360311
 20
0.1570810554835306
 30
0.0
 10
0.4572544860432836
 20
0.1587949351286278
 30
0.0
 10
0.4510183139320585
 20
0.1590406453621327
 30
0.0
 10
0.4478732317585906
 20
0.1591645641478001
 30
0.0
  0
SPLINE
  5
79
330
1F
100
AcDbEntity
  8
0
  6
Continuous
 62
     7
370
    25
100
AcDbSpline
210
0.0
220
0.0
230
1.0
 70
     8
 71
     3
 72
    19
 73
    15
 74
     0
 42
0.000000001
 43
0.00000001
 40
0.0
 40
0.0
 40
0.0
 40
0.0
 40
0.085518899252682
 40
0.1693092867993396
 40
0.2522179032131825
 40
0.3367564541858543
 40
0.4205954942562015
 40
0.5027411035138947
 40
0.5848035507161503
 40
0.6682684846239488
 40
0.7518231297771578
 40
0.8336286284455295
 40
0.9162197991152915
 40
1.0
 40
1.0
 40
1.0
 40
1.0
 10
0.4478732317585906
 20
0.1591645641478001
 30
0.0
 10
0.4445924671954151
 20
0.1590530594690737
 30
0.0
 10
0.438097249024908
 20
0.1588323038490303
 30
0.0
 10
0.4285766531330779
 20
0.1569476814809496
 30
0.0
 10
0.4193854435999807
 20
0.1539944029091931
 30
0.0
 10
0.4106993415867742
 20
0.1497699303781198
 30
0.0
 10
0.4025631194506192
 20
0.1446203419534143
 30
0.0
 10
0.3953434894179009
 20
0.138381749982632
 30
0.0
 10
0.3890288525541251
 20
0.1312570216341875
 30
0.0
 10
0.3836872141045326
 20
0.1233105754195574
 30
0.0
 10
0.3794349736420488
 20
0.114737555743161
 30
0.0
 10
0.376424729394527
 20
0.1057010747335785
 30
0.0
 10
0.374478299160277
 20
0.0963471466765578
 30
0.0
 10
0.3742634668714615
 20
0.0899633893066924
 30
0.0
 10
0.3741552830406418
 20
0.0867486987631847
 30
0.0
  0
SPLINE
  5
7A
330
1F
100
AcDbEntity
  8
0
  6
Continuous
 62
     7
370
    25
100
AcDbSpline
210
0.0
220
0.0
230
1.0
 70
     8
 71
     3
 72
    23
 73
    19
 74
     0
 42
0.000000001
 43
0.00000001
 40
0.0
 40
0.0
 40
0.0
 40
0.0
 40
0.0649830441815926
 40
0.1278026449472857
 40
0.1890563364713606
 40
0.2483946473749342
 40
0.3076907059547583
 40
0.3669766194961125
 40
0.4273400442260059
 40
0.4887947153913448
 40
0.5506736934060062
 40
0.6120451114224887
 40
0.6733691390064678
 40
0.7349297539342516
 40
0.7978099682993258
 40
0.8628916725659029
 40
0.9300953375428171
 40
1.0
 40
1.0
 40
1.0
 40
1.0
 10
0.3741552830406418
 20
0.0867486987631847
 30
0.0
 10
0.374207122814382
 20
0.084324893581572
 30
0.0
 10
0.3743090764898508
 20
0.0795579775814321
 30
0.0
 10
0.3752893320434791
 20
0.0725624136730733
 30
0.0
 10
0.3768736866954674
 20
0.0658995341277673
 30
0.0
 10
0.3791192014317722
 20
0.0595689359522336
 30
0.0
 10
0.3819015367807813
 20
0.0535343077465028
 30
0.0
 10
0.3854009918500312
 20
0.0478372195501168
 30
0.0
 10
0.3895189183996601
 20
0.0424725976877057
 30
0.0
 10
0.3942230853944197
 20
0.0374801204179117
 30
0.0
 10
0.3994071126707932
 20
0.032932908387988
 30
0.0
 10
0.4050299126214992
 20
0.0289373340565931
 30
0.0
 10
0.4110838590302564
 20
0.0256694254192554
 30
0.0
 10
0.4174200597590988
 20
0.0228450798752742
 30
0.0
 10
0.4241922566149254
 20
0.0207822893085272
 30
0.0
 10
0.4313029056195932
 20
0.0192080908070636
 30
0.0
 10
0.4388023125114741
 20
0.0183074652682256
 30
0.0
 10
0.4439145796024844
 20
0.0181958368541754
 30
0.0
 10
0.4465210682970521
 20
0.018138923122159
 30
0.0
  0
SPLINE
  5
7B
330
1F
100
AcDbEntity
  8
0
  6
Continuous
 62
     7
370
    25
100
AcDbSpline
210
0.0
220
0.0
230
1.0
 70
     8
 71
     3
 72
    15
 73
    11
 74
     0
 42
0.000000001
 43
0.00000001
 40
0.0
 40
0.0
 40
0.0
 40
0.0
 40
0.1099838451118692
 40
0.222580497363887
 40
0.338499870962446
 40
0.4587085654776332
 40
0.5855353464579948
 40
0.7175177429458911
 40
0.8546668197510231
 40
1.0
 40
1.0
 40
1.0
 40
1.0
 10
0.6322181836816674
 20
0.1420371603016462
 30
0.0
 10
0.6310258063984984
 20
0.1409589948998994
 30
0.0
 10
0.6286127253822527
 20
0.1387770508960572
 30
0.0
 10
0.6253884024187315
 20
0.1350178218566982
 30
0.0
 10
0.6223012257982888
 20
0.1309641388451245
 30
0.0
 10
0.6194916791731
 20
0.126460915659543
 30
0.0
 10
0.6169147087116897
 20
0.1215594314447861
 30
0.0
 10
0.6145032817701931
 20
0.116301028928014
 30
0.0
 10
0.6123328237643628
 20
0.1106458053378993
 30
0.0
 10
0.6111116730476862
 20
0.1067049168215934
 30
0.0
 10
0.6104834080406419
 20
0.1046773846606205
 30
0.0
  0
SPLINE
  5
7C
330
1F
100
AcDbEntity
  8
0
  6
Continuous
 62
     7
370
    25
100
AcDbSpline
210
0.0
220
0.0
230
1.0
 70
     8
 71
     3
 72
    19
 73
    15
 74
     0
 42
0.000000001
 43
0.00000001
 40
0.0
 40
0.0
 40
0.0
 40
0.0
 40
0.0962401251801504
 40
0.1852312611287014
 40
0.2675005230774392
 40
0.3444003817777772
 40
0.4195948685557304
 40
0.4968906265927779
 40
0.5766379188385152
 40
0.6602678524196378
 40
0.7453866150876284
 40
0.8300403273864515
 40
0.9144742116388027
 40
1.0
 40
1.0
 40
1.0
 40
1.0
 10
0.7491552830406419
 20
0.1046773846606205
 30
0.0
 10
0.7483340955725318
 20
0.1076533042123716
 30
0.0
 10
0.7467535740379185
 20
0.1133809913964495
 30
0.0
 10
0.7434509765774594
 20
0.1213124835710191
 30
0.0
 10
0.7397315808134477
 20
0.1283616193574205
 30
0.0
 10
0.7353300285723899
 20
0.1344744502899979
 30
0.0
 10
0.7303429767419153
 20
0.1399032726458646
 30
0.0
 10
0.7245826065527778
 20
0.1446474573007052
 30
0.0
 10
0.7181228998746979
 20
0.1488915609483799
 30
0.0
 10
0.7109972469691399
 20
0.152473882338869
 30
0.0
 10
0.7034514051780028
 20
0.1555231579618954
 30
0.0
 10
0.6955509628943236
 20
0.1575678090868691
 30
0.0
 10
0.6874896923321231
 20
0.158968490679701
 30
0.0
 10
0.6820372433072871
 20
0.1590989269961911
 30
0.0
 10
0.679293504194488
 20
0.1591645641478001
 30
0.0
  0
SPLINE
  5
7E
330
1F
100
AcDbEntity
  8
0
  6
Continuous
 62
     7
370
    25
100
AcDbSpline
210
0.0
220
0.0
230
1.0
 70
     8
 71
     3
 72
    15
 73
    11
 74
     0
 42
0.000000001
 43
0.00000001
 40
0.0
 40
0.0
 40
0.0
 40
0.0
 40
0.13109197625693
 40
0.2591412763281391
 40
0.3841617634834036
 40
0.5059919524977735
 40
0.6290980893898577
 40
0.7506691234237087
 40
0.8740389376151277
 40
1.0
 40
1.0
 40
1.0
 40
1.0
 10
0.679293504194488
 20
0.1591645641478001
 30
0.0
 10
0.6770542585861618
 20
0.1591208733231509
 30
0.0
 10
0.6726277407967243
 20
0.1590345057483635
 30
0.0
 10
0.6661062359257827
 20
0.1582152107960279
 30
0.0
 10
0.6598434002887705
 20
0.1568609361623222
 30
0.0
 10
0.6537930226022465
 20
0.1550062964050265
 30
0.0
 10
0.6480343891470927
 20
0.1525342533691154
 30
0.0
 10
0.6424490485600419
 20
0.1496354514684373
 30
0.0
 10
0.6371790202568415
 20
0.1460967669111181
 30
0.0
 10
0.6338832134370531
 20
0.1433997058516764
 30
0.0
 10
0.6322181836816674
 20
0.1420371603016462
 30
0.0
  0
SPLINE
  5
98
330
1F
100
AcDbEntity
  8
0
  6
Continuous
 62
     7
370
    25
100
AcDbSpline
210
0.0
220
0.0
230
1.0
 70
     8
 71
     3
 72
    15
 73
    11
 74
     0
 42
0.000000001
 43
0.00000001
 40
0.0
 40
0.0
 40
0.0
 40
0.0
 40
0.1298621417207353
 40
0.2546535308972862
 40
0.3760145541937118
 40
0.4952552518176068
 40
0.6147977192994578
 40
0.7381055541683323
 40
0.8651963000723568
 40
1.0
 40
1.0
 40
1.0
 40
1.0
 10
0.1079293215021804
 20
0.1816004615836975
 30
0.0
 10
0.1116578828638192
 20
0.1814977650449932
 30
0.0
 10
0.1189694157195637
 20
0.1812963819794942
 30
0.0
 10
0.1296642735243367
 20
0.1796204728852814
 30
0.0
 10
0.1397817362317335
 20
0.1767891538027923
 30
0.0
 10
0.1493999042338821
 20
0.1729379039439704
 30
0.0
 10
0.1584842389549412
 20
0.1678201375809766
 30
0.0
 10
0.1669487378346513
 20
0.1613644260792881
 30
0.0
 10
0.174881986642352
 20
0.1536114841528505
 30
0.0
 10
0.1794805789037252
 20
0.1476564524050484
 30
0.0
 10
0.1818475907329496
 20
0.1445912468401077
 30
0.0
  0
SPLINE
  5
99
330
1F
100
AcDbEntity
  8
0
  6
Continuous
 62
     7
370
    25
100
AcDbSpline
210
0.0
220
0.0
230
1.0
 70
     8
 71
     3
 72
    23
 73
    19
 74
     0
 42
0.000000001
 43
0.00000001
 40
0.0
 40
0.0
 40
0.0
 40
0.0
 40
0.063774532305632
 40
0.1260788099895058
 40
0.1869040927472073
 40
0.2475739349176197
 40
0.3080033561644469
 40
0.3691318984609776
 40
0.4320332277442044
 40
0.4967907944370906
 40
0.5616108232295651
 40
0.6249138657484622
 40
0.6867263492419245
 40
0.748078833257771
 40
0.809582291139895
 40
0.8716307425688273
 40
0.9348858208285532
 40
1.0
 40
1.0
 40
1.0
 40
1.0
 10
0.0119757958611547
 20
0.0875499808144667
 30
0.0
 10
0.0120652938172178
 20
0.0907259596408544
 30
0.0
 10
0.0122422264483008
 20
0.0970046984493783
 30
0.0
 10
0.0135603135797488
 20
0.1062388911626539
 30
0.0
 10
0.0157768141982614
 20
0.1151330526435997
 30
0.0
 10
0.0188873747458249
 20
0.123658548588154
 30
0.0
 10
0.0228760858146192
 20
0.1318256950273389
 30
0.0
 10
0.0277280920303944
 20
0.1396402682426917
 30
0.0
 10
0.033443743794597
 20
0.147123796632837
 30
0.0
 10
0.0400332014386244
 20
0.1541003128341781
 30
0.0
 10
0.0471713993073844
 20
0.1605446424248482
 30
0.0
 10
0.0548077372299108
 20
0.1661452885278814
 30
0.0
 10
0.0627522573242559
 20
0.1709822063004544
 30
0.0
 10
0.0711281866472833
 20
0.1748145974651937
 30
0.0
 10
0.0798115512768543
 20
0.1779152477897979
 30
0.0
 10
0.0888796545445138
 20
0.1800604597969776
 30
0.0
 10
0.0982947673070547
 20
0.1813245541712638
 30
0.0
 10
0.1046869453116702
 20
0.1815076087534843
 30
0.0
 10
0.1079293215021804
 20
0.1816004615836975
 30
0.0
  0
SPLINE
  5
9A
330
1F
100
AcDbEntity
  8
0
  6
Continuous
 62
     7
370
    25
100
AcDbSpline
210
0.0
220
0.0
230
1.0
 70
     8
 71
     3
 72
    23
 73
    19
 74
     0
 42
0.000000001
 43
0.00000001
 40
0.0
 40
0.0
 40
0.0
 40
0.0
 40
0.064619991340768
 40
0.1274334841444694
 40
0.1890041265579401
 40
0.2499300706860469
 40
0.3106684537406716
 40
0.372328961136824
 40
0.4349391099970081
 40
0.4995755441940341
 40
0.5641912077719239
 40
0.6267352169294782
 40
0.6881093335614014
 40
0.749293606536751
 40
0.8103305278109454
 40
0.8719011702244157
 40
0.9350459146845314
 40
1.0
 40
1.0
 40
1.0
 40
1.0
 10
0.1072281997073085
 20
-0.0075021025188666
 30
0.0
 10
0.1040019172906987
 20
-0.0074145044996415
 30
0.0
 10
0.0976395455129849
 20
-0.0072417573270963
 30
0.0
 10
0.0882803257173482
 20
-0.0059015927829336
 30
0.0
 10
0.0792737364707295
 20
-0.0037494055227852
 30
0.0
 10
0.0706112669948874
 20
-0.000756484844802
 30
0.0
 10
0.0623489708924514
 20
0.00321357384364
 30
0.0
 10
0.0544161068444294
 20
0.0079665201323126
 30
0.0
 10
0.0468537717002068
 20
0.0136265794237874
 30
0.0
 10
0.0397772332027887
 20
0.0200971528775653
 30
0.0
 10
0.0332606617473671
 20
0.0271253662478232
 30
0.0
 10
0.0275419994172111
 20
0.0346214767389038
 30
0.0
 10
0.0227739222847293
 20
0.0425530698740944
 30
0.0
 10
0.0187867736627813
 20
0.0508197237232882
 30
0.0
 10
0.0157156062027287
 20
0.0594850751185762
 30
0.0
 10
0.0135746323271632
 20
0.0685191585428462
 30
0.0
 10
0.0122360289914015
 20
0.077911292367121
 30
0.0
 10
0.0120633532281905
 20
0.0843069725882359
 30
0.0
 10
0.0119757958611547
 20
0.0875499808144667
 30
0.0
  0
SPLINE
  5
9B
330
1F
100
AcDbEntity
  8
0
  6
Continuous
 62
     7
370
    25
100
AcDbSpline
210
0.0
220
0.0
230
1.0
 70
     8
 71
     3
 72
    15
 73
    11
 74
     0
 42
0.000000001
 43
0.00000001
 40
0.0
 40
0.0
 40
0.0
 40
0.0
 40
0.1342983790141681
 40
0.2620849753823011
 40
0.3862699121345002
 40
0.5071645966228004
 40
0.6273002357255061
 40
0.7481449416029933
 40
0.8723701771613517
 40
1.0
 40
1.0
 40
1.0
 40
1.0
 10
0.1818475907329496
 20
0.0273035865836975
 30
0.0
 10
0.1793176771167952
 20
0.0244436155867093
 30
0.0
 10
0.1743805188824491
 20
0.0188623462233565
 30
0.0
 10
0.1661347247416297
 20
0.0115707624740172
 30
0.0
 10
0.1573941406057377
 20
0.0055437395068705
 30
0.0
 10
0.1482011890964021
 20
0.0006758883854139
 30
0.0
 10
0.1385641717146437
 20
-0.0029806870672545
 30
0.0
 10
0.1285044511949113
 20
-0.005579698433383
 30
0.0
 10
0.1180179239902301
 20
-0.0072506866599723
 30
0.0
 10
0.1108570415052298
 20
-0.007417545364903
 30
0.0
 10
0.1072281997073085
 20
-0.0075021025188666
 30
0.0
  0
SPLINE
  5
A0
330
1F
100
AcDbEntity
  8
0
  6
Continuous
 62
     7
370
    25
100
AcDbSpline
210
0.0
220
0.0
230
1.0
 70
     8
 71
     3
 72
    15
 73
    11
 74
     0
 42
0.000000001
 43
0.00000001
 40
0.0
 40
0.0
 40
0.0
 40
0.0
 40
0.1209110787487116
 40
0.2387622286387251
 40
0.3547548590848608
 40
0.4703593994502167
 40
0.5891440987928701
 40
0.7163289048363427
 40
0.8524452858575999
 40
1.0
 40
1.0
 40
1.0
 40
1.0
 10
0.446070347143206
 20
0.1816004615836975
 30
0.0
 10
0.4494311284988818
 20
0.181503556349259
 30
0.0
 10
0.4560676390217624
 20
0.1813121982869479
 30
0.0
 10
0.4658341391952253
 20
0.1798106879024336
 30
0.0
 10
0.4752585849078653
 20
0.1774168298058872
 30
0.0
 10
0.4843941574562206
 20
0.1739871419123029
 30
0.0
 10
0.493315275384882
 20
0.1693049963169437
 30
0.0
 10
0.501992536478455
 20
0.1631376428876379
 30
0.0
 10
0.5104510460623776
 20
0.1554297614782118
 30
0.0
 10
0.5156708911014983
 20
0.1495188425948398
 30
0.0
 10
0.5183860522714112
 20
0.1464442115836975
 30
0.0
  0
SPLINE
  5
A1
330
1F
100
AcDbEntity
  8
0
  6
Continuous
 62
     7
370
    25
100
AcDbSpline
210
0.0
220
0.0
230
1.0
 70
     8
 71
     3
 72
    31
 73
    27
 74
     0
 42
0.000000001
 43
0.00000001
 40
0.0
 40
0.0
 40
0.0
 40
0.0
 40
0.0420341186638458
 40
0.0839054330862332
 40
0.1250689344486242
 40
0.1661584697031402
 40
0.2072102728707296
 40
0.248490732056253
 40
0.2898781122327934
 40
0.3321695142040873
 40
0.3744758421539218
 40
0.4162249804562085
 40
0.4576095869585056
 40
0.4990731704672239
 40
0.5405533615534475
 40
0.5822488491953578
 40
0.6245497501259991
 40
0.6674328009210353
 40
0.7103225433055328
 40
0.7524671185698663
 40
0.7940647568438055
 40
0.8352157072950128
 40
0.8762283442246849
 40
0.917446188706151
 40
0.9586431404713234
 40
1.0
 40
1.0
 40
1.0
 40
1.0
 10
0.3517193856047445
 20
0.087650141070877
 30
0.0
 10
0.3517564689101403
 20
0.0897217907850997
 30
0.0
 10
0.3518304918919086
 20
0.0938570664135699
 30
0.0
 10
0.3524698475598665
 20
0.0999913082269603
 30
0.0
 10
0.3533818610901575
 20
0.106043410744238
 30
0.0
 10
0.3548252731612926
 20
0.1119509922936701
 30
0.0
 10
0.3565625961977845
 20
0.1177813317053393
 30
0.0
 10
0.3587142799518753
 20
0.1234913643061598
 30
0.0
 10
0.361301334190228
 20
0.1290828292423891
 30
0.0
 10
0.3642306020242576
 20
0.1345598672027759
 30
0.0
 10
0.3675223229279367
 20
0.1398489825552372
 30
0.0
 10
0.3711317858427266
 20
0.1448723144055711
 30
0.0
 10
0.3750633482898535
 20
0.1495928981145631
 30
0.0
 10
0.3792627708341578
 20
0.1540583568194475
 30
0.0
 10
0.383781329194037
 20
0.1582256063349103
 30
0.0
 10
0.3886166857901279
 20
0.162084532398017
 30
0.0
 10
0.3937211772362917
 20
0.165699819988697
 30
0.0
 10
0.3991106236645711
 20
0.168993486928771
 30
0.0
 10
0.404701865701479
 20
0.1719065045373395
 30
0.0
 10
0.4103528526866849
 20
0.174564547174816
 30
0.0
 10
0.4161384409024548
 20
0.1766741271412539
 30
0.0
 10
0.4219507651470225
 20
0.1785329199295032
 30
0.0
 10
0.4278921876300941
 20
0.179849719588064
 30
0.0
 10
0.4338898586031272
 20
0.1808655940107607
 30
0.0
 10
0.4399643112999321
 20
0.1814845026554245
 30
0.0
 10
0.4440323752319003
 20
0.1815617587256156
 30
0.0
 10
0.446070347143206
 20
0.1816004615836975
 30
0.0
  0
SPLINE
  5
A2
330
1F
100
AcDbEntity
  8
0
  6
Continuous
 62
     7
370
    25
100
AcDbSpline
210
0.0
220
0.0
230
1.0
 70
     8
 71
     3
 72
    31
 73
    27
 74
     0
 42
0.000000001
 43
0.00000001
 40
0.0
 40
0.0
 40
0.0
 40
0.0
 40
0.0428647590311909
 40
0.0852222575672315
 40
0.1272022841437363
 40
0.1690253126085997
 40
0.2108820330997096
 40
0.2529626777271211
 40
0.2956282851000493
 40
0.3385532936306104
 40
0.3814632477171865
 40
0.4235815621432638
 40
0.4650661653954504
 40
0.5063122188418633
 40
0.5470395054616141
 40
0.5876758328931712
 40
0.6286747862975591
 40
0.6699464646027595
 40
0.711035574456075
 40
0.7519958286352156
 40
0.792672607483504
 40
0.8334460178854418
 40
0.8741906070422417
 40
0.915493583029466
 40
0.9574778068391467
 40
0.9999999999999999
 40
0.9999999999999999
 40
0.9999999999999999
 40
0.9999999999999999
 10
0.4453692253483341
 20
-0.0042969743137384
 30
0.0
 10
0.4432809203896537
 20
-0.0042601867087056
 30
0.0
 10
0.4391290234213753
 20
-0.0041870468422455
 30
0.0
 10
0.4329608271904978
 20
-0.0035471341690231
 30
0.0
 10
0.4268836530241842
 20
-0.0026186525765797
 30
0.0
 10
0.4209116741936871
 20
-0.0012556926491704
 30
0.0
 10
0.4150362732603357
 20
0.0004937163893142
 30
0.0
 10
0.4092671595373826
 20
0.0026806262999931
 30
0.0
 10
0.403557621925469
 20
0.0051531347476156
 30
0.0
 10
0.3980114435067745
 20
0.0080654778503968
 30
0.0
 10
0.3926838627400288
 20
0.0113056426261101
 30
0.0
 10
0.3876150638017926
 20
0.0148155633911181
 30
0.0
 10
0.3828315967241143
 20
0.0185768696940759
 30
0.0
 10
0.3783789903348616
 20
0.0226266511080867
 30
0.0
 10
0.3742630852313678
 20
0.0269590463053952
 30
0.0
 10
0.3704285232274601
 20
0.03152787152201
 30
0.0
 10
0.3669387127226763
 20
0.0363969244752603
 30
0.0
 10
0.3637220420626389
 20
0.0414774214419151
 30
0.0
 10
0.360932217035986
 20
0.0468032017141681
 30
0.0
 10
0.358483333334183
 20
0.0522587799590065
 30
0.0
 10
0.3563540901169862
 20
0.0578324909936764
 30
0.0
 10
0.354656561421519
 20
0.063542995468999
 30
0.0
 10
0.3533600533308228
 20
0.0693866932451565
 30
0.0
 10
0.3523950371173195
 20
0.075354011021719
 30
0.0
 10
0.3518476848561937
 20
0.0814633244238657
 30
0.0
 10
0.3517623331387438
 20
0.0855791350806289
 30
0.0
 10
0.3517193856047445
 20
0.087650141070877
 30
0.0
  0
SPLINE
  5
A3
330
1F
100
AcDbEntity
  8
0
  6
Continuous
 62
     7
370
    25
100
AcDbSpline
210
0.0
220
0.0
230
1.0
 70
     8
 71
     3
 72
    15
 73
    11
 74
     0
 42
0.000000001
 43
0.00000001
 40
0.0
 40
0.0
 40
0.0
 40
0.0
 40
0.1265607130145253
 40
0.2508952618879491
 40
0.3747192653150444
 40
0.4998264235934748
 40
0.6249635314328661
 40
0.7490394747387384
 40
0.8731801199413529
 40
1.0
 40
1.0
 40
1.0
 40
1.0
 10
0.5183860522714113
 20
0.0307090353016462
 30
0.0
 10
0.5161088295998039
 20
0.027998906576135
 30
0.0
 10
0.5115944399052345
 20
0.0226263194585265
 30
0.0
 10
0.5037982022528846
 20
0.0155862025518756
 30
0.0
 10
0.4952827082793206
 20
0.0095229075303476
 30
0.0
 10
0.4860624552505844
 20
0.0045501479222662
 30
0.0
 10
0.4763632950963869
 20
0.0005729033073171
 30
0.0
 10
0.4662902786380015
 20
-0.0022087367571681
 30
0.0
 10
0.4559337032664906
 20
-0.0040058724636214
 30
0.0
 10
0.4489156925647275
 20
-0.0041992521947592
 30
0.0
 10
0.4453692253483341
 20
-0.0042969743137384
 30
0.0
  0
SPLINE
  5
A5
330
1F
100
AcDbEntity
  8
0
  6
Continuous
 62
     7
370
    25
100
AcDbSpline
210
0.0
220
0.0
230
1.0
 70
     8
 71
     3
 72
    23
 73
    19
 74
     0
 42
0.000000001
 43
0.00000001
 40
0.0
 40
0.0
 40
0.0
 40
0.0
 40
0.098171297827695
 40
0.1892644356875867
 40
0.2744630560180399
 40
0.355023171281738
 40
0.4309204620429342
 40
0.501086045385753
 40
0.566607627037598
 40
0.6297208634282989
 40
0.6627106951128598
 40
0.6987655616316136
 40
0.7386105373889622
 40
0.7825812280784438
 40
0.8304087872491271
 40
0.8825778660702772
 40
0.9392286810451785
 40
1.0
 40
1.0
 40
1.0
 40
1.0
 10
0.446070347143206
 20
-0.0523738973906615
 30
0.0
 10
0.4499822678820559
 20
-0.0522717439053001
 30
0.0
 10
0.4575240595001361
 20
-0.0520748022106472
 30
0.0
 10
0.468369143003376
 20
-0.0504717919125989
 30
0.0
 10
0.4782687814367987
 20
-0.0477879752153333
 30
0.0
 10
0.4871659386244429
 20
-0.0440302333406087
 30
0.0
 10
0.4949556363771094
 20
-0.039426632873849
 30
0.0
 10
0.5016707786117197
 20
-0.0342837704160064
 30
0.0
 10
0.5071096840504791
 20
-0.0284851273435368
 30
0.0
 10
0.5107677530983235
 20
-0.0231435697656276
 30
0.0
 10
0.513041654355383
 20
-0.0183847033587045
 30
0.0
 10
0.5144896712672137
 20
-0.0142880893617344
 30
0.0
 10
0.5156663833710943
 20
-0.0096557409572752
 30
0.0
 10
0.5166506574807843
 20
-0.0045031883699492
 30
0.0
 10
0.5174628655787541
 20
0.001176929991992
 30
0.0
 10
0.5179773571750009
 20
0.0073976016616242
 30
0.0
 10
0.5183492008587346
 20
0.0141446889703304
 30
0.0
 10
0.5183734844193524
 20
0.0188227702710203
 30
0.0
 10
0.5183860522714112
 20
0.021243891070877
 30
0.0
  0
SPLINE
  5
A6
330
1F
100
AcDbEntity
  8
0
  6
Continuous
 62
     7
370
    25
100
AcDbSpline
210
0.0
220
0.0
230
1.0
 70
     8
 71
     3
 72
    15
 73
    11
 74
     0
 42
0.000000001
 43
0.00000001
 40
0.0
 40
0.0
 40
0.0
 40
0.0
 40
0.1247164867023058
 40
0.2438053739155094
 40
0.3600615340644429
 40
0.4751119996584067
 40
0.5935250978119054
 40
0.7193501703843576
 40
0.8538547713042652
 40
1.0
 40
1.0
 40
1.0
 40
1.0
 10
0.3773604112457702
 20
-0.0171174871342513
 30
0.0
 10
0.379164854767586
 20
-0.019982192546566
 30
0.0
 10
0.3826923196535705
 20
-0.0255823388678323
 30
0.0
 10
0.3892886397226296
 20
-0.0328332785774623
 30
0.0
 10
0.3965176630331591
 20
-0.0390299474837084
 30
0.0
 10
0.4046233546891916
 20
-0.0440235742026165
 30
0.0
 10
0.4136394415040516
 20
-0.0477885593027392
 30
0.0
 10
0.4235713476590189
 20
-0.0504725090481664
 30
0.0
 10
0.4344998920686543
 20
-0.0520793852521915
 30
0.0
 10
0.4421083359388721
 20
-0.0522730491193609
 30
0.0
 10
0.4460703471432061
 20
-0.0523738973906615
 30
0.0
  0
SPLINE
  5
A8
330
1F
100
AcDbEntity
  8
0
  6
Continuous
 62
     7
370
    25
100
AcDbSpline
210
0.0
220
0.0
230
1.0
 70
     8
 71
     3
 72
    19
 73
    15
 74
     0
 42
0.000000001
 43
0.00000001
 40
0.0
 40
0.0
 40
0.0
 40
0.0
 40
0.0964914237691186
 40
0.1884736749923081
 40
0.2768399149588137
 40
0.362136562171425
 40
0.4434367545654574
 40
0.5201655209986222
 40
0.5927096635690016
 40
0.6629173343528175
 40
0.7354188002027043
 40
0.8148809699994166
 40
0.9030605557399854
 40
1.0
 40
1.0
 40
1.0
 40
1.0
 10
0.4482237926560264
 20
-0.0748097948265589
 30
0.0
 10
0.4444463116130443
 20
-0.0747486172686547
 30
0.0
 10
0.4370678762394696
 20
-0.0746291210614802
 30
0.0
 10
0.4263103767619946
 20
-0.0732369128406668
 30
0.0
 10
0.4160936110529905
 20
-0.0712687433354262
 30
0.0
 10
0.4065525784315583
 20
-0.0682897842188305
 30
0.0
 10
0.3977475715122269
 20
-0.0646442849523296
 30
0.0
 10
0.3897387232600733
 20
-0.0604589311698681
 30
0.0
 10
0.382597929865944
 20
-0.0556596948269121
 30
0.0
 10
0.3761605246514386
 20
-0.0501953661900209
 30
0.0
 10
0.3703504110702915
 20
-0.0436979603587794
 30
0.0
 10
0.3648841760716825
 20
-0.0360409000641543
 30
0.0
 10
0.3596226802246864
 20
-0.0271075508390697
 30
0.0
 10
0.3565392060912764
 20
-0.020550928466606
 30
0.0
 10
0.3549245138098726
 20
-0.0171174871342512
 30
0.0
  0
SPLINE
  5
A9
330
1F
100
AcDbEntity
  8
0
  6
Continuous
 62
     7
370
    25
100
AcDbSpline
210
0.0
220
0.0
230
1.0
 70
     8
 71
     3
 72
    23
 73
    19
 74
     0
 42
0.000000001
 43
0.00000001
 40
0.0
 40
0.0
 40
0.0
 40
0.0
 40
0.0613707062984596
 40
0.1209064680177784
 40
0.1794236650000285
 40
0.2376066874397818
 40
0.2959384682493726
 40
0.354218226820856
 40
0.4135370665946765
 40
0.4740867825531874
 40
0.5351211890802687
 40
0.5969876649622244
 40
0.6600198335468066
 40
0.7242774964844946
 40
0.7900118502255385
 40
0.8577476843344473
 40
0.9278290322155479
 40
1.0
 40
1.0
 40
1.0
 40
1.0
 10
0.5341612926560265
 20
-0.0226263012368154
 30
0.0
 10
0.5333620613177034
 20
-0.0246784384933431
 30
0.0
 10
0.5317874951431535
 20
-0.0287213554245549
 30
0.0
 10
0.5288385213246576
 20
-0.0344523783383877
 30
0.0
 10
0.5255360996375993
 20
-0.0398485490416914
 30
0.0
 10
0.521764188877937
 20
-0.0448797955634512
 30
0.0
 10
0.5175398457328101
 20
-0.0495208607321975
 30
0.0
 10
0.5129625962932021
 20
-0.0538725749664636
 30
0.0
 10
0.50794329690595
 20
-0.0578428726368383
 30
0.0
 10
0.5024848174626662
 20
-0.0613632510266108
 30
0.0
 10
0.4967129865197434
 20
-0.0645337548947139
 30
0.0
 10
0.4906311220864092
 20
-0.0672799382649714
 30
0.0
 10
0.4842735193461469
 20
-0.0696718556665911
 30
0.0
 10
0.4775804556605092
 20
-0.0714634839330012
 30
0.0
 10
0.4706568674842199
 20
-0.0730159639734959
 30
0.0
 10
0.4634213366927601
 20
-0.0740262986730905
 30
0.0
 10
0.4559161369209601
 20
-0.0747139456821609
 30
0.0
 10
0.4508128954866474
 20
-0.0747775337521028
 30
0.0
 10
0.4482237926560265
 20
-0.074809794826559
 30
0.0
  0
SPLINE
  5
AA
330
1F
100
AcDbEntity
  8
0
  6
Continuous
 62
     7
370
    25
100
AcDbSpline
210
0.0
220
0.0
230
1.0
 70
     8
 71
     3
 72
    15
 73
    11
 74
     0
 42
0.000000001
 43
0.00000001
 40
0.0
 40
0.0
 40
0.0
 40
0.0
 40
0.1634452548497625
 40
0.3154887127129205
 40
0.4562908239366665
 40
0.5858641495747746
 40
0.7054286858067534
 40
0.8133707129824369
 40
0.9117182381601001
 40
1.0
 40
1.0
 40
1.0
 40
1.0
 10
0.5408219497073086
 20
0.0334133622247231
 30
0.0
 10
0.5408021609522449
 20
0.03032496260995
 30
0.0
 10
0.5407639638882372
 20
0.0243636074167175
 30
0.0
 10
0.5404888945129053
 20
0.0157437303015099
 30
0.0
 10
0.5399088461400214
 20
0.0077818670492318
 30
0.0
 10
0.5392510831861962
 20
0.0004417057214301
 30
0.0
 10
0.5383048891633714
 20
-0.0062427307114256
 30
0.0
 10
0.5371494343606299
 20
-0.0122913881881387
 30
0.0
 10
0.5358468858497661
 20
-0.0177100712143968
 30
0.0
 10
0.5347025846030292
 20
-0.0210475598592203
 30
0.0
 10
0.5341612926560265
 20
-0.0226263012368154
 30
0.0
  0
CIRCLE
  5
B2
330
1F
100
AcDbEntity
  8
0
  6
Continuous
 62
     7
370
    25
100
AcDbCircle
 10
-2.65
 20
-2.1675
 30
0.0
 40
0.0720000000000001
  0
CIRCLE
  5
B3
330
1F
100
AcDbEntity
  8
0
  6
Continuous
 62
     7
370
    25
100
AcDbCircle
 10
2.65
 20
-2.1675
 30
0.0
 40
0.0720000000000001
  0
CIRCLE
  5
B4
330
1F
100
AcDbEntity
  8
0
  6
Continuous
 62
     7
370
    25
100
AcDbCircle
 10
2.65
 20
2.1625
 30
0.0
 40
0.0720000000000005
  0
CIRCLE
  5
B5
330
1F
100
AcDbEntity
  8
0
  6
Continuous
 62
     7
370
    25
100
AcDbCircle
 10
-2.65
 20
2.1625
 30
0.0
 40
0.0720000000000005
  0
SPLINE
  5
B6
330
1F
100
AcDbEntity
  8
0
  6
Continuous
 62
     7
370
    25
100
AcDbSpline
210
0.0
220
0.0
230
1.0
 70
     8
 71
     3
 72
    23
 73
    19
 74
     0
 42
0.000000001
 43
0.00000001
 40
0.0
 40
0.0
 40
0.0
 40
0.0
 40
0.0683846151037679
 40
0.1344755875434505
 40
0.1983910577839559
 40
0.2607534774484859
 40
0.3218292228076483
 40
0.3830372384795238
 40
0.4446531231064264
 40
0.5073980112040052
 40
0.5698252379730251
 40
0.6307776406313123
 40
0.690928686523717
 40
0.7509451326917346
 40
0.811049476729326
 40
0.8723308525469914
 40
0.9350040935894044
 40
1.0
 40
1.0
 40
1.0
 40
1.0
 10
0.608129642015001
 20
0.0822414872247231
 30
0.0
 10
0.6082396139027977
 20
0.0798343112070721
 30
0.0
 10
0.608455869184812
 20
0.0751006966535218
 30
0.0
 10
0.6094640936966998
 20
0.068174212147631
 30
0.0
 10
0.6110532918234309
 20
0.0615761162788006
 30
0.0
 10
0.6132867962976093
 20
0.0553558989949814
 30
0.0
 10
0.615991570958673
 20
0.049432318458175
 30
0.0
 10
0.6193048364433827
 20
0.0438493158175587
 30
0.0
 10
0.6232576617257041
 20
0.0386323208139946
 30
0.0
 10
0.6276666402531592
 20
0.0337346681287709
 30
0.0
 10
0.6325742899199882
 20
0.0293731851882209
 30
0.0
 10
0.6377373432929306
 20
0.0254694868857727
 30
0.0
 10
0.6432297407921586
 20
0.0221976585479612
 30
0.0
 10
0.6490081753274409
 20
0.0195419521370004
 30
0.0
 10
0.6550633028377391
 20
0.0174629295613504
 30
0.0
 10
0.661397031060292
 20
0.01604379951257
 30
0.0
 10
0.6679968965142027
 20
0.0150932918786512
 30
0.0
 10
0.6724958775165438
 20
0.0149876015071849
 30
0.0
 10
0.6747862926560266
 20
0.0149337949170308
 30
0.0
  0
SPLINE
  5
B8
330
1F
100
AcDbEntity
  8
0
  6
Continuous
 62
     7
370
    25
100
AcDbSpline
210
0.0
220
0.0
230
1.0
 70
     8
 71
     3
 72
    15
 73
    11
 74
     0
 42
0.000000001
 43
0.00000001
 40
0.0
 40
0.0
 40
0.0
 40
0.0
 40
0.118521840013261
 40
0.2362547631617469
 40
0.356174433990931
 40
0.477249654898558
 40
0.6015398708217023
 40
0.7296183821680428
 40
0.8621582661414388
 40
1.0
 40
1.0
 40
1.0
 40
1.0
 10
0.7517093695791035
 20
0.1456429295324154
 30
0.0
 10
0.7532898651728527
 20
0.1434855308619662
 30
0.0
 10
0.7564403361083163
 20
0.1391850938127655
 30
0.0
 10
0.7603865575393972
 20
0.1321728683055739
 30
0.0
 10
0.7638120857525167
 20
0.1248363972805629
 30
0.0
 10
0.7665501543964286
 20
0.1170570903457772
 30
0.0
 10
0.7687672616247536
 20
0.1089271203334251
 30
0.0
 10
0.7703713201061956
 20
0.1003883671395457
 30
0.0
 10
0.7713120071477555
 20
0.0914433734709131
 30
0.0
 10
0.771496914101215
 20
0.0853486195082915
 30
0.0
 10
0.7715911804765393
 20
0.0822414872247231
 30
0.0
  0
SPLINE
  5
B9
330
1F
100
AcDbEntity
  8
0
  6
Continuous
 62
     7
370
    25
100
AcDbSpline
210
0.0
220
0.0
230
1.0
 70
     8
 71
     3
 72
    15
 73
    11
 74
     0
 42
0.000000001
 43
0.00000001
 40
0.0
 40
0.0
 40
0.0
 40
0.0
 40
0.132040234425981
 40
0.2590328407793701
 40
0.3818798239250187
 40
0.5022584437149865
 40
0.622752189527478
 40
0.7447426318590016
 40
0.8701089273418184
 40
1.0
 40
1.0
 40
1.0
 40
1.0
 10
0.67814166124577
 20
0.1816004615836975
 30
0.0
 10
0.6818879187674618
 20
0.1815037438056616
 30
0.0
 10
0.6892372220487953
 20
0.1813140055724071
 30
0.0
 10
0.6999538021228516
 20
0.1795549817574742
 30
0.0
 10
0.710093853304323
 20
0.1767655135743743
 30
0.0
 10
0.7196533178978097
 20
0.1728259571100503
 30
0.0
 10
0.7286331650944404
 20
0.1677431319821665
 30
0.0
 10
0.7369750257783472
 20
0.1614472861620988
 30
0.0
 10
0.7448215623889723
 20
0.1541317085031653
 30
0.0
 10
0.7493864608784153
 20
0.1485057649726446
 30
0.0
 10
0.7517093695791035
 20
0.1456429295324154
 30
0.0
  0
SPLINE
  5
BA
330
1F
100
AcDbEntity
  8
0
  6
Continuous
 62
     7
370
    25
100
AcDbSpline
210
0.0
220
0.0
230
1.0
 70
     8
 71
     3
 72
    15
 73
    11
 74
     0
 42
0.000000001
 43
0.00000001
 40
0.0
 40
0.0
 40
0.0
 40
0.0
 40
0.1288352544875544
 40
0.2535893349864775
 40
0.3746432573141706
 40
0.4953400422377919
 40
0.6163247746357913
 40
0.7397593354405139
 40
0.8668423203805461
 40
1.0
 40
1.0
 40
1.0
 40
1.0
 10
0.6067273984252571
 20
0.1475459744042103
 30
0.0
 10
0.6089922329092452
 20
0.150250893696214
 30
0.0
 10
0.6134501576669786
 20
0.1555750472998192
 30
0.0
 10
0.6209898973351117
 20
0.1625706419985069
 30
0.0
 10
0.6291541970738532
 20
0.1684309116540111
 30
0.0
 10
0.6378407417952929
 20
0.1732885642353124
 30
0.0
 10
0.6471504899424783
 20
0.1769795390205111
 30
0.0
 10
0.6569582964451628
 20
0.1797300806085305
 30
0.0
 10
0.6673758383184926
 20
0.1812713671109075
 30
0.0
 10
0.6744976398069352
 20
0.1814890695124783
 30
0.0
 10
0.67814166124577
 20
0.1816004615836975
 30
0.0
  0
SPLINE
  5
BB
330
1F
100
AcDbEntity
  8
0
  6
Continuous
 62
     7
370
    25
100
AcDbSpline
210
0.0
220
0.0
230
1.0
 70
     8
 71
     3
 72
    15
 73
    11
 74
     0
 42
0.000000001
 43
0.00000001
 40
0.0
 40
0.0
 40
0.0
 40
0.0
 40
0.1280448079611203
 40
0.2537679000244901
 40
0.3774284265813021
 40
0.5005508414825333
 40
0.6232958832424761
 40
0.7465783319335092
 40
0.8723475406047166
 40
0.9999999999999999
 40
0.9999999999999999
 40
0.9999999999999999
 40
0.9999999999999999
 10
0.5856937445791033
 20
0.0865483782503641
 30
0.0
 10
0.5857693975312889
 20
0.0893551518516195
 30
0.0
 10
0.5859193316919351
 20
0.0949178064721102
 30
0.0
 10
0.5868643879343409
 20
0.1031510596528448
 30
0.0
 10
0.5885392660106283
 20
0.1111530919763132
 30
0.0
 10
0.5908375748641375
 20
0.1189305525455183
 30
0.0
 10
0.5938055210200831
 20
0.1264704192586674
 30
0.0
 10
0.5974363938212419
 20
0.1337772809460357
 30
0.0
 10
0.6017358493775833
 20
0.1408433623646402
 30
0.0
 10
0.6050553260744737
 20
0.1453007290580554
 30
0.0
 10
0.6067273984252571
 20
0.1475459744042103
 30
0.0
  0
SPLINE
  5
BC
330
1F
100
AcDbEntity
  8
0
  6
Continuous
 62
     7
370
    25
100
AcDbSpline
210
0.0
220
0.0
230
1.0
 70
     8
 71
     3
 72
    23
 73
    19
 74
     0
 42
0.000000001
 43
0.00000001
 40
0.0
 40
0.0
 40
0.0
 40
0.0
 40
0.0715786576891426
 40
0.139629224692848
 40
0.2047966973966656
 40
0.2681349633966821
 40
0.329813746986731
 40
0.3913013977745602
 40
0.4534335150970547
 40
0.5165516903197663
 40
0.5796312707049229
 40
0.6411189214927527
 40
0.7012940466987745
 40
0.7608103356761334
 40
0.8199317217781439
 40
0.8789195754993824
 40
0.9389828222504466
 40
0.9999999999999999
 40
0.9999999999999999
 40
0.9999999999999999
 40
0.9999999999999999
 10
0.6775907798355137
 20
-0.0075021025188666
 30
0.0
 10
0.6740806385829821
 20
-0.0074201614238972
 30
0.0
 10
0.6672333698931738
 20
-0.0072603180860861
 30
0.0
 10
0.6572662450993983
 20
-0.0058822849121956
 30
0.0
 10
0.6478820009281469
 20
-0.0036342592912186
 30
0.0
 10
0.6390811649743177
 20
-0.0004938634704134
 30
0.0
 10
0.6308852897902072
 20
0.003608088250321
 30
0.0
 10
0.6232780858750697
 20
0.0086051940934443
 30
0.0
 10
0.6162195483130003
 20
0.0144717837140548
 30
0.0
 10
0.6099321047997752
 20
0.0212586725345524
 30
0.0
 10
0.6042718274633153
 20
0.0285216694842237
 30
0.0
 10
0.5992771260364804
 20
0.0360899469475082
 30
0.0
 10
0.5951015952472345
 20
0.0439444629813594
 30
0.0
 10
0.5917049802332544
 20
0.0520352146987557
 30
0.0
 10
0.5889617755925538
 20
0.0603112070946937
 30
0.0
 10
0.5870498681804737
 20
0.068847740492495
 30
0.0
 10
0.5859477433246123
 20
0.0776217107953645
 30
0.0
 10
0.5857788543576584
 20
0.0835572347752042
 30
0.0
 10
0.5856937445791033
 20
0.0865483782503641
 30
0.0
  0
SPLINE
  5
BD
330
1F
100
AcDbEntity
  8
0
  6
Continuous
 62
     7
370
    25
100
AcDbSpline
210
0.0
220
0.0
230
1.0
 70
     8
 71
     3
 72
    19
 73
    15
 74
     0
 42
0.000000001
 43
0.00000001
 40
0.0
 40
0.0
 40
0.0
 40
0.0
 40
0.0933698567361952
 40
0.1816607660710048
 40
0.2658742270426197
 40
0.3463547840343089
 40
0.424599861717893
 40
0.5019031838373772
 40
0.5799920909873485
 40
0.6584434305294308
 40
0.7386722364878345
 40
0.8218941484362454
 40
0.9088007920466157
 40
1.0
 40
1.0
 40
1.0
 40
1.0
 10
0.7619757958611549
 20
0.0429285865836975
 30
0.0
 10
0.760387467629728
 20
0.0401112057783174
 30
0.0
 10
0.7572972098808228
 20
0.0346296984341951
 30
0.0
 10
0.751982870745768
 20
0.0270988512576188
 30
0.0
 10
0.746412008418754
 20
0.020324014411993
 30
0.0
 10
0.7403331535613559
 20
0.0144861819631436
 30
0.0
 10
0.7339281764932122
 20
0.0093967973221292
 30
0.0
 10
0.727161558294235
 20
0.0049440955564902
 30
0.0
 10
0.7199980713131388
 20
0.0011499155317892
 30
0.0
 10
0.7124373766861205
 20
-0.0020466936019804
 30
0.0
 10
0.7044159801760134
 20
-0.004504514609689
 30
0.0
 10
0.6959144432895819
 20
-0.0062405303897611
 30
0.0
 10
0.6869164793339542
 20
-0.0073136210076494
 30
0.0
 10
0.6807488950576859
 20
-0.0074382739202963
 30
0.0
 10
0.6775907798355137
 20
-0.0075021025188666
 30
0.0
  0
SPLINE
  5
BF
330
1F
100
AcDbEntity
  8
0
  6
Continuous
 62
     7
370
    25
100
AcDbSpline
210
0.0
220
0.0
230
1.0
 70
     8
 71
     3
 72
    19
 73
    15
 74
     0
 42
0.000000001
 43
0.00000001
 40
0.0
 40
0.0
 40
0.0
 40
0.0
 40
0.0825922633314344
 40
0.1638788940984965
 40
0.2456587396295034
 40
0.3277256953541209
 40
0.4086099609103175
 40
0.4857490859539283
 40
0.5591690561972775
 40
0.6302684758575446
 40
0.7053060284320688
 40
0.7920649660966067
 40
0.8897964374100888
 40
1.0
 40
1.0
 40
1.0
 40
1.0
 10
0.6747862926560266
 20
0.0149337949170308
 30
0.0
 10
0.6770256603420278
 20
0.014977227535595
 30
0.0
 10
0.681468995408281
 20
0.0150634061824925
 30
0.0
 10
0.6880861995042162
 20
0.015901399818993
 30
0.0
 10
0.694596165747039
 20
0.0172564195062131
 30
0.0
 10
0.7009719502661264
 20
0.0191057045121892
 30
0.0
 10
0.7070841535458906
 20
0.0213611939483842
 30
0.0
 10
0.7127445499788354
 20
0.0240828266376041
 30
0.0
 10
0.717950279666416
 20
0.0270935228335276
 30
0.0
 10
0.7228157772797231
 20
0.0305370710512722
 30
0.0
 10
0.7275351339477255
 20
0.0347519415514869
 30
0.0
 10
0.7322167401202065
 20
0.0400116359078139
 30
0.0
 10
0.7372365010747267
 20
0.0462321736066427
 30
0.0
 10
0.7403786148421381
 20
0.0509140068907797
 30
0.0
 10
0.7420439048355137
 20
0.0533953333785693
 30
0.0
  0
SPLINE
  5
C2
330
1F
100
AcDbEntity
  8
0
  6
Continuous
 62
     7
370
    25
100
AcDbSpline
210
0.0
220
0.0
230
1.0
 70
     8
 71
     3
 72
    15
 73
    11
 74
     0
 42
0.000000001
 43
0.00000001
 40
0.0
 40
0.0
 40
0.0
 40
0.0
 40
0.0708548685015312
 40
0.1569381495573537
 40
0.2586003949600847
 40
0.3758909295892028
 40
0.508166167698903
 40
0.6562378085782241
 40
0.8201767703979103
 40
1.0
 40
1.0
 40
1.0
 40
1.0
 10
0.2755975907329495
 20
0.1198015833785693
 30
0.0
 10
0.2752595626354439
 20
0.1183532138372249
 30
0.0
 10
0.2745108560858044
 20
0.1151451853629513
 30
0.0
 10
0.273782889096974
 20
0.1097631478828249
 30
0.0
 10
0.2730636378129352
 20
0.1034043151139678
 30
0.0
 10
0.2725567365021681
 20
0.0960509870508567
 30
0.0
 10
0.2720868763502192
 20
0.0877215267702738
 30
0.0
 10
0.2718218704768521
 20
0.0784032449400161
 30
0.0
 10
0.2716002175799412
 20
0.0680865770012984
 30
0.0
 10
0.2715942842320197
 20
0.060874123198997
 30
0.0
 10
0.2715911804765393
 20
0.0571012628657488
 30
0.0
  0
SPLINE
  5
C3
330
1F
100
AcDbEntity
  8
0
  6
Continuous
 62
     7
370
    25
100
AcDbSpline
210
0.0
220
0.0
230
1.0
 70
     8
 71
     3
 72
    19
 73
    15
 74
     0
 42
0.000000001
 43
0.00000001
 40
0.0
 40
0.0
 40
0.0
 40
0.0
 40
0.0938065293523341
 40
0.1913381281363405
 40
0.2951906166251704
 40
0.4103123367232985
 40
0.4719302510512787
 40
0.5364251593464332
 40
0.6031187283036311
 40
0.674117672490598
 40
0.749332023225888
 40
0.8282833841715629
 40
0.9120398092627611
 40
1.0
 40
1.0
 40
1.0
 40
1.0
 10
0.3119056836816675
 20
0.1591645641478001
 30
0.0
 10
0.3101052741451662
 20
0.1590445614786166
 30
0.0
 10
0.3064329605762556
 20
0.158799790818712
 30
0.0
 10
0.301041210618417
 20
0.1568755902639275
 30
0.0
 10
0.2958092673683215
 20
0.1537666445415591
 30
0.0
 10
0.2916541486300349
 20
0.1503187079807832
 30
0.0
 10
0.2884368448532618
 20
0.1469938653047554
 30
0.0
 10
0.2861411144582069
 20
0.1440904079785421
 30
0.0
 10
0.2840352039615159
 20
0.1408347914407965
 30
0.0
 10
0.28202304536148
 20
0.1372826711691297
 30
0.0
 10
0.2801897386322553
 20
0.1333733964525405
 30
0.0
 10
0.2784786908319887
 20
0.1291460240652619
 30
0.0
 10
0.2769316291946762
 20
0.1245956577245632
 30
0.0
 10
0.2760494688929446
 20
0.1214254777088297
 30
0.0
 10
0.2755975907329495
 20
0.1198015833785693
 30
0.0
  0
SPLINE
  5
C4
330
1F
100
AcDbEntity
  8
0
  6
Continuous
 62
     7
370
    25
100
AcDbSpline
210
0.0
220
0.0
230
1.0
 70
     8
 71
     3
 72
    11
 73
     7
 74
     0
 42
0.000000001
 43
0.00000001
 40
0.0
 40
0.0
 40
0.0
 40
0.0
 40
0.2951388013693786
 40
0.560229944888239
 40
0.7949833567409018
 40
1.0
 40
1.0
 40
1.0
 40
1.0
 10
0.3233740330406419
 20
0.1559093558144667
 30
0.0
 10
0.3222948172446514
 20
0.1563908033941198
 30
0.0
 10
0.3202462590642124
 20
0.1573046830662071
 30
0.0
 10
0.3172495043307302
 20
0.1583862552184955
 30
0.0
 10
0.3144865517070963
 20
0.1590231063505039
 30
0.0
 10
0.3127262975383197
 20
0.1591195861685121
 30
0.0
 10
0.3119056836816675
 20
0.1591645641478001
 30
0.0
  0
SPLINE
  5
C6
330
1F
100
AcDbEntity
  8
0
  6
Continuous
 62
     7
370
    25
100
AcDbSpline
210
0.0
220
0.0
230
1.0
 70
     8
 71
     3
 72
    11
 73
     7
 74
     0
 42
0.000000001
 43
0.00000001
 40
0.0
 40
0.0
 40
0.0
 40
0.0
 40
0.2252775478670078
 40
0.4635231951764783
 40
0.7203235553269215
 40
1.0
 40
1.0
 40
1.0
 40
1.0
 10
0.3161624945791034
 20
0.1816004615836975
 30
0.0
 10
0.3177215178995813
 20
0.1815154239697747
 30
0.0
 10
0.3209293096999836
 20
0.1813404535526654
 30
0.0
 10
0.3257852089717154
 20
0.1801111089353899
 30
0.0
 10
0.3307883126795444
 20
0.1781483930387476
 30
0.0
 10
0.3340127689117262
 20
0.1763026628483911
 30
0.0
 10
0.3356937445791034
 20
0.1753404455580564
 30
0.0
  0
SPLINE
  5
C7
330
1F
100
AcDbEntity
  8
0
  6
Continuous
 62
     7
370
    25
100
AcDbSpline
210
0.0
220
0.0
230
1.0
 70
     8
 71
     3
 72
    15
 73
    11
 74
     0
 42
0.000000001
 43
0.00000001
 40
0.0
 40
0.0
 40
0.0
 40
0.0
 40
0.1600594124854929
 40
0.3061123827401263
 40
0.4383665141302044
 40
0.5605414552552181
 40
0.6753172249527014
 40
0.7861136344281768
 40
0.8928417881050882
 40
1.0
 40
1.0
 40
1.0
 40
1.0
 10
0.2715911804765393
 20
0.1515023045324154
 30
0.0
 10
0.2732475203873465
 20
0.1540062922699791
 30
0.0
 10
0.2764152575972449
 20
0.1587951493624488
 30
0.0
 10
0.2816804668367987
 20
0.1651286708618664
 30
0.0
 10
0.2870735619281134
 20
0.1703726027626813
 30
0.0
 10
0.2926203610211523
 20
0.1745514255319594
 30
0.0
 10
0.2983616538718771
 20
0.1776809340193762
 30
0.0
 10
0.3041714361374478
 20
0.179973293664486
 30
0.0
 10
0.3101411125558384
 20
0.1813288161814386
 30
0.0
 10
0.3141526785721158
 20
0.1815097918212451
 30
0.0
 10
0.3161624945791034
 20
0.1816004615836975
 30
0.0
  0
LINE
  5
DB
330
1F
100
AcDbEntity
  8
0
  6
Continuous
 62
     7
370
    25
100
AcDbLine
 10
0.610483408
 20
0.1046773847
 30
0.0
 11
0.749155283
 21
0.1046773847
 31
0.0
  0
LINE
  5
DC
330
1F
100
AcDbEntity
  8
0
  6
Continuous
 62
     7
370
    25
100
AcDbLine
 10
-0.5393062554
 20
-0.0042969743
 30
0.0
 11
-0.6803318964
 21
-0.0042969743
 31
0.0
  0
LINE
  5
DD
330
1F
100
AcDbEntity
  8
0
  6
Continuous
 62
     7
370
    25
100
AcDbLine
 10
-0.5393062554
 20
0.0213440513
 30
0.0
 11
-0.5393062554
 21
-0.0042969743
 31
0.0
  0
LINE
  5
DE
330
1F
100
AcDbEntity
  8
0
  6
Continuous
 62
     7
370
    25
100
AcDbLine
 10
-0.657895999
 20
0.0213440513
 30
0.0
 11
-0.5393062554
 21
0.0213440513
 31
0.0
  0
LINE
  5
DF
330
1F
100
AcDbEntity
  8
0
  6
Continuous
 62
     7
370
    25
100
AcDbLine
 10
-0.657895999
 20
0.1174978975
 30
0.0
 11
-0.657895999
 21
0.0213440513
 31
0.0
  0
LINE
  5
E0
330
1F
100
AcDbEntity
  8
0
  6
Continuous
 62
     7
370
    25
100
AcDbLine
 10
-0.5393062554
 20
0.1174978975
 30
0.0
 11
-0.657895999
 21
0.1174978975
 31
0.0
  0
LINE
  5
E1
330
1F
100
AcDbEntity
  8
0
  6
Continuous
 62
     7
370
    25
100
AcDbLine
 10
-0.5393062554
 20
0.1431389231
 30
0.0
 11
-0.5393062554
 21
0.1174978975
 31
0.0
  0
LINE
  5
E2
330
1F
100
AcDbEntity
  8
0
  6
Continuous
 62
     7
370
    25
100
AcDbLine
 10
-0.657895999
 20
0.1431389231
 30
0.0
 11
-0.5393062554
 21
0.1431389231
 31
0.0
  0
LINE
  5
E3
330
1F
100
AcDbEntity
  8
0
  6
Continuous
 62
     7
370
    25
100
AcDbLine
 10
-0.657895999
 20
0.220062
 30
0.0
 11
-0.657895999
 21
0.1431389231
 31
0.0
  0
LINE
  5
E4
330
1F
100
AcDbEntity
  8
0
  6
Continuous
 62
     7
370
    25
100
AcDbLine
 10
-0.5393062554
 20
0.220062
 30
0.0
 11
-0.657895999
 21
0.220062
 31
0.0
  0
LINE
  5
E5
330
1F
100
AcDbEntity
  8
0
  6
Continuous
 62
     7
370
    25
100
AcDbLine
 10
-0.5393062554
 20
0.2457030257
 30
0.0
 11
-0.5393062554
 21
0.220062
 31
0.0
  0
LINE
  5
E6
330
1F
100
AcDbEntity
  8
0
  6
Continuous
 62
     7
370
    25
100
AcDbLine
 10
-0.6803318964
 20
0.2457030257
 30
0.0
 11
-0.5393062554
 21
0.2457030257
 31
0.0
  0
LINE
  5
E7
330
1F
100
AcDbEntity
  8
0
  6
Continuous
 62
     7
370
    25
100
AcDbLine
 10
-0.6803318964
 20
-0.0042969743
 30
0.0
 11
-0.6803318964
 21
0.2457030257
 31
0.0
  0
LINE
  5
E8
330
1F
100
AcDbEntity
  8
0
  6
Continuous
 62
     7
370
    25
100
AcDbLine
 10
-0.2780883067
 20
-0.0042969743
 30
0.0
 11
-0.1964576977
 21
0.1232070321
 31
0.0
  0
LINE
  5
E9
330
1F
100
AcDbEntity
  8
0
  6
Continuous
 62
     7
370
    25
100
AcDbLine
 10
-0.2521968804
 20
-0.0042969743
 30
0.0
 11
-0.2780883067
 21
-0.0042969743
 31
0.0
  0
LINE
  5
EA
330
1F
100
AcDbEntity
  8
0
  6
Continuous
 62
     7
370
    25
100
AcDbLine
 10
-0.1835370247
 20
0.1029746603
 30
0.0
 11
-0.2521968804
 21
-0.0042969743
 31
0.0
  0
LINE
  5
EB
330
1F
100
AcDbEntity
  8
0
  6
Continuous
 62
     7
370
    25
100
AcDbLine
 10
-0.1148771689
 20
-0.0042969743
 30
0.0
 11
-0.1835370247
 21
0.1029746603
 31
0.0
  0
LINE
  5
EC
330
1F
100
AcDbEntity
  8
0
  6
Continuous
 62
     7
370
    25
100
AcDbLine
 10
-0.0889857426
 20
-0.0042969743
 30
0.0
 11
-0.1148771689
 21
-0.0042969743
 31
0.0
  0
LINE
  5
ED
330
1F
100
AcDbEntity
  8
0
  6
Continuous
 62
     7
370
    25
100
AcDbLine
 10
-0.1705662714
 20
0.1232070321
 30
0.0
 11
-0.0889857426
 21
-0.0042969743
 31
0.0
  0
LINE
  5
EE
330
1F
100
AcDbEntity
  8
0
  6
Continuous
 62
     7
370
    25
100
AcDbLine
 10
-0.0921908708
 20
0.2457030257
 30
0.0
 11
-0.1705662714
 21
0.1232070321
 31
0.0
  0
LINE
  5
EF
330
1F
100
AcDbEntity
  8
0
  6
Continuous
 62
     7
370
    25
100
AcDbLine
 10
-0.1180822971
 20
0.2457030257
 30
0.0
 11
-0.0921908708
 21
0.2457030257
 31
0.0
  0
LINE
  5
F0
330
1F
100
AcDbEntity
  8
0
  6
Continuous
 62
     7
370
    25
100
AcDbLine
 10
-0.1835370247
 20
0.1434394039
 30
0.0
 11
-0.1180822971
 21
0.2457030257
 31
0.0
  0
LINE
  5
F1
330
1F
100
AcDbEntity
  8
0
  6
Continuous
 62
     7
370
    25
100
AcDbLine
 10
-0.2489917522
 20
0.2457030257
 30
0.0
 11
-0.1835370247
 21
0.1434394039
 31
0.0
  0
LINE
  5
F2
330
1F
100
AcDbEntity
  8
0
  6
Continuous
 62
     7
370
    25
100
AcDbLine
 10
-0.2748831785
 20
0.2457030257
 30
0.0
 11
-0.2489917522
 21
0.2457030257
 31
0.0
  0
LINE
  5
F3
330
1F
100
AcDbEntity
  8
0
  6
Continuous
 62
     7
370
    25
100
AcDbLine
 10
-0.1964576977
 20
0.1232070321
 30
0.0
 11
-0.2748831785
 21
0.2457030257
 31
0.0
  0
LINE
  5
F4
330
1F
100
AcDbEntity
  8
0
  6
Continuous
 62
     7
370
    25
100
AcDbLine
 10
0.1818475907
 20
0.1445912468
 30
0.0
 11
0.1818475907
 21
0.1783953334
 31
0.0
  0
LINE
  5
F5
330
1F
100
AcDbEntity
  8
0
  6
Continuous
 62
     7
370
    25
100
AcDbLine
 10
0.1818475907
 20
-0.0042969743
 30
0.0
 11
0.1818475907
 21
0.0273035866
 31
0.0
  0
LINE
  5
F6
330
1F
100
AcDbEntity
  8
0
  6
Continuous
 62
     7
370
    25
100
AcDbLine
 10
0.2042834882
 20
-0.0042969743
 30
0.0
 11
0.1818475907
 21
-0.0042969743
 31
0.0
  0
LINE
  5
F7
330
1F
100
AcDbEntity
  8
0
  6
Continuous
 62
     7
370
    25
100
AcDbLine
 10
0.2042834882
 20
0.1783953334
 30
0.0
 11
0.2042834882
 21
-0.0042969743
 31
0.0
  0
LINE
  5
F8
330
1F
100
AcDbEntity
  8
0
  6
Continuous
 62
     7
370
    25
100
AcDbLine
 10
0.1818475907
 20
0.1783953334
 30
0.0
 11
0.2042834882
 21
0.1783953334
 31
0.0
  0
LINE
  5
F9
330
1F
100
AcDbEntity
  8
0
  6
Continuous
 62
     7
370
    25
100
AcDbLine
 10
0.5183860523
 20
0.0212438911
 30
0.0
 11
0.5183860523
 21
0.0307090353
 31
0.0
  0
LINE
  5
FA
330
1F
100
AcDbEntity
  8
0
  6
Continuous
 62
     7
370
    25
100
AcDbLine
 10
0.3549245138
 20
-0.0171174871
 30
0.0
 11
0.3773604112
 21
-0.0171174871
 31
0.0
  0
LINE
  5
FB
330
1F
100
AcDbEntity
  8
0
  6
Continuous
 62
     7
370
    25
100
AcDbLine
 10
0.5408219497
 20
0.1783953334
 30
0.0
 11
0.5408219497
 21
0.0334133622
 31
0.0
  0
LINE
  5
FC
330
1F
100
AcDbEntity
  8
0
  6
Continuous
 62
     7
370
    25
100
AcDbLine
 10
0.5183860523
 20
0.1783953334
 30
0.0
 11
0.5408219497
 21
0.1783953334
 31
0.0
  0
LINE
  5
FD
330
1F
100
AcDbEntity
  8
0
  6
Continuous
 62
     7
370
    25
100
AcDbLine
 10
0.5183860523
 20
0.1464442116
 30
0.0
 11
0.5183860523
 21
0.1783953334
 31
0.0
  0
LINE
  5
FE
330
1F
100
AcDbEntity
  8
0
  6
Continuous
 62
     7
370
    25
100
AcDbLine
 10
-2.855
 20
-2.38
 30
0.0
 11
2.855
 21
-2.38
 31
0.0
  0
LINE
  5
FF
330
1F
100
AcDbEntity
  8
0
  6
Continuous
 62
     7
370
    25
100
AcDbLine
 10
-2.855
 20
2.38
 30
0.0
 11
-2.855
 21
-2.38
 31
0.0
  0
LINE
  5
100
330
1F
100
AcDbEntity
  8
0
  6
Continuous
 62
     7
370
    25
100
AcDbLine
 10
2.855
 20
2.38
 30
0.0
 11
-2.855
 21
2.38
 31
0.0
  0
LINE
  5
101
330
1F
100
AcDbEntity
  8
0
  6
Continuous
 62
     7
370
    25
100
AcDbLine
 10
2.855
 20
-2.38
 30
0.0
 11
2.855
 21
2.38
 31
0.0
  0
LINE
  5
102
330
1F
100
AcDbEntity
  8
0
  6
Continuous
 62
     7
370
    25
100
AcDbLine
 10
0.7715911805
 20
0.0822414872
 30
0.0
 11
0.608129642
 21
0.0822414872
 31
0.0
  0
LINE
  5
103
330
1F
100
AcDbEntity
  8
0
  6
Continuous
 62
     7
370
    25
100
AcDbLine
 10
0.7420439048
 20
0.0533953334
 30
0.0
 11
0.7619757959
 21
0.0429285866
 31
0.0
  0
LINE
  5
104
330
1F
100
AcDbEntity
  8
0
  6
Continuous
 62
     7
370
    25
100
AcDbLine
 10
0.2715911805
 20
-0.0042969743
 30
0.0
 11
0.249155283
 21
-0.0042969743
 31
0.0
  0
LINE
  5
105
330
1F
100
AcDbEntity
  8
0
  6
Continuous
 62
     7
370
    25
100
AcDbLine
 10
0.2715911805
 20
0.0571012629
 30
0.0
 11
0.2715911805
 21
-0.0042969743
 31
0.0
  0
LINE
  5
106
330
1F
100
AcDbEntity
  8
0
  6
Continuous
 62
     7
370
    25
100
AcDbLine
 10
0.3356937446
 20
0.1753404456
 30
0.0
 11
0.323374033
 21
0.1559093558
 31
0.0
  0
LINE
  5
107
330
1F
100
AcDbEntity
  8
0
  6
Continuous
 62
     7
370
    25
100
AcDbLine
 10
0.2715911805
 20
0.1783953334
 30
0.0
 11
0.2715911805
 21
0.1515023045
 31
0.0
  0
LINE
  5
108
330
1F
100
AcDbEntity
  8
0
  6
Continuous
 62
     7
370
    25
100
AcDbLine
 10
0.249155283
 20
0.1783953334
 30
0.0
 11
0.2715911805
 21
0.1783953334
 31
0.0
  0
LINE
  5
109
330
1F
100
AcDbEntity
  8
0
  6
Continuous
 62
     7
370
    25
100
AcDbLine
 10
0.249155283
 20
-0.0042969743
 30
0.0
 11
0.249155283
 21
0.1783953334
 31
0.0
  0
LINE
  5
10A
330
1F
100
AcDbEntity
  8
0
  6
Continuous
 62
     7
370
    25
100
AcDbLine
 10
-0.032895999
 20
-0.0042969743
 30
0.0
 11
-0.0553318964
 21
-0.0042969743
 31
0.0
  0
LINE
  5
10B
330
1F
100
AcDbEntity
  8
0
  6
Continuous
 62
     7
370
    25
100
AcDbLine
 10
-0.032895999
 20
0.2521132821
 30
0.0
 11
-0.032895999
 21
-0.0042969743
 31
0.0
  0
LINE
  5
10C
330
1F
100
AcDbEntity
  8
0
  6
Continuous
 62
     7
370
    25
100
AcDbLine
 10
-0.0553318964
 20
0.2521132821
 30
0.0
 11
-0.032895999
 21
0.2521132821
 31
0.0
  0
LINE
  5
10D
330
1F
100
AcDbEntity
  8
0
  6
Continuous
 62
     7
370
    25
100
AcDbLine
 10
-0.0553318964
 20
-0.0042969743
 30
0.0
 11
-0.0553318964
 21
0.2521132821
 31
0.0
  0
LINE
  5
10E
330
1F
100
AcDbEntity
  8
0
  6
Continuous
 62
     7
370
    25
100
AcDbLine
 10
-0.4719985631
 20
-0.0042969743
 30
0.0
 11
-0.4944344605
 21
-0.0042969743
 31
0.0
  0
LINE
  5
10F
330
1F
100
AcDbEntity
  8
0
  6
Continuous
 62
     7
370
    25
100
AcDbLine
 10
-0.4719985631
 20
0.1174978975
 30
0.0
 11
-0.4719985631
 21
-0.0042969743
 31
0.0
  0
LINE
  5
110
330
1F
100
AcDbEntity
  8
0
  6
Continuous
 62
     7
370
    25
100
AcDbLine
 10
-0.3437934349
 20
0.1174978975
 30
0.0
 11
-0.4719985631
 21
0.1174978975
 31
0.0
  0
LINE
  5
111
330
1F
100
AcDbEntity
  8
0
  6
Continuous
 62
     7
370
    25
100
AcDbLine
 10
-0.3437934349
 20
-0.0042969743
 30
0.0
 11
-0.3437934349
 21
0.1174978975
 31
0.0
  0
LINE
  5
112
330
1F
100
AcDbEntity
  8
0
  6
Continuous
 62
     7
370
    25
100
AcDbLine
 10
-0.3213575375
 20
-0.0042969743
 30
0.0
 11
-0.3437934349
 21
-0.0042969743
 31
0.0
  0
LINE
  5
113
330
1F
100
AcDbEntity
  8
0
  6
Continuous
 62
     7
370
    25
100
AcDbLine
 10
-0.3213575375
 20
0.2457030257
 30
0.0
 11
-0.3213575375
 21
-0.0042969743
 31
0.0
  0
LINE
  5
114
330
1F
100
AcDbEntity
  8
0
  6
Continuous
 62
     7
370
    25
100
AcDbLine
 10
-0.3437934349
 20
0.2457030257
 30
0.0
 11
-0.3213575375
 21
0.2457030257
 31
0.0
  0
LINE
  5
115
330
1F
100
AcDbEntity
  8
0
  6
Continuous
 62
     7
370
    25
100
AcDbLine
 10
-0.3437934349
 20
0.1431389231
 30
0.0
 11
-0.3437934349
 21
0.2457030257
 31
0.0
  0
LINE
  5
116
330
1F
100
AcDbEntity
  8
0
  6
Continuous
 62
     7
370
    25
100
AcDbLine
 10
-0.4719985631
 20
0.1431389231
 30
0.0
 11
-0.3437934349
 21
0.1431389231
 31
0.0
  0
LINE
  5
117
330
1F
100
AcDbEntity
  8
0
  6
Continuous
 62
     7
370
    25
100
AcDbLine
 10
-0.4719985631
 20
0.2457030257
 30
0.0
 11
-0.4719985631
 21
0.1431389231
 31
0.0
  0
LINE
  5
118
330
1F
100
AcDbEntity
  8
0
  6
Continuous
 62
     7
370
    25
100
AcDbLine
 10
-0.4944344605
 20
0.2457030257
 30
0.0
 11
-0.4719985631
 21
0.2457030257
 31
0.0
  0
LINE
  5
119
330
1F
100
AcDbEntity
  8
0
  6
Continuous
 62
     7
370
    25
100
AcDbLine
 10
-0.4944344605
 20
-0.0042969743
 30
0.0
 11
-0.4944344605
 21
0.2457030257
 31
0.0
  0
MTEXT
  5
11B
330
1F
100
AcDbEntity
  8
0
  6
Continuous
 62
     7
100
AcDbMText
 10
-2.855
 20
-2.4201404091
 30
0.0
 40
0.1903
 41
0.0
 71
     1
 72
     1
  1
SOLIDWORKS Educational Product.
  7
SLDTEXTSTYLE0
 73
     1
 44
1.0
  0
MTEXT
  5
11C
330
1F
100
AcDbEntity
  8
0
  6
Continuous
 62
     7
100
AcDbMText
 10
-2.855
 20
-2.7055904091
 30
0.0
 40
0.1903
 41
0.0
 71
     1
 72
     1
  1
For Instructional Use Only.
  7
SLDTEXTSTYLE0
 73
     1
 44
1.0
  0
ENDSEC
  0
SECTION
  2
OBJECTS
  0
DICTIONARY
  5
C
330
0
100
AcDbDictionary
281
     1
  3
ACAD_GROUP
350
D
  3
ACAD_LAYOUT
350
1A
  3
ACAD_MLINESTYLE
350
17
  3
ACAD_PLOTSETTINGS
350
19
  3
ACAD_PLOTSTYLENAME
350
E
  3
ACAD_SCALELIST
350
47
  0
DICTIONARY
  5
D
102
{ACAD_REACTORS
330
C
102
}
330
C
100
AcDbDictionary
281
     1
  0
DICTIONARY
  5
1A
102
{ACAD_REACTORS
330
C
102
}
330
C
100
AcDbDictionary
281
     1
  3
Layout1
350
1E
  3
Layout2
350
26
  3
Model
350
22
  0
DICTIONARY
  5
17
102
{ACAD_REACTORS
330
C
102
}
330
C
100
AcDbDictionary
281
     1
  3
Standard
350
18
  0
DICTIONARY
  5
19
102
{ACAD_REACTORS
330
C
102
}
330
C
100
AcDbDictionary
281
     1
  0
ACDBDICTIONARYWDFLT
  5
E
102
{ACAD_REACTORS
330
C
102
}
330
C
100
AcDbDictionary
281
     1
  3
Normal
350
F
100
AcDbDictionaryWithDefault
340
F
  0
DICTIONARY
  5
47
102
{ACAD_REACTORS
330
C
102
}
330
C
100
AcDbDictionary
281
     1
  3
A0
350
48
  3
A1
350
49
  3
A2
350
4A
  3
A3
350
4B
  3
A4
350
4C
  3
A5
350
4D
  3
A6
350
4E
  3
A7
350
4F
  3
A8
350
50
  3
A9
350
51
  3
B0
350
52
  3
B1
350
53
  3
B2
350
54
  3
B3
350
55
  3
B4
350
56
  3
B5
350
57
  3
B6
350
58
  3
B7
350
59
  3
B8
350
5A
  3
B9
350
5B
  3
C0
350
5C
  3
C1
350
5D
  3
C2
350
5E
  3
C3
350
5F
  3
C4
350
60
  3
C5
350
61
  3
C6
350
62
  3
C7
350
63
  3
C8
350
64
  3
C9
350
65
  3
D0
350
66
  3
D1
350
67
  3
D2
350
68
  0
LAYOUT
  5
1E
102
{ACAD_REACTORS
330
1A
102
}
330
1A
100
AcDbPlotSettings
  1

  2
none_device
  4

  6

 40
0.0
 41
0.0
 42
0.0
 43
0.0
 44
0.0
 45
0.0
 46
0.0
 47
0.0
 48
0.0
 49
0.0
140
0.0
141
0.0
142
1.0
143
1.0
 70
   688
 72
     0
 73
     0
 74
     5
  7

 75
    16
147
1.0
148
0.0
149
0.0
100
AcDbLayout
  1
Layout1
 70
     1
 71
     1
 10
0.0
 20
0.0
 11
12.0
 21
9.0
 12
0.0
 22
0.0
 32
0.0
 14
1.0000000000E+20
 24
1.0000000000E+20
 34
1.0000000000E+20
 15
-1.0000000000E+20
 25
-1.0000000000E+20
 35
-1.0000000000E+20
146
0.0
 13
0.0
 23
0.0
 33
0.0
 16
1.0
 26
0.0
 36
0.0
 17
0.0
 27
1.0
 37
0.0
 76
     0
330
1B
  0
LAYOUT
  5
26
102
{ACAD_REACTORS
330
1A
102
}
330
1A
100
AcDbPlotSettings
  1

  2
none_device
  4

  6

 40
0.0
 41
0.0
 42
0.0
 43
0.0
 44
0.0
 45
0.0
 46
0.0
 47
0.0
 48
0.0
 49
0.0
140
0.0
141
0.0
142
1.0
143
1.0
 70
   688
 72
     0
 73
     0
 74
     5
  7

 75
    16
147
1.0
148
0.0
149
0.0
100
AcDbLayout
  1
Layout2
 70
     1
 71
     2
 10
0.0
 20
0.0
 11
0.0
 21
0.0
 12
0.0
 22
0.0
 32
0.0
 14
0.0
 24
0.0
 34
0.0
 15
0.0
 25
0.0
 35
0.0
146
0.0
 13
0.0
 23
0.0
 33
0.0
 16
1.0
 26
0.0
 36
0.0
 17
0.0
 27
1.0
 37
0.0
 76
     0
330
23
  0
LAYOUT
  5
22
102
{ACAD_REACTORS
330
1A
102
}
330
1A
100
AcDbPlotSettings
  1

  2
none_device
  4
ANSI_A_(11.00_x_8.50_Inches)
  6

 40
6.35
 41
19.05
 42
6.35000508
 43
19.05000254
 44
279.4
 45
215.9
 46
133.34999746
 47
88.89999873
 48
0.0
 49
0.0
140
0.0
141
0.0
142
1.7678571429
143
1.0
 70
  1696
 72
     0
 73
     0
 74
     0
  7

 75
     0
147
0.5913241897
148
-39.4088153714
149
0.0
100
AcDbLayout
  1
Model
 70
     1
 71
     0
 10
0.0
 20
0.0
 11
12.0
 21
9.0
 12
0.0
 22
0.0
 32
0.0
 14
-2.855
 24
-2.38
 34
0.0
 15
2.855
 25
2.38
 35
0.0
146
0.0
 13
0.0
 23
0.0
 33
0.0
 16
1.0
 26
0.0
 36
0.0
 17
0.0
 27
1.0
 37
0.0
 76
     0
330
1F
331
29
  0
MLINESTYLE
  5
18
102
{ACAD_REACTORS
330
17
102
}
330
17
100
AcDbMlineStyle
  2
Standard
 70
     0
  3

 62
   256
 51
90.0
 52
90.0
 71
     2
 49
0.5
 62
   256
  6
BYLAYER
 49
-0.5
 62
   256
  6
BYLAYER
  0
ACDBPLACEHOLDER
  5
F
102
{ACAD_REACTORS
330
E
102
}
330
E
  0
SCALE
  5
48
102
{ACAD_REACTORS
330
47
102
}
330
47
100
AcDbScale
 70
     0
300
1:1
140
1.0
141
1.0
290
     1
  0
SCALE
  5
49
102
{ACAD_REACTORS
330
47
102
}
330
47
100
AcDbScale
 70
     0
300
1:2
140
1.0
141
2.0
290
     0
  0
SCALE
  5
4A
102
{ACAD_REACTORS
330
47
102
}
330
47
100
AcDbScale
 70
     0
300
1:4
140
1.0
141
4.0
290
     0
  0
SCALE
  5
4B
102
{ACAD_REACTORS
330
47
102
}
330
47
100
AcDbScale
 70
     0
300
1:5
140
1.0
141
5.0
290
     0
  0
SCALE
  5
4C
102
{ACAD_REACTORS
330
47
102
}
330
47
100
AcDbScale
 70
     0
300
1:8
140
1.0
141
8.0
290
     0
  0
SCALE
  5
4D
102
{ACAD_REACTORS
330
47
102
}
330
47
100
AcDbScale
 70
     0
300
1:10
140
1.0
141
10.0
290
     0
  0
SCALE
  5
4E
102
{ACAD_REACTORS
330
47
102
}
330
47
100
AcDbScale
 70
     0
300
1:16
140
1.0
141
16.0
290
     0
  0
SCALE
  5
4F
102
{ACAD_REACTORS
330
47
102
}
330
47
100
AcDbScale
 70
     0
300
1:20
140
1.0
141
20.0
290
     0
  0
SCALE
  5
50
102
{ACAD_REACTORS
330
47
102
}
330
47
100
AcDbScale
 70
     0
300
1:30
140
1.0
141
30.0
290
     0
  0
SCALE
  5
51
102
{ACAD_REACTORS
330
47
102
}
330
47
100
AcDbScale
 70
     0
300
1:40
140
1.0
141
40.0
290
     0
  0
SCALE
  5
52
102
{ACAD_REACTORS
330
47
102
}
330
47
100
AcDbScale
 70
     0
300
1:50
140
1.0
141
50.0
290
     0
  0
SCALE
  5
53
102
{ACAD_REACTORS
330
47
102
}
330
47
100
AcDbScale
 70
     0
300
1:100
140
1.0
141
100.0
290
     0
  0
SCALE
  5
54
102
{ACAD_REACTORS
330
47
102
}
330
47
100
AcDbScale
 70
     0
300
2:1
140
2.0
141
1.0
290
     0
  0
SCALE
  5
55
102
{ACAD_REACTORS
330
47
102
}
330
47
100
AcDbScale
 70
     0
300
4:1
140
4.0
141
1.0
290
     0
  0
SCALE
  5
56
102
{ACAD_REACTORS
330
47
102
}
330
47
100
AcDbScale
 70
     0
300
8:1
140
8.0
141
1.0
290
     0
  0
SCALE
  5
57
102
{ACAD_REACTORS
330
47
102
}
330
47
100
AcDbScale
 70
     0
300
10:1
140
10.0
141
1.0
290
     0
  0
SCALE
  5
58
102
{ACAD_REACTORS
330
47
102
}
330
47
100
AcDbScale
 70
     0
300
100:1
140
100.0
141
1.0
290
     0
  0
SCALE
  5
59
102
{ACAD_REACTORS
330
47
102
}
330
47
100
AcDbScale
 70
     0
300
1/128" = 1'-0"
140
0.0078125
141
12.0
290
     0
  0
SCALE
  5
5A
102
{ACAD_REACTORS
330
47
102
}
330
47
100
AcDbScale
 70
     0
300
1/64" = 1'-0"
140
0.015625
141
12.0
290
     0
  0
SCALE
  5
5B
102
{ACAD_REACTORS
330
47
102
}
330
47
100
AcDbScale
 70
     0
300
1/32" = 1'-0"
140
0.03125
141
12.0
290
     0
  0
SCALE
  5
5C
102
{ACAD_REACTORS
330
47
102
}
330
47
100
AcDbScale
 70
     0
300
1/16" = 1'-0"
140
0.0625
141
12.0
290
     0
  0
SCALE
  5
5D
102
{ACAD_REACTORS
330
47
102
}
330
47
100
AcDbScale
 70
     0
300
3/32" = 1'-0"
140
0.09375
141
12.0
290
     0
  0
SCALE
  5
5E
102
{ACAD_REACTORS
330
47
102
}
330
47
100
AcDbScale
 70
     0
300
1/8" = 1'-0"
140
0.125
141
12.0
290
     0
  0
SCALE
  5
5F
102
{ACAD_REACTORS
330
47
102
}
330
47
100
AcDbScale
 70
     0
300
3/16" = 1'-0"
140
0.1875
141
12.0
290
     0
  0
SCALE
  5
60
102
{ACAD_REACTORS
330
47
102
}
330
47
100
AcDbScale
 70
     0
300
1/4" = 1'-0"
140
0.25
141
12.0
290
     0
  0
SCALE
  5
61
102
{ACAD_REACTORS
330
47
102
}
330
47
100
AcDbScale
 70
     0
300
3/8" = 1'-0"
140
0.375
141
12.0
290
     0
  0
SCALE
  5
62
102
{ACAD_REACTORS
330
47
102
}
330
47
100
AcDbScale
 70
     0
300
1/2" = 1'-0"
140
0.5
141
12.0
290
     0
  0
SCALE
  5
63
102
{ACAD_REACTORS
330
47
102
}
330
47
100
AcDbScale
 70
     0
300
3/4" = 1'-0"
140
0.75
141
12.0
290
     0
  0
SCALE
  5
64
102
{ACAD_REACTORS
330
47
102
}
330
47
100
AcDbScale
 70
     0
300
1" = 1'-0"
140
1.0
141
12.0
290
     0
  0
SCALE
  5
65
102
{ACAD_REACTORS
330
47
102
}
330
47
100
AcDbScale
 70
     0
300
1-1/2" = 1'-0"
140
1.5
141
12.0
290
     0
  0
SCALE
  5
66
102
{ACAD_REACTORS
330
47
102
}
330
47
100
AcDbScale
 70
     0
300
3" = 1'-0"
140
3.0
141
12.0
290
     0
  0
SCALE
  5
67
102
{ACAD_REACTORS
330
47
102
}
330
47
100
AcDbScale
 70
     0
300
6" = 1'-0"
140
6.0
141
12.0
290
     0
  0
SCALE
  5
68
102
{ACAD_REACTORS
330
47
102
}
330
47
100
AcDbScale
 70
     0
300
1'-0" = 1'-0"
140
12.0
141
12.0
290
     0
  0
ENDSEC
  0
EOF
