  0
SECTION
  2
HEADER
  9
$ACADVER
  1
AC1015
  9
$ACADMAINTVER
 70
     6
  9
$DWGCODEPAGE
  3
ANSI_1252
  9
$INSBASE
 10
0.0
 20
0.0
 30
0.0
  9
$EXTMIN
 10
-1.32
 20
-2.41
 30
0.0
  9
$EXTMAX
 10
1.32
 20
2.41
 30
0.0
  9
$LIMMIN
 10
0.0
 20
0.0
  9
$LIMMAX
 10
12.0
 20
9.0
  9
$ORTHOMODE
 70
     0
  9
$REGENMODE
 70
     1
  9
$FILLMODE
 70
     1
  9
$QTEXTMODE
 70
     0
  9
$MIRRTEXT
 70
     1
  9
$LTSCALE
 40
1.0
  9
$ATTMODE
 70
     1
  9
$TEXTSIZE
 40
0.125
  9
$TRACEWID
 40
0.05
  9
$TEXTSTYLE
  7
Standard
  9
$CLAYER
  8
0
  9
$CELTYPE
  6
ByLayer
  9
$CECOLOR
 62
   256
  9
$CELTSCALE
 40
1.0
  9
$DISPSILH
 70
     0
  9
$DIMSCALE
 40
1.0
  9
$DIMASZ
 40
0.13
  9
$DIMEXO
 40
0.05
  9
$DIMDLI
 40
0.38
  9
$DIMRND
 40
0.0
  9
$DIMDLE
 40
0.0
  9
$DIMEXE
 40
0.125
  9
$DIMTP
 40
0.0
  9
$DIMTM
 40
0.0
  9
$DIMTXT
 40
0.125
  9
$DIMCEN
 40
0.09
  9
$DIMTSZ
 40
0.0
  9
$DIMTOL
 70
     0
  9
$DIMLIM
 70
     0
  9
$DIMTIH
 70
     1
  9
$DIMTOH
 70
     1
  9
$DIMSE1
 70
     0
  9
$DIMSE2
 70
     0
  9
$DIMTAD
 70
     0
  9
$DIMZIN
 70
     1
  9
$DIMBLK
  1

  9
$DIMASO
 70
     1
  9
$DIMSHO
 70
     1
  9
$DIMPOST
  1

  9
$DIMAPOST
  1

  9
$DIMALT
 70
     0
  9
$DIMALTD
 70
     2
  9
$DIMALTF
 40
25.4
  9
$DIMLFAC
 40
1.0
  9
$DIMTOFL
 70
     0
  9
$DIMTVP
 40
0.0
  9
$DIMTIX
 70
     0
  9
$DIMSOXD
 70
     0
  9
$DIMSAH
 70
     0
  9
$DIMBLK1
  1

  9
$DIMBLK2
  1

  9
$DIMSTYLE
  2
Standard
  9
$DIMCLRD
 70
     0
  9
$DIMCLRE
 70
     0
  9
$DIMCLRT
 70
     0
  9
$DIMTFAC
 40
1.0
  9
$DIMGAP
 40
0.06
  9
$DIMJUST
 70
     0
  9
$DIMSD1
 70
     0
  9
$DIMSD2
 70
     0
  9
$DIMTOLJ
 70
     1
  9
$DIMTZIN
 70
     1
  9
$DIMALTZ
 70
     0
  9
$DIMALTTZ
 70
     0
  9
$DIMUPT
 70
     0
  9
$DIMDEC
 70
     2
  9
$DIMTDEC
 70
     2
  9
$DIMALTU
 70
     2
  9
$DIMALTTD
 70
     2
  9
$DIMTXSTY
  7
Standard
  9
$DIMAUNIT
 70
     0
  9
$DIMADEC
 70
     2
  9
$DIMALTRND
 40
0.0
  9
$DIMAZIN
 70
     0
  9
$DIMDSEP
 70
    46
  9
$DIMATFIT
 70
     3
  9
$DIMFRAC
 70
     0
  9
$DIMLDRBLK
  1

  9
$DIMLUNIT
 70
     2
  9
$DIMLWD
 70
    -2
  9
$DIMLWE
 70
    -2
  9
$DIMTMOVE
 70
     0
  9
$LUNITS
 70
     2
  9
$LUPREC
 70
     2
  9
$SKETCHINC
 40
0.1
  9
$FILLETRAD
 40
0.5
  9
$AUNITS
 70
     0
  9
$AUPREC
 70
     2
  9
$MENU
  1
.
  9
$ELEVATION
 40
0.0
  9
$PELEVATION
 40
0.0
  9
$THICKNESS
 40
0.0
  9
$LIMCHECK
 70
     0
  9
$CHAMFERA
 40
0.0
  9
$CHAMFERB
 40
0.0
  9
$CHAMFERC
 40
0.0
  9
$CHAMFERD
 40
0.0
  9
$SKPOLY
 70
     0
  9
$TDCREATE
 40
2458403.542161968
  9
$TDUCREATE
 40
2458403.708828634
  9
$TDUPDATE
 40
2458403.542188148
  9
$TDUUPDATE
 40
2458403.708854815
  9
$TDINDWG
 40
0.0000000116
  9
$TDUSRTIMER
 40
0.0000000116
  9
$USRTIMER
 70
     1
  9
$ANGBASE
 50
0.0
  9
$ANGDIR
 70
     0
  9
$PDMODE
 70
     0
  9
$PDSIZE
 40
-1.0
  9
$PLINEWID
 40
0.0
  9
$SPLFRAME
 70
     0
  9
$SPLINETYPE
 70
     6
  9
$SPLINESEGS
 70
     8
  9
$HANDSEED
  5
155
  9
$SURFTAB1
 70
     6
  9
$SURFTAB2
 70
     6
  9
$SURFTYPE
 70
     6
  9
$SURFU
 70
     6
  9
$SURFV
 70
     6
  9
$UCSBASE
  2

  9
$UCSNAME
  2

  9
$UCSORG
 10
0.0
 20
0.0
 30
0.0
  9
$UCSXDIR
 10
1.0
 20
0.0
 30
0.0
  9
$UCSYDIR
 10
0.0
 20
1.0
 30
0.0
  9
$UCSORTHOREF
  2

  9
$UCSORTHOVIEW
 70
     0
  9
$UCSORGTOP
 10
0.0
 20
0.0
 30
0.0
  9
$UCSORGBOTTOM
 10
0.0
 20
0.0
 30
0.0
  9
$UCSORGLEFT
 10
0.0
 20
0.0
 30
0.0
  9
$UCSORGRIGHT
 10
0.0
 20
0.0
 30
0.0
  9
$UCSORGFRONT
 10
0.0
 20
0.0
 30
0.0
  9
$UCSORGBACK
 10
0.0
 20
0.0
 30
0.0
  9
$PUCSBASE
  2

  9
$PUCSNAME
  2

  9
$PUCSORG
 10
0.0
 20
0.0
 30
0.0
  9
$PUCSXDIR
 10
1.0
 20
0.0
 30
0.0
  9
$PUCSYDIR
 10
0.0
 20
1.0
 30
0.0
  9
$PUCSORTHOREF
  2

  9
$PUCSORTHOVIEW
 70
     0
  9
$PUCSORGTOP
 10
0.0
 20
0.0
 30
0.0
  9
$PUCSORGBOTTOM
 10
0.0
 20
0.0
 30
0.0
  9
$PUCSORGLEFT
 10
0.0
 20
0.0
 30
0.0
  9
$PUCSORGRIGHT
 10
0.0
 20
0.0
 30
0.0
  9
$PUCSORGFRONT
 10
0.0
 20
0.0
 30
0.0
  9
$PUCSORGBACK
 10
0.0
 20
0.0
 30
0.0
  9
$USERI1
 70
     0
  9
$USERI2
 70
     0
  9
$USERI3
 70
     0
  9
$USERI4
 70
     0
  9
$USERI5
 70
     0
  9
$USERR1
 40
0.0
  9
$USERR2
 40
0.0
  9
$USERR3
 40
0.0
  9
$USERR4
 40
0.0
  9
$USERR5
 40
0.0
  9
$WORLDVIEW
 70
     1
  9
$SHADEDGE
 70
     3
  9
$SHADEDIF
 70
    70
  9
$TILEMODE
 70
     1
  9
$MAXACTVP
 70
    64
  9
$PINSBASE
 10
0.0
 20
0.0
 30
0.0
  9
$PLIMCHECK
 70
     0
  9
$PEXTMIN
 10
1.0000000000E+20
 20
1.0000000000E+20
 30
1.0000000000E+20
  9
$PEXTMAX
 10
-1.0000000000E+20
 20
-1.0000000000E+20
 30
-1.0000000000E+20
  9
$PLIMMIN
 10
0.0
 20
0.0
  9
$PLIMMAX
 10
12.0
 20
9.0
  9
$UNITMODE
 70
     0
  9
$VISRETAIN
 70
     1
  9
$PLINEGEN
 70
     0
  9
$PSLTSCALE
 70
     1
  9
$TREEDEPTH
 70
  3020
  9
$CMLSTYLE
  2
Standard
  9
$CMLJUST
 70
     0
  9
$CMLSCALE
 40
1.0
  9
$PROXYGRAPHICS
 70
     1
  9
$MEASUREMENT
 70
     0
  9
$CELWEIGHT
370
    -1
  9
$ENDCAPS
280
     0
  9
$JOINSTYLE
280
     0
  9
$LWDISPLAY
290
     1
  9
$INSUNITS
 70
     1
  9
$HYPERLINKBASE
  1

  9
$STYLESHEET
  1

  9
$XEDIT
290
     1
  9
$CEPSNTYPE
380
     0
  9
$PSTYLEMODE
290
     1
  9
$FINGERPRINTGUID
  2
{D9CA2266-8C95-460C-B291-7CE2FAA31A5A}
  9
$VERSIONGUID
  2
{FAEB1C32-E019-11D5-929B-00C0DF256EC4}
  9
$EXTNAMES
290
     1
  9
$PSVPSCALE
 40
0.0
  9
$OLESTARTUP
290
     0
  0
ENDSEC
  0
SECTION
  2
CLASSES
  0
CLASS
  1
ACDBDICTIONARYWDFLT
  2
AcDbDictionaryWithDefault
  3
ObjectDBX Classes
 90
        0
280
     0
281
     0
  0
CLASS
  1
VISUALSTYLE
  2
AcDbVisualStyle
  3
ObjectDBX Classes
 90
     4095
280
     0
281
     0
  0
CLASS
  1
MATERIAL
  2
AcDbMaterial
  3
ObjectDBX Classes
 90
     1153
280
     0
281
     0
  0
CLASS
  1
SCALE
  2
AcDbScale
  3
ObjectDBX Classes
 90
     1153
280
     0
281
     0
  0
CLASS
  1
TABLESTYLE
  2
AcDbTableStyle
  3
ObjectDBX Classes
 90
     4095
280
     0
281
     0
  0
CLASS
  1
MLEADERSTYLE
  2
AcDbMLeaderStyle
  3
ACDB_MLEADERSTYLE_CLASS
 90
     4095
280
     0
281
     0
  0
CLASS
  1
SUN
  2
AcDbSun
  3
SCENEOE
 90
     1153
280
     0
281
     0
  0
CLASS
  1
ACDBPLACEHOLDER
  2
AcDbPlaceHolder
  3
ObjectDBX Classes
 90
        0
280
     0
281
     0
  0
CLASS
  1
LAYOUT
  2
AcDbLayout
  3
ObjectDBX Classes
 90
        0
280
     0
281
     0
  0
ENDSEC
  0
SECTION
  2
TABLES
  0
TABLE
  2
VPORT
  5
8
330
0
100
AcDbSymbolTable
 70
     1
  0
VPORT
  5
29
330
8
100
AcDbSymbolTableRecord
100
AcDbViewportTableRecord
  2
*Active
 70
     0
 10
0.0
 20
0.0
 11
1.0
 21
1.0
 12
0.0
 22
0.0
 13
0.0
 23
0.0
 14
0.5
 24
0.5
 15
0.5
 25
0.5
 16
0.0
 26
0.0
 36
1.0
 17
0.0
 27
0.0
 37
0.0
 40
4.9164
 41
0.5477178423
 42
50.0
 43
0.0
 44
0.0
 50
0.0
 51
0.0
 71
     0
 72
   100
 73
     1
 74
     3
 75
     0
 76
     0
 77
     0
 78
     0
281
     0
 65
     1
110
0.0
120
0.0
130
0.0
111
1.0
121
0.0
131
0.0
112
0.0
122
1.0
132
0.0
 79
     0
146
0.0
  0
ENDTAB
  0
TABLE
  2
LTYPE
  5
5
330
0
100
AcDbSymbolTable
 70
     6
  0
LTYPE
  5
14
330
5
100
AcDbSymbolTableRecord
100
AcDbLinetypeTableRecord
  2
ByBlock
 70
     0
  3

 72
    65
 73
     0
 40
0.0
  0
LTYPE
  5
15
330
5
100
AcDbSymbolTableRecord
100
AcDbLinetypeTableRecord
  2
ByLayer
 70
     0
  3

 72
    65
 73
     0
 40
0.0
  0
LTYPE
  5
16
330
5
100
AcDbSymbolTableRecord
100
AcDbLinetypeTableRecord
  2
Continuous
 70
     0
  3
Solid line
 72
    65
 73
     0
 40
0.0
  0
LTYPE
  5
6E
330
5
100
AcDbSymbolTableRecord
100
AcDbLinetypeTableRecord
  2
HIDDEN
 70
     0
  3
Hidden __ __ __ __ __ __ __ __ __ __ __ __ __ __
 72
    65
 73
     2
 40
0.075
 49
0.05
 74
     0
 49
-0.025
 74
     0
  0
LTYPE
  5
6F
330
5
100
AcDbSymbolTableRecord
100
AcDbLinetypeTableRecord
  2
PHANTOM
 70
     0
  3
Phantom ______  __  __  ______  __  __  ______
 72
    65
 73
     6
 40
0.5
 49
0.25
 74
     0
 49
-0.05
 74
     0
 49
0.05
 74
     0
 49
-0.05
 74
     0
 49
0.05
 74
     0
 49
-0.05
 74
     0
  0
LTYPE
  5
70
330
5
100
AcDbSymbolTableRecord
100
AcDbLinetypeTableRecord
  2
CENTER
 70
     0
  3
Center ____ _ ____ _ ____ _ ____ _ ____ _ ____
 72
    65
 73
     4
 40
0.4
 49
0.25
 74
     0
 49
-0.05
 74
     0
 49
0.05
 74
     0
 49
-0.05
 74
     0
  0
LTYPE
  5
71
330
5
100
AcDbSymbolTableRecord
100
AcDbLinetypeTableRecord
  2
CENTERX2
 70
     0
  3
Center (2x) ________  __  ________  __  _____
 72
    65
 73
     4
 40
0.8
 49
0.5
 74
     0
 49
-0.1
 74
     0
 49
0.1
 74
     0
 49
-0.1
 74
     0
  0
LTYPE
  5
72
330
5
100
AcDbSymbolTableRecord
100
AcDbLinetypeTableRecord
  2
DOT2
 70
     0
  3
Dot (.5x) ........................................
 72
    65
 73
     2
 40
0.025
 49
0.0
 74
     0
 49
-0.025
 74
     0
  0
ENDTAB
  0
TABLE
  2
LAYER
  5
2
330
0
100
AcDbSymbolTable
 70
     1
  0
LAYER
  5
10
330
2
100
AcDbSymbolTableRecord
100
AcDbLayerTableRecord
  2
0
 70
     0
 62
     7
  6
Continuous
370
    -3
390
F
  0
ENDTAB
  0
TABLE
  2
STYLE
  5
3
330
0
100
AcDbSymbolTable
 70
     2
  0
STYLE
  5
11
330
3
100
AcDbSymbolTableRecord
100
AcDbTextStyleTableRecord
  2
Standard
 70
     0
 40
0.0
 41
1.0
 50
0.0
 71
     0
 42
0.125
  3
txt
  4

  0
STYLE
  5
152
330
3
100
AcDbSymbolTableRecord
100
AcDbTextStyleTableRecord
  2
SLDTEXTSTYLE0
 70
     0
 40
0.0
 41
0.7
 50
0.0
 71
     0
 42
0.125
  3
TXT
  4

  0
ENDTAB
  0
TABLE
  2
VIEW
  5
6
330
0
100
AcDbSymbolTable
 70
     0
  0
ENDTAB
  0
TABLE
  2
UCS
  5
7
330
0
100
AcDbSymbolTable
 70
     0
  0
ENDTAB
  0
TABLE
  2
APPID
  5
9
330
0
100
AcDbSymbolTable
 70
     1
  0
APPID
  5
12
330
9
100
AcDbSymbolTableRecord
100
AcDbRegAppTableRecord
  2
ACAD
 70
     0
  0
ENDTAB
  0
TABLE
  2
DIMSTYLE
  5
A
330
0
100
AcDbSymbolTable
 70
     1
100
AcDbDimStyleTable
  0
DIMSTYLE
105
27
330
A
100
AcDbSymbolTableRecord
100
AcDbDimStyleTableRecord
  2
Standard
 70
     0
178
     0
340
11
  0
ENDTAB
  0
TABLE
  2
BLOCK_RECORD
  5
1
330
0
100
AcDbSymbolTable
 70
     1
  0
BLOCK_RECORD
  5
1F
330
1
100
AcDbSymbolTableRecord
100
AcDbBlockTableRecord
  2
*Model_Space
340
22
  0
BLOCK_RECORD
  5
1B
330
1
100
AcDbSymbolTableRecord
100
AcDbBlockTableRecord
  2
*Paper_Space
340
1E
  0
BLOCK_RECORD
  5
23
330
1
100
AcDbSymbolTableRecord
100
AcDbBlockTableRecord
  2
*Paper_Space0
340
26
  0
ENDTAB
  0
ENDSEC
  0
SECTION
  2
BLOCKS
  0
BLOCK
  5
20
330
1F
100
AcDbEntity
  8
0
100
AcDbBlockBegin
  2
*Model_Space
 70
     0
 10
0.0
 20
0.0
 30
0.0
  3
*Model_Space
  1

  0
ENDBLK
  5
21
330
1F
100
AcDbEntity
  8
0
100
AcDbBlockEnd
  0
BLOCK
  5
1C
330
1B
100
AcDbEntity
 67
     1
  8
0
100
AcDbBlockBegin
  2
*Paper_Space
 70
     0
 10
0.0
 20
0.0
 30
0.0
  3
*Paper_Space
  1

  0
ENDBLK
  5
1D
330
1B
100
AcDbEntity
 67
     1
  8
0
100
AcDbBlockEnd
  0
BLOCK
  5
24
330
23
100
AcDbEntity
  8
0
100
AcDbBlockBegin
  2
*Paper_Space0
 70
     0
 10
0.0
 20
0.0
 30
0.0
  3
*Paper_Space0
  1

  0
ENDBLK
  5
25
330
23
100
AcDbEntity
  8
0
100
AcDbBlockEnd
  0
ENDSEC
  0
SECTION
  2
ENTITIES
  0
SPLINE
  5
73
330
1F
100
AcDbEntity
  8
0
  6
Continuous
 62
     7
370
    25
100
AcDbSpline
210
0.0
220
0.0
230
1.0
 70
     8
 71
     3
 72
    19
 73
    15
 74
     0
 42
0.000000001
 43
0.00000001
 40
0.0
 40
0.0
 40
0.0
 40
0.0
 40
0.0848023883688273
 40
0.1686635395998405
 40
0.2525519243727812
 40
0.3382396894642444
 40
0.4231026613931547
 40
0.5055560510576219
 40
0.5861756559890521
 40
0.6671357203303601
 40
0.7484991803055338
 40
0.8304523987582789
 40
0.9134557062010132
 40
0.9999999999999999
 40
0.9999999999999999
 40
0.9999999999999999
 40
0.9999999999999999
 10
-0.1622759856820939
 20
0.0110594219345697
 30
0.0
 10
-0.1590298069133676
 20
0.0111779907864129
 30
0.0
 10
-0.1525734793046926
 20
0.0114138124728397
 30
0.0
 10
-0.1430421430275488
 20
0.0132196171366418
 30
0.0
 10
-0.1337925028277013
 20
0.0162031027330748
 30
0.0
 10
-0.124950557943533
 20
0.0203387546426451
 30
0.0
 10
-0.1167136914329728
 20
0.0254642800638648
 30
0.0
 10
-0.1093209858889412
 20
0.0314647865660709
 30
0.0
 10
-0.1030698452908361
 20
0.0384435854319282
 30
0.0
 10
-0.0977703731781058
 20
0.0461133320780002
 30
0.0
 10
-0.0936149862710613
 20
0.054521331825205
 30
0.0
 10
-0.0905881248998427
 20
0.0634737740213416
 30
0.0
 10
-0.0887985602015344
 20
0.0729709703174157
 30
0.0
 10
-0.0885730080842089
 20
0.07946125081446
 30
0.0
 10
-0.088457876707735
 20
0.0827741655243133
 30
0.0
  0
SPLINE
  5
74
330
1F
100
AcDbEntity
  8
0
  6
Continuous
 62
     7
370
    25
100
AcDbSpline
210
0.0
220
0.0
230
1.0
 70
     8
 71
     3
 72
    23
 73
    19
 74
     0
 42
0.000000001
 43
0.00000001
 40
0.0
 40
0.0
 40
0.0
 40
0.0
 40
0.06563379967569
 40
0.1291880880571288
 40
0.1912186831121887
 40
0.2519128178811572
 40
0.3125074743865505
 40
0.373494433775198
 40
0.4351515996540495
 40
0.4987414744066491
 40
0.5620952169966307
 40
0.6241865668116552
 40
0.685475718465195
 40
0.746096814806053
 40
0.8076116364477848
 40
0.8699665806571902
 40
0.9339510189149068
 40
1.0
 40
1.0
 40
1.0
 40
1.0
 10
-0.088457876707735
 20
0.0827741655243133
 30
0.0
 10
-0.08852642359142
 20
0.0852982962748673
 30
0.0
 10
-0.0886613455506742
 20
0.0902665843715728
 30
0.0
 10
-0.0896921005171487
 20
0.0975614070552893
 30
0.0
 10
-0.0913317381180004
 20
0.1045423874853122
 30
0.0
 10
-0.0936421788334628
 20
0.1112168652752121
 30
0.0
 10
-0.0966772705774312
 20
0.1175479378037295
 30
0.0
 10
-0.1003378252836024
 20
0.1235810635330378
 30
0.0
 10
-0.1046882145502873
 20
0.1292848643465864
 30
0.0
 10
-0.1096584071288567
 20
0.1345807979879057
 30
0.0
 10
-0.1150987787392473
 20
0.1394112595778502
 30
0.0
 10
-0.1208555316415386
 20
0.1437229910572618
 30
0.0
 10
-0.1269968707099267
 20
0.1472650462529659
 30
0.0
 10
-0.1334195162040515
 20
0.1501965656456545
 30
0.0
 10
-0.1401346115227698
 20
0.1525293620669119
 30
0.0
 10
-0.1471967986526661
 20
0.1540856259074882
 30
0.0
 10
-0.1545310120045987
 20
0.1551542202671595
 30
0.0
 10
-0.159534301675764
 20
0.1552443903221099
 30
0.0
 10
-0.1620756651692735
 20
0.155290191165339
 30
0.0
  0
SPLINE
  5
75
330
1F
100
AcDbEntity
  8
0
  6
Continuous
 62
     7
370
    25
100
AcDbSpline
210
0.0
220
0.0
230
1.0
 70
     8
 71
     3
 72
    19
 73
    15
 74
     0
 42
0.000000001
 43
0.00000001
 40
0.0
 40
0.0
 40
0.0
 40
0.0
 40
0.0815893489321833
 40
0.1628588951679348
 40
0.245483689275579
 40
0.3308071391580104
 40
0.4164933737762844
 40
0.4998932031606318
 40
0.5830481559950207
 40
0.6671578520621572
 40
0.7513119292929141
 40
0.8337847893576141
 40
0.9162564885439789
 40
1.0
 40
1.0
 40
1.0
 40
1.0
 10
-0.2358937741436324
 20
0.0834252071909799
 30
0.0
 10
-0.2357605674786489
 20
0.0803116281064085
 30
0.0
 10
-0.2354946762738269
 20
0.0740966741158726
 30
0.0
 10
-0.2335839123882565
 20
0.0648837757752753
 30
0.0
 10
-0.2303782071430031
 20
0.0559084870566094
 30
0.0
 10
-0.2260037740909999
 20
0.0472469875194887
 30
0.0
 10
-0.2205261580389496
 20
0.0392052660649395
 30
0.0
 10
-0.2141769685709333
 20
0.031938114453399
 30
0.0
 10
-0.206894805620014
 20
0.0256888581481984
 30
0.0
 10
-0.1988285551147225
 20
0.0204576028906633
 30
0.0
 10
-0.1902137000861262
 20
0.0162317085409895
 30
0.0
 10
-0.1811541335523505
 20
0.0132913057190629
 30
0.0
 10
-0.1718201593983154
 20
0.0113928928176218
 30
0.0
 10
-0.1654735641231774
 20
0.0111711444721178
 30
0.0
 10
-0.1622759856820939
 20
0.0110594219345697
 30
0.0
  0
SPLINE
  5
76
330
1F
100
AcDbEntity
  8
0
  6
Continuous
 62
     7
370
    25
100
AcDbSpline
210
0.0
220
0.0
230
1.0
 70
     8
 71
     3
 72
    19
 73
    15
 74
     0
 42
0.000000001
 43
0.00000001
 40
0.0
 40
0.0
 40
0.0
 40
0.0
 40
0.0859205174117675
 40
0.1695934351247436
 40
0.2524755148685384
 40
0.336244476957051
 40
0.4195045210415717
 40
0.5020359066440893
 40
0.5847746476768715
 40
0.6698464747058008
 40
0.7541848663887862
 40
0.8366582383293272
 40
0.9180097257088055
 40
1.0
 40
1.0
 40
1.0
 40
1.0
 10
-0.1620756651692735
 20
0.155290191165339
 30
0.0
 10
-0.1653552607315632
 20
0.1551735027560138
 30
0.0
 10
-0.1718286607294129
 20
0.1549431783960956
 30
0.0
 10
-0.1813318037338722
 20
0.1531450715971981
 30
0.0
 10
-0.1904256190258747
 20
0.15015331485693
 30
0.0
 10
-0.1990646243307725
 20
0.1460617504877613
 30
0.0
 10
-0.2071123540895294
 20
0.1409168407294001
 30
0.0
 10
-0.2143047591487671
 20
0.1346938847799837
 30
0.0
 10
-0.2207006663884768
 20
0.1275626694832229
 30
0.0
 10
-0.2260798281193886
 20
0.1195553758839243
 30
0.0
 10
-0.2304648636136517
 20
0.1109712265218796
 30
0.0
 10
-0.2335482230377043
 20
0.1019980523718028
 30
0.0
 10
-0.2355817407097869
 20
0.0927976968320396
 30
0.0
 10
-0.2357894921784634
 20
0.086557504990772
 30
0.0
 10
-0.2358937741436324
 20
0.0834252071909799
 30
0.0
  0
SPLINE
  5
77
330
1F
100
AcDbEntity
  8
0
  6
Continuous
 62
     7
370
    25
100
AcDbSpline
210
0.0
220
0.0
230
1.0
 70
     8
 71
     3
 72
    19
 73
    15
 74
     0
 42
0.000000001
 43
0.00000001
 40
0.0
 40
0.0
 40
0.0
 40
0.0
 40
0.0848023883688262
 40
0.1686635395998416
 40
0.2525519243727823
 40
0.3382396894642434
 40
0.4231026613931547
 40
0.505556051057622
 40
0.5861756559890523
 40
0.667135720330361
 40
0.7484991803055335
 40
0.8304523987582787
 40
0.9134557062010131
 40
1.0
 40
1.0
 40
1.0
 40
1.0
 10
0.2864419630358548
 20
0.0110594219345697
 30
0.0
 10
0.2896881418045812
 20
0.0111779907864129
 30
0.0
 10
0.2961444694132562
 20
0.0114138124728398
 30
0.0
 10
0.3056758056903999
 20
0.0132196171366418
 30
0.0
 10
0.3149254458902476
 20
0.0162031027330747
 30
0.0
 10
0.3237673907744157
 20
0.0203387546426452
 30
0.0
 10
0.3320042572849758
 20
0.0254642800638648
 30
0.0
 10
0.3393969628290076
 20
0.0314647865660709
 30
0.0
 10
0.3456481034271126
 20
0.0384435854319282
 30
0.0
 10
0.3509475755398431
 20
0.046113332078
 30
0.0
 10
0.3551029624468872
 20
0.0545213318252051
 30
0.0
 10
0.3581298238181061
 20
0.0634737740213416
 30
0.0
 10
0.359919388516414
 20
0.0729709703174157
 30
0.0
 10
0.3601449406337398
 20
0.07946125081446
 30
0.0
 10
0.3602600720102138
 20
0.0827741655243133
 30
0.0
  0
SPLINE
  5
78
330
1F
100
AcDbEntity
  8
0
  6
Continuous
 62
     7
370
    25
100
AcDbSpline
210
0.0
220
0.0
230
1.0
 70
     8
 71
     3
 72
    19
 73
    15
 74
     0
 42
0.000000001
 43
0.00000001
 40
0.0
 40
0.0
 40
0.0
 40
0.0
 40
0.0815893489321834
 40
0.1628588951679347
 40
0.2454836892755789
 40
0.3308071391580103
 40
0.4164933737762836
 40
0.4998932031606326
 40
0.5830481559950206
 40
0.6671578520621572
 40
0.7513119292929129
 40
0.8337847893576151
 40
0.9162564885439788
 40
0.9999999999999999
 40
0.9999999999999999
 40
0.9999999999999999
 40
0.9999999999999999
 10
0.2128241745743163
 20
0.08342520719098
 30
0.0
 10
0.2129573812392999
 20
0.0803116281064085
 30
0.0
 10
0.2132232724441222
 20
0.0740966741158726
 30
0.0
 10
0.2151340363296921
 20
0.0648837757752753
 30
0.0
 10
0.2183397415749456
 20
0.0559084870566094
 30
0.0
 10
0.2227141746269487
 20
0.0472469875194888
 30
0.0
 10
0.228191790678999
 20
0.0392052660649393
 30
0.0
 10
0.2345409801470156
 20
0.0319381144533991
 30
0.0
 10
0.2418231430979348
 20
0.0256888581481984
 30
0.0
 10
0.2498893936032263
 20
0.0204576028906634
 30
0.0
 10
0.2585042486318224
 20
0.0162317085409894
 30
0.0
 10
0.2675638151655982
 20
0.013291305719063
 30
0.0
 10
0.2768977893196334
 20
0.0113928928176218
 30
0.0
 10
0.2832443845947712
 20
0.0111711444721178
 30
0.0
 10
0.2864419630358548
 20
0.0110594219345697
 30
0.0
  0
SPLINE
  5
79
330
1F
100
AcDbEntity
  8
0
  6
Continuous
 62
     7
370
    25
100
AcDbSpline
210
0.0
220
0.0
230
1.0
 70
     8
 71
     3
 72
    19
 73
    15
 74
     0
 42
0.000000001
 43
0.00000001
 40
0.0
 40
0.0
 40
0.0
 40
0.0
 40
0.0859205174117673
 40
0.1695934351247445
 40
0.2524755148685393
 40
0.3362444769570506
 40
0.4195045210415733
 40
0.502035906644089
 40
0.5847746476768727
 40
0.6698464747058012
 40
0.7541848663887871
 40
0.8366582383293274
 40
0.9180097257088057
 40
1.0
 40
1.0
 40
1.0
 40
1.0
 10
0.2866422835486754
 20
0.155290191165339
 30
0.0
 10
0.2833626879863857
 20
0.1551735027560138
 30
0.0
 10
0.2768892879885358
 20
0.1549431783960957
 30
0.0
 10
0.2673861449840767
 20
0.1531450715971981
 30
0.0
 10
0.258292329692074
 20
0.1501533148569301
 30
0.0
 10
0.2496533243871764
 20
0.1460617504877611
 30
0.0
 10
0.2416055946284191
 20
0.1409168407294004
 30
0.0
 10
0.2344131895691818
 20
0.1346938847799835
 30
0.0
 10
0.2280172823294718
 20
0.1275626694832231
 30
0.0
 10
0.2226381205985602
 20
0.1195553758839242
 30
0.0
 10
0.2182530851042968
 20
0.1109712265218797
 30
0.0
 10
0.2151697256802445
 20
0.1019980523718028
 30
0.0
 10
0.2131362080081619
 20
0.0927976968320396
 30
0.0
 10
0.2129284565394854
 20
0.086557504990772
 30
0.0
 10
0.2128241745743163
 20
0.0834252071909799
 30
0.0
  0
SPLINE
  5
7A
330
1F
100
AcDbEntity
  8
0
  6
Continuous
 62
     7
370
    25
100
AcDbSpline
210
0.0
220
0.0
230
1.0
 70
     8
 71
     3
 72
    23
 73
    19
 74
     0
 42
0.000000001
 43
0.00000001
 40
0.0
 40
0.0
 40
0.0
 40
0.0
 40
0.0656337996756901
 40
0.1291880880571291
 40
0.1912186831121888
 40
0.2519128178811577
 40
0.3125074743865511
 40
0.3734944337751987
 40
0.435151599654051
 40
0.4987414744066498
 40
0.5620952169966323
 40
0.624186566811656
 40
0.6854757184651968
 40
0.7460968148060528
 40
0.8076116364477858
 40
0.8699665806571912
 40
0.9339510189149091
 40
1.0
 40
1.0
 40
1.0
 40
1.0
 10
0.3602600720102138
 20
0.0827741655243133
 30
0.0
 10
0.360191525126529
 20
0.0852982962748673
 30
0.0
 10
0.3600566031672748
 20
0.0902665843715729
 30
0.0
 10
0.3590258482007997
 20
0.0975614070552892
 30
0.0
 10
0.3573862105999487
 20
0.1045423874853122
 30
0.0
 10
0.3550757698844858
 20
0.1112168652752121
 30
0.0
 10
0.3520406781405178
 20
0.1175479378037295
 30
0.0
 10
0.3483801234343464
 20
0.1235810635330378
 30
0.0
 10
0.3440297341676614
 20
0.1292848643465863
 30
0.0
 10
0.339059541589092
 20
0.1345807979879059
 30
0.0
 10
0.3336191699787012
 20
0.1394112595778501
 30
0.0
 10
0.3278624170764101
 20
0.1437229910572619
 30
0.0
 10
0.3217210780080219
 20
0.1472650462529657
 30
0.0
 10
0.3152984325138973
 20
0.1501965656456547
 30
0.0
 10
0.308583337195179
 20
0.1525293620669119
 30
0.0
 10
0.3015211500652827
 20
0.1540856259074882
 30
0.0
 10
0.2941869367133501
 20
0.1551542202671595
 30
0.0
 10
0.2891836470421849
 20
0.1552443903221099
 30
0.0
 10
0.2866422835486754
 20
0.155290191165339
 30
0.0
  0
SPLINE
  5
7B
330
1F
100
AcDbEntity
  8
0
  6
Continuous
 62
     7
370
    25
100
AcDbSpline
210
0.0
220
0.0
230
1.0
 70
     8
 71
     3
 72
    19
 73
    15
 74
     0
 42
0.000000001
 43
0.00000001
 40
0.0
 40
0.0
 40
0.0
 40
0.0
 40
0.0848023883688262
 40
0.1686635395998394
 40
0.2525519243727825
 40
0.3382396894642436
 40
0.4231026613931549
 40
0.5055560510576222
 40
0.5861756559890525
 40
0.66713572033036
 40
0.7484991803055336
 40
0.8304523987582788
 40
0.9134557062010132
 40
1.0
 40
1.0
 40
1.0
 40
1.0
 10
0.523621450215342
 20
0.0110594219345697
 30
0.0
 10
0.5268676289840685
 20
0.0111779907864129
 30
0.0
 10
0.5333239565927433
 20
0.0114138124728397
 30
0.0
 10
0.5428552928698871
 20
0.0132196171366419
 30
0.0
 10
0.5521049330697346
 20
0.0162031027330746
 30
0.0
 10
0.5609468779539031
 20
0.0203387546426452
 30
0.0
 10
0.569183744464463
 20
0.0254642800638648
 30
0.0
 10
0.5765764500084948
 20
0.0314647865660709
 30
0.0
 10
0.5828275906066
 20
0.0384435854319281
 30
0.0
 10
0.58812706271933
 20
0.0461133320780002
 30
0.0
 10
0.5922824496263746
 20
0.054521331825205
 30
0.0
 10
0.5953093109975932
 20
0.0634737740213416
 30
0.0
 10
0.5970988756959015
 20
0.0729709703174157
 30
0.0
 10
0.597324427813227
 20
0.07946125081446
 30
0.0
 10
0.5974395591897008
 20
0.0827741655243133
 30
0.0
  0
SPLINE
  5
7C
330
1F
100
AcDbEntity
  8
0
  6
Continuous
 62
     7
370
    25
100
AcDbSpline
210
0.0
220
0.0
230
1.0
 70
     8
 71
     3
 72
    19
 73
    15
 74
     0
 42
0.000000001
 43
0.00000001
 40
0.0
 40
0.0
 40
0.0
 40
0.0
 40
0.0815893489321833
 40
0.1628588951679347
 40
0.2454836892755788
 40
0.3308071391580102
 40
0.4164933737762836
 40
0.4998932031606309
 40
0.5830481559950207
 40
0.6671578520621572
 40
0.7513119292929131
 40
0.8337847893576152
 40
0.9162564885439789
 40
1.0
 40
1.0
 40
1.0
 40
1.0
 10
0.4500036617538036
 20
0.0834252071909799
 30
0.0
 10
0.4501368684187872
 20
0.0803116281064085
 30
0.0
 10
0.4504027596236094
 20
0.0740966741158726
 30
0.0
 10
0.4523135235091794
 20
0.0648837757752753
 30
0.0
 10
0.4555192287544329
 20
0.0559084870566094
 30
0.0
 10
0.459893661806436
 20
0.0472469875194888
 30
0.0
 10
0.4653712778584861
 20
0.0392052660649394
 30
0.0
 10
0.4717204673265027
 20
0.0319381144533989
 30
0.0
 10
0.479002630277422
 20
0.0256888581481985
 30
0.0
 10
0.4870688807827133
 20
0.0204576028906633
 30
0.0
 10
0.4956837358113096
 20
0.0162317085409894
 30
0.0
 10
0.5047433023450855
 20
0.013291305719063
 30
0.0
 10
0.5140772764991205
 20
0.0113928928176218
 30
0.0
 10
0.5204238717742585
 20
0.0111711444721178
 30
0.0
 10
0.523621450215342
 20
0.0110594219345697
 30
0.0
  0
SPLINE
  5
7D
330
1F
100
AcDbEntity
  8
0
  6
Continuous
 62
     7
370
    25
100
AcDbSpline
210
0.0
220
0.0
230
1.0
 70
     8
 71
     3
 72
    19
 73
    15
 74
     0
 42
0.000000001
 43
0.00000001
 40
0.0
 40
0.0
 40
0.0
 40
0.0
 40
0.0859205174117675
 40
0.1695934351247425
 40
0.2524755148685374
 40
0.3362444769570511
 40
0.4195045210415719
 40
0.5020359066440896
 40
0.5847746476768719
 40
0.6698464747058006
 40
0.7541848663887866
 40
0.8366582383293271
 40
0.9180097257088055
 40
1.0
 40
1.0
 40
1.0
 40
1.0
 10
0.5238217707281624
 20
0.155290191165339
 30
0.0
 10
0.5205421751658725
 20
0.1551735027560138
 30
0.0
 10
0.5140687751680229
 20
0.1549431783960958
 30
0.0
 10
0.5045656321635635
 20
0.153145071597198
 30
0.0
 10
0.4954718168715613
 20
0.15015331485693
 30
0.0
 10
0.4868328115666634
 20
0.1460617504877613
 30
0.0
 10
0.4787850818079064
 20
0.1409168407294002
 30
0.0
 10
0.4715926767486688
 20
0.1346938847799837
 30
0.0
 10
0.4651967695089589
 20
0.1275626694832229
 30
0.0
 10
0.4598176077780475
 20
0.1195553758839243
 30
0.0
 10
0.4554325722837842
 20
0.1109712265218797
 30
0.0
 10
0.4523492128597317
 20
0.1019980523718028
 30
0.0
 10
0.4503156951876492
 20
0.0927976968320396
 30
0.0
 10
0.4501079437189726
 20
0.086557504990772
 30
0.0
 10
0.4500036617538036
 20
0.0834252071909799
 30
0.0
  0
SPLINE
  5
7E
330
1F
100
AcDbEntity
  8
0
  6
Continuous
 62
     7
370
    25
100
AcDbSpline
210
0.0
220
0.0
230
1.0
 70
     8
 71
     3
 72
    23
 73
    19
 74
     0
 42
0.000000001
 43
0.00000001
 40
0.0
 40
0.0
 40
0.0
 40
0.0
 40
0.0656337996756898
 40
0.1291880880571288
 40
0.1912186831121889
 40
0.2519128178811568
 40
0.3125074743865501
 40
0.3734944337751976
 40
0.4351515996540497
 40
0.4987414744066485
 40
0.5620952169966309
 40
0.6241865668116543
 40
0.6854757184651952
 40
0.7460968148060533
 40
0.8076116364477839
 40
0.8699665806571891
 40
0.933951018914907
 40
1.0
 40
1.0
 40
1.0
 40
1.0
 10
0.5974395591897008
 20
0.0827741655243133
 30
0.0
 10
0.5973710123060161
 20
0.0852982962748673
 30
0.0
 10
0.5972360903467622
 20
0.0902665843715729
 30
0.0
 10
0.596205335380287
 20
0.0975614070552893
 30
0.0
 10
0.5945656977794356
 20
0.1045423874853121
 30
0.0
 10
0.5922552570639731
 20
0.1112168652752122
 30
0.0
 10
0.589220165320005
 20
0.1175479378037295
 30
0.0
 10
0.5855596106138334
 20
0.1235810635330378
 30
0.0
 10
0.5812092213471485
 20
0.1292848643465863
 30
0.0
 10
0.5762390287685792
 20
0.1345807979879058
 30
0.0
 10
0.5707986571581887
 20
0.1394112595778501
 30
0.0
 10
0.5650419042558975
 20
0.1437229910572619
 30
0.0
 10
0.5589005651875091
 20
0.1472650462529658
 30
0.0
 10
0.5524779196933846
 20
0.1501965656456546
 30
0.0
 10
0.5457628243746661
 20
0.1525293620669119
 30
0.0
 10
0.5387006372447699
 20
0.1540856259074882
 30
0.0
 10
0.5313664238928373
 20
0.1551542202671595
 30
0.0
 10
0.5263631342216719
 20
0.1552443903221099
 30
0.0
 10
0.5238217707281624
 20
0.155290191165339
 30
0.0
  0
SPLINE
  5
7F
330
1F
100
AcDbEntity
  8
0
  6
Continuous
 62
     7
370
    25
100
AcDbSpline
210
0.0
220
0.0
230
1.0
 70
     8
 71
     3
 72
    19
 73
    15
 74
     0
 42
0.000000001
 43
0.00000001
 40
0.0
 40
0.0
 40
0.0
 40
0.0
 40
0.0848023883688262
 40
0.1686635395998395
 40
0.2525519243727802
 40
0.3382396894642435
 40
0.4231026613931548
 40
0.5055560510576221
 40
0.5861756559890525
 40
0.6671357203303598
 40
0.7484991803055335
 40
0.8304523987582788
 40
0.9134557062010132
 40
1.0
 40
1.0
 40
1.0
 40
1.0
 10
0.8633650399589318
 20
0.0110594219345697
 30
0.0
 10
0.8666112187276581
 20
0.0111779907864129
 30
0.0
 10
0.8730675463363331
 20
0.0114138124728397
 30
0.0
 10
0.8825988826134766
 20
0.0132196171366418
 30
0.0
 10
0.8918485228133244
 20
0.0162031027330748
 30
0.0
 10
0.9006904676974927
 20
0.0203387546426451
 30
0.0
 10
0.908927334208053
 20
0.0254642800638648
 30
0.0
 10
0.9163200397520846
 20
0.0314647865660709
 30
0.0
 10
0.9225711803501893
 20
0.0384435854319281
 30
0.0
 10
0.9278706524629201
 20
0.0461133320780002
 30
0.0
 10
0.9320260393699641
 20
0.054521331825205
 30
0.0
 10
0.9350529007411829
 20
0.0634737740213416
 30
0.0
 10
0.9368424654394915
 20
0.0729709703174157
 30
0.0
 10
0.9370680175568169
 20
0.07946125081446
 30
0.0
 10
0.9371831489332906
 20
0.0827741655243133
 30
0.0
  0
SPLINE
  5
80
330
1F
100
AcDbEntity
  8
0
  6
Continuous
 62
     7
370
    25
100
AcDbSpline
210
0.0
220
0.0
230
1.0
 70
     8
 71
     3
 72
    23
 73
    19
 74
     0
 42
0.000000001
 43
0.00000001
 40
0.0
 40
0.0
 40
0.0
 40
0.0
 40
0.0656337996756899
 40
0.1291880880571286
 40
0.1912186831121887
 40
0.2519128178811567
 40
0.31250747438655
 40
0.3734944337751974
 40
0.4351515996540496
 40
0.4987414744066483
 40
0.5620952169966307
 40
0.6241865668116542
 40
0.685475718465195
 40
0.746096814806053
 40
0.8076116364477837
 40
0.869966580657189
 40
0.9339510189149068
 40
1.0
 40
1.0
 40
1.0
 40
1.0
 10
0.9371831489332906
 20
0.0827741655243133
 30
0.0
 10
0.9371146020496056
 20
0.0852982962748673
 30
0.0
 10
0.9369796800903516
 20
0.0902665843715728
 30
0.0
 10
0.9359489251238772
 20
0.0975614070552893
 30
0.0
 10
0.934309287523025
 20
0.1045423874853121
 30
0.0
 10
0.9319988468075631
 20
0.1112168652752122
 30
0.0
 10
0.9289637550635946
 20
0.1175479378037295
 30
0.0
 10
0.9253032003574233
 20
0.1235810635330378
 30
0.0
 10
0.9209528110907383
 20
0.1292848643465863
 30
0.0
 10
0.9159826185121689
 20
0.1345807979879059
 30
0.0
 10
0.9105422469017784
 20
0.1394112595778501
 30
0.0
 10
0.904785493999487
 20
0.1437229910572619
 30
0.0
 10
0.8986441549310991
 20
0.1472650462529658
 30
0.0
 10
0.8922215094369742
 20
0.1501965656456546
 30
0.0
 10
0.885506414118256
 20
0.1525293620669119
 30
0.0
 10
0.8784442269883597
 20
0.1540856259074882
 30
0.0
 10
0.8711100136364269
 20
0.1551542202671595
 30
0.0
 10
0.8661067239652617
 20
0.1552443903221099
 30
0.0
 10
0.8635653604717521
 20
0.155290191165339
 30
0.0
  0
SPLINE
  5
81
330
1F
100
AcDbEntity
  8
0
  6
Continuous
 62
     7
370
    25
100
AcDbSpline
210
0.0
220
0.0
230
1.0
 70
     8
 71
     3
 72
    19
 73
    15
 74
     0
 42
0.000000001
 43
0.00000001
 40
0.0
 40
0.0
 40
0.0
 40
0.0
 40
0.0815893489321832
 40
0.1628588951679349
 40
0.2454836892755791
 40
0.3308071391580105
 40
0.4164933737762838
 40
0.4998932031606312
 40
0.5830481559950209
 40
0.6671578520621574
 40
0.7513119292929131
 40
0.833784789357613
 40
0.9162564885439789
 40
1.0
 40
1.0
 40
1.0
 40
1.0
 10
0.7897472514973933
 20
0.0834252071909799
 30
0.0
 10
0.789880458162377
 20
0.0803116281064085
 30
0.0
 10
0.7901463493671983
 20
0.0740966741158726
 30
0.0
 10
0.7920571132527695
 20
0.0648837757752753
 30
0.0
 10
0.7952628184980228
 20
0.0559084870566094
 30
0.0
 10
0.7996372515500257
 20
0.0472469875194888
 30
0.0
 10
0.8051148676020761
 20
0.0392052660649394
 30
0.0
 10
0.8114640570700928
 20
0.0319381144533989
 30
0.0
 10
0.8187462200210116
 20
0.0256888581481985
 30
0.0
 10
0.8268124705263031
 20
0.0204576028906633
 30
0.0
 10
0.8354273255548994
 20
0.0162317085409895
 30
0.0
 10
0.8444868920886752
 20
0.0132913057190629
 30
0.0
 10
0.8538208662427104
 20
0.0113928928176219
 30
0.0
 10
0.8601674615178483
 20
0.0111711444721178
 30
0.0
 10
0.8633650399589318
 20
0.0110594219345697
 30
0.0
  0
SPLINE
  5
82
330
1F
100
AcDbEntity
  8
0
  6
Continuous
 62
     7
370
    25
100
AcDbSpline
210
0.0
220
0.0
230
1.0
 70
     8
 71
     3
 72
    19
 73
    15
 74
     0
 42
0.000000001
 43
0.00000001
 40
0.0
 40
0.0
 40
0.0
 40
0.0
 40
0.0859205174117675
 40
0.1695934351247425
 40
0.2524755148685374
 40
0.3362444769570511
 40
0.4195045210415719
 40
0.5020359066440896
 40
0.5847746476768719
 40
0.6698464747058006
 40
0.7541848663887866
 40
0.8366582383293271
 40
0.9180097257088055
 40
1.0
 40
1.0
 40
1.0
 40
1.0
 10
0.8635653604717521
 20
0.155290191165339
 30
0.0
 10
0.8602857649094624
 20
0.1551735027560138
 30
0.0
 10
0.8538123649116128
 20
0.1549431783960958
 30
0.0
 10
0.8443092219071531
 20
0.153145071597198
 30
0.0
 10
0.8352154066151513
 20
0.15015331485693
 30
0.0
 10
0.8265764013102531
 20
0.1460617504877613
 30
0.0
 10
0.8185286715514962
 20
0.1409168407294002
 30
0.0
 10
0.8113362664922584
 20
0.1346938847799837
 30
0.0
 10
0.8049403592525487
 20
0.1275626694832229
 30
0.0
 10
0.7995611975216375
 20
0.1195553758839243
 30
0.0
 10
0.7951761620273742
 20
0.1109712265218797
 30
0.0
 10
0.7920928026033215
 20
0.1019980523718028
 30
0.0
 10
0.790059284931239
 20
0.0927976968320396
 30
0.0
 10
0.7898515334625623
 20
0.086557504990772
 30
0.0
 10
0.7897472514973933
 20
0.0834252071909799
 30
0.0
  0
SPLINE
  5
83
330
1F
100
AcDbEntity
  8
0
  6
Continuous
 62
     7
370
    25
100
AcDbSpline
210
0.0
220
0.0
230
1.0
 70
     8
 71
     3
 72
    11
 73
     7
 74
     0
 42
0.000000001
 43
0.00000001
 40
0.0
 40
0.0
 40
0.0
 40
0.0
 40
0.2629516255674848
 40
0.5157066923583578
 40
0.7621092269531111
 40
1.0
 40
1.0
 40
1.0
 40
1.0
 10
-1.043285601066709
 20
0.0146651911653389
 30
0.0
 10
-1.041908150241058
 20
0.0141252299267834
 30
0.0
 10
-1.039206662438311
 20
0.0130662456982728
 30
0.0
 10
-1.035076299604916
 20
0.0118843958189117
 30
0.0
 10
-1.030969511250542
 20
0.0112385093960445
 30
0.0
 10
-1.02824681883149
 20
0.0111184141718572
 30
0.0
 10
-1.026909399143633
 20
0.0110594219345697
 30
0.0
  0
SPLINE
  5
84
330
1F
100
AcDbEntity
  8
0
  6
Continuous
 62
     7
370
    25
100
AcDbSpline
210
0.0
220
0.0
230
1.0
 70
     8
 71
     3
 72
    11
 73
     7
 74
     0
 42
0.000000001
 43
0.00000001
 40
0.0
 40
0.0
 40
0.0
 40
0.0
 40
0.2991842876765378
 40
0.56489894635681
 40
0.7985478688426186
 40
0.9999999999999999
 40
0.9999999999999999
 40
0.9999999999999999
 40
0.9999999999999999
 10
-1.075236722861581
 20
0.0334953193704671
 30
0.0
 10
-1.07218653150283
 20
0.0313919339282703
 30
0.0
 10
-1.066427372497101
 20
0.0274204679488675
 30
0.0
 10
-1.057962769576665
 20
0.0223114250602212
 30
0.0
 10
-1.050462972933382
 20
0.017931056091836
 30
0.0
 10
-1.045557048124355
 20
0.0156987504424339
 30
0.0
 10
-1.043285601066709
 20
0.0146651911653389
 30
0.0
  0
SPLINE
  5
86
330
1F
100
AcDbEntity
  8
0
  6
Continuous
 62
     7
370
    25
100
AcDbSpline
210
0.0
220
0.0
230
1.0
 70
     8
 71
     3
 72
    15
 73
    11
 74
     0
 42
0.000000001
 43
0.00000001
 40
0.0
 40
0.0
 40
0.0
 40
0.0
 40
0.1060709021051289
 40
0.213421680412452
 40
0.3216854881303252
 40
0.4338579390981588
 40
0.5540812827743551
 40
0.6875870439665631
 40
0.8364658500651146
 40
1.0
 40
1.0
 40
1.0
 40
1.0
 10
-1.028161402348761
 20
-0.014581603706456
 30
0.0
 10
-1.030586999367583
 20
-0.0145044173400925
 30
0.0
 10
-1.035467461223627
 20
-0.014349113258697
 30
0.0
 10
-1.042731083278068
 20
-0.0130832766122899
 30
0.0
 10
-1.049974081553562
 20
-0.0111321306589776
 30
0.0
 10
-1.057234899327865
 20
-0.0082748024162127
 30
0.0
 10
-1.06465698799558
 20
-0.0043886882387416
 30
0.0
 10
-1.072340869902267
 20
0.0006959415169037
 30
0.0
 10
-1.080385383542185
 20
0.0069696219738545
 30
0.0
 10
-1.085684189692667
 20
0.0117580323744304
 30
0.0
 10
-1.088457876707735
 20
0.0142645501396979
 30
0.0
  0
SPLINE
  5
87
330
1F
100
AcDbEntity
  8
0
  6
Continuous
 62
     7
370
    25
100
AcDbSpline
210
0.0
220
0.0
230
1.0
 70
     8
 71
     3
 72
    23
 73
    19
 74
     0
 42
0.000000001
 43
0.00000001
 40
0.0
 40
0.0
 40
0.0
 40
0.0
 40
0.0773606839426993
 40
0.148541953025043
 40
0.2140077372521338
 40
0.2729945033606874
 40
0.326409195767468
 40
0.3738804007298082
 40
0.4160199382657594
 40
0.4521255195126329
 40
0.5180017107054562
 40
0.582366929733514
 40
0.6470437823418068
 40
0.7133304210644732
 40
0.7809119703509683
 40
0.850394959130645
 40
0.9229229735922769
 40
1.0
 40
1.0
 40
1.0
 40
1.0
 10
-0.9698681331179915
 20
0.0730085405243133
 30
0.0
 10
-0.9698905558774079
 20
0.0698867426031866
 30
0.0
 10
-0.9699336103116002
 20
0.063892509660557
 30
0.0
 10
-0.9701703539212744
 20
0.0552586599540115
 30
0.0
 10
-0.9706084594860246
 20
0.0473750395109066
 30
0.0
 10
-0.9712466746638437
 20
0.0402237218685681
 30
0.0
 10
-0.9720981198655312
 20
0.0338271107765844
 30
0.0
 10
-0.9730724790169599
 20
0.0281357809326677
 30
0.0
 10
-0.9742519646438071
 20
0.0231972321949646
 30
0.0
 10
-0.9760281408103131
 20
0.0176518496422576
 30
0.0
 10
-0.9789405657064648
 20
0.0115701493041598
 30
0.0
 10
-0.9833239255739616
 20
0.0050019242608861
 30
0.0
 10
-0.9887691253192946
 20
-0.000743319356993
 30
0.0
 10
-0.9950763419745857
 20
-0.0057327997081134
 30
0.0
 10
-1.002300700837429
 20
-0.009708316220708
 30
0.0
 10
-1.010293430774868
 20
-0.0125622575356933
 30
0.0
 10
-1.019005329878297
 20
-0.0143030330088559
 30
0.0
 10
-1.02504813076061
 20
-0.0144868833729366
 30
0.0
 10
-1.028161402348761
 20
-0.014581603706456
 30
0.0
  0
SPLINE
  5
8A
330
1F
100
AcDbEntity
  8
0
  6
Continuous
 62
     7
370
    25
100
AcDbSpline
210
0.0
220
0.0
230
1.0
 70
     8
 71
     3
 72
    19
 73
    15
 74
     0
 42
0.000000001
 43
0.00000001
 40
0.0
 40
0.0
 40
0.0
 40
0.0
 40
0.096972310381516
 40
0.1877734389628682
 40
0.2723961390136932
 40
0.351320997375289
 40
0.4243347744514672
 40
0.4919087840005273
 40
0.5542332197968007
 40
0.6112676582441551
 40
0.7163478449915539
 40
0.8145400858216159
 40
0.9084954561491857
 40
1.0
 40
1.0
 40
1.0
 40
1.0
 10
-0.6056854408102992
 20
0.1337557360371338
 30
0.0
 10
-0.6029721612883409
 20
0.131781353212154
 30
0.0
 10
-0.5977182715470201
 20
0.1279582345155167
 30
0.0
 10
-0.5902427301247692
 20
0.1222142573706991
 30
0.0
 10
-0.5834646009751367
 20
0.1165965596153929
 30
0.0
 10
-0.5773600864344107
 20
0.1111410162513865
 30
0.0
 10
-0.5718688786887128
 20
0.1058890096082689
 30
0.0
 10
-0.5670518986405133
 20
0.1007773538703986
 30
0.0
 10
-0.5628600643300004
 20
0.0958426701073827
 30
0.0
 10
-0.5583472630114181
 20
0.0895160575580124
 30
0.0
 10
-0.5537359901885267
 20
0.0817459801098454
 30
0.0
 10
-0.5497758825152317
 20
0.0722261059280401
 30
0.0
 10
-0.547278857697049
 20
0.0626692258925425
 30
0.0
 10
-0.5469523208804805
 20
0.0562458804300383
 30
0.0
 10
-0.5467912100410683
 20
0.0530766494986723
 30
0.0
  0
SPLINE
  5
8B
330
1F
100
AcDbEntity
  8
0
  6
Continuous
 62
     7
370
    25
100
AcDbSpline
210
0.0
220
0.0
230
1.0
 70
     8
 71
     3
 72
    15
 73
    11
 74
     0
 42
0.000000001
 43
0.00000001
 40
0.0
 40
0.0
 40
0.0
 40
0.0
 40
0.0525942815291371
 40
0.1249519739750379
 40
0.2180938989285935
 40
0.3335024107325182
 40
0.4687891785044476
 40
0.6249375859645979
 40
0.8016830479282276
 40
1.0
 40
1.0
 40
1.0
 40
1.0
 10
-0.6392892068359401
 20
0.1586455597550825
 30
0.0
 10
-0.6387419659496766
 20
0.1581572007682381
 30
0.0
 10
-0.6374418468684683
 20
0.1569969716018626
 30
0.0
 10
-0.6350649950299208
 20
0.1550975229844525
 30
0.0
 10
-0.6319262237277821
 20
0.1527544678205046
 30
0.0
 10
-0.6281074950722934
 20
0.149855373786591
 30
0.0
 10
-0.6235383978060751
 20
0.1464924122067859
 30
0.0
 10
-0.6182184295100314
 20
0.1427085827665146
 30
0.0
 10
-0.6122068914503933
 20
0.1383810499803087
 30
0.0
 10
-0.6079410403147087
 20
0.1353555113653134
 30
0.0
 10
-0.6056854408102992
 20
0.1337557360371338
 30
0.0
  0
SPLINE
  5
8C
330
1F
100
AcDbEntity
  8
0
  6
Continuous
 62
     7
370
    25
100
AcDbSpline
210
0.0
220
0.0
230
1.0
 70
     8
 71
     3
 72
    15
 73
    11
 74
     0
 42
0.000000001
 43
0.00000001
 40
0.0
 40
0.0
 40
0.0
 40
0.0
 40
0.1072852142689562
 40
0.2147458609696407
 40
0.3229385595552877
 40
0.4341161625174672
 40
0.5534123109627954
 40
0.6860729848107319
 40
0.834255992059585
 40
1.0
 40
1.0
 40
1.0
 40
1.0
 10
-0.6557655690154274
 20
0.1909472424473902
 30
0.0
 10
-0.6557374885415055
 20
0.1896078511230716
 30
0.0
 10
-0.6556812816765621
 20
0.1869268783061184
 30
0.0
 10
-0.6548973675561057
 20
0.1829660624522645
 30
0.0
 10
-0.6538902726305461
 20
0.179015252493791
 30
0.0
 10
-0.6522943703624446
 20
0.1750922108627792
 30
0.0
 10
-0.6500911343898886
 20
0.1711283280733318
 30
0.0
 10
-0.6471979075394341
 20
0.1670553468191497
 30
0.0
 10
-0.6435540995358646
 20
0.1628373676282837
 30
0.0
 10
-0.6407628843679062
 20
0.1600939837872191
 30
0.0
 10
-0.6392892068359401
 20
0.1586455597550825
 30
0.0
  0
SPLINE
  5
8D
330
1F
100
AcDbEntity
  8
0
  6
Continuous
 62
     7
370
    25
100
AcDbSpline
210
0.0
220
0.0
230
1.0
 70
     8
 71
     3
 72
    15
 73
    11
 74
     0
 42
0.000000001
 43
0.00000001
 40
0.0
 40
0.0
 40
0.0
 40
0.0
 40
0.143073083730362
 40
0.2759029640930085
 40
0.4023708562739968
 40
0.5284136450935948
 40
0.6503563791869519
 40
0.7658950861246944
 40
0.8807741308440213
 40
1.0
 40
1.0
 40
1.0
 40
1.0
 10
-0.6191069151692735
 20
0.2225978834730312
 30
0.0
 10
-0.6216895239125213
 20
0.2225113334764678
 30
0.0
 10
-0.6266698415849742
 20
0.2223444299613448
 30
0.0
 10
-0.633740572735515
 20
0.2205215738690844
 30
0.0
 10
-0.6401044245257466
 20
0.217651440990095
 30
0.0
 10
-0.6455724648869041
 20
0.21362894255469
 30
0.0
 10
-0.6501251061042643
 20
0.2088631573628962
 30
0.0
 10
-0.6534183531588997
 20
0.2033789534289732
 30
0.0
 10
-0.6554005077697606
 20
0.1973230675286494
 30
0.0
 10
-0.6556423848876919
 20
0.1930986635049557
 30
0.0
 10
-0.6557655690154274
 20
0.1909472424473902
 30
0.0
  0
SPLINE
  5
8E
330
1F
100
AcDbEntity
  8
0
  6
Continuous
 62
     7
370
    25
100
AcDbSpline
210
0.0
220
0.0
230
1.0
 70
     8
 71
     3
 72
    19
 73
    15
 74
     0
 42
0.000000001
 43
0.00000001
 40
0.0
 40
0.0
 40
0.0
 40
0.0
 40
0.0984694310255575
 40
0.1896291011376315
 40
0.2741840894379703
 40
0.3521831609671547
 40
0.4231988731834699
 40
0.4885509460005326
 40
0.5484733460279377
 40
0.6014401636178727
 40
0.7011980824257659
 40
0.7995918021381845
 40
0.8985450984822281
 40
1.0
 40
1.0
 40
1.0
 40
1.0
 10
-0.5702787901692735
 20
0.1905466014217492
 30
0.0
 10
-0.5715034996315818
 20
0.1921243650233651
 30
0.0
 10
-0.5738620037081615
 20
0.1951627688250934
 30
0.0
 10
-0.5774426813410554
 20
0.1994178627969692
 30
0.0
 10
-0.5808175847639326
 20
0.2033047541921076
 30
0.0
 10
-0.5841426133199482
 20
0.2066808347656821
 30
0.0
 10
-0.5872421584246563
 20
0.2097309871469595
 30
0.0
 10
-0.5902505185851533
 20
0.2123423983487065
 30
0.0
 10
-0.5931244008163967
 20
0.2145406551651413
 30
0.0
 10
-0.5967470372911137
 20
0.2168866237336529
 30
0.0
 10
-0.6012983028856277
 20
0.2192120882732785
 30
0.0
 10
-0.607011484045579
 20
0.2211798795645442
 30
0.0
 10
-0.6129819322623626
 20
0.2223623839873147
 30
0.0
 10
-0.6170483345116977
 20
0.2225187330993023
 30
0.0
 10
-0.6191069151692736
 20
0.2225978834730313
 30
0.0
  0
SPLINE
  5
90
330
1F
100
AcDbEntity
  8
0
  6
Continuous
 62
     7
370
    25
100
AcDbSpline
210
0.0
220
0.0
230
1.0
 70
     8
 71
     3
 72
    19
 73
    15
 74
     0
 42
0.000000001
 43
0.00000001
 40
0.0
 40
0.0
 40
0.0
 40
0.0
 40
0.1072327993600893
 40
0.2132518127818498
 40
0.3188304473075877
 40
0.4267935306342757
 40
0.483645950782719
 40
0.5436038220211425
 40
0.6083076495640835
 40
0.6771267602600409
 40
0.7506856360204963
 40
0.8287134184432874
 40
0.9121903482234531
 40
1.0
 40
1.0
 40
1.0
 40
1.0
 10
-0.6166029087590172
 20
0.2482389091140569
 30
0.0
 10
-0.6136569015948736
 20
0.2481372982855439
 30
0.0
 10
-0.6077982336129595
 20
0.2479352267784307
 30
0.0
 10
-0.5991804325008495
 20
0.2461782602555926
 30
0.0
 10
-0.5908832384722341
 20
0.2432710694135934
 30
0.0
 10
-0.5842087195565566
 20
0.2399718795580532
 30
0.0
 10
-0.5789849508807114
 20
0.2366767784356764
 30
0.0
 10
-0.5750011842600738
 20
0.2336753624157593
 30
0.0
 10
-0.5709642234896046
 20
0.2302199975154594
 30
0.0
 10
-0.5668415052875511
 20
0.2263014799382581
 30
0.0
 10
-0.5627028867561824
 20
0.2218838548604288
 30
0.0
 10
-0.5584869258815996
 20
0.2169973770811986
 30
0.0
 10
-0.5541837638236933
 20
0.2116719088051713
 30
0.0
 10
-0.5514154881005567
 20
0.2078701587512774
 30
0.0
 10
-0.5499963382461965
 20
0.2059212007807235
 30
0.0
  0
SPLINE
  5
91
330
1F
100
AcDbEntity
  8
0
  6
Continuous
 62
     7
370
    25
100
AcDbSpline
210
0.0
220
0.0
230
1.0
 70
     8
 71
     3
 72
    19
 73
    15
 74
     0
 42
0.000000001
 43
0.00000001
 40
0.0
 40
0.0
 40
0.0
 40
0.0
 40
0.08378537065371
 40
0.165779887922142
 40
0.246280007893263
 40
0.3274609277363896
 40
0.4087969540320686
 40
0.489715241230989
 40
0.5713760321300531
 40
0.6555233211112769
 40
0.7410194827999742
 40
0.8265467605037613
 40
0.9119888516548346
 40
1.0
 40
1.0
 40
1.0
 40
1.0
 10
-0.6782014664513248
 20
0.1898955597550825
 30
0.0
 10
-0.6781082372375128
 20
0.1925405436525613
 30
0.0
 10
-0.6779237715187812
 20
0.1977739767764917
 30
0.0
 10
-0.6763637345708944
 20
0.2054190360937848
 30
0.0
 10
-0.6739013850241453
 20
0.2127180658950393
 30
0.0
 10
-0.6704517501768898
 20
0.2195988040182333
 30
0.0
 10
-0.6660047963970156
 20
0.2258820883673912
 30
0.0
 10
-0.6608586553709287
 20
0.2316401945803936
 30
0.0
 10
-0.6547292634968241
 20
0.2364808075961709
 30
0.0
 10
-0.6480040761208667
 20
0.2407102403382582
 30
0.0
 10
-0.6406429066863889
 20
0.2440206635673338
 30
0.0
 10
-0.6329292707294155
 20
0.2465178764359406
 30
0.0
 10
-0.6248509084419018
 20
0.2479328234138661
 30
0.0
 10
-0.6193792559688007
 20
0.2481358780504836
 30
0.0
 10
-0.6166029087590171
 20
0.2482389091140569
 30
0.0
  0
SPLINE
  5
92
330
1F
100
AcDbEntity
  8
0
  6
Continuous
 62
     7
370
    25
100
AcDbSpline
210
0.0
220
0.0
230
1.0
 70
     8
 71
     3
 72
    15
 73
    11
 74
     0
 42
0.000000001
 43
0.00000001
 40
0.0
 40
0.0
 40
0.0
 40
0.0
 40
0.1335067689985182
 40
0.2625589787303699
 40
0.3882644471488782
 40
0.5126673546814285
 40
0.6337222699657608
 40
0.7553938601370952
 40
0.8775529450912782
 40
1.0
 40
1.0
 40
1.0
 40
1.0
 10
-0.664229110682094
 20
0.1518346623191851
 30
0.0
 10
-0.6653342924843191
 20
0.1533061649516279
 30
0.0
 10
-0.6675077808211296
 20
0.1562000723637498
 30
0.0
 10
-0.6703767812114936
 20
0.1607232764900146
 30
0.0
 10
-0.6728152928399495
 20
0.165353509733531
 30
0.0
 10
-0.6747268879925383
 20
0.1701032143452872
 30
0.0
 10
-0.6763366179096503
 20
0.1749057092653282
 30
0.0
 10
-0.6774193272466341
 20
0.1798236553867294
 30
0.0
 10
-0.6780972841691899
 20
0.18483498527705
 30
0.0
 10
-0.6781667117786974
 20
0.1882073781786577
 30
0.0
 10
-0.6782014664513248
 20
0.1898955597550825
 30
0.0
  0
SPLINE
  5
93
330
1F
100
AcDbEntity
  8
0
  6
Continuous
 62
     7
370
    25
100
AcDbSpline
210
0.0
220
0.0
230
1.0
 70
     8
 71
     3
 72
    15
 73
    11
 74
     0
 42
0.000000001
 43
0.00000001
 40
0.0
 40
0.0
 40
0.0
 40
0.0
 40
0.1815353013762838
 40
0.3470816724816284
 40
0.4955678164315539
 40
0.6283573018772131
 40
0.7455196699921555
 40
0.8458307507576511
 40
0.9307818073847576
 40
1.0
 40
1.0
 40
1.0
 40
1.0
 10
-0.6232635658102992
 20
0.117830255267903
 30
0.0
 10
-0.6258938512516603
 20
0.1197037258121407
 30
0.0
 10
-0.6309227567216733
 20
0.1232856588296272
 30
0.0
 10
-0.6379555126035569
 20
0.1286016791163143
 30
0.0
 10
-0.6442444028185506
 20
0.1334619555121644
 30
0.0
 10
-0.6497614754273586
 20
0.137912242090917
 30
0.0
 10
-0.6545043037735055
 20
0.1419531424287652
 30
0.0
 10
-0.6585102617030875
 20
0.1455458523674917
 30
0.0
 10
-0.6616773014956276
 20
0.1487875352866601
 30
0.0
 10
-0.6634384143998081
 20
0.1508904882684572
 30
0.0
 10
-0.664229110682094
 20
0.1518346623191851
 30
0.0
  0
SPLINE
  5
94
330
1F
100
AcDbEntity
  8
0
  6
Continuous
 62
     7
370
    25
100
AcDbSpline
210
0.0
220
0.0
230
1.0
 70
     8
 71
     3
 72
    15
 73
    11
 74
     0
 42
0.000000001
 43
0.00000001
 40
0.0
 40
0.0
 40
0.0
 40
0.0
 40
0.0902792146500152
 40
0.1895299184469587
 40
0.2991978724002881
 40
0.4189258867738195
 40
0.5483762854012475
 40
0.6881363695386801
 40
0.8390835016589192
 40
0.9999999999999999
 40
0.9999999999999999
 40
0.9999999999999999
 40
0.9999999999999999
 10
-0.5781914504256838
 20
0.077966473216621
 30
0.0
 10
-0.579310780010012
 20
0.0793983891882882
 30
0.0
 10
-0.5816606724592924
 20
0.08240451765745
 30
0.0
 10
-0.5857004947873646
 20
0.0868791773342672
 30
0.0
 10
-0.5904409315234642
 20
0.0914947786879854
 30
0.0
 10
-0.5957197568742973
 20
0.0964275684700808
 30
0.0
 10
-0.6017292632200556
 20
0.1014481253763693
 30
0.0
 10
-0.6082812285345663
 20
0.1067958595148658
 30
0.0
 10
-0.6155429327464327
 20
0.1122674007324855
 30
0.0
 10
-0.620635753933432
 20
0.1159368697000965
 30
0.0
 10
-0.6232635658102992
 20
0.117830255267903
 30
0.0
  0
SPLINE
  5
95
330
1F
100
AcDbEntity
  8
0
  6
Continuous
 62
     7
370
    25
100
AcDbSpline
210
0.0
220
0.0
230
1.0
 70
     8
 71
     3
 72
    11
 73
     7
 74
     0
 42
0.000000001
 43
0.00000001
 40
0.0
 40
0.0
 40
0.0
 40
0.0
 40
0.2347233736739014
 40
0.4771583189289872
 40
0.7285562842030551
 40
1.0
 40
1.0
 40
1.0
 40
1.0
 10
-0.5692271074769658
 20
0.0534272103961082
 30
0.0
 10
-0.5693324153840584
 20
0.055508699660927
 30
0.0
 10
-0.5695464909707023
 20
0.0597400631716166
 30
0.0
 10
-0.57135588240445
 20
0.0659828955254706
 30
0.0
 10
-0.5742022571789817
 20
0.0721609362414891
 30
0.0
 10
-0.5768281603007654
 20
0.0759824552113292
 30
0.0
 10
-0.5781914504256838
 20
0.077966473216621
 30
0.0
  0
SPLINE
  5
96
330
1F
100
AcDbEntity
  8
0
  6
Continuous
 62
     7
370
    25
100
AcDbSpline
210
0.0
220
0.0
230
1.0
 70
     8
 71
     3
 72
    19
 73
    15
 74
     0
 42
0.000000001
 43
0.00000001
 40
0.0
 40
0.0
 40
0.0
 40
0.0
 40
0.091263604896627
 40
0.1809303110850831
 40
0.2700882198317236
 40
0.3601561333877272
 40
0.448342532498154
 40
0.5326658421383311
 40
0.6138337041070484
 40
0.6939815272835589
 40
0.7727159770890044
 40
0.8493351720622468
 40
0.9239673265752323
 40
1.0
 40
1.0
 40
1.0
 40
1.0
 10
-0.6182054728615815
 20
0.0110594219345697
 30
0.0
 10
-0.6160135542536174
 20
0.0111204699711565
 30
0.0
 10
-0.6116680704645291
 20
0.0112414978470914
 30
0.0
 10
-0.6052707673958782
 20
0.0124044122791911
 30
0.0
 10
-0.5990577815197314
 20
0.0141909929158672
 30
0.0
 10
-0.5931571645389784
 20
0.0167496308807589
 30
0.0
 10
-0.5876503349295835
 20
0.0198452370039721
 30
0.0
 10
-0.5828212852626807
 20
0.0235842496830655
 30
0.0
 10
-0.5786465628927187
 20
0.0277704072340436
 30
0.0
 10
-0.5752316261379222
 20
0.0324405968513233
 30
0.0
 10
-0.5726116236173252
 20
0.0374632503232734
 30
0.0
 10
-0.5705979044449524
 20
0.0426186754188655
 30
0.0
 10
-0.5694803991837825
 20
0.0479878588673648
 30
0.0
 10
-0.569312059651162
 20
0.0516028919279213
 30
0.0
 10
-0.5692271074769658
 20
0.0534272103961082
 30
0.0
  0
SPLINE
  5
97
330
1F
100
AcDbEntity
  8
0
  6
Continuous
 62
     7
370
    25
100
AcDbSpline
210
0.0
220
0.0
230
1.0
 70
     8
 71
     3
 72
    15
 73
    11
 74
     0
 42
0.000000001
 43
0.00000001
 40
0.0
 40
0.0
 40
0.0
 40
0.0
 40
0.1590042985173782
 40
0.3046460998968142
 40
0.4385469045795922
 40
0.5623222987759271
 40
0.6774325425257322
 40
0.7868973929387558
 40
0.893610889104269
 40
0.9999999999999999
 40
0.9999999999999999
 40
0.9999999999999999
 40
0.9999999999999999
 10
-0.6730932933744017
 20
0.0527260886012364
 30
0.0
 10
-0.6711277049993638
 20
0.0494357753907287
 30
0.0
 10
-0.6673617135259166
 20
0.0431316622543748
 30
0.0
 10
-0.661079473586453
 20
0.0346132307951764
 30
0.0
 10
-0.6545699799317446
 20
0.0273730767409625
 30
0.0
 10
-0.6477850275353562
 20
0.021453319059546
 30
0.0
 10
-0.6407660312409004
 20
0.016792684291859
 30
0.0
 10
-0.6334671702597074
 20
0.0134925248833913
 30
0.0
 10
-0.6259130409231763
 20
0.0114342409282955
 30
0.0
 10
-0.6207720536746459
 20
0.0111842347458197
 30
0.0
 10
-0.6182054728615812
 20
0.0110594219345697
 30
0.0
  0
SPLINE
  5
99
330
1F
100
AcDbEntity
  8
0
  6
Continuous
 62
     7
370
    25
100
AcDbSpline
210
0.0
220
0.0
230
1.0
 70
     8
 71
     3
 72
    23
 73
    19
 74
     0
 42
0.000000001
 43
0.00000001
 40
0.0
 40
0.0
 40
0.0
 40
0.0
 40
0.0572082694335086
 40
0.1136960596574902
 40
0.1691779164171952
 40
0.2241592165805423
 40
0.2787198783810425
 40
0.3337942174469882
 40
0.3892414593400026
 40
0.4458220733936213
 40
0.5037042811090204
 40
0.5642938918193626
 40
0.6279754158952232
 40
0.6950382596840508
 40
0.7653727258510128
 40
0.8396114430907351
 40
0.9175377500777891
 40
0.9999999999999999
 40
0.9999999999999999
 40
0.9999999999999999
 40
0.9999999999999999
 10
-0.6182054728615812
 20
-0.014581603706456
 30
0.0
 10
-0.6200937116459367
 20
-0.0145450907352123
 30
0.0
 10
-0.623846408792687
 20
-0.0144725246359769
 30
0.0
 10
-0.6293970860693422
 20
-0.0138310046058216
 30
0.0
 10
-0.6348356281549186
 20
-0.0129233543493089
 30
0.0
 10
-0.640093791157356
 20
-0.0114823493509561
 30
0.0
 10
-0.6452393205603381
 20
-0.0097339938479492
 30
0.0
 10
-0.6502498373121919
 20
-0.0075812558052212
 30
0.0
 10
-0.6551277697304689
 20
-0.0050014557018376
 30
0.0
 10
-0.6599004542210652
 20
-0.0020518110855055
 30
0.0
 10
-0.664555752405789
 20
0.0013808849547514
 30
0.0
 10
-0.6690500001149927
 20
0.0053789918431935
 30
0.0
 10
-0.673530656223085
 20
0.0098322421997147
 30
0.0
 10
-0.6778654702460555
 20
0.0148615681541218
 30
0.0
 10
-0.6821421234107553
 20
0.0203857169296768
 30
0.0
 10
-0.6862762955205051
 20
0.0264563728866361
 30
0.0
 10
-0.6903535610690078
 20
0.0330404695837057
 30
0.0
 10
-0.6929118087709583
 20
0.0376736899922642
 30
0.0
 10
-0.6942271074769658
 20
0.0400558161653389
 30
0.0
  0
SPLINE
  5
A8
330
1F
100
AcDbEntity
  8
0
  6
Continuous
 62
     7
370
    25
100
AcDbSpline
210
0.0
220
0.0
230
1.0
 70
     8
 71
     3
 72
    15
 73
    11
 74
     0
 42
0.000000001
 43
0.00000001
 40
0.0
 40
0.0
 40
0.0
 40
0.0
 40
0.0769954547170578
 40
0.1676150771831733
 40
0.2710523936342344
 40
0.3894595025720744
 40
0.5208428024655766
 40
0.6663987586080736
 40
0.8260936125153157
 40
1.0
 40
1.0
 40
1.0
 40
1.0
 10
0.011151498292265
 20
0.1069127873191851
 30
0.0
 10
0.0108700948225729
 20
0.1056802728153356
 30
0.0
 10
0.0102574941896472
 20
0.1029971532149476
 30
0.0
 10
0.0095958384854431
 20
0.0985939804017633
 30
0.0
 10
0.0089952973853233
 20
0.0935004107594663
 30
0.0
 10
0.0084926574839964
 20
0.0877223881126208
 30
0.0
 10
0.0081851277360982
 20
0.0812396827470819
 30
0.0
 10
0.0078498136808372
 20
0.0740799800467968
 30
0.0
 10
0.0077277378903811
 20
0.0662147308785053
 30
0.0
 10
0.0077068554605563
 20
0.060738895683879
 30
0.0
 10
0.0076959694461111
 20
0.0578843418063646
 30
0.0
  0
SPLINE
  5
A9
330
1F
100
AcDbEntity
  8
0
  6
Continuous
 62
     7
370
    25
100
AcDbSpline
210
0.0
220
0.0
230
1.0
 70
     8
 71
     3
 72
    23
 73
    19
 74
     0
 42
0.000000001
 43
0.00000001
 40
0.0
 40
0.0
 40
0.0
 40
0.0
 40
0.0639861098164658
 40
0.1266268580894768
 40
0.1889843719814869
 40
0.2502301939603975
 40
0.3123511629623218
 40
0.3745736184579383
 40
0.4381475308782042
 40
0.5029204126073701
 40
0.5679740951402708
 40
0.63077133374919
 40
0.6929346089254588
 40
0.7543975343123289
 40
0.8152183520172955
 40
0.8761169254810913
 40
0.9380146047939534
 40
1.0
 40
1.0
 40
1.0
 40
1.0
 10
0.073300937394829
 20
0.155290191165339
 30
0.0
 10
0.0714961028516241
 20
0.155256190832229
 30
0.0
 10
0.0679243819229268
 20
0.1551889050514859
 30
0.0
 10
0.0626279553582019
 20
0.154513812335558
 30
0.0
 10
0.0574905144169191
 20
0.1534096369356753
 30
0.0
 10
0.0524604994887207
 20
0.1519190199714505
 30
0.0
 10
0.047638514221932
 20
0.1498717150269727
 30
0.0
 10
0.0428696362804904
 20
0.1475481885823365
 30
0.0
 10
0.0383334388426455
 20
0.1446518877262416
 30
0.0
 10
0.0339331961906112
 20
0.14142398619483
 30
0.0
 10
0.0298394242153848
 20
0.1378468999664308
 30
0.0
 10
0.0260302571860523
 20
0.1340722920983674
 30
0.0
 10
0.0226346843109736
 20
0.1300526061129326
 30
0.0
 10
0.0195583503621385
 20
0.125852609860856
 30
0.0
 10
0.0169027601208831
 20
0.1214146214324917
 30
0.0
 10
0.0145846824021464
 20
0.1167814566840057
 30
0.0
 10
0.0126178470598798
 20
0.1119470174823011
 30
0.0
 10
0.0116405118834621
 20
0.1085916559658184
 30
0.0
 10
0.011151498292265
 20
0.1069127873191851
 30
0.0
  0
SPLINE
  5
AA
330
1F
100
AcDbEntity
  8
0
  6
Continuous
 62
     7
370
    25
100
AcDbSpline
210
0.0
220
0.0
230
1.0
 70
     8
 71
     3
 72
    15
 73
    11
 74
     0
 42
0.000000001
 43
0.00000001
 40
0.0
 40
0.0
 40
0.0
 40
0.0
 40
0.1355195283706055
 40
0.2608331631936789
 40
0.3784760291245031
 40
0.4931776464746763
 40
0.6092809649289381
 40
0.729981037856646
 40
0.8592613089300658
 40
0.9999999999999999
 40
0.9999999999999999
 40
0.9999999999999999
 40
0.9999999999999999
 10
0.1204263380358547
 20
0.1193326591140569
 30
0.0
 10
0.1196673714996888
 20
0.1221691723246032
 30
0.0
 10
0.1182065957372101
 20
0.1276285826549297
 30
0.0
 10
0.1145970255139856
 20
0.1350338935564617
 30
0.0
 10
0.1100388697434593
 20
0.1413337641156972
 30
0.0
 10
0.1044747376459473
 20
0.1464892442317254
 30
0.0
 10
0.0979583751002065
 20
0.1505014468535117
 30
0.0
 10
0.090507864902504
 20
0.1532853007625874
 30
0.0
 10
0.0821951048544811
 20
0.1550264628482236
 30
0.0
 10
0.0763483632349466
 20
0.1551998294207469
 30
0.0
 10
0.073300937394829
 20
0.155290191165339
 30
0.0
  0
SPLINE
  5
AB
330
1F
100
AcDbEntity
  8
0
  6
Continuous
 62
     7
370
    25
100
AcDbSpline
210
0.0
220
0.0
230
1.0
 70
     8
 71
     3
 72
    15
 73
    11
 74
     0
 42
0.000000001
 43
0.00000001
 40
0.0
 40
0.0
 40
0.0
 40
0.0
 40
0.17885001941116
 40
0.3421096489422998
 40
0.4898256633683922
 40
0.6232544282245641
 40
0.7400796760857926
 40
0.8414826730699856
 40
0.9289076721840656
 40
1.0
 40
1.0
 40
1.0
 40
1.0
 10
0.1230805848307265
 20
0.0777661527038005
 30
0.0
 10
0.1230667842579446
 20
0.0802534701987117
 30
0.0
 10
0.1230403861109097
 20
0.0850112852539951
 30
0.0
 10
0.1229571256334428
 20
0.0918233583390195
 30
0.0
 10
0.1227564251618024
 20
0.0980009710820752
 30
0.0
 10
0.1224744028106567
 20
0.1035293544681768
 30
0.0
 10
0.12206161491571
 20
0.1084031999369875
 30
0.0
 10
0.1216314269621385
 20
0.1126324339897377
 30
0.0
 10
0.1211053571909282
 20
0.116211687020653
 30
0.0
 10
0.120636577681131
 20
0.1183663357623052
 30
0.0
 10
0.1204263380358547
 20
0.1193326591140569
 30
0.0
  0
SPLINE
  5
AF
330
1F
100
AcDbEntity
  8
0
  6
Continuous
 62
     7
370
    25
100
AcDbSpline
210
0.0
220
0.0
230
1.0
 70
     8
 71
     3
 72
    23
 73
    19
 74
     0
 42
0.000000001
 43
0.00000001
 40
0.0
 40
0.0
 40
0.0
 40
0.0
 40
0.0772404236164786
 40
0.151178140466383
 40
0.2234879838003992
 40
0.2955426441988695
 40
0.3669762546197892
 40
0.437130525486386
 40
0.5070436156432693
 40
0.5785597335236775
 40
0.6166135446965533
 40
0.6587562369775286
 40
0.7044912261144043
 40
0.7548031149051498
 40
0.8093316253185655
 40
0.8682744554728209
 40
0.932072883409294
 40
1.0
 40
1.0
 40
1.0
 40
1.0
 10
0.0772071873948291
 20
0.1777260886012364
 30
0.0
 10
0.0805879469745826
 20
0.1776014317840082
 30
0.0
 10
0.0872049089577119
 20
0.1773574483237595
 30
0.0
 10
0.0968390561992874
 20
0.1754276846729705
 30
0.0
 10
0.1058371557483431
 20
0.1721315950212096
 30
0.0
 10
0.1141671240189208
 20
0.1676164471352777
 30
0.0
 10
0.1216762106876808
 20
0.162001699035006
 30
0.0
 10
0.1282708429359786
 20
0.1554604289093521
 30
0.0
 10
0.1337253606058061
 20
0.1479364229639516
 30
0.0
 10
0.1373823151057852
 20
0.1409561975184798
 30
0.0
 10
0.139791289940856
 20
0.1347641407847089
 30
0.0
 10
0.1413078854775575
 20
0.1294608014919339
 30
0.0
 10
0.1425958127246557
 20
0.1235523621227143
 30
0.0
 10
0.1437123661544911
 20
0.1170566771902574
 30
0.0
 10
0.1444678741450223
 20
0.1099282350293745
 30
0.0
 10
0.1450637521115422
 20
0.1021962570255945
 30
0.0
 10
0.1454908017035639
 20
0.0938632477044815
 30
0.0
 10
0.1455077450597602
 20
0.0880999171752043
 30
0.0
 10
0.145516482266624
 20
0.0851279315499543
 30
0.0
  0
SPLINE
  5
B0
330
1F
100
AcDbEntity
  8
0
  6
Continuous
 62
     7
370
    25
100
AcDbSpline
210
0.0
220
0.0
230
1.0
 70
     8
 71
     3
 72
    15
 73
    11
 74
     0
 42
0.000000001
 43
0.00000001
 40
0.0
 40
0.0
 40
0.0
 40
0.0
 40
0.140975966268771
 40
0.2735687809631699
 40
0.3989883138042539
 40
0.5199297813924324
 40
0.6381100215247455
 40
0.7565889007405956
 40
0.8768597544106083
 40
1.0
 40
1.0
 40
1.0
 40
1.0
 10
0.0076959694461111
 20
0.1415682360371338
 30
0.0
 10
0.0100915148126907
 20
0.144557001954107
 30
0.0
 10
0.0147401541731596
 20
0.1503568064891
 30
0.0
 10
0.0224818922642607
 20
0.157979704671963
 30
0.0
 10
0.0306635994301614
 20
0.1642615064608761
 30
0.0
 10
0.0392351711078159
 20
0.1692689203140419
 30
0.0
 10
0.0482082432578106
 20
0.1730436793246605
 30
0.0
 10
0.057528119683746
 20
0.1757698172593514
 30
0.0
 10
0.0672505986900177
 20
0.1774044478693243
 30
0.0
 10
0.0738623441809847
 20
0.1776180357478618
 30
0.0
 10
0.0772071873948291
 20
0.1777260886012364
 30
0.0
  0
SPLINE
  5
B5
330
1F
100
AcDbEntity
  8
0
  6
Continuous
 62
     7
370
    25
100
AcDbSpline
210
0.0
220
0.0
230
1.0
 70
     8
 71
     3
 72
    15
 73
    11
 74
     0
 42
0.000000001
 43
0.00000001
 40
0.0
 40
0.0
 40
0.0
 40
0.0
 40
0.1298621417207383
 40
0.2546535308972893
 40
0.3760145541937133
 40
0.4952552518176079
 40
0.6147977192994577
 40
0.7381055541683335
 40
0.8651963000723588
 40
1.0
 40
1.0
 40
1.0
 40
1.0
 10
0.5235212899589317
 20
0.1777260886012364
 30
0.0
 10
0.5272498513205706
 20
0.1776233920625321
 30
0.0
 10
0.534561384176315
 20
0.1774220089970332
 30
0.0
 10
0.5452562419810882
 20
0.1757460999028202
 30
0.0
 10
0.555373704688485
 20
0.1729147808203312
 30
0.0
 10
0.5649918726906334
 20
0.1690635309615094
 30
0.0
 10
0.5740762074116925
 20
0.1639457645985153
 30
0.0
 10
0.5825407062914026
 20
0.157490053096827
 30
0.0
 10
0.5904739550991036
 20
0.1497371111703895
 30
0.0
 10
0.5950725473604764
 20
0.1437820794225874
 30
0.0
 10
0.5974395591897008
 20
0.1407168738576466
 30
0.0
  0
SPLINE
  5
B6
330
1F
100
AcDbEntity
  8
0
  6
Continuous
 62
     7
370
    25
100
AcDbSpline
210
0.0
220
0.0
230
1.0
 70
     8
 71
     3
 72
    23
 73
    19
 74
     0
 42
0.000000001
 43
0.00000001
 40
0.0
 40
0.0
 40
0.0
 40
0.0
 40
0.0637745323056321
 40
0.1260788099895057
 40
0.1869040927472073
 40
0.24757393491762
 40
0.3080033561644472
 40
0.3691318984609774
 40
0.4320332277442042
 40
0.4967907944370918
 40
0.5616108232295657
 40
0.6249138657484629
 40
0.6867263492419252
 40
0.7480788332577707
 40
0.8095822911398964
 40
0.871630742568828
 40
0.9348858208285549
 40
0.9999999999999999
 40
0.9999999999999999
 40
0.9999999999999999
 40
0.9999999999999999
 10
0.4275677643179059
 20
0.0836756078320056
 30
0.0
 10
0.4276572622739692
 20
0.0868515866583933
 30
0.0
 10
0.4278341949050525
 20
0.0931303254669172
 30
0.0
 10
0.4291522820364998
 20
0.1023645181801928
 30
0.0
 10
0.4313687826550128
 20
0.1112586796611387
 30
0.0
 10
0.4344793432025761
 20
0.1197841756056928
 30
0.0
 10
0.4384680542713707
 20
0.1279513220448777
 30
0.0
 10
0.4433200604871456
 20
0.1357658952602305
 30
0.0
 10
0.4490357122513481
 20
0.143249423650376
 30
0.0
 10
0.455625169895376
 20
0.1502259398517169
 30
0.0
 10
0.4627633677641356
 20
0.1566702694423872
 30
0.0
 10
0.4703997056866621
 20
0.1622709155454203
 30
0.0
 10
0.4783442257810073
 20
0.1671078333179933
 30
0.0
 10
0.4867201551040347
 20
0.1709402244827326
 30
0.0
 10
0.4954035197336056
 20
0.1740408748073367
 30
0.0
 10
0.5044716230012651
 20
0.1761860868145165
 30
0.0
 10
0.5138867357638062
 20
0.1774501811888027
 30
0.0
 10
0.5202789137684215
 20
0.1776332357710231
 30
0.0
 10
0.5235212899589317
 20
0.1777260886012364
 30
0.0
  0
SPLINE
  5
B7
330
1F
100
AcDbEntity
  8
0
  6
Continuous
 62
     7
370
    25
100
AcDbSpline
210
0.0
220
0.0
230
1.0
 70
     8
 71
     3
 72
    23
 73
    19
 74
     0
 42
0.000000001
 43
0.00000001
 40
0.0
 40
0.0
 40
0.0
 40
0.0
 40
0.0646199913407679
 40
0.1274334841444692
 40
0.1890041265579408
 40
0.2499300706860466
 40
0.3106684537406729
 40
0.3723289611368252
 40
0.4349391099970085
 40
0.4995755441940345
 40
0.5641912077719236
 40
0.626735216929479
 40
0.6881093335614019
 40
0.7492936065367516
 40
0.8103305278109452
 40
0.8719011702244159
 40
0.9350459146845312
 40
0.9999999999999999
 40
0.9999999999999999
 40
0.9999999999999999
 40
0.9999999999999999
 10
0.52282016816406
 20
-0.0113764755013277
 30
0.0
 10
0.5195938857474504
 20
-0.0112888774821026
 30
0.0
 10
0.5132315139697364
 20
-0.0111161303095574
 30
0.0
 10
0.5038722941740996
 20
-0.0097759657653947
 30
0.0
 10
0.4948657049274809
 20
-0.0076237785052464
 30
0.0
 10
0.486203235451639
 20
-0.004630857827263
 30
0.0
 10
0.4779409393492027
 20
-0.0006607991388212
 30
0.0
 10
0.4700080753011807
 20
0.0040921471498514
 30
0.0
 10
0.4624457401569582
 20
0.0097522064413264
 30
0.0
 10
0.4553692016595401
 20
0.0162227798951041
 30
0.0
 10
0.4488526302041186
 20
0.0232509932653622
 30
0.0
 10
0.4431339678739624
 20
0.0307471037564426
 30
0.0
 10
0.4383658907414805
 20
0.0386786968916333
 30
0.0
 10
0.4343787421195326
 20
0.046945350740827
 30
0.0
 10
0.4313075746594803
 20
0.0556107021361152
 30
0.0
 10
0.4291666007839141
 20
0.064644785560385
 30
0.0
 10
0.427827997448153
 20
0.0740369193846599
 30
0.0
 10
0.427655321684942
 20
0.0804325996057749
 30
0.0
 10
0.4275677643179059
 20
0.0836756078320056
 30
0.0
  0
SPLINE
  5
B8
330
1F
100
AcDbEntity
  8
0
  6
Continuous
 62
     7
370
    25
100
AcDbSpline
210
0.0
220
0.0
230
1.0
 70
     8
 71
     3
 72
    15
 73
    11
 74
     0
 42
0.000000001
 43
0.00000001
 40
0.0
 40
0.0
 40
0.0
 40
0.0
 40
0.1342983790141684
 40
0.2620849753823006
 40
0.3862699121345001
 40
0.5071645966227991
 40
0.6273002357255066
 40
0.7481449416029943
 40
0.872370177161353
 40
1.0
 40
1.0
 40
1.0
 40
1.0
 10
0.5974395591897008
 20
0.0234292136012364
 30
0.0
 10
0.5949096455735465
 20
0.0205692426042482
 30
0.0
 10
0.5899724873392002
 20
0.0149879732408954
 30
0.0
 10
0.5817266931983812
 20
0.0076963894915561
 30
0.0
 10
0.5729861090624893
 20
0.0016693665244094
 30
0.0
 10
0.5637931575531535
 20
-0.0031984845970473
 30
0.0
 10
0.554156140171395
 20
-0.0068550600497156
 30
0.0
 10
0.5440964196516627
 20
-0.0094540714158441
 30
0.0
 10
0.5336098924469815
 20
-0.0111250596424334
 30
0.0
 10
0.5264490099619812
 20
-0.0112919183473641
 30
0.0
 10
0.52282016816406
 20
-0.0113764755013277
 30
0.0
  0
SPLINE
  5
BE
330
1F
100
AcDbEntity
  8
0
  6
Continuous
 62
     7
370
    25
100
AcDbSpline
210
0.0
220
0.0
230
1.0
 70
     8
 71
     3
 72
    15
 73
    11
 74
     0
 42
0.000000001
 43
0.00000001
 40
0.0
 40
0.0
 40
0.0
 40
0.0
 40
0.1288840014739275
 40
0.2529849718578392
 40
0.3742104371825979
 40
0.4941015128996909
 40
0.6147527632399877
 40
0.7385110703733296
 40
0.8662425140769304
 40
1.0
 40
1.0
 40
1.0
 40
1.0
 10
0.8632648797025214
 20
0.1777260886012364
 30
0.0
 10
0.8669946516830448
 20
0.1776141531701411
 30
0.0
 10
0.8743157795867261
 20
0.1773944363584213
 30
0.0
 10
0.8850228168388422
 20
0.1755582672866916
 30
0.0
 10
0.8951505033057979
 20
0.1724752045859613
 30
0.0
 10
0.9047571452678923
 20
0.1682543987783084
 30
0.0
 10
0.9137854709976426
 20
0.1627686308292742
 30
0.0
 10
0.9223016596111308
 20
0.1561435274118088
 30
0.0
 10
0.93015761124772
 20
0.148191588405728
 30
0.0
 10
0.9348055985720238
 20
0.1422193331586382
 30
0.0
 10
0.9371831489332906
 20
0.1391643898832876
 30
0.0
  0
SPLINE
  5
BF
330
1F
100
AcDbEntity
  8
0
  6
Continuous
 62
     7
370
    25
100
AcDbSpline
210
0.0
220
0.0
230
1.0
 70
     8
 71
     3
 72
    23
 73
    19
 74
     0
 42
0.000000001
 43
0.00000001
 40
0.0
 40
0.0
 40
0.0
 40
0.0
 40
0.063774532305632
 40
0.1260788099895059
 40
0.1869040927472074
 40
0.2475739349176201
 40
0.3080033561644473
 40
0.3691318984609775
 40
0.4320332277442043
 40
0.4967907944370906
 40
0.5616108232295658
 40
0.624913865748463
 40
0.6867263492419253
 40
0.7480788332577708
 40
0.8095822911398964
 40
0.8716307425688281
 40
0.9348858208285549
 40
1.0
 40
1.0
 40
1.0
 40
1.0
 10
0.7673113540614958
 20
0.0836756078320056
 30
0.0
 10
0.7674008520175588
 20
0.0868515866583933
 30
0.0
 10
0.7675777846486419
 20
0.0931303254669172
 30
0.0
 10
0.7688958717800898
 20
0.1023645181801927
 30
0.0
 10
0.7711123723986024
 20
0.1112586796611387
 30
0.0
 10
0.7742229329461658
 20
0.1197841756056928
 30
0.0
 10
0.7782116440149605
 20
0.1279513220448777
 30
0.0
 10
0.7830636502307353
 20
0.1357658952602306
 30
0.0
 10
0.7887793019949381
 20
0.1432494236503759
 30
0.0
 10
0.7953687596389655
 20
0.1502259398517171
 30
0.0
 10
0.8025069575077255
 20
0.156670269442387
 30
0.0
 10
0.8101432954302519
 20
0.1622709155454203
 30
0.0
 10
0.8180878155245972
 20
0.1671078333179933
 30
0.0
 10
0.8264637448476246
 20
0.1709402244827326
 30
0.0
 10
0.8351471094771955
 20
0.1740408748073368
 30
0.0
 10
0.8442152127448551
 20
0.1761860868145165
 30
0.0
 10
0.8536303255073959
 20
0.1774501811888026
 30
0.0
 10
0.8600225035120115
 20
0.1776332357710232
 30
0.0
 10
0.8632648797025214
 20
0.1777260886012364
 30
0.0
  0
SPLINE
  5
C0
330
1F
100
AcDbEntity
  8
0
  6
Continuous
 62
     7
370
    25
100
AcDbSpline
210
0.0
220
0.0
230
1.0
 70
     8
 71
     3
 72
    23
 73
    19
 74
     0
 42
0.000000001
 43
0.00000001
 40
0.0
 40
0.0
 40
0.0
 40
0.0
 40
0.0646199913407679
 40
0.1274334841444711
 40
0.1890041265579408
 40
0.2499300706860467
 40
0.310668453740673
 40
0.3723289611368253
 40
0.4349391099970086
 40
0.4995755441940345
 40
0.5641912077719236
 40
0.626735216929479
 40
0.6881093335614019
 40
0.7492936065367516
 40
0.8103305278109452
 40
0.8719011702244159
 40
0.9350459146845315
 40
1.0
 40
1.0
 40
1.0
 40
1.0
 10
0.8625637579076497
 20
-0.0113764755013277
 30
0.0
 10
0.8593374754910401
 20
-0.0112888774821026
 30
0.0
 10
0.8529751037133262
 20
-0.0111161303095574
 30
0.0
 10
0.8436158839176896
 20
-0.0097759657653948
 30
0.0
 10
0.8346092946710704
 20
-0.0076237785052463
 30
0.0
 10
0.8259468251952289
 20
-0.004630857827263
 30
0.0
 10
0.8176845290927924
 20
-0.0006607991388212
 30
0.0
 10
0.8097516650447704
 20
0.0040921471498514
 30
0.0
 10
0.802189329900548
 20
0.0097522064413264
 30
0.0
 10
0.7951127914031298
 20
0.0162227798951041
 30
0.0
 10
0.7885962199477085
 20
0.0232509932653622
 30
0.0
 10
0.7828775576175521
 20
0.0307471037564426
 30
0.0
 10
0.7781094804850704
 20
0.0386786968916333
 30
0.0
 10
0.7741223318631224
 20
0.046945350740827
 30
0.0
 10
0.7710511644030702
 20
0.0556107021361152
 30
0.0
 10
0.768910190527504
 20
0.0646447855603851
 30
0.0
 10
0.7675715871917426
 20
0.0740369193846599
 30
0.0
 10
0.7673989114285317
 20
0.0804325996057748
 30
0.0
 10
0.7673113540614958
 20
0.0836756078320056
 30
0.0
  0
SPLINE
  5
C1
330
1F
100
AcDbEntity
  8
0
  6
Continuous
 62
     7
370
    25
100
AcDbSpline
210
0.0
220
0.0
230
1.0
 70
     8
 71
     3
 72
    15
 73
    11
 74
     0
 42
0.000000001
 43
0.00000001
 40
0.0
 40
0.0
 40
0.0
 40
0.0
 40
0.1342983790141685
 40
0.2620849753823006
 40
0.3862699121345001
 40
0.507164596622802
 40
0.6273002357255065
 40
0.7481449416029942
 40
0.8723701771613529
 40
1.0
 40
1.0
 40
1.0
 40
1.0
 10
0.9371831489332906
 20
0.0234292136012364
 30
0.0
 10
0.9346532353171364
 20
0.0205692426042483
 30
0.0
 10
0.9297160770827901
 20
0.0149879732408954
 30
0.0
 10
0.9214702829419708
 20
0.0076963894915561
 30
0.0
 10
0.912729698806079
 20
0.0016693665244093
 30
0.0
 10
0.903536747296743
 20
-0.0031984845970471
 30
0.0
 10
0.8938997299149851
 20
-0.0068550600497157
 30
0.0
 10
0.8838400093952521
 20
-0.0094540714158441
 30
0.0
 10
0.8733534821905715
 20
-0.0111250596424334
 30
0.0
 10
0.8661925997055713
 20
-0.0112919183473641
 30
0.0
 10
0.8625637579076497
 20
-0.0113764755013277
 30
0.0
  0
CIRCLE
  5
C6
330
1F
100
AcDbEntity
  8
0
  6
Continuous
 62
     7
370
    25
100
AcDbCircle
 10
-1.125
 20
2.2
 30
0.0
 40
0.0720000000000005
  0
CIRCLE
  5
C7
330
1F
100
AcDbEntity
  8
0
  6
Continuous
 62
     7
370
    25
100
AcDbCircle
 10
1.125
 20
2.2
 30
0.0
 40
0.0720000000000005
  0
CIRCLE
  5
C8
330
1F
100
AcDbEntity
  8
0
  6
Continuous
 62
     7
370
    25
100
AcDbCircle
 10
1.125
 20
-2.2
 30
0.0
 40
0.0719999999999992
  0
CIRCLE
  5
C9
330
1F
100
AcDbEntity
  8
0
  6
Continuous
 62
     7
370
    25
100
AcDbCircle
 10
-1.125
 20
-2.2
 30
0.0
 40
0.0719999999999992
  0
SPLINE
  5
D0
330
1F
100
AcDbEntity
  8
0
  6
Continuous
 62
     7
370
    25
100
AcDbSpline
210
0.0
220
0.0
230
1.0
 70
     8
 71
     3
 72
    15
 73
    11
 74
     0
 42
0.000000001
 43
0.00000001
 40
0.0
 40
0.0
 40
0.0
 40
0.0
 40
0.0708548685015312
 40
0.1569381495573537
 40
0.2586003949600845
 40
0.3758909295892027
 40
0.508166167698903
 40
0.6562378085782241
 40
0.8201767703979103
 40
1.0
 40
1.0
 40
1.0
 40
1.0
 10
0.6911895591897009
 20
0.1159272103961082
 30
0.0
 10
0.6908515310921951
 20
0.1144788408547638
 30
0.0
 10
0.6901028245425558
 20
0.1112708123804903
 30
0.0
 10
0.6893748575537253
 20
0.1058887749003638
 30
0.0
 10
0.6886556062696868
 20
0.0995299421315067
 30
0.0
 10
0.6881487049589191
 20
0.0921766140683956
 30
0.0
 10
0.6876788448069707
 20
0.0838471537878126
 30
0.0
 10
0.6874138389336035
 20
0.074528871957555
 30
0.0
 10
0.6871921860366926
 20
0.0642122040188373
 30
0.0
 10
0.687186252688771
 20
0.0569997502165359
 30
0.0
 10
0.6871831489332906
 20
0.0532268898832876
 30
0.0
  0
SPLINE
  5
D1
330
1F
100
AcDbEntity
  8
0
  6
Continuous
 62
     7
370
    25
100
AcDbSpline
210
0.0
220
0.0
230
1.0
 70
     8
 71
     3
 72
    19
 73
    15
 74
     0
 42
0.000000001
 43
0.00000001
 40
0.0
 40
0.0
 40
0.0
 40
0.0
 40
0.0938065293523317
 40
0.1913381281363405
 40
0.2951906166251704
 40
0.4103123367232985
 40
0.4719302510512771
 40
0.5364251593464331
 40
0.6031187283036322
 40
0.6741176724905978
 40
0.7493320232258869
 40
0.8282833841715636
 40
0.9120398092627618
 40
1.0
 40
1.0
 40
1.0
 40
1.0
 10
0.7274976521384189
 20
0.155290191165339
 30
0.0
 10
0.7256972426019176
 20
0.1551701884961555
 30
0.0
 10
0.7220249290330071
 20
0.1549254178362509
 30
0.0
 10
0.7166331790751684
 20
0.1530012172814664
 30
0.0
 10
0.7114012358250728
 20
0.1498922715590979
 30
0.0
 10
0.7072461170867861
 20
0.1464443349983221
 30
0.0
 10
0.7040288133100134
 20
0.1431194923222943
 30
0.0
 10
0.7017330829149583
 20
0.1402160349960809
 30
0.0
 10
0.6996271724182673
 20
0.1369604184583355
 30
0.0
 10
0.6976150138182311
 20
0.1334082981866686
 30
0.0
 10
0.6957817070890069
 20
0.1294990234700793
 30
0.0
 10
0.69407065928874
 20
0.1252716510828009
 30
0.0
 10
0.6925235976514275
 20
0.1207212847421021
 30
0.0
 10
0.6916414373496957
 20
0.1175511047263686
 30
0.0
 10
0.6911895591897009
 20
0.1159272103961082
 30
0.0
  0
SPLINE
  5
D2
330
1F
100
AcDbEntity
  8
0
  6
Continuous
 62
     7
370
    25
100
AcDbSpline
210
0.0
220
0.0
230
1.0
 70
     8
 71
     3
 72
    11
 73
     7
 74
     0
 42
0.000000001
 43
0.00000001
 40
0.0
 40
0.0
 40
0.0
 40
0.0
 40
0.2951388013693712
 40
0.5602299448882346
 40
0.794983356740911
 40
1.0
 40
1.0
 40
1.0
 40
1.0
 10
0.7389660014973931
 20
0.1520349828320056
 30
0.0
 10
0.7378867857014026
 20
0.1525164304116587
 30
0.0
 10
0.7358382275209636
 20
0.153430310083746
 30
0.0
 10
0.7328414727874816
 20
0.1545118822360344
 30
0.0
 10
0.7300785201638477
 20
0.1551487333680428
 30
0.0
 10
0.7283182659950711
 20
0.155245213186051
 30
0.0
 10
0.7274976521384189
 20
0.155290191165339
 30
0.0
  0
SPLINE
  5
D4
330
1F
100
AcDbEntity
  8
0
  6
Continuous
 62
     7
370
    25
100
AcDbSpline
210
0.0
220
0.0
230
1.0
 70
     8
 71
     3
 72
    11
 73
     7
 74
     0
 42
0.000000001
 43
0.00000001
 40
0.0
 40
0.0
 40
0.0
 40
0.0
 40
0.225277547867
 40
0.4635231951764757
 40
0.7203235553269182
 40
1.0
 40
1.0
 40
1.0
 40
1.0
 10
0.7317544630358548
 20
0.1777260886012364
 30
0.0
 10
0.7333134863563326
 20
0.1776410509873136
 30
0.0
 10
0.736521278156735
 20
0.1774660805702043
 30
0.0
 10
0.7413771774284664
 20
0.1762367359529288
 30
0.0
 10
0.7463802811362961
 20
0.1742740200562864
 30
0.0
 10
0.7496047373684779
 20
0.17242828986593
 30
0.0
 10
0.7512857130358549
 20
0.1714660725755953
 30
0.0
  0
SPLINE
  5
D5
330
1F
100
AcDbEntity
  8
0
  6
Continuous
 62
     7
370
    25
100
AcDbSpline
210
0.0
220
0.0
230
1.0
 70
     8
 71
     3
 72
    15
 73
    11
 74
     0
 42
0.000000001
 43
0.00000001
 40
0.0
 40
0.0
 40
0.0
 40
0.0
 40
0.1600594124854943
 40
0.3061123827401271
 40
0.4383665141302051
 40
0.5605414552552167
 40
0.6753172249527043
 40
0.7861136344281773
 40
0.8928417881050884
 40
1.0
 40
1.0
 40
1.0
 40
1.0
 10
0.6871831489332906
 20
0.1476279315499543
 30
0.0
 10
0.6888394888440978
 20
0.150131919287518
 30
0.0
 10
0.6920072260539964
 20
0.1549207763799877
 30
0.0
 10
0.6972724352935499
 20
0.1612542978794052
 30
0.0
 10
0.7026655303848648
 20
0.1664982297802201
 30
0.0
 10
0.7082123294779037
 20
0.1706770525494984
 30
0.0
 10
0.7139536223286286
 20
0.173806561036915
 30
0.0
 10
0.7197634045941993
 20
0.176098920682025
 30
0.0
 10
0.7257330810125898
 20
0.1774544431989775
 30
0.0
 10
0.7297446470288671
 20
0.1776354188387839
 30
0.0
 10
0.7317544630358548
 20
0.1777260886012364
 30
0.0
  0
SPLINE
  5
DA
330
1F
100
AcDbEntity
  8
0
  6
Continuous
 62
     7
370
    25
100
AcDbSpline
210
0.0
220
0.0
230
1.0
 70
     8
 71
     3
 72
    15
 73
    11
 74
     0
 42
0.000000001
 43
0.00000001
 40
0.0
 40
0.0
 40
0.0
 40
0.0
 40
0.1288840014739272
 40
0.2529849718578386
 40
0.374210437182597
 40
0.4941015128996897
 40
0.614752763239989
 40
0.7385110703733281
 40
0.8662425140769308
 40
1.0
 40
1.0
 40
1.0
 40
1.0
 10
0.2863418027794444
 20
0.1777260886012364
 30
0.0
 10
0.2900715747599678
 20
0.1776141531701411
 30
0.0
 10
0.297392702663649
 20
0.1773944363584212
 30
0.0
 10
0.3080997399157652
 20
0.1755582672866916
 30
0.0
 10
0.3182274263827208
 20
0.1724752045859613
 30
0.0
 10
0.3278340683448152
 20
0.1682543987783083
 30
0.0
 10
0.3368623940745659
 20
0.1627686308292744
 30
0.0
 10
0.3453785826880535
 20
0.1561435274118087
 30
0.0
 10
0.3532345343246432
 20
0.1481915884057281
 30
0.0
 10
0.357882521648947
 20
0.1422193331586382
 30
0.0
 10
0.3602600720102138
 20
0.1391643898832876
 30
0.0
  0
SPLINE
  5
DB
330
1F
100
AcDbEntity
  8
0
  6
Continuous
 62
     7
370
    25
100
AcDbSpline
210
0.0
220
0.0
230
1.0
 70
     8
 71
     3
 72
    23
 73
    19
 74
     0
 42
0.000000001
 43
0.00000001
 40
0.0
 40
0.0
 40
0.0
 40
0.0
 40
0.0637745323056321
 40
0.126078809989506
 40
0.1869040927472076
 40
0.2475739349176197
 40
0.3080033561644469
 40
0.3691318984609782
 40
0.4320332277442051
 40
0.4967907944370913
 40
0.5616108232295653
 40
0.6249138657484625
 40
0.686726349241925
 40
0.7480788332577722
 40
0.8095822911398962
 40
0.8716307425688279
 40
0.9348858208285548
 40
0.9999999999999999
 40
0.9999999999999999
 40
0.9999999999999999
 40
0.9999999999999999
 10
0.190388277138419
 20
0.0836756078320056
 30
0.0
 10
0.190477775094482
 20
0.0868515866583933
 30
0.0
 10
0.190654707725565
 20
0.0931303254669172
 30
0.0
 10
0.1919727948570131
 20
0.1023645181801928
 30
0.0
 10
0.1941892954755257
 20
0.1112586796611386
 30
0.0
 10
0.197299856023089
 20
0.1197841756056929
 30
0.0
 10
0.2012885670918834
 20
0.1279513220448778
 30
0.0
 10
0.2061405733076586
 20
0.1357658952602304
 30
0.0
 10
0.2118562250718613
 20
0.1432494236503759
 30
0.0
 10
0.2184456827158886
 20
0.1502259398517169
 30
0.0
 10
0.2255838805846485
 20
0.1566702694423872
 30
0.0
 10
0.233220218507175
 20
0.1622709155454203
 30
0.0
 10
0.24116473860152
 20
0.1671078333179933
 30
0.0
 10
0.2495406679245475
 20
0.1709402244827325
 30
0.0
 10
0.2582240325541186
 20
0.1740408748073368
 30
0.0
 10
0.2672921358217779
 20
0.1761860868145165
 30
0.0
 10
0.2767072485843189
 20
0.1774501811888027
 30
0.0
 10
0.2830994265889342
 20
0.1776332357710232
 30
0.0
 10
0.2863418027794444
 20
0.1777260886012364
 30
0.0
  0
SPLINE
  5
DC
330
1F
100
AcDbEntity
  8
0
  6
Continuous
 62
     7
370
    25
100
AcDbSpline
210
0.0
220
0.0
230
1.0
 70
     8
 71
     3
 72
    23
 73
    19
 74
     0
 42
0.000000001
 43
0.00000001
 40
0.0
 40
0.0
 40
0.0
 40
0.0
 40
0.064619991340768
 40
0.1274334841444694
 40
0.189004126557941
 40
0.2499300706860469
 40
0.3106684537406716
 40
0.372328961136824
 40
0.4349391099970088
 40
0.4995755441940349
 40
0.564191207771924
 40
0.6267352169294784
 40
0.6881093335614015
 40
0.7492936065367511
 40
0.8103305278109455
 40
0.8719011702244158
 40
0.9350459146845315
 40
1.0
 40
1.0
 40
1.0
 40
1.0
 10
0.2856406809845727
 20
-0.0113764755013277
 30
0.0
 10
0.282414398567963
 20
-0.0112888774821026
 30
0.0
 10
0.2760520267902491
 20
-0.0111161303095574
 30
0.0
 10
0.2666928069946123
 20
-0.0097759657653947
 30
0.0
 10
0.2576862177479937
 20
-0.0076237785052464
 30
0.0
 10
0.2490237482721517
 20
-0.004630857827263
 30
0.0
 10
0.2407614521697157
 20
-0.0006607991388212
 30
0.0
 10
0.2328285881216936
 20
0.0040921471498515
 30
0.0
 10
0.2252662529774709
 20
0.0097522064413263
 30
0.0
 10
0.2181897144800529
 20
0.0162227798951041
 30
0.0
 10
0.2116731430246314
 20
0.0232509932653621
 30
0.0
 10
0.2059544806944753
 20
0.0307471037564427
 30
0.0
 10
0.2011864035619936
 20
0.0386786968916333
 30
0.0
 10
0.1971992549400456
 20
0.0469453507408271
 30
0.0
 10
0.1941280874799929
 20
0.0556107021361151
 30
0.0
 10
0.1919871136044274
 20
0.0646447855603851
 30
0.0
 10
0.1906485102686657
 20
0.0740369193846599
 30
0.0
 10
0.1904758345054548
 20
0.0804325996057748
 30
0.0
 10
0.190388277138419
 20
0.0836756078320056
 30
0.0
  0
SPLINE
  5
DD
330
1F
100
AcDbEntity
  8
0
  6
Continuous
 62
     7
370
    25
100
AcDbSpline
210
0.0
220
0.0
230
1.0
 70
     8
 71
     3
 72
    15
 73
    11
 74
     0
 42
0.000000001
 43
0.00000001
 40
0.0
 40
0.0
 40
0.0
 40
0.0
 40
0.1342983790141681
 40
0.2620849753823024
 40
0.3862699121345016
 40
0.5071645966228003
 40
0.6273002357255075
 40
0.7481449416029948
 40
0.8723701771613532
 40
1.0
 40
1.0
 40
1.0
 40
1.0
 10
0.3602600720102138
 20
0.0234292136012364
 30
0.0
 10
0.3577301583940596
 20
0.0205692426042482
 30
0.0
 10
0.3527930001597134
 20
0.0149879732408953
 30
0.0
 10
0.3445472060188938
 20
0.0076963894915562
 30
0.0
 10
0.335806621883002
 20
0.0016693665244094
 30
0.0
 10
0.3266136703736662
 20
-0.0031984845970473
 30
0.0
 10
0.3169766529919079
 20
-0.0068550600497156
 30
0.0
 10
0.3069169324721755
 20
-0.0094540714158441
 30
0.0
 10
0.2964304052674942
 20
-0.0111250596424334
 30
0.0
 10
0.289269522782494
 20
-0.0112919183473641
 30
0.0
 10
0.2856406809845727
 20
-0.0113764755013277
 30
0.0
  0
SPLINE
  5
E3
330
1F
100
AcDbEntity
  8
0
  6
Continuous
 62
     7
370
    25
100
AcDbSpline
210
0.0
220
0.0
230
1.0
 70
     8
 71
     3
 72
    15
 73
    11
 74
     0
 42
0.000000001
 43
0.00000001
 40
0.0
 40
0.0
 40
0.0
 40
0.0
 40
0.1298621417207368
 40
0.2546535308972878
 40
0.3760145541937119
 40
0.4952552518176067
 40
0.6147977192994579
 40
0.7381055541683325
 40
0.8651963000723568
 40
1.0
 40
1.0
 40
1.0
 40
1.0
 10
-0.1623761459385042
 20
0.1777260886012364
 30
0.0
 10
-0.1586475845768654
 20
0.1776233920625321
 30
0.0
 10
-0.1513360517211209
 20
0.1774220089970332
 30
0.0
 10
-0.1406411939163479
 20
0.1757460999028202
 30
0.0
 10
-0.1305237312089511
 20
0.1729147808203313
 30
0.0
 10
-0.1209055632068025
 20
0.1690635309615093
 30
0.0
 10
-0.1118212284857435
 20
0.1639457645985155
 30
0.0
 10
-0.1033567296060333
 20
0.157490053096827
 30
0.0
 10
-0.0954234807983326
 20
0.1497371111703894
 30
0.0
 10
-0.0908248885369594
 20
0.1437820794225873
 30
0.0
 10
-0.088457876707735
 20
0.1407168738576466
 30
0.0
  0
SPLINE
  5
E4
330
1F
100
AcDbEntity
  8
0
  6
Continuous
 62
     7
370
    25
100
AcDbSpline
210
0.0
220
0.0
230
1.0
 70
     8
 71
     3
 72
    23
 73
    19
 74
     0
 42
0.000000001
 43
0.00000001
 40
0.0
 40
0.0
 40
0.0
 40
0.0
 40
0.063774532305632
 40
0.1260788099895058
 40
0.1869040927472073
 40
0.2475739349176197
 40
0.3080033561644469
 40
0.3691318984609776
 40
0.4320332277442044
 40
0.4967907944370906
 40
0.5616108232295651
 40
0.6249138657484622
 40
0.6867263492419245
 40
0.7480788332577709
 40
0.8095822911398958
 40
0.8716307425688272
 40
0.934885820828554
 40
1.0
 40
1.0
 40
1.0
 40
1.0
 10
-0.2583296715795299
 20
0.0836756078320056
 30
0.0
 10
-0.2582401736234668
 20
0.0868515866583933
 30
0.0
 10
-0.2580632409923838
 20
0.0931303254669172
 30
0.0
 10
-0.2567451538609358
 20
0.1023645181801927
 30
0.0
 10
-0.2545286532424231
 20
0.1112586796611386
 30
0.0
 10
-0.2514180926948597
 20
0.1197841756056928
 30
0.0
 10
-0.2474293816260654
 20
0.1279513220448777
 30
0.0
 10
-0.2425773754102902
 20
0.1357658952602305
 30
0.0
 10
-0.2368617236460876
 20
0.1432494236503759
 30
0.0
 10
-0.2302722660020602
 20
0.1502259398517169
 30
0.0
 10
-0.2231340681333003
 20
0.1566702694423872
 30
0.0
 10
-0.2154977302107738
 20
0.1622709155454202
 30
0.0
 10
-0.2075532101164287
 20
0.1671078333179933
 30
0.0
 10
-0.1991772807934013
 20
0.1709402244827326
 30
0.0
 10
-0.1904939161638302
 20
0.1740408748073368
 30
0.0
 10
-0.1814258128961708
 20
0.1761860868145165
 30
0.0
 10
-0.1720107001336298
 20
0.1774501811888026
 30
0.0
 10
-0.1656185221290143
 20
0.1776332357710231
 30
0.0
 10
-0.1623761459385042
 20
0.1777260886012364
 30
0.0
  0
SPLINE
  5
E5
330
1F
100
AcDbEntity
  8
0
  6
Continuous
 62
     7
370
    25
100
AcDbSpline
210
0.0
220
0.0
230
1.0
 70
     8
 71
     3
 72
    23
 73
    19
 74
     0
 42
0.000000001
 43
0.00000001
 40
0.0
 40
0.0
 40
0.0
 40
0.0
 40
0.0646199913407679
 40
0.1274334841444702
 40
0.18900412655794
 40
0.2499300706860468
 40
0.3106684537406723
 40
0.3723289611368246
 40
0.4349391099970087
 40
0.499575544194034
 40
0.5641912077719238
 40
0.6267352169294786
 40
0.6881093335614017
 40
0.7492936065367514
 40
0.8103305278109454
 40
0.8719011702244159
 40
0.9350459146845315
 40
1.0
 40
1.0
 40
1.0
 40
1.0
 10
-0.163077267733376
 20
-0.0113764755013277
 30
0.0
 10
-0.1663035501499857
 20
-0.0112888774821026
 30
0.0
 10
-0.1726659219276996
 20
-0.0111161303095574
 30
0.0
 10
-0.1820251417233364
 20
-0.0097759657653947
 30
0.0
 10
-0.191031730969955
 20
-0.0076237785052463
 30
0.0
 10
-0.1996942004457971
 20
-0.004630857827263
 30
0.0
 10
-0.2079564965482332
 20
-0.0006607991388212
 30
0.0
 10
-0.2158893605962553
 20
0.0040921471498515
 30
0.0
 10
-0.2234516957404778
 20
0.0097522064413263
 30
0.0
 10
-0.2305282342378958
 20
0.0162227798951042
 30
0.0
 10
-0.2370448056933174
 20
0.0232509932653621
 30
0.0
 10
-0.2427634680234735
 20
0.0307471037564427
 30
0.0
 10
-0.2475315451559553
 20
0.0386786968916333
 30
0.0
 10
-0.2515186937779033
 20
0.046945350740827
 30
0.0
 10
-0.2545898612379557
 20
0.0556107021361151
 30
0.0
 10
-0.2567308351135215
 20
0.0646447855603851
 30
0.0
 10
-0.2580694384492831
 20
0.0740369193846599
 30
0.0
 10
-0.2582421142124941
 20
0.0804325996057748
 30
0.0
 10
-0.2583296715795299
 20
0.0836756078320056
 30
0.0
  0
SPLINE
  5
E6
330
1F
100
AcDbEntity
  8
0
  6
Continuous
 62
     7
370
    25
100
AcDbSpline
210
0.0
220
0.0
230
1.0
 70
     8
 71
     3
 72
    15
 73
    11
 74
     0
 42
0.000000001
 43
0.00000001
 40
0.0
 40
0.0
 40
0.0
 40
0.0
 40
0.1342983790141683
 40
0.2620849753823015
 40
0.3862699121345009
 40
0.5071645966228012
 40
0.6273002357255071
 40
0.7481449416029945
 40
0.8723701771613531
 40
1.0
 40
1.0
 40
1.0
 40
1.0
 10
-0.088457876707735
 20
0.0234292136012364
 30
0.0
 10
-0.0909877903238893
 20
0.0205692426042482
 30
0.0
 10
-0.0959249485582355
 20
0.0149879732408954
 30
0.0
 10
-0.1041707426990548
 20
0.0076963894915561
 30
0.0
 10
-0.112911326834947
 20
0.0016693665244093
 30
0.0
 10
-0.1221042783442824
 20
-0.0031984845970472
 30
0.0
 10
-0.1317412957260409
 20
-0.0068550600497156
 30
0.0
 10
-0.1418010162457733
 20
-0.0094540714158441
 30
0.0
 10
-0.1522875434504544
 20
-0.0111250596424334
 30
0.0
 10
-0.1594484259354547
 20
-0.0112919183473641
 30
0.0
 10
-0.163077267733376
 20
-0.0113764755013277
 30
0.0
  0
SPLINE
  5
EB
330
1F
100
AcDbEntity
  8
0
  6
Continuous
 62
     7
370
    25
100
AcDbSpline
210
0.0
220
0.0
230
1.0
 70
     8
 71
     3
 72
    11
 73
     7
 74
     0
 42
0.000000001
 43
0.00000001
 40
0.0
 40
0.0
 40
0.0
 40
0.0
 40
0.2462523706929829
 40
0.492590796476374
 40
0.7405699911180897
 40
1.0
 40
1.0
 40
1.0
 40
1.0
 10
-0.4999662901692735
 20
0.1016543738576466
 30
0.0
 10
-0.5012613330018671
 20
0.1037362035030528
 30
0.0
 10
-0.5038518712313395
 20
0.1079005903078293
 30
0.0
 10
-0.5063672420297753
 20
0.1148513386458357
 30
0.0
 10
-0.5080962440924278
 20
0.1221688427407866
 30
0.0
 10
-0.5082507005330933
 20
0.1272179037655065
 30
0.0
 10
-0.5083296715795299
 20
0.1297994059089287
 30
0.0
  0
SPLINE
  5
EC
330
1F
100
AcDbEntity
  8
0
  6
Continuous
 62
     7
370
    25
100
AcDbSpline
210
0.0
220
0.0
230
1.0
 70
     8
 71
     3
 72
    15
 73
    11
 74
     0
 42
0.000000001
 43
0.00000001
 40
0.0
 40
0.0
 40
0.0
 40
0.0
 40
0.1577616635135497
 40
0.3059502132085397
 40
0.4437754990007255
 40
0.5728243624015388
 40
0.6921541564432427
 40
0.8022957069908467
 40
0.9055643918329946
 40
1.0
 40
1.0
 40
1.0
 40
1.0
 10
-0.4684658895282479
 20
0.0767144700114928
 30
0.0
 10
-0.4703263638167773
 20
0.0777529794160841
 30
0.0
 10
-0.4739344172092652
 20
0.0797669805788348
 30
0.0
 10
-0.4790449379903973
 20
0.0829038434544299
 30
0.0
 10
-0.4836554632917366
 20
0.0860943630744428
 30
0.0
 10
-0.487876932903361
 20
0.0891595658779981
 30
0.0
 10
-0.4916027190231786
 20
0.0922610618742505
 30
0.0
 10
-0.4948181439021047
 20
0.0954022941219253
 30
0.0
 10
-0.4976498021757869
 20
0.0984565788418758
 30
0.0
 10
-0.4992174744423022
 20
0.1006206714572147
 30
0.0
 10
-0.4999662901692735
 20
0.1016543738576466
 30
0.0
  0
SPLINE
  5
ED
330
1F
100
AcDbEntity
  8
0
  6
Continuous
 62
     7
370
    25
100
AcDbSpline
210
0.0
220
0.0
230
1.0
 70
     8
 71
     3
 72
    15
 73
    11
 74
     0
 42
0.000000001
 43
0.00000001
 40
0.0
 40
0.0
 40
0.0
 40
0.0
 40
0.0768750740350484
 40
0.1674616757257257
 40
0.2722700232466425
 40
0.3895508405125224
 40
0.5208013683480552
 40
0.6662632933752256
 40
0.8255449152058609
 40
1.0
 40
1.0
 40
1.0
 40
1.0
 10
-0.440771578630812
 20
0.0578843418063646
 30
0.0
 10
-0.4413446068041968
 20
0.0585297248172047
 30
0.0
 10
-0.442592869122739
 20
0.0599356021036571
 30
0.0
 10
-0.4448825292131363
 20
0.0619659648794874
 30
0.0
 10
-0.4476240907989035
 20
0.0641544005332944
 30
0.0
 10
-0.4508483881512068
 20
0.0664637997432043
 30
0.0
 10
-0.4545619211467478
 20
0.068863700121215
 30
0.0
 10
-0.4587797408174492
 20
0.0713415109961813
 30
0.0
 10
-0.4634440659994784
 20
0.0740149199810701
 30
0.0
 10
-0.4667419682364722
 20
0.0757877525055912
 30
0.0
 10
-0.4684658895282479
 20
0.0767144700114928
 30
0.0
  0
SPLINE
  5
EE
330
1F
100
AcDbEntity
  8
0
  6
Continuous
 62
     7
370
    25
100
AcDbSpline
210
0.0
220
0.0
230
1.0
 70
     8
 71
     3
 72
    11
 73
     7
 74
     0
 42
0.000000001
 43
0.00000001
 40
0.0
 40
0.0
 40
0.0
 40
0.0
 40
0.2534754346498644
 40
0.500453315102902
 40
0.7455781350009817
 40
1.0
 40
1.0
 40
1.0
 40
1.0
 10
-0.4346117228615812
 20
0.0404564571909799
 30
0.0
 10
-0.434689315314353
 20
0.0420500013811288
 30
0.0
 10
-0.4348425112257054
 20
0.0451962410702906
 30
0.0
 10
-0.4360456020831709
 20
0.0497498368591568
 30
0.0
 10
-0.4379465201017279
 20
0.0540690711936123
 30
0.0
 10
-0.4398182806984247
 20
0.0565969031394518
 30
0.0
 10
-0.440771578630812
 20
0.0578843418063646
 30
0.0
  0
SPLINE
  5
EF
330
1F
100
AcDbEntity
  8
0
  6
Continuous
 62
     7
370
    25
100
AcDbSpline
210
0.0
220
0.0
230
1.0
 70
     8
 71
     3
 72
    15
 73
    11
 74
     0
 42
0.000000001
 43
0.00000001
 40
0.0
 40
0.0
 40
0.0
 40
0.0
 40
0.1340420464623703
 40
0.2618956736507317
 40
0.3878360446911193
 40
0.5176862058208255
 40
0.6445086536782126
 40
0.7647182630567264
 40
0.8802907821585003
 40
1.0
 40
1.0
 40
1.0
 40
1.0
 10
-0.4668633254256837
 20
0.0110594219345697
 30
0.0
 10
-0.4646977592858235
 20
0.0111573379960126
 30
0.0
 10
-0.4604666063155269
 20
0.0113486495549569
 30
0.0
 10
-0.4544063378430988
 20
0.0130855846999443
 30
0.0
 10
-0.4488107216680654
 20
0.0158091526874481
 30
0.0
 10
-0.4439519112738607
 20
0.0196723454131711
 30
0.0
 10
-0.4398160426261775
 20
0.0241691720274334
 30
0.0
 10
-0.4368211730256263
 20
0.0292344662631727
 30
0.0
 10
-0.4349443033498483
 20
0.034719570312403
 30
0.0
 10
-0.4347238748744232
 20
0.0385218776423377
 30
0.0
 10
-0.4346117228615812
 20
0.0404564571909799
 30
0.0
  0
SPLINE
  5
F0
330
1F
100
AcDbEntity
  8
0
  6
Continuous
 62
     7
370
    25
100
AcDbSpline
210
0.0
220
0.0
230
1.0
 70
     8
 71
     3
 72
    15
 73
    11
 74
     0
 42
0.000000001
 43
0.00000001
 40
0.0
 40
0.0
 40
0.0
 40
0.0
 40
0.1474758177483588
 40
0.2859041715443766
 40
0.4171716482444379
 40
0.5405007435864952
 40
0.6592377183802355
 40
0.7750060983159547
 40
0.8872285734286348
 40
1.0
 40
1.0
 40
1.0
 40
1.0
 10
-0.5030712581179915
 20
0.0302901911653389
 30
0.0
 10
-0.5016589429053883
 20
0.0287648508419243
 30
0.0
 10
-0.4989209563189515
 20
0.0258077479884029
 30
0.0
 10
-0.4945422979762872
 20
0.0218702950832994
 30
0.0
 10
-0.4900866264689276
 20
0.0185702042881557
 30
0.0
 10
-0.4855984345707628
 20
0.0158099603744423
 30
0.0
 10
-0.4810112849762245
 20
0.0136831458631889
 30
0.0
 10
-0.4763508839595345
 20
0.0121889605839306
 30
0.0
 10
-0.4716267108122894
 20
0.0112286611392615
 30
0.0
 10
-0.468453701110871
 20
0.0111159266878653
 30
0.0
 10
-0.4668633254256837
 20
0.0110594219345697
 30
0.0
  0
SPLINE
  5
F2
330
1F
100
AcDbEntity
  8
0
  6
Continuous
 62
     7
370
    25
100
AcDbSpline
210
0.0
220
0.0
230
1.0
 70
     8
 71
     3
 72
    15
 73
    11
 74
     0
 42
0.000000001
 43
0.00000001
 40
0.0
 40
0.0
 40
0.0
 40
0.0
 40
0.1267425189618449
 40
0.2517239612496056
 40
0.3772186880262423
 40
0.5046935492516285
 40
0.6314582385934864
 40
0.7554010672029519
 40
0.877700533601476
 40
1.0
 40
1.0
 40
1.0
 40
1.0
 10
-0.4657114824769658
 20
-0.0113764755013277
 30
0.0
 10
-0.4682377092939637
 20
-0.0113055683352169
 30
0.0
 10
-0.4732550612181521
 20
-0.0111647392521229
 30
0.0
 10
-0.4806757554430615
 20
-0.0098428777404271
 30
0.0
 10
-0.4879272382048234
 20
-0.0077860638856007
 30
0.0
 10
-0.4949546339409927
 20
-0.0049492114457353
 30
0.0
 10
-0.5016007849330675
 20
-0.0013670176702155
 30
0.0
 10
-0.5076815652617032
 20
0.0029231533002313
 30
0.0
 10
-0.5132180982946128
 20
0.0077795816862226
 30
0.0
 10
-0.5163694035614808
 20
0.0115019324500779
 30
0.0
 10
-0.5179450561949145
 20
0.0133631078320056
 30
0.0
  0
SPLINE
  5
F3
330
1F
100
AcDbEntity
  8
0
  6
Continuous
 62
     7
370
    25
100
AcDbSpline
210
0.0
220
0.0
230
1.0
 70
     8
 71
     3
 72
    23
 73
    19
 74
     0
 42
0.000000001
 43
0.00000001
 40
0.0
 40
0.0
 40
0.0
 40
0.0
 40
0.0645481255642505
 40
0.1271991327555118
 40
0.1885973380874246
 40
0.248639515094013
 40
0.3095246994640574
 40
0.3700369910533488
 40
0.4318892436070739
 40
0.495704285725294
 40
0.5595193278435135
 40
0.6213715803972378
 40
0.6823971072916409
 40
0.7435684819321653
 40
0.8054984835712145
 40
0.8686397008205248
 40
0.9330662250811649
 40
1.0
 40
1.0
 40
1.0
 40
1.0
 10
-0.4121758254256837
 20
0.0414079796268774
 30
0.0
 10
-0.4122272206982144
 20
0.0396030406093905
 30
0.0
 10
-0.4123285006972303
 20
0.036046211101268
 30
0.0
 10
-0.4130326483356463
 20
0.0308080089797662
 30
0.0
 10
-0.4142437180730169
 20
0.025798397727167
 30
0.0
 10
-0.4158932719270902
 20
0.0209630202484849
 30
0.0
 10
-0.4181207271345041
 20
0.0163945245615251
 30
0.0
 10
-0.4207312840738854
 20
0.0119776496338353
 30
0.0
 10
-0.4238652063407297
 20
0.0078079402917374
 30
0.0
 10
-0.4274431617419281
 20
0.0038908717076021
 30
0.0
 10
-0.431360697026144
 20
0.0003133183204349
 30
0.0
 10
-0.4355397069085368
 20
-0.0028312498128637
 30
0.0
 10
-0.4399853376663842
 20
-0.005443702469942
 30
0.0
 10
-0.4446658234822696
 20
-0.007605512844436
 30
0.0
 10
-0.4495917987731652
 20
-0.0093246741263197
 30
0.0
 10
-0.4547640337222029
 20
-0.0105148549301613
 30
0.0
 10
-0.4601660876201762
 20
-0.0112271950083174
 30
0.0
 10
-0.4638396453438178
 20
-0.0113260861643576
 30
0.0
 10
-0.4657114824769658
 20
-0.0113764755013277
 30
0.0
  0
SPLINE
  5
F4
330
1F
100
AcDbEntity
  8
0
  6
Continuous
 62
     7
370
    25
100
AcDbSpline
210
0.0
220
0.0
230
1.0
 70
     8
 71
     3
 72
    11
 73
     7
 74
     0
 42
0.000000001
 43
0.00000001
 40
0.0
 40
0.0
 40
0.0
 40
0.0
 40
0.2488386141270708
 40
0.4952350254576689
 40
0.7433356038750065
 40
0.9999999999999999
 40
0.9999999999999999
 40
0.9999999999999999
 40
0.9999999999999999
 10
-0.4206894472205557
 20
0.0696531719345697
 30
0.0
 10
-0.4193886952625522
 20
0.0675341656452477
 30
0.0
 10
-0.4167999574523223
 20
0.0633169498513136
 30
0.0
 10
-0.4140815098483246
 20
0.0563727764625403
 30
0.0
 10
-0.412505775930982
 20
0.0490077405741686
 30
0.0
 10
-0.4122870459150106
 20
0.0439697248515478
 30
0.0
 10
-0.4121758254256837
 20
0.0414079796268774
 30
0.0
  0
SPLINE
  5
F5
330
1F
100
AcDbEntity
  8
0
  6
Continuous
 62
     7
370
    25
100
AcDbSpline
210
0.0
220
0.0
230
1.0
 70
     8
 71
     3
 72
    15
 73
    11
 74
     0
 42
0.000000001
 43
0.00000001
 40
0.0
 40
0.0
 40
0.0
 40
0.0
 40
0.1589891012267965
 40
0.3071145916055713
 40
0.4462131585962145
 40
0.5748760724117282
 40
0.6941521095829556
 40
0.8045811801532373
 40
0.9065933190457645
 40
1.0
 40
1.0
 40
1.0
 40
1.0
 10
-0.4535920914513248
 20
0.0952941975755953
 30
0.0
 10
-0.4516482645158183
 20
0.0942052759460148
 30
0.0
 10
-0.4478934309401609
 20
0.0921018379180078
 30
0.0
 10
-0.4425582332790542
 20
0.0888368590958959
 30
0.0
 10
-0.4377163017811321
 20
0.0855917573620724
 30
0.0
 10
-0.4333266112347982
 20
0.0824012377993853
 30
0.0
 10
-0.4294736248889513
 20
0.079176032969614
 30
0.0
 10
-0.4260404425566791
 20
0.076039764614351
 30
0.0
 10
-0.4231126965619449
 20
0.0728976711654973
 30
0.0
 10
-0.4214731303699866
 20
0.0707024487597775
 30
0.0
 10
-0.4206894472205556
 20
0.0696531719345697
 30
0.0
  0
SPLINE
  5
F6
330
1F
100
AcDbEntity
  8
0
  6
Continuous
 62
     7
370
    25
100
AcDbSpline
210
0.0
220
0.0
230
1.0
 70
     8
 71
     3
 72
    15
 73
    11
 74
     0
 42
0.000000001
 43
0.00000001
 40
0.0
 40
0.0
 40
0.0
 40
0.0
 40
0.0834251049856326
 40
0.177559821465971
 40
0.2839823599504457
 40
0.4022167468072137
 40
0.5335684803800572
 40
0.6761209941988182
 40
0.8316493725539867
 40
0.9999999999999999
 40
0.9999999999999999
 40
0.9999999999999999
 40
0.9999999999999999
 10
-0.4796838382461965
 20
0.1141243257807235
 30
0.0
 10
-0.4791150172625052
 20
0.1134254268997922
 30
0.0
 10
-0.4779043534901588
 20
0.1119379087175579
 30
0.0
 10
-0.4756323167061036
 20
0.109873347759161
 30
0.0
 10
-0.4730592807875102
 20
0.1075917584037916
 30
0.0
 10
-0.4699649995209191
 20
0.1053105557624682
 30
0.0
 10
-0.4664827832434865
 20
0.1029082896763029
 30
0.0
 10
-0.4625371200853608
 20
0.1004795658924015
 30
0.0
 10
-0.4582532268731427
 20
0.0978392498289497
 30
0.0
 10
-0.4551862764005267
 20
0.0961646472901088
 30
0.0
 10
-0.4535920914513248
 20
0.0952941975755953
 30
0.0
  0
SPLINE
  5
F7
330
1F
100
AcDbEntity
  8
0
  6
Continuous
 62
     7
370
    25
100
AcDbSpline
210
0.0
220
0.0
230
1.0
 70
     8
 71
     3
 72
    11
 73
     7
 74
     0
 42
0.000000001
 43
0.00000001
 40
0.0
 40
0.0
 40
0.0
 40
0.0
 40
0.2400399314959809
 40
0.4794031936060911
 40
0.7317567388575623
 40
1.0
 40
1.0
 40
1.0
 40
1.0
 10
-0.4858937741436325
 20
0.130700848216621
 30
0.0
 10
-0.4858144304103936
 20
0.1292571307772181
 30
0.0
 10
-0.4856559666128485
 20
0.1263737657187418
 30
0.0
 10
-0.4844240609548995
 20
0.1221203347301329
 30
0.0
 10
-0.4824621986563505
 20
0.1179734034306497
 30
0.0
 10
-0.4806286133504535
 20
0.1154331958339794
 30
0.0
 10
-0.4796838382461965
 20
0.1141243257807235
 30
0.0
  0
SPLINE
  5
F8
330
1F
100
AcDbEntity
  8
0
  6
Continuous
 62
     7
370
    25
100
AcDbSpline
210
0.0
220
0.0
230
1.0
 70
     8
 71
     3
 72
    15
 73
    11
 74
     0
 42
0.000000001
 43
0.00000001
 40
0.0
 40
0.0
 40
0.0
 40
0.0
 40
0.1249584925460601
 40
0.2459006286062648
 40
0.3691660295860707
 40
0.4985108411773544
 40
0.6285038663666045
 40
0.7510283288509907
 40
0.8737241742784334
 40
1.0
 40
1.0
 40
1.0
 40
1.0
 10
-0.4621557933744018
 20
0.155290191165339
 30
0.0
 10
-0.4637371783630985
 20
0.1552134145240742
 30
0.0
 10
-0.4668491202156759
 20
0.1550623289598632
 30
0.0
 10
-0.4713081072395088
 20
0.1535542267930936
 30
0.0
 10
-0.4754474375979332
 20
0.1512393169030983
 30
0.0
 10
-0.4790300790269459
 20
0.147955846649156
 30
0.0
 10
-0.4820649133141816
 20
0.1441869703042944
 30
0.0
 10
-0.4842801762440601
 20
0.1399729470981544
 30
0.0
 10
-0.4856348893604515
 20
0.1354409439762746
 30
0.0
 10
-0.4858066559348888
 20
0.1322959541428199
 30
0.0
 10
-0.4858937741436325
 20
0.130700848216621
 30
0.0
  0
SPLINE
  5
F9
330
1F
100
AcDbEntity
  8
0
  6
Continuous
 62
     7
370
    25
100
AcDbSpline
210
0.0
220
0.0
230
1.0
 70
     8
 71
     3
 72
    15
 73
    11
 74
     0
 42
0.000000001
 43
0.00000001
 40
0.0
 40
0.0
 40
0.0
 40
0.0
 40
0.1582230975563218
 40
0.3050355053581694
 40
0.4413089638879075
 40
0.5659632271047239
 40
0.6835251144150593
 40
0.7933341296296008
 40
0.8985175121610026
 40
1.0
 40
1.0
 40
1.0
 40
1.0
 10
-0.4306053126051709
 20
0.1360594219345697
 30
0.0
 10
-0.4319189200000274
 20
0.1375817895299112
 30
0.0
 10
-0.4344514004135758
 20
0.1405167350338102
 30
0.0
 10
-0.4384679347708925
 20
0.1444408112126307
 30
0.0
 10
-0.4424696207404857
 20
0.1477363068513696
 30
0.0
 10
-0.4464016788528599
 20
0.1505186110591772
 30
0.0
 10
-0.4503629837867335
 20
0.1526221215310217
 30
0.0
 10
-0.4543070493676097
 20
0.1541574688124724
 30
0.0
 10
-0.4582379592615348
 20
0.1551075977882378
 30
0.0
 10
-0.4608655332054865
 20
0.1552300576949586
 30
0.0
 10
-0.4621557933744017
 20
0.155290191165339
 30
0.0
  0
SPLINE
  5
108
330
1F
100
AcDbEntity
  8
0
  6
Continuous
 62
     7
370
    25
100
AcDbSpline
210
0.0
220
0.0
230
1.0
 70
     8
 71
     3
 72
    23
 73
    19
 74
     0
 42
0.000000001
 43
0.00000001
 40
0.0
 40
0.0
 40
0.0
 40
0.0
 40
0.0614842551968905
 40
0.1217745277022103
 40
0.1809195598139318
 40
0.2402561150782711
 40
0.3001144444023513
 40
0.3611459476126113
 40
0.4235005824125855
 40
0.4886693612807189
 40
0.5539541046535615
 40
0.6175812610152617
 40
0.6802384268167387
 40
0.7421873887724533
 40
0.8046632117692929
 40
0.8682589893126624
 40
0.9330202571803755
 40
1.0
 40
1.0
 40
1.0
 40
1.0
 10
-0.5467912100410683
 20
0.0530766494986723
 30
0.0
 10
-0.5468381484784939
 20
0.0508353377061301
 30
0.0
 10
-0.5469311138406062
 20
0.0463962388816229
 30
0.0
 10
-0.5479997505390789
 20
0.0398780191043292
 30
0.0
 10
-0.5495654409078339
 20
0.0335472426983323
 30
0.0
 10
-0.5519252433328732
 20
0.0274821632379742
 30
0.0
 10
-0.5548054689228653
 20
0.0215718230462995
 30
0.0
 10
-0.5584602009132963
 20
0.0159712587312336
 30
0.0
 10
-0.5626964641088454
 20
0.0105565159750232
 30
0.0
 10
-0.5675560187448727
 20
0.005471980878227
 30
0.0
 10
-0.5728735831960517
 20
0.0008043954506976
 30
0.0
 10
-0.5784938471005356
 20
-0.0033476803687645
 30
0.0
 10
-0.584426009452975
 20
-0.0068097034684301
 30
0.0
 10
-0.5906378892160631
 20
-0.0096347636148539
 30
0.0
 10
-0.5971309132665678
 20
-0.0118443005810147
 30
0.0
 10
-0.6039028978261757
 20
-0.0134452198046484
 30
0.0
 10
-0.6109650057704298
 20
-0.0144277705841842
 30
0.0
 10
-0.6157650401684642
 20
-0.0145297535459415
 30
0.0
 10
-0.6182054728615812
 20
-0.014581603706456
 30
0.0
  0
SPLINE
  5
109
330
1F
100
AcDbEntity
  8
0
  6
Continuous
 62
     7
370
    25
100
AcDbSpline
210
0.0
220
0.0
230
1.0
 70
     8
 71
     3
 72
    15
 73
    11
 74
     0
 42
0.000000001
 43
0.00000001
 40
0.0
 40
0.0
 40
0.0
 40
0.0
 40
0.1057142614175179
 40
0.2134116126389966
 40
0.3261267300734713
 40
0.4444516715568698
 40
0.5690610798550865
 40
0.7027122044812174
 40
0.8463179465861966
 40
1.0
 40
1.0
 40
1.0
 40
1.0
 10
-0.4621557933744017
 20
0.1777260886012364
 30
0.0
 10
-0.4602135031268563
 20
0.1776472071228519
 30
0.0
 10
-0.4562924872829811
 20
0.1774879644314339
 30
0.0
 10
-0.450410013993831
 20
0.176223272245381
 30
0.0
 10
-0.4445362038447276
 20
0.1741423362382761
 30
0.0
 10
-0.4386559645613258
 20
0.1712683195712484
 30
0.0
 10
-0.4328123724625078
 20
0.1675492570083778
 30
0.0
 10
-0.4269540255570985
 20
0.163054307053498
 30
0.0
 10
-0.4210105948220879
 20
0.1578130417314139
 30
0.0
 10
-0.4172994296005603
 20
0.1538059542014152
 30
0.0
 10
-0.415380953630812
 20
0.1517345020627748
 30
0.0
  0
SPLINE
  5
10A
330
1F
100
AcDbEntity
  8
0
  6
Continuous
 62
     7
370
    25
100
AcDbSpline
210
0.0
220
0.0
230
1.0
 70
     8
 71
     3
 72
    23
 73
    19
 74
     0
 42
0.000000001
 43
0.00000001
 40
0.0
 40
0.0
 40
0.0
 40
0.0
 40
0.0679784896192549
 40
0.1330435352439081
 40
0.1965074380533953
 40
0.2586134167685752
 40
0.3197283376065486
 40
0.3808728540495682
 40
0.4426356023162056
 40
0.5050793035048787
 40
0.5678805200585768
 40
0.628813854155489
 40
0.6889100905404411
 40
0.7487650058898476
 40
0.8093857829631179
 40
0.8708843357532267
 40
0.9340374630737026
 40
1.0
 40
1.0
 40
1.0
 40
1.0
 10
-0.5083296715795299
 20
0.1297994059089287
 30
0.0
 10
-0.5082915147707864
 20
0.1314869343338178
 30
0.0
 10
-0.5082168364900934
 20
0.1347896665470417
 30
0.0
 10
-0.5076208328061081
 20
0.1396424394258385
 30
0.0
 10
-0.5065357105778212
 20
0.1442530218435994
 30
0.0
 10
-0.5051746446779024
 20
0.1486906549156316
 30
0.0
 10
-0.5032830015033284
 20
0.1528693759183274
 30
0.0
 10
-0.5010225797072604
 20
0.1568449095633388
 30
0.0
 10
-0.4983663350698376
 20
0.1606117608492262
 30
0.0
 10
-0.4953061000092545
 20
0.1641119845697998
 30
0.0
 10
-0.4919413396347153
 20
0.1672912221631697
 30
0.0
 10
-0.4883059989393331
 20
0.1700625527325534
 30
0.0
 10
-0.4844818377549886
 20
0.1724272923608701
 30
0.0
 10
-0.4804526649293427
 20
0.174410518117384
 30
0.0
 10
-0.4761797740033473
 20
0.175910616874155
 30
0.0
 10
-0.4716930321221536
 20
0.1769432872361889
 30
0.0
 10
-0.4670015210593503
 20
0.1776329445791098
 30
0.0
 10
-0.4637942977763858
 20
0.1776945934574323
 30
0.0
 10
-0.4621557933744017
 20
0.1777260886012364
 30
0.0
  0
SPLINE
  5
10B
330
1F
100
AcDbEntity
  8
0
  6
Continuous
 62
     7
370
    25
100
AcDbSpline
210
0.0
220
0.0
230
1.0
 70
     8
 71
     3
 72
    23
 73
    19
 74
     0
 42
0.000000001
 43
0.00000001
 40
0.0
 40
0.0
 40
0.0
 40
0.0
 40
0.0623263659914403
 40
0.1231962451944469
 40
0.1840362202545514
 40
0.2469640854288918
 40
0.3106993957895711
 40
0.3732676370734431
 40
0.4365875799673887
 40
0.5021247910366482
 40
0.5390047220341626
 40
0.5832553755259852
 40
0.6344465152828116
 40
0.6926760461021155
 40
0.758570486286528
 40
0.8316586747921144
 40
0.9119171022748344
 40
1.0
 40
1.0
 40
1.0
 40
1.0
 10
-1.026909399143633
 20
0.0110594219345697
 30
0.0
 10
-1.025182057113102
 20
0.0111324744298539
 30
0.0
 10
-1.021767738807474
 20
0.0112768722778262
 30
0.0
 10
-1.016806024949749
 20
0.0125518205114902
 30
0.0
 10
-1.012059022720479
 20
0.014497849298188
 30
0.0
 10
-1.007696904314693
 20
0.0173472274243659
 30
0.0
 10
-1.003676519523129
 20
0.0207351860457634
 30
0.0
 10
-1.000359174838321
 20
0.0248320438076455
 30
0.0
 10
-0.9975936573751077
 20
0.0293724712366759
 30
0.0
 10
-0.995929393564357
 20
0.0336704322253951
 30
0.0
 10
-0.9948690527064258
 20
0.0375901915306184
 30
0.0
 10
-0.9941960793594881
 20
0.0411925583789859
 30
0.0
 10
-0.9936076036172533
 20
0.0454040925576255
 30
0.0
 10
-0.9930946356242919
 20
0.0502298211512023
 30
0.0
 10
-0.9927943162986232
 20
0.0556794055891914
 30
0.0
 10
-0.9924573682397032
 20
0.061736844369867
 30
0.0
 10
-0.9923355638904414
 20
0.0684174095267309
 30
0.0
 10
-0.9923148623997526
 20
0.073075334663856
 30
0.0
 10
-0.9923040305538888
 20
0.0755125469345697
 30
0.0
  0
LINE
  5
10C
330
1F
100
AcDbEntity
  8
0
  6
Continuous
 62
     7
370
    25
100
AcDbLine
 10
-1.0884578767
 20
0.0142645501
 30
0.0
 11
-1.0752367229
 21
0.0334953194
 31
0.0
  0
LINE
  5
10D
330
1F
100
AcDbEntity
  8
0
  6
Continuous
 62
     7
370
    25
100
AcDbLine
 10
-0.9698681331
 20
0.2418286527
 30
0.0
 11
-0.9698681331
 21
0.0730085405
 31
0.0
  0
LINE
  5
10E
330
1F
100
AcDbEntity
  8
0
  6
Continuous
 62
     7
370
    25
100
AcDbLine
 10
-0.9923040306
 20
0.2418286527
 30
0.0
 11
-0.9698681331
 21
0.2418286527
 31
0.0
  0
LINE
  5
10F
330
1F
100
AcDbEntity
  8
0
  6
Continuous
 62
     7
370
    25
100
AcDbLine
 10
-0.5499963382
 20
0.2059212008
 30
0.0
 11
-0.5702787902
 21
0.1905466014
 31
0.0
  0
LINE
  5
110
330
1F
100
AcDbEntity
  8
0
  6
Continuous
 62
     7
370
    25
100
AcDbLine
 10
-0.6942271075
 20
0.0400558162
 30
0.0
 11
-0.6730932934
 21
0.0527260886
 31
0.0
  0
LINE
  5
111
330
1F
100
AcDbEntity
  8
0
  6
Continuous
 62
     7
370
    25
100
AcDbLine
 10
-0.3769194152
 20
0.1745209604
 30
0.0
 11
-0.3448681331
 21
0.1745209604
 31
0.0
  0
LINE
  5
112
330
1F
100
AcDbEntity
  8
0
  6
Continuous
 62
     7
370
    25
100
AcDbLine
 10
-0.3769194152
 20
0.152085063
 30
0.0
 11
-0.3769194152
 21
0.1745209604
 31
0.0
  0
LINE
  5
113
330
1F
100
AcDbEntity
  8
0
  6
Continuous
 62
     7
370
    25
100
AcDbLine
 10
-0.3448681331
 20
0.152085063
 30
0.0
 11
-0.3769194152
 21
0.152085063
 31
0.0
  0
LINE
  5
114
330
1F
100
AcDbEntity
  8
0
  6
Continuous
 62
     7
370
    25
100
AcDbLine
 10
-0.3448681331
 20
-0.0081713473
 30
0.0
 11
-0.3448681331
 21
0.152085063
 31
0.0
  0
LINE
  5
115
330
1F
100
AcDbEntity
  8
0
  6
Continuous
 62
     7
370
    25
100
AcDbLine
 10
-0.3224322357
 20
-0.0081713473
 30
0.0
 11
-0.3448681331
 21
-0.0081713473
 31
0.0
  0
LINE
  5
116
330
1F
100
AcDbEntity
  8
0
  6
Continuous
 62
     7
370
    25
100
AcDbLine
 10
-0.3224322357
 20
0.152085063
 30
0.0
 11
-0.3224322357
 21
-0.0081713473
 31
0.0
  0
LINE
  5
117
330
1F
100
AcDbEntity
  8
0
  6
Continuous
 62
     7
370
    25
100
AcDbLine
 10
-0.2903809536
 20
0.152085063
 30
0.0
 11
-0.3224322357
 21
0.152085063
 31
0.0
  0
LINE
  5
118
330
1F
100
AcDbEntity
  8
0
  6
Continuous
 62
     7
370
    25
100
AcDbLine
 10
-0.2903809536
 20
0.1745209604
 30
0.0
 11
-0.2903809536
 21
0.152085063
 31
0.0
  0
LINE
  5
119
330
1F
100
AcDbEntity
  8
0
  6
Continuous
 62
     7
370
    25
100
AcDbLine
 10
-0.3224322357
 20
0.1745209604
 30
0.0
 11
-0.2903809536
 21
0.1745209604
 31
0.0
  0
LINE
  5
11A
330
1F
100
AcDbEntity
  8
0
  6
Continuous
 62
     7
370
    25
100
AcDbLine
 10
-0.3224322357
 20
0.2482389091
 30
0.0
 11
-0.3224322357
 21
0.1745209604
 31
0.0
  0
LINE
  5
11B
330
1F
100
AcDbEntity
  8
0
  6
Continuous
 62
     7
370
    25
100
AcDbLine
 10
-0.3448681331
 20
0.2482389091
 30
0.0
 11
-0.3224322357
 21
0.2482389091
 31
0.0
  0
LINE
  5
11C
330
1F
100
AcDbEntity
  8
0
  6
Continuous
 62
     7
370
    25
100
AcDbLine
 10
-0.3448681331
 20
0.1745209604
 30
0.0
 11
-0.3448681331
 21
0.2482389091
 31
0.0
  0
LINE
  5
11D
330
1F
100
AcDbEntity
  8
0
  6
Continuous
 62
     7
370
    25
100
AcDbLine
 10
0.0076959694
 20
-0.0081713473
 30
0.0
 11
-0.014739928
 21
-0.0081713473
 31
0.0
  0
LINE
  5
11E
330
1F
100
AcDbEntity
  8
0
  6
Continuous
 62
     7
370
    25
100
AcDbLine
 10
0.0076959694
 20
0.0578843418
 30
0.0
 11
0.0076959694
 21
-0.0081713473
 31
0.0
  0
LINE
  5
11F
330
1F
100
AcDbEntity
  8
0
  6
Continuous
 62
     7
370
    25
100
AcDbLine
 10
0.1230805848
 20
-0.0081713473
 30
0.0
 11
0.1230805848
 21
0.0777661527
 31
0.0
  0
LINE
  5
120
330
1F
100
AcDbEntity
  8
0
  6
Continuous
 62
     7
370
    25
100
AcDbLine
 10
0.1455164823
 20
-0.0081713473
 30
0.0
 11
0.1230805848
 21
-0.0081713473
 31
0.0
  0
LINE
  5
121
330
1F
100
AcDbEntity
  8
0
  6
Continuous
 62
     7
370
    25
100
AcDbLine
 10
0.1455164823
 20
0.0851279315
 30
0.0
 11
0.1455164823
 21
-0.0081713473
 31
0.0
  0
LINE
  5
122
330
1F
100
AcDbEntity
  8
0
  6
Continuous
 62
     7
370
    25
100
AcDbLine
 10
0.0076959694
 20
0.1745209604
 30
0.0
 11
0.0076959694
 21
0.141568236
 31
0.0
  0
LINE
  5
123
330
1F
100
AcDbEntity
  8
0
  6
Continuous
 62
     7
370
    25
100
AcDbLine
 10
-0.014739928
 20
0.1745209604
 30
0.0
 11
0.0076959694
 21
0.1745209604
 31
0.0
  0
LINE
  5
124
330
1F
100
AcDbEntity
  8
0
  6
Continuous
 62
     7
370
    25
100
AcDbLine
 10
-0.014739928
 20
-0.0081713473
 30
0.0
 11
-0.014739928
 21
0.1745209604
 31
0.0
  0
LINE
  5
125
330
1F
100
AcDbEntity
  8
0
  6
Continuous
 62
     7
370
    25
100
AcDbLine
 10
0.5974395592
 20
0.1407168739
 30
0.0
 11
0.5974395592
 21
0.1745209604
 31
0.0
  0
LINE
  5
126
330
1F
100
AcDbEntity
  8
0
  6
Continuous
 62
     7
370
    25
100
AcDbLine
 10
0.5974395592
 20
-0.0081713473
 30
0.0
 11
0.5974395592
 21
0.0234292136
 31
0.0
  0
LINE
  5
127
330
1F
100
AcDbEntity
  8
0
  6
Continuous
 62
     7
370
    25
100
AcDbLine
 10
0.6198754566
 20
-0.0081713473
 30
0.0
 11
0.5974395592
 21
-0.0081713473
 31
0.0
  0
LINE
  5
128
330
1F
100
AcDbEntity
  8
0
  6
Continuous
 62
     7
370
    25
100
AcDbLine
 10
0.6198754566
 20
0.1745209604
 30
0.0
 11
0.6198754566
 21
-0.0081713473
 31
0.0
  0
LINE
  5
129
330
1F
100
AcDbEntity
  8
0
  6
Continuous
 62
     7
370
    25
100
AcDbLine
 10
0.5974395592
 20
0.1745209604
 30
0.0
 11
0.6198754566
 21
0.1745209604
 31
0.0
  0
LINE
  5
12A
330
1F
100
AcDbEntity
  8
0
  6
Continuous
 62
     7
370
    25
100
AcDbLine
 10
0.9371831489
 20
0.1391643899
 30
0.0
 11
0.9371831489
 21
0.2482389091
 31
0.0
  0
LINE
  5
12B
330
1F
100
AcDbEntity
  8
0
  6
Continuous
 62
     7
370
    25
100
AcDbLine
 10
0.9371831489
 20
-0.0081713473
 30
0.0
 11
0.9371831489
 21
0.0234292136
 31
0.0
  0
LINE
  5
12C
330
1F
100
AcDbEntity
  8
0
  6
Continuous
 62
     7
370
    25
100
AcDbLine
 10
0.9596190464
 20
-0.0081713473
 30
0.0
 11
0.9371831489
 21
-0.0081713473
 31
0.0
  0
LINE
  5
12D
330
1F
100
AcDbEntity
  8
0
  6
Continuous
 62
     7
370
    25
100
AcDbLine
 10
0.9596190464
 20
0.2482389091
 30
0.0
 11
0.9596190464
 21
-0.0081713473
 31
0.0
  0
LINE
  5
12E
330
1F
100
AcDbEntity
  8
0
  6
Continuous
 62
     7
370
    25
100
AcDbLine
 10
0.9371831489
 20
0.2482389091
 30
0.0
 11
0.9596190464
 21
0.2482389091
 31
0.0
  0
LINE
  5
12F
330
1F
100
AcDbEntity
  8
0
  6
Continuous
 62
     7
370
    25
100
AcDbLine
 10
-1.32
 20
-2.41
 30
0.0
 11
1.32
 21
-2.41
 31
0.0
  0
LINE
  5
130
330
1F
100
AcDbEntity
  8
0
  6
Continuous
 62
     7
370
    25
100
AcDbLine
 10
-1.32
 20
2.41
 30
0.0
 11
-1.32
 21
-2.41
 31
0.0
  0
LINE
  5
131
330
1F
100
AcDbEntity
  8
0
  6
Continuous
 62
     7
370
    25
100
AcDbLine
 10
1.32
 20
2.41
 30
0.0
 11
-1.32
 21
2.41
 31
0.0
  0
LINE
  5
132
330
1F
100
AcDbEntity
  8
0
  6
Continuous
 62
     7
370
    25
100
AcDbLine
 10
1.32
 20
-2.41
 30
0.0
 11
1.32
 21
2.41
 31
0.0
  0
LINE
  5
133
330
1F
100
AcDbEntity
  8
0
  6
Continuous
 62
     7
370
    25
100
AcDbLine
 10
0.6871831489
 20
-0.0081713473
 30
0.0
 11
0.6647472515
 21
-0.0081713473
 31
0.0
  0
LINE
  5
134
330
1F
100
AcDbEntity
  8
0
  6
Continuous
 62
     7
370
    25
100
AcDbLine
 10
0.6871831489
 20
0.0532268899
 30
0.0
 11
0.6871831489
 21
-0.0081713473
 31
0.0
  0
LINE
  5
135
330
1F
100
AcDbEntity
  8
0
  6
Continuous
 62
     7
370
    25
100
AcDbLine
 10
0.751285713
 20
0.1714660726
 30
0.0
 11
0.7389660015
 21
0.1520349828
 31
0.0
  0
LINE
  5
136
330
1F
100
AcDbEntity
  8
0
  6
Continuous
 62
     7
370
    25
100
AcDbLine
 10
0.6871831489
 20
0.1745209604
 30
0.0
 11
0.6871831489
 21
0.1476279315
 31
0.0
  0
LINE
  5
137
330
1F
100
AcDbEntity
  8
0
  6
Continuous
 62
     7
370
    25
100
AcDbLine
 10
0.6647472515
 20
0.1745209604
 30
0.0
 11
0.6871831489
 21
0.1745209604
 31
0.0
  0
LINE
  5
138
330
1F
100
AcDbEntity
  8
0
  6
Continuous
 62
     7
370
    25
100
AcDbLine
 10
0.6647472515
 20
-0.0081713473
 30
0.0
 11
0.6647472515
 21
0.1745209604
 31
0.0
  0
LINE
  5
139
330
1F
100
AcDbEntity
  8
0
  6
Continuous
 62
     7
370
    25
100
AcDbLine
 10
0.360260072
 20
0.1391643899
 30
0.0
 11
0.360260072
 21
0.2482389091
 31
0.0
  0
LINE
  5
13A
330
1F
100
AcDbEntity
  8
0
  6
Continuous
 62
     7
370
    25
100
AcDbLine
 10
0.360260072
 20
-0.0081713473
 30
0.0
 11
0.360260072
 21
0.0234292136
 31
0.0
  0
LINE
  5
13B
330
1F
100
AcDbEntity
  8
0
  6
Continuous
 62
     7
370
    25
100
AcDbLine
 10
0.3826959694
 20
-0.0081713473
 30
0.0
 11
0.360260072
 21
-0.0081713473
 31
0.0
  0
LINE
  5
13C
330
1F
100
AcDbEntity
  8
0
  6
Continuous
 62
     7
370
    25
100
AcDbLine
 10
0.3826959694
 20
0.2482389091
 30
0.0
 11
0.3826959694
 21
-0.0081713473
 31
0.0
  0
LINE
  5
13D
330
1F
100
AcDbEntity
  8
0
  6
Continuous
 62
     7
370
    25
100
AcDbLine
 10
0.360260072
 20
0.2482389091
 30
0.0
 11
0.3826959694
 21
0.2482389091
 31
0.0
  0
LINE
  5
13E
330
1F
100
AcDbEntity
  8
0
  6
Continuous
 62
     7
370
    25
100
AcDbLine
 10
-0.0884578767
 20
0.1407168739
 30
0.0
 11
-0.0884578767
 21
0.1745209604
 31
0.0
  0
LINE
  5
13F
330
1F
100
AcDbEntity
  8
0
  6
Continuous
 62
     7
370
    25
100
AcDbLine
 10
-0.0884578767
 20
-0.0081713473
 30
0.0
 11
-0.0884578767
 21
0.0234292136
 31
0.0
  0
LINE
  5
140
330
1F
100
AcDbEntity
  8
0
  6
Continuous
 62
     7
370
    25
100
AcDbLine
 10
-0.0660219793
 20
-0.0081713473
 30
0.0
 11
-0.0884578767
 21
-0.0081713473
 31
0.0
  0
LINE
  5
141
330
1F
100
AcDbEntity
  8
0
  6
Continuous
 62
     7
370
    25
100
AcDbLine
 10
-0.0660219793
 20
0.1745209604
 30
0.0
 11
-0.0660219793
 21
-0.0081713473
 31
0.0
  0
LINE
  5
142
330
1F
100
AcDbEntity
  8
0
  6
Continuous
 62
     7
370
    25
100
AcDbLine
 10
-0.0884578767
 20
0.1745209604
 30
0.0
 11
-0.0660219793
 21
0.1745209604
 31
0.0
  0
LINE
  5
143
330
1F
100
AcDbEntity
  8
0
  6
Continuous
 62
     7
370
    25
100
AcDbLine
 10
-0.5179450562
 20
0.0133631078
 30
0.0
 11
-0.5030712581
 21
0.0302901912
 31
0.0
  0
LINE
  5
144
330
1F
100
AcDbEntity
  8
0
  6
Continuous
 62
     7
370
    25
100
AcDbLine
 10
-0.4153809536
 20
0.1517345021
 30
0.0
 11
-0.4306053126
 21
0.1360594219
 31
0.0
  0
LINE
  5
145
330
1F
100
AcDbEntity
  8
0
  6
Continuous
 62
     7
370
    25
100
AcDbLine
 10
-0.8833296716
 20
-0.0081713473
 30
0.0
 11
-0.905765569
 21
-0.0081713473
 31
0.0
  0
LINE
  5
146
330
1F
100
AcDbEntity
  8
0
  6
Continuous
 62
     7
370
    25
100
AcDbLine
 10
-0.8833296716
 20
0.1136235245
 30
0.0
 11
-0.8833296716
 21
-0.0081713473
 31
0.0
  0
LINE
  5
147
330
1F
100
AcDbEntity
  8
0
  6
Continuous
 62
     7
370
    25
100
AcDbLine
 10
-0.7551245434
 20
0.1136235245
 30
0.0
 11
-0.8833296716
 21
0.1136235245
 31
0.0
  0
LINE
  5
148
330
1F
100
AcDbEntity
  8
0
  6
Continuous
 62
     7
370
    25
100
AcDbLine
 10
-0.7551245434
 20
-0.0081713473
 30
0.0
 11
-0.7551245434
 21
0.1136235245
 31
0.0
  0
LINE
  5
149
330
1F
100
AcDbEntity
  8
0
  6
Continuous
 62
     7
370
    25
100
AcDbLine
 10
-0.7326886459
 20
-0.0081713473
 30
0.0
 11
-0.7551245434
 21
-0.0081713473
 31
0.0
  0
LINE
  5
14A
330
1F
100
AcDbEntity
  8
0
  6
Continuous
 62
     7
370
    25
100
AcDbLine
 10
-0.7326886459
 20
0.2418286527
 30
0.0
 11
-0.7326886459
 21
-0.0081713473
 31
0.0
  0
LINE
  5
14B
330
1F
100
AcDbEntity
  8
0
  6
Continuous
 62
     7
370
    25
100
AcDbLine
 10
-0.7551245434
 20
0.2418286527
 30
0.0
 11
-0.7326886459
 21
0.2418286527
 31
0.0
  0
LINE
  5
14C
330
1F
100
AcDbEntity
  8
0
  6
Continuous
 62
     7
370
    25
100
AcDbLine
 10
-0.7551245434
 20
0.1392645501
 30
0.0
 11
-0.7551245434
 21
0.2418286527
 31
0.0
  0
LINE
  5
14D
330
1F
100
AcDbEntity
  8
0
  6
Continuous
 62
     7
370
    25
100
AcDbLine
 10
-0.8833296716
 20
0.1392645501
 30
0.0
 11
-0.7551245434
 21
0.1392645501
 31
0.0
  0
LINE
  5
14E
330
1F
100
AcDbEntity
  8
0
  6
Continuous
 62
     7
370
    25
100
AcDbLine
 10
-0.8833296716
 20
0.2418286527
 30
0.0
 11
-0.8833296716
 21
0.1392645501
 31
0.0
  0
LINE
  5
14F
330
1F
100
AcDbEntity
  8
0
  6
Continuous
 62
     7
370
    25
100
AcDbLine
 10
-0.905765569
 20
0.2418286527
 30
0.0
 11
-0.8833296716
 21
0.2418286527
 31
0.0
  0
LINE
  5
150
330
1F
100
AcDbEntity
  8
0
  6
Continuous
 62
     7
370
    25
100
AcDbLine
 10
-0.905765569
 20
-0.0081713473
 30
0.0
 11
-0.905765569
 21
0.2418286527
 31
0.0
  0
LINE
  5
151
330
1F
100
AcDbEntity
  8
0
  6
Continuous
 62
     7
370
    25
100
AcDbLine
 10
-0.9923040306
 20
0.0755125469
 30
0.0
 11
-0.9923040306
 21
0.2418286527
 31
0.0
  0
MTEXT
  5
153
330
1F
100
AcDbEntity
  8
0
  6
Continuous
 62
     7
100
AcDbMText
 10
-1.32
 20
-2.4501404091
 30
0.0
 40
0.1903
 41
0.0
 71
     1
 72
     1
  1
SOLIDWORKS Educational Product.
  7
SLDTEXTSTYLE0
 73
     1
 44
1.0
  0
MTEXT
  5
154
330
1F
100
AcDbEntity
  8
0
  6
Continuous
 62
     7
100
AcDbMText
 10
-1.32
 20
-2.7355904091
 30
0.0
 40
0.1903
 41
0.0
 71
     1
 72
     1
  1
For Instructional Use Only.
  7
SLDTEXTSTYLE0
 73
     1
 44
1.0
  0
ENDSEC
  0
SECTION
  2
OBJECTS
  0
DICTIONARY
  5
C
330
0
100
AcDbDictionary
281
     1
  3
ACAD_GROUP
350
D
  3
ACAD_LAYOUT
350
1A
  3
ACAD_MLINESTYLE
350
17
  3
ACAD_PLOTSETTINGS
350
19
  3
ACAD_PLOTSTYLENAME
350
E
  3
ACAD_SCALELIST
350
47
  0
DICTIONARY
  5
D
102
{ACAD_REACTORS
330
C
102
}
330
C
100
AcDbDictionary
281
     1
  0
DICTIONARY
  5
1A
102
{ACAD_REACTORS
330
C
102
}
330
C
100
AcDbDictionary
281
     1
  3
Layout1
350
1E
  3
Layout2
350
26
  3
Model
350
22
  0
DICTIONARY
  5
17
102
{ACAD_REACTORS
330
C
102
}
330
C
100
AcDbDictionary
281
     1
  3
Standard
350
18
  0
DICTIONARY
  5
19
102
{ACAD_REACTORS
330
C
102
}
330
C
100
AcDbDictionary
281
     1
  0
ACDBDICTIONARYWDFLT
  5
E
102
{ACAD_REACTORS
330
C
102
}
330
C
100
AcDbDictionary
281
     1
  3
Normal
350
F
100
AcDbDictionaryWithDefault
340
F
  0
DICTIONARY
  5
47
102
{ACAD_REACTORS
330
C
102
}
330
C
100
AcDbDictionary
281
     1
  3
A0
350
48
  3
A1
350
49
  3
A2
350
4A
  3
A3
350
4B
  3
A4
350
4C
  3
A5
350
4D
  3
A6
350
4E
  3
A7
350
4F
  3
A8
350
50
  3
A9
350
51
  3
B0
350
52
  3
B1
350
53
  3
B2
350
54
  3
B3
350
55
  3
B4
350
56
  3
B5
350
57
  3
B6
350
58
  3
B7
350
59
  3
B8
350
5A
  3
B9
350
5B
  3
C0
350
5C
  3
C1
350
5D
  3
C2
350
5E
  3
C3
350
5F
  3
C4
350
60
  3
C5
350
61
  3
C6
350
62
  3
C7
350
63
  3
C8
350
64
  3
C9
350
65
  3
D0
350
66
  3
D1
350
67
  3
D2
350
68
  0
LAYOUT
  5
1E
102
{ACAD_REACTORS
330
1A
102
}
330
1A
100
AcDbPlotSettings
  1

  2
none_device
  4

  6

 40
0.0
 41
0.0
 42
0.0
 43
0.0
 44
0.0
 45
0.0
 46
0.0
 47
0.0
 48
0.0
 49
0.0
140
0.0
141
0.0
142
1.0
143
1.0
 70
   688
 72
     0
 73
     0
 74
     5
  7

 75
    16
147
1.0
148
0.0
149
0.0
100
AcDbLayout
  1
Layout1
 70
     1
 71
     1
 10
0.0
 20
0.0
 11
12.0
 21
9.0
 12
0.0
 22
0.0
 32
0.0
 14
1.0000000000E+20
 24
1.0000000000E+20
 34
1.0000000000E+20
 15
-1.0000000000E+20
 25
-1.0000000000E+20
 35
-1.0000000000E+20
146
0.0
 13
0.0
 23
0.0
 33
0.0
 16
1.0
 26
0.0
 36
0.0
 17
0.0
 27
1.0
 37
0.0
 76
     0
330
1B
  0
LAYOUT
  5
26
102
{ACAD_REACTORS
330
1A
102
}
330
1A
100
AcDbPlotSettings
  1

  2
none_device
  4

  6

 40
0.0
 41
0.0
 42
0.0
 43
0.0
 44
0.0
 45
0.0
 46
0.0
 47
0.0
 48
0.0
 49
0.0
140
0.0
141
0.0
142
1.0
143
1.0
 70
   688
 72
     0
 73
     0
 74
     5
  7

 75
    16
147
1.0
148
0.0
149
0.0
100
AcDbLayout
  1
Layout2
 70
     1
 71
     2
 10
0.0
 20
0.0
 11
0.0
 21
0.0
 12
0.0
 22
0.0
 32
0.0
 14
0.0
 24
0.0
 34
0.0
 15
0.0
 25
0.0
 35
0.0
146
0.0
 13
0.0
 23
0.0
 33
0.0
 16
1.0
 26
0.0
 36
0.0
 17
0.0
 27
1.0
 37
0.0
 76
     0
330
23
  0
LAYOUT
  5
22
102
{ACAD_REACTORS
330
1A
102
}
330
1A
100
AcDbPlotSettings
  1

  2
none_device
  4
ANSI_A_(11.00_x_8.50_Inches)
  6

 40
6.35
 41
19.05
 42
6.35000508
 43
19.05000254
 44
279.4
 45
215.9
 46
133.34999746
 47
88.89999873
 48
0.0
 49
0.0
140
0.0
141
0.0
142
1.7458506224
143
1.0
 70
  1696
 72
     0
 73
     0
 74
     0
  7

 75
     0
147
0.5913241897
148
-39.4088153714
149
0.0
100
AcDbLayout
  1
Model
 70
     1
 71
     0
 10
0.0
 20
0.0
 11
12.0
 21
9.0
 12
0.0
 22
0.0
 32
0.0
 14
-1.32
 24
-2.41
 34
0.0
 15
1.32
 25
2.41
 35
0.0
146
0.0
 13
0.0
 23
0.0
 33
0.0
 16
1.0
 26
0.0
 36
0.0
 17
0.0
 27
1.0
 37
0.0
 76
     0
330
1F
331
29
  0
MLINESTYLE
  5
18
102
{ACAD_REACTORS
330
17
102
}
330
17
100
AcDbMlineStyle
  2
Standard
 70
     0
  3

 62
   256
 51
90.0
 52
90.0
 71
     2
 49
0.5
 62
   256
  6
BYLAYER
 49
-0.5
 62
   256
  6
BYLAYER
  0
ACDBPLACEHOLDER
  5
F
102
{ACAD_REACTORS
330
E
102
}
330
E
  0
SCALE
  5
48
102
{ACAD_REACTORS
330
47
102
}
330
47
100
AcDbScale
 70
     0
300
1:1
140
1.0
141
1.0
290
     1
  0
SCALE
  5
49
102
{ACAD_REACTORS
330
47
102
}
330
47
100
AcDbScale
 70
     0
300
1:2
140
1.0
141
2.0
290
     0
  0
SCALE
  5
4A
102
{ACAD_REACTORS
330
47
102
}
330
47
100
AcDbScale
 70
     0
300
1:4
140
1.0
141
4.0
290
     0
  0
SCALE
  5
4B
102
{ACAD_REACTORS
330
47
102
}
330
47
100
AcDbScale
 70
     0
300
1:5
140
1.0
141
5.0
290
     0
  0
SCALE
  5
4C
102
{ACAD_REACTORS
330
47
102
}
330
47
100
AcDbScale
 70
     0
300
1:8
140
1.0
141
8.0
290
     0
  0
SCALE
  5
4D
102
{ACAD_REACTORS
330
47
102
}
330
47
100
AcDbScale
 70
     0
300
1:10
140
1.0
141
10.0
290
     0
  0
SCALE
  5
4E
102
{ACAD_REACTORS
330
47
102
}
330
47
100
AcDbScale
 70
     0
300
1:16
140
1.0
141
16.0
290
     0
  0
SCALE
  5
4F
102
{ACAD_REACTORS
330
47
102
}
330
47
100
AcDbScale
 70
     0
300
1:20
140
1.0
141
20.0
290
     0
  0
SCALE
  5
50
102
{ACAD_REACTORS
330
47
102
}
330
47
100
AcDbScale
 70
     0
300
1:30
140
1.0
141
30.0
290
     0
  0
SCALE
  5
51
102
{ACAD_REACTORS
330
47
102
}
330
47
100
AcDbScale
 70
     0
300
1:40
140
1.0
141
40.0
290
     0
  0
SCALE
  5
52
102
{ACAD_REACTORS
330
47
102
}
330
47
100
AcDbScale
 70
     0
300
1:50
140
1.0
141
50.0
290
     0
  0
SCALE
  5
53
102
{ACAD_REACTORS
330
47
102
}
330
47
100
AcDbScale
 70
     0
300
1:100
140
1.0
141
100.0
290
     0
  0
SCALE
  5
54
102
{ACAD_REACTORS
330
47
102
}
330
47
100
AcDbScale
 70
     0
300
2:1
140
2.0
141
1.0
290
     0
  0
SCALE
  5
55
102
{ACAD_REACTORS
330
47
102
}
330
47
100
AcDbScale
 70
     0
300
4:1
140
4.0
141
1.0
290
     0
  0
SCALE
  5
56
102
{ACAD_REACTORS
330
47
102
}
330
47
100
AcDbScale
 70
     0
300
8:1
140
8.0
141
1.0
290
     0
  0
SCALE
  5
57
102
{ACAD_REACTORS
330
47
102
}
330
47
100
AcDbScale
 70
     0
300
10:1
140
10.0
141
1.0
290
     0
  0
SCALE
  5
58
102
{ACAD_REACTORS
330
47
102
}
330
47
100
AcDbScale
 70
     0
300
100:1
140
100.0
141
1.0
290
     0
  0
SCALE
  5
59
102
{ACAD_REACTORS
330
47
102
}
330
47
100
AcDbScale
 70
     0
300
1/128" = 1'-0"
140
0.0078125
141
12.0
290
     0
  0
SCALE
  5
5A
102
{ACAD_REACTORS
330
47
102
}
330
47
100
AcDbScale
 70
     0
300
1/64" = 1'-0"
140
0.015625
141
12.0
290
     0
  0
SCALE
  5
5B
102
{ACAD_REACTORS
330
47
102
}
330
47
100
AcDbScale
 70
     0
300
1/32" = 1'-0"
140
0.03125
141
12.0
290
     0
  0
SCALE
  5
5C
102
{ACAD_REACTORS
330
47
102
}
330
47
100
AcDbScale
 70
     0
300
1/16" = 1'-0"
140
0.0625
141
12.0
290
     0
  0
SCALE
  5
5D
102
{ACAD_REACTORS
330
47
102
}
330
47
100
AcDbScale
 70
     0
300
3/32" = 1'-0"
140
0.09375
141
12.0
290
     0
  0
SCALE
  5
5E
102
{ACAD_REACTORS
330
47
102
}
330
47
100
AcDbScale
 70
     0
300
1/8" = 1'-0"
140
0.125
141
12.0
290
     0
  0
SCALE
  5
5F
102
{ACAD_REACTORS
330
47
102
}
330
47
100
AcDbScale
 70
     0
300
3/16" = 1'-0"
140
0.1875
141
12.0
290
     0
  0
SCALE
  5
60
102
{ACAD_REACTORS
330
47
102
}
330
47
100
AcDbScale
 70
     0
300
1/4" = 1'-0"
140
0.25
141
12.0
290
     0
  0
SCALE
  5
61
102
{ACAD_REACTORS
330
47
102
}
330
47
100
AcDbScale
 70
     0
300
3/8" = 1'-0"
140
0.375
141
12.0
290
     0
  0
SCALE
  5
62
102
{ACAD_REACTORS
330
47
102
}
330
47
100
AcDbScale
 70
     0
300
1/2" = 1'-0"
140
0.5
141
12.0
290
     0
  0
SCALE
  5
63
102
{ACAD_REACTORS
330
47
102
}
330
47
100
AcDbScale
 70
     0
300
3/4" = 1'-0"
140
0.75
141
12.0
290
     0
  0
SCALE
  5
64
102
{ACAD_REACTORS
330
47
102
}
330
47
100
AcDbScale
 70
     0
300
1" = 1'-0"
140
1.0
141
12.0
290
     0
  0
SCALE
  5
65
102
{ACAD_REACTORS
330
47
102
}
330
47
100
AcDbScale
 70
     0
300
1-1/2" = 1'-0"
140
1.5
141
12.0
290
     0
  0
SCALE
  5
66
102
{ACAD_REACTORS
330
47
102
}
330
47
100
AcDbScale
 70
     0
300
3" = 1'-0"
140
3.0
141
12.0
290
     0
  0
SCALE
  5
67
102
{ACAD_REACTORS
330
47
102
}
330
47
100
AcDbScale
 70
     0
300
6" = 1'-0"
140
6.0
141
12.0
290
     0
  0
SCALE
  5
68
102
{ACAD_REACTORS
330
47
102
}
330
47
100
AcDbScale
 70
     0
300
1'-0" = 1'-0"
140
12.0
141
12.0
290
     0
  0
ENDSEC
  0
EOF
