  0
SECTION
  2
HEADER
  9
$ACADVER
  1
AC1015
  9
$ACADMAINTVER
 70
     6
  9
$DWGCODEPAGE
  3
ANSI_1252
  9
$INSBASE
 10
0.0
 20
0.0
 30
0.0
  9
$EXTMIN
 10
-1.195
 20
-2.215
 30
0.0
  9
$EXTMAX
 10
1.195
 20
2.215
 30
0.0
  9
$LIMMIN
 10
0.0
 20
0.0
  9
$LIMMAX
 10
12.0
 20
9.0
  9
$ORTHOMODE
 70
     0
  9
$REGENMODE
 70
     1
  9
$FILLMODE
 70
     1
  9
$QTEXTMODE
 70
     0
  9
$MIRRTEXT
 70
     1
  9
$LTSCALE
 40
1.0
  9
$ATTMODE
 70
     1
  9
$TEXTSIZE
 40
0.125
  9
$TRACEWID
 40
0.05
  9
$TEXTSTYLE
  7
Standard
  9
$CLAYER
  8
0
  9
$CELTYPE
  6
ByLayer
  9
$CECOLOR
 62
   256
  9
$CELTSCALE
 40
1.0
  9
$DISPSILH
 70
     0
  9
$DIMSCALE
 40
1.0
  9
$DIMASZ
 40
0.13
  9
$DIMEXO
 40
0.05
  9
$DIMDLI
 40
0.38
  9
$DIMRND
 40
0.0
  9
$DIMDLE
 40
0.0
  9
$DIMEXE
 40
0.125
  9
$DIMTP
 40
0.0
  9
$DIMTM
 40
0.0
  9
$DIMTXT
 40
0.125
  9
$DIMCEN
 40
0.09
  9
$DIMTSZ
 40
0.0
  9
$DIMTOL
 70
     0
  9
$DIMLIM
 70
     0
  9
$DIMTIH
 70
     1
  9
$DIMTOH
 70
     1
  9
$DIMSE1
 70
     0
  9
$DIMSE2
 70
     0
  9
$DIMTAD
 70
     0
  9
$DIMZIN
 70
     1
  9
$DIMBLK
  1

  9
$DIMASO
 70
     1
  9
$DIMSHO
 70
     1
  9
$DIMPOST
  1

  9
$DIMAPOST
  1

  9
$DIMALT
 70
     0
  9
$DIMALTD
 70
     2
  9
$DIMALTF
 40
25.4
  9
$DIMLFAC
 40
1.0
  9
$DIMTOFL
 70
     0
  9
$DIMTVP
 40
0.0
  9
$DIMTIX
 70
     0
  9
$DIMSOXD
 70
     0
  9
$DIMSAH
 70
     0
  9
$DIMBLK1
  1

  9
$DIMBLK2
  1

  9
$DIMSTYLE
  2
Standard
  9
$DIMCLRD
 70
     0
  9
$DIMCLRE
 70
     0
  9
$DIMCLRT
 70
     0
  9
$DIMTFAC
 40
1.0
  9
$DIMGAP
 40
0.06
  9
$DIMJUST
 70
     0
  9
$DIMSD1
 70
     0
  9
$DIMSD2
 70
     0
  9
$DIMTOLJ
 70
     1
  9
$DIMTZIN
 70
     1
  9
$DIMALTZ
 70
     0
  9
$DIMALTTZ
 70
     0
  9
$DIMUPT
 70
     0
  9
$DIMDEC
 70
     2
  9
$DIMTDEC
 70
     2
  9
$DIMALTU
 70
     2
  9
$DIMALTTD
 70
     2
  9
$DIMTXSTY
  7
Standard
  9
$DIMAUNIT
 70
     0
  9
$DIMADEC
 70
     2
  9
$DIMALTRND
 40
0.0
  9
$DIMAZIN
 70
     0
  9
$DIMDSEP
 70
    46
  9
$DIMATFIT
 70
     3
  9
$DIMFRAC
 70
     0
  9
$DIMLDRBLK
  1

  9
$DIMLUNIT
 70
     2
  9
$DIMLWD
 70
    -2
  9
$DIMLWE
 70
    -2
  9
$DIMTMOVE
 70
     0
  9
$LUNITS
 70
     2
  9
$LUPREC
 70
     2
  9
$SKETCHINC
 40
0.1
  9
$FILLETRAD
 40
0.5
  9
$AUNITS
 70
     0
  9
$AUPREC
 70
     2
  9
$MENU
  1
.
  9
$ELEVATION
 40
0.0
  9
$PELEVATION
 40
0.0
  9
$THICKNESS
 40
0.0
  9
$LIMCHECK
 70
     0
  9
$CHAMFERA
 40
0.0
  9
$CHAMFERB
 40
0.0
  9
$CHAMFERC
 40
0.0
  9
$CHAMFERD
 40
0.0
  9
$SKPOLY
 70
     0
  9
$TDCREATE
 40
2458403.705691377
  9
$TDUCREATE
 40
2458403.872358044
  9
$TDUPDATE
 40
2458403.705717384
  9
$TDUUPDATE
 40
2458403.872384051
  9
$TDINDWG
 40
0.0000000116
  9
$TDUSRTIMER
 40
0.0000000116
  9
$USRTIMER
 70
     1
  9
$ANGBASE
 50
0.0
  9
$ANGDIR
 70
     0
  9
$PDMODE
 70
     0
  9
$PDSIZE
 40
-1.0
  9
$PLINEWID
 40
0.0
  9
$SPLFRAME
 70
     0
  9
$SPLINETYPE
 70
     6
  9
$SPLINESEGS
 70
     8
  9
$HANDSEED
  5
120
  9
$SURFTAB1
 70
     6
  9
$SURFTAB2
 70
     6
  9
$SURFTYPE
 70
     6
  9
$SURFU
 70
     6
  9
$SURFV
 70
     6
  9
$UCSBASE
  2

  9
$UCSNAME
  2

  9
$UCSORG
 10
0.0
 20
0.0
 30
0.0
  9
$UCSXDIR
 10
1.0
 20
0.0
 30
0.0
  9
$UCSYDIR
 10
0.0
 20
1.0
 30
0.0
  9
$UCSORTHOREF
  2

  9
$UCSORTHOVIEW
 70
     0
  9
$UCSORGTOP
 10
0.0
 20
0.0
 30
0.0
  9
$UCSORGBOTTOM
 10
0.0
 20
0.0
 30
0.0
  9
$UCSORGLEFT
 10
0.0
 20
0.0
 30
0.0
  9
$UCSORGRIGHT
 10
0.0
 20
0.0
 30
0.0
  9
$UCSORGFRONT
 10
0.0
 20
0.0
 30
0.0
  9
$UCSORGBACK
 10
0.0
 20
0.0
 30
0.0
  9
$PUCSBASE
  2

  9
$PUCSNAME
  2

  9
$PUCSORG
 10
0.0
 20
0.0
 30
0.0
  9
$PUCSXDIR
 10
1.0
 20
0.0
 30
0.0
  9
$PUCSYDIR
 10
0.0
 20
1.0
 30
0.0
  9
$PUCSORTHOREF
  2

  9
$PUCSORTHOVIEW
 70
     0
  9
$PUCSORGTOP
 10
0.0
 20
0.0
 30
0.0
  9
$PUCSORGBOTTOM
 10
0.0
 20
0.0
 30
0.0
  9
$PUCSORGLEFT
 10
0.0
 20
0.0
 30
0.0
  9
$PUCSORGRIGHT
 10
0.0
 20
0.0
 30
0.0
  9
$PUCSORGFRONT
 10
0.0
 20
0.0
 30
0.0
  9
$PUCSORGBACK
 10
0.0
 20
0.0
 30
0.0
  9
$USERI1
 70
     0
  9
$USERI2
 70
     0
  9
$USERI3
 70
     0
  9
$USERI4
 70
     0
  9
$USERI5
 70
     0
  9
$USERR1
 40
0.0
  9
$USERR2
 40
0.0
  9
$USERR3
 40
0.0
  9
$USERR4
 40
0.0
  9
$USERR5
 40
0.0
  9
$WORLDVIEW
 70
     1
  9
$SHADEDGE
 70
     3
  9
$SHADEDIF
 70
    70
  9
$TILEMODE
 70
     1
  9
$MAXACTVP
 70
    64
  9
$PINSBASE
 10
0.0
 20
0.0
 30
0.0
  9
$PLIMCHECK
 70
     0
  9
$PEXTMIN
 10
1.0000000000E+20
 20
1.0000000000E+20
 30
1.0000000000E+20
  9
$PEXTMAX
 10
-1.0000000000E+20
 20
-1.0000000000E+20
 30
-1.0000000000E+20
  9
$PLIMMIN
 10
0.0
 20
0.0
  9
$PLIMMAX
 10
12.0
 20
9.0
  9
$UNITMODE
 70
     0
  9
$VISRETAIN
 70
     1
  9
$PLINEGEN
 70
     0
  9
$PSLTSCALE
 70
     1
  9
$TREEDEPTH
 70
  3020
  9
$CMLSTYLE
  2
Standard
  9
$CMLJUST
 70
     0
  9
$CMLSCALE
 40
1.0
  9
$PROXYGRAPHICS
 70
     1
  9
$MEASUREMENT
 70
     0
  9
$CELWEIGHT
370
    -1
  9
$ENDCAPS
280
     0
  9
$JOINSTYLE
280
     0
  9
$LWDISPLAY
290
     1
  9
$INSUNITS
 70
     1
  9
$HYPERLINKBASE
  1

  9
$STYLESHEET
  1

  9
$XEDIT
290
     1
  9
$CEPSNTYPE
380
     0
  9
$PSTYLEMODE
290
     1
  9
$FINGERPRINTGUID
  2
{A6FB588E-DAF6-4FB9-AF71-3375379B37C2}
  9
$VERSIONGUID
  2
{FAEB1C32-E019-11D5-929B-00C0DF256EC4}
  9
$EXTNAMES
290
     1
  9
$PSVPSCALE
 40
0.0
  9
$OLESTARTUP
290
     0
  0
ENDSEC
  0
SECTION
  2
CLASSES
  0
CLASS
  1
ACDBDICTIONARYWDFLT
  2
AcDbDictionaryWithDefault
  3
ObjectDBX Classes
 90
        0
280
     0
281
     0
  0
CLASS
  1
VISUALSTYLE
  2
AcDbVisualStyle
  3
ObjectDBX Classes
 90
     4095
280
     0
281
     0
  0
CLASS
  1
MATERIAL
  2
AcDbMaterial
  3
ObjectDBX Classes
 90
     1153
280
     0
281
     0
  0
CLASS
  1
SCALE
  2
AcDbScale
  3
ObjectDBX Classes
 90
     1153
280
     0
281
     0
  0
CLASS
  1
TABLESTYLE
  2
AcDbTableStyle
  3
ObjectDBX Classes
 90
     4095
280
     0
281
     0
  0
CLASS
  1
MLEADERSTYLE
  2
AcDbMLeaderStyle
  3
ACDB_MLEADERSTYLE_CLASS
 90
     4095
280
     0
281
     0
  0
CLASS
  1
SUN
  2
AcDbSun
  3
SCENEOE
 90
     1153
280
     0
281
     0
  0
CLASS
  1
ACDBPLACEHOLDER
  2
AcDbPlaceHolder
  3
ObjectDBX Classes
 90
        0
280
     0
281
     0
  0
CLASS
  1
LAYOUT
  2
AcDbLayout
  3
ObjectDBX Classes
 90
        0
280
     0
281
     0
  0
ENDSEC
  0
SECTION
  2
TABLES
  0
TABLE
  2
VPORT
  5
8
330
0
100
AcDbSymbolTable
 70
     1
  0
VPORT
  5
29
330
8
100
AcDbSymbolTableRecord
100
AcDbViewportTableRecord
  2
*Active
 70
     0
 10
0.0
 20
0.0
 11
1.0
 21
1.0
 12
0.0
 22
0.0
 13
0.0
 23
0.0
 14
0.5
 24
0.5
 15
0.5
 25
0.5
 16
0.0
 26
0.0
 36
1.0
 17
0.0
 27
0.0
 37
0.0
 40
4.5186
 41
0.539503386
 42
50.0
 43
0.0
 44
0.0
 50
0.0
 51
0.0
 71
     0
 72
   100
 73
     1
 74
     3
 75
     0
 76
     0
 77
     0
 78
     0
281
     0
 65
     1
110
0.0
120
0.0
130
0.0
111
1.0
121
0.0
131
0.0
112
0.0
122
1.0
132
0.0
 79
     0
146
0.0
  0
ENDTAB
  0
TABLE
  2
LTYPE
  5
5
330
0
100
AcDbSymbolTable
 70
     6
  0
LTYPE
  5
14
330
5
100
AcDbSymbolTableRecord
100
AcDbLinetypeTableRecord
  2
ByBlock
 70
     0
  3

 72
    65
 73
     0
 40
0.0
  0
LTYPE
  5
15
330
5
100
AcDbSymbolTableRecord
100
AcDbLinetypeTableRecord
  2
ByLayer
 70
     0
  3

 72
    65
 73
     0
 40
0.0
  0
LTYPE
  5
16
330
5
100
AcDbSymbolTableRecord
100
AcDbLinetypeTableRecord
  2
Continuous
 70
     0
  3
Solid line
 72
    65
 73
     0
 40
0.0
  0
LTYPE
  5
6E
330
5
100
AcDbSymbolTableRecord
100
AcDbLinetypeTableRecord
  2
HIDDEN
 70
     0
  3
Hidden __ __ __ __ __ __ __ __ __ __ __ __ __ __
 72
    65
 73
     2
 40
0.075
 49
0.05
 74
     0
 49
-0.025
 74
     0
  0
LTYPE
  5
6F
330
5
100
AcDbSymbolTableRecord
100
AcDbLinetypeTableRecord
  2
PHANTOM
 70
     0
  3
Phantom ______  __  __  ______  __  __  ______
 72
    65
 73
     6
 40
0.5
 49
0.25
 74
     0
 49
-0.05
 74
     0
 49
0.05
 74
     0
 49
-0.05
 74
     0
 49
0.05
 74
     0
 49
-0.05
 74
     0
  0
LTYPE
  5
70
330
5
100
AcDbSymbolTableRecord
100
AcDbLinetypeTableRecord
  2
CENTER
 70
     0
  3
Center ____ _ ____ _ ____ _ ____ _ ____ _ ____
 72
    65
 73
     4
 40
0.4
 49
0.25
 74
     0
 49
-0.05
 74
     0
 49
0.05
 74
     0
 49
-0.05
 74
     0
  0
LTYPE
  5
71
330
5
100
AcDbSymbolTableRecord
100
AcDbLinetypeTableRecord
  2
CENTERX2
 70
     0
  3
Center (2x) ________  __  ________  __  _____
 72
    65
 73
     4
 40
0.8
 49
0.5
 74
     0
 49
-0.1
 74
     0
 49
0.1
 74
     0
 49
-0.1
 74
     0
  0
LTYPE
  5
72
330
5
100
AcDbSymbolTableRecord
100
AcDbLinetypeTableRecord
  2
DOT2
 70
     0
  3
Dot (.5x) ........................................
 72
    65
 73
     2
 40
0.025
 49
0.0
 74
     0
 49
-0.025
 74
     0
  0
ENDTAB
  0
TABLE
  2
LAYER
  5
2
330
0
100
AcDbSymbolTable
 70
     1
  0
LAYER
  5
10
330
2
100
AcDbSymbolTableRecord
100
AcDbLayerTableRecord
  2
0
 70
     0
 62
     7
  6
Continuous
370
    -3
390
F
  0
ENDTAB
  0
TABLE
  2
STYLE
  5
3
330
0
100
AcDbSymbolTable
 70
     2
  0
STYLE
  5
11
330
3
100
AcDbSymbolTableRecord
100
AcDbTextStyleTableRecord
  2
Standard
 70
     0
 40
0.0
 41
1.0
 50
0.0
 71
     0
 42
0.125
  3
txt
  4

  0
STYLE
  5
11D
330
3
100
AcDbSymbolTableRecord
100
AcDbTextStyleTableRecord
  2
SLDTEXTSTYLE0
 70
     0
 40
0.0
 41
0.7
 50
0.0
 71
     0
 42
0.125
  3
TXT
  4

  0
ENDTAB
  0
TABLE
  2
VIEW
  5
6
330
0
100
AcDbSymbolTable
 70
     0
  0
ENDTAB
  0
TABLE
  2
UCS
  5
7
330
0
100
AcDbSymbolTable
 70
     0
  0
ENDTAB
  0
TABLE
  2
APPID
  5
9
330
0
100
AcDbSymbolTable
 70
     1
  0
APPID
  5
12
330
9
100
AcDbSymbolTableRecord
100
AcDbRegAppTableRecord
  2
ACAD
 70
     0
  0
ENDTAB
  0
TABLE
  2
DIMSTYLE
  5
A
330
0
100
AcDbSymbolTable
 70
     1
100
AcDbDimStyleTable
  0
DIMSTYLE
105
27
330
A
100
AcDbSymbolTableRecord
100
AcDbDimStyleTableRecord
  2
Standard
 70
     0
178
     0
340
11
  0
ENDTAB
  0
TABLE
  2
BLOCK_RECORD
  5
1
330
0
100
AcDbSymbolTable
 70
     1
  0
BLOCK_RECORD
  5
1F
330
1
100
AcDbSymbolTableRecord
100
AcDbBlockTableRecord
  2
*Model_Space
340
22
  0
BLOCK_RECORD
  5
1B
330
1
100
AcDbSymbolTableRecord
100
AcDbBlockTableRecord
  2
*Paper_Space
340
1E
  0
BLOCK_RECORD
  5
23
330
1
100
AcDbSymbolTableRecord
100
AcDbBlockTableRecord
  2
*Paper_Space0
340
26
  0
ENDTAB
  0
ENDSEC
  0
SECTION
  2
BLOCKS
  0
BLOCK
  5
20
330
1F
100
AcDbEntity
  8
0
100
AcDbBlockBegin
  2
*Model_Space
 70
     0
 10
0.0
 20
0.0
 30
0.0
  3
*Model_Space
  1

  0
ENDBLK
  5
21
330
1F
100
AcDbEntity
  8
0
100
AcDbBlockEnd
  0
BLOCK
  5
1C
330
1B
100
AcDbEntity
 67
     1
  8
0
100
AcDbBlockBegin
  2
*Paper_Space
 70
     0
 10
0.0
 20
0.0
 30
0.0
  3
*Paper_Space
  1

  0
ENDBLK
  5
1D
330
1B
100
AcDbEntity
 67
     1
  8
0
100
AcDbBlockEnd
  0
BLOCK
  5
24
330
23
100
AcDbEntity
  8
0
100
AcDbBlockBegin
  2
*Paper_Space0
 70
     0
 10
0.0
 20
0.0
 30
0.0
  3
*Paper_Space0
  1

  0
ENDBLK
  5
25
330
23
100
AcDbEntity
  8
0
100
AcDbBlockEnd
  0
ENDSEC
  0
SECTION
  2
ENTITIES
  0
SPLINE
  5
7E
330
1F
100
AcDbEntity
  8
0
  6
Continuous
 62
     7
370
    25
100
AcDbSpline
210
0.0
220
0.0
230
1.0
 70
     8
 71
     3
 72
    23
 73
    19
 74
     0
 42
0.000000001
 43
0.00000001
 40
0.0
 40
0.0
 40
0.0
 40
0.0
 40
0.0683846151037681
 40
0.134475587543451
 40
0.1983910577839564
 40
0.2607534774484864
 40
0.3218292228076489
 40
0.3830372384795248
 40
0.4446531231064263
 40
0.5073980112040049
 40
0.5698252379730248
 40
0.630777640631313
 40
0.6909286865237169
 40
0.7509451326917355
 40
0.8110494767293277
 40
0.8723308525469932
 40
0.9350040935894051
 40
1.0
 40
1.0
 40
1.0
 40
1.0
 10
-0.3918588610001139
 20
0.0504464181869155
 30
0.0
 10
-0.3917488891123173
 20
0.0480392421692644
 30
0.0
 10
-0.3915326338303028
 20
0.0433056276157141
 30
0.0
 10
-0.3905244093184149
 20
0.0363791431098234
 30
0.0
 10
-0.3889352111916837
 20
0.0297810472409929
 30
0.0
 10
-0.3867017067175055
 20
0.0235608299571737
 30
0.0
 10
-0.3839969320564416
 20
0.0176372494203673
 30
0.0
 10
-0.3806836665717319
 20
0.0120542467797511
 30
0.0
 10
-0.3767308412894105
 20
0.0068372517761869
 30
0.0
 10
-0.3723218627619557
 20
0.0019395990909633
 30
0.0
 10
-0.3674142130951265
 20
-0.0024218838495868
 30
0.0
 10
-0.3622511597221841
 20
-0.0063255821520349
 30
0.0
 10
-0.3567587622229563
 20
-0.0095974104898466
 30
0.0
 10
-0.350980327687674
 20
-0.0122531169008072
 30
0.0
 10
-0.3449252001773755
 20
-0.0143321394764573
 30
0.0
 10
-0.3385914719548229
 20
-0.0157512695252376
 30
0.0
 10
-0.3319916065009122
 20
-0.0167017771591564
 30
0.0
 10
-0.3274926254985709
 20
-0.0168074675306228
 30
0.0
 10
-0.3252022103590883
 20
-0.0168612741207768
 30
0.0
  0
SPLINE
  5
80
330
1F
100
AcDbEntity
  8
0
  6
Continuous
 62
     7
370
    25
100
AcDbSpline
210
0.0
220
0.0
230
1.0
 70
     8
 71
     3
 72
    15
 73
    11
 74
     0
 42
0.000000001
 43
0.00000001
 40
0.0
 40
0.0
 40
0.0
 40
0.0
 40
0.1185218400132615
 40
0.2362547631617473
 40
0.3561744339909321
 40
0.4772496548985584
 40
0.6015398708217025
 40
0.7296183821680429
 40
0.8621582661414388
 40
0.9999999999999999
 40
0.9999999999999999
 40
0.9999999999999999
 40
0.9999999999999999
 10
-0.2482791334360114
 20
0.1138478604946078
 30
0.0
 10
-0.2466986378422621
 20
0.1116904618241585
 30
0.0
 10
-0.2435481669067986
 20
0.1073900247749579
 30
0.0
 10
-0.2396019454757178
 20
0.1003777992677662
 30
0.0
 10
-0.2361764172625981
 20
0.0930413282427553
 30
0.0
 10
-0.233438348618686
 20
0.0852620213079696
 30
0.0
 10
-0.2312212413903612
 20
0.0771320512956174
 30
0.0
 10
-0.2296171829089193
 20
0.068593298101738
 30
0.0
 10
-0.2286764958673594
 20
0.0596483044331055
 30
0.0
 10
-0.2284915889138999
 20
0.0535535504704838
 30
0.0
 10
-0.2283973225385753
 20
0.0504464181869155
 30
0.0
  0
SPLINE
  5
81
330
1F
100
AcDbEntity
  8
0
  6
Continuous
 62
     7
370
    25
100
AcDbSpline
210
0.0
220
0.0
230
1.0
 70
     8
 71
     3
 72
    15
 73
    11
 74
     0
 42
0.000000001
 43
0.00000001
 40
0.0
 40
0.0
 40
0.0
 40
0.0
 40
0.132040234425982
 40
0.2590328407793698
 40
0.3818798239250171
 40
0.502258443714986
 40
0.6227521895274798
 40
0.7447426318590024
 40
0.8701089273418189
 40
1.0
 40
1.0
 40
1.0
 40
1.0
 10
-0.3218468417693447
 20
0.1498053925458898
 30
0.0
 10
-0.3181005842476528
 20
0.149708674767854
 30
0.0
 10
-0.3107512809663193
 20
0.1495189365345995
 30
0.0
 10
-0.3000347008922633
 20
0.1477599127196666
 30
0.0
 10
-0.2898946497107918
 20
0.1449704445365667
 30
0.0
 10
-0.2803351851173051
 20
0.1410308880722426
 30
0.0
 10
-0.2713553379206742
 20
0.135948062944359
 30
0.0
 10
-0.2630134772367675
 20
0.129652217124291
 30
0.0
 10
-0.2551669406261424
 20
0.1223366394653577
 30
0.0
 10
-0.2506020421366995
 20
0.116710695934837
 30
0.0
 10
-0.2482791334360114
 20
0.1138478604946078
 30
0.0
  0
SPLINE
  5
82
330
1F
100
AcDbEntity
  8
0
  6
Continuous
 62
     7
370
    25
100
AcDbSpline
210
0.0
220
0.0
230
1.0
 70
     8
 71
     3
 72
    15
 73
    11
 74
     0
 42
0.000000001
 43
0.00000001
 40
0.0
 40
0.0
 40
0.0
 40
0.0
 40
0.1288352544875545
 40
0.2535893349864765
 40
0.3746432573141696
 40
0.4953400422377918
 40
0.616324774635791
 40
0.7397593354405146
 40
0.8668423203805461
 40
1.0
 40
1.0
 40
1.0
 40
1.0
 10
-0.3932611045898575
 20
0.1157509053664026
 30
0.0
 10
-0.3909962701058694
 20
0.1184558246584063
 30
0.0
 10
-0.3865383453481359
 20
0.1237799782620115
 30
0.0
 10
-0.3789986056800032
 20
0.1307755729606992
 30
0.0
 10
-0.3708343059412615
 20
0.1366358426162034
 30
0.0
 10
-0.3621477612198216
 20
0.1414934951975047
 30
0.0
 10
-0.3528380130726365
 20
0.1451844699827035
 30
0.0
 10
-0.3430302065699517
 20
0.1479350115707228
 30
0.0
 10
-0.332612664696622
 20
0.1494762980730998
 30
0.0
 10
-0.3254908632081795
 20
0.1496940004746706
 30
0.0
 10
-0.3218468417693447
 20
0.1498053925458898
 30
0.0
  0
SPLINE
  5
83
330
1F
100
AcDbEntity
  8
0
  6
Continuous
 62
     7
370
    25
100
AcDbSpline
210
0.0
220
0.0
230
1.0
 70
     8
 71
     3
 72
    15
 73
    11
 74
     0
 42
0.000000001
 43
0.00000001
 40
0.0
 40
0.0
 40
0.0
 40
0.0
 40
0.1280448079611201
 40
0.2537679000244898
 40
0.3774284265813014
 40
0.5005508414825328
 40
0.6232958832424763
 40
0.746578331933508
 40
0.8723475406047168
 40
1.0
 40
1.0
 40
1.0
 40
1.0
 10
-0.4142947584360113
 20
0.0547533092125565
 30
0.0
 10
-0.4142191054838259
 20
0.0575600828138119
 30
0.0
 10
-0.4140691713231798
 20
0.0631227374343026
 30
0.0
 10
-0.4131241150807737
 20
0.0713559906150371
 30
0.0
 10
-0.4114492370044865
 20
0.0793580229385055
 30
0.0
 10
-0.4091509281509774
 20
0.0871354835077107
 30
0.0
 10
-0.4061829819950315
 20
0.0946753502208596
 30
0.0
 10
-0.402552109193873
 20
0.1019822119082281
 30
0.0
 10
-0.3982526536375312
 20
0.1090482933268324
 30
0.0
 10
-0.3949331769406409
 20
0.1135056600202478
 30
0.0
 10
-0.3932611045898575
 20
0.1157509053664026
 30
0.0
  0
SPLINE
  5
84
330
1F
100
AcDbEntity
  8
0
  6
Continuous
 62
     7
370
    25
100
AcDbSpline
210
0.0
220
0.0
230
1.0
 70
     8
 71
     3
 72
    23
 73
    19
 74
     0
 42
0.000000001
 43
0.00000001
 40
0.0
 40
0.0
 40
0.0
 40
0.0
 40
0.0715786576891417
 40
0.139629224692848
 40
0.2047966973966656
 40
0.2681349633966817
 40
0.3298137469867302
 40
0.3913013977745598
 40
0.4534335150970535
 40
0.5165516903197666
 40
0.5796312707049232
 40
0.6411189214927525
 40
0.701294046698774
 40
0.7608103356761334
 40
0.8199317217781439
 40
0.8789195754993824
 40
0.9389828222504466
 40
0.9999999999999999
 40
0.9999999999999999
 40
0.9999999999999999
 40
0.9999999999999999
 10
-0.3223977231796011
 20
-0.0392971715566743
 30
0.0
 10
-0.3259078644321327
 20
-0.0392152304617048
 30
0.0
 10
-0.3327551331219409
 20
-0.0390553871238937
 30
0.0
 10
-0.3427222579157164
 20
-0.0376773539500032
 30
0.0
 10
-0.3521065020869683
 20
-0.0354293283290263
 30
0.0
 10
-0.3609073380407969
 20
-0.032288932508221
 30
0.0
 10
-0.3691032132249075
 20
-0.0281869807874866
 30
0.0
 10
-0.3767104171400451
 20
-0.0231898749443634
 30
0.0
 10
-0.3837689547021143
 20
-0.0173232853237527
 30
0.0
 10
-0.3900563982153396
 20
-0.0105363965032554
 30
0.0
 10
-0.3957166755517996
 20
-0.0032733995535839
 30
0.0
 10
-0.4007113769786342
 20
0.0042948779097006
 30
0.0
 10
-0.4048869077678799
 20
0.0121493939435518
 30
0.0
 10
-0.4082835227818606
 20
0.0202401456609479
 30
0.0
 10
-0.4110267274225607
 20
0.0285161380568861
 30
0.0
 10
-0.4129386348346413
 20
0.0370526714546874
 30
0.0
 10
-0.4140407596905023
 20
0.0458266417575569
 30
0.0
 10
-0.4142096486574564
 20
0.0517621657373966
 30
0.0
 10
-0.4142947584360113
 20
0.0547533092125565
 30
0.0
  0
SPLINE
  5
85
330
1F
100
AcDbEntity
  8
0
  6
Continuous
 62
     7
370
    25
100
AcDbSpline
210
0.0
220
0.0
230
1.0
 70
     8
 71
     3
 72
    19
 73
    15
 74
     0
 42
0.000000001
 43
0.00000001
 40
0.0
 40
0.0
 40
0.0
 40
0.0
 40
0.0933698567361952
 40
0.1816607660710044
 40
0.2658742270426184
 40
0.346354784034308
 40
0.4245998617178937
 40
0.5019031838373766
 40
0.5799920909873473
 40
0.6584434305294308
 40
0.7386722364878339
 40
0.8218941484362435
 40
0.908800792046615
 40
1.0
 40
1.0
 40
1.0
 40
1.0
 10
-0.23801270715396
 20
0.0111335175458898
 30
0.0
 10
-0.2396010353853868
 20
0.0083161367405097
 30
0.0
 10
-0.242691293134292
 20
0.0028346293963875
 30
0.0
 10
-0.2480056322693469
 20
-0.0046962177801888
 30
0.0
 10
-0.2535764945963606
 20
-0.0114710546258147
 30
0.0
 10
-0.2596553494537587
 20
-0.0173088870746641
 30
0.0
 10
-0.2660603265219026
 20
-0.0223982717156783
 30
0.0
 10
-0.2728269447208797
 20
-0.0268509734813174
 30
0.0
 10
-0.279990431701976
 20
-0.0306451535060185
 30
0.0
 10
-0.2875511263289943
 20
-0.033841762639788
 30
0.0
 10
-0.2955725228391013
 20
-0.0362995836474967
 30
0.0
 10
-0.3040740597255329
 20
-0.0380355994275688
 30
0.0
 10
-0.3130720236811605
 20
-0.039108690045457
 30
0.0
 10
-0.319239607957429
 20
-0.039233342958104
 30
0.0
 10
-0.3223977231796011
 20
-0.0392971715566743
 30
0.0
  0
SPLINE
  5
87
330
1F
100
AcDbEntity
  8
0
  6
Continuous
 62
     7
370
    25
100
AcDbSpline
210
0.0
220
0.0
230
1.0
 70
     8
 71
     3
 72
    19
 73
    15
 74
     0
 42
0.000000001
 43
0.00000001
 40
0.0
 40
0.0
 40
0.0
 40
0.0
 40
0.0825922633314368
 40
0.1638788940984971
 40
0.245658739629503
 40
0.327725695354122
 40
0.4086099609103193
 40
0.4857490859539308
 40
0.5591690561972777
 40
0.6302684758575455
 40
0.7053060284320701
 40
0.7920649660966079
 40
0.8897964374100894
 40
1.0
 40
1.0
 40
1.0
 40
1.0
 10
-0.3252022103590883
 20
-0.0168612741207768
 30
0.0
 10
-0.322962842673087
 20
-0.0168178415022127
 30
0.0
 10
-0.3185195076068337
 20
-0.0167316628553152
 30
0.0
 10
-0.3119023035108987
 20
-0.0158936692188147
 30
0.0
 10
-0.3053923372680757
 20
-0.0145386495315945
 30
0.0
 10
-0.2990165527489884
 20
-0.0126893645256185
 30
0.0
 10
-0.2929043494692241
 20
-0.0104338750894234
 30
0.0
 10
-0.2872439530362792
 20
-0.0077122424002036
 30
0.0
 10
-0.2820382233486987
 20
-0.0047015462042799
 30
0.0
 10
-0.2771727257353917
 20
-0.0012579979865354
 30
0.0
 10
-0.2724533690673892
 20
0.0029568725136793
 30
0.0
 10
-0.2677717628949079
 20
0.0082165668700062
 30
0.0
 10
-0.2627520019403883
 20
0.014437104568835
 30
0.0
 10
-0.2596098881729768
 20
0.019118937852972
 30
0.0
 10
-0.257944598179601
 20
0.0216002643407616
 30
0.0
  0
SPLINE
  5
88
330
1F
100
AcDbEntity
  8
0
  6
Continuous
 62
     7
370
    25
100
AcDbSpline
210
0.0
220
0.0
230
1.0
 70
     8
 71
     3
 72
    23
 73
    19
 74
     0
 42
0.000000001
 43
0.00000001
 40
0.0
 40
0.0
 40
0.0
 40
0.0
 40
0.0683846151037681
 40
0.134475587543451
 40
0.1983910577839565
 40
0.2607534774484866
 40
0.3218292228076491
 40
0.3830372384795247
 40
0.4446531231064266
 40
0.5073980112040047
 40
0.5698252379730248
 40
0.630777640631313
 40
0.6909286865237168
 40
0.7509451326917356
 40
0.8110494767293284
 40
0.8723308525469938
 40
0.9350040935894056
 40
1.0
 40
1.0
 40
1.0
 40
1.0
 10
-0.096987066128319
 20
0.0504464181869155
 30
0.0
 10
-0.0968770942405224
 20
0.0480392421692644
 30
0.0
 10
-0.096660838958508
 20
0.0433056276157141
 30
0.0
 10
-0.0956526144466198
 20
0.0363791431098234
 30
0.0
 10
-0.0940634163198889
 20
0.0297810472409929
 30
0.0
 10
-0.0918299118457105
 20
0.0235608299571737
 30
0.0
 10
-0.0891251371846468
 20
0.0176372494203673
 30
0.0
 10
-0.0858118716999371
 20
0.0120542467797511
 30
0.0
 10
-0.0818590464176157
 20
0.006837251776187
 30
0.0
 10
-0.0774500678901608
 20
0.0019395990909632
 30
0.0
 10
-0.0725424182233315
 20
-0.0024218838495868
 30
0.0
 10
-0.0673793648503892
 20
-0.0063255821520349
 30
0.0
 10
-0.0618869673511615
 20
-0.0095974104898466
 30
0.0
 10
-0.056108532815879
 20
-0.0122531169008072
 30
0.0
 10
-0.0500534053055807
 20
-0.0143321394764573
 30
0.0
 10
-0.0437196770830278
 20
-0.0157512695252376
 30
0.0
 10
-0.0371198116291173
 20
-0.0167017771591564
 30
0.0
 10
-0.0326208306267761
 20
-0.0168074675306228
 30
0.0
 10
-0.0303304154872934
 20
-0.0168612741207768
 30
0.0
  0
SPLINE
  5
8A
330
1F
100
AcDbEntity
  8
0
  6
Continuous
 62
     7
370
    25
100
AcDbSpline
210
0.0
220
0.0
230
1.0
 70
     8
 71
     3
 72
    15
 73
    11
 74
     0
 42
0.000000001
 43
0.00000001
 40
0.0
 40
0.0
 40
0.0
 40
0.0
 40
0.118521840013261
 40
0.2362547631617469
 40
0.3561744339909317
 40
0.4772496548985581
 40
0.6015398708217028
 40
0.7296183821680429
 40
0.8621582661414389
 40
1.0
 40
1.0
 40
1.0
 40
1.0
 10
0.0465926614357835
 20
0.1138478604946078
 30
0.0
 10
0.0481731570295328
 20
0.1116904618241585
 30
0.0
 10
0.0513236279649962
 20
0.1073900247749578
 30
0.0
 10
0.055269849396077
 20
0.1003777992677662
 30
0.0
 10
0.0586953776091968
 20
0.0930413282427553
 30
0.0
 10
0.0614334462531087
 20
0.0852620213079695
 30
0.0
 10
0.0636505534814338
 20
0.0771320512956174
 30
0.0
 10
0.0652546119628754
 20
0.068593298101738
 30
0.0
 10
0.0661952990044353
 20
0.0596483044331055
 30
0.0
 10
0.066380205957895
 20
0.0535535504704838
 30
0.0
 10
0.0664744723332194
 20
0.0504464181869155
 30
0.0
  0
SPLINE
  5
8B
330
1F
100
AcDbEntity
  8
0
  6
Continuous
 62
     7
370
    25
100
AcDbSpline
210
0.0
220
0.0
230
1.0
 70
     8
 71
     3
 72
    15
 73
    11
 74
     0
 42
0.000000001
 43
0.00000001
 40
0.0
 40
0.0
 40
0.0
 40
0.0
 40
0.1320402344259813
 40
0.2590328407793692
 40
0.3818798239250165
 40
0.5022584437149862
 40
0.6227521895274793
 40
0.744742631859002
 40
0.8701089273418192
 40
1.0
 40
1.0
 40
1.0
 40
1.0
 10
-0.0269750468975497
 20
0.1498053925458898
 30
0.0
 10
-0.0232287893758579
 20
0.149708674767854
 30
0.0
 10
-0.0158794860945244
 20
0.1495189365345995
 30
0.0
 10
-0.0051629060204684
 20
0.1477599127196666
 30
0.0
 10
0.0049771451610032
 20
0.1449704445365666
 30
0.0
 10
0.0145366097544898
 20
0.1410308880722427
 30
0.0
 10
0.0235164569511207
 20
0.135948062944359
 30
0.0
 10
0.0318583176350272
 20
0.129652217124291
 30
0.0
 10
0.0397048542456525
 20
0.1223366394653577
 30
0.0
 10
0.0442697527350955
 20
0.116710695934837
 30
0.0
 10
0.0465926614357835
 20
0.1138478604946078
 30
0.0
  0
SPLINE
  5
8C
330
1F
100
AcDbEntity
  8
0
  6
Continuous
 62
     7
370
    25
100
AcDbSpline
210
0.0
220
0.0
230
1.0
 70
     8
 71
     3
 72
    15
 73
    11
 74
     0
 42
0.000000001
 43
0.00000001
 40
0.0
 40
0.0
 40
0.0
 40
0.0
 40
0.1288352544875544
 40
0.2535893349864763
 40
0.3746432573141694
 40
0.495340042237792
 40
0.6163247746357913
 40
0.7397593354405139
 40
0.8668423203805461
 40
1.0
 40
1.0
 40
1.0
 40
1.0
 10
-0.0983893097180626
 20
0.1157509053664026
 30
0.0
 10
-0.0961244752340746
 20
0.1184558246584063
 30
0.0
 10
-0.091666550476341
 20
0.1237799782620115
 30
0.0
 10
-0.0841268108082083
 20
0.1307755729606992
 30
0.0
 10
-0.0759625110694667
 20
0.1366358426162035
 30
0.0
 10
-0.0672759663480266
 20
0.1414934951975047
 30
0.0
 10
-0.0579662182008415
 20
0.1451844699827035
 30
0.0
 10
-0.0481584116981568
 20
0.1479350115707228
 30
0.0
 10
-0.0377408698248271
 20
0.1494762980730998
 30
0.0
 10
-0.0306190683363845
 20
0.1496940004746706
 30
0.0
 10
-0.0269750468975497
 20
0.1498053925458898
 30
0.0
  0
SPLINE
  5
8D
330
1F
100
AcDbEntity
  8
0
  6
Continuous
 62
     7
370
    25
100
AcDbSpline
210
0.0
220
0.0
230
1.0
 70
     8
 71
     3
 72
    15
 73
    11
 74
     0
 42
0.000000001
 43
0.00000001
 40
0.0
 40
0.0
 40
0.0
 40
0.0
 40
0.1280448079611201
 40
0.2537679000244898
 40
0.3774284265813012
 40
0.5005508414825328
 40
0.6232958832424763
 40
0.7465783319335075
 40
0.8723475406047168
 40
1.0
 40
1.0
 40
1.0
 40
1.0
 10
-0.1194229635642164
 20
0.0547533092125565
 30
0.0
 10
-0.119347310612031
 20
0.0575600828138119
 30
0.0
 10
-0.1191973764513849
 20
0.0631227374343026
 30
0.0
 10
-0.1182523202089788
 20
0.0713559906150371
 30
0.0
 10
-0.1165774421326919
 20
0.0793580229385055
 30
0.0
 10
-0.1142791332791823
 20
0.0871354835077107
 30
0.0
 10
-0.1113111871232367
 20
0.0946753502208596
 30
0.0
 10
-0.1076803143220782
 20
0.1019822119082281
 30
0.0
 10
-0.1033808587657364
 20
0.1090482933268324
 30
0.0
 10
-0.100061382068846
 20
0.1135056600202478
 30
0.0
 10
-0.0983893097180626
 20
0.1157509053664026
 30
0.0
  0
SPLINE
  5
8E
330
1F
100
AcDbEntity
  8
0
  6
Continuous
 62
     7
370
    25
100
AcDbSpline
210
0.0
220
0.0
230
1.0
 70
     8
 71
     3
 72
    23
 73
    19
 74
     0
 42
0.000000001
 43
0.00000001
 40
0.0
 40
0.0
 40
0.0
 40
0.0
 40
0.0715786576891417
 40
0.139629224692848
 40
0.2047966973966655
 40
0.2681349633966821
 40
0.3298137469867302
 40
0.3913013977745601
 40
0.4534335150970539
 40
0.5165516903197669
 40
0.5796312707049235
 40
0.6411189214927528
 40
0.7012940466987742
 40
0.7608103356761334
 40
0.8199317217781439
 40
0.8789195754993824
 40
0.9389828222504466
 40
0.9999999999999999
 40
0.9999999999999999
 40
0.9999999999999999
 40
0.9999999999999999
 10
-0.0275259283078061
 20
-0.0392971715566743
 30
0.0
 10
-0.0310360695603377
 20
-0.0392152304617048
 30
0.0
 10
-0.037883338250146
 20
-0.0390553871238937
 30
0.0
 10
-0.0478504630439215
 20
-0.0376773539500032
 30
0.0
 10
-0.0572347072151732
 20
-0.0354293283290262
 30
0.0
 10
-0.066035543169002
 20
-0.0322889325082211
 30
0.0
 10
-0.0742314183531126
 20
-0.0281869807874866
 30
0.0
 10
-0.0818386222682502
 20
-0.0231898749443634
 30
0.0
 10
-0.0888971598303195
 20
-0.0173232853237527
 30
0.0
 10
-0.0951846033435447
 20
-0.0105363965032554
 30
0.0
 10
-0.1008448806800047
 20
-0.0032733995535839
 30
0.0
 10
-0.1058395821068393
 20
0.0042948779097005
 30
0.0
 10
-0.1100151128960849
 20
0.0121493939435518
 30
0.0
 10
-0.1134117279100657
 20
0.0202401456609479
 30
0.0
 10
-0.1161549325507657
 20
0.0285161380568861
 30
0.0
 10
-0.1180668399628464
 20
0.0370526714546874
 30
0.0
 10
-0.1191689648187073
 20
0.0458266417575569
 30
0.0
 10
-0.1193378537856615
 20
0.0517621657373966
 30
0.0
 10
-0.1194229635642164
 20
0.0547533092125565
 30
0.0
  0
SPLINE
  5
8F
330
1F
100
AcDbEntity
  8
0
  6
Continuous
 62
     7
370
    25
100
AcDbSpline
210
0.0
220
0.0
230
1.0
 70
     8
 71
     3
 72
    19
 73
    15
 74
     0
 42
0.000000001
 43
0.00000001
 40
0.0
 40
0.0
 40
0.0
 40
0.0
 40
0.0933698567361952
 40
0.1816607660710048
 40
0.2658742270426188
 40
0.346354784034308
 40
0.4245998617178942
 40
0.5019031838373772
 40
0.5799920909873473
 40
0.658443430529432
 40
0.7386722364878345
 40
0.8218941484362442
 40
0.9088007920466157
 40
1.0
 40
1.0
 40
1.0
 40
1.0
 10
0.0568590877178349
 20
0.0111335175458898
 30
0.0
 10
0.0552707594864081
 20
0.0083161367405097
 30
0.0
 10
0.0521805017375029
 20
0.0028346293963874
 30
0.0
 10
0.0468661626024479
 20
-0.0046962177801888
 30
0.0
 10
0.0412953002754342
 20
-0.0114710546258147
 30
0.0
 10
0.0352164454180362
 20
-0.0173088870746641
 30
0.0
 10
0.0288114683498922
 20
-0.0223982717156783
 30
0.0
 10
0.0220448501509151
 20
-0.0268509734813174
 30
0.0
 10
0.014881363169819
 20
-0.0306451535060186
 30
0.0
 10
0.0073206685428005
 20
-0.0338417626397879
 30
0.0
 10
-0.0007007279673064
 20
-0.0362995836474966
 30
0.0
 10
-0.0092022648537381
 20
-0.0380355994275688
 30
0.0
 10
-0.0182002288093658
 20
-0.039108690045457
 30
0.0
 10
-0.0243678130856341
 20
-0.039233342958104
 30
0.0
 10
-0.0275259283078061
 20
-0.0392971715566743
 30
0.0
  0
SPLINE
  5
91
330
1F
100
AcDbEntity
  8
0
  6
Continuous
 62
     7
370
    25
100
AcDbSpline
210
0.0
220
0.0
230
1.0
 70
     8
 71
     3
 72
    19
 73
    15
 74
     0
 42
0.000000001
 43
0.00000001
 40
0.0
 40
0.0
 40
0.0
 40
0.0
 40
0.0825922633314359
 40
0.1638788940984978
 40
0.2456587396295029
 40
0.3277256953541218
 40
0.4086099609103198
 40
0.4857490859539305
 40
0.5591690561972782
 40
0.6302684758575452
 40
0.7053060284320705
 40
0.7920649660966081
 40
0.8897964374100891
 40
1.0
 40
1.0
 40
1.0
 40
1.0
 10
-0.0303304154872934
 20
-0.0168612741207769
 30
0.0
 10
-0.0280910478012921
 20
-0.0168178415022127
 30
0.0
 10
-0.0236477127350388
 20
-0.0167316628553152
 30
0.0
 10
-0.0170305086391039
 20
-0.0158936692188147
 30
0.0
 10
-0.0105205423962809
 20
-0.0145386495315945
 30
0.0
 10
-0.0041447578771936
 20
-0.0126893645256185
 30
0.0
 10
0.0019674454025707
 20
-0.0104338750894234
 30
0.0
 10
0.0076278418355158
 20
-0.0077122424002035
 30
0.0
 10
0.0128335715230962
 20
-0.00470154620428
 30
0.0
 10
0.0176990691364032
 20
-0.0012579979865354
 30
0.0
 10
0.0224184258044056
 20
0.0029568725136792
 30
0.0
 10
0.027100031976887
 20
0.0082165668700062
 30
0.0
 10
0.0321197929314065
 20
0.014437104568835
 30
0.0
 10
0.0352619066988181
 20
0.019118937852972
 30
0.0
 10
0.0369271966921939
 20
0.0216002643407616
 30
0.0
  0
SPLINE
  5
92
330
1F
100
AcDbEntity
  8
0
  6
Continuous
 62
     7
370
    25
100
AcDbSpline
210
0.0
220
0.0
230
1.0
 70
     8
 71
     3
 72
    23
 73
    19
 74
     0
 42
0.000000001
 43
0.00000001
 40
0.0
 40
0.0
 40
0.0
 40
0.0
 40
0.0614842551968905
 40
0.1217745277022105
 40
0.1809195598139321
 40
0.240256115078271
 40
0.3001144444023517
 40
0.3611459476126114
 40
0.4235005824125849
 40
0.4886693612807183
 40
0.5539541046535629
 40
0.6175812610152615
 40
0.6802384268167397
 40
0.7421873887724537
 40
0.8046632117692928
 40
0.8682589893126618
 40
0.9330202571803754
 40
1.0
 40
1.0
 40
1.0
 40
1.0
 10
0.5183975492562966
 20
0.0251559534433257
 30
0.0
 10
0.5183506108188709
 20
0.0229146416507835
 30
0.0
 10
0.5182576454567587
 20
0.0184755428262763
 30
0.0
 10
0.5171890087582859
 20
0.0119573230489827
 30
0.0
 10
0.5156233183895309
 20
0.0056265466429858
 30
0.0
 10
0.5132635159644916
 20
-0.0004385328173724
 30
0.0
 10
0.5103832903744991
 20
-0.006348873009047
 30
0.0
 10
0.5067285583840687
 20
-0.0119494373241129
 30
0.0
 10
0.5024922951885196
 20
-0.0173641800803234
 30
0.0
 10
0.4976327405524922
 20
-0.0224487151771196
 30
0.0
 10
0.492315176101313
 20
-0.0271163006046487
 30
0.0
 10
0.4866949121968291
 20
-0.0312683764241111
 30
0.0
 10
0.4807627498443898
 20
-0.0347303995237766
 30
0.0
 10
0.4745508700813017
 20
-0.0375554596702005
 30
0.0
 10
0.4680578460307973
 20
-0.0397649966363612
 30
0.0
 10
0.4612858614711893
 20
-0.041365915859995
 30
0.0
 10
0.4542237535269352
 20
-0.0423484666395308
 30
0.0
 10
0.4494237191289008
 20
-0.042450449601288
 30
0.0
 10
0.4469832864357836
 20
-0.0425022997618025
 30
0.0
  0
SPLINE
  5
93
330
1F
100
AcDbEntity
  8
0
  6
Continuous
 62
     7
370
    25
100
AcDbSpline
210
0.0
220
0.0
230
1.0
 70
     8
 71
     3
 72
    19
 73
    15
 74
     0
 42
0.000000001
 43
0.00000001
 40
0.0
 40
0.0
 40
0.0
 40
0.0
 40
0.0969723103815165
 40
0.1877734389628691
 40
0.2723961390136936
 40
0.3513209973752884
 40
0.4243347744514675
 40
0.4919087840005262
 40
0.5542332197968001
 40
0.6112676582441544
 40
0.7163478449915542
 40
0.814540085821616
 40
0.9084954561491856
 40
0.9999999999999999
 40
0.9999999999999999
 40
0.9999999999999999
 40
0.9999999999999999
 10
0.4595033184870657
 20
0.1058350399817873
 30
0.0
 10
0.462216598009024
 20
0.1038606571568074
 30
0.0
 10
0.4674704877503448
 20
0.1000375384601702
 30
0.0
 10
0.4749460291725958
 20
0.0942935613153526
 30
0.0
 10
0.4817241583222281
 20
0.0886758635600464
 30
0.0
 10
0.4878286728629542
 20
0.0832203201960398
 30
0.0
 10
0.4933198806086523
 20
0.0779683135529224
 30
0.0
 10
0.4981368606568511
 20
0.072856657815052
 30
0.0
 10
0.5023286949673644
 20
0.0679219740520362
 30
0.0
 10
0.5068414962859464
 20
0.0615953615026658
 30
0.0
 10
0.5114527691088384
 20
0.0538252840544989
 30
0.0
 10
0.5154128767821331
 20
0.0443054098726935
 30
0.0
 10
0.5179099016003159
 20
0.0347485298371959
 30
0.0
 10
0.5182364384168842
 20
0.0283251843746918
 30
0.0
 10
0.5183975492562964
 20
0.0251559534433257
 30
0.0
  0
SPLINE
  5
94
330
1F
100
AcDbEntity
  8
0
  6
Continuous
 62
     7
370
    25
100
AcDbSpline
210
0.0
220
0.0
230
1.0
 70
     8
 71
     3
 72
    15
 73
    11
 74
     0
 42
0.000000001
 43
0.00000001
 40
0.0
 40
0.0
 40
0.0
 40
0.0
 40
0.052594281529139
 40
0.1249519739750403
 40
0.2180938989285929
 40
0.3335024107325201
 40
0.4687891785044467
 40
0.6249375859645996
 40
0.8016830479282291
 40
1.0
 40
1.0
 40
1.0
 40
1.0
 10
0.4258995524614246
 20
0.130724863699736
 30
0.0
 10
0.4264467933476881
 20
0.1302365047128915
 30
0.0
 10
0.4277469124288964
 20
0.1290762755465161
 30
0.0
 10
0.430123764267444
 20
0.127176826929106
 30
0.0
 10
0.4332625355695828
 20
0.124833771765158
 30
0.0
 10
0.4370812642250716
 20
0.1219346777312446
 30
0.0
 10
0.4416503614912897
 20
0.1185717161514393
 30
0.0
 10
0.4469703297873332
 20
0.1147878867111682
 30
0.0
 10
0.4529818678469716
 20
0.1104603539249622
 30
0.0
 10
0.4572477189826563
 20
0.1074348153099669
 30
0.0
 10
0.4595033184870657
 20
0.1058350399817873
 30
0.0
  0
SPLINE
  5
95
330
1F
100
AcDbEntity
  8
0
  6
Continuous
 62
     7
370
    25
100
AcDbSpline
210
0.0
220
0.0
230
1.0
 70
     8
 71
     3
 72
    15
 73
    11
 74
     0
 42
0.000000001
 43
0.00000001
 40
0.0
 40
0.0
 40
0.0
 40
0.0
 40
0.1072852142689567
 40
0.2147458609696414
 40
0.3229385595552873
 40
0.4341161625174667
 40
0.5534123109627969
 40
0.686072984810733
 40
0.8342559920595866
 40
1.0
 40
1.0
 40
1.0
 40
1.0
 10
0.4094231902819374
 20
0.1630265463920437
 30
0.0
 10
0.4094512707558594
 20
0.161687155067725
 30
0.0
 10
0.4095074776208028
 20
0.1590061822507718
 30
0.0
 10
0.4102913917412591
 20
0.155045366396918
 30
0.0
 10
0.4112984866668189
 20
0.1510945564384446
 30
0.0
 10
0.4128943889349203
 20
0.1471715148074325
 30
0.0
 10
0.4150976249074761
 20
0.1432076320179853
 30
0.0
 10
0.4179908517579306
 20
0.1391346507638031
 30
0.0
 10
0.4216346597615005
 20
0.1349166715729372
 30
0.0
 10
0.4244258749294588
 20
0.1321732877318725
 30
0.0
 10
0.4258995524614246
 20
0.130724863699736
 30
0.0
  0
SPLINE
  5
96
330
1F
100
AcDbEntity
  8
0
  6
Continuous
 62
     7
370
    25
100
AcDbSpline
210
0.0
220
0.0
230
1.0
 70
     8
 71
     3
 72
    15
 73
    11
 74
     0
 42
0.000000001
 43
0.00000001
 40
0.0
 40
0.0
 40
0.0
 40
0.0
 40
0.1430730837303666
 40
0.2759029640930122
 40
0.4023708562739956
 40
0.5284136450935972
 40
0.6503563791869513
 40
0.7658950861246938
 40
0.8807741308440217
 40
0.9999999999999999
 40
0.9999999999999999
 40
0.9999999999999999
 40
0.9999999999999999
 10
0.4460818441280914
 20
0.1946771874176847
 30
0.0
 10
0.4434992353848433
 20
0.1945906374211213
 30
0.0
 10
0.4385189177123905
 20
0.1944237339059982
 30
0.0
 10
0.4314481865618497
 20
0.192600877813738
 30
0.0
 10
0.4250843347716182
 20
0.1897307449347483
 30
0.0
 10
0.4196162944104607
 20
0.1857082464993437
 30
0.0
 10
0.4150636531931006
 20
0.1809424613075494
 30
0.0
 10
0.4117704061384651
 20
0.1754582573736268
 30
0.0
 10
0.4097882515276046
 20
0.1694023714733027
 30
0.0
 10
0.409546374409673
 20
0.1651779674496092
 30
0.0
 10
0.4094231902819374
 20
0.1630265463920437
 30
0.0
  0
SPLINE
  5
97
330
1F
100
AcDbEntity
  8
0
  6
Continuous
 62
     7
370
    25
100
AcDbSpline
210
0.0
220
0.0
230
1.0
 70
     8
 71
     3
 72
    19
 73
    15
 74
     0
 42
0.000000001
 43
0.00000001
 40
0.0
 40
0.0
 40
0.0
 40
0.0
 40
0.0984694310255562
 40
0.1896291011376326
 40
0.2741840894379691
 40
0.3521831609671527
 40
0.4231988731834705
 40
0.4885509460005341
 40
0.5484733460279365
 40
0.6014401636178716
 40
0.7011980824257658
 40
0.7995918021381877
 40
0.898545098482228
 40
0.9999999999999999
 40
0.9999999999999999
 40
0.9999999999999999
 40
0.9999999999999999
 10
0.4949099691280912
 20
0.1626259053664026
 30
0.0
 10
0.493685259665783
 20
0.1642036689680185
 30
0.0
 10
0.4913267555892031
 20
0.1672420727697469
 30
0.0
 10
0.4877460779563096
 20
0.1714971667416227
 30
0.0
 10
0.4843711745334319
 20
0.175384058136761
 30
0.0
 10
0.4810461459774169
 20
0.1787601387103356
 30
0.0
 10
0.4779466008727085
 20
0.1818102910916129
 30
0.0
 10
0.4749382407122112
 20
0.1844217022933599
 30
0.0
 10
0.4720643584809683
 20
0.1866199591097948
 30
0.0
 10
0.4684417220062512
 20
0.1889659276783064
 30
0.0
 10
0.4638904564117372
 20
0.1912913922179319
 30
0.0
 10
0.458177275251786
 20
0.1932591835091977
 30
0.0
 10
0.4522068270350021
 20
0.1944416879319681
 30
0.0
 10
0.4481404247856671
 20
0.1945980370439558
 30
0.0
 10
0.4460818441280914
 20
0.1946771874176847
 30
0.0
  0
SPLINE
  5
99
330
1F
100
AcDbEntity
  8
0
  6
Continuous
 62
     7
370
    25
100
AcDbSpline
210
0.0
220
0.0
230
1.0
 70
     8
 71
     3
 72
    19
 73
    15
 74
     0
 42
0.000000001
 43
0.00000001
 40
0.0
 40
0.0
 40
0.0
 40
0.0
 40
0.1072327993600878
 40
0.2132518127818485
 40
0.3188304473075863
 40
0.4267935306342752
 40
0.4836459507827185
 40
0.5436038220211427
 40
0.6083076495640826
 40
0.6771267602600402
 40
0.7506856360204957
 40
0.8287134184432885
 40
0.9121903482234524
 40
1.0
 40
1.0
 40
1.0
 40
1.0
 10
0.4485858505383478
 20
0.2203182130587103
 30
0.0
 10
0.4515318577024913
 20
0.2202166022301974
 30
0.0
 10
0.4573905256844052
 20
0.2200145307230843
 30
0.0
 10
0.4660083267965155
 20
0.2182575642002458
 30
0.0
 10
0.4743055208251306
 20
0.2153503733582471
 30
0.0
 10
0.4809800397408086
 20
0.2120511835027066
 30
0.0
 10
0.4862038084166532
 20
0.20875608238033
 30
0.0
 10
0.490187575037291
 20
0.2057546663604127
 30
0.0
 10
0.49422453580776
 20
0.2022993014601128
 30
0.0
 10
0.4983472540098137
 20
0.1983807838829115
 30
0.0
 10
0.5024858725411825
 20
0.1939631588050823
 30
0.0
 10
0.5067018334157652
 20
0.1890766810258522
 30
0.0
 10
0.5110049954736715
 20
0.1837512127498245
 30
0.0
 10
0.5137732711968078
 20
0.1799494626959308
 30
0.0
 10
0.5151924210511681
 20
0.178000504725377
 30
0.0
  0
SPLINE
  5
9A
330
1F
100
AcDbEntity
  8
0
  6
Continuous
 62
     7
370
    25
100
AcDbSpline
210
0.0
220
0.0
230
1.0
 70
     8
 71
     3
 72
    19
 73
    15
 74
     0
 42
0.000000001
 43
0.00000001
 40
0.0
 40
0.0
 40
0.0
 40
0.0
 40
0.08378537065371
 40
0.1657798879221409
 40
0.2462800078932623
 40
0.3274609277363896
 40
0.4087969540320671
 40
0.4897152412309885
 40
0.5713760321300531
 40
0.6555233211112765
 40
0.7410194827999715
 40
0.8265467605037612
 40
0.9119888516548317
 40
1.0
 40
1.0
 40
1.0
 40
1.0
 10
0.38698729284604
 20
0.161974863699736
 30
0.0
 10
0.3870805220598521
 20
0.1646198475972148
 30
0.0
 10
0.3872649877785837
 20
0.1698532807211451
 30
0.0
 10
0.3888250247264703
 20
0.1774983400384382
 30
0.0
 10
0.3912873742732197
 20
0.1847973698396927
 30
0.0
 10
0.3947370091204749
 20
0.1916781079628867
 30
0.0
 10
0.3991839629003491
 20
0.1979613923120449
 30
0.0
 10
0.4043301039264364
 20
0.2037194985250469
 30
0.0
 10
0.4104594958005404
 20
0.2085601115408244
 30
0.0
 10
0.4171846831764984
 20
0.2127895442829116
 30
0.0
 10
0.4245458526109756
 20
0.2160999675119874
 30
0.0
 10
0.4322594885679491
 20
0.2185971803805941
 30
0.0
 10
0.4403378508554631
 20
0.2200121273585196
 30
0.0
 10
0.4458095033285641
 20
0.2202151819951371
 30
0.0
 10
0.4485858505383477
 20
0.2203182130587103
 30
0.0
  0
SPLINE
  5
9B
330
1F
100
AcDbEntity
  8
0
  6
Continuous
 62
     7
370
    25
100
AcDbSpline
210
0.0
220
0.0
230
1.0
 70
     8
 71
     3
 72
    15
 73
    11
 74
     0
 42
0.000000001
 43
0.00000001
 40
0.0
 40
0.0
 40
0.0
 40
0.0
 40
0.1335067689985203
 40
0.2625589787303719
 40
0.3882644471488778
 40
0.5126673546814279
 40
0.63372226996576
 40
0.7553938601370943
 40
0.8775529450912767
 40
1.0
 40
1.0
 40
1.0
 40
1.0
 10
0.4009596486152708
 20
0.1239139662638385
 30
0.0
 10
0.3998544668130458
 20
0.1253854688962814
 30
0.0
 10
0.397680978476235
 20
0.1282793763084033
 30
0.0
 10
0.3948119780858713
 20
0.1328025804346681
 30
0.0
 10
0.3923734664574153
 20
0.1374328136781846
 30
0.0
 10
0.3904618713048267
 20
0.1421825182899406
 30
0.0
 10
0.3888521413877146
 20
0.1469850132099817
 30
0.0
 10
0.3877694320507308
 20
0.1519029593313829
 30
0.0
 10
0.387091475128175
 20
0.1569142892217034
 30
0.0
 10
0.3870220475186674
 20
0.1602866821233112
 30
0.0
 10
0.3869872928460401
 20
0.161974863699736
 30
0.0
  0
SPLINE
  5
9C
330
1F
100
AcDbEntity
  8
0
  6
Continuous
 62
     7
370
    25
100
AcDbSpline
210
0.0
220
0.0
230
1.0
 70
     8
 71
     3
 72
    15
 73
    11
 74
     0
 42
0.000000001
 43
0.00000001
 40
0.0
 40
0.0
 40
0.0
 40
0.0
 40
0.1815353013762838
 40
0.3470816724816304
 40
0.495567816431554
 40
0.6283573018772132
 40
0.7455196699921555
 40
0.8458307507576511
 40
0.9307818073847576
 40
1.0
 40
1.0
 40
1.0
 40
1.0
 10
0.4419251934870657
 20
0.0899095592125565
 30
0.0
 10
0.4392949080457047
 20
0.0917830297567941
 30
0.0
 10
0.4342660025756916
 20
0.0953649627742807
 30
0.0
 10
0.4272332466938077
 20
0.1006809830609676
 30
0.0
 10
0.4209443564788146
 20
0.1055412594568179
 30
0.0
 10
0.4154272838700065
 20
0.1099915460355704
 30
0.0
 10
0.4106844555238595
 20
0.1140324463734187
 30
0.0
 10
0.4066784975942775
 20
0.1176251563121451
 30
0.0
 10
0.4035114578017373
 20
0.1208668392313136
 30
0.0
 10
0.4017503448975569
 20
0.1229697922131106
 30
0.0
 10
0.4009596486152708
 20
0.1239139662638385
 30
0.0
  0
SPLINE
  5
9D
330
1F
100
AcDbEntity
  8
0
  6
Continuous
 62
     7
370
    25
100
AcDbSpline
210
0.0
220
0.0
230
1.0
 70
     8
 71
     3
 72
    15
 73
    11
 74
     0
 42
0.000000001
 43
0.00000001
 40
0.0
 40
0.0
 40
0.0
 40
0.0
 40
0.090279214650014
 40
0.1895299184469583
 40
0.2991978724002872
 40
0.4189258867738204
 40
0.5483762854012477
 40
0.6881363695386824
 40
0.8390835016589209
 40
1.0
 40
1.0
 40
1.0
 40
1.0
 10
0.486997308871681
 20
0.0500457771612744
 30
0.0
 10
0.4858779792873527
 20
0.0514776931329416
 30
0.0
 10
0.4835280868380726
 20
0.0544838216021035
 30
0.0
 10
0.47948826451
 20
0.0589584812789207
 30
0.0
 10
0.4747478277739007
 20
0.0635740826326389
 30
0.0
 10
0.469469002423067
 20
0.0685068724147342
 30
0.0
 10
0.4634594960773094
 20
0.0735274293210229
 30
0.0
 10
0.4569075307627982
 20
0.0788751634595192
 30
0.0
 10
0.4496458265509321
 20
0.084346704677139
 30
0.0
 10
0.4445530053639329
 20
0.0880161736447499
 30
0.0
 10
0.4419251934870657
 20
0.0899095592125565
 30
0.0
  0
SPLINE
  5
9E
330
1F
100
AcDbEntity
  8
0
  6
Continuous
 62
     7
370
    25
100
AcDbSpline
210
0.0
220
0.0
230
1.0
 70
     8
 71
     3
 72
    11
 73
     7
 74
     0
 42
0.000000001
 43
0.00000001
 40
0.0
 40
0.0
 40
0.0
 40
0.0
 40
0.2347233736739016
 40
0.4771583189289863
 40
0.7285562842030514
 40
1.0
 40
1.0
 40
1.0
 40
1.0
 10
0.4959616518203991
 20
0.0255065143407616
 30
0.0
 10
0.4958563439133064
 20
0.0275880036055805
 30
0.0
 10
0.4956422683266626
 20
0.03181936711627
 30
0.0
 10
0.4938328768929148
 20
0.038062199470124
 30
0.0
 10
0.4909865021183834
 20
0.0442402401861427
 30
0.0
 10
0.4883605989965993
 20
0.0480617591559827
 30
0.0
 10
0.486997308871681
 20
0.0500457771612744
 30
0.0
  0
SPLINE
  5
9F
330
1F
100
AcDbEntity
  8
0
  6
Continuous
 62
     7
370
    25
100
AcDbSpline
210
0.0
220
0.0
230
1.0
 70
     8
 71
     3
 72
    19
 73
    15
 74
     0
 42
0.000000001
 43
0.00000001
 40
0.0
 40
0.0
 40
0.0
 40
0.0
 40
0.091263604896628
 40
0.1809303110850805
 40
0.2700882198317247
 40
0.3601561333877276
 40
0.4483425324981536
 40
0.5326658421383316
 40
0.613833704107049
 40
0.6939815272835583
 40
0.7727159770890035
 40
0.8493351720622465
 40
0.923967326575232
 40
1.0
 40
1.0
 40
1.0
 40
1.0
 10
0.4469832864357836
 20
-0.0168612741207768
 30
0.0
 10
0.4491752050437475
 20
-0.01680022608419
 30
0.0
 10
0.4535206888328361
 20
-0.0166791982082552
 30
0.0
 10
0.4599179919014862
 20
-0.0155162837761553
 30
0.0
 10
0.4661309777776335
 20
-0.0137297031394794
 30
0.0
 10
0.4720315947583862
 20
-0.0111710651745876
 30
0.0
 10
0.4775384243677812
 20
-0.0080754590513744
 30
0.0
 10
0.4823674740346841
 20
-0.0043364463722811
 30
0.0
 10
0.4865421964046465
 20
-0.000150288821303
 30
0.0
 10
0.4899571331594424
 20
0.0045199007959768
 30
0.0
 10
0.4925771356800394
 20
0.0095425542679269
 30
0.0
 10
0.4945908548524123
 20
0.014697979363519
 30
0.0
 10
0.4957083601135822
 20
0.0200671628120183
 30
0.0
 10
0.4958766996462028
 20
0.0236821958725748
 30
0.0
 10
0.4959616518203991
 20
0.0255065143407616
 30
0.0
  0
SPLINE
  5
A0
330
1F
100
AcDbEntity
  8
0
  6
Continuous
 62
     7
370
    25
100
AcDbSpline
210
0.0
220
0.0
230
1.0
 70
     8
 71
     3
 72
    15
 73
    11
 74
     0
 42
0.000000001
 43
0.00000001
 40
0.0
 40
0.0
 40
0.0
 40
0.0
 40
0.1590042985173761
 40
0.3046460998968143
 40
0.4385469045795923
 40
0.5623222987759271
 40
0.6774325425257306
 40
0.7868973929387558
 40
0.8936108891042653
 40
1.0
 40
1.0
 40
1.0
 40
1.0
 10
0.3920954659229631
 20
0.0248053925458898
 30
0.0
 10
0.3940610542980011
 20
0.0215150793353821
 30
0.0
 10
0.397827045771448
 20
0.0152109661990281
 30
0.0
 10
0.4041092857109119
 20
0.0066925347398299
 30
0.0
 10
0.4106187793656204
 20
-0.0005476193143841
 30
0.0
 10
0.417403731762009
 20
-0.0064673769958005
 30
0.0
 10
0.4244227280564644
 20
-0.0111280117634876
 30
0.0
 10
0.4317215890376573
 20
-0.0144281711719552
 30
0.0
 10
0.4392757183741885
 20
-0.0164864551270511
 30
0.0
 10
0.4444167056227189
 20
-0.0167364613095268
 30
0.0
 10
0.4469832864357836
 20
-0.0168612741207768
 30
0.0
  0
SPLINE
  5
A2
330
1F
100
AcDbEntity
  8
0
  6
Continuous
 62
     7
370
    25
100
AcDbSpline
210
0.0
220
0.0
230
1.0
 70
     8
 71
     3
 72
    23
 73
    19
 74
     0
 42
0.000000001
 43
0.00000001
 40
0.0
 40
0.0
 40
0.0
 40
0.0
 40
0.0572082694335085
 40
0.1136960596574901
 40
0.169177916417195
 40
0.2241592165805434
 40
0.2787198783810422
 40
0.3337942174469891
 40
0.3892414593400023
 40
0.445822073393621
 40
0.50370428110902
 40
0.5642938918193642
 40
0.6279754158952228
 40
0.6950382596840512
 40
0.7653727258510122
 40
0.8396114430907353
 40
0.9175377500777886
 40
1.0
 40
1.0
 40
1.0
 40
1.0
 10
0.4469832864357836
 20
-0.0425022997618025
 30
0.0
 10
0.4450950476514283
 20
-0.0424657867905588
 30
0.0
 10
0.4413423505046779
 20
-0.0423932206913235
 30
0.0
 10
0.4357916732280226
 20
-0.0417517006611681
 30
0.0
 10
0.4303531311424467
 20
-0.0408440504046554
 30
0.0
 10
0.4250949681400086
 20
-0.0394030454063027
 30
0.0
 10
0.4199494387370269
 20
-0.0376546899032957
 30
0.0
 10
0.414938921985173
 20
-0.0355019518605679
 30
0.0
 10
0.4100609895668961
 20
-0.032922151757184
 30
0.0
 10
0.4052883050762995
 20
-0.0299725071408521
 30
0.0
 10
0.4006330068915761
 20
-0.0265398111005951
 30
0.0
 10
0.396138759182372
 20
-0.0225417042121533
 30
0.0
 10
0.39165810307428
 20
-0.0180884538556317
 30
0.0
 10
0.3873232890513093
 20
-0.0130591279012249
 30
0.0
 10
0.3830466358866096
 20
-0.0075349791256696
 30
0.0
 10
0.3789124637768596
 20
-0.0014643231687105
 30
0.0
 10
0.3748351982283573
 20
0.0051197735283593
 30
0.0
 10
0.3722769505264066
 20
0.0097529939369177
 30
0.0
 10
0.3709616518203989
 20
0.0121351201099924
 30
0.0
  0
SPLINE
  5
A4
330
1F
100
AcDbEntity
  8
0
  6
Continuous
 62
     7
370
    25
100
AcDbSpline
210
0.0
220
0.0
230
1.0
 70
     8
 71
     3
 72
    15
 73
    11
 74
     0
 42
0.000000001
 43
0.00000001
 40
0.0
 40
0.0
 40
0.0
 40
0.0
 40
0.1288840014739244
 40
0.2529849718578361
 40
0.3742104371825979
 40
0.494101512899691
 40
0.6147527632399877
 40
0.7385110703733297
 40
0.8662425140769304
 40
1.0
 40
1.0
 40
1.0
 40
1.0
 10
0.768197228743476
 20
0.1498053925458898
 30
0.0
 10
0.7719270007239992
 20
0.1496934571147945
 30
0.0
 10
0.7792481286276804
 20
0.1494737403030747
 30
0.0
 10
0.7899551658797966
 20
0.147637571231345
 30
0.0
 10
0.8000828523467521
 20
0.1445545085306148
 30
0.0
 10
0.8096894943088468
 20
0.1403337027229619
 30
0.0
 10
0.8187178200385972
 20
0.1348479347739276
 30
0.0
 10
0.827234008652085
 20
0.1282228313564623
 30
0.0
 10
0.8350899602886745
 20
0.1202708923503815
 30
0.0
 10
0.8397379476129784
 20
0.1142986371032916
 30
0.0
 10
0.8421154979742451
 20
0.1112436938279411
 30
0.0
  0
SPLINE
  5
A5
330
1F
100
AcDbEntity
  8
0
  6
Continuous
 62
     7
370
    25
100
AcDbSpline
210
0.0
220
0.0
230
1.0
 70
     8
 71
     3
 72
    23
 73
    19
 74
     0
 42
0.000000001
 43
0.00000001
 40
0.0
 40
0.0
 40
0.0
 40
0.0
 40
0.063774532305632
 40
0.1260788099895059
 40
0.1869040927472074
 40
0.2475739349176201
 40
0.3080033561644473
 40
0.3691318984609775
 40
0.4320332277442043
 40
0.4967907944370906
 40
0.5616108232295658
 40
0.624913865748463
 40
0.6867263492419253
 40
0.7480788332577709
 40
0.8095822911398949
 40
0.8716307425688282
 40
0.9348858208285532
 40
1.0
 40
1.0
 40
1.0
 40
1.0
 10
0.6722437031024502
 20
0.055754911776659
 30
0.0
 10
0.6723332010585134
 20
0.0589308906030468
 30
0.0
 10
0.6725101336895962
 20
0.0652096294115707
 30
0.0
 10
0.6738282208210444
 20
0.0744438221248462
 30
0.0
 10
0.676044721439557
 20
0.0833379836057921
 30
0.0
 10
0.6791552819871204
 20
0.0918634795503462
 30
0.0
 10
0.683143993055915
 20
0.1000306259895312
 30
0.0
 10
0.6879959992716899
 20
0.107845199204884
 30
0.0
 10
0.6937116510358925
 20
0.1153287275950293
 30
0.0
 10
0.70030110867992
 20
0.1223052437963706
 30
0.0
 10
0.7074393065486799
 20
0.1287495733870405
 30
0.0
 10
0.7150756444712066
 20
0.1343502194900737
 30
0.0
 10
0.7230201645655514
 20
0.1391871372626467
 30
0.0
 10
0.731396093888579
 20
0.1430195284273861
 30
0.0
 10
0.7400794585181496
 20
0.1461201787519903
 30
0.0
 10
0.7491475617858094
 20
0.1482653907591699
 30
0.0
 10
0.7585626745483502
 20
0.1495294851334562
 30
0.0
 10
0.7649548525529657
 20
0.1497125397156766
 30
0.0
 10
0.768197228743476
 20
0.1498053925458898
 30
0.0
  0
SPLINE
  5
A6
330
1F
100
AcDbEntity
  8
0
  6
Continuous
 62
     7
370
    25
100
AcDbSpline
210
0.0
220
0.0
230
1.0
 70
     8
 71
     3
 72
    23
 73
    19
 74
     0
 42
0.000000001
 43
0.00000001
 40
0.0
 40
0.0
 40
0.0
 40
0.0
 40
0.064619991340768
 40
0.1274334841444694
 40
0.1890041265579392
 40
0.2499300706860469
 40
0.3106684537406716
 40
0.372328961136824
 40
0.4349391099970074
 40
0.4995755441940334
 40
0.5641912077719239
 40
0.6267352169294783
 40
0.6881093335614014
 40
0.7492936065367511
 40
0.8103305278109454
 40
0.8719011702244157
 40
0.9350459146845315
 40
1.0
 40
1.0
 40
1.0
 40
1.0
 10
0.767496106948604
 20
-0.0392971715566743
 30
0.0
 10
0.7642698245319943
 20
-0.0392095735374491
 30
0.0
 10
0.7579074527542805
 20
-0.0390368263649039
 30
0.0
 10
0.7485482329586437
 20
-0.0376966618207413
 30
0.0
 10
0.7395416437120249
 20
-0.0355444745605928
 30
0.0
 10
0.7308791742361831
 20
-0.0325515538826097
 30
0.0
 10
0.7226168781337469
 20
-0.0285814951941677
 30
0.0
 10
0.7146840140857252
 20
-0.0238285489054951
 30
0.0
 10
0.7071216789415022
 20
-0.0181684896140202
 30
0.0
 10
0.7000451404440846
 20
-0.0116979161602424
 30
0.0
 10
0.6935285689886627
 20
-0.0046697027899845
 30
0.0
 10
0.6878099066585065
 20
0.0028264077010962
 30
0.0
 10
0.6830418295260251
 20
0.0107580008362868
 30
0.0
 10
0.6790546809040766
 20
0.0190246546854805
 30
0.0
 10
0.6759835134440243
 20
0.0276900060807686
 30
0.0
 10
0.6738425395684586
 20
0.0367240895050386
 30
0.0
 10
0.672503936232697
 20
0.0461162233293133
 30
0.0
 10
0.6723312604694861
 20
0.0525119035504283
 30
0.0
 10
0.6722437031024502
 20
0.055754911776659
 30
0.0
  0
SPLINE
  5
A7
330
1F
100
AcDbEntity
  8
0
  6
Continuous
 62
     7
370
    25
100
AcDbSpline
210
0.0
220
0.0
230
1.0
 70
     8
 71
     3
 72
    15
 73
    11
 74
     0
 42
0.000000001
 43
0.00000001
 40
0.0
 40
0.0
 40
0.0
 40
0.0
 40
0.1342983790141681
 40
0.2620849753822997
 40
0.3862699121344989
 40
0.5071645966228003
 40
0.6273002357255045
 40
0.7481449416029917
 40
0.8723701771613501
 40
1.0
 40
1.0
 40
1.0
 40
1.0
 10
0.8421154979742451
 20
-0.0044914824541102
 30
0.0
 10
0.8395855843580907
 20
-0.0073514534510983
 30
0.0
 10
0.8346484261237448
 20
-0.0129327228144511
 30
0.0
 10
0.826402631982925
 20
-0.0202243065637905
 30
0.0
 10
0.8176620478470341
 20
-0.0262513295309372
 30
0.0
 10
0.8084690963376975
 20
-0.0311191806523937
 30
0.0
 10
0.7988320789559396
 20
-0.0347757561050622
 30
0.0
 10
0.7887723584362069
 20
-0.0373747674711907
 30
0.0
 10
0.778285831231526
 20
-0.03904575569778
 30
0.0
 10
0.7711249487465253
 20
-0.0392126144027107
 30
0.0
 10
0.767496106948604
 20
-0.0392971715566743
 30
0.0
  0
CIRCLE
  5
AC
330
1F
100
AcDbEntity
  8
0
  6
Continuous
 62
     7
370
    25
100
AcDbCircle
 10
-0.99
 20
1.995
 30
0.0
 40
0.0719999999999998
  0
CIRCLE
  5
AD
330
1F
100
AcDbEntity
  8
0
  6
Continuous
 62
     7
370
    25
100
AcDbCircle
 10
0.99
 20
1.995
 30
0.0
 40
0.0719999999999998
  0
CIRCLE
  5
AE
330
1F
100
AcDbEntity
  8
0
  6
Continuous
 62
     7
370
    25
100
AcDbCircle
 10
0.99
 20
-1.995
 30
0.0
 40
0.0720000000000001
  0
CIRCLE
  5
AF
330
1F
100
AcDbEntity
  8
0
  6
Continuous
 62
     7
370
    25
100
AcDbCircle
 10
-0.99
 20
-1.995
 30
0.0
 40
0.0719999999999998
  0
SPLINE
  5
CB
330
1F
100
AcDbEntity
  8
0
  6
Continuous
 62
     7
370
    25
100
AcDbSpline
210
0.0
220
0.0
230
1.0
 70
     8
 71
     3
 72
    23
 73
    19
 74
     0
 42
0.000000001
 43
0.00000001
 40
0.0
 40
0.0
 40
0.0
 40
0.0
 40
0.068384615103768
 40
0.134475587543451
 40
0.1983910577839565
 40
0.2607534774484867
 40
0.3218292228076489
 40
0.3830372384795248
 40
0.4446531231064263
 40
0.5073980112040049
 40
0.5698252379730248
 40
0.630777640631313
 40
0.6909286865237169
 40
0.7509451326917355
 40
0.8110494767293271
 40
0.8723308525469932
 40
0.9350040935894057
 40
1.0
 40
1.0
 40
1.0
 40
1.0
 10
-0.6162178353590883
 20
0.0504464181869155
 30
0.0
 10
-0.6161078634712918
 20
0.0480392421692644
 30
0.0
 10
-0.6158916081892774
 20
0.0433056276157141
 30
0.0
 10
-0.6148833836773888
 20
0.0363791431098234
 30
0.0
 10
-0.6132941855506583
 20
0.0297810472409929
 30
0.0
 10
-0.6110606810764795
 20
0.0235608299571737
 30
0.0
 10
-0.6083559064154163
 20
0.0176372494203673
 30
0.0
 10
-0.6050426409307063
 20
0.0120542467797511
 30
0.0
 10
-0.6010898156483848
 20
0.0068372517761869
 30
0.0
 10
-0.59668083712093
 20
0.0019395990909633
 30
0.0
 10
-0.5917731874541009
 20
-0.0024218838495868
 30
0.0
 10
-0.5866101340811584
 20
-0.0063255821520349
 30
0.0
 10
-0.5811177365819309
 20
-0.0095974104898466
 30
0.0
 10
-0.5753393020466483
 20
-0.0122531169008072
 30
0.0
 10
-0.5692841745363499
 20
-0.0143321394764573
 30
0.0
 10
-0.5629504463137971
 20
-0.0157512695252376
 30
0.0
 10
-0.5563505808598865
 20
-0.0167017771591564
 30
0.0
 10
-0.5518515998575453
 20
-0.0168074675306228
 30
0.0
 10
-0.5495611847180626
 20
-0.0168612741207768
 30
0.0
  0
SPLINE
  5
CD
330
1F
100
AcDbEntity
  8
0
  6
Continuous
 62
     7
370
    25
100
AcDbSpline
210
0.0
220
0.0
230
1.0
 70
     8
 71
     3
 72
    15
 73
    11
 74
     0
 42
0.000000001
 43
0.00000001
 40
0.0
 40
0.0
 40
0.0
 40
0.0
 40
0.118521840013261
 40
0.2362547631617469
 40
0.3561744339909317
 40
0.4772496548985581
 40
0.6015398708217026
 40
0.7296183821680429
 40
0.8621582661414389
 40
1.0
 40
1.0
 40
1.0
 40
1.0
 10
-0.4726381077949857
 20
0.1138478604946078
 30
0.0
 10
-0.4710576122012364
 20
0.1116904618241585
 30
0.0
 10
-0.467907141265773
 20
0.1073900247749578
 30
0.0
 10
-0.4639609198346923
 20
0.1003777992677662
 30
0.0
 10
-0.4605353916215724
 20
0.0930413282427553
 30
0.0
 10
-0.4577973229776605
 20
0.0852620213079696
 30
0.0
 10
-0.4555802157493355
 20
0.0771320512956174
 30
0.0
 10
-0.4539761572678938
 20
0.068593298101738
 30
0.0
 10
-0.4530354702263339
 20
0.0596483044331055
 30
0.0
 10
-0.4528505632728743
 20
0.0535535504704838
 30
0.0
 10
-0.4527562968975498
 20
0.0504464181869155
 30
0.0
  0
SPLINE
  5
CE
330
1F
100
AcDbEntity
  8
0
  6
Continuous
 62
     7
370
    25
100
AcDbSpline
210
0.0
220
0.0
230
1.0
 70
     8
 71
     3
 72
    15
 73
    11
 74
     0
 42
0.000000001
 43
0.00000001
 40
0.0
 40
0.0
 40
0.0
 40
0.0
 40
0.132040234425982
 40
0.2590328407793698
 40
0.3818798239250171
 40
0.502258443714986
 40
0.622752189527479
 40
0.7447426318590016
 40
0.8701089273418187
 40
1.0
 40
1.0
 40
1.0
 40
1.0
 10
-0.546205816128319
 20
0.1498053925458898
 30
0.0
 10
-0.5424595586066272
 20
0.149708674767854
 30
0.0
 10
-0.5351102553252937
 20
0.1495189365345995
 30
0.0
 10
-0.5243936752512378
 20
0.1477599127196665
 30
0.0
 10
-0.5142536240697662
 20
0.1449704445365667
 30
0.0
 10
-0.5046941594762794
 20
0.1410308880722426
 30
0.0
 10
-0.4957143122796486
 20
0.135948062944359
 30
0.0
 10
-0.4873724515957422
 20
0.129652217124291
 30
0.0
 10
-0.4795259149851167
 20
0.1223366394653577
 30
0.0
 10
-0.4749610164956738
 20
0.116710695934837
 30
0.0
 10
-0.4726381077949857
 20
0.1138478604946078
 30
0.0
  0
SPLINE
  5
CF
330
1F
100
AcDbEntity
  8
0
  6
Continuous
 62
     7
370
    25
100
AcDbSpline
210
0.0
220
0.0
230
1.0
 70
     8
 71
     3
 72
    15
 73
    11
 74
     0
 42
0.000000001
 43
0.00000001
 40
0.0
 40
0.0
 40
0.0
 40
0.0
 40
0.1288352544875545
 40
0.2535893349864765
 40
0.3746432573141696
 40
0.4953400422377924
 40
0.6163247746357902
 40
0.7397593354405146
 40
0.8668423203805461
 40
1.0
 40
1.0
 40
1.0
 40
1.0
 10
-0.6176200789488319
 20
0.1157509053664026
 30
0.0
 10
-0.6153552444648438
 20
0.1184558246584063
 30
0.0
 10
-0.6108973197071103
 20
0.1237799782620115
 30
0.0
 10
-0.6033575800389777
 20
0.1307755729606992
 30
0.0
 10
-0.5951932803002357
 20
0.1366358426162034
 30
0.0
 10
-0.586506735578796
 20
0.1414934951975047
 30
0.0
 10
-0.5771969874316106
 20
0.1451844699827035
 30
0.0
 10
-0.5673891809289262
 20
0.1479350115707228
 30
0.0
 10
-0.5569716390555962
 20
0.1494762980730998
 30
0.0
 10
-0.549849837567154
 20
0.1496940004746706
 30
0.0
 10
-0.546205816128319
 20
0.1498053925458898
 30
0.0
  0
SPLINE
  5
D0
330
1F
100
AcDbEntity
  8
0
  6
Continuous
 62
     7
370
    25
100
AcDbSpline
210
0.0
220
0.0
230
1.0
 70
     8
 71
     3
 72
    15
 73
    11
 74
     0
 42
0.000000001
 43
0.00000001
 40
0.0
 40
0.0
 40
0.0
 40
0.0
 40
0.1280448079611201
 40
0.2537679000244898
 40
0.3774284265813012
 40
0.5005508414825328
 40
0.6232958832424763
 40
0.7465783319335075
 40
0.8723475406047168
 40
1.0
 40
1.0
 40
1.0
 40
1.0
 10
-0.6386537327949856
 20
0.0547533092125565
 30
0.0
 10
-0.6385780798428002
 20
0.0575600828138119
 30
0.0
 10
-0.6384281456821539
 20
0.0631227374343026
 30
0.0
 10
-0.637483089439748
 20
0.0713559906150371
 30
0.0
 10
-0.635808211363461
 20
0.0793580229385055
 30
0.0
 10
-0.6335099025099515
 20
0.0871354835077107
 30
0.0
 10
-0.6305419563540061
 20
0.0946753502208596
 30
0.0
 10
-0.6269110835528474
 20
0.1019822119082281
 30
0.0
 10
-0.6226116279965055
 20
0.1090482933268324
 30
0.0
 10
-0.619292151299615
 20
0.1135056600202478
 30
0.0
 10
-0.6176200789488319
 20
0.1157509053664026
 30
0.0
  0
SPLINE
  5
D1
330
1F
100
AcDbEntity
  8
0
  6
Continuous
 62
     7
370
    25
100
AcDbSpline
210
0.0
220
0.0
230
1.0
 70
     8
 71
     3
 72
    23
 73
    19
 74
     0
 42
0.000000001
 43
0.00000001
 40
0.0
 40
0.0
 40
0.0
 40
0.0
 40
0.0715786576891417
 40
0.1396292246928476
 40
0.2047966973966655
 40
0.2681349633966816
 40
0.3298137469867302
 40
0.3913013977745597
 40
0.4534335150970535
 40
0.5165516903197666
 40
0.5796312707049232
 40
0.6411189214927525
 40
0.7012940466987743
 40
0.7608103356761337
 40
0.8199317217781441
 40
0.8789195754993826
 40
0.9389828222504468
 40
1.0
 40
1.0
 40
1.0
 40
1.0
 10
-0.5467566975385755
 20
-0.0392971715566743
 30
0.0
 10
-0.550266838791107
 20
-0.0392152304617048
 30
0.0
 10
-0.5571141074809152
 20
-0.0390553871238937
 30
0.0
 10
-0.5670812322746906
 20
-0.0376773539500032
 30
0.0
 10
-0.5764654764459425
 20
-0.0354293283290263
 30
0.0
 10
-0.5852663123997712
 20
-0.032288932508221
 30
0.0
 10
-0.5934621875838819
 20
-0.0281869807874866
 30
0.0
 10
-0.6010693914990196
 20
-0.0231898749443634
 30
0.0
 10
-0.6081279290610887
 20
-0.0173232853237527
 30
0.0
 10
-0.614415372574314
 20
-0.0105363965032554
 30
0.0
 10
-0.6200756499107738
 20
-0.003273399553584
 30
0.0
 10
-0.6250703513376087
 20
0.0042948779097006
 30
0.0
 10
-0.6292458821268542
 20
0.0121493939435518
 30
0.0
 10
-0.6326424971408352
 20
0.0202401456609479
 30
0.0
 10
-0.6353857017815349
 20
0.0285161380568861
 30
0.0
 10
-0.6372976091936159
 20
0.0370526714546874
 30
0.0
 10
-0.6383997340494768
 20
0.0458266417575568
 30
0.0
 10
-0.6385686230164308
 20
0.0517621657373966
 30
0.0
 10
-0.6386537327949856
 20
0.0547533092125565
 30
0.0
  0
SPLINE
  5
D2
330
1F
100
AcDbEntity
  8
0
  6
Continuous
 62
     7
370
    25
100
AcDbSpline
210
0.0
220
0.0
230
1.0
 70
     8
 71
     3
 72
    19
 73
    15
 74
     0
 42
0.000000001
 43
0.00000001
 40
0.0
 40
0.0
 40
0.0
 40
0.0
 40
0.0933698567361952
 40
0.1816607660710044
 40
0.2658742270426184
 40
0.346354784034308
 40
0.4245998617178937
 40
0.5019031838373766
 40
0.5799920909873473
 40
0.6584434305294313
 40
0.7386722364878339
 40
0.8218941484362442
 40
0.908800792046615
 40
1.0
 40
1.0
 40
1.0
 40
1.0
 10
-0.4623716815129344
 20
0.0111335175458898
 30
0.0
 10
-0.4639600097443612
 20
0.0083161367405097
 30
0.0
 10
-0.4670502674932664
 20
0.0028346293963875
 30
0.0
 10
-0.4723646066283212
 20
-0.0046962177801888
 30
0.0
 10
-0.477935468955335
 20
-0.0114710546258147
 30
0.0
 10
-0.4840143238127332
 20
-0.0173088870746641
 30
0.0
 10
-0.4904193008808768
 20
-0.0223982717156783
 30
0.0
 10
-0.497185919079854
 20
-0.0268509734813174
 30
0.0
 10
-0.5043494060609504
 20
-0.0306451535060186
 30
0.0
 10
-0.5119101006879688
 20
-0.0338417626397879
 30
0.0
 10
-0.5199314971980756
 20
-0.0362995836474967
 30
0.0
 10
-0.5284330340845074
 20
-0.0380355994275688
 30
0.0
 10
-0.537430998040135
 20
-0.039108690045457
 30
0.0
 10
-0.5435985823164035
 20
-0.039233342958104
 30
0.0
 10
-0.5467566975385755
 20
-0.0392971715566743
 30
0.0
  0
SPLINE
  5
D4
330
1F
100
AcDbEntity
  8
0
  6
Continuous
 62
     7
370
    25
100
AcDbSpline
210
0.0
220
0.0
230
1.0
 70
     8
 71
     3
 72
    19
 73
    15
 74
     0
 42
0.000000001
 43
0.00000001
 40
0.0
 40
0.0
 40
0.0
 40
0.0
 40
0.082592263331436
 40
0.1638788940984971
 40
0.245658739629503
 40
0.327725695354122
 40
0.4086099609103193
 40
0.4857490859539308
 40
0.5591690561972777
 40
0.6302684758575455
 40
0.7053060284320701
 40
0.7920649660966079
 40
0.8897964374100894
 40
1.0
 40
1.0
 40
1.0
 40
1.0
 10
-0.5495611847180626
 20
-0.0168612741207768
 30
0.0
 10
-0.5473218170320614
 20
-0.0168178415022127
 30
0.0
 10
-0.5428784819658081
 20
-0.0167316628553152
 30
0.0
 10
-0.5362612778698731
 20
-0.0158936692188147
 30
0.0
 10
-0.52975131162705
 20
-0.0145386495315945
 30
0.0
 10
-0.523375527107963
 20
-0.0126893645256185
 30
0.0
 10
-0.5172633238281983
 20
-0.0104338750894234
 30
0.0
 10
-0.5116029273952536
 20
-0.0077122424002036
 30
0.0
 10
-0.506397197707673
 20
-0.0047015462042799
 30
0.0
 10
-0.5015317000943661
 20
-0.0012579979865354
 30
0.0
 10
-0.4968123434263635
 20
0.0029568725136793
 30
0.0
 10
-0.4921307372538823
 20
0.0082165668700062
 30
0.0
 10
-0.4871109762993626
 20
0.014437104568835
 30
0.0
 10
-0.4839688625319511
 20
0.019118937852972
 30
0.0
 10
-0.4823035725385754
 20
0.0216002643407616
 30
0.0
  0
SPLINE
  5
D6
330
1F
100
AcDbEntity
  8
0
  6
Continuous
 62
     7
370
    25
100
AcDbSpline
210
0.0
220
0.0
230
1.0
 70
     8
 71
     3
 72
    19
 73
    15
 74
     0
 42
0.000000001
 43
0.00000001
 40
0.0
 40
0.0
 40
0.0
 40
0.0
 40
0.0848023883688284
 40
0.1686635395998415
 40
0.2525519243727821
 40
0.3382396894642452
 40
0.4231026613931563
 40
0.5055560510576235
 40
0.586175655989052
 40
0.6671357203303605
 40
0.7484991803055341
 40
0.8304523987582791
 40
0.9134557062010134
 40
1.0
 40
1.0
 40
1.0
 40
1.0
 10
0.7682973889998862
 20
-0.0168612741207769
 30
0.0
 10
0.7715435677686125
 20
-0.0167427052689337
 30
0.0
 10
0.7779998953772875
 20
-0.0165068835825068
 30
0.0
 10
0.7875312316544317
 20
-0.0147010789187047
 30
0.0
 10
0.7967808718542786
 20
-0.0117175933222718
 30
0.0
 10
0.8056228167384473
 20
-0.0075819414127014
 30
0.0
 10
0.8138596832490074
 20
-0.0024564159914817
 30
0.0
 10
0.8212523887930393
 20
0.0035440905107242
 30
0.0
 10
0.8275035293911436
 20
0.0105228893765818
 30
0.0
 10
0.8328030015038742
 20
0.0181926360226536
 30
0.0
 10
0.8369583884109192
 20
0.0266006357698585
 30
0.0
 10
0.8399852497821375
 20
0.0355530779659951
 30
0.0
 10
0.8417748144804454
 20
0.0450502742620692
 30
0.0
 10
0.8420003665977713
 20
0.0515405547591135
 30
0.0
 10
0.8421154979742452
 20
0.0548534694689667
 30
0.0
  0
SPLINE
  5
D7
330
1F
100
AcDbEntity
  8
0
  6
Continuous
 62
     7
370
    25
100
AcDbSpline
210
0.0
220
0.0
230
1.0
 70
     8
 71
     3
 72
    19
 73
    15
 74
     0
 42
0.000000001
 43
0.00000001
 40
0.0
 40
0.0
 40
0.0
 40
0.0
 40
0.0815893489321835
 40
0.1628588951679354
 40
0.2454836892755797
 40
0.3308071391580113
 40
0.4164933737762848
 40
0.4998932031606323
 40
0.5830481559950222
 40
0.6671578520621588
 40
0.751311929292915
 40
0.833784789357615
 40
0.916256488543981
 40
0.9999999999999999
 40
0.9999999999999999
 40
0.9999999999999999
 40
0.9999999999999999
 10
0.6946796005383477
 20
0.0555045111356334
 30
0.0
 10
0.694812807203331
 20
0.0523909320510619
 30
0.0
 10
0.6950786984081533
 20
0.046175978060526
 30
0.0
 10
0.6969894622937239
 20
0.0369630797199288
 30
0.0
 10
0.7001951675389773
 20
0.0279877910012628
 30
0.0
 10
0.7045696005909804
 20
0.0193262914641422
 30
0.0
 10
0.7100472166430306
 20
0.0112845700095929
 30
0.0
 10
0.7163964061110472
 20
0.0040174183980524
 30
0.0
 10
0.7236785690619663
 20
-0.0022318379071481
 30
0.0
 10
0.7317448195672576
 20
-0.0074630931646832
 30
0.0
 10
0.740359674595854
 20
-0.0116889875143571
 30
0.0
 10
0.7494192411296297
 20
-0.0146293903362837
 30
0.0
 10
0.7587532152836647
 20
-0.0165278032377247
 30
0.0
 10
0.7650998105588027
 20
-0.0167495515832287
 30
0.0
 10
0.7682973889998861
 20
-0.0168612741207768
 30
0.0
  0
SPLINE
  5
D8
330
1F
100
AcDbEntity
  8
0
  6
Continuous
 62
     7
370
    25
100
AcDbSpline
210
0.0
220
0.0
230
1.0
 70
     8
 71
     3
 72
    19
 73
    15
 74
     0
 42
0.000000001
 43
0.00000001
 40
0.0
 40
0.0
 40
0.0
 40
0.0
 40
0.0859205174117675
 40
0.1695934351247424
 40
0.2524755148685373
 40
0.3362444769570509
 40
0.4195045210415717
 40
0.5020359066440894
 40
0.5847746476768716
 40
0.6698464747058016
 40
0.7541848663887866
 40
0.836658238329327
 40
0.9180097257088053
 40
1.0
 40
1.0
 40
1.0
 40
1.0
 10
0.7684977095127067
 20
0.1273694951099924
 30
0.0
 10
0.765218113950417
 20
0.1272528067006672
 30
0.0
 10
0.7587447139525675
 20
0.1270224823407492
 30
0.0
 10
0.7492415709481077
 20
0.1252243755418515
 30
0.0
 10
0.7401477556561057
 20
0.1222326188015834
 30
0.0
 10
0.7315087503512074
 20
0.1181410544324148
 30
0.0
 10
0.7234610205924508
 20
0.1129961446740536
 30
0.0
 10
0.716268615533213
 20
0.1067731887246372
 30
0.0
 10
0.7098727082935032
 20
0.0996419734278763
 30
0.0
 10
0.7044935465625914
 20
0.0916346798285779
 30
0.0
 10
0.7001085110683285
 20
0.0830505304665331
 30
0.0
 10
0.697025151644276
 20
0.0740773563164562
 30
0.0
 10
0.6949916339721933
 20
0.064877000776693
 30
0.0
 10
0.6947838825035167
 20
0.0586368089354254
 30
0.0
 10
0.6946796005383478
 20
0.0555045111356334
 30
0.0
  0
SPLINE
  5
D9
330
1F
100
AcDbEntity
  8
0
  6
Continuous
 62
     7
370
    25
100
AcDbSpline
210
0.0
220
0.0
230
1.0
 70
     8
 71
     3
 72
    23
 73
    19
 74
     0
 42
0.000000001
 43
0.00000001
 40
0.0
 40
0.0
 40
0.0
 40
0.0
 40
0.06563379967569
 40
0.1291880880571286
 40
0.1912186831121887
 40
0.2519128178811567
 40
0.31250747438655
 40
0.3734944337751975
 40
0.4351515996540496
 40
0.4987414744066484
 40
0.5620952169966308
 40
0.6241865668116562
 40
0.685475718465195
 40
0.746096814806053
 40
0.8076116364477837
 40
0.8699665806571891
 40
0.933951018914907
 40
1.0
 40
1.0
 40
1.0
 40
1.0
 10
0.8421154979742451
 20
0.0548534694689667
 30
0.0
 10
0.8420469510905602
 20
0.0573776002195208
 30
0.0
 10
0.8419120291313059
 20
0.0623458883162263
 30
0.0
 10
0.8408812741648317
 20
0.0696407109999428
 30
0.0
 10
0.8392416365639794
 20
0.0766216914299656
 30
0.0
 10
0.8369311958485177
 20
0.0832961692198656
 30
0.0
 10
0.8338961041045491
 20
0.0896272417483829
 30
0.0
 10
0.8302355493983781
 20
0.0956603674776913
 30
0.0
 10
0.8258851601316927
 20
0.1013641682912397
 30
0.0
 10
0.8209149675531238
 20
0.1066601019325593
 30
0.0
 10
0.8154745959427327
 20
0.1114905635225037
 30
0.0
 10
0.8097178430404414
 20
0.1158022950019152
 30
0.0
 10
0.8035765039720534
 20
0.1193443501976194
 30
0.0
 10
0.7971538584779289
 20
0.122275869590308
 30
0.0
 10
0.7904387631592101
 20
0.1246086660115654
 30
0.0
 10
0.7833765760293145
 20
0.1261649298521417
 30
0.0
 10
0.7760423626773814
 20
0.1272335242118129
 30
0.0
 10
0.7710390730062162
 20
0.1273236942667633
 30
0.0
 10
0.7684977095127067
 20
0.1273694951099924
 30
0.0
  0
SPLINE
  5
DA
330
1F
100
AcDbEntity
  8
0
  6
Continuous
 62
     7
370
    25
100
AcDbSpline
210
0.0
220
0.0
230
1.0
 70
     8
 71
     3
 72
    15
 73
    11
 74
     0
 42
0.000000001
 43
0.00000001
 40
0.0
 40
0.0
 40
0.0
 40
0.0
 40
0.1099838451118734
 40
0.222580497363889
 40
0.3384998709624459
 40
0.4587085654776346
 40
0.5855353464579972
 40
0.717517742945892
 40
0.8546668197510224
 40
1.0
 40
1.0
 40
1.0
 40
1.0
 10
-0.0728985244616523
 20
0.1102420912638385
 30
0.0
 10
-0.0740909017448215
 20
0.1091639258620917
 30
0.0
 10
-0.0765039827610674
 20
0.1069819818582498
 30
0.0
 10
-0.0797283057245886
 20
0.1032227528188904
 30
0.0
 10
-0.0828154823450307
 20
0.0991690698073168
 30
0.0
 10
-0.08562502897022
 20
0.0946658466217353
 30
0.0
 10
-0.0882019994316302
 20
0.0897643624069786
 30
0.0
 10
-0.0906134263731268
 20
0.0845059598902063
 30
0.0
 10
-0.0927838843789568
 20
0.0788507363000916
 30
0.0
 10
-0.0940050350956337
 20
0.0749098477837857
 30
0.0
 10
-0.0946333001026779
 20
0.0728823156228129
 30
0.0
  0
SPLINE
  5
DB
330
1F
100
AcDbEntity
  8
0
  6
Continuous
 62
     7
370
    25
100
AcDbSpline
210
0.0
220
0.0
230
1.0
 70
     8
 71
     3
 72
    15
 73
    11
 74
     0
 42
0.000000001
 43
0.00000001
 40
0.0
 40
0.0
 40
0.0
 40
0.0
 40
0.1310919762569276
 40
0.2591412763281424
 40
0.3841617634834045
 40
0.5059919524977747
 40
0.6290980893898568
 40
0.7506691234237082
 40
0.8740389376151275
 40
1.0
 40
1.0
 40
1.0
 40
1.0
 10
-0.0258232039488319
 20
0.1273694951099924
 30
0.0
 10
-0.0280624495571579
 20
0.1273258042853433
 30
0.0
 10
-0.0324889673465955
 20
0.1272394367105558
 30
0.0
 10
-0.0390104722175374
 20
0.1264201417582203
 30
0.0
 10
-0.0452733078545495
 20
0.1250658671245144
 30
0.0
 10
-0.0513236855410734
 20
0.1232112273672189
 30
0.0
 10
-0.0570823189962271
 20
0.1207391843313076
 30
0.0
 10
-0.0626676595832777
 20
0.1178403824306297
 30
0.0
 10
-0.0679376878864784
 20
0.1143016978733104
 30
0.0
 10
-0.0712334947062669
 20
0.1116046368138687
 30
0.0
 10
-0.0728985244616523
 20
0.1102420912638385
 30
0.0
  0
SPLINE
  5
DC
330
1F
100
AcDbEntity
  8
0
  6
Continuous
 62
     7
370
    25
100
AcDbSpline
210
0.0
220
0.0
230
1.0
 70
     8
 71
     3
 72
    19
 73
    15
 74
     0
 42
0.000000001
 43
0.00000001
 40
0.0
 40
0.0
 40
0.0
 40
0.0
 40
0.0962401251801508
 40
0.1852312611287013
 40
0.2675005230774392
 40
0.3444003817777772
 40
0.4195948685557305
 40
0.4968906265927779
 40
0.5766379188385165
 40
0.6602678524196378
 40
0.7453866150876284
 40
0.830040327386453
 40
0.9144742116388013
 40
1.0
 40
1.0
 40
1.0
 40
1.0
 10
0.0440385748973221
 20
0.0728823156228129
 30
0.0
 10
0.043217387429212
 20
0.0758582351745639
 30
0.0
 10
0.0416368658945986
 20
0.0815859223586418
 30
0.0
 10
0.0383342684341397
 20
0.0895174145332115
 30
0.0
 10
0.0346148726701278
 20
0.0965665503196129
 30
0.0
 10
0.0302133204290699
 20
0.1026793812521902
 30
0.0
 10
0.0252262685985955
 20
0.1081082036080569
 30
0.0
 10
0.0194658984094581
 20
0.1128523882628976
 30
0.0
 10
0.0130061917313781
 20
0.1170964919105722
 30
0.0
 10
0.00588053882582
 20
0.1206788133010614
 30
0.0
 10
-0.001665302965317
 20
0.1237280889240878
 30
0.0
 10
-0.0095657452489964
 20
0.1257727400490614
 30
0.0
 10
-0.0176270158111969
 20
0.1271734216418934
 30
0.0
 10
-0.0230794648360327
 20
0.1273038579583834
 30
0.0
 10
-0.0258232039488319
 20
0.1273694951099924
 30
0.0
  0
SPLINE
  5
DF
330
1F
100
AcDbEntity
  8
0
  6
Continuous
 62
     7
370
    25
100
AcDbSpline
210
0.0
220
0.0
230
1.0
 70
     8
 71
     3
 72
    15
 73
    11
 74
     0
 42
0.000000001
 43
0.00000001
 40
0.0
 40
0.0
 40
0.0
 40
0.0
 40
0.1310919762569276
 40
0.2591412763281424
 40
0.3841617634834045
 40
0.505991952497776
 40
0.6290980893898568
 40
0.7506691234237094
 40
0.8740389376151275
 40
1.0
 40
1.0
 40
1.0
 40
1.0
 10
-0.3206949988206267
 20
0.1273694951099924
 30
0.0
 10
-0.3229342444289528
 20
0.1273258042853433
 30
0.0
 10
-0.3273607622183903
 20
0.1272394367105558
 30
0.0
 10
-0.3338822670893322
 20
0.1264201417582203
 30
0.0
 10
-0.3401451027263444
 20
0.1250658671245144
 30
0.0
 10
-0.3461954804128684
 20
0.1232112273672189
 30
0.0
 10
-0.351954113868022
 20
0.1207391843313076
 30
0.0
 10
-0.3575394544550726
 20
0.1178403824306298
 30
0.0
 10
-0.3628094827582732
 20
0.1143016978733104
 30
0.0
 10
-0.3661052895780618
 20
0.1116046368138687
 30
0.0
 10
-0.3677703193334472
 20
0.1102420912638385
 30
0.0
  0
SPLINE
  5
E0
330
1F
100
AcDbEntity
  8
0
  6
Continuous
 62
     7
370
    25
100
AcDbSpline
210
0.0
220
0.0
230
1.0
 70
     8
 71
     3
 72
    19
 73
    15
 74
     0
 42
0.000000001
 43
0.00000001
 40
0.0
 40
0.0
 40
0.0
 40
0.0
 40
0.0962401251801506
 40
0.1852312611287012
 40
0.2675005230774393
 40
0.3444003817777769
 40
0.4195948685557303
 40
0.4968906265927778
 40
0.5766379188385163
 40
0.6602678524196384
 40
0.7453866150876282
 40
0.830040327386453
 40
0.9144742116388019
 40
1.0
 40
1.0
 40
1.0
 40
1.0
 10
-0.2508332199744728
 20
0.0728823156228129
 30
0.0
 10
-0.2516544074425829
 20
0.0758582351745639
 30
0.0
 10
-0.2532349289771962
 20
0.0815859223586418
 30
0.0
 10
-0.2565375264376552
 20
0.0895174145332116
 30
0.0
 10
-0.2602569222016672
 20
0.0965665503196128
 30
0.0
 10
-0.2646584744427249
 20
0.1026793812521902
 30
0.0
 10
-0.2696455262731993
 20
0.1081082036080569
 30
0.0
 10
-0.2754058964623369
 20
0.1128523882628976
 30
0.0
 10
-0.2818656031404168
 20
0.1170964919105722
 30
0.0
 10
-0.2889912560459748
 20
0.1206788133010613
 30
0.0
 10
-0.2965370978371119
 20
0.1237280889240878
 30
0.0
 10
-0.3044375401207912
 20
0.1257727400490613
 30
0.0
 10
-0.3124988106829918
 20
0.1271734216418933
 30
0.0
 10
-0.3179512597078275
 20
0.1273038579583834
 30
0.0
 10
-0.3206949988206267
 20
0.1273694951099924
 30
0.0
  0
SPLINE
  5
E1
330
1F
100
AcDbEntity
  8
0
  6
Continuous
 62
     7
370
    25
100
AcDbSpline
210
0.0
220
0.0
230
1.0
 70
     8
 71
     3
 72
    15
 73
    11
 74
     0
 42
0.000000001
 43
0.00000001
 40
0.0
 40
0.0
 40
0.0
 40
0.0
 40
0.1099838451118734
 40
0.2225804973638888
 40
0.3384998709624457
 40
0.4587085654776334
 40
0.5855353464579968
 40
0.7175177429458922
 40
0.8546668197510225
 40
1.0
 40
1.0
 40
1.0
 40
1.0
 10
-0.3677703193334473
 20
0.1102420912638385
 30
0.0
 10
-0.3689626966166164
 20
0.1091639258620918
 30
0.0
 10
-0.3713757776328623
 20
0.1069819818582498
 30
0.0
 10
-0.3746001005963833
 20
0.1032227528188904
 30
0.0
 10
-0.3776872772168256
 20
0.0991690698073168
 30
0.0
 10
-0.3804968238420148
 20
0.0946658466217353
 30
0.0
 10
-0.383073794303425
 20
0.0897643624069786
 30
0.0
 10
-0.3854852212449217
 20
0.0845059598902063
 30
0.0
 10
-0.3876556792507517
 20
0.0788507363000916
 30
0.0
 10
-0.3888768299674286
 20
0.0749098477837857
 30
0.0
 10
-0.3895050949744728
 20
0.0728823156228129
 30
0.0
  0
SPLINE
  5
E2
330
1F
100
AcDbEntity
  8
0
  6
Continuous
 62
     7
370
    25
100
AcDbSpline
210
0.0
220
0.0
230
1.0
 70
     8
 71
     3
 72
    15
 73
    11
 74
     0
 42
0.000000001
 43
0.00000001
 40
0.0
 40
0.0
 40
0.0
 40
0.0
 40
0.1310919762569276
 40
0.2591412763281424
 40
0.3841617634834045
 40
0.505991952497776
 40
0.6290980893898568
 40
0.7506691234237094
 40
0.8740389376151275
 40
1.0
 40
1.0
 40
1.0
 40
1.0
 10
-0.545053973179601
 20
0.1273694951099924
 30
0.0
 10
-0.5472932187879271
 20
0.1273258042853433
 30
0.0
 10
-0.5517197365773647
 20
0.1272394367105558
 30
0.0
 10
-0.5582412414483066
 20
0.1264201417582203
 30
0.0
 10
-0.5645040770853187
 20
0.1250658671245144
 30
0.0
 10
-0.5705544547718427
 20
0.1232112273672189
 30
0.0
 10
-0.5763130882269963
 20
0.1207391843313076
 30
0.0
 10
-0.581898428814047
 20
0.1178403824306298
 30
0.0
 10
-0.5871684571172475
 20
0.1143016978733104
 30
0.0
 10
-0.5904642639370363
 20
0.1116046368138687
 30
0.0
 10
-0.5921292936924215
 20
0.1102420912638385
 30
0.0
  0
SPLINE
  5
E3
330
1F
100
AcDbEntity
  8
0
  6
Continuous
 62
     7
370
    25
100
AcDbSpline
210
0.0
220
0.0
230
1.0
 70
     8
 71
     3
 72
    19
 73
    15
 74
     0
 42
0.000000001
 43
0.00000001
 40
0.0
 40
0.0
 40
0.0
 40
0.0
 40
0.0962401251801506
 40
0.1852312611287012
 40
0.2675005230774393
 40
0.3444003817777769
 40
0.4195948685557303
 40
0.4968906265927778
 40
0.5766379188385163
 40
0.6602678524196384
 40
0.7453866150876289
 40
0.830040327386453
 40
0.9144742116388019
 40
1.0
 40
1.0
 40
1.0
 40
1.0
 10
-0.4751921943334472
 20
0.0728823156228129
 30
0.0
 10
-0.4760133818015572
 20
0.0758582351745639
 30
0.0
 10
-0.4775939033361706
 20
0.0815859223586418
 30
0.0
 10
-0.4808965007966296
 20
0.0895174145332116
 30
0.0
 10
-0.4846158965606417
 20
0.0965665503196128
 30
0.0
 10
-0.4890174488016993
 20
0.1026793812521902
 30
0.0
 10
-0.4940045006321738
 20
0.1081082036080569
 30
0.0
 10
-0.4997648708213113
 20
0.1128523882628976
 30
0.0
 10
-0.5062245774993912
 20
0.1170964919105722
 30
0.0
 10
-0.5133502304049491
 20
0.1206788133010614
 30
0.0
 10
-0.5208960721960862
 20
0.1237280889240878
 30
0.0
 10
-0.5287965144797657
 20
0.1257727400490614
 30
0.0
 10
-0.5368577850419661
 20
0.1271734216418933
 30
0.0
 10
-0.5423102340668019
 20
0.1273038579583834
 30
0.0
 10
-0.545053973179601
 20
0.1273694951099924
 30
0.0
  0
SPLINE
  5
E5
330
1F
100
AcDbEntity
  8
0
  6
Continuous
 62
     7
370
    25
100
AcDbSpline
210
0.0
220
0.0
230
1.0
 70
     8
 71
     3
 72
    15
 73
    11
 74
     0
 42
0.000000001
 43
0.00000001
 40
0.0
 40
0.0
 40
0.0
 40
0.0
 40
0.1099838451118733
 40
0.2225804973638887
 40
0.3384998709624455
 40
0.458708565477634
 40
0.5855353464579965
 40
0.7175177429458918
 40
0.8546668197510217
 40
1.0
 40
1.0
 40
1.0
 40
1.0
 10
-0.5921292936924215
 20
0.1102420912638385
 30
0.0
 10
-0.5933216709755909
 20
0.1091639258620917
 30
0.0
 10
-0.5957347519918368
 20
0.1069819818582498
 30
0.0
 10
-0.5989590749553578
 20
0.1032227528188904
 30
0.0
 10
-0.6020462515757999
 20
0.0991690698073168
 30
0.0
 10
-0.604855798200989
 20
0.0946658466217353
 30
0.0
 10
-0.6074327686623995
 20
0.0897643624069785
 30
0.0
 10
-0.6098441956038962
 20
0.0845059598902064
 30
0.0
 10
-0.6120146536097258
 20
0.0788507363000916
 30
0.0
 10
-0.6132358043264031
 20
0.0749098477837857
 30
0.0
 10
-0.6138640693334473
 20
0.0728823156228129
 30
0.0
  0
LINE
  5
E6
330
1F
100
AcDbEntity
  8
0
  6
Continuous
 62
     7
370
    25
100
AcDbLine
 10
-0.8085255277
 20
-0.0360920434
 30
0.0
 11
-0.8309614251
 21
-0.0360920434
 31
0.0
  0
LINE
  5
E7
330
1F
100
AcDbEntity
  8
0
  6
Continuous
 62
     7
370
    25
100
AcDbLine
 10
-0.8085255277
 20
0.0845509855
 30
0.0
 11
-0.8085255277
 21
-0.0360920434
 31
0.0
  0
LINE
  5
E8
330
1F
100
AcDbEntity
  8
0
  6
Continuous
 62
     7
370
    25
100
AcDbLine
 10
-0.6925900309
 20
-0.0360920434
 30
0.0
 11
-0.8085255277
 21
0.0845509855
 31
0.0
  0
LINE
  5
E9
330
1F
100
AcDbEntity
  8
0
  6
Continuous
 62
     7
370
    25
100
AcDbLine
 10
-0.6626921943
 20
-0.0360920434
 30
0.0
 11
-0.6925900309
 21
-0.0360920434
 31
0.0
  0
LINE
  5
EA
330
1F
100
AcDbEntity
  8
0
  6
Continuous
 62
     7
370
    25
100
AcDbLine
 10
-0.7951541334
 20
0.1017284695
 30
0.0
 11
-0.6626921943
 21
-0.0360920434
 31
0.0
  0
LINE
  5
EB
330
1F
100
AcDbEntity
  8
0
  6
Continuous
 62
     7
370
    25
100
AcDbLine
 10
-0.6723075789
 20
0.2139079566
 30
0.0
 11
-0.7951541334
 21
0.1017284695
 31
0.0
  0
LINE
  5
EC
330
1F
100
AcDbEntity
  8
0
  6
Continuous
 62
     7
370
    25
100
AcDbLine
 10
-0.7043087809
 20
0.2139079566
 30
0.0
 11
-0.6723075789
 21
0.2139079566
 31
0.0
  0
LINE
  5
ED
330
1F
100
AcDbEntity
  8
0
  6
Continuous
 62
     7
370
    25
100
AcDbLine
 10
-0.8085255277
 20
0.1187056329
 30
0.0
 11
-0.7043087809
 21
0.2139079566
 31
0.0
  0
LINE
  5
EE
330
1F
100
AcDbEntity
  8
0
  6
Continuous
 62
     7
370
    25
100
AcDbLine
 10
-0.8085255277
 20
0.2139079566
 30
0.0
 11
-0.8085255277
 21
0.1187056329
 31
0.0
  0
LINE
  5
EF
330
1F
100
AcDbEntity
  8
0
  6
Continuous
 62
     7
370
    25
100
AcDbLine
 10
-0.8309614251
 20
0.2139079566
 30
0.0
 11
-0.8085255277
 21
0.2139079566
 31
0.0
  0
LINE
  5
F0
330
1F
100
AcDbEntity
  8
0
  6
Continuous
 62
     7
370
    25
100
AcDbLine
 10
-0.8309614251
 20
-0.0360920434
 30
0.0
 11
-0.8309614251
 21
0.2139079566
 31
0.0
  0
LINE
  5
F1
330
1F
100
AcDbEntity
  8
0
  6
Continuous
 62
     7
370
    25
100
AcDbLine
 10
-0.2283973225
 20
0.0504464182
 30
0.0
 11
-0.391858861
 21
0.0504464182
 31
0.0
  0
LINE
  5
F2
330
1F
100
AcDbEntity
  8
0
  6
Continuous
 62
     7
370
    25
100
AcDbLine
 10
-0.2579445982
 20
0.0216002643
 30
0.0
 11
-0.2380127072
 21
0.0111335175
 31
0.0
  0
LINE
  5
F3
330
1F
100
AcDbEntity
  8
0
  6
Continuous
 62
     7
370
    25
100
AcDbLine
 10
0.0664744723
 20
0.0504464182
 30
0.0
 11
-0.0969870661
 21
0.0504464182
 31
0.0
  0
LINE
  5
F4
330
1F
100
AcDbEntity
  8
0
  6
Continuous
 62
     7
370
    25
100
AcDbLine
 10
0.0369271967
 20
0.0216002643
 30
0.0
 11
0.0568590877
 21
0.0111335175
 31
0.0
  0
LINE
  5
F5
330
1F
100
AcDbEntity
  8
0
  6
Continuous
 62
     7
370
    25
100
AcDbLine
 10
0.5151924211
 20
0.1780005047
 30
0.0
 11
0.4949099691
 21
0.1626259054
 31
0.0
  0
LINE
  5
F6
330
1F
100
AcDbEntity
  8
0
  6
Continuous
 62
     7
370
    25
100
AcDbLine
 10
0.3709616518
 20
0.0121351201
 30
0.0
 11
0.3920954659
 21
0.0248053925
 31
0.0
  0
LINE
  5
F7
330
1F
100
AcDbEntity
  8
0
  6
Continuous
 62
     7
370
    25
100
AcDbLine
 10
0.842115498
 20
0.1112436938
 30
0.0
 11
0.842115498
 21
0.2203182131
 31
0.0
  0
LINE
  5
F8
330
1F
100
AcDbEntity
  8
0
  6
Continuous
 62
     7
370
    25
100
AcDbLine
 10
0.842115498
 20
-0.0360920434
 30
0.0
 11
0.842115498
 21
-0.0044914825
 31
0.0
  0
LINE
  5
F9
330
1F
100
AcDbEntity
  8
0
  6
Continuous
 62
     7
370
    25
100
AcDbLine
 10
0.8645513954
 20
-0.0360920434
 30
0.0
 11
0.842115498
 21
-0.0360920434
 31
0.0
  0
LINE
  5
FA
330
1F
100
AcDbEntity
  8
0
  6
Continuous
 62
     7
370
    25
100
AcDbLine
 10
0.8645513954
 20
0.2203182131
 30
0.0
 11
0.8645513954
 21
-0.0360920434
 31
0.0
  0
LINE
  5
FB
330
1F
100
AcDbEntity
  8
0
  6
Continuous
 62
     7
370
    25
100
AcDbLine
 10
0.842115498
 20
0.2203182131
 30
0.0
 11
0.8645513954
 21
0.2203182131
 31
0.0
  0
LINE
  5
FC
330
1F
100
AcDbEntity
  8
0
  6
Continuous
 62
     7
370
    25
100
AcDbLine
 10
-1.195
 20
-2.215
 30
0.0
 11
1.195
 21
-2.215
 31
0.0
  0
LINE
  5
FD
330
1F
100
AcDbEntity
  8
0
  6
Continuous
 62
     7
370
    25
100
AcDbLine
 10
-1.195
 20
2.215
 30
0.0
 11
-1.195
 21
-2.215
 31
0.0
  0
LINE
  5
FE
330
1F
100
AcDbEntity
  8
0
  6
Continuous
 62
     7
370
    25
100
AcDbLine
 10
1.195
 20
2.215
 30
0.0
 11
-1.195
 21
2.215
 31
0.0
  0
LINE
  5
FF
330
1F
100
AcDbEntity
  8
0
  6
Continuous
 62
     7
370
    25
100
AcDbLine
 10
0.5536539595
 20
0.1466002643
 30
0.0
 11
0.5857052416
 21
0.1466002643
 31
0.0
  0
LINE
  5
100
330
1F
100
AcDbEntity
  8
0
  6
Continuous
 62
     7
370
    25
100
AcDbLine
 10
0.5536539595
 20
0.1241643669
 30
0.0
 11
0.5536539595
 21
0.1466002643
 31
0.0
  0
LINE
  5
101
330
1F
100
AcDbEntity
  8
0
  6
Continuous
 62
     7
370
    25
100
AcDbLine
 10
0.5857052416
 20
0.1241643669
 30
0.0
 11
0.5536539595
 21
0.1241643669
 31
0.0
  0
LINE
  5
102
330
1F
100
AcDbEntity
  8
0
  6
Continuous
 62
     7
370
    25
100
AcDbLine
 10
0.5857052416
 20
-0.0360920434
 30
0.0
 11
0.5857052416
 21
0.1241643669
 31
0.0
  0
LINE
  5
103
330
1F
100
AcDbEntity
  8
0
  6
Continuous
 62
     7
370
    25
100
AcDbLine
 10
0.608141139
 20
-0.0360920434
 30
0.0
 11
0.5857052416
 21
-0.0360920434
 31
0.0
  0
LINE
  5
104
330
1F
100
AcDbEntity
  8
0
  6
Continuous
 62
     7
370
    25
100
AcDbLine
 10
0.608141139
 20
0.1241643669
 30
0.0
 11
0.608141139
 21
-0.0360920434
 31
0.0
  0
LINE
  5
105
330
1F
100
AcDbEntity
  8
0
  6
Continuous
 62
     7
370
    25
100
AcDbLine
 10
0.6401924211
 20
0.1241643669
 30
0.0
 11
0.608141139
 21
0.1241643669
 31
0.0
  0
LINE
  5
106
330
1F
100
AcDbEntity
  8
0
  6
Continuous
 62
     7
370
    25
100
AcDbLine
 10
0.6401924211
 20
0.1466002643
 30
0.0
 11
0.6401924211
 21
0.1241643669
 31
0.0
  0
LINE
  5
107
330
1F
100
AcDbEntity
  8
0
  6
Continuous
 62
     7
370
    25
100
AcDbLine
 10
0.608141139
 20
0.1466002643
 30
0.0
 11
0.6401924211
 21
0.1466002643
 31
0.0
  0
LINE
  5
108
330
1F
100
AcDbEntity
  8
0
  6
Continuous
 62
     7
370
    25
100
AcDbLine
 10
0.608141139
 20
0.2203182131
 30
0.0
 11
0.608141139
 21
0.1466002643
 31
0.0
  0
LINE
  5
109
330
1F
100
AcDbEntity
  8
0
  6
Continuous
 62
     7
370
    25
100
AcDbLine
 10
0.5857052416
 20
0.2203182131
 30
0.0
 11
0.608141139
 21
0.2203182131
 31
0.0
  0
LINE
  5
10A
330
1F
100
AcDbEntity
  8
0
  6
Continuous
 62
     7
370
    25
100
AcDbLine
 10
0.5857052416
 20
0.1466002643
 30
0.0
 11
0.5857052416
 21
0.2203182131
 31
0.0
  0
LINE
  5
10B
330
1F
100
AcDbEntity
  8
0
  6
Continuous
 62
     7
370
    25
100
AcDbLine
 10
0.1287741518
 20
-0.1033997357
 30
0.0
 11
0.1659836871
 21
-0.0205171235
 31
0.0
  0
LINE
  5
10C
330
1F
100
AcDbEntity
  8
0
  6
Continuous
 62
     7
370
    25
100
AcDbLine
 10
0.1530129339
 20
-0.1033997357
 30
0.0
 11
0.1287741518
 21
-0.1033997357
 31
0.0
  0
LINE
  5
10D
330
1F
100
AcDbEntity
  8
0
  6
Continuous
 62
     7
370
    25
100
AcDbLine
 10
0.2651924211
 20
0.1466002643
 30
0.0
 11
0.1530129339
 21
-0.1033997357
 31
0.0
  0
LINE
  5
10E
330
1F
100
AcDbEntity
  8
0
  6
Continuous
 62
     7
370
    25
100
AcDbLine
 10
0.240953639
 20
0.1466002643
 30
0.0
 11
0.2651924211
 21
0.1466002643
 31
0.0
  0
LINE
  5
10F
330
1F
100
AcDbEntity
  8
0
  6
Continuous
 62
     7
370
    25
100
AcDbLine
 10
0.1781531582
 20
0.0066763861
 30
0.0
 11
0.240953639
 21
0.1466002643
 31
0.0
  0
LINE
  5
110
330
1F
100
AcDbEntity
  8
0
  6
Continuous
 62
     7
370
    25
100
AcDbLine
 10
0.1163041999
 20
0.1466002643
 30
0.0
 11
0.1781531582
 21
0.0066763861
 31
0.0
  0
LINE
  5
111
330
1F
100
AcDbEntity
  8
0
  6
Continuous
 62
     7
370
    25
100
AcDbLine
 10
0.092115498
 20
0.1466002643
 30
0.0
 11
0.1163041999
 21
0.1466002643
 31
0.0
  0
LINE
  5
112
330
1F
100
AcDbEntity
  8
0
  6
Continuous
 62
     7
370
    25
100
AcDbLine
 10
0.1659836871
 20
-0.0205171235
 30
0.0
 11
0.092115498
 21
0.1466002643
 31
0.0
  0
LINE
  5
113
330
1F
100
AcDbEntity
  8
0
  6
Continuous
 62
     7
370
    25
100
AcDbLine
 10
-0.1642947584
 20
-0.0360920434
 30
0.0
 11
-0.1867306559
 21
-0.0360920434
 31
0.0
  0
LINE
  5
114
330
1F
100
AcDbEntity
  8
0
  6
Continuous
 62
     7
370
    25
100
AcDbLine
 10
-0.1642947584
 20
0.2203182131
 30
0.0
 11
-0.1642947584
 21
-0.0360920434
 31
0.0
  0
LINE
  5
115
330
1F
100
AcDbEntity
  8
0
  6
Continuous
 62
     7
370
    25
100
AcDbLine
 10
-0.1867306559
 20
0.2203182131
 30
0.0
 11
-0.1642947584
 21
0.2203182131
 31
0.0
  0
LINE
  5
116
330
1F
100
AcDbEntity
  8
0
  6
Continuous
 62
     7
370
    25
100
AcDbLine
 10
-0.1867306559
 20
-0.0360920434
 30
0.0
 11
-0.1867306559
 21
0.2203182131
 31
0.0
  0
LINE
  5
117
330
1F
100
AcDbEntity
  8
0
  6
Continuous
 62
     7
370
    25
100
AcDbLine
 10
-0.4527562969
 20
0.0504464182
 30
0.0
 11
-0.6162178354
 21
0.0504464182
 31
0.0
  0
LINE
  5
118
330
1F
100
AcDbEntity
  8
0
  6
Continuous
 62
     7
370
    25
100
AcDbLine
 10
-0.4823035725
 20
0.0216002643
 30
0.0
 11
-0.4623716815
 21
0.0111335175
 31
0.0
  0
LINE
  5
119
330
1F
100
AcDbEntity
  8
0
  6
Continuous
 62
     7
370
    25
100
AcDbLine
 10
1.195
 20
-2.215
 30
0.0
 11
1.195
 21
2.215
 31
0.0
  0
LINE
  5
11A
330
1F
100
AcDbEntity
  8
0
  6
Continuous
 62
     7
370
    25
100
AcDbLine
 10
-0.0946333001
 20
0.0728823156
 30
0.0
 11
0.0440385749
 21
0.0728823156
 31
0.0
  0
LINE
  5
11B
330
1F
100
AcDbEntity
  8
0
  6
Continuous
 62
     7
370
    25
100
AcDbLine
 10
-0.389505095
 20
0.0728823156
 30
0.0
 11
-0.25083322
 21
0.0728823156
 31
0.0
  0
LINE
  5
11C
330
1F
100
AcDbEntity
  8
0
  6
Continuous
 62
     7
370
    25
100
AcDbLine
 10
-0.6138640693
 20
0.0728823156
 30
0.0
 11
-0.4751921943
 21
0.0728823156
 31
0.0
  0
MTEXT
  5
11E
330
1F
100
AcDbEntity
  8
0
  6
Continuous
 62
     7
100
AcDbMText
 10
-1.195
 20
-2.2551404091
 30
0.0
 40
0.1903
 41
0.0
 71
     1
 72
     1
  1
SOLIDWORKS Educational Product.
  7
SLDTEXTSTYLE0
 73
     1
 44
1.0
  0
MTEXT
  5
11F
330
1F
100
AcDbEntity
  8
0
  6
Continuous
 62
     7
100
AcDbMText
 10
-1.195
 20
-2.5405904091
 30
0.0
 40
0.1903
 41
0.0
 71
     1
 72
     1
  1
For Instructional Use Only.
  7
SLDTEXTSTYLE0
 73
     1
 44
1.0
  0
ENDSEC
  0
SECTION
  2
OBJECTS
  0
DICTIONARY
  5
C
330
0
100
AcDbDictionary
281
     1
  3
ACAD_GROUP
350
D
  3
ACAD_LAYOUT
350
1A
  3
ACAD_MLINESTYLE
350
17
  3
ACAD_PLOTSETTINGS
350
19
  3
ACAD_PLOTSTYLENAME
350
E
  3
ACAD_SCALELIST
350
47
  0
DICTIONARY
  5
D
102
{ACAD_REACTORS
330
C
102
}
330
C
100
AcDbDictionary
281
     1
  0
DICTIONARY
  5
1A
102
{ACAD_REACTORS
330
C
102
}
330
C
100
AcDbDictionary
281
     1
  3
Layout1
350
1E
  3
Layout2
350
26
  3
Model
350
22
  0
DICTIONARY
  5
17
102
{ACAD_REACTORS
330
C
102
}
330
C
100
AcDbDictionary
281
     1
  3
Standard
350
18
  0
DICTIONARY
  5
19
102
{ACAD_REACTORS
330
C
102
}
330
C
100
AcDbDictionary
281
     1
  0
ACDBDICTIONARYWDFLT
  5
E
102
{ACAD_REACTORS
330
C
102
}
330
C
100
AcDbDictionary
281
     1
  3
Normal
350
F
100
AcDbDictionaryWithDefault
340
F
  0
DICTIONARY
  5
47
102
{ACAD_REACTORS
330
C
102
}
330
C
100
AcDbDictionary
281
     1
  3
A0
350
48
  3
A1
350
49
  3
A2
350
4A
  3
A3
350
4B
  3
A4
350
4C
  3
A5
350
4D
  3
A6
350
4E
  3
A7
350
4F
  3
A8
350
50
  3
A9
350
51
  3
B0
350
52
  3
B1
350
53
  3
B2
350
54
  3
B3
350
55
  3
B4
350
56
  3
B5
350
57
  3
B6
350
58
  3
B7
350
59
  3
B8
350
5A
  3
B9
350
5B
  3
C0
350
5C
  3
C1
350
5D
  3
C2
350
5E
  3
C3
350
5F
  3
C4
350
60
  3
C5
350
61
  3
C6
350
62
  3
C7
350
63
  3
C8
350
64
  3
C9
350
65
  3
D0
350
66
  3
D1
350
67
  3
D2
350
68
  0
LAYOUT
  5
1E
102
{ACAD_REACTORS
330
1A
102
}
330
1A
100
AcDbPlotSettings
  1

  2
none_device
  4

  6

 40
0.0
 41
0.0
 42
0.0
 43
0.0
 44
0.0
 45
0.0
 46
0.0
 47
0.0
 48
0.0
 49
0.0
140
0.0
141
0.0
142
1.0
143
1.0
 70
   688
 72
     0
 73
     0
 74
     5
  7

 75
    16
147
1.0
148
0.0
149
0.0
100
AcDbLayout
  1
Layout1
 70
     1
 71
     1
 10
0.0
 20
0.0
 11
12.0
 21
9.0
 12
0.0
 22
0.0
 32
0.0
 14
1.0000000000E+20
 24
1.0000000000E+20
 34
1.0000000000E+20
 15
-1.0000000000E+20
 25
-1.0000000000E+20
 35
-1.0000000000E+20
146
0.0
 13
0.0
 23
0.0
 33
0.0
 16
1.0
 26
0.0
 36
0.0
 17
0.0
 27
1.0
 37
0.0
 76
     0
330
1B
  0
LAYOUT
  5
26
102
{ACAD_REACTORS
330
1A
102
}
330
1A
100
AcDbPlotSettings
  1

  2
none_device
  4

  6

 40
0.0
 41
0.0
 42
0.0
 43
0.0
 44
0.0
 45
0.0
 46
0.0
 47
0.0
 48
0.0
 49
0.0
140
0.0
141
0.0
142
1.0
143
1.0
 70
   688
 72
     0
 73
     0
 74
     5
  7

 75
    16
147
1.0
148
0.0
149
0.0
100
AcDbLayout
  1
Layout2
 70
     1
 71
     2
 10
0.0
 20
0.0
 11
0.0
 21
0.0
 12
0.0
 22
0.0
 32
0.0
 14
0.0
 24
0.0
 34
0.0
 15
0.0
 25
0.0
 35
0.0
146
0.0
 13
0.0
 23
0.0
 33
0.0
 16
1.0
 26
0.0
 36
0.0
 17
0.0
 27
1.0
 37
0.0
 76
     0
330
23
  0
LAYOUT
  5
22
102
{ACAD_REACTORS
330
1A
102
}
330
1A
100
AcDbPlotSettings
  1

  2
none_device
  4
ANSI_A_(11.00_x_8.50_Inches)
  6

 40
6.35
 41
19.05
 42
6.35000508
 43
19.05000254
 44
279.4
 45
215.9
 46
133.34999746
 47
88.89999873
 48
0.0
 49
0.0
140
0.0
141
0.0
142
1.8995485327
143
1.0
 70
  1696
 72
     0
 73
     0
 74
     0
  7

 75
     0
147
0.5913241897
148
-39.4088153714
149
0.0
100
AcDbLayout
  1
Model
 70
     1
 71
     0
 10
0.0
 20
0.0
 11
12.0
 21
9.0
 12
0.0
 22
0.0
 32
0.0
 14
-1.195
 24
-2.215
 34
0.0
 15
1.195
 25
2.215
 35
0.0
146
0.0
 13
0.0
 23
0.0
 33
0.0
 16
1.0
 26
0.0
 36
0.0
 17
0.0
 27
1.0
 37
0.0
 76
     0
330
1F
331
29
  0
MLINESTYLE
  5
18
102
{ACAD_REACTORS
330
17
102
}
330
17
100
AcDbMlineStyle
  2
Standard
 70
     0
  3

 62
   256
 51
90.0
 52
90.0
 71
     2
 49
0.5
 62
   256
  6
BYLAYER
 49
-0.5
 62
   256
  6
BYLAYER
  0
ACDBPLACEHOLDER
  5
F
102
{ACAD_REACTORS
330
E
102
}
330
E
  0
SCALE
  5
48
102
{ACAD_REACTORS
330
47
102
}
330
47
100
AcDbScale
 70
     0
300
1:1
140
1.0
141
1.0
290
     1
  0
SCALE
  5
49
102
{ACAD_REACTORS
330
47
102
}
330
47
100
AcDbScale
 70
     0
300
1:2
140
1.0
141
2.0
290
     0
  0
SCALE
  5
4A
102
{ACAD_REACTORS
330
47
102
}
330
47
100
AcDbScale
 70
     0
300
1:4
140
1.0
141
4.0
290
     0
  0
SCALE
  5
4B
102
{ACAD_REACTORS
330
47
102
}
330
47
100
AcDbScale
 70
     0
300
1:5
140
1.0
141
5.0
290
     0
  0
SCALE
  5
4C
102
{ACAD_REACTORS
330
47
102
}
330
47
100
AcDbScale
 70
     0
300
1:8
140
1.0
141
8.0
290
     0
  0
SCALE
  5
4D
102
{ACAD_REACTORS
330
47
102
}
330
47
100
AcDbScale
 70
     0
300
1:10
140
1.0
141
10.0
290
     0
  0
SCALE
  5
4E
102
{ACAD_REACTORS
330
47
102
}
330
47
100
AcDbScale
 70
     0
300
1:16
140
1.0
141
16.0
290
     0
  0
SCALE
  5
4F
102
{ACAD_REACTORS
330
47
102
}
330
47
100
AcDbScale
 70
     0
300
1:20
140
1.0
141
20.0
290
     0
  0
SCALE
  5
50
102
{ACAD_REACTORS
330
47
102
}
330
47
100
AcDbScale
 70
     0
300
1:30
140
1.0
141
30.0
290
     0
  0
SCALE
  5
51
102
{ACAD_REACTORS
330
47
102
}
330
47
100
AcDbScale
 70
     0
300
1:40
140
1.0
141
40.0
290
     0
  0
SCALE
  5
52
102
{ACAD_REACTORS
330
47
102
}
330
47
100
AcDbScale
 70
     0
300
1:50
140
1.0
141
50.0
290
     0
  0
SCALE
  5
53
102
{ACAD_REACTORS
330
47
102
}
330
47
100
AcDbScale
 70
     0
300
1:100
140
1.0
141
100.0
290
     0
  0
SCALE
  5
54
102
{ACAD_REACTORS
330
47
102
}
330
47
100
AcDbScale
 70
     0
300
2:1
140
2.0
141
1.0
290
     0
  0
SCALE
  5
55
102
{ACAD_REACTORS
330
47
102
}
330
47
100
AcDbScale
 70
     0
300
4:1
140
4.0
141
1.0
290
     0
  0
SCALE
  5
56
102
{ACAD_REACTORS
330
47
102
}
330
47
100
AcDbScale
 70
     0
300
8:1
140
8.0
141
1.0
290
     0
  0
SCALE
  5
57
102
{ACAD_REACTORS
330
47
102
}
330
47
100
AcDbScale
 70
     0
300
10:1
140
10.0
141
1.0
290
     0
  0
SCALE
  5
58
102
{ACAD_REACTORS
330
47
102
}
330
47
100
AcDbScale
 70
     0
300
100:1
140
100.0
141
1.0
290
     0
  0
SCALE
  5
59
102
{ACAD_REACTORS
330
47
102
}
330
47
100
AcDbScale
 70
     0
300
1/128" = 1'-0"
140
0.0078125
141
12.0
290
     0
  0
SCALE
  5
5A
102
{ACAD_REACTORS
330
47
102
}
330
47
100
AcDbScale
 70
     0
300
1/64" = 1'-0"
140
0.015625
141
12.0
290
     0
  0
SCALE
  5
5B
102
{ACAD_REACTORS
330
47
102
}
330
47
100
AcDbScale
 70
     0
300
1/32" = 1'-0"
140
0.03125
141
12.0
290
     0
  0
SCALE
  5
5C
102
{ACAD_REACTORS
330
47
102
}
330
47
100
AcDbScale
 70
     0
300
1/16" = 1'-0"
140
0.0625
141
12.0
290
     0
  0
SCALE
  5
5D
102
{ACAD_REACTORS
330
47
102
}
330
47
100
AcDbScale
 70
     0
300
3/32" = 1'-0"
140
0.09375
141
12.0
290
     0
  0
SCALE
  5
5E
102
{ACAD_REACTORS
330
47
102
}
330
47
100
AcDbScale
 70
     0
300
1/8" = 1'-0"
140
0.125
141
12.0
290
     0
  0
SCALE
  5
5F
102
{ACAD_REACTORS
330
47
102
}
330
47
100
AcDbScale
 70
     0
300
3/16" = 1'-0"
140
0.1875
141
12.0
290
     0
  0
SCALE
  5
60
102
{ACAD_REACTORS
330
47
102
}
330
47
100
AcDbScale
 70
     0
300
1/4" = 1'-0"
140
0.25
141
12.0
290
     0
  0
SCALE
  5
61
102
{ACAD_REACTORS
330
47
102
}
330
47
100
AcDbScale
 70
     0
300
3/8" = 1'-0"
140
0.375
141
12.0
290
     0
  0
SCALE
  5
62
102
{ACAD_REACTORS
330
47
102
}
330
47
100
AcDbScale
 70
     0
300
1/2" = 1'-0"
140
0.5
141
12.0
290
     0
  0
SCALE
  5
63
102
{ACAD_REACTORS
330
47
102
}
330
47
100
AcDbScale
 70
     0
300
3/4" = 1'-0"
140
0.75
141
12.0
290
     0
  0
SCALE
  5
64
102
{ACAD_REACTORS
330
47
102
}
330
47
100
AcDbScale
 70
     0
300
1" = 1'-0"
140
1.0
141
12.0
290
     0
  0
SCALE
  5
65
102
{ACAD_REACTORS
330
47
102
}
330
47
100
AcDbScale
 70
     0
300
1-1/2" = 1'-0"
140
1.5
141
12.0
290
     0
  0
SCALE
  5
66
102
{ACAD_REACTORS
330
47
102
}
330
47
100
AcDbScale
 70
     0
300
3" = 1'-0"
140
3.0
141
12.0
290
     0
  0
SCALE
  5
67
102
{ACAD_REACTORS
330
47
102
}
330
47
100
AcDbScale
 70
     0
300
6" = 1'-0"
140
6.0
141
12.0
290
     0
  0
SCALE
  5
68
102
{ACAD_REACTORS
330
47
102
}
330
47
100
AcDbScale
 70
     0
300
1'-0" = 1'-0"
140
12.0
141
12.0
290
     0
  0
ENDSEC
  0
EOF
